<?xml version="1.0" encoding="UTF-8" standalone="no"?>
<svg width="19px" height="24px" viewBox="0 0 19 24" version="1.1" xmlns="http://www.w3.org/2000/svg" xmlns:xlink="http://www.w3.org/1999/xlink">
    <!-- Generator: Sketch 3.7.2 (28276) - http://www.bohemiancoding.com/sketch -->
    <title>Page 1</title>
    <desc>Created with Sketch.</desc>
    <defs></defs>
    <g id="Page-1" stroke="none" stroke-width="1" fill="none" fill-rule="evenodd">
        <g fill="#000000">
            <path d="M18.24,24 L0.68992,24 C0.39008,24 0.19008,23.8 0.19008,23.50016 L0.19008,10.30016 C0.19008,10 0.39008,9.8 0.68992,9.8 L18.24,9.8 C18.54016,9.8 18.73984,10 18.73984,10.30016 L18.73984,23.50016 C18.73984,23.8 18.54016,24 18.24,24 L18.24,24 Z M1.19008,23 L17.74016,23 L17.74016,10.8 L1.19008,10.8 L1.19008,23 Z" id="Fill-1"></path>
            <path d="M15.68992,10.49984 C15.39008,10.49984 15.19008,10.30016 15.19008,10 L15.19008,4 C15.19008,2.35008 13.84,1 12.19008,1 L6.68992,1 C5.04,1 3.68992,2.35008 3.68992,4 L3.68992,10 C3.68992,10.30016 3.48992,10.49984 3.19008,10.49984 C2.88992,10.49984 2.68992,10.30016 2.68992,10 L2.68992,4 C2.68992,1.8 4.48992,0 6.68992,0 L12.19008,0 C14.33984,0 16.19008,1.84992 16.19008,4 L16.19008,10 C16.19008,10.30016 15.99008,10.49984 15.68992,10.49984 L15.68992,10.49984 Z" id="Fill-2"></path>
            <path d="M11.04,18.04992 C11.04,20.18368 7.84,20.18368 7.84,18.04992 C7.84,15.91616 11.04,15.91616 11.04,18.04992" id="Fill-3"></path>
            <path d="M9.44,21.8 C9.13984,21.8 8.94016,21.6 8.94016,21.29984 L8.94016,18.70016 C8.94016,18.4 9.13984,18.2 9.44,18.2 C9.74016,18.2 9.93984,18.4 9.93984,18.70016 L9.93984,21.29984 C9.93984,21.6 9.74016,21.8 9.44,21.8 L9.44,21.8 Z" id="Fill-4"></path>
        </g>
    </g>
</svg>