<?xml version="1.0" encoding="UTF-8" standalone="no"?>
<svg width="13px" height="25px" viewBox="0 0 13 25" version="1.1" xmlns="http://www.w3.org/2000/svg" xmlns:xlink="http://www.w3.org/1999/xlink">
    <!-- Generator: Sketch 3.7.2 (28276) - http://www.bohemiancoding.com/sketch -->
    <title>Combined Shape</title>
    <desc>Created with Sketch.</desc>
    <defs></defs>
    <g id="Page-1" stroke="none" stroke-width="1" fill="none" fill-rule="evenodd">
        <path d="M10.1095607,0.83085074 C11.151861,0.83085074 11.9969897,1.67597946 11.9969897,2.72091377 L11.9969897,21.6102556 C11.9969897,22.6536848 11.151861,23.4973084 10.1095607,23.4973084 L2.55457653,23.4973084 C1.51114735,23.4973084 0.665642344,22.6536848 0.665642344,21.6102556 L0.665642344,2.72091377 C0.665642344,1.67748459 1.51114735,0.83085074 2.55457653,0.83085074 L10.1095607,0.83085074 L10.1095607,0.83085074 Z M10.1095607,0.164832115 L2.55457653,0.164832115 C1.14653037,0.164832115 1.80300219e-13,1.31136248 1.80300219e-13,2.72091377 L1.80300219e-13,21.6102556 C1.80300219e-13,23.0183017 1.14653037,24.1648321 2.55457653,24.1648321 L10.1110658,24.1648321 C11.5206171,24.1648321 12.6656423,23.0183017 12.6656423,21.6102556 L12.6656423,2.72091377 C12.6641372,1.31136248 11.519112,0.164832115 10.1095607,0.164832115 Z M6.33206861,23.0739914 C5.62804553,23.0739914 5.0545922,22.5024195 5.0545922,21.7968913 C5.0545922,21.0928682 5.62804553,20.52092 6.33206861,20.52092 C7.03759681,20.52092 7.60954501,21.0928682 7.60954501,21.7968913 C7.60803989,22.5024195 7.03609169,23.0739914 6.33206861,23.0739914 Z M6.33206861,21.1869387 C5.99529648,21.1869387 5.72061083,21.4601192 5.72061083,21.7968913 C5.72061083,22.1332872 5.99416763,22.4098542 6.33206861,22.4098542 C6.66884074,22.4098542 6.94352639,22.1347923 6.94352639,21.7968913 C6.94352639,21.4601192 6.66884074,21.1869387 6.33206861,21.1869387 Z M11.3870371,20.052073 L1.27710012,20.052073 L1.27710012,4.27608607 L11.3885422,4.27608607 L11.3885422,20.052073 L11.3870371,20.052073 Z M1.94311875,19.3860544 L10.7210185,19.3860544 L10.7210185,4.94360983 L1.94311875,4.94360983 L1.94311875,19.3860544 Z" id="Combined-Shape" fill="#4A4A4A"></path>
    </g>
</svg>