<?xml version="1.0" encoding="UTF-8" standalone="no"?>
<svg width="24px" height="19px" viewBox="0 0 24 19" version="1.1" xmlns="http://www.w3.org/2000/svg" xmlns:xlink="http://www.w3.org/1999/xlink">
    <!-- Generator: Sketch 3.7.2 (28276) - http://www.bohemiancoding.com/sketch -->
    <title>Combined Shape</title>
    <desc>Created with Sketch.</desc>
    <defs></defs>
    <g id="Page-1" stroke="none" stroke-width="1" fill="none" fill-rule="evenodd">
        <path d="M12.0008328,15.7715947 C9.21349749,15.7715947 6.94651805,13.5046153 6.94651805,10.7186125 C6.94651805,7.93094402 9.21349749,5.66429771 12.0008328,5.66429771 C14.7868356,5.66429771 17.0538151,7.93094402 17.0538151,10.7186125 C17.0538151,13.5046153 14.7868356,15.7715947 12.0008328,15.7715947 L12.0008328,15.7715947 Z M21.357245,2.43689186 L9.19251003,2.43689186 L9.19251003,1.56241411 C9.19251003,0.85983371 8.62118457,0.287175715 7.91727163,0.287175715 L3.82471579,0.287175715 C3.12213539,0.287175715 2.5494774,0.858501173 2.5494774,1.56241411 L2.5494774,2.44222201 C1.13498883,2.49152589 0,3.65483114 0,5.07998001 L0,16.3569118 C0,17.8143747 1.18562525,19 2.64308816,19 L21.357245,19 C22.8147079,19 24,17.8143747 24,16.3569118 L24,5.07998001 C24,3.62251711 22.8147079,2.43689186 21.357245,2.43689186 Z M12.0008328,7.04347404 C9.97337701,7.04347404 8.32469497,8.69248921 8.32469497,10.7186125 C8.32469497,12.7447358 9.97337701,14.3934178 12.0008328,14.3934178 C14.0269561,14.3934178 15.6756382,12.7447358 15.6756382,10.7186125 C15.6743056,8.69248921 14.0269561,7.04347404 12.0008328,7.04347404 Z M22.6208237,16.3569118 C22.6208237,17.0544952 22.0534958,17.6218231 21.3559124,17.6218231 L2.64175562,17.6218231 C1.94417223,17.6218231 1.37684438,17.0544952 1.37684438,16.3569118 L1.37684438,5.07998001 C1.37684438,4.38372916 1.94417223,3.81506878 2.64175562,3.81506878 L3.0281915,3.81506878 C3.0281915,3.81506878 3.92765432,3.82939356 3.92765432,2.91727163 L3.92765432,2.57214441 L3.92765432,1.66668517 L7.8133337,1.66668517 L7.80800355,2.57214441 C7.80800355,2.57214441 7.80667102,2.00481657 7.80667102,2.91727163 C7.80667102,3.82939356 8.70313563,3.81506878 8.70313563,3.81506878 L21.3559124,3.81506878 C22.0534958,3.81506878 22.6208237,4.38239662 22.6208237,5.07998001 L22.6208237,16.3569118 Z" id="Combined-Shape" fill="#4A4A4A"></path>
    </g>
</svg>