<?xml version="1.0" encoding="UTF-8" standalone="no"?>
<svg width="21px" height="24px" viewBox="0 0 21 24" version="1.1" xmlns="http://www.w3.org/2000/svg" xmlns:xlink="http://www.w3.org/1999/xlink">
    <!-- Generator: Sketch 3.7.2 (28276) - http://www.bohemiancoding.com/sketch -->
    <title>Page 1</title>
    <desc>Created with Sketch.</desc>
    <defs></defs>
    <g id="Page-1" stroke="none" stroke-width="1" fill="none" fill-rule="evenodd">
        <path d="M2.14823235,7.22958657 C0.74680504,9.05144207 0,11.2463887 0,13.5821008 C0,19.3285756 4.67142435,24 10.4178992,24 C16.1649968,24 20.8364212,19.3285756 20.8364212,13.5821008 C20.8364212,8.20996283 16.724322,3.72601831 11.4468582,3.21216163 L13.875376,1.95212277 C14.3886099,1.67246016 14.5760897,1.06392928 14.2964271,0.550695461 C14.0161416,0.0374616382 13.4082336,-0.150018192 12.8949998,0.129644412 L7.80252438,2.79173344 C7.756433,2.79173344 7.756433,2.83782482 7.70971875,2.83782482 C7.66362737,2.83782482 7.66362737,2.88391621 7.61753598,2.88391621 C7.57144459,2.9300076 7.57144459,2.9300076 7.5253532,2.97609898 C7.47863896,3.06890462 7.43254757,3.06890462 7.43254757,3.114996 C7.43254757,3.16108739 7.38645619,3.16108739 7.38645619,3.20780163 C7.38645619,3.25389302 7.3403648,3.25389302 7.3403648,3.29998441 C7.3403648,3.34607579 7.29365056,3.34607579 7.29365056,3.39216718 L7.29365056,3.48497281 L7.29365056,3.57715558 L7.29365056,3.66996122 L7.29365056,3.76214399 L7.29365056,3.85494962 L7.29365056,3.94713239 C7.29365056,3.99322378 7.29365056,3.99322378 7.3403648,4.03931517 C7.3403648,4.08602941 7.38645619,4.1321208 7.38645619,4.1321208 C7.43254757,4.22430357 7.47863896,4.27101782 7.5253532,4.27101782 L11.0750129,8.89572792 C11.2624927,9.17601339 11.5882467,9.31677897 11.9164921,9.31677897 C12.1500633,9.31677897 12.3375431,9.27068759 12.5711144,9.08320776 C13.0382568,8.75745376 13.1310624,8.1028315 12.7585942,7.63568906 L10.8900245,5.20717126 C15.3278776,5.39465109 18.8314459,9.03711637 18.8314459,13.5235523 C18.8314459,18.1027939 15.0943064,21.8399334 10.5150648,21.8399334 C5.93644607,21.8399334 2.19930659,18.1027939 2.19930659,13.5235523 C2.19930659,11.6549826 2.80721461,9.92780128 3.92648788,8.43107692 C4.15507625,8.06857439 4.06289347,7.41395212 3.59575104,7.04210674 C3.1286086,6.66714708 2.47398634,6.76244414 2.14823235,7.22958657 Z" fill="#4A4A4A"></path>
    </g>
</svg>