<?xml version="1.0" encoding="UTF-8" standalone="no"?>
<svg width="24px" height="24px" viewBox="0 0 24 24" version="1.1" xmlns="http://www.w3.org/2000/svg" xmlns:xlink="http://www.w3.org/1999/xlink">
    <!-- Generator: Sketch 3.7.2 (28276) - http://www.bohemiancoding.com/sketch -->
    <title>option-edit</title>
    <desc>Created with Sketch.</desc>
    <defs></defs>
    <g id="Page-1" stroke="none" stroke-width="1" fill="none" fill-rule="evenodd">
        <g id="option-edit" transform="translate(1.000000, 1.000000)" fill="#4A4A4A" stroke="#4A4A4A">
            <g id="Imported-Layers">
                <g id="Page-1">
                    <g id="Imported-Layers" transform="translate(0.000000, 0.085663)">
                        <path d="M19.0958205,19.6673789 C19.0958205,20.8491518 18.1367883,21.8104082 16.9553483,21.8104082 L2.5792,21.8104082 C1.39816585,21.8104082 0.437510245,20.8491518 0.437510245,19.6673789 L0.437510245,5.28223993 C0.437510245,4.10209162 1.39816585,3.14083522 2.5792,3.14083522 L12.6338185,3.14083522 L12.6338185,2.8029538 L2.5792,2.8029538 C1.21269073,2.8029538 0.0998400001,3.91487606 0.0998400001,5.28223993 L0.0998400001,19.6673789 C0.0998400001,21.0363672 1.21269073,22.1499139 2.5792,22.1499139 L16.9569717,22.1499139 C18.323481,22.1499139 19.4351142,21.0363672 19.4351142,19.6673789 L19.4351142,9.81115051 L19.097444,9.81115051 L19.097444,19.6673789 L19.0958205,19.6673789 L19.0958205,19.6673789 Z" id="Fill-1"></path>
                        <path d="M21.3755005,0.480425144 C21.0950555,0.229856832 20.7334399,0.0934047194 20.359243,0.0934047194 C19.9233561,0.0934047194 19.5077619,0.278995836 19.2191999,0.604287924 L8.8796722,12.1925647 C8.35328,12.7826389 8.24532293,13.1664105 7.72867122,15.5620385 L7.66535805,15.8568725 L7.94904975,15.7585945 C8.22340684,15.6635653 10.6455415,14.808303 11.1609756,14.2324426 L21.4976625,2.64254134 C22.0601756,2.01104421 22.0049796,1.04207178 21.3755005,0.480425144 L21.3755005,0.480425144 L21.3755005,0.480425144 Z M21.2472508,2.41552727 L10.9089405,14.0058346 C10.5664,14.3896062 8.98113562,15.0223216 8.12356683,15.3350244 C8.57528195,13.2504747 8.6799922,12.9251826 9.13170732,12.4175483 L19.4683942,0.827647036 C19.6932371,0.575454293 20.0167024,0.429661709 20.3559961,0.429661709 C20.647805,0.429661709 20.9298732,0.53728019 21.1470049,0.732617886 C21.6401171,1.17040174 21.6831375,1.92535555 21.2472508,2.41552727 L21.2472508,2.41552727 L21.2472508,2.41552727 Z" id="Fill-2"></path>
                    </g>
                </g>
            </g>
        </g>
    </g>
</svg>