<?xml version="1.0" encoding="UTF-8" standalone="no"?>
<svg width="24px" height="24px" viewBox="0 0 24 24" version="1.1" xmlns="http://www.w3.org/2000/svg" xmlns:xlink="http://www.w3.org/1999/xlink" xmlns:sketch="http://www.bohemiancoding.com/sketch/ns">
    <!-- Generator: Sketch 3.3.3 (12081) - http://www.bohemiancoding.com/sketch -->
    <title>Oval 406 + menu-chat copy 2</title>
    <desc>Created with Sketch.</desc>
    <defs></defs>
    <g id="Page-1" stroke="none" stroke-width="1" fill="none" fill-rule="evenodd" sketch:type="MSPage">
        <g id="iPhone-6" sketch:type="MSArtboardGroup" transform="translate(-17.000000, -212.000000)">
            <g id="Oval-406-+-menu-chat-copy-2" sketch:type="MSLayerGroup" transform="translate(17.000000, 212.000000)">
                <g sketch:type="MSShapeGroup">
                    <circle id="Oval-406" fill="#FF8A65" cx="12" cy="12" r="12"></circle>
                    <g id="menu-chat-copy-2" transform="translate(6.822857, 6.822857)" fill="#FFFFFF">
                        <path d="M8.37075279,2.39808173e-14 L2.45623549,2.39808173e-14 C1.09980694,2.39808173e-14 -7.52287121e-13,1.09980694 -7.52287121e-13,2.45623549 L-7.52287121e-13,5.53569491 C-7.52287121e-13,6.89212347 1.09980694,7.99193041 2.45623549,7.99193041 L6.56218139,7.99193041 L8.49295357,10.2037644 L9.01841688,10.8025481 C9.04285703,10.8392084 9.09173734,10.8514284 9.12839757,10.8514284 C9.14061765,10.8514284 9.1650578,10.8514284 9.17727788,10.8392084 C9.23837827,10.8147682 9.2750385,10.7658879 9.2750385,10.7047875 L9.2750385,7.82084933 C10.2037644,7.45424701 10.8269883,6.54996131 10.8269883,5.53569491 L10.8269883,2.45623549 C10.8269883,1.09980694 9.72718135,2.39808173e-14 8.37075279,2.39808173e-14 L8.37075279,2.39808173e-14 Z" id="Shape"></path>
                    </g>
                </g>
            </g>
        </g>
    </g>
</svg>
