<?xml version="1.0" encoding="utf-8"?>
<!-- Generator: Adobe Illustrator 18.0.0, SVG Export Plug-In . SVG Version: 6.00 Build 0)  -->
<!DOCTYPE svg PUBLIC "-//W3C//DTD SVG 1.1//EN" "http://www.w3.org/Graphics/SVG/1.1/DTD/svg11.dtd">
<svg version="1.1" id="Layer_1" xmlns="http://www.w3.org/2000/svg" xmlns:xlink="http://www.w3.org/1999/xlink" x="0px" y="0px"
	 viewBox="0 0 144 144" enable-background="new 0 0 144 144" xml:space="preserve">
<path fill-rule="evenodd" clip-rule="evenodd" fill="#A4A4A4" d="M74.9,73.9C72,90,69.1,110.2,63.4,125.7h17.3
	c9.2-13.8,16.7-33.4,23-51.8H74.9z M115.2,73.9c-2.9,16.1-5.2,36.3-11.5,51.8H121c9.2-13.8,16.7-33.4,23-51.8H115.2z M80.6,10.5
	H63.4c-9.2,13.8-16.7,33.4-23,51.8h28.8C72,46.2,74.9,26.1,80.6,10.5z M23,10.5C13.8,24.4,6.3,43.9,0,62.4h28.8
	c2.9-16.1,5.2-36.3,11.5-51.8H23z"/>
</svg>
