<?xml version="1.0" encoding="UTF-8" standalone="no"?>
<svg width="17px" height="17px" viewBox="0 0 17 17" version="1.1" xmlns="http://www.w3.org/2000/svg" xmlns:xlink="http://www.w3.org/1999/xlink" xmlns:sketch="http://www.bohemiancoding.com/sketch/ns">
    <!-- Generator: Sketch 3.3.2 (12043) - http://www.bohemiancoding.com/sketch -->
    <title>Imported Layers</title>
    <desc>Created with Sketch.</desc>
    <defs></defs>
    <g id="Page-1" stroke="none" stroke-width="1" fill="none" fill-rule="evenodd" sketch:type="MSPage">
        <g id="iPhone-6" sketch:type="MSArtboardGroup" transform="translate(-316.000000, -129.000000)" fill="#A4A4A4">
            <path d="M324.772227,137.298309 L332.441316,129.603802 C332.578572,129.464512 332.578572,129.240326 332.439282,129.10307 C332.300501,128.966321 332.076315,128.964288 331.939058,129.105103 L324.272003,136.798085 L316.604947,129.105103 C316.466166,128.966321 316.243505,128.966321 316.104723,129.10307 C315.965433,129.24236 315.965433,129.464512 316.10269,129.603802 L323.771778,137.300342 L316.10269,144.995357 C315.965433,145.134139 315.965433,145.358833 316.104723,145.495582 C316.17386,145.565227 316.263331,145.598778 316.354835,145.598778 C316.445831,145.598778 316.537336,145.565227 316.604947,145.493548 L324.272003,137.801075 L331.939058,145.495582 C332.008703,145.565227 332.099699,145.600812 332.18917,145.600812 C332.280675,145.600812 332.370146,145.56726 332.439282,145.497615 C332.578572,145.358833 332.578572,145.136173 332.441316,144.997391 L324.772227,137.298309 Z" id="Imported-Layers" sketch:type="MSShapeGroup"></path>
        </g>
    </g>
</svg>