<?xml version="1.0" encoding="UTF-8" standalone="no"?>
<svg width="22px" height="22px" viewBox="0 0 22 22" version="1.1" xmlns="http://www.w3.org/2000/svg" xmlns:xlink="http://www.w3.org/1999/xlink" xmlns:sketch="http://www.bohemiancoding.com/sketch/ns">
    <!-- Generator: Sketch 3.3.2 (12043) - http://www.bohemiancoding.com/sketch -->
    <title>contacts</title>
    <desc>Created with Sketch.</desc>
    <defs>
        <circle id="path-1" cx="10" cy="10" r="10"></circle>
    </defs>
    <g id="Page-1" stroke="none" stroke-width="1" fill="none" fill-rule="evenodd" sketch:type="MSPage">
        <g id="iPhone-6" sketch:type="MSArtboardGroup" transform="translate(-42.000000, -414.000000)">
            <g id="contacts" sketch:type="MSLayerGroup" transform="translate(43.000000, 415.000000)">
                <mask id="mask-2" sketch:name="Mask" fill="white">
                    <use xlink:href="#path-1"></use>
                </mask>
                <use id="Mask" stroke="#E4E4E4" stroke-width="2" sketch:type="MSShapeGroup" xlink:href="#path-1"></use>
                <g id="default-private" mask="url(#mask-2)">
                    <g transform="translate(-1.000000, -1.000000)" id="Page-1">
                        <g>
                            <g id="iPhone-6" sketch:type="MSShapeGroup">
                                <g id="Rectangle-196-+-Imported-Layers-Copy">
                                    <rect id="Rectangle-196" fill="#FFFFFF" x="0" y="0" width="22" height="22"></rect>
                                    <path d="M1.66666667,20.3068709 C1.66666667,20.3068709 1.77642667,19.2690983 3.02087111,18.9469189 C3.02087111,18.9469189 5.0256711,18.21183 6.5959111,17.5252304 C7.40753777,17.170808 7.58275557,16.9571049 8.4013511,16.5939344 C8.4013511,16.5939344 8.48672,16.1710271 8.4556089,15.920332 L9.09649777,15.920332 C9.09649777,15.920332 9.24309333,16.0060632 9.09649777,15.0132807 C9.09649777,15.0132807 8.31573333,14.8053263 8.2786489,13.2244226 C8.2786489,13.2244226 7.69251557,13.4226292 7.65642667,12.4648391 C7.63228443,11.8157313 7.13152,11.2523547 7.85205333,10.7864568 L7.48544,9.79467407 C7.48544,9.79467407 6.75345777,5.78855177 8.8583111,6.37642297 C7.97152,5.31115637 13.8913422,4.24513993 14.2763733,7.62714897 C14.2763733,7.62714897 14.5506489,9.45299893 14.2763733,10.7027251 C14.2763733,10.7027251 15.1407644,10.6019972 14.5630933,12.2706316 C14.5630933,12.2706316 14.2462578,13.4716185 13.7581867,13.2021775 C13.7581867,13.2021775 13.8378311,14.7213447 13.0687644,14.9790382 C13.0687644,14.9790382 13.1232711,15.7873611 13.1232711,15.8430989 L13.8555022,15.9533248 C13.8555022,15.9533248 13.7454933,16.6154297 13.87392,16.6886637 C13.87392,16.6886637 14.7420444,17.2860328 15.7764267,17.5527244 C17.77152,18.0671117 20.1319822,18.9489185 20.1319822,19.7212493 C20.1319822,19.7212493 20.3333333,20.7502738 20.3333333,22 L1.66666667,22 L1.66666667,20.3068709 L1.66666667,20.3068709 Z" id="Imported-Layers-Copy" fill="#E0E0E0"></path>
                                </g>
                            </g>
                        </g>
                    </g>
                </g>
            </g>
        </g>
    </g>
</svg>