<?xml version="1.0" encoding="UTF-8" standalone="no"?>
<svg width="18px" height="18px" viewBox="0 0 18 18" version="1.1" xmlns="http://www.w3.org/2000/svg" xmlns:xlink="http://www.w3.org/1999/xlink" xmlns:sketch="http://www.bohemiancoding.com/sketch/ns">
    <!-- Generator: Sketch 3.3.2 (12043) - http://www.bohemiancoding.com/sketch -->
    <title>decline-icon</title>
    <desc>Created with Sketch.</desc>
    <defs></defs>
    <g id="Page-1" stroke="none" stroke-width="1" fill="none" fill-rule="evenodd" sketch:type="MSPage">
        <g id="boxView" sketch:type="MSArtboardGroup" transform="translate(-188.000000, -369.000000)" fill="#DC4242">
            <g id="invite-1" sketch:type="MSLayerGroup" transform="translate(8.000000, 315.000000)">
                <g id="invite-content" transform="translate(15.000000, 11.000000)" sketch:type="MSShapeGroup">
                    <g id="decline" transform="translate(165.000000, 42.000000)">
                        <g id="decline-icon" transform="translate(0.000000, 1.000000)">
                            <path d="M0,9.00047997 C0,4.03010506 4.02936,0.000959948803 9,0 L9,0.664764546 C4.3968,0.674124047 0.6732,4.39656552 0.6648,9.00047997 C0.6732,13.6024745 4.3968,17.325876 9,17.3345155 C13.6032,17.325876 17.32584,13.6024745 17.3352,8.99952003 C17.3268,4.39656552 13.6032,0.674124047 9,0.664764546 L9,0 C13.97064,0.000959948803 18,4.03010506 18,9.00047997 C18,13.9708549 13.97064,18 9,18 C4.02936,17.9990401 0,13.9698949 0,9.00047997 L0,9.00047997 Z" id="Fill-1"></path>
                            <path d="M5.62865196,12.3707425 C5.50839806,12.2504993 5.50839806,12.0544069 5.62865196,11.9332713 L11.933838,5.62864397 C12.054315,5.50840073 12.2502017,5.50840073 12.371348,5.62864397 C12.4916019,5.7488872 12.4916019,5.94497961 12.371348,6.06522285 L6.06616195,12.3707425 C6.00592345,12.4309757 5.92672098,12.4615385 5.8472954,12.4615385 C5.76809293,12.4615385 5.68955978,12.4309757 5.62865196,12.3707425 L5.62865196,12.3707425 Z" id="Fill-2"></path>
                            <path d="M11.933838,12.3707425 L5.62865196,6.06611519 C5.50839806,5.94587195 5.50839806,5.74977955 5.62865196,5.62864397 C5.74890585,5.50840073 5.94501564,5.50840073 6.06616195,5.62864397 L12.371348,11.9332713 C12.4916019,12.0537376 12.4916019,12.249607 12.371348,12.3707425 C12.3113326,12.4309757 12.2319071,12.4615385 12.1527046,12.4615385 C12.073279,12.4615385 11.9940765,12.4309757 11.933838,12.3707425 L11.933838,12.3707425 Z" id="Fill-3"></path>
                        </g>
                    </g>
                </g>
            </g>
        </g>
    </g>
</svg>