<?xml version="1.0" encoding="UTF-8" standalone="no"?>
<svg width="24px" height="24px" viewBox="0 0 24 24" version="1.1" xmlns="http://www.w3.org/2000/svg" xmlns:xlink="http://www.w3.org/1999/xlink">
    <!-- Generator: Sketch 3.8.2 (29753) - http://www.bohemiancoding.com/sketch -->
    <title>path4158</title>
    <desc>Created with Sketch.</desc>
    <defs></defs>
    <g id="Page-1" stroke="none" stroke-width="1" fill="none" fill-rule="evenodd">
        <path d="M17,4.978 C15.162,4.978 14.124,5.374 13.32,5.912 C13.833,4.74 15.088,2.978 18,2.978 C18.552,2.978 19,2.53 19,1.978 C19,1.426 18.552,0.978 18,0.978 C15.079,0.978 13.371,2.343 12.453,3.49 C12.389,3.568 12.334,3.652 12.273,3.734 C11.73,1.838 10.798,0.023 9.207,0.023 C8.579,0.022 7.85,0.306 7,0.978 C5.027,2.54 5.329,3.902 6.492,4.999 C3.609,5.222 0,7.352 0,12.969 C0,17.551 4.961,23.978 9,23.978 C10.975,23.978 11.371,23.492 12,22.978 C12.629,23.492 13.025,23.978 15,23.978 C19.039,23.978 24,17.56 24,12.978 C24,7.025 19.945,4.978 17,4.978 M8.242,2.546 C8.883,2.038 9.185,2.023 9.207,2.023 C9.633,2.192 10.182,3.428 10.564,5.078 C9.037,4.449 7.823,3.726 7.584,3.232 C7.643,3.12 7.825,2.876 8.242,2.546 M15,21.978 C13.92,21.978 13.79,21.869 13.441,21.576 L13.265,21.43 C12.898,21.128 12.449,20.978 11.999,20.978 C11.549,20.978 11.101,21.128 10.733,21.43 L10.557,21.576 C10.21,21.868 10.08,21.978 9,21.978 C6.187,21.978 2,16.589 2,12.969 C2,7.146 6.488,6.978 7,6.978 C8.939,6.978 9.484,7.449 10.387,8.229 C10.494,8.321 10.602,8.414 10.71,8.505 C11.083,8.82 11.541,8.978 12,8.978 C12.459,8.978 12.917,8.821 13.29,8.505 C13.398,8.413 13.506,8.32 13.613,8.229 C14.515,7.449 15.06,6.978 17,6.978 C17.512,6.978 22,7.146 22,12.978 C22,16.595 17.813,21.978 15,21.978" id="path4158" fill="#4A4A4A"></path>
    </g>
</svg>