<?xml version="1.0" encoding="UTF-8" standalone="no"?>
<svg width="24px" height="24px" viewBox="0 0 24 24" version="1.1" xmlns="http://www.w3.org/2000/svg" xmlns:xlink="http://www.w3.org/1999/xlink">
    <!-- Generator: Sketch 3.8.2 (29753) - http://www.bohemiancoding.com/sketch -->
    <title>path4207</title>
    <desc>Created with Sketch.</desc>
    <defs></defs>
    <g id="Page-1" stroke="none" stroke-width="1" fill="none" fill-rule="evenodd">
        <path d="M12,0 C5.373,0 0,5.372 0,12 C0,18.627 5.373,24 12,24 C18.628,24 24,18.627 24,12 C24,5.372 18.628,0 12,0 L12,0 Z M21.949,11 L17.05,11 C17.274,8.473 18.282,6.227 19.018,4.887 C20.634,6.481 21.712,8.618 21.949,11 L21.949,11 Z M13,11 L13,2.051 C14.623,2.213 16.13,2.77 17.432,3.615 C16.574,5.106 15.276,7.835 15.04,11 L13,11 L13,11 Z M11,11 L8.961,11 C8.723,7.835 7.425,5.106 6.568,3.615 C7.871,2.77 9.377,2.213 11,2.051 L11,11 L11,11 Z M11,13 L11,21.949 C9.377,21.787 7.871,21.231 6.568,20.385 C7.425,18.893 8.723,16.164 8.961,13 L11,13 L11,13 Z M15.04,13 C15.276,16.164 16.574,18.893 17.432,20.385 C16.13,21.232 14.623,21.787 13,21.949 L13,13 L15.04,13 L15.04,13 Z M4.982,4.887 C5.718,6.227 6.726,8.473 6.951,11 L2.051,11 C2.289,8.618 3.367,6.481 4.982,4.887 L4.982,4.887 Z M2.051,13 L6.951,13 C6.725,15.527 5.718,17.771 4.982,19.113 C3.367,17.52 2.289,15.383 2.051,13 L2.051,13 Z M19.018,19.113 C18.283,17.771 17.274,15.527 17.05,13 L21.949,13 C21.712,15.383 20.634,17.52 19.018,19.113 L19.018,19.113 Z" id="path4207" fill="#4A4A4A"></path>
    </g>
</svg>