<?xml version="1.0" encoding="UTF-8" standalone="no"?>
<svg width="25px" height="24px" viewBox="0 0 25 24" version="1.1" xmlns="http://www.w3.org/2000/svg" xmlns:xlink="http://www.w3.org/1999/xlink">
    <!-- Generator: Sketch 3.8.2 (29753) - http://www.bohemiancoding.com/sketch -->
    <title>Combined Shape</title>
    <desc>Created with Sketch.</desc>
    <defs></defs>
    <g id="Page-1" stroke="none" stroke-width="1" fill="none" fill-rule="evenodd">
        <path d="M12.5,0 C5.873,0 0.5,5.373 0.5,12 C0.5,18.627 5.873,24 12.5,24 C19.127,24 24.5,18.627 24.5,12 C24.5,5.373 19.127,0 12.5,0 M12.5,22 C6.986,22 2.5,17.514 2.5,12 C2.5,6.486 6.986,2 12.5,2 C18.014,2 22.5,6.486 22.5,12 C22.5,17.514 18.014,22 12.5,22 Z M8.5,7 C7.395,7 6.5,7.895 6.5,9 C6.5,10.105 7.395,11 8.5,11 C9.605,11 10.5,10.105 10.5,9 C10.5,7.895 9.605,7 8.5,7 Z M16.5,7 C15.395,7 14.5,7.895 14.5,9 C14.5,10.105 15.395,11 16.5,11 C17.605,11 18.5,10.105 18.5,9 C18.5,7.895 17.605,7 16.5,7 Z M15.732,15 C15.039,16.195 13.862,17 12.383,17 C10.906,17 9.728,16.195 9.036,15 L15.5,15 L15.732,15 Z M18.5,13 L6.5,13 C6.5,16.314 9.186,19 12.5,19 C15.814,19 18.5,16.314 18.5,13 Z" id="Combined-Shape" fill="#4A4A4A"></path>
    </g>
</svg>