<?xml version="1.0" encoding="UTF-8" standalone="no"?>
<svg width="27px" height="26px" viewBox="0 0 27 26" version="1.1" xmlns="http://www.w3.org/2000/svg" xmlns:xlink="http://www.w3.org/1999/xlink" xmlns:sketch="http://www.bohemiancoding.com/sketch/ns">
    <!-- Generator: Sketch 3.3.2 (12043) - http://www.bohemiancoding.com/sketch -->
    <title>Oval 375 + Imported Layers Copy</title>
    <desc>Created with Sketch.</desc>
    <defs></defs>
    <g id="Page-1" stroke="none" stroke-width="1" fill="none" fill-rule="evenodd" sketch:type="MSPage">
        <g id="iPhone-6" sketch:type="MSArtboardGroup" transform="translate(-23.000000, -320.000000)" stroke="#26C6DA" stroke-width="0.5" fill="#26C6DA">
            <g id="Oval-375-+-Imported-Layers-Copy" sketch:type="MSLayerGroup" transform="translate(16.000000, 314.000000)">
                <path d="M32.6922155,15.4805477 C32.6713019,15.4683797 32.170896,15.1995447 31.8632757,14.3071035 C31.6153542,13.5880552 32.2864913,12.5336285 32.5659733,12.187223 C32.6713019,12.058319 32.6610352,11.8697162 32.5404967,11.7522197 L27.435292,6.74968188 C27.3151338,6.63218536 27.126531,6.62496065 27.0002888,6.73333123 C26.9915431,6.74055593 26.0496697,7.52500679 25.2192089,7.52500679 C25.1036136,7.52500679 24.995243,7.50865614 24.8971391,7.47747584 C23.9967127,7.18772714 23.719132,6.69302498 23.7103863,6.67515334 C23.6628553,6.58161242 23.5734971,6.51773082 23.4712105,6.50290117 C23.3700646,6.4895925 23.2647361,6.52229379 23.1902075,6.59644208 L8.09019395,22.002555 C8.01908764,22.0751823 7.98790734,22.1793701 8.00425799,22.2816567 C8.02060863,22.3828026 8.08601123,22.4717806 8.17651016,22.5193115 C8.19742378,22.5314794 8.69782966,22.8003145 9.00544999,23.6927557 C9.25337144,24.411804 8.58185413,25.4662306 8.30275237,25.8126362 C8.19742378,25.9415402 8.20769047,26.130143 8.32784872,26.2476395 L13.4315324,31.2501773 C13.5505499,31.3661528 13.7391527,31.3733775 13.8684369,31.266528 C14.128146,31.0467448 14.9555649,30.4748524 15.6491366,30.4748524 C15.7651121,30.4748524 15.8734827,30.491203 15.9715865,30.5223833 C16.864408,30.810611 17.1450307,31.2992293 17.1613814,31.3273676 C17.2089123,31.4182468 17.2978903,31.4806074 17.3990361,31.496958 C17.4153868,31.5 17.4317374,31.5 17.4480881,31.5 C17.534024,31.5 17.6188193,31.4657777 17.6796589,31.4018961 L32.7796725,15.9957832 C32.851159,15.9231559 32.8823393,15.8189681 32.8659887,15.7166814 C32.848117,15.6170566 32.7842354,15.5280786 32.6922155,15.4805477 L32.6922155,15.4805477 Z M17.4747054,30.6843688 C17.2416136,30.4391091 16.8317067,30.1185604 16.1693153,29.904481 C16.0073298,29.852387 15.8305147,29.8257697 15.6476156,29.8257697 C14.860503,29.8257697 14.0673064,30.3143879 13.6828761,30.5908279 L8.9799734,25.9818464 C9.30546537,25.5080579 9.93667643,24.4148459 9.61574743,23.4820985 C9.3887396,22.8238899 9.05868466,22.4215879 8.81076321,22.1941998 L23.3924993,7.31549035 C23.6255911,7.56075007 24.033977,7.88129882 24.6978894,8.09537823 C24.8598749,8.14709191 25.03669,8.17408949 25.2192089,8.17408949 C26.0067017,8.17408949 26.7998983,7.68547129 27.1828076,7.40903126 L31.886851,12.0195338 C31.5617393,12.4933223 30.9290072,13.5850132 31.2514572,14.5192817 C31.4784651,15.1774903 31.8081398,15.5797923 32.0564415,15.8071804 L17.4747054,30.6843688 Z M11.321158,22.048565 C11.0835033,22.2907827 11.087686,22.679776 11.3299037,22.9174308 C11.5721215,23.1550856 11.9611148,23.1509028 12.1987696,22.9086851 C12.4364243,22.6664673 12.4318614,22.277474 12.1900239,22.0398193 C11.9478061,21.8021645 11.5588128,21.8063472 11.321158,22.048565 L11.321158,22.048565 Z M13.129996,23.8087312 C12.8923412,24.050949 12.8969042,24.4399423 13.139122,24.6775971 C13.3813397,24.9152518 13.770333,24.9106888 14.0079878,24.6688514 C14.2456426,24.4266336 14.2410796,24.0376403 13.9992421,23.7999855 C13.7570244,23.5623308 13.3676508,23.5665135 13.129996,23.8087312 L13.129996,23.8087312 Z M15.0491058,25.5137616 C14.811451,25.7559793 14.816014,26.1449727 15.0582317,26.3830077 C15.3000692,26.6202822 15.6894428,26.6160995 15.9270976,26.3738817 C16.1647523,26.131664 16.1601894,25.7426707 15.9179716,25.5050159 C15.6761341,25.2673611 15.2867606,25.2719241 15.0491058,25.5137616 L15.0491058,25.5137616 Z M16.861366,27.3260218 C16.6237112,27.5682395 16.6282742,27.9572328 16.8701117,28.1948876 C17.1123294,28.4325424 17.5013227,28.4279794 17.7389775,28.1861419 C17.9766323,27.9439242 17.9724496,27.5549309 17.7302318,27.3172761 C17.4880141,27.0796213 17.0990208,27.083804 16.861366,27.3260218 L16.861366,27.3260218 Z M23.0685283,10.1494759 C22.8308735,10.3916937 22.8354365,10.780687 23.0776542,11.0183418 C23.3194917,11.2559965 23.7088653,11.2518138 23.94652,11.0095961 C24.1841748,10.7673783 24.1796118,10.378385 23.9373941,10.1407302 C23.6940356,9.90307546 23.306183,9.90573719 23.0685283,10.1494759 L23.0685283,10.1494759 Z M24.8777465,11.9096422 C24.6400917,12.1518599 24.6446547,12.5408533 24.8864922,12.778508 C25.1287099,13.0161628 25.5177032,13.0115998 25.7557383,12.7697623 C25.9930128,12.5275446 25.9888301,12.1385513 25.7466123,11.9008965 C25.5043946,11.6632417 25.1154013,11.6674245 24.8777465,11.9096422 L24.8777465,11.9096422 Z M26.7968563,13.6146726 C26.5592015,13.8568903 26.5633842,14.2462639 26.805602,14.4839186 C27.0478197,14.7215734 27.436813,14.7170104 27.6744678,14.4747927 C27.9121226,14.232575 27.9079398,13.8435816 27.6657221,13.6059269 C27.4219834,13.3682721 27.034511,13.3728351 26.7968563,13.6146726 L26.7968563,13.6146726 Z M28.6087362,15.4269328 C28.3710815,15.6691505 28.3756444,16.0581438 28.6178622,16.2957986 C28.8600799,16.5334534 29.2490732,16.5288904 29.486728,16.2870529 C29.7243828,16.0448351 29.7198198,15.6558418 29.4779823,15.4181871 C29.2342436,15.1805323 28.84487,15.184715 28.6087362,15.4269328 L28.6087362,15.4269328 Z" id="Imported-Layers-Copy" sketch:type="MSShapeGroup"></path>
            </g>
        </g>
    </g>
</svg>