<?xml version="1.0" encoding="UTF-8" standalone="no"?>
<svg width="23px" height="12px" viewBox="0 0 23 12" version="1.1" xmlns="http://www.w3.org/2000/svg" xmlns:xlink="http://www.w3.org/1999/xlink">
    <!-- Generator: Sketch 3.6.1 (26313) - http://www.bohemiancoding.com/sketch -->
    <title>Page 1</title>
    <desc>Created with Sketch.</desc>
    <defs></defs>
    <g id="Page-1" stroke="none" stroke-width="1" fill="none" fill-rule="evenodd">
        <g id="iPhone-6-Copy-13" transform="translate(-15.000000, -255.000000)" fill="#FADDB0">
            <path d="M37.2296481,262.30815 C36.297368,261.579543 34.8049089,261.527143 34.250656,261.534629 L34.1252708,258.82481 C34.1252708,258.82481 34.1458564,258.43493 33.8096242,258.130512 L32.5779166,257.106844 L32.0916587,257.12899 C32.0111876,257.05694 31.9285331,256.985202 31.8443191,256.916895 C30.9975006,255.795913 29.6123363,255.076975 28.0674774,255.089451 C27.6872668,255.017402 27.2902134,254.986835 26.8831791,255.005237 C25.2516109,255.080718 23.8542824,255.91662 23.0841922,257.113083 C21.7270993,258.312976 20.9095997,260.041858 20.9972447,261.926692 L21.0031708,262.072975 L20.4283323,262.096056 C20.4283323,262.096056 17.9855027,262.141282 16.4537437,262.621302 C15.060158,263.058591 14.9235442,263.514282 15.0270962,263.680215 C15.3268357,264.162418 17.0263988,264.331781 18.7006978,264.625595 C20.3746849,264.920344 23.4204244,265.616201 24.5376634,265.84389 C25.6549024,266.070644 28.654792,267.079341 32.1113087,266.701626 C35.5690729,266.32391 36.7580498,265.577213 37.498821,264.838625 C38.3821322,263.960304 37.9738503,262.889227 37.2296481,262.30815 L37.2296481,262.30815 Z M33.5719536,258.375357 C33.8595288,258.656694 33.8436217,259.013824 33.8436217,259.013824 L34.0192235,262.773511 C34.0192235,262.773511 33.4892991,263.347413 33.0273698,263.586332 C31.7969098,264.224798 30.6394352,264.348936 30.6394352,264.348936 L30.4491739,260.289198 C30.4348264,259.97012 30.6185376,259.479184 30.8234584,259.236523 L30.8427964,259.20003 L32.5146001,257.433408 L33.5719536,258.375357 Z M31.6141342,257.103413 L30.824706,257.881925 C30.701504,257.6795 30.5711283,257.487055 30.4335787,257.308022 C29.6207577,256.260026 28.5353329,255.318389 27.3778583,255.306224 C28.988529,255.269732 30.4834833,256.009255 31.6141342,257.103413 L31.6141342,257.103413 Z M27.2608945,255.307472 L27.2705635,255.307472 L27.2583992,255.307472 L27.2608945,255.307472 L27.2608945,255.307472 Z M25.9655585,255.699847 C26.2497027,255.55949 26.5432041,255.443774 26.847934,255.353634 L26.3775832,256.257843 C26.3214406,256.280923 26.2652979,256.305252 26.2119624,256.330828 C25.9131586,256.468378 25.627143,256.636494 25.3576582,256.82925 C24.8168172,257.215387 24.3355498,257.705076 23.933506,258.275236 C23.1281706,259.41462 22.634739,260.875265 22.5982463,262.467845 L22.595751,262.467845 C22.579844,262.568902 22.4934466,262.649373 22.3861518,262.654051 C22.2629498,262.66029 22.1593978,262.566407 22.1534716,262.4457 C22.152224,262.438526 22.1547192,262.4326 22.1547192,262.426362 L22.152224,262.426362 C22.1971381,259.403703 23.7385661,256.803674 25.9655585,255.699847 L25.9655585,255.699847 Z" id="Page-1"></path>
        </g>
    </g>
</svg>