<?xml version="1.0" encoding="UTF-8" standalone="no"?>
<svg width="24px" height="16px" viewBox="0 0 24 16" version="1.1" xmlns="http://www.w3.org/2000/svg" xmlns:xlink="http://www.w3.org/1999/xlink">
    <!-- Generator: Sketch 3.6.1 (26313) - http://www.bohemiancoding.com/sketch -->
    <title>Combined Shape</title>
    <desc>Created with Sketch.</desc>
    <defs></defs>
    <g id="Page-1" stroke="none" stroke-width="1" fill="none" fill-rule="evenodd">
        <g id="iPhone-6-Copy-13" transform="translate(-14.000000, -349.000000)" fill="#D4ABC4">
            <path d="M29.4354839,356.896 L31.4104516,353.731484 C31.5265806,353.528645 31.6717419,353.412129 31.8169032,353.324645 C31.9910968,353.236774 32.1649032,353.150839 32.3689032,353.150839 L32.4265806,353.150839 L32.8043871,353.179484 C32.8620645,353.179484 32.9495484,353.179484 32.9781935,353.121806 C33.0660645,353.064516 33.1523871,352.976645 33.239871,352.831484 C33.2685161,352.802839 33.239871,352.744 33.1825806,352.715355 C32.3689032,352.482323 31.7882581,351.670194 31.9636129,350.770581 C32.080129,350.073419 32.632129,349.521806 33.2987097,349.406839 C34.4027097,349.204 35.36,350.016129 35.36,351.091097 C35.36,351.874581 34.8366452,352.54271 34.1108387,352.745548 C34.0535484,352.745548 34.0233548,352.802839 34.0535484,352.862065 C34.1410323,353.007226 34.2273548,353.09471 34.3148387,353.152387 C34.3725161,353.181032 34.4313548,353.209677 34.4890323,353.209677 L34.8954839,353.181032 L34.9531613,353.181032 C35.1858065,353.181032 35.36,353.238323 35.5051613,353.354839 C35.6503226,353.44271 35.7954839,353.55729 35.9116129,353.761677 L37.8563871,356.926581 C38.0588387,357.187871 37.9729032,357.564516 37.7112258,357.768516 C37.5947097,357.826194 37.4781935,357.885032 37.3632258,357.885032 C37.1894194,357.885032 36.9854194,357.797548 36.8704516,357.623355 L35.5067097,355.184645 C35.3901935,354.981806 35.1587097,354.836645 34.9260645,354.836645 C34.9260645,356.200774 35.0712258,359.481806 36.9292903,363.256 C37.0744516,363.546323 36.9292903,363.86529 36.6103226,363.981806 C36.5228387,364.010452 36.4365161,364.039484 36.3486452,364.039484 C36.0873548,364.039484 35.855871,363.922968 35.768,363.691484 C34.8970323,361.949548 34.0837419,358.610839 34.0837419,358.610839 C34.0550968,358.494323 33.9099355,358.378194 33.7934194,358.378194 L33.5030968,358.378194 C33.3579355,358.378194 33.2414194,358.494323 33.2127742,358.610839 C33.2127742,358.610839 32.3990968,361.949548 31.528129,363.691484 C31.4116129,363.894323 31.1805161,364.039484 30.9474839,364.039484 C30.86,364.039484 30.7736774,364.010452 30.6858065,363.981806 C30.3668387,363.86529 30.2216774,363.517677 30.3381935,363.256 C32.1966452,359.481806 32.3418065,356.200774 32.3418065,354.836645 C32.1087742,354.836645 31.9063226,354.981806 31.7898065,355.155613 L30.3954839,357.59471 C30.1930323,357.856387 29.843871,357.913677 29.5535484,357.739871 C29.2903226,357.535871 29.2330323,357.157677 29.4354839,356.896 Z M22.8153548,356.750839 L20.1738065,353.55729 C20.0863226,353.383484 20,353.266968 19.8834839,353.209677 C19.7669677,353.121806 19.6508387,353.064516 19.4766452,353.064516 L19.4193548,353.064516 L19.3028387,353.064516 C19.2153548,353.064516 19.1290323,353.035871 19.0701935,352.976645 C19.0125161,352.919355 18.9823226,352.860516 18.9250323,352.774194 C18.896,352.686323 18.9250323,352.600387 19.0125161,352.571742 C19.7096774,352.368903 20.2616774,351.729419 20.2616774,350.974968 C20.2903226,350.046323 19.5072258,349.233032 18.5770323,349.233032 C17.6185806,349.233032 16.8350968,349.987484 16.8350968,350.945935 C16.8350968,351.729419 17.3584516,352.397548 18.0842581,352.600387 C18.1717419,352.629032 18.2007742,352.716903 18.1717419,352.802839 C18.1144516,352.89071 18.0842581,352.948 18.0265806,353.005677 C17.9692903,353.062968 17.8814194,353.093161 17.7939355,353.093161 L17.6487742,353.093161 L17.5910968,353.093161 C17.4459355,353.093161 17.3007742,353.150839 17.1846452,353.238323 C17.068129,353.326194 16.9818065,353.441161 16.8943226,353.616516 L14.2814194,356.810065 C14.0785806,357.071742 14.1649032,357.448 14.4265806,357.652387 C14.6290323,357.652387 14.7455484,357.709677 14.8620645,357.709677 C15.035871,357.709677 15.239871,357.621806 15.3548387,357.448 L17.1540645,354.863742 C17.1540645,354.863742 17.1540645,354.863742 17.1540645,354.892774 C17.1540645,355.095226 17.4157419,355.240387 17.5895484,355.328258 C17.5020645,356.837161 17.0089032,359.654065 15.5286452,363.050452 C15.412129,363.340774 15.5286452,363.688387 15.8476129,363.833548 C15.9354839,363.862581 15.9927742,363.891226 16.0806452,363.891226 C16.3136774,363.891226 16.516129,363.746065 16.6326452,363.543226 C16.9802581,362.760129 17.3007742,361.772645 17.5609032,360.901677 C17.5609032,360.873032 17.5895484,360.785161 17.5895484,360.785161 L19.5931613,360.785161 C19.5931613,360.785161 19.6218065,360.842839 19.6218065,360.901677 C19.8834839,361.772645 20.2024516,362.760129 20.5504516,363.543226 C20.6379355,363.776258 20.8694194,363.891226 21.1024516,363.891226 C21.1899355,363.891226 21.2476129,363.862581 21.3350968,363.833548 C21.6254194,363.717419 21.7705806,363.340774 21.6540645,363.050452 C20.1738065,359.625419 19.7096774,356.83871 19.6218065,355.329806 C19.7669677,355.241935 20,355.068129 20,354.894323 L20,354.806452 L21.8584516,357.419355 C22.0322581,357.681032 22.3814194,357.766968 22.6415484,357.621806 C22.931871,357.448 23.0197419,357.041161 22.8153548,356.750839 Z M29.552,357.797548 C29.552,357.797548 27.4910968,356.983871 27.4032258,356.926581 C27.2867097,356.868903 27.2007742,356.810065 27.0556129,356.810065 L26.7652903,356.83871 C26.7362581,356.83871 26.6774194,356.83871 26.6487742,356.810065 C26.5910968,356.781419 26.620129,356.462065 26.6774194,356.462065 C27.4032258,356.259613 27.9265806,355.591097 27.9265806,354.808 C27.9265806,353.849161 27.1717419,353.09471 26.2132903,353.09471 C25.2544516,353.09471 24.5,353.849161 24.5,354.808 C24.5,355.591097 25.0233548,356.259613 25.7491613,356.462065 C25.8064516,356.462065 25.8366452,356.781419 25.7778065,356.810065 C25.7491613,356.83871 25.6899355,356.83871 25.6612903,356.83871 L25.3709677,356.810065 C25.2258065,356.810065 25.1092903,356.867355 25.0233548,356.926581 C24.9354839,356.983871 22.8745806,357.797548 22.8745806,357.797548 C22.6129032,357.883484 22.5250323,358.116516 22.6129032,358.290323 C22.6415484,358.378194 22.7007742,358.406839 22.7867097,358.464129 C22.9032258,358.521806 23.0197419,358.521806 23.1347097,358.464129 C23.1347097,358.464129 25.0504516,357.766968 25.2544516,357.796 L25.312129,357.883484 C25.312129,358.754452 25.2242581,360.874581 24.0056774,363.283097 C23.9178065,363.45729 24.0056774,363.689935 24.208129,363.747613 C24.2658065,363.776258 24.3246452,363.776258 24.3819355,363.776258 C24.5270968,363.776258 24.7012903,363.688387 24.760129,363.573419 C25.312129,362.441161 25.8335484,360.292387 25.8335484,360.292387 C25.8625806,360.204516 25.9500645,360.147226 26.0363871,360.147226 L26.2690323,360.147226 C26.3569032,360.147226 26.4432258,360.204516 26.471871,360.292387 C26.471871,360.292387 26.9948387,362.441161 27.5452903,363.573419 C27.6029677,363.718581 27.7783226,363.776258 27.9234839,363.776258 C27.9807742,363.776258 28.04,363.776258 28.0972903,363.747613 C28.2997419,363.659742 28.3876129,363.45729 28.2997419,363.283097 C27.1098065,360.873032 27.0223226,358.754452 26.9932903,357.883484 L27.0509677,357.796 C27.2534194,357.766968 29.1707097,358.464129 29.1707097,358.464129 C29.2872258,358.521806 29.4323871,358.521806 29.5187097,358.464129 C29.576,358.435484 29.6352258,358.376645 29.6925161,358.290323 C29.8136774,358.116516 29.7258065,357.883484 29.552,357.797548 Z" id="Combined-Shape"></path>
        </g>
    </g>
</svg>