<?xml version="1.0" encoding="UTF-8" standalone="no"?>
<svg width="24px" height="10px" viewBox="0 0 24 10" version="1.1" xmlns="http://www.w3.org/2000/svg" xmlns:xlink="http://www.w3.org/1999/xlink">
    <!-- Generator: Sketch 3.6.1 (26313) - http://www.bohemiancoding.com/sketch -->
    <title>Combined Shape</title>
    <desc>Created with Sketch.</desc>
    <defs></defs>
    <g id="Page-1" stroke="none" stroke-width="1" fill="none" fill-rule="evenodd">
        <g id="iPhone-6-Copy-13" transform="translate(-14.000000, -322.000000)" fill="#4DB6AC">
            <path d="M37.9824,325.85632 C37.96992,325.7888 37.94496,325.70752 37.89504,325.60256 L33.39264,322.02752 L24.33248,322.02752 C24.12256,322.01504 24.00864,322.1136 23.91008,322.2288 L20.88128,325.2624 L14.25888,326.36384 C14.1664,326.44384 14.0736,326.52256 14,326.72992 L14.01376,329.00864 C14.15744,329.37376 14.25504,329.3264 14.36384,329.3776 L15.63872,329.3776 C15.63872,326.28 20.25248,326.29248 20.25248,329.3776 L32.0176,329.3776 C32.0176,326.2736 36.59616,326.28 36.59616,329.3776 L37.64128,329.3776 C37.81632,329.36128 37.91488,329.2064 37.99872,329.02496 L37.9824,325.85632 Z M28.2576,325.7088 L21.98112,325.7088 C21.7424,325.61504 21.71008,325.47136 21.80992,325.2976 L24.06624,323.07136 C24.11744,323.02752 24.15744,322.96864 24.24512,322.98112 L28.2576,322.98112 L28.2576,325.7088 Z M34.75744,325.71008 L29.00384,325.71008 L29.00384,322.9824 L32.38016,322.9824 C32.4688,322.96864 32.5088,323.0288 32.55872,323.07264 L34.49248,325.02016 C34.67136,325.28736 35.03008,325.65504 34.75744,325.71008 Z M17.93504,327.5088 C16.89984,327.5088 16.0624,328.34752 16.0624,329.38112 C16.0624,330.41632 16.90112,331.25376 17.93504,331.25376 C18.96992,331.25376 19.80736,330.41504 19.80736,329.38112 C19.80736,328.34624 18.96864,327.5088 17.93504,327.5088 Z M17.93504,330.16736 C17.49888,330.16736 17.14496,329.81376 17.14496,329.3776 C17.14496,328.94112 17.49888,328.58752 17.93504,328.58752 C18.3712,328.58752 18.72512,328.94112 18.72512,329.3776 C18.72512,329.81376 18.3712,330.16736 17.93504,330.16736 Z M34.30752,327.50752 C33.27264,327.50752 32.43488,328.34624 32.43488,329.37984 C32.43488,330.41504 33.2736,331.25248 34.30752,331.25248 C35.3424,331.25248 36.17984,330.41376 36.17984,329.37984 C36.17984,328.34496 35.3424,327.50752 34.30752,327.50752 Z M34.30752,330.16736 C33.87136,330.16736 33.51744,329.81376 33.51744,329.3776 C33.51744,328.94112 33.87136,328.58752 34.30752,328.58752 C34.74368,328.58752 35.0976,328.94112 35.0976,329.3776 C35.0976,329.81376 34.74368,330.16736 34.30752,330.16736 Z" id="Combined-Shape"></path>
        </g>
    </g>
</svg>