<?xml version="1.0" encoding="UTF-8" standalone="no"?>
<svg width="15px" height="19px" viewBox="0 0 15 19" version="1.1" xmlns="http://www.w3.org/2000/svg" xmlns:xlink="http://www.w3.org/1999/xlink" xmlns:sketch="http://www.bohemiancoding.com/sketch/ns">
    <!-- Generator: Sketch 3.3.2 (12043) - http://www.bohemiancoding.com/sketch -->
    <title>Shape Copy 15 + Shape Copy 16 Copy Copy</title>
    <desc>Created with Sketch.</desc>
    <defs></defs>
    <g id="Page-1" stroke="none" stroke-width="1" fill="none" fill-rule="evenodd" sketch:type="MSPage">
        <g id="boxView" sketch:type="MSArtboardGroup" transform="translate(-24.000000, -147.000000)">
            <g id="recommend" sketch:type="MSLayerGroup" transform="translate(8.000000, 135.000000)">
                <g id="Group" transform="translate(16.000000, 11.000000)" sketch:type="MSShapeGroup">
                    <g id="Shape-Copy-15-+-Shape-Copy-16-Copy-Copy" transform="translate(0.000000, 1.601107)">
                        <path d="M7.15898304,16.0227535 C7.14119557,15.6518135 7.15898304,15.2640125 7.07004567,14.8930724 C6.85659597,13.9320004 6.32297172,13.1901203 5.38023555,12.7517365 C3.97502504,12.094161 2.69432685,11.2679763 1.60929088,10.1888779 C-0.382906307,8.1824293 -0.418481257,5.8387625 0.915579359,3.49509569 C2.3741523,0.932237017 5.36244808,-0.399775054 8.38631881,0.106052315 C11.3568271,0.595018771 13.7225613,2.85438102 14.1850356,5.72073611 C14.3984853,7.00216544 14.2561855,8.24987295 13.6336239,9.44699773 C13.1711496,10.3069043 12.6375253,11.0993671 12.0505386,11.8749691 C10.7876279,13.5610603 9.54250468,15.2640125 8.29738144,16.9501037 C8.10171921,17.2198783 7.88826951,17.6076793 7.49694507,17.5065138 C7.07004567,17.3884874 7.17677052,16.9669646 7.15898304,16.6297464 C7.14119557,16.4274154 7.15898304,16.2419454 7.15898304,16.0396144 C7.14119557,16.0227535 7.15898304,16.0227535 7.15898304,16.0227535 L7.15898304,16.0227535 Z M4.31053903,7.67586152 C3.71017192,7.50693853 3.44530408,7.32112324 3.4806198,6.94949267 C3.51593551,6.45961601 3.86909263,6.29069302 4.32819689,6.27380072 C4.52243331,6.25690842 4.48711759,6.17244693 4.43414402,6.05420084 C4.13396047,5.36161659 3.21575195,5.1758013 2.65070056,5.69946256 C2.06799131,6.25690842 2.0326756,7.27044635 2.59772699,7.8616768 C3.10980482,8.41912266 3.88675049,8.33466117 4.31053903,7.67586152 L4.31053903,7.67586152 Z M8.26956355,7.68179535 C8.18105231,7.66497987 8.11024332,7.63134893 8.02173208,7.61453345 C7.66768711,7.51364061 7.41985564,7.31185493 7.43755788,6.92509904 C7.45526013,6.53834315 7.7384961,6.33655747 8.09254107,6.30292652 C8.53509728,6.26929557 8.44658604,6.11795631 8.26956355,5.88253968 C7.84470959,5.31081358 7.04810842,5.22673622 6.55244547,5.73120042 C5.98597352,6.30292652 5.98597352,7.36230135 6.58784997,7.91721197 C7.13661966,8.40486071 7.86241184,8.32078334 8.26956355,7.68179535 L8.26956355,7.68179535 Z" id="Shape-Copy-15" fill="#E4E4E4"></path>
                        <path d="M5.94915293,13.0238207 C6.54714041,13.4750458 6.90760091,14.1054223 7.07307971,14.8733826 C7.16085474,15.250717 7.14329973,15.645203 7.16085474,16.0225374 C7.16085474,16.0225374 7.14329973,16.0225374 7.16085474,16.039689 C7.16085474,16.2455077 7.14329973,16.434175 7.16085474,16.6399937 C7.17799955,16.9750097 7.07793491,17.3918228 7.46572043,17.5229584 C7.85625723,17.0405949 8.09084746,16.4222615 8.09084746,15.7480958 C8.09084746,14.415749 7.17460345,13.3014676 5.94915293,13.0238207 Z" id="Shape-Copy-16" fill-opacity="0.25" fill="#27476E"></path>
                    </g>
                </g>
            </g>
        </g>
    </g>
</svg>