<?xml version="1.0" encoding="UTF-8" standalone="no"?>
<svg width="60px" height="49px" viewBox="0 0 60 49" version="1.1" xmlns="http://www.w3.org/2000/svg" xmlns:xlink="http://www.w3.org/1999/xlink" xmlns:sketch="http://www.bohemiancoding.com/sketch/ns">
    <!-- Generator: Sketch 3.3.3 (12081) - http://www.bohemiancoding.com/sketch -->
    <title>Imported Layers Copy 17</title>
    <desc>Created with Sketch.</desc>
    <defs></defs>
    <g id="Page-1" stroke="none" stroke-width="1" fill="none" fill-rule="evenodd" sketch:type="MSPage">
        <g id="Imported-Layers-Copy-17" sketch:type="MSLayerGroup" fill="#2D93FF">
            <g id="Fill-1-+-Fill-2" sketch:type="MSShapeGroup">
                <path d="M24.512,48.949 C30.777,48.949 37.039,46.566 41.809,41.797 C42.543,41.066 42.543,39.879 41.809,39.145 C41.074,38.414 39.891,38.41 39.156,39.145 C31.078,47.219 17.941,47.219 9.867,39.145 C1.793,31.07 1.793,17.93 9.867,9.855 C17.941,1.781 31.082,1.781 39.156,9.855 C39.891,10.59 41.074,10.59 41.809,9.855 C42.543,9.125 42.543,7.938 41.809,7.203 C32.27,-2.336 16.754,-2.336 7.215,7.203 C-2.324,16.738 -2.324,32.258 7.215,41.797 C11.984,46.566 18.246,48.949 24.512,48.949 L24.512,48.949 Z" id="Fill-1"></path>
                <path d="M57.777,23.172 L57.777,23.172 L49.793,15.188 C49.059,14.453 47.875,14.453 47.141,15.188 C46.406,15.918 46.406,17.105 47.141,17.84 L51.926,22.625 L24.512,22.625 C23.477,22.625 22.637,23.465 22.637,24.5 C22.637,25.535 23.477,26.375 24.512,26.375 L51.926,26.375 L47.141,31.16 C46.406,31.895 46.406,33.078 47.141,33.812 C47.508,34.18 47.988,34.363 48.465,34.363 C48.945,34.363 49.426,34.18 49.789,33.812 L59.105,24.5 L57.781,23.176 C57.777,23.176 57.777,23.172 57.777,23.172 L57.777,23.172 Z" id="Fill-2" transform="translate(40.871000, 24.499875) scale(-1, 1) translate(-40.871000, -24.499875) "></path>
            </g>
        </g>
    </g>
</svg>