<?xml version="1.0" encoding="UTF-8" standalone="no"?>
<svg width="16px" height="15px" viewBox="0 0 16 15" version="1.1" xmlns="http://www.w3.org/2000/svg" xmlns:xlink="http://www.w3.org/1999/xlink" xmlns:sketch="http://www.bohemiancoding.com/sketch/ns">
    <!-- Generator: Sketch 3.4.2 (15857) - http://www.bohemiancoding.com/sketch -->
    <title>Page 1</title>
    <desc>Created with Sketch.</desc>
    <defs></defs>
    <g id="Page-1" stroke="none" stroke-width="1" fill="none" fill-rule="evenodd" sketch:type="MSPage">
        <g id="iPhone-6" sketch:type="MSArtboardGroup" transform="translate(-16.000000, -403.000000)" fill="#979797">
            <path d="M29.9972555,405.412435 L31.1318473,404.277843 L30.5081779,403.654173 L24.9230427,409.217353 L24.9230427,405.59105 C24.9230427,405.435577 24.8337351,405.279215 24.6785595,405.189908 C24.5233839,405.122556 24.3447688,405.122556 24.2115492,405.211864 L20.6730705,407.659662 L17.4683826,407.659662 C16.7568891,407.659662 16,408.126673 16,408.905518 L16,412.354689 C16,413.133534 16.7568891,413.667896 17.4683826,413.667896 L20.4505433,413.667896 L16.9340207,417.228331 L17.5576902,417.852 L21.2733004,414.136093 L24.2335052,416.138838 C24.3008567,416.183046 24.3886808,416.206189 24.4779884,416.206189 C24.5453399,416.206189 24.611208,416.184233 24.6785595,416.16198 C24.8337351,416.094925 24.9230427,415.939453 24.9230427,415.761135 L24.9230427,410.486647 L25.8131514,409.596539 C26.0576345,409.886121 26.1688981,410.241868 26.1688981,410.619867 C26.1688981,410.99757 26.0356785,411.376756 25.7911953,411.665151 L26.4807329,412.243425 C26.8587323,411.798371 27.0590068,411.220097 27.0590068,410.61868 C27.0590068,410.018154 26.8364796,409.416737 26.435634,408.971683 L27.5263138,407.881003 C28.1716426,408.659848 28.5276861,409.639264 28.5276861,410.662592 C28.5276861,411.686217 28.1716426,412.665337 27.5040611,413.466435 L28.1938953,414.044709 C28.9727404,413.110391 29.4177948,411.908744 29.4177948,410.684845 C29.4177948,409.438693 28.9727404,408.214793 28.1496866,407.279586 L29.373586,406.055687 C30.5081779,407.346938 31.1098913,408.992452 31.1098913,410.728757 C31.1098913,412.397711 30.5316174,414.022753 29.4409376,415.290564 L30.1304751,415.868838 C31.3324185,414.444367 32,412.620238 32,410.728757 C32,408.750342 31.287023,406.880817 29.9972555,405.412435 Z M24.032934,414.913751 L21.9189259,413.489577 L24.032934,411.375569 L24.032934,414.913751 Z M24.032934,410.107461 L21.1620369,412.978358 L20.9837184,412.867095 C20.9163669,412.823183 20.8282461,412.799743 20.7392352,412.799743 L17.4683826,412.799743 C17.1788006,412.799743 16.8901087,412.577216 16.8901087,412.376942 L16.8901087,408.928957 C16.8901087,408.728386 17.1799874,408.572914 17.4683826,408.572914 L20.8282461,408.572914 C20.9175537,408.572914 21.0068613,408.550958 21.073026,408.483903 L24.032934,406.43695 L24.032934,410.107461 Z" id="Page-1" sketch:type="MSShapeGroup"></path>
        </g>
    </g>
</svg>