<?xml version="1.0" encoding="UTF-8" standalone="no"?>
<svg width="90px" height="90px" viewBox="0 0 90 90" version="1.1" xmlns="http://www.w3.org/2000/svg" xmlns:xlink="http://www.w3.org/1999/xlink" xmlns:sketch="http://www.bohemiancoding.com/sketch/ns">
    <!-- Generator: Sketch 3.4.4 (17249) - http://www.bohemiancoding.com/sketch -->
    <title>Rectangle 1 + Page 1</title>
    <desc>Created with Sketch.</desc>
    <defs></defs>
    <g id="Page-1" stroke="none" stroke-width="1" fill="none" fill-rule="evenodd" sketch:type="MSPage">
        <g id="Rectangle-1-+-Page-1" sketch:type="MSLayerGroup">
            <rect id="Rectangle-1" stroke="#E4E4E4" fill="#FFFFFF" sketch:type="MSShapeGroup" x="0" y="0" width="90" height="90" rx="8"></rect>
            <path d="M42.8523608,22.801 L42.8523608,51.203 L35.1133608,44.821 C34.1923608,44.11 33.2703608,44.36 32.6173608,45.031 C31.9453608,45.742 32.1763608,46.977 32.8673608,47.543 L42.9103608,55.852 C43.9573608,56.711 45.3633608,56.649 46.3523608,55.852 L56.3953608,47.543 C57.1923608,46.809 57.2973608,45.699 56.5433608,44.906 C55.7463608,44.238 54.9493608,44.238 54.1333608,44.824 L46.3953608,51.231 L46.3953608,22.801 C46.4143608,21.86 45.5353608,21 44.5903608,21 C43.6063608,21 42.8523608,22.071 42.8523608,22.801 Z M19.5743608,50.516 C18.7153608,50.621 17.9813608,51.438 18.0003608,52.293 L18.0003608,62.465 C18.0003608,65.625 20.6023608,68.262 23.7663608,68.262 L65.4963608,68.262 C68.6643608,68.262 71.2623608,65.625 71.2623608,62.465 L71.2623608,52.293 C71.2813608,51.371 70.4223608,50.516 69.4813608,50.516 C68.5593608,50.516 67.6993608,51.375 67.7193608,52.293 L67.7193608,62.465 C67.7193608,63.742 66.7543608,64.727 65.4963608,64.727 L23.7703608,64.727 C22.5123608,64.727 21.5473608,63.742 21.5473608,62.465 L21.5473608,52.293 C21.5673608,51.289 20.5823608,50.391 19.5743608,50.516 Z" id="Page-1" fill="#979797" sketch:type="MSShapeGroup"></path>
        </g>
    </g>
</svg>