<?xml version="1.0" encoding="UTF-8" standalone="no"?>
<svg width="78px" height="70px" viewBox="0 0 78 70" version="1.1" xmlns="http://www.w3.org/2000/svg" xmlns:xlink="http://www.w3.org/1999/xlink" xmlns:sketch="http://www.bohemiancoding.com/sketch/ns">
    <!-- Generator: Sketch 3.4.4 (17249) - http://www.bohemiancoding.com/sketch -->
    <title>Page 1</title>
    <desc>Created with Sketch.</desc>
    <defs></defs>
    <g id="Page-1" stroke="none" stroke-width="1" fill="none" fill-rule="evenodd" sketch:type="MSPage">
        <path d="M57.112943,0 C45.9198408,0 36.8465037,9.07333712 36.8465037,20.2664393 C36.8465037,20.473375 36.8677279,20.6750047 36.87834,20.877961 L36.8465037,33.1574758 L3.68372181,33.1574758 C1.65283305,33.1574758 0,34.8063294 0,36.8425242 L0,66.3149517 C0,68.352473 1.647527,70 3.68372181,70 L49.1326511,70 C51.1688459,70 52.8163729,68.352473 52.8163729,66.3149517 L52.8163729,36.8478302 C52.8163729,34.8103089 51.1688459,33.1627819 49.1326511,33.1627819 L46.6759522,33.1627819 L46.6759522,20.877961 C46.6971764,20.6696987 46.6759522,20.473375 46.6759522,20.2664393 C46.6759522,14.4987682 51.350578,9.82546902 57.112943,9.82546902 C62.8739814,9.82546902 67.5486072,14.4987682 67.5486072,20.2664393 C67.5486072,20.473375 67.532689,20.6750047 67.5167709,20.877961 L67.5486072,33.1574758 L77.3780557,33.1574758 L77.3780557,20.877961 C77.3568315,20.6696987 77.3780557,20.473375 77.3780557,20.2664393 C77.3780557,9.07333712 68.3100246,0 57.112943,0 Z" fill="#979797" sketch:type="MSShapeGroup"></path>
    </g>
</svg>