<?xml version="1.0" encoding="UTF-8" standalone="no"?>
<svg width="12px" height="11px" viewBox="0 0 12 11" version="1.1" xmlns="http://www.w3.org/2000/svg" xmlns:xlink="http://www.w3.org/1999/xlink" xmlns:sketch="http://www.bohemiancoding.com/sketch/ns">
    <!-- Generator: Sketch 3.3.3 (12081) - http://www.bohemiancoding.com/sketch -->
    <title>Imported Layers Copy</title>
    <desc>Created with Sketch.</desc>
    <defs></defs>
    <g id="Page-1" stroke="none" stroke-width="1" fill="none" fill-rule="evenodd" sketch:type="MSPage">
        <g id="iPhone-6-Copy-3" sketch:type="MSArtboardGroup" transform="translate(-25.000000, -471.000000)" fill="#979797">
            <path d="M33.4392931,471 C32.7798798,471.000587 32.1301465,471.245227 31.6345598,471.741253 L30.2916798,473.08428 L31.0220798,473.81468 L32.3651065,472.4718 C32.9551465,471.88176 33.9279865,471.88 34.5564531,472.482653 C35.1677598,473.068147 35.1533865,474.02896 34.5564531,474.663147 C34.5530798,474.667253 34.5489731,474.67004 34.5455998,474.674147 L32.1502398,477.069507 C31.5600531,477.659547 30.5769465,477.67216 29.9478931,477.069507 L29.2283465,477.81076 C30.2498798,478.78932 31.8894665,478.791667 32.8806398,477.799907 L35.2869998,475.393693 C36.2602798,474.37788 36.3113198,472.733013 35.2759998,471.741253 C34.7650131,471.25212 34.0981198,471 33.4392931,471 L33.4392931,471 Z M29.9697465,474.437427 C29.3103331,474.438013 28.6503331,474.682653 28.1541598,475.178827 L25.7477998,477.58504 L25.7477998,477.595893 C24.7745198,478.611707 24.7234798,480.256573 25.7587998,481.248333 C26.7803331,482.226893 28.4090665,482.229093 29.4002398,481.23748 L30.7752398,479.86248 L30.0446931,479.131933 L28.6696931,480.506933 C28.0796531,481.09712 27.1068131,481.109587 26.4783465,480.506933 C25.8636665,479.91748 25.8814131,478.949773 26.4891998,478.315587 L28.8845598,475.909227 C29.4747465,475.319187 30.4578531,475.317427 31.0869065,475.920227 L31.8064531,475.178827 C31.2954665,474.689547 30.6285731,474.437427 29.9697465,474.437427 L29.9697465,474.437427 Z" id="Imported-Layers-Copy" sketch:type="MSShapeGroup"></path>
        </g>
    </g>
</svg>