<?xml version="1.0" encoding="UTF-8" standalone="no"?>
<svg width="73px" height="66px" viewBox="0 0 73 66" version="1.1" xmlns="http://www.w3.org/2000/svg" xmlns:xlink="http://www.w3.org/1999/xlink" xmlns:sketch="http://www.bohemiancoding.com/sketch/ns">
    <!-- Generator: Sketch 3.3.3 (12081) - http://www.bohemiancoding.com/sketch -->
    <title>Fill 1</title>
    <desc>Created with Sketch.</desc>
    <defs></defs>
    <g id="Page-1" stroke="none" stroke-width="1" fill="none" fill-rule="evenodd" sketch:type="MSPage">
        <path d="M6.961,36.539 L53.031,36.539 C54.035,36.539 54.848,35.727 54.848,34.727 C54.848,33.723 54.035,32.914 53.031,32.914 L7.074,32.914 L17.863,21.352 C18.57,20.645 18.57,19.496 17.863,18.789 C17.156,18.082 16.008,18.082 15.301,18.789 L0.5,34.762 L15.07,50.852 C15.426,51.203 15.887,51.383 16.352,51.383 C16.816,51.383 17.281,51.207 17.633,50.852 C18.34,50.141 18.34,48.996 17.633,48.285 L6.961,36.539 Z M65.805,0.281 L36.777,0.281 C32.773,0.281 29.52,3.535 29.52,7.531 L29.52,23.852 L33.148,23.852 L33.148,7.531 C33.148,5.535 34.773,3.906 36.777,3.906 L65.801,3.906 C67.801,3.906 69.43,5.535 69.43,7.531 L69.43,58.293 C69.43,60.293 67.805,61.918 65.801,61.918 L36.777,61.918 C34.777,61.918 33.148,60.293 33.148,58.293 L33.148,45.602 L29.52,45.602 L29.52,58.293 C29.52,62.293 32.773,65.547 36.777,65.547 L65.801,65.547 C69.805,65.547 73.059,62.293 73.059,58.293 L73.059,7.531 C73.059,3.531 69.805,0.281 65.805,0.281 Z" id="Fill-1" fill="#FFFFFF" sketch:type="MSShapeGroup" transform="translate(36.779500, 32.914000) scale(-1, 1) translate(-36.779500, -32.914000) "></path>
    </g>
</svg>