<?xml version="1.0" encoding="UTF-8" standalone="no"?>
<svg width="98px" height="15px" viewBox="0 0 98 15" version="1.1" xmlns="http://www.w3.org/2000/svg" xmlns:xlink="http://www.w3.org/1999/xlink" xmlns:sketch="http://www.bohemiancoding.com/sketch/ns">
    <!-- Generator: Sketch 3.3.3 (12081) - http://www.bohemiancoding.com/sketch -->
    <title>Quick select + Path 1387 + Path 1388</title>
    <desc>Created with Sketch.</desc>
    <defs></defs>
    <g id="Page-1" stroke="none" stroke-width="1" fill="none" fill-rule="evenodd" sketch:type="MSPage">
        <g id="Quick-select-+-Path-1387-+-Path-1388" sketch:type="MSLayerGroup" transform="translate(-1.000000, 1.000000)">
            <g id="Path-1387-+-Path-1388" stroke="#979797" sketch:type="MSShapeGroup" stroke-linecap="round" stroke-linejoin="round">
                <path d="M1.87690876,12.6663621 L7.45211085,0.122157421 L13.4435898,7.29122404" id="Path-1387" transform="translate(7.660249, 6.394260) rotate(-86.000000) translate(-7.660249, -6.394260) "></path>
                <path d="M5.66024927,0.187487447 L9.66024927,0.187487447 L9.66024927,3" id="Path-1388"></path>
            </g>
            <path d="M31.0488281,5.98925781 C31.0488281,7.26986317 30.7913437,8.33398014 30.2763672,9.18164062 C29.7613907,10.0293011 29.0345099,10.6035141 28.0957031,10.9042969 L30.4746094,13.3789062 L28.7861328,13.3789062 L26.8378906,11.1230469 L26.4619141,11.1367188 C24.9899015,11.1367188 23.8540079,10.6866907 23.0541992,9.78662109 C22.2543905,8.88655149 21.8544922,7.61621914 21.8544922,5.97558594 C21.8544922,4.34862468 22.2555298,3.08740682 23.0576172,2.19189453 C23.8597045,1.29638224 24.9990161,0.848632812 26.4755859,0.848632812 C27.91114,0.848632812 29.0322225,1.30435742 29.8388672,2.21582031 C30.6455118,3.1272832 31.0488281,4.38508313 31.0488281,5.98925781 L31.0488281,5.98925781 Z M23.0849609,5.98925781 C23.0849609,7.34278021 23.3732068,8.36929989 23.949707,9.06884766 C24.5262073,9.76839542 25.3636013,10.1181641 26.4619141,10.1181641 C27.5693415,10.1181641 28.4055961,9.76953474 28.9707031,9.07226562 C29.5358101,8.37499651 29.8183594,7.34733752 29.8183594,5.98925781 C29.8183594,4.64485005 29.5369494,3.62516624 28.9741211,2.93017578 C28.4112928,2.23518533 27.578456,1.88769531 26.4755859,1.88769531 C25.3681585,1.88769531 24.5262073,2.23746395 23.949707,2.93701172 C23.3732068,3.63655949 23.0849609,4.65396468 23.0849609,5.98925781 L23.0849609,5.98925781 Z M34.1728516,3.5078125 L34.1728516,8.36816406 C34.1728516,8.9788442 34.3118476,9.43456881 34.5898438,9.73535156 C34.8678399,10.0361343 35.3030569,10.1865234 35.8955078,10.1865234 C36.6793659,10.1865234 37.2524396,9.97233287 37.6147461,9.54394531 C37.9770526,9.11555775 38.1582031,8.41602048 38.1582031,7.4453125 L38.1582031,3.5078125 L39.2929688,3.5078125 L39.2929688,11 L38.3564453,11 L38.1923828,9.99511719 L38.1308594,9.99511719 C37.8984363,10.3642597 37.5760112,10.6468089 37.1635742,10.8427734 C36.7511373,11.038738 36.2806016,11.1367188 35.7519531,11.1367188 C34.8404902,11.1367188 34.1580426,10.9202496 33.7045898,10.4873047 C33.2511371,10.0543598 33.0244141,9.36165841 33.0244141,8.40917969 L33.0244141,3.5078125 L34.1728516,3.5078125 Z M42.8339844,11 L41.6992188,11 L41.6992188,3.5078125 L42.8339844,3.5078125 L42.8339844,11 Z M41.6035156,1.47753906 C41.6035156,1.21777214 41.6673171,1.02750711 41.7949219,0.906738281 C41.9225267,0.785969448 42.0820303,0.725585938 42.2734375,0.725585938 C42.4557301,0.725585938 42.6129551,0.78710876 42.7451172,0.91015625 C42.8772793,1.03320374 42.9433594,1.22232945 42.9433594,1.47753906 C42.9433594,1.73274867 42.8772793,1.9230137 42.7451172,2.04833984 C42.6129551,2.17366599 42.4557301,2.23632812 42.2734375,2.23632812 C42.0820303,2.23632812 41.9225267,2.17366599 41.7949219,2.04833984 C41.6673171,1.9230137 41.6035156,1.73274867 41.6035156,1.47753906 L41.6035156,1.47753906 Z M48.234375,11.1367188 C47.1497342,11.1367188 46.3100616,10.8029005 45.715332,10.1352539 C45.1206025,9.46760734 44.8232422,8.52311809 44.8232422,7.30175781 C44.8232422,6.04849634 45.1251597,5.08008154 45.7290039,4.39648438 C46.3328481,3.71288721 47.1930283,3.37109375 48.3095703,3.37109375 C48.6695982,3.37109375 49.0296206,3.40983034 49.3896484,3.48730469 C49.7496763,3.56477903 50.0322255,3.65592396 50.2373047,3.76074219 L49.8886719,4.72460938 C49.6380196,4.62434846 49.3645848,4.54117872 49.0683594,4.47509766 C48.7721339,4.4090166 48.5100923,4.37597656 48.2822266,4.37597656 C46.7600835,4.37597656 45.9990234,5.34666998 45.9990234,7.28808594 C45.9990234,8.20866346 46.1847312,8.9150366 46.5561523,9.40722656 C46.9275735,9.89941652 47.4778609,10.1455078 48.2070312,10.1455078 C48.8313833,10.1455078 49.4716764,10.0110691 50.1279297,9.7421875 L50.1279297,10.7470703 C49.6266251,11.0068372 48.9954465,11.1367188 48.234375,11.1367188 L48.234375,11.1367188 Z M53.0263672,7.16503906 C53.2223317,6.88704288 53.5208313,6.52246319 53.921875,6.07128906 L56.3417969,3.5078125 L57.6884766,3.5078125 L54.6533203,6.70019531 L57.9003906,11 L56.5263672,11 L53.8808594,7.45898438 L53.0263672,8.19726562 L53.0263672,11 L51.9052734,11 L51.9052734,0.36328125 L53.0263672,0.36328125 L53.0263672,6.00292969 C53.0263672,6.25358198 53.0081382,6.6409479 52.9716797,7.16503906 L53.0263672,7.16503906 Z M67.7236328,8.95605469 C67.7236328,9.6533238 67.4638698,10.1910788 66.9443359,10.5693359 C66.4248021,10.947593 65.6956427,11.1367188 64.7568359,11.1367188 C63.7633414,11.1367188 62.9886096,10.9794938 62.4326172,10.6650391 L62.4326172,9.61230469 C62.792645,9.79459727 63.1788716,9.93815052 63.5913086,10.0429688 C64.0037456,10.147787 64.4013653,10.2001953 64.7841797,10.2001953 C65.3766306,10.2001953 65.8323552,10.1056325 66.1513672,9.91650391 C66.4703792,9.72737536 66.6298828,9.43912954 66.6298828,9.05175781 C66.6298828,8.76008969 66.5034192,8.51058046 66.2504883,8.30322266 C65.9975573,8.09586485 65.5042354,7.85091287 64.7705078,7.56835938 C64.0732387,7.30859245 63.5776382,7.08186946 63.2836914,6.88818359 C62.9897446,6.69449773 62.7709968,6.47461061 62.6274414,6.22851562 C62.483886,5.98242064 62.4121094,5.68847827 62.4121094,5.34667969 C62.4121094,4.73599955 62.6604793,4.25407078 63.1572266,3.90087891 C63.6539738,3.54768704 64.3352821,3.37109375 65.2011719,3.37109375 C66.0078165,3.37109375 66.7962201,3.53515461 67.5664062,3.86328125 L67.1630859,4.78613281 C66.4111291,4.47623543 65.7298208,4.32128906 65.1191406,4.32128906 C64.5813775,4.32128906 64.1757826,4.40559812 63.9023438,4.57421875 C63.6289049,4.74283938 63.4921875,4.97525894 63.4921875,5.27148438 C63.4921875,5.47200621 63.5434565,5.64290294 63.6459961,5.78417969 C63.7485357,5.92545644 63.9137358,6.0598952 64.1416016,6.1875 C64.3694673,6.3151048 64.8069629,6.49967327 65.4541016,6.74121094 C66.3427779,7.06478026 66.9431951,7.39062336 67.2553711,7.71875 C67.5675471,8.04687664 67.7236328,8.45930741 67.7236328,8.95605469 L67.7236328,8.95605469 Z M72.734375,11.1367188 C71.6269476,11.1367188 70.7530956,10.7994825 70.112793,10.125 C69.4724903,9.45051746 69.1523438,8.51400339 69.1523438,7.31542969 C69.1523438,6.10774136 69.4497041,5.14844105 70.0444336,4.4375 C70.6391631,3.72655895 71.4378205,3.37109375 72.4404297,3.37109375 C73.3792365,3.37109375 74.1220676,3.67984717 74.6689453,4.29736328 C75.215823,4.91487939 75.4892578,5.72948713 75.4892578,6.74121094 L75.4892578,7.45898438 L70.328125,7.45898438 C70.3509116,8.33854606 70.5730773,9.00618262 70.9946289,9.46191406 C71.4161805,9.91764551 72.0097618,10.1455078 72.7753906,10.1455078 C73.5820353,10.1455078 74.3795533,9.97688971 75.1679688,9.63964844 L75.1679688,10.6513672 C74.7669251,10.8245451 74.3875343,10.9487301 74.0297852,11.0239258 C73.672036,11.0991215 73.2402369,11.1367188 72.734375,11.1367188 L72.734375,11.1367188 Z M72.4267578,4.32128906 C71.8251923,4.32128906 71.3455422,4.51725064 70.987793,4.90917969 C70.6300438,5.30110873 70.4192712,5.84342102 70.3554688,6.53613281 L74.2724609,6.53613281 C74.2724609,5.82063444 74.1129573,5.2726256 73.7939453,4.89208984 C73.4749333,4.51155409 73.0192087,4.32128906 72.4267578,4.32128906 L72.4267578,4.32128906 Z M78.5585938,11 L77.4238281,11 L77.4238281,0.36328125 L78.5585938,0.36328125 L78.5585938,11 Z M84.1298828,11.1367188 C83.0224554,11.1367188 82.1486035,10.7994825 81.5083008,10.125 C80.8679981,9.45051746 80.5478516,8.51400339 80.5478516,7.31542969 C80.5478516,6.10774136 80.8452119,5.14844105 81.4399414,4.4375 C82.0346709,3.72655895 82.8333283,3.37109375 83.8359375,3.37109375 C84.7747443,3.37109375 85.5175754,3.67984717 86.0644531,4.29736328 C86.6113309,4.91487939 86.8847656,5.72948713 86.8847656,6.74121094 L86.8847656,7.45898438 L81.7236328,7.45898438 C81.7464194,8.33854606 81.9685851,9.00618262 82.3901367,9.46191406 C82.8116883,9.91764551 83.4052696,10.1455078 84.1708984,10.1455078 C84.9775431,10.1455078 85.7750612,9.97688971 86.5634766,9.63964844 L86.5634766,10.6513672 C86.1624329,10.8245451 85.7830422,10.9487301 85.425293,11.0239258 C85.0675438,11.0991215 84.6357447,11.1367188 84.1298828,11.1367188 L84.1298828,11.1367188 Z M83.8222656,4.32128906 C83.2207001,4.32128906 82.74105,4.51725064 82.3833008,4.90917969 C82.0255516,5.30110873 81.814779,5.84342102 81.7509766,6.53613281 L85.6679688,6.53613281 C85.6679688,5.82063444 85.5084651,5.2726256 85.1894531,4.89208984 C84.8704411,4.51155409 84.4147165,4.32128906 83.8222656,4.32128906 L83.8222656,4.32128906 Z M91.8134766,11.1367188 C90.7288357,11.1367188 89.8891631,10.8029005 89.2944336,10.1352539 C88.6997041,9.46760734 88.4023438,8.52311809 88.4023438,7.30175781 C88.4023438,6.04849634 88.7042613,5.08008154 89.3081055,4.39648438 C89.9119496,3.71288721 90.7721298,3.37109375 91.8886719,3.37109375 C92.2486997,3.37109375 92.6087222,3.40983034 92.96875,3.48730469 C93.3287778,3.56477903 93.6113271,3.65592396 93.8164062,3.76074219 L93.4677734,4.72460938 C93.2171211,4.62434846 92.9436864,4.54117872 92.6474609,4.47509766 C92.3512355,4.4090166 92.0891938,4.37597656 91.8613281,4.37597656 C90.3391851,4.37597656 89.578125,5.34666998 89.578125,7.28808594 C89.578125,8.20866346 89.7638328,8.9150366 90.1352539,9.40722656 C90.506675,9.89941652 91.0569625,10.1455078 91.7861328,10.1455078 C92.4104849,10.1455078 93.050778,10.0110691 93.7070312,9.7421875 L93.7070312,10.7470703 C93.2057267,11.0068372 92.5745481,11.1367188 91.8134766,11.1367188 L91.8134766,11.1367188 Z M97.9042969,10.2001953 C98.1048187,10.2001953 98.2985017,10.1853843 98.4853516,10.1557617 C98.6722015,10.1261392 98.820312,10.0953778 98.9296875,10.0634766 L98.9296875,10.9316406 C98.80664,10.9908857 98.6254895,11.0398761 98.3862305,11.0786133 C98.1469715,11.1173505 97.9316416,11.1367188 97.7402344,11.1367188 C96.2910084,11.1367188 95.5664062,10.37338 95.5664062,8.84667969 L95.5664062,4.38964844 L94.4931641,4.38964844 L94.4931641,3.84277344 L95.5664062,3.37109375 L96.0449219,1.77148438 L96.7011719,1.77148438 L96.7011719,3.5078125 L98.875,3.5078125 L98.875,4.38964844 L96.7011719,4.38964844 L96.7011719,8.79882812 C96.7011719,9.25000226 96.8082672,9.59635296 97.0224609,9.83789062 C97.2366547,10.0794283 97.5305971,10.2001953 97.9042969,10.2001953 L97.9042969,10.2001953 Z" id="Quick-select" fill="#979797" sketch:type="MSShapeGroup"></path>
        </g>
    </g>
</svg>