<?xml version="1.0" encoding="UTF-8" standalone="no"?>
<svg width="29px" height="35px" viewBox="0 0 29 35" version="1.1" xmlns="http://www.w3.org/2000/svg" xmlns:xlink="http://www.w3.org/1999/xlink">
    <!-- Generator: Sketch 3.8.3 (29802) - http://www.bohemiancoding.com/sketch -->
    <title>Combined Shape</title>
    <desc>Created with Sketch.</desc>
    <defs></defs>
    <g id="Page-1" stroke="none" stroke-width="1" fill="none" fill-rule="evenodd">
        <g id="chat-photos-2" transform="translate(-329.000000, -7.000000)" fill="#FFFFFF">
            <path d="M348.782609,16.6376812 L353.857778,16.6376812 C354.135072,16.6376812 354.362319,16.8649275 354.362319,17.1476329 L354.362319,38.44657 C354.362319,38.72657 354.132367,38.9565217 353.849662,38.9565217 L332.55343,38.9565217 C332.27343,38.9565217 332.043478,38.72657 332.043478,38.44657 L332.043478,17.1476329 C332.043478,16.8649275 332.270725,16.6376812 332.548019,16.6376812 L337.623188,16.6376812 C338.463188,16.6376812 339.144928,15.955942 339.144928,15.115942 C339.144928,14.275942 338.463188,13.5942029 337.623188,13.5942029 L332.548019,13.5942029 C330.588019,13.5942029 329,15.1869565 329,17.1476329 L329,38.44657 C329,40.4092754 330.590725,42 332.55343,42 L353.849662,42 C355.813043,42 357.405797,40.4092754 357.405797,38.44657 L357.405797,17.1476329 C357.405797,15.1869565 355.817778,13.5942029 353.857778,13.5942029 L348.782609,13.5942029 C347.942609,13.5942029 347.26087,14.275942 347.26087,15.115942 C347.26087,15.955942 347.942609,16.6376812 348.782609,16.6376812 Z M349.839034,24.1645411 C349.234396,23.5835749 348.269952,23.5991304 347.68628,24.2044444 L344.724638,27.2763285 L344.724638,8.52173913 C344.724638,7.68173913 344.042899,7 343.202899,7 C342.362899,7 341.681159,7.68173913 341.681159,8.52173913 L341.681159,27.2763285 L338.719517,24.2044444 C338.135845,23.5991304 337.171401,23.5835749 336.566763,24.1645411 C335.961449,24.7482126 335.945894,25.712657 336.52686,26.3172947 L342.10657,32.103285 C342.109275,32.1059903 342.114686,32.1086957 342.117391,32.111401 C342.124831,32.1195169 342.130242,32.1242512 342.138357,32.1323671 C342.141063,32.1350725 342.143768,32.1404831 342.146473,32.1431884 C342.170145,32.1668599 342.199227,32.1824155 342.222899,32.204058 C342.241159,32.2196135 342.25942,32.2331401 342.278357,32.2486957 C342.302029,32.2669565 342.322995,32.288599 342.346667,32.3041546 C342.354783,32.3122705 342.365604,32.3149758 342.373043,32.3203865 C342.410242,32.3467633 342.45285,32.3650242 342.492077,32.3859903 C342.500193,32.3886957 342.505604,32.3941063 342.513043,32.3968116 C342.544831,32.4123671 342.573913,32.4333333 342.608406,32.4468599 C342.616522,32.4522705 342.626667,32.4549758 342.634783,32.4576812 C342.680097,32.475942 342.724734,32.4867633 342.769372,32.4996135 C342.811981,32.5104348 342.849179,32.5286957 342.891111,32.5368116 C342.899227,32.5395169 342.909372,32.5395169 342.917488,32.5395169 C342.964831,32.5496618 343.010145,32.5496618 343.057488,32.5550725 C343.102802,32.5604831 343.144734,32.5658937 343.189372,32.568599 L343.202899,32.568599 L343.216425,32.568599 C343.261063,32.568599 343.302995,32.5604831 343.348309,32.5550725 C343.395652,32.5496618 343.440966,32.5496618 343.488309,32.5395169 C343.496425,32.5395169 343.50657,32.5395169 343.514686,32.5368116 C343.556618,32.5259903 343.596522,32.5104348 343.636425,32.4996135 C343.681063,32.484058 343.7257,32.4732367 343.771014,32.4576812 C343.781159,32.4549758 343.789275,32.4522705 343.797391,32.4468599 C343.837295,32.4313043 343.873816,32.4069565 343.91372,32.3859903 C343.952947,32.3650242 343.995556,32.3467633 344.034783,32.3203865 C344.040193,32.3149758 344.048309,32.3122705 344.056425,32.3068599 C344.085507,32.2858937 344.111884,32.2595169 344.138261,32.2378744 C344.153816,32.2277295 344.170048,32.2142029 344.185604,32.2013527 C344.209275,32.1797101 344.235652,32.1641546 344.259324,32.1431884 C344.262029,32.1404831 344.264734,32.1350725 344.26744,32.1323671 C344.27285,32.1269565 344.280966,32.1195169 344.288406,32.1141063 C344.291111,32.1086957 344.293816,32.1059903 344.299227,32.103285 L349.878937,26.3172947 C350.462609,25.712657 350.444348,24.7482126 349.839034,24.1645411 Z" id="Combined-Shape"></path>
        </g>
    </g>
</svg>