<?xml version="1.0" encoding="UTF-8" standalone="no"?>
<svg width="22px" height="22px" viewBox="0 0 22 22" version="1.1" xmlns="http://www.w3.org/2000/svg" xmlns:xlink="http://www.w3.org/1999/xlink" xmlns:sketch="http://www.bohemiancoding.com/sketch/ns">
    <!-- Generator: Sketch 3.4.4 (17249) - http://www.bohemiancoding.com/sketch -->
    <title>Page 1</title>
    <desc>Created with Sketch.</desc>
    <defs></defs>
    <g id="Page-1" stroke="none" stroke-width="1" fill="none" fill-rule="evenodd" sketch:type="MSPage">
        <g id="iPhone-6" sketch:type="MSArtboardGroup" transform="translate(-321.000000, -375.000000)" fill="#3caaee">
            <g id="Page-1" sketch:type="MSLayerGroup" transform="translate(321.000000, 375.000000)">
                <path d="M11,20.5 C5.76147571,20.5 1.5,16.2385243 1.5,11 C1.5,5.76147571 5.76147571,1.5 11,1.5 C16.2385243,1.5 20.5,5.76147571 20.5,11 C20.5,12.9761667 18.8714206,14.6666667 17.2501333,14.6666667 C15.3595147,14.6666667 14,13.6134063 14,11.8333333 L14.8315372,7.26469385 C14.8234123,7.30988546 14.7790479,7.34061485 14.7339478,7.33235708 C14.6895978,7.32438608 14.659269,7.28053331 14.6677183,7.23460353 L13.8341988,11.8188214 C13.8337947,13.7925538 15.3525705,14.8333333 17.2501333,14.8333333 C18.9848569,14.8333333 20.6666667,13.0370093 20.6666667,11 C20.6666667,5.66972429 16.3302757,1.33333333 11,1.33333333 C5.66972429,1.33333333 1.33333333,5.66972429 1.33333333,11 C1.33333333,16.3302757 5.66972429,20.6666667 11,20.6666667 C13.2064583,20.6666667 15.2868809,19.9411767 17.0111241,18.57061 C16.9760913,18.5985437 16.9220127,18.592429 16.8934974,18.5564542 C16.8656424,18.5215224 16.8717215,18.4683507 16.9069543,18.4402583 C15.21302,19.7881606 13.1716765,20.5 11,20.5 L11,20.5 Z M11,21.5 C13.3976625,21.5 15.6585419,20.7116059 17.5299928,19.2224493 C17.9264256,18.906359 17.992268,18.3304647 17.676275,17.9341543 C17.3616074,17.5371677 16.7849721,17.471967 16.3882876,17.7882583 C14.8416231,19.0176706 12.9805551,19.6666667 11,19.6666667 C6.22200904,19.6666667 2.33333333,15.777991 2.33333333,11 C2.33333333,6.22200904 6.22200904,2.33333333 11,2.33333333 C15.777991,2.33333333 19.6666667,6.22200904 19.6666667,11 C19.6666667,12.4989105 18.4173123,13.8333333 17.2501333,13.8333333 C15.8411416,13.8333333 14.8311532,13.1412132 14.8261292,11.9062326 L15.6514012,7.4145119 C15.74294,6.91692191 15.4118574,6.43820662 14.9124757,6.34842353 C14.4147229,6.2572831 13.9371517,6.58807698 13.8473569,7.08752433 L13.0079295,11.7446395 C13,14.2295441 14.8549919,15.6666667 17.2501333,15.6666667 C19.4322271,15.6666667 21.5,13.5202745 21.5,11 C21.5,5.20919096 16.790809,0.5 11,0.5 C5.20919096,0.5 0.5,5.20919096 0.5,11 C0.5,16.790809 5.20919096,21.5 11,21.5 L11,21.5 Z M10.1846211,14.5 C9.35536967,14.5 8.58738817,14.0826006 8.07217231,13.3426672 C7.52007509,12.5521589 7.35535393,11.5325077 7.63130454,10.6197848 C8.09573972,9.07301747 9.14991144,7.99132606 10.5256606,7.62785695 C11.6819761,7.32112753 12.8655593,7.5801862 13.5273953,8.25677416 C13.4916743,8.22017915 13.4910489,8.1701629 13.524883,8.13369731 C13.5716321,8.08305897 13.6603656,8.08200916 13.7070135,8.12910897 C12.9744825,7.37937114 11.6777795,7.11755184 10.4576282,7.43873064 C9.09763502,7.79872658 7.94365111,8.77120987 7.40126759,10.5731588 C7.11096829,11.5381072 7.28581705,12.6086392 7.86868198,13.4433376 C8.42030439,14.2358729 9.26769537,14.6991187 10.1846211,14.6991187 C11.7969481,14.6991187 13.0122024,13.3456275 13.3517593,11.8136949 C13.3398354,11.8676279 13.2740801,11.9105551 13.1992488,11.8915665 C13.1388332,11.8767821 13.108131,11.8247472 13.1186207,11.7783103 C12.7798726,13.2999354 11.5718929,14.5 10.1846211,14.5 L10.1846211,14.5 Z M10.1846211,15.5 C12.0902382,15.5 13.66224,13.9382985 14.0943846,11.9971307 C14.2016687,11.5222047 13.9157012,11.0375404 13.4412088,10.9212891 C12.9612441,10.7994798 12.4827836,11.1118339 12.3753963,11.5975576 C12.126552,12.7202345 11.2476447,13.6991187 10.1846211,13.6991187 C9.60226906,13.6991187 9.05799599,13.4015793 8.6890074,12.8714411 C8.28010908,12.2858725 8.15701487,11.5322138 8.35885071,10.861316 C8.79277549,9.41969719 9.66789622,8.68221699 10.7128526,8.40561226 C11.6067904,8.17030269 12.5316407,8.35704063 12.9941306,8.83038387 C13.3490255,9.18873247 13.9180658,9.18200012 14.2587863,8.81295014 C14.5866231,8.45961812 14.5796655,7.9031759 14.2426261,7.55788602 C13.3130609,6.60760082 11.7562279,6.26684652 10.2697455,6.66115782 C8.54677657,7.11636117 7.23497691,8.46240602 6.67382174,10.331296 C6.30927093,11.5370663 6.52529012,12.8742607 7.25192223,13.9146718 C7.95028032,14.917628 9.02179818,15.5 10.1846211,15.5 L10.1846211,15.5 Z" id="Shape" sketch:type="MSShapeGroup"></path>
            </g>
        </g>
    </g>
</svg>