<?xml version="1.0" encoding="UTF-8" standalone="no"?>
<svg width="54px" height="66px" viewBox="0 0 54 66" version="1.1" xmlns="http://www.w3.org/2000/svg" xmlns:xlink="http://www.w3.org/1999/xlink" xmlns:sketch="http://www.bohemiancoding.com/sketch/ns">
    <!-- Generator: Sketch 3.5.1 (25234) - http://www.bohemiancoding.com/sketch -->
    <title>Page 1</title>
    <desc>Created with Sketch.</desc>
    <defs></defs>
    <g id="Page-1" stroke="none" stroke-width="1" fill="none" fill-rule="evenodd" sketch:type="MSPage">
        <g id="iPhone-6" sketch:type="MSArtboardGroup" transform="translate(-29.000000, -188.000000)" fill="#979797">
            <path d="M82.496,205.359 L65.539,188.402 C65.238,188.102 64.855,188 64.429,188 L36.168,188 C32.164,188 29,191.262 29,195.266 L29,198.094 C29,198.875 29.676,199.356 30.414,199.508 C29.719,199.688 29,200.067 29,200.82 L29,212.125 C29,212.906 29.676,213.387 30.414,213.539 C29.676,213.692 29,214.172 29,214.953 L29,226.258 C29,227.039 29.676,227.52 30.414,227.672 C29.676,227.824 29,228.301 29,229.086 L29,240.391 C29,241.172 29.676,241.652 30.414,241.805 C29.676,241.957 29,242.434 29,243.219 L29,245.945 C29,249.949 32.16,253.211 36.168,253.211 L75.734,253.211 C79.742,253.211 82.902,249.949 82.902,245.945 L82.902,206.469 C82.898,206.039 82.801,205.66 82.496,205.359 L82.496,205.359 Z M66.043,193.547 L77.347,204.852 L70.082,204.852 C67.859,204.852 66.043,203.031 66.043,200.813 L66.043,193.547 Z M79.672,245.934 C79.672,248.156 77.957,249.973 75.734,249.973 L36.168,249.973 C33.945,249.973 32.23,248.16 32.23,245.934 L32.23,244.824 L35.762,244.824 C36.808,246.438 38.383,247.551 40.402,247.551 C43.629,247.551 46.258,245.024 46.258,241.797 C46.258,238.57 43.629,235.942 40.402,235.942 C38.355,235.942 36.801,237.113 35.762,238.77 L32.23,238.77 L32.23,230.695 L35.762,230.695 C36.808,232.309 38.383,233.524 40.402,233.524 C43.629,233.524 46.258,230.895 46.258,227.668 C46.258,224.442 43.629,221.813 40.402,221.813 C38.383,221.813 36.808,223.024 35.762,224.641 L32.23,224.641 L32.23,216.567 L35.762,216.567 C36.808,218.184 38.383,219.391 40.402,219.391 C43.629,219.391 46.258,216.762 46.258,213.535 C46.258,210.309 43.633,207.68 40.402,207.68 C38.383,207.68 36.808,208.891 35.762,210.504 L32.23,210.504 L32.23,202.43 L35.762,202.43 C36.801,204.086 38.355,205.258 40.402,205.258 C43.629,205.258 46.258,202.735 46.258,199.504 C46.258,196.277 43.633,193.649 40.402,193.649 C38.355,193.649 36.801,194.82 35.762,196.477 L32.23,196.477 L32.23,195.266 C32.23,193.043 33.945,191.227 36.168,191.227 L62.816,191.227 L62.816,200.817 C62.816,204.813 66.082,208.082 70.082,208.082 L79.672,208.082 L79.672,245.934 Z M36.773,241.797 C37.297,241.668 37.805,241.41 37.984,240.887 C38.347,239.848 39.285,239.172 40.406,239.172 C41.847,239.172 43.031,240.352 43.031,241.797 C43.031,243.242 41.851,244.32 40.406,244.32 C39.285,244.32 38.347,243.645 37.984,242.606 C37.805,242.086 37.289,241.926 36.773,241.797 L36.773,241.797 Z M36.773,227.664 C37.297,227.535 37.805,227.277 37.984,226.754 C38.347,225.715 39.285,225.039 40.406,225.039 C41.847,225.039 43.031,226.219 43.031,227.664 C43.031,229.109 41.851,230.289 40.406,230.289 C39.285,230.289 38.347,229.613 37.984,228.574 C37.805,228.051 37.293,227.793 36.773,227.664 L36.773,227.664 Z M36.773,213.535 C37.297,213.406 37.805,213.149 37.984,212.625 C38.347,211.582 39.285,210.91 40.406,210.91 C41.851,210.91 43.031,212.09 43.031,213.535 C43.031,214.977 41.851,216.16 40.406,216.16 C39.285,216.16 38.347,215.488 37.984,214.445 C37.805,213.918 37.293,213.664 36.773,213.535 L36.773,213.535 Z M36.773,199.504 C37.297,199.375 37.805,199.121 37.984,198.594 C38.347,197.551 39.285,196.879 40.406,196.879 C41.851,196.879 43.031,198.059 43.031,199.504 C43.031,200.949 41.851,202.027 40.406,202.027 C39.285,202.027 38.347,201.356 37.984,200.313 C37.808,199.809 37.265,199.649 36.773,199.504 L36.773,199.504 Z" id="Page-1" sketch:type="MSShapeGroup"></path>
        </g>
    </g>
</svg>