<?xml version="1.0" encoding="UTF-8" standalone="no"?>
<svg width="61px" height="76px" viewBox="0 0 61 76" version="1.1" xmlns="http://www.w3.org/2000/svg" xmlns:xlink="http://www.w3.org/1999/xlink" xmlns:sketch="http://www.bohemiancoding.com/sketch/ns">
    <!-- Generator: Sketch 3.4 (15588) - http://www.bohemiancoding.com/sketch -->
    <title>Page 1</title>
    <desc>Created with Sketch.</desc>
    <defs></defs>
    <g id="Page-1" stroke="none" stroke-width="1" fill="none" fill-rule="evenodd" sketch:type="MSPage">
        <g id="iPhone-6" sketch:type="MSArtboardGroup" transform="translate(-243.000000, -450.000000)" fill="#000000">
            <path d="M243,450.004 L243,454.692 L247.688,454.692 C250.266,454.692 252.375,456.801 252.375,459.379 L252.375,515.629 C252.375,518.207 250.266,520.316 247.688,520.316 L243,520.316 L243,525.004 L282.844,525.004 C294.563,525.004 303.938,515.629 303.938,503.91 C303.938,495.004 298.563,487.477 290.828,484.426 C295.985,480.91 299.25,475.316 299.25,468.75 C299.25,458.438 290.813,450 280.5,450 L243,450 L243,450.004 Z M264.094,454.692 L273.473,454.692 C281.207,454.692 287.535,461.02 287.535,468.754 C287.535,476.488 281.207,482.816 273.473,482.816 L264.098,482.816 L264.098,454.692 L264.094,454.692 Z M264.094,487.504 L275.813,487.504 C284.953,487.504 292.219,494.77 292.219,503.91 C292.219,513.051 284.953,520.316 275.813,520.316 L264.094,520.316 L264.094,487.504 Z" id="Page-1" sketch:type="MSShapeGroup"></path>
        </g>
    </g>
</svg>