<?xml version="1.0" encoding="UTF-8" standalone="no"?>
<svg width="24px" height="24px" viewBox="0 0 24 24" version="1.1" xmlns="http://www.w3.org/2000/svg" xmlns:xlink="http://www.w3.org/1999/xlink" xmlns:sketch="http://www.bohemiancoding.com/sketch/ns">
    <!-- Generator: Sketch 3.5.1 (25234) - http://www.bohemiancoding.com/sketch -->
    <title>1f506</title>
    <desc>Created with Sketch.</desc>
    <defs></defs>
    <g id="Page-1" stroke="none" stroke-width="1" fill="none" fill-rule="evenodd" sketch:type="MSPage">
        <g id="iPhone-6" sketch:type="MSArtboardGroup" transform="translate(-19.000000, -6.000000)" fill="#FFEB3B">
            <g id="1f506" sketch:type="MSLayerGroup" transform="translate(19.000000, 6.000000)">
                <g id="Group" sketch:type="MSShapeGroup">
                    <path d="M12,17.77875 C11.220375,17.77875 10.46325,17.62575 9.75,17.32425 C9.061125,17.032875 8.443125,16.615875 7.912875,16.08525 C7.38225,15.554625 6.96525,14.936625 6.67425,14.248125 C6.372375,13.53525 6.219375,12.778125 6.219375,11.998125 C6.219375,11.218125 6.372375,10.460625 6.67425,9.748125 C6.964875,9.06 7.38225,8.441625 7.912875,7.910625 C8.443125,7.38 9.0615,6.96375 9.75,6.672375 C10.46325,6.370875 11.220375,6.217875 12,6.217875 C12.780375,6.217875 13.537875,6.370875 14.25,6.672375 C14.938125,6.96375 15.556125,7.38 16.086375,7.910625 C16.617,8.441625 17.034,9.059625 17.32575,9.748125 C17.627625,10.461 17.779875,11.2185 17.779875,11.998125 C17.779875,12.77775 17.627625,13.53525 17.32575,14.248125 C17.034375,14.936625 16.617,15.554625 16.086375,16.08525 C15.556125,16.615875 14.93775,17.0325 14.25,17.32425 C13.537125,17.62575 12.779625,17.77875 12,17.77875 M12,7.868625 C9.723375,7.868625 7.87125,9.72075 7.87125,11.997375 C7.87125,14.274 9.723375,16.126125 12,16.126125 C14.276625,16.126125 16.12875,14.273625 16.12875,11.997375 C16.12875,9.720375 14.27625,7.868625 12,7.868625 Z M11.17425,19.415625 L12.82575,19.415625 L12.82575,24 L11.17425,24 L11.17425,19.415625 Z M11.17425,0 L12.82575,0 L12.82575,4.584 L11.17425,4.584 L11.17425,0 Z M17.8304573,16.6602142 L21.0717516,19.9180528 L19.9007374,21.0831202 L16.6594431,17.8252817 L17.8304573,16.6602142 Z M4.09883963,2.93086485 L7.33992086,6.17194609 L6.17241038,7.33945658 L2.93132914,4.09837534 L4.09883963,2.93086485 Z M6.1748424,16.6599901 L7.3415925,17.8277306 L4.09913618,21.0674368 L2.93238608,19.8996962 L6.1748424,16.6599901 Z M19.8972709,2.8984176 L21.0705603,4.05998404 L17.8290961,7.33416236 L16.6558067,6.17259593 L19.8972709,2.8984176 Z M19.41525,11.173875 L24,11.173875 L24,12.825375 L19.41525,12.825375 L19.41525,11.173875 Z M0,11.173875 L4.58475,11.173875 L4.58475,12.825375 L0,12.825375 L0,11.173875 Z" id="Shape"></path>
                </g>
            </g>
        </g>
    </g>
</svg>