<?xml version="1.0" encoding="UTF-8" standalone="no"?>
<svg width="54px" height="48px" viewBox="0 0 54 48" version="1.1" xmlns="http://www.w3.org/2000/svg" xmlns:xlink="http://www.w3.org/1999/xlink">
    <!-- Generator: Sketch 3.7 (28169) - http://www.bohemiancoding.com/sketch -->
    <title>Combined Shape</title>
    <desc>Created with Sketch.</desc>
    <defs></defs>
    <g id="Page-1" stroke="none" stroke-width="1" fill="none" fill-rule="evenodd">
        <g id="Combined-Shape" fill="#979797">
            <path d="M49.477,32.574 L5.152,32.574 C2.828,32.574 0.953,30.699 0.953,28.375 L0.953,4.75 C0.953,2.426 2.828,0.551 5.152,0.551 L49.477,0.551 C51.801,0.551 53.676,2.426 53.676,4.75 L53.676,28.375 C53.676,30.699 51.801,32.574 49.477,32.574 L49.477,32.574 Z M5.227,4.301 C5,4.301 4.777,4.527 4.777,4.75 L4.777,28.375 C4.777,28.602 5.004,28.824 5.227,28.824 L49.551,28.824 C49.777,28.824 50,28.598 50,28.375 L50,4.75 C50,4.523 49.773,4.301 49.551,4.301 L5.227,4.301 Z M12.051,9.023 C12.051,11.926 7.699,11.926 7.699,9.023 C7.699,6.125 12.051,6.125 12.051,9.023 Z M20.75,9.023 C20.75,11.926 16.398,11.926 16.398,9.023 C16.398,6.125 20.75,6.125 20.75,9.023 Z M29.449,9.023 C29.449,11.926 25.102,11.926 25.102,9.023 C25.102,6.125 29.449,6.125 29.449,9.023 Z M38.074,9.023 C38.074,11.926 33.727,11.926 33.727,9.023 C33.727,6.125 38.074,6.125 38.074,9.023 Z M46.773,9.023 C46.773,11.926 42.426,11.926 42.426,9.023 C42.426,6.125 46.773,6.125 46.773,9.023 Z M16.699,15.926 C16.699,18.824 12.352,18.824 12.352,15.926 C12.352,13.023 16.699,13.023 16.699,15.926 Z M25.398,15.926 C25.398,18.824 21.051,18.824 21.051,15.926 C21.051,13.023 25.398,13.023 25.398,15.926 Z M34.023,15.926 C34.023,18.824 29.676,18.824 29.676,15.926 C29.676,13.023 34.023,13.023 34.023,15.926 Z M42.727,15.926 C42.727,18.824 38.375,18.824 38.375,15.926 C38.375,13.023 42.727,13.023 42.727,15.926 Z M37.176,25.523 L17.824,25.523 C16.848,25.523 16.098,24.773 16.098,23.797 C16.098,22.82 16.848,22.07 17.824,22.07 L37.176,22.07 C38.152,22.07 38.902,22.82 38.902,23.797 C38.902,24.77 38.148,25.523 37.176,25.523 Z M28.398,47.051 C28.023,47.051 27.648,46.977 27.348,46.75 L16.773,39.023 C16.023,38.422 15.797,37.375 16.398,36.625 C17,35.875 18.047,35.648 18.797,36.25 L28.246,43.148 L35.973,36.398 C36.723,35.797 37.773,35.875 38.449,36.547 C39.051,37.297 38.973,38.348 38.301,39.023 L29.527,46.75 C29.227,46.898 28.773,47.051 28.398,47.051 Z"></path>
        </g>
    </g>
</svg>