<?xml version="1.0" encoding="UTF-8" standalone="no"?>
<svg width="75px" height="75px" viewBox="0 0 75 75" version="1.1" xmlns="http://www.w3.org/2000/svg" xmlns:xlink="http://www.w3.org/1999/xlink" xmlns:sketch="http://www.bohemiancoding.com/sketch/ns">
    <!-- Generator: Sketch 3.5 (25232) - http://www.bohemiancoding.com/sketch -->
    <title>Shape</title>
    <desc>Created with Sketch.</desc>
    <defs></defs>
    <g id="Page-1" stroke="none" stroke-width="1" fill="none" fill-rule="evenodd" sketch:type="MSPage">
        <g id="icon-time" sketch:type="MSLayerGroup" fill="#4A4A4A">
            <g id="Page-1" sketch:type="MSShapeGroup">
                <g id="Fill-1">
                    <path d="M37.5,0 C16.789,0 0,16.789 0,37.5 C0,58.211 16.789,75 37.5,75 C58.211,75 75,58.211 75,37.5 C75,16.789 58.211,0 37.5,0 L37.5,0 L37.5,0 Z M37.5,66.242 C21.625,66.242 8.758,53.371 8.758,37.5 C8.758,21.625 21.625,8.758 37.5,8.758 C53.375,8.758 66.242,21.625 66.242,37.5 C66.242,53.375 53.375,66.242 37.5,66.242 L37.5,66.242 Z M53.246,40.051 L42.984,34.184 L42.984,18.352 C42.984,15.242 40.504,12.719 37.449,12.719 C34.391,12.719 31.914,15.242 31.914,18.352 L31.914,37.406 C31.914,39.848 33.445,41.922 35.582,42.703 L47.715,49.641 C50.41,51.195 53.832,50.309 55.359,47.66 C56.891,45.012 55.941,41.605 53.246,40.051 L53.246,40.051 Z" id="Shape"></path>
                </g>
            </g>
        </g>
    </g>
</svg>