<?xml version="1.0" encoding="UTF-8" standalone="no"?>
<svg width="24px" height="18px" viewBox="0 0 24 18" version="1.1" xmlns="http://www.w3.org/2000/svg" xmlns:xlink="http://www.w3.org/1999/xlink" xmlns:sketch="http://www.bohemiancoding.com/sketch/ns">
    <!-- Generator: Sketch 3.3.3 (12081) - http://www.bohemiancoding.com/sketch -->
    <title>Shape</title>
    <desc>Created with Sketch.</desc>
    <defs></defs>
    <g id="Page-1" stroke="none" stroke-width="1" fill="none" fill-rule="evenodd" sketch:type="MSPage">
        <g id="iPhone-6" sketch:type="MSArtboardGroup" transform="translate(-217.000000, -174.000000)" fill="#6CADF3">
            <path d="M228.647059,189.766071 C225.686765,189.766071 223.292647,187.371429 223.292647,184.446429 C223.292647,181.521429 225.686765,179.126786 228.647059,179.126786 C231.607353,179.126786 234.001471,181.521429 234.001471,184.446429 C234.001471,187.371429 231.607353,189.766071 228.647059,189.766071 Z M228.647059,181.441071 C226.980882,181.441071 225.622059,182.791071 225.622059,184.446429 C225.622059,186.101786 226.980882,187.451786 228.647059,187.451786 C230.313235,187.451786 231.672059,186.101786 231.672059,184.446429 C231.672059,182.791071 230.313235,181.441071 228.647059,181.441071 Z M237.269118,177.0375 L233.775,177.0375 C233.775,175.382143 232.416176,174.032143 230.75,174.032143 L226.544118,174.032143 C224.877941,174.032143 223.519118,175.382143 223.519118,177.0375 L220.025,177.0375 C218.358824,177.0375 217,178.3875 217,180.042857 L217,188.833929 C217,190.489286 218.358824,191.839286 220.025,191.839286 L237.269118,191.839286 C238.935294,191.839286 240.294118,190.489286 240.294118,188.833929 L240.294118,180.042857 C240.294118,178.3875 238.935294,177.0375 237.269118,177.0375 L237.269118,177.0375 Z" id="Shape" sketch:type="MSShapeGroup"></path>
        </g>
    </g>
</svg>