<?xml version="1.0" encoding="UTF-8" standalone="no"?>
<svg width="74px" height="74px" viewBox="0 0 74 74" version="1.1" xmlns="http://www.w3.org/2000/svg" xmlns:xlink="http://www.w3.org/1999/xlink">
    <!-- Generator: Sketch 3.8.2 (29753) - http://www.bohemiancoding.com/sketch -->
    <title>1f642</title>
    <desc>Created with Sketch.</desc>
    <defs></defs>
    <g id="Page-1" stroke="none" stroke-width="1" fill="none" fill-rule="evenodd">
        <g id="1f642">
            <g id="Group">
                <circle id="Oval" fill="#FFDD67" cx="37" cy="37" r="37"></circle>
                <g transform="translate(17.266667, 24.666667)" fill="#664E27">
                    <path d="M1.62306667,23.3704333 C4.67556667,25.1649333 7.62323333,26.2539667 10.6436667,26.9767 C13.6517667,27.6994333 16.687,28.0077667 19.7321,28.0127 C22.7796667,28.0003667 25.8124333,27.6920333 28.8180667,26.9693 C31.8385,26.2465667 34.7849333,25.16 37.8411333,23.3704333 C36.5325667,26.7214 33.6280667,29.3570333 30.3918,31.043 C27.1185333,32.7437667 23.4086667,33.5627 19.7345667,33.5602333 C16.0604667,33.5553 12.3543,32.7363667 9.08226667,31.0356 C5.84476667,29.3496333 2.94026667,26.7164667 1.6206,23.3704333" id="Shape"></path>
                    <ellipse id="Oval" cx="5.55246667" cy="5.66346667" rx="5.55" ry="5.55"></ellipse>
                    <ellipse id="Oval" cx="33.9191333" cy="5.66346667" rx="5.55" ry="5.55"></ellipse>
                </g>
            </g>
        </g>
    </g>
</svg>