<?xml version="1.0" encoding="UTF-8" standalone="no"?>
<svg width="22px" height="22px" viewBox="0 0 22 22" version="1.1" xmlns="http://www.w3.org/2000/svg" xmlns:xlink="http://www.w3.org/1999/xlink" xmlns:sketch="http://www.bohemiancoding.com/sketch/ns">
    <!-- Generator: Sketch 3.3.2 (12043) - http://www.bohemiancoding.com/sketch -->
    <title>Imported Layers</title>
    <desc>Created with Sketch.</desc>
    <defs></defs>
    <g id="Page-1" stroke="none" stroke-width="1" fill="none" fill-rule="evenodd" sketch:type="MSPage">
        <g id="iPhone-6" sketch:type="MSArtboardGroup" transform="translate(-89.000000, -375.000000)" fill="#2D93FF">
            <g id="Imported-Layers" sketch:type="MSLayerGroup" transform="translate(89.000000, 375.000000)">
                <path d="M20.4057971,21.12 L1.91304348,21.12 C0.956521739,21.12 0,20.1151238 0,19.1722667 L0,5.02940952 C0,4.14857143 0.797101449,3.52 1.91304348,3.52 L6.05797101,3.52 C6.31389372,3.52 6.53623188,3.7391619 6.53623188,3.99142857 C6.53623188,4.24369524 6.31389372,4.46285714 6.05797101,4.46285714 L1.91304348,4.46285714 C1.53128502,4.46285714 0.956521739,4.62 0.956521739,5.02940952 L0.956521739,19.1722667 C0.956521739,19.6122667 1.49770048,20.1771429 1.91304348,20.1771429 L20.4057971,20.1771429 C20.7560966,20.1771429 21.0434783,19.6436952 21.0434783,19.1722667 L21.0434783,5.02940952 C21.0434783,4.68369524 20.9469758,4.46285714 20.4057971,4.46285714 L15.942029,4.46285714 C15.6861063,4.46285714 15.4637681,4.24369524 15.4637681,3.99142857 C15.4637681,3.7391619 15.6861063,3.52 15.942029,3.52 L20.4057971,3.52 C21.3937778,3.52 22,4.08655238 22,5.02940952 L22,19.1722667 C22,20.1151238 21.3937778,21.12 20.4057971,21.12 L20.4057971,21.12 Z" id="Fill-1" sketch:type="MSShapeGroup"></path>
                <path d="M10.9876801,13.2 C10.8623998,13.2 10.7375358,13.1689112 10.6447202,13.0752302 L7.18015986,9.59203938 C6.99328005,9.40592101 6.99328005,9.12570715 7.18015986,8.93958878 C7.36703968,8.75347041 7.64839994,8.75347041 7.83527976,8.93958878 L11.2998401,12.4211216 C11.48672,12.6072399 11.48672,12.8874538 11.2998401,13.0735722 C11.2074408,13.1672531 11.0821605,13.2 10.9876801,13.2 L10.9876801,13.2 Z" id="Fill-2" sketch:type="MSShapeGroup"></path>
                <path d="M11.0397163,13.2 C10.9153186,13.2 10.7913342,13.168681 10.6991725,13.0743066 C10.5136092,12.8868104 10.5136092,12.6045223 10.6991725,12.4170261 L14.1699094,8.94062211 C14.355886,8.75312596 14.6348509,8.75312596 14.8208275,8.94062211 C15.0063908,9.12853584 15.0063908,9.41040643 14.8208275,9.59832017 L11.3496774,13.0743066 C11.2579289,13.1670107 11.1335312,13.2 11.0397163,13.2 L11.0397163,13.2 Z" id="Fill-3" sketch:type="MSShapeGroup"></path>
                <path d="M11,13.2 C10.7645511,13.2 10.56,12.9754927 10.56,12.7170732 L10.56,0.482926829 C10.56,0.224507317 10.7645511,0 11,0 C11.2354489,0 11.44,0.224507317 11.44,0.482926829 L11.44,12.7170732 C11.44,12.9754927 11.2354489,13.2 11,13.2 L11,13.2 Z" id="Fill-4" sketch:type="MSShapeGroup"></path>
                <path d="M15.3716129,16.72 L6.6283871,16.72 C6.37774796,16.72 6.16,16.5154489 6.16,16.28 C6.16,16.0445511 6.37774796,15.84 6.6283871,15.84 L15.3716129,15.84 C15.622252,15.84 15.84,16.0445511 15.84,16.28 C15.84,16.5154489 15.622252,16.72 15.3716129,16.72 L15.3716129,16.72 Z" id="Fill-5" sketch:type="MSShapeGroup"></path>
            </g>
        </g>
    </g>
</svg>