<?xml version="1.0" encoding="UTF-8" standalone="no"?>
<svg width="121px" height="20px" viewBox="0 0 121 20" version="1.1" xmlns="http://www.w3.org/2000/svg" xmlns:xlink="http://www.w3.org/1999/xlink" xmlns:sketch="http://www.bohemiancoding.com/sketch/ns">
    <!-- Generator: Sketch 3.3.2 (12043) - http://www.bohemiancoding.com/sketch -->
    <title>Shape Copy 4</title>
    <desc>Created with Sketch.</desc>
    <defs></defs>
    <g id="Page-1" stroke="none" stroke-width="1" fill="none" fill-rule="evenodd" sketch:type="MSPage">
        <path d="M11.3768,14.7692308 C11.3768,18.1346154 9.3608,19.8076923 5.3288,19.8076923 C3.908,19.8076923 2.66,19.6153846 1.5656,19.2692308 L1.5656,16.9615385 C2.6792,17.3269231 3.9464,17.5 5.348,17.5 C7.4408,17.5 8.4776,16.6153846 8.4776,14.8653846 C7.6136,15.2307692 6.692,15.4038462 5.6936,15.4038462 C2.276,15.4038462 0.5672,13.5384615 0.5672,9.80769231 C0.5672,6.01923077 2.5448,4.11538462 6.5192,4.11538462 C7.844,4.11538462 9.4568,4.26923077 11.3576,4.57692308 L11.3576,14.7692308 L11.3768,14.7692308 Z M8.4776,6.75 C7.9976,6.57692308 7.3256,6.48076923 6.4616,6.48076923 C4.4648,6.48076923 3.4472,7.59615385 3.4472,9.80769231 C3.4472,11.9423077 4.3112,13.0192308 6.0392,13.0192308 C6.8648,13.0192308 7.6904,12.8269231 8.4776,12.4230769 L8.4776,6.75 L8.4776,6.75 Z M14.1224,15.6538462 L14.1224,0 L17.0216,0 L17.0216,5.63461538 C17.924,4.65384615 19.076,4.17307692 20.4968,4.17307692 C23.2232,4.17307692 24.5672,5.59615385 24.5672,8.42307692 L24.5672,15.6730769 L21.668,15.6730769 L21.668,8.42307692 C21.668,7.15384615 21.0344,6.51923077 19.7672,6.51923077 C18.8264,6.51923077 17.9048,6.90384615 17.0024,7.65384615 L17.0024,15.6730769 L14.1224,15.6730769 L14.1224,15.6538462 Z M26.7368,9.90384615 C26.7368,6.05769231 28.6376,4.11538462 32.42,4.11538462 C36.2024,4.11538462 38.1032,6.03846154 38.1032,9.90384615 C38.1032,13.75 36.2024,15.6730769 32.42,15.6730769 C28.6568,15.6730769 26.756,13.75 26.7368,9.90384615 Z M32.4392,13.4615385 C34.3016,13.4615385 35.2232,12.2692308 35.2232,9.86538462 C35.2232,7.51923077 34.3016,6.34615385 32.4392,6.34615385 C30.5768,6.34615385 29.6552,7.51923077 29.6552,9.86538462 C29.636,12.25 30.5768,13.4615385 32.4392,13.4615385 Z M40.3112,15.0961538 L40.3112,12.6923077 C41.5784,13.2115385 43.0568,13.4615385 44.7272,13.4615385 C45.9752,13.4615385 46.5896,13.0576923 46.5896,12.25 C46.5896,11.4807692 46.1672,11.0961538 45.3416,11.0961538 L43.268,11.0961538 C40.9256,11.0961538 39.7736,9.94230769 39.7736,7.65384615 C39.7736,5.25 41.4824,4.03846154 44.8808,4.03846154 C46.3208,4.03846154 47.684,4.25 48.9512,4.69230769 L48.9512,7.09615385 C47.684,6.57692308 46.2824,6.32692308 44.804,6.32692308 C43.2296,6.32692308 42.4616,6.73076923 42.4616,7.53846154 C42.4616,8.30769231 42.9224,8.69230769 43.8248,8.69230769 L45.6872,8.69230769 C48.2408,8.69230769 49.508,9.84615385 49.508,12.1346154 C49.508,14.5384615 47.876,15.75 44.6312,15.75 C43.0184,15.75 41.5784,15.5384615 40.3112,15.0961538 Z M51.3512,2.28846154 L53.5016,2.28846154 L53.9432,4.15384615 L56.8232,4.15384615 L56.8232,6.46153846 L54.2504,6.46153846 L54.2504,11.75 C54.2504,12.8269231 54.7112,13.3653846 55.6328,13.3653846 L56.8232,13.3653846 L56.8232,15.6730769 L54.2504,15.6730769 C52.3304,15.6730769 51.3704,14.6346154 51.3704,12.5769231 L51.3704,2.28846154 L51.3512,2.28846154 Z M69.0344,14.7692308 C69.0344,18.1346154 67.0184,19.8076923 62.9864,19.8076923 C61.5656,19.8076923 60.3176,19.6153846 59.2232,19.2692308 L59.2232,16.9615385 C60.3368,17.3269231 61.604,17.5 63.0056,17.5 C65.0984,17.5 66.1352,16.6153846 66.1352,14.8653846 C65.2712,15.2307692 64.3496,15.4038462 63.3512,15.4038462 C59.9336,15.4038462 58.2248,13.5384615 58.2248,9.80769231 C58.2248,6.01923077 60.2024,4.11538462 64.1768,4.11538462 C65.5016,4.11538462 67.1144,4.26923077 69.0152,4.57692308 L69.0152,14.7692308 L69.0344,14.7692308 Z M66.1352,6.75 C65.6552,6.57692308 64.9832,6.48076923 64.1192,6.48076923 C62.1224,6.48076923 61.1048,7.59615385 61.1048,9.80769231 C61.1048,11.9423077 61.9688,13.0192308 63.6968,13.0192308 C64.5224,13.0192308 65.348,12.8269231 66.1352,12.4230769 L66.1352,6.75 Z M71.7608,15.6538462 L71.7608,4.15384615 L74.0072,4.15384615 L74.372,5.61538462 C75.3704,4.63461538 76.4456,4.15384615 77.5592,4.15384615 L77.5592,6.5 C76.484,6.5 75.5048,6.94230769 74.66,7.84615385 L74.66,15.6538462 L71.7608,15.6538462 Z M78.6536,12.0576923 C78.6536,9.76923077 80.324,8.63461538 83.6456,8.63461538 C84.4328,8.63461538 85.2008,8.71153846 85.988,8.84615385 L85.988,7.98076923 C85.988,6.94230769 85.2392,6.44230769 83.7608,6.44230769 C82.5128,6.44230769 81.1112,6.61538462 79.5752,6.98076923 L79.5752,4.67307692 C81.1112,4.30769231 82.4936,4.13461538 83.7608,4.13461538 C87.1784,4.13461538 88.8872,5.40384615 88.8872,7.92307692 L88.8872,15.6346154 L87.1976,15.6346154 L86.1608,14.5961538 C85.1624,15.2884615 84.068,15.6346154 82.8584,15.6346154 C80.0552,15.6538462 78.6536,14.4615385 78.6536,12.0576923 Z M83.6456,10.6153846 C82.244,10.6153846 81.5528,11.0961538 81.5528,12.0384615 C81.5528,13.0576923 82.1288,13.5769231 83.3,13.5769231 C84.26,13.5769231 85.1624,13.2692308 85.988,12.6730769 L85.988,10.8269231 C85.2584,10.6730769 84.4712,10.6153846 83.6456,10.6153846 Z M91.6136,15.6538462 L91.6136,4.15384615 L93.86,4.15384615 L94.2056,5.82692308 C95.2424,4.71153846 96.4712,4.15384615 97.9112,4.15384615 C99.3512,4.15384615 100.3496,4.67307692 100.868,5.73076923 C102.0392,4.67307692 103.268,4.15384615 104.5544,4.15384615 C107.1848,4.15384615 108.5096,5.61538462 108.5096,8.51923077 L108.5096,15.6538462 L105.6104,15.6538462 L105.6104,8.42307692 C105.6104,7.15384615 105.0344,6.5 103.8824,6.5 C103.0184,6.5 102.1928,6.88461538 101.4056,7.65384615 L101.4056,15.6538462 L98.5064,15.6538462 L98.5064,8.44230769 C98.5064,7.13461538 97.9688,6.5 96.9128,6.5 C96.068,6.5 95.2616,6.88461538 94.5128,7.65384615 L94.5128,15.6538462 L91.6136,15.6538462 Z M111.236,15.0961538 L111.236,12.6923077 C112.5032,13.2115385 113.9816,13.4615385 115.652,13.4615385 C116.9,13.4615385 117.5144,13.0576923 117.5144,12.25 C117.5144,11.4807692 117.092,11.0961538 116.2664,11.0961538 L114.1928,11.0961538 C111.8504,11.0961538 110.6984,9.94230769 110.6984,7.65384615 C110.6984,5.25 112.4072,4.03846154 115.8056,4.03846154 C117.2456,4.03846154 118.6088,4.25 119.876,4.69230769 L119.876,7.09615385 C118.6088,6.57692308 117.2072,6.32692308 115.7288,6.32692308 C114.1544,6.32692308 113.3864,6.73076923 113.3864,7.53846154 C113.3864,8.30769231 113.8472,8.69230769 114.7496,8.69230769 L116.612,8.69230769 C119.1656,8.69230769 120.4328,9.84615385 120.4328,12.1346154 C120.4328,14.5384615 118.8008,15.75 115.556,15.75 C113.9432,15.75 112.5224,15.5384615 111.236,15.0961538 Z" id="Shape-Copy-4" fill="#2D93FF" sketch:type="MSShapeGroup"></path>
    </g>
</svg>