<?xml version="1.0" encoding="utf-8"?>
<!-- Generator: Adobe Illustrator 18.0.0, SVG Export Plug-In . SVG Version: 6.00 Build 0)  -->
<!DOCTYPE svg PUBLIC "-//W3C//DTD SVG 1.1//EN" "http://www.w3.org/Graphics/SVG/1.1/DTD/svg11.dtd">
<svg version="1.1" id="Layer_1" xmlns:sketch="http://www.bohemiancoding.com/sketch/ns"
	 xmlns="http://www.w3.org/2000/svg" xmlns:xlink="http://www.w3.org/1999/xlink" x="0px" y="0px" viewBox="0 0 640 480"
	 enable-background="new 0 0 640 480" xml:space="preserve">
<title>noun_home_50291</title>
<desc>Created with Sketch.</desc>
<path fill="#FFFFFF" d="M486,243.9c0,23.2-13.9,44.2-35.6,52.9c-2.6,1.1-5.6,2.2-8.6,2.6c-1.9,0.4-3.4,2.2-3.4,4.5v62.2l-47.6-54.4
	l-8.2-9.4c-0.8-1.1-2.2-1.5-3.4-1.5h-132c-31.5,0-57-25.5-57-57V149c0-31.5,25.5-57,57-57H429c31.5,0,57,25.5,57,57V243.9z
	 M428.6,73.6H247.1c-41.6,0-75.4,33.8-75.4,75.4v94.5c0,41.6,33.8,75.4,75.4,75.4h126l59.2,67.9l16.1,18.4c0.8,1.1,2.2,1.5,3.4,1.5
	c0.4,0,1.1,0,1.5-0.4c1.9-0.8,3-2.2,3-4.1v-88.5c28.5-11.2,47.6-39,47.6-70.1V149C504,107.4,470.2,73.6,428.6,73.6z"/>
<path fill="#FFFFFF" d="M158.6,187.2h-25.5c-1.1,0-2.6,0.4-3.4,1.5l-8.3,9.4l-31.9,38.2v-46.1c0-2.2-1.5-3.8-3.4-4.5
	c-3-0.8-6-1.5-8.6-2.6c-21.8-9-35.6-29.6-35.6-52.9V87.9c0-31.5,25.5-57,57-57h132.4c21.8,0,41.2,12,51,31.1h19.9
	c-1.9-4.5-3.8-9-6.4-13.5c-13.9-22.5-37.9-36-64.1-36H99.4C57.8,12.5,24,46.2,24,87.9v42.4c0,31.1,19.1,58.9,47.6,70.1v73.1
	c0,1.9,1.1,3.4,3,4.1c0.4,0.4,1.1,0.4,1.5,0.4c1.1,0,2.6-0.4,3.4-1.5l16.1-18.4l0,0l43.9-52.1h19.1L158.6,187.2L158.6,187.2z"/>
</svg>
