<?xml version="1.0" encoding="UTF-8" standalone="no"?>
<svg width="37px" height="42px" viewBox="0 0 37 42" version="1.1" xmlns="http://www.w3.org/2000/svg" xmlns:xlink="http://www.w3.org/1999/xlink" xmlns:sketch="http://www.bohemiancoding.com/sketch/ns">
    <!-- Generator: Sketch 3.3.2 (12043) - http://www.bohemiancoding.com/sketch -->
    <title>Imported Layers</title>
    <desc>Created with Sketch.</desc>
    <defs></defs>
    <g id="Page-1" stroke="none" stroke-width="1" fill="none" fill-rule="evenodd" sketch:type="MSPage">
        <g id="Imported-Layers" sketch:type="MSLayerGroup" transform="translate(2.000000, 2.000000)" stroke="#FFFFFF" stroke-width="3">
            <path d="M28.5,4.625 L31.125,4.625 C31.9537525,4.625 32.625,4.92199993 32.625,5.75 L32.625,35.75 C32.625,36.5779972 31.9537525,37.625 31.125,37.625 L1.875,37.625 C1.04699993,37.625 0.375,36.5787525 0.375,35.75 L0.375,5.75 C0.375,4.92199993 1.04699993,4.625 1.875,4.625 L4.5,4.625 L12.375,4.625 C12.375,4.625 12.75,7.625 16.125,7.625 C19.5,7.625 19.875,4.625 19.875,4.625 L28.5,4.625 L28.5,4.625 Z" id="Stroke-1" sketch:type="MSShapeGroup"></path>
            <path d="M0.75,4.625 L1.875,1.4375 C1.875,0.609499925 2.54699993,0.125 3.375,0.125 L29.625,0.125 C30.4537525,0.125 31.125,0.609499925 31.125,1.4375 L32.25,4.71875" id="Stroke-3" sketch:type="MSShapeGroup"></path>
            <path d="M16.125,13.25 L16.125,26" id="Stroke-4" stroke-linecap="round" sketch:type="MSShapeGroup"></path>
            <path d="M19.125,23.0720005 L16.0057497,26.1920004 L12.75,22.9370002" id="Stroke-5" stroke-linecap="round" sketch:type="MSShapeGroup"></path>
        </g>
    </g>
</svg>