<?xml version="1.0" encoding="UTF-8" standalone="no"?>
<svg width="22px" height="24px" viewBox="0 0 22 24" version="1.1" xmlns="http://www.w3.org/2000/svg" xmlns:xlink="http://www.w3.org/1999/xlink" xmlns:sketch="http://www.bohemiancoding.com/sketch/ns">
    <!-- Generator: Sketch 3.3.3 (12081) - http://www.bohemiancoding.com/sketch -->
    <title>nav-contacts</title>
    <desc>Created with Sketch.</desc>
    <defs></defs>
    <g id="Page-1" stroke="none" stroke-width="1" fill="none" fill-rule="evenodd" sketch:type="MSPage">
        <g id="iPhone-6" sketch:type="MSArtboardGroup" transform="translate(-176.000000, -634.000000)" fill="#979797">
            <g id="nav-contacts" sketch:type="MSLayerGroup" transform="translate(176.500000, 634.000000)">
                <path d="M19.5177931,23.5862069 L3.65462069,23.5862069 C2.79310345,23.5862069 2.06896552,22.862069 2.06896552,22.0005517 L2.06896552,18.8971034 C2.06896552,18.6206897 2.3097931,18.3798621 2.5862069,18.3798621 C2.86262069,18.3798621 3.10344828,18.6206897 3.10344828,18.8971034 L3.10344828,22.0005517 C3.10344828,22.3108966 3.34427586,22.5517241 3.65462069,22.5517241 L19.5161379,22.5517241 C19.8264828,22.5517241 20.0673103,22.3108966 20.0673103,22.0005517 L20.0673103,1.62124138 C20.0673103,1.31089655 19.8264828,1.07006897 19.5161379,1.07006897 L3.65462069,1.07006897 C3.34427586,1.07006897 3.10344828,1.31089655 3.10344828,1.62124138 L3.10344828,4.72468966 C3.10344828,5.00110345 2.86262069,5.24193103 2.5862069,5.24193103 C2.3097931,5.24193103 2.06896552,5.00110345 2.06896552,4.72468966 L2.06896552,1.62124138 C2.06896552,0.759724138 2.79310345,0.0355862069 3.65462069,0.0355862069 L19.5161379,0.0355862069 C20.3776552,0.0355862069 21.1017931,0.759724138 21.1017931,1.62124138 L21.1017931,22.0005517 C21.1034483,22.862069 20.3793103,23.5862069 19.5177931,23.5862069 L19.5177931,23.5862069 Z" id="Fill-1" sketch:type="MSShapeGroup"></path>
                <path d="M11.5862069,13.0005517 C9.75806897,13.0005517 8.24193103,11.5183448 8.24193103,9.65627586 C8.24193103,7.7942069 9.72413793,6.312 11.5862069,6.312 C13.4143448,6.312 14.9304828,7.7942069 14.9304828,9.65627586 C14.9304828,11.5183448 13.4143448,13.0005517 11.5862069,13.0005517 L11.5862069,13.0005517 Z M11.5862069,7.37875862 C10.3108966,7.37875862 9.27641379,8.41324138 9.27641379,9.68855172 C9.27641379,10.9638621 10.3108966,11.9983448 11.5862069,11.9983448 C12.8615172,11.9983448 13.896,10.9638621 13.896,9.68855172 C13.896,8.41158621 12.8615172,7.37875862 11.5862069,7.37875862 L11.5862069,7.37875862 Z" id="Fill-2" sketch:type="MSShapeGroup"></path>
                <path d="M16.4143448,16.5856552 L6.75806897,16.5856552 L6.75806897,16.0684138 C6.75806897,13.8264828 8.93048276,12.033931 11.5862069,12.033931 C14.241931,12.033931 16.4143448,13.862069 16.4143448,16.0684138 L16.4143448,16.5856552 Z M7.82813793,15.5511724 L15.3103448,15.5511724 C15,14.1368276 13.4482759,13.0684138 11.5522759,13.0684138 C9.72413793,13.0684138 8.13848276,14.1724138 7.82813793,15.5511724 L7.82813793,15.5511724 Z" id="Fill-3" sketch:type="MSShapeGroup"></path>
                <path d="M4.44827586,7.5177931 L0.517241379,7.5177931 C0.240827586,7.5177931 0,7.27696552 0,7.00055172 C0,6.72413793 0.240827586,6.48331034 0.517241379,6.48331034 L4.44827586,6.48331034 C4.72468966,6.48331034 4.96551724,6.72413793 4.96551724,7.00055172 C4.96551724,7.27696552 4.72468966,7.5177931 4.44827586,7.5177931 L4.44827586,7.5177931 Z" id="Fill-4" sketch:type="MSShapeGroup"></path>
                <path d="M4.44827586,10.7246897 L0.517241379,10.7246897 C0.240827586,10.7246897 0,10.4838621 0,10.2074483 C0,9.93103448 0.240827586,9.6902069 0.517241379,9.6902069 L4.44827586,9.6902069 C4.72468966,9.6902069 4.96551724,9.93103448 4.96551724,10.2074483 C4.96551724,10.4838621 4.72468966,10.7246897 4.44827586,10.7246897 L4.44827586,10.7246897 Z" id="Fill-5" sketch:type="MSShapeGroup"></path>
                <path d="M4.44827586,13.896 L0.517241379,13.896 C0.240827586,13.896 0,13.6551724 0,13.3787586 C0,13.1023448 0.240827586,12.8615172 0.517241379,12.8615172 L4.44827586,12.8615172 C4.72468966,12.8615172 4.96551724,13.1023448 4.96551724,13.3787586 C4.96551724,13.6551724 4.72468966,13.896 4.44827586,13.896 L4.44827586,13.896 Z" id="Fill-6" sketch:type="MSShapeGroup"></path>
                <path d="M4.44827586,17.1028966 L0.517241379,17.1028966 C0.240827586,17.1028966 0,16.862069 0,16.5856552 C0,16.3092414 0.240827586,16.0684138 0.517241379,16.0684138 L4.44827586,16.0684138 C4.72468966,16.0684138 4.96551724,16.3092414 4.96551724,16.5856552 C4.96551724,16.862069 4.72468966,17.1028966 4.44827586,17.1028966 L4.44827586,17.1028966 Z" id="Fill-7" sketch:type="MSShapeGroup"></path>
            </g>
        </g>
    </g>
</svg>