<?xml version="1.0" encoding="UTF-8" standalone="no"?>
<svg width="22px" height="22px" viewBox="0 0 22 22" version="1.1" xmlns="http://www.w3.org/2000/svg" xmlns:xlink="http://www.w3.org/1999/xlink" xmlns:sketch="http://www.bohemiancoding.com/sketch/ns">
    <!-- Generator: Sketch 3.3.2 (12043) - http://www.bohemiancoding.com/sketch -->
    <title>Fill 1</title>
    <desc>Created with Sketch.</desc>
    <defs></defs>
    <g id="Page-1" stroke="none" stroke-width="1" fill="none" fill-rule="evenodd" sketch:type="MSPage">
        <g id="iPhone-6" sketch:type="MSArtboardGroup" transform="translate(-337.000000, -30.000000)" stroke="#FFFFFF" fill="#FFFFFF">
            <g id="add-chat" sketch:type="MSLayerGroup" transform="translate(337.000000, 30.000000)">
                <path d="M10.8491258,12.5002898 L10.8491258,21.8074537 C10.8491258,21.8904706 11.2251258,21.9583279 11.6851258,21.9583279 C12.1451258,21.9583279 12.5211258,21.8904706 12.5211258,21.8074537 L12.5211258,12.5002898 L21.8282898,12.5002898 C21.9113067,12.5002898 21.9791639,12.1242898 21.9791639,11.6642898 C21.9791639,11.2042898 21.9113067,10.8282898 21.8282898,10.8282898 L12.5211258,10.8282898 L12.5211258,0.150874171 C12.5211258,0.0678572825 12.1451258,0 11.6851258,0 C11.2251258,0 10.8491258,0.0678572825 10.8491258,0.150874171 L10.8491258,10.8282898 L0.171710236,10.8282898 C0.0886933481,10.8282898 0.0208360656,11.2042898 0.0208360656,11.6642898 C0.0208360656,12.1242898 0.0886933481,12.5002898 0.171710236,12.5002898 L10.8491258,12.5002898 Z" id="Fill-1" sketch:type="MSShapeGroup"></path>
            </g>
        </g>
    </g>
</svg>