<?xml version="1.0" encoding="UTF-8" standalone="no"?>
<svg width="58px" height="24px" viewBox="0 0 58 24" version="1.1" xmlns="http://www.w3.org/2000/svg" xmlns:xlink="http://www.w3.org/1999/xlink" xmlns:sketch="http://www.bohemiancoding.com/sketch/ns">
    <!-- Generator: Sketch 3.3.3 (12081) - http://www.bohemiancoding.com/sketch -->
    <title>Imported Layers + Left</title>
    <desc>Created with Sketch.</desc>
    <defs></defs>
    <g id="Page-1" stroke="none" stroke-width="1" fill="none" fill-rule="evenodd" sketch:type="MSPage">
        <g id="iPhone-6" sketch:type="MSArtboardGroup" transform="translate(-162.000000, -112.000000)" fill="#FFFFFF">
            <g id="Imported-Layers-+-Left" sketch:type="MSLayerGroup" transform="translate(163.000000, 113.000000)">
                <path d="M1.73243373,5.07608032 L1.09628916,1.94660241 L0.316305221,2.10528514 L1.26875502,6.78518876 L5.86595984,5.49452209 L5.65179116,4.72832129 L2.29860241,5.66981526 C4.14978313,2.64918876 7.42875502,0.795180723 11,0.795180723 C16.6270522,0.795180723 21.2048193,5.37294779 21.2048193,11 C21.2048193,16.6270522 16.6270522,21.2048193 11,21.2048193 C5.37294779,21.2048193 0.795180723,16.6270522 0.795180723,11 L0,11 C0,17.065992 4.93400803,22 11,22 C17.065992,22 22,17.065992 22,11 C22,4.93400803 17.065992,0 11,0 C7.22165462,0 3.74689157,1.925751 1.73243373,5.07608032 Z" id="Imported-Layers" stroke="#FFFFFF" sketch:type="MSShapeGroup"></path>
                <text id="Left" sketch:type="MSTextLayer" font-family="Open Sans" font-size="14" font-weight="normal">
                    <tspan x="32" y="17">Left</tspan>
                </text>
            </g>
        </g>
    </g>
</svg>