<?xml version="1.0" encoding="UTF-8" standalone="no"?>
<svg width="6px" height="10px" viewBox="0 0 6 10" version="1.1" xmlns="http://www.w3.org/2000/svg" xmlns:xlink="http://www.w3.org/1999/xlink">
    <!-- Generator: Sketch 3.8.3 (29802) - http://www.bohemiancoding.com/sketch -->
    <title>Combined Shape</title>
    <desc>Created with Sketch.</desc>
    <defs></defs>
    <g id="Page-1" stroke="none" stroke-width="1" fill="none" fill-rule="evenodd">
        <g id="iPhone-6" transform="translate(-77.000000, -614.000000)" fill="#FFFFFF">
            <path d="M80,619.075158 C78.7856842,619.075158 77.7894737,618.078947 77.7894737,616.864632 C77.7894737,615.649579 78.7856842,614.654105 80,614.654105 C81.2143158,614.654105 82.2105263,615.649579 82.2105263,616.864632 C82.2105263,618.078947 81.2143158,619.075158 80,619.075158 L80,619.075158 L80,619.075158 Z M80,615.759368 C79.3928421,615.759368 78.8947368,616.256737 78.8947368,616.864632 C78.8947368,617.471789 79.3928421,617.969895 80,617.969895 C80.6071579,617.969895 81.1052632,617.471789 81.1052632,616.864632 C81.1052632,616.256737 80.6071579,615.759368 80,615.759368 Z M79.4473684,620.289474 L80.5526316,620.289474 L80.5526316,623.605263 L79.4473684,623.605263 L79.4473684,620.289474 Z" id="Combined-Shape"></path>
        </g>
    </g>
</svg>