<?xml version="1.0" encoding="UTF-8" standalone="no"?>
<svg width="14px" height="28px" viewBox="0 0 14 28" version="1.1" xmlns="http://www.w3.org/2000/svg" xmlns:xlink="http://www.w3.org/1999/xlink" xmlns:sketch="http://www.bohemiancoding.com/sketch/ns">
    <!-- Generator: Sketch 3.3.3 (12081) - http://www.bohemiancoding.com/sketch -->
    <title>Fill-2</title>
    <desc>Created with Sketch.</desc>
    <defs></defs>
    <g id="Page-1" stroke="none" stroke-width="1" fill="none" fill-rule="evenodd" sketch:type="MSPage">
        <path d="M7,14.2254737 C3.35705263,14.2254737 0.368421052,11.2368421 0.368421052,7.59389474 C0.368421052,3.94873685 3.35705263,0.962315789 7,0.962315789 C10.6429474,0.962315789 13.631579,3.94873685 13.631579,7.59389474 C13.631579,11.2368421 10.6429474,14.2254737 7,14.2254737 L7,14.2254737 L7,14.2254737 Z M7,4.27810526 C5.17852633,4.27810526 3.68421052,5.77021052 3.68421052,7.59389474 C3.68421052,9.41536841 5.17852633,10.9096842 7,10.9096842 C8.82147367,10.9096842 10.3157895,9.41536841 10.3157895,7.59389474 C10.3157895,5.77021052 8.82147367,4.27810526 7,4.27810526 Z M5.34210526,17.868421 L8.65789474,17.868421 L8.65789474,27.8157895 L5.34210526,27.8157895 L5.34210526,17.868421 Z" id="Fill-2" fill="#6CADF3" sketch:type="MSShapeGroup"></path>
    </g>
</svg>