<?xml version="1.0" encoding="UTF-8" standalone="no"?>
<svg width="50px" height="49px" viewBox="0 0 50 49" version="1.1" xmlns="http://www.w3.org/2000/svg" xmlns:xlink="http://www.w3.org/1999/xlink" xmlns:sketch="http://www.bohemiancoding.com/sketch/ns">
    <!-- Generator: Sketch 3.3.3 (12081) - http://www.bohemiancoding.com/sketch -->
    <title>menu-chat copy</title>
    <desc>Created with Sketch.</desc>
    <defs></defs>
    <g id="Page-1" stroke="none" stroke-width="1" fill="none" fill-rule="evenodd" sketch:type="MSPage">
        <g id="menu-chat-copy" sketch:type="MSLayerGroup" transform="translate(1.000000, 1.000000)" stroke="#979797">
            <path d="M36.8870432,0.27076412 L11.1594684,0.27076412 C5.25913621,0.27076412 0.475083056,5.05481728 0.475083056,10.9551495 L0.475083056,24.3504983 C0.475083056,30.2508306 5.25913621,35.0348837 11.1594684,35.0348837 L29.0199336,35.0348837 L37.4186047,44.6561462 L39.7043189,47.2607973 C39.8106312,47.4202658 40.0232558,47.4734219 40.1827243,47.4734219 C40.2358804,47.4734219 40.3421927,47.4734219 40.3953488,47.4202658 C40.6611296,47.3139535 40.820598,47.1013289 40.820598,46.8355482 L40.820598,34.2906977 C44.8604651,32.6960133 47.5714286,28.7624585 47.5714286,24.3504983 L47.5714286,10.9551495 C47.5714286,5.05481728 42.7873754,0.27076412 36.8870432,0.27076412 L36.8870432,0.27076412 Z" id="Shape" sketch:type="MSShapeGroup"></path>
        </g>
    </g>
</svg>