<?xml version="1.0" encoding="UTF-8" standalone="no"?>
<svg width="40px" height="40px" viewBox="0 0 40 40" version="1.1" xmlns="http://www.w3.org/2000/svg" xmlns:xlink="http://www.w3.org/1999/xlink" xmlns:sketch="http://www.bohemiancoding.com/sketch/ns">
    <!-- Generator: Sketch 3.5.1 (25234) - http://www.bohemiancoding.com/sketch -->
    <title>Group 7</title>
    <desc>Created with Sketch.</desc>
    <defs></defs>
    <g id="Page-1" stroke="none" stroke-width="1" fill="none" fill-rule="evenodd" sketch:type="MSPage">
        <g id="iPhone-6" sketch:type="MSArtboardGroup" transform="translate(-19.000000, -164.000000)">
            <g id="Group-7" sketch:type="MSLayerGroup" transform="translate(19.000000, 164.000000)">
                <circle id="Oval-533-Copy" fill="#61406C" sketch:type="MSShapeGroup" cx="20" cy="20" r="20"></circle>
                <g id="1f374" transform="translate(8.000000, 8.000000)" sketch:type="MSShapeGroup">
                    <g id="Group">
                        <path d="M2.02465574,0.422163934 C1.31921311,1.12563934 -0.0456393443,5.60537705 5.74072131,11.4 C7.5895082,13.2542951 8.95436066,11.8882623 10.1118689,13.0485246 C11.2646557,14.2064262 20.451541,23.4118033 20.451541,23.4118033 C20.451541,23.4118033 22.7106885,22.6725246 23.0289836,20.7643279 L2.5384918,0.234491803 C2.5384918,0.234491803 2.37718033,0.065704918 2.02229508,0.422163934" id="Shape" fill="#94989B"></path>
                        <path d="M23.9287869,3.55672131 C24.205377,3.04209836 23.5782295,3.19790164 23.5782295,3.19790164 C23.5782295,3.19790164 19.3971148,7.21180328 18.8175738,6.72 C18.2372459,6.22819672 22.9113443,2.38032787 22.3581639,1.66308197 C21.8462951,0.99304918 17.7391475,5.77613115 17.2457705,5.19265574 C16.7571148,4.60918033 20.7627541,0.424131148 20.7627541,0.424131148 C20.7627541,0.424131148 20.9150164,-0.206163934 20.4039344,0.0700327869 C14.104918,3.456 13.3022951,6.61377049 13.3022951,6.61377049 C13.3022951,6.61377049 13.0855082,7.22872131 13.5560656,7.704 C13.6020984,7.74570492 2.06754098,19.2161311 0.521311475,20.7662951 C-0.230163934,21.5169836 2.52708197,24.229377 3.27383607,23.4786885 C4.81809836,21.9300984 16.2653115,10.3770492 16.3085902,10.4163934 C16.7834754,10.8908852 17.3968525,10.672918 17.3968525,10.672918 C17.3968525,10.672918 20.5483279,9.86832787 23.9287869,3.55554098" id="Shape" fill="#B2C1C0"></path>
                    </g>
                </g>
            </g>
        </g>
    </g>
</svg>