<?xml version="1.0" encoding="UTF-8" standalone="no"?>
<svg width="15px" height="19px" viewBox="0 0 15 19" version="1.1" xmlns="http://www.w3.org/2000/svg" xmlns:xlink="http://www.w3.org/1999/xlink" xmlns:sketch="http://www.bohemiancoding.com/sketch/ns">
    <!-- Generator: Sketch 3.5.1 (25234) - http://www.bohemiancoding.com/sketch -->
    <title>Page 1 Copy 13</title>
    <desc>Created with Sketch.</desc>
    <defs></defs>
    <g id="Page-1" stroke="none" stroke-width="1" fill="none" fill-rule="evenodd" sketch:type="MSPage">
        <g id="Group-6" sketch:type="MSLayerGroup" transform="translate(0.000000, -5.000000)" fill="#979797">
            <g id="Page-1-Copy-13" transform="translate(0.000000, 5.000000)" sketch:type="MSShapeGroup">
                <path d="M13.115814,19 L2.12744186,19 C0.975813953,19 0,18.0145423 0,16.8950335 L0,3.10496654 C0,1.98364615 1.01209302,1 2.16186047,1 L13.1502326,1 C14.2316279,1 15,1.88265486 15,3.10496654 L15,16.8950335 C15,18.1173451 14.1967442,19 13.115814,19 L13.115814,19 Z M2.16186047,2.35681578 C1.77860465,2.35681578 1.39534884,2.72998541 1.39534884,3.10315503 L1.39534884,16.893222 C1.39534884,17.2663916 1.74418605,17.6395612 2.12744186,17.6395612 L13.115814,17.6395612 C13.4990698,17.6395612 13.6046512,17.130076 13.6046512,16.893222 L13.6046512,3.10315503 C13.6046512,3.03612942 13.6046512,2.35681578 13.1502326,2.35681578 L2.16186047,2.35681578 Z" id="Fill-1"></path>
                <path d="M3.83638977,4 L3.80338025,4 C3.36756542,4 3,3.63074165 3,3.19291956 L3,0.807080439 C3,0.369258346 3.36756542,0 3.80338025,0 L3.83638977,0 C4.2722046,0 4.63977002,0.369258346 4.63977002,0.807080439 L4.63977002,3.19291956 C4.63977002,3.63074165 4.2722046,4 3.83638977,4 Z M7.51650476,4 L7.48349524,4 C7.04768041,4 6.68011499,3.63074165 6.68011499,3.19291956 L6.68011499,0.807080439 C6.68011499,0.369258346 7.04768041,0 7.48349524,0 L7.51650476,0 C7.95231959,0 8.31988501,0.369258346 8.31988501,0.807080439 L8.31988501,3.19291956 C8.31988501,3.63074165 7.95231959,4 7.51650476,4 Z M11.1966197,4 L11.1636102,4 C10.7277954,4 10.36023,3.63074165 10.36023,3.19291956 L10.36023,0.807080439 C10.36023,0.369258346 10.7277954,0 11.1636102,0 L11.1966197,0 C11.6324346,0 12,0.369258346 12,0.807080439 L12,3.19291956 C12,3.63074165 11.6324346,4 11.1966197,4 Z" id="Fill-2"></path>
                <path d="M11.3333333,7.41935484 L3.66666667,7.41935484 C3.30044444,7.41935484 3,7.09952688 3,6.70967742 C3,6.31982796 3.30044444,6 3.66666667,6 L11.3333333,6 C11.6995556,6 12,6.31982796 12,6.70967742 C12,7.09952688 11.6995556,7.41935484 11.3333333,7.41935484 Z M11.3333333,10.6129032 L3.66666667,10.6129032 C3.30044444,10.6129032 3,10.2930753 3,9.90322581 C3,9.51337634 3.30044444,9.19354839 3.66666667,9.19354839 L11.3333333,9.19354839 C11.6995556,9.19354839 12,9.51337634 12,9.90322581 C12,10.2930753 11.6995556,10.6129032 11.3333333,10.6129032 Z M11.3333333,13.8064516 L3.66666667,13.8064516 C3.30044444,13.8064516 3,13.4866237 3,13.0967742 C3,12.7069247 3.30044444,12.3870968 3.66666667,12.3870968 L11.3333333,12.3870968 C11.6995556,12.3870968 12,12.7069247 12,13.0967742 C12,13.4866237 11.6995556,13.8064516 11.3333333,13.8064516 Z M7.66666667,17 L3.66666667,17 C3.30044444,17 3,16.680172 3,16.2903226 C3,15.9004731 3.30044444,15.5806452 3.66666667,15.5806452 L7.66666667,15.5806452 C8.03288889,15.5806452 8.33333333,15.9004731 8.33333333,16.2903226 C8.33333333,16.680172 8.03288889,17 7.66666667,17 Z" id="Fill-5"></path>
            </g>
        </g>
    </g>
</svg>