<?xml version="1.0" encoding="UTF-8" standalone="no"?>
<svg width="20px" height="22px" viewBox="0 0 20 22" version="1.1" xmlns="http://www.w3.org/2000/svg" xmlns:xlink="http://www.w3.org/1999/xlink">
    <!-- Generator: Sketch 3.6.1 (26313) - http://www.bohemiancoding.com/sketch -->
    <title>1f5d3</title>
    <desc>Created with Sketch.</desc>
    <defs></defs>
    <g id="Page-1" stroke="none" stroke-width="1" fill="none" fill-rule="evenodd">
        <g id="smart-event-alt">
            <g id="Group-5">
                <g id="Page-1">
                    <g id="iPhone-6-Copy-10">
                        <g id="gram-panel">
                            <g id="Group-5">
                                <g id="1f5d3">
                                    <g id="Group">
                                        <path d="M20,20.4464286 C20,21.1860714 19.3832143,21.7857143 18.6210714,21.7857143 L2.41035714,21.7857143 C1.64857143,21.7857143 1.03142857,21.1860714 1.03142857,20.4464286 L1.03142857,4.59642857 C1.03142857,3.85678571 1.64857143,3.25714286 2.41035714,3.25714286 L18.6210714,3.25714286 C19.3835714,3.25714286 20,3.85678571 20,4.59642857 L20,20.4464286" id="Shape" fill="#93A2AA"></path>
                                        <path d="M18.9685714,4.59642857 C18.9685714,3.85678571 18.35,3.25714286 17.5885714,3.25714286 L1.37928571,3.25714286 C0.6175,3.25678571 0,3.85642857 0,4.59642857 L0,12.1882143 L18.9685714,12.1882143 L18.9685714,4.59642857 L18.9685714,4.59642857 L18.9685714,4.59642857 Z" id="Shape" fill="#ED4C5C"></path>
                                        <path d="M0,12.1882143 L0,20.4464286 C0,21.1860714 0.6175,21.7857143 1.37928571,21.7857143 L17.5885714,21.7857143 C18.35,21.7857143 18.9685714,21.1860714 18.9685714,20.4464286 L18.9685714,12.1882143 L0,12.1882143 L0,12.1882143 L0,12.1882143 Z" id="Shape" fill="#D9E3E8"></path>
                                        <g transform="translate(2.142857, 0.357143)" fill="#3E4347">
                                            <ellipse id="Oval" cx="1.09642857" cy="5.35642857" rx="1.03464286" ry="1.00464286"></ellipse>
                                            <ellipse id="Oval" cx="5.27607143" cy="5.35642857" rx="1.03464286" ry="1.00464286"></ellipse>
                                            <ellipse id="Oval" cx="9.40714286" cy="5.35642857" rx="1.03464286" ry="1.00464286"></ellipse>
                                            <ellipse id="Oval" cx="13.535" cy="5.35642857" rx="1.03428571" ry="1.00464286"></ellipse>
                                            <path d="M10.9167857,0.930357143 C10.6939286,0.4925 10.3178571,0.0214285714 9.63928571,0.000357142857 C8.985,-0.0203571429 8.97642857,0.7475 9.60785714,0.792142857 C9.60892857,0.792857143 9.61035714,0.792857143 9.61214286,0.793214286 C9.59428571,0.795714286 9.75821429,0.903928571 9.70785714,0.851785714 C9.85928571,1.00535714 9.93714286,1.16142857 10.0117857,1.335 C10.2275,1.8375 10.2878571,2.37285714 10.2921429,2.89928571 L11.3239286,2.89928571 C11.3189286,2.23964286 11.2307143,1.55 10.9167857,0.930357143 M9.62178571,0.793214286 C9.6275,0.794642857 9.63142857,0.795714286 9.63892857,0.797142857 C9.63142857,0.795714286 9.62571429,0.794285714 9.62,0.793214286 L9.62178571,0.793214286" id="Shape"></path>
                                            <path d="M6.78571429,0.930357143 C6.56392857,0.4925 6.18714286,0.0214285714 5.50892857,0.000357142857 C4.85357143,-0.0203571429 4.84571429,0.7475 5.47678571,0.792142857 C5.4775,0.792857143 5.48,0.792857143 5.48071429,0.793214286 C5.46321429,0.795714286 5.62714286,0.903928571 5.57642857,0.851785714 C5.72785714,1.00535714 5.80607143,1.16142857 5.88071429,1.335 C6.09642857,1.8375 6.15642857,2.37285714 6.15964286,2.89928571 L7.19285714,2.89928571 C7.18821429,2.23964286 7.09892857,1.55 6.78571429,0.930357143 M5.49071429,0.793214286 C5.49535714,0.794642857 5.5,0.795714286 5.50714286,0.797142857 C5.5,0.795714286 5.49428571,0.794285714 5.48964286,0.793214286 L5.49071429,0.793214286" id="Shape"></path>
                                            <path d="M2.65892857,0.930357143 C2.43714286,0.4925 2.05892857,0.0214285714 1.38071429,0.000357142857 C0.726428571,-0.0203571429 0.718571429,0.7475 1.34928571,0.792142857 C1.35107143,0.792857143 1.35178571,0.792857143 1.35392857,0.793214286 C1.33642857,0.795714286 1.50035714,0.903928571 1.44892857,0.851785714 C1.60035714,1.00535714 1.67857143,1.16142857 1.75392857,1.335 C1.96928571,1.8375 2.02928571,2.37285714 2.03285714,2.89928571 L3.06535714,2.89928571 C3.06,2.23964286 2.97178571,1.55 2.65892857,0.930357143 M1.36357143,0.793214286 C1.36821429,0.794642857 1.37321429,0.795714286 1.38,0.797142857 C1.37321429,0.795714286 1.36714286,0.794285714 1.36178571,0.793214286 L1.36357143,0.793214286" id="Shape"></path>
                                            <path d="M15.0464286,0.930357143 C14.8246429,0.4925 14.4464286,0.0214285714 13.7689286,0.000357142857 C13.1142857,-0.0203571429 13.1060714,0.7475 13.7378571,0.792142857 C13.7385714,0.792857143 13.7403571,0.792857143 13.7407143,0.793214286 C13.7228571,0.795714286 13.8875,0.903928571 13.8371429,0.851785714 C13.9878571,1.00535714 14.0667857,1.16142857 14.1410714,1.335 C14.3567857,1.8375 14.4167857,2.37285714 14.4203571,2.89928571 L15.4528571,2.89928571 C15.4485714,2.23964286 15.36,1.55 15.0464286,0.930357143 M13.7507143,0.793214286 C13.7553571,0.794642857 13.76,0.795714286 13.7682143,0.797142857 C13.7603571,0.795714286 13.755,0.794285714 13.7492857,0.793214286 L13.7507143,0.793214286" id="Shape"></path>
                                        </g>
                                        <g id="Shape" transform="translate(1.428571, 0.000000)" fill="#94989B">
                                            <path d="M10.1214286,5.36071429 C10.0025,5.35714286 10.2389286,5.38357143 10.1225,5.35821429 C10.2428571,5.38428571 10.1510714,5.36607143 10.1139286,5.34892857 C10.2425,5.40892857 9.99321429,5.24107143 10.0535714,5.30321429 C9.9025,5.14928571 9.82464286,4.99392857 9.75,4.81964286 C9.53428571,4.31714286 9.47428571,3.78178571 9.47035714,3.25535714 C9.46678571,2.72678571 9.54428571,2.19714286 9.75,1.69107143 C9.81821429,1.52392857 9.89607143,1.39071429 10.025,1.23928571 C10.0432143,1.21892857 10.0703571,1.19321429 10.1553571,1.13607143 C10.0639286,1.19642857 10.1546429,1.14357143 10.1796429,1.13357143 C10.1110714,1.15464286 10.1035714,1.15857143 10.1560714,1.14571429 C10.0746429,1.15142857 10.0639286,1.1525 10.1214286,1.15035714 C10.785,1.12964286 10.7871429,0.335357143 10.1214286,0.356071429 C9.435,0.377142857 9.07821429,0.849285714 8.84428571,1.28607143 C8.51785714,1.89642857 8.44178571,2.6025 8.4375,3.25535714 C8.43321429,3.91285714 8.53214286,4.60857143 8.84428571,5.225 C9.06642857,5.66285714 9.44357143,6.13428571 10.1214286,6.15535714 C10.7871429,6.17571429 10.785,5.38142857 10.1214286,5.36071429"></path>
                                            <path d="M5.99071429,5.36071429 C5.87071429,5.35714286 6.10785714,5.38357143 5.99107143,5.35821429 C6.11142857,5.38428571 6.02,5.36607143 5.98321429,5.34892857 C6.11035714,5.40892857 5.86107143,5.24107143 5.9225,5.30321429 C5.77107143,5.14928571 5.69285714,4.99392857 5.61857143,4.81964286 C5.40214286,4.31714286 5.34178571,3.78178571 5.33892857,3.25535714 C5.33571429,2.72678571 5.41214286,2.19714286 5.61857143,1.69107143 C5.68607143,1.52392857 5.76357143,1.39071429 5.89357143,1.23928571 C5.91071429,1.21892857 5.93857143,1.19321429 6.02392857,1.13607143 C5.9325,1.19642857 6.02285714,1.14357143 6.04857143,1.13357143 C5.98035714,1.15464286 5.97178571,1.15857143 6.02535714,1.14571429 C5.94464286,1.15142857 5.9325,1.1525 5.99071429,1.15035714 C6.65428571,1.12964286 6.65607143,0.335357143 5.99071429,0.356071429 C5.30357143,0.377142857 4.94642857,0.849285714 4.71357143,1.28607143 C4.38642857,1.89642857 4.31107143,2.6025 4.30642857,3.25535714 C4.30214286,3.91285714 4.40142857,4.60857143 4.71357143,5.225 C4.93535714,5.66285714 5.31214286,6.13428571 5.99071429,6.15535714 C6.65607143,6.17571429 6.65428571,5.38142857 5.99071429,5.36071429"></path>
                                            <path d="M1.86107143,5.36071429 C1.74142857,5.35714286 1.97857143,5.38357143 1.86214286,5.35821429 C1.98285714,5.38428571 1.89107143,5.36607143 1.85428571,5.34892857 C1.98214286,5.40892857 1.7325,5.24107143 1.79357143,5.30321429 C1.64214286,5.14928571 1.56464286,4.99392857 1.48928571,4.81964286 C1.27321429,4.31714286 1.21357143,3.78178571 1.20964286,3.25535714 C1.20571429,2.72678571 1.28392857,2.19714286 1.48928571,1.69107143 C1.5575,1.52392857 1.635,1.39071429 1.76535714,1.23928571 C1.7825,1.21892857 1.80964286,1.19321429 1.89464286,1.13607143 C1.80392857,1.19642857 1.89428571,1.14357143 1.91928571,1.13357143 C1.85107143,1.15464286 1.84357143,1.15857143 1.89678571,1.14571429 C1.81607143,1.15142857 1.80357143,1.1525 1.86107143,1.15035714 C2.52428571,1.12964286 2.52714286,0.335357143 1.86107143,0.356071429 C1.17428571,0.377142857 0.817857143,0.849285714 0.584285714,1.28607143 C0.258214286,1.89642857 0.182142857,2.6025 0.177857143,3.25535714 C0.173214286,3.91285714 0.273214286,4.60857143 0.584642857,5.225 C0.806785714,5.66285714 1.18357143,6.13428571 1.86142857,6.15535714 C2.52714286,6.17571429 2.52428571,5.38142857 1.86107143,5.36071429"></path>
                                            <path d="M14.2489286,5.36071429 C14.13,5.35714286 14.3667857,5.38357143 14.25,5.35821429 C14.3707143,5.38428571 14.2789286,5.36607143 14.2421429,5.34892857 C14.3692857,5.40892857 14.1196429,5.24107143 14.1814286,5.30321429 C14.03,5.14928571 13.9517857,4.99392857 13.8775,4.81964286 C13.6614286,4.31714286 13.6010714,3.78178571 13.5971429,3.25535714 C13.5942857,2.72678571 13.6717857,2.19714286 13.8775,1.69107143 C13.9457143,1.52392857 14.0217857,1.39071429 14.1525,1.23928571 C14.1703571,1.21892857 14.1985714,1.19321429 14.2821429,1.13607143 C14.1914286,1.19642857 14.2814286,1.14357143 14.3075,1.13357143 C14.2389286,1.15464286 14.2303571,1.15857143 14.2839286,1.14571429 C14.2032143,1.15142857 14.1914286,1.1525 14.2489286,1.15035714 C14.9125,1.12964286 14.9146429,0.335357143 14.2489286,0.356071429 C13.5625,0.377142857 13.2053571,0.849285714 12.9721429,1.28607143 C12.6464286,1.89642857 12.57,2.6025 12.5653571,3.25535714 C12.5603571,3.91285714 12.66,4.60857143 12.9721429,5.225 C13.1942857,5.66285714 13.5714286,6.13428571 14.2489286,6.15535714 C14.915,6.17571429 14.9128571,5.38142857 14.2489286,5.36071429"></path>
                                        </g>
                                        <g id="Shape" transform="translate(1.785714, 0.357143)" fill="#D0D0D0">
                                            <path d="M8.75,2.89964286 C8.75464286,2.34642857 8.82642857,1.79142857 9.04178571,1.26142857 C9.13857143,1.02428571 9.35678571,0.528928571 9.76321429,0.516785714 C9.96285714,0.510714286 9.96357143,0.272142857 9.76321429,0.278571429 C9.26464286,0.293928571 9.00107143,0.695 8.835,1.00464286 C8.52,1.59392857 8.44464286,2.26964286 8.44107143,2.9 C8.43964286,3.05357143 8.74964286,3.05357143 8.75071429,2.89964286"></path>
                                            <path d="M4.62035714,2.89964286 C4.62392857,2.34642857 4.69714286,1.79142857 4.91321429,1.26142857 C5.00928571,1.02428571 5.22714286,0.528928571 5.63464286,0.516785714 C5.83392857,0.510714286 5.83464286,0.272142857 5.63464286,0.278571429 C5.13607143,0.293928571 4.87214286,0.695 4.705,1.00464286 C4.39035714,1.59392857 4.31571429,2.26964286 4.31142857,2.9 C4.31142857,3.05357143 4.62035714,3.05357143 4.62142857,2.89964286"></path>
                                            <path d="M0.491428571,2.89964286 C0.495,2.34642857 0.568214286,1.79142857 0.783571429,1.26142857 C0.880357143,1.02428571 1.09785714,0.528928571 1.505,0.516785714 C1.70392857,0.510714286 1.705,0.272142857 1.505,0.278571429 C1.00642857,0.293928571 0.742142857,0.695 0.576428571,1.00464286 C0.261428571,1.59392857 0.187142857,2.26964286 0.1825,2.9 C0.181785714,3.05357143 0.491428571,3.05357143 0.4925,2.89964286"></path>
                                            <path d="M12.8785714,2.89964286 C12.8828571,2.34642857 12.9557143,1.79142857 13.1717857,1.26142857 C13.2678571,1.02428571 13.4860714,0.528928571 13.8932143,0.516785714 C14.0917857,0.510714286 14.0932143,0.272142857 13.8932143,0.278571429 C13.3953571,0.293928571 13.1310714,0.695 12.9653571,1.00464286 C12.6496429,1.59392857 12.575,2.26964286 12.5710714,2.9 C12.5685714,3.05357143 12.8789286,3.05357143 12.88,2.89964286"></path>
                                        </g>
                                        <g id="Shape" transform="translate(4.642857, 7.500000)" fill="#FFFFFF">
                                            <path d="M0.757142857,2.29785714 L0.757142857,2.38214286 C0.763928571,2.66535714 0.793571429,2.86464286 0.847142857,2.97964286 C0.900714286,3.09464286 1.01607143,3.15214286 1.19214286,3.15214286 C1.36714286,3.15214286 1.48214286,3.08928571 1.53857143,2.96321429 C1.57178571,2.88892857 1.58857143,2.76285714 1.58857143,2.58571429 L1.58857143,0.0239285714 L2.37714286,0.0239285714 L2.37714286,2.57321429 C2.37714286,2.88464286 2.32285714,3.13142857 2.21428571,3.31357143 C2.03035714,3.62178571 1.7,3.77571429 1.22107143,3.77571429 C0.742142857,3.77571429 0.421071429,3.65071429 0.2575,3.40178571 C0.0942857143,3.1525 0.0121428571,2.8125 0.0121428571,2.38178571 L0.0121428571,2.2975 L0.757142857,2.2975"></path>
                                            <path d="M3.21214286,0.025 L4.01357143,0.025 L4.01357143,2.27428571 C4.01357143,2.52607143 4.04392857,2.71 4.105,2.82535714 C4.20035714,3.03071429 4.40785714,3.13321429 4.7275,3.13321429 C5.045,3.13321429 5.25214286,3.03035714 5.34714286,2.82535714 C5.40821429,2.70964286 5.43892857,2.52571429 5.43892857,2.27428571 L5.43892857,0.025 L6.24,0.025 L6.24,2.27607143 C6.24,2.66535714 6.1775,2.96857143 6.05392857,3.18535714 C5.82178571,3.58285714 5.37928571,3.78178571 4.72714286,3.78178571 C4.075,3.78178571 3.63142857,3.58285714 3.39857143,3.18535714 C3.27428571,2.96857143 3.21178571,2.66535714 3.21178571,2.27607143 L3.21178571,0.025"></path>
                                            <path d="M6.9975,0.025 L7.785,0.025 L7.785,3.02928571 L9.66857143,3.02928571 L9.66857143,3.68785714 L6.9975,3.68785714 L6.9975,0.025"></path>
                                        </g>
                                        <g id="Shape" transform="translate(4.285714, 13.214286)" fill="#333333">
                                            <path d="M0.025,2.32 L0.025,1.33392857 C0.472142857,1.31392857 0.785,1.28357143 0.963928571,1.2425 C1.24857143,1.17821429 1.48107143,1.04964286 1.65928571,0.856785714 C1.78214286,0.724642857 1.87428571,0.548571429 1.93714286,0.328571429 C1.97428571,0.196785714 1.99214286,0.0982142857 1.99214286,0.0335714286 L3.1775,0.0335714286 L3.1775,7.39964286 L1.72357143,7.39964286 L1.72357143,2.32 L0.025,2.32"></path>
                                            <path d="M10.3714286,1.26285714 C10.1592857,1.47678571 9.86214286,1.85678571 9.48392857,2.40321429 C9.10428571,2.95035714 8.78642857,3.515 8.53107143,4.0975 C8.3275,4.55464286 8.14428571,5.11392857 7.98178571,5.77357143 C7.81892857,6.43428571 7.73714286,6.97607143 7.73714286,7.39928571 L6.2625,7.39928571 C6.30607143,6.07892857 6.73071429,4.70535714 7.53821429,3.27964286 C8.06107143,2.39571429 8.49785714,1.77928571 8.85035714,1.43035714 L5.25035714,1.43035714 L5.27035714,0.13 L10.37,0.13 L10.37,1.26285714"></path>
                                        </g>
                                    </g>
                                </g>
                            </g>
                        </g>
                    </g>
                </g>
            </g>
        </g>
    </g>
</svg>