<?xml version="1.0" encoding="UTF-8" standalone="no"?>
<svg width="300px" height="444px" viewBox="0 0 300 444" version="1.1" xmlns="http://www.w3.org/2000/svg" xmlns:xlink="http://www.w3.org/1999/xlink" xmlns:sketch="http://www.bohemiancoding.com/sketch/ns">
    <!-- Generator: Sketch 3.5.2 (25235) - http://www.bohemiancoding.com/sketch -->
    <title>Group 3</title>
    <desc>Created with Sketch.</desc>
    <defs></defs>
    <g id="Page-1" stroke="none" stroke-width="1" fill="none" fill-rule="evenodd" sketch:type="MSPage">
        <g id="Group-3" sketch:type="MSLayerGroup">
            <rect id="Rectangle-18" fill="#4A4A4A" sketch:type="MSShapeGroup" x="0" y="0" width="300" height="444"></rect>
            <g id="Page-1" transform="translate(83.000000, 168.000000)" fill-opacity="0.25" fill="#000000" sketch:type="MSShapeGroup">
                <path d="M91,77 C96.7318732,75.6084258 104.877468,73.8989406 113.404679,72.9832809 C113.792019,71.0434531 114,69.0655521 114,67.0419633 C114,66.2843072 113.971379,65.5323622 113.91032,64.7899354 L113.91032,54 C109.916708,63.4135905 101.740584,71.4660652 91,77 Z M56.9990489,83 C88.4755961,83 114,64.4178535 114,41.5 C114,18.5764265 88.4832051,0 56.9990489,0 C25.5244039,0 0,18.5840531 0,41.5 C0,64.4178535 25.5244039,83 56.9990489,83 Z M9.45799196,41.4923734 C9.45799196,34.8191216 16.8900866,29.4118809 26.0513274,29.4118809 C35.2125682,29.4118809 42.6446629,34.8191216 42.6446629,41.4923734 C42.6446629,48.1656253 35.2125682,53.5728659 26.0513274,53.5728659 C16.8900866,53.5804925 9.45799196,48.1656253 9.45799196,41.4923734 Z M104.542008,41.4923734 C104.542008,48.1656253 97.1099134,53.5728659 87.9486726,53.5728659 C78.7798228,53.5728659 71.3477281,48.1656253 71.3477281,41.4923734 C71.3477281,34.8191216 78.7798228,29.4118809 87.9410636,29.4118809 C97.1042066,29.4118809 104.542008,34.8267481 104.542008,41.4923734 Z M40.4076157,64.0288983 C40.4076157,57.3556464 47.8378081,51.9503124 56.9990489,51.9503124 C66.1621919,51.9503124 73.5923843,57.363273 73.5923843,64.0288983 C73.5923843,70.7021501 66.1621919,76.1093908 56.9990489,76.1093908 C47.8301991,76.1093908 40.4076157,70.7021501 40.4076157,64.0288983 Z M52.7722472,41.5 C52.7722472,39.8011807 54.6668892,38.4245842 56.9990489,38.4245842 C59.3331108,38.4245842 61.2277528,39.8011807 61.2277528,41.5 C61.2277528,43.1988193 59.3331108,44.5830424 56.9990489,44.5830424 C54.6592801,44.5830424 52.7722472,43.1988193 52.7722472,41.5 Z M73.5923843,18.9711017 C73.5923843,25.6443536 66.1621919,31.0515942 56.9990489,31.0515942 C47.8378081,31.0515942 40.4076157,25.6443536 40.4076157,18.9711017 C40.4076157,12.2978499 47.8378081,6.89060921 56.9990489,6.89060921 C66.1621919,6.88298263 73.5923843,12.2978499 73.5923843,18.9711017 Z M117.237416,74.2445802 C101.939303,75.6282772 82.6998455,80.5032641 74.2549223,82.7937162 C68.7655322,84.0228312 62.9475385,84.6864025 56.9149078,84.6864025 C30.2410308,84.6864025 7.60536947,71.7618433 0.0664805024,54 L0.0664805024,65.1355559 C0.0284916439,65.7463432 0,66.3495898 0,66.9679176 C0,89.6349101 25.4791274,108 56.9149078,108 C67.2516762,108 76.9350362,106.003631 85.2887862,102.534962 C116.64479,94.3986734 134,98.1538837 134,98.1538837 L134,75.0099494 C130.051058,73.7054285 124.033623,73.6319078 117.237416,74.2445802 Z" id="Fill-1"></path>
            </g>
        </g>
    </g>
</svg>