<?xml version="1.0" encoding="UTF-8" standalone="no"?>
<svg width="45px" height="45px" viewBox="0 0 45 45" version="1.1" xmlns="http://www.w3.org/2000/svg" xmlns:xlink="http://www.w3.org/1999/xlink" xmlns:sketch="http://www.bohemiancoding.com/sketch/ns">
    <!-- Generator: Sketch 3.3.3 (12081) - http://www.bohemiancoding.com/sketch -->
    <title>sms</title>
    <desc>Created with Sketch.</desc>
    <defs></defs>
    <g id="Page-1" stroke="none" stroke-width="1" fill="none" fill-rule="evenodd" sketch:type="MSPage">
        <g id="iPhone-6" sketch:type="MSArtboardGroup" transform="translate(-305.000000, -412.000000)">
            <g id="Oval-411-Copy-+-SMS-+-Imported-Layers" sketch:type="MSLayerGroup" transform="translate(264.000000, 412.000000)">
                <g id="sms" transform="translate(41.000000, 0.000000)" sketch:type="MSShapeGroup">
                    <circle id="Oval-411-Copy" fill="#3CAAEE" cx="22.5" cy="22.5" r="22.5"></circle>
                    <g id="Imported-Layers" transform="translate(8.000000, 11.000000)" fill="#FFFFFF">
                        <path d="M8.62225617,23.7839999 C8.24492208,23.7839999 7.56508387,23.5706549 7.25568053,22.1361485 L6.6278518,19.1795687 L4.3431496,19.1795687 C2.5833186,19.1795687 0.621818182,17.8114009 0.621818182,15.8461856 L0.621818182,3.73328362 C0.621818182,1.89013131 2.3943862,0.213090909 4.3431496,0.213090909 L24.7069842,0.213090909 C26.4938813,0.213090909 27.8397593,1.72667294 27.8397593,3.73328362 L27.8397593,15.8483084 C27.8397593,17.8114009 26.5522593,19.1816915 24.7069842,19.1816915 L12.1153827,19.1816915 C11.1431239,20.6432641 10.1188555,22.5607157 10.1082413,22.5798212 C9.5509969,23.5764927 8.99322175,23.7839999 8.62225617,23.7839999 L8.62225617,23.7839999 Z M4.3431496,1.00915439 C2.84018175,1.00915439 1.41788166,2.33168119 1.41788166,3.73328362 L1.41788166,15.8483084 C1.41788166,17.3449077 2.95852985,18.3856281 4.3431496,18.3856281 L6.95105357,18.3856281 C7.13998597,18.3856281 7.3013215,18.5161825 7.34112468,18.7008692 L8.03741487,21.9700366 C8.18866693,22.6726953 8.43969228,22.9879364 8.62437901,22.9879364 C8.7835917,22.9879364 9.0845037,22.7804292 9.40982831,22.1982414 C9.45122361,22.1191658 10.5439534,20.0732826 11.5761824,18.5575778 C11.6510124,18.4498439 11.7730754,18.3835052 11.9057527,18.3835052 L24.709107,18.3835052 C26.1064638,18.3835052 27.0458187,17.3634826 27.0458187,15.8461856 L27.0458187,3.73328362 C27.0458187,2.41287966 26.2269347,1.00915439 24.709107,1.00915439 L4.3431496,1.00915439 Z M22.192485,6.8262556 L5.98091754,6.8262556 C5.76120402,6.8262556 5.5828858,6.64793739 5.5828858,6.42822386 C5.5828858,6.20851034 5.76120402,6.03019212 5.98091754,6.03019212 L22.192485,6.03019212 C22.4121985,6.03019212 22.5905167,6.20851034 22.5905167,6.42822386 C22.5905167,6.64793739 22.4121985,6.8262556 22.192485,6.8262556 Z M22.192485,9.80937082 L5.98091754,9.80937082 C5.76120402,9.80937082 5.5828858,9.6310526 5.5828858,9.41133908 C5.5828858,9.19162556 5.76120402,9.01330734 5.98091754,9.01330734 L22.192485,9.01330734 C22.4121985,9.01330734 22.5905167,9.19162556 22.5905167,9.41133908 C22.5905167,9.6310526 22.4121985,9.80937082 22.192485,9.80937082 Z M17.6543924,12.7946089 L5.98091754,12.7946089 C5.76120402,12.7946089 5.5828858,12.6162907 5.5828858,12.3965771 C5.5828858,12.1768636 5.76120402,11.9985454 5.98091754,11.9985454 L17.6543924,11.9985454 C17.874106,11.9985454 18.0524242,12.1768636 18.0524242,12.3965771 C18.0524242,12.6162907 17.874106,12.7946089 17.6543924,12.7946089 Z" id="Fill-1"></path>
                    </g>
                </g>
            </g>
        </g>
    </g>
</svg>