<?xml version="1.0" encoding="UTF-8" standalone="no"?>
<svg width="31px" height="30px" viewBox="0 0 31 30" version="1.1" xmlns="http://www.w3.org/2000/svg" xmlns:xlink="http://www.w3.org/1999/xlink" xmlns:sketch="http://www.bohemiancoding.com/sketch/ns">
    <!-- Generator: Sketch 3.3.2 (12043) - http://www.bohemiancoding.com/sketch -->
    <title>Imported Layers</title>
    <desc>Created with Sketch.</desc>
    <defs></defs>
    <g id="Page-1" stroke="none" stroke-width="1" fill="none" fill-rule="evenodd" sketch:type="MSPage">
        <g id="iPhone-6" sketch:type="MSArtboardGroup" transform="translate(-49.000000, -151.000000)" fill="#979797">
            <g id="Action-items" sketch:type="MSLayerGroup" transform="translate(49.000000, 151.000000)">
                <g id="Place" sketch:type="MSShapeGroup">
                    <path d="M25.7436,3.8784 L20.0952,3.8784 L15.0952,0 L10.1,3.8784 L4.2,3.8784 L4.2,8.3892 L0,11.6736 L0,29.9032 L30.0748,29.9032 L30.0748,11.6596 L25.728,8.2672 L25.7436,3.8784 Z M2.0044,11.9688 L4.2,10.264 L4.2,13.164 L2.0044,11.9688 Z M5.7,9.114 L5.7,5.3784 L24.2684,5.3784 L24.2856,8.828 L24.2248,8.828 L24.2248,14.072 L15.0484,19.0656 L5.7,13.9736 L5.7,9.114 Z M25.7248,10.1204 L28.1076,11.9688 L25.7248,13.2656 L25.7248,10.1204 Z M15.0952,1.8752 L17.678,3.8784 L12.5168,3.8784 L15.0952,1.8752 Z M1.5,28.4032 L1.5,13.3548 L15.0372,20.7532 L28.5748,13.3624 L28.5748,28.4032 L1.5,28.4032 Z" id="Imported-Layers"></path>
                </g>
            </g>
        </g>
    </g>
</svg>