<?xml version="1.0" encoding="UTF-8" standalone="no"?>
<svg width="69px" height="69px" viewBox="0 0 69 69" version="1.1" xmlns="http://www.w3.org/2000/svg" xmlns:xlink="http://www.w3.org/1999/xlink">
    <!-- Generator: Sketch 3.8 (29681) - http://www.bohemiancoding.com/sketch -->
    <title>Combined Shape</title>
    <desc>Created with Sketch.</desc>
    <defs></defs>
    <g id="Page-1" stroke="none" stroke-width="1" fill="none" fill-rule="evenodd">
        <g id="Combined-Shape" fill="#4A4A4A">
            <path d="M4.5,0.75 L0.75,0.75 L0.75,68.25 L8.25,68.25 L8.25,0.75 L4.5,0.75 Z M12,68.25 L15.75,68.25 L15.75,0.75 L12,0.75 L12,68.25 Z M23.25,0.75 L19.5,0.75 L19.5,68.25 L27,68.25 L27,0.75 L23.25,0.75 Z M30.75,68.25 L34.5,68.25 L34.5,0.75 L30.75,0.75 L30.75,68.25 Z M38.25,68.25 L42,68.25 L42,0.75 L38.25,0.75 L38.25,68.25 Z M49.5,0.75 L45.75,0.75 L45.75,68.25 L53.25,68.25 L53.25,0.75 L49.5,0.75 Z M57,68.25 L60.75,68.25 L60.75,0.75 L57,0.75 L57,68.25 Z M64.5,68.25 L68.25,68.25 L68.25,0.75 L64.5,0.75 L64.5,68.25 Z"></path>
        </g>
    </g>
</svg>