<?xml version="1.0" encoding="UTF-8" standalone="no"?>
<svg width="26px" height="24px" viewBox="0 0 26 24" version="1.1" xmlns="http://www.w3.org/2000/svg" xmlns:xlink="http://www.w3.org/1999/xlink">
    <!-- Generator: Sketch 3.7.2 (28276) - http://www.bohemiancoding.com/sketch -->
    <title>Fill-1</title>
    <desc>Created with Sketch.</desc>
    <defs></defs>
    <g id="Page-1" stroke="none" stroke-width="1" fill="none" fill-rule="evenodd">
        <path d="M9.37295775,0.312439436 C8.69554929,0.392146479 8.11583099,0.852135211 7.94276056,1.45115493 C7.89780281,1.60418028 7.88461972,1.73864789 7.88461972,1.98446197 L7.88461972,2.20441691 L4.67876056,2.20441691 C1.0804507,2.20441691 1.40935211,2.19620281 1.28664789,2.29477183 C1.19402817,2.36961127 1.16630986,2.42315493 1.15988732,2.53845633 C1.15447887,2.62272676 1.15853521,2.64310985 1.18625352,2.6975662 C1.22985915,2.78548732 1.28901408,2.84024789 1.37622535,2.87827605 L1.45025352,2.91143661 L2.9872676,2.91873803 L2.99369015,2.9567662 C2.99774648,2.97806197 3.01633803,3.24912676 3.03357747,3.56034929 C3.05183099,3.87278873 3.0927324,4.54208451 3.12585916,5.05074929 C3.20495775,6.33640564 3.27898592,7.51649577 3.33171831,8.37562817 C3.35707043,8.77750985 3.38850704,9.28952113 3.40304225,9.51525633 C3.41757747,9.74007887 3.45476056,10.3448789 3.48754929,10.8593239 C3.57070423,12.2070423 3.65521127,13.5523268 3.71470423,14.5112451 C3.74377465,14.9712339 3.79650704,15.8148507 3.83098592,16.3877071 C3.86783099,16.9593465 3.90771831,17.6119099 3.92225352,17.8376451 C3.93678873,18.0621633 3.98816901,18.9069972 4.03819719,19.7141071 C4.15718309,21.6343775 4.16360564,21.7235155 4.19267605,21.8412507 C4.27853521,22.185938 4.48202817,22.4959436 4.77239436,22.7219831 C5.02321127,22.9166873 5.28991549,23.0356395 5.62422535,23.1010479 C5.72833803,23.1211268 6.04135211,23.1223436 12.9472676,23.1223436 L20.1621408,23.1223436 L20.296676,23.0949633 C21.0917183,22.9346367 21.6687324,22.3474817 21.7332957,21.6319436 C21.7373521,21.5844845 21.7782535,20.9343549 21.8242253,20.1880901 C21.8705352,19.4430423 21.9141408,18.7396732 21.9222535,18.6277183 C21.9300281,18.5148507 21.9645071,17.9529465 22,17.3776564 C22.072676,16.1987831 22.1254084,15.3670309 22.1821972,14.4613521 C22.2203944,13.8623324 22.288,12.7725972 22.552,8.53504225 C22.6192676,7.44165633 22.6932957,6.26856339 22.7142535,5.92874367 C22.839662,3.94306479 22.8964507,3.01243944 22.8964507,2.96984789 L22.8964507,2.92117183 L23.7574084,2.91752113 C24.6065352,2.91387043 24.6183661,2.91387043 24.6778592,2.88770704 C24.8296339,2.8247324 24.9141408,2.70699719 24.9141408,2.55731831 C24.9141408,2.41585352 24.8387605,2.30541972 24.7042253,2.24487887 L24.6301972,2.21171831 L18.1894084,2.19954929 L18.1812957,1.91327324 C18.1758873,1.7064 18.1681127,1.6008338 18.1508732,1.53542535 C18.0758309,1.22511549 17.9237183,0.978084507 17.6769577,0.754478873 C17.4761691,0.575290141 17.2703099,0.458771831 17.0100281,0.380281691 C16.744676,0.299357747 17.0894648,0.306659155 13.084507,0.304225352 C11.0313239,0.303008451 9.42298592,0.306659155 9.37295775,0.312439436 L9.37295775,0.312439436 L9.37295775,0.312439436 Z M16.648338,1.03162817 C16.8410141,1.06722253 16.9954929,1.14206197 17.1317183,1.27044507 C17.2344789,1.36536339 17.3030985,1.4663662 17.3480564,1.59109859 C17.3811831,1.67932395 17.3838873,1.70305352 17.3889577,1.94430423 L17.3943661,2.20441691 L8.67425352,2.20441691 L8.67966197,1.95008451 C8.68743661,1.66837183 8.70061972,1.60904789 8.78918309,1.45571831 C8.91864789,1.2336338 9.17487324,1.06600563 9.45340845,1.02432676 C9.48754929,1.01976338 11.0972394,1.01489577 13.0317747,1.01367887 C16.1994367,1.01246197 16.5570704,1.01489577 16.648338,1.03162817 L16.648338,1.03162817 L16.648338,1.03162817 Z M22.1058028,2.95189859 C22.1058028,2.96984789 22.0790985,3.40245633 22.047662,3.9120338 C21.9908732,4.84144225 21.9181972,6.00601691 21.8205071,7.56395493 C21.7505352,8.69293521 21.6842817,9.75194367 21.6447324,10.3698253 C21.6264789,10.6527549 21.5892957,11.2624225 21.5602253,11.7257577 C21.5311549,12.189093 21.4875493,12.8915493 21.4625352,13.2861296 C21.4375211,13.6807099 21.3847887,14.5231099 21.3462535,15.1565071 C21.3080564,15.7899043 21.2630985,16.4911436 21.2485633,16.7168789 C21.2181408,17.1948169 21.1349859,18.5328 21.0349296,20.1585803 C20.9463661,21.5787043 20.9423099,21.640462 20.9172957,21.7283831 C20.8182535,22.0718535 20.4761691,22.3486985 20.0881127,22.4034592 C20.0245633,22.4116732 17.8736901,22.415324 12.8931831,22.4128901 C6.17588732,22.4092395 5.78512676,22.4080225 5.71143661,22.3891605 C5.66884507,22.3772957 5.57791549,22.3438309 5.51064789,22.3131043 C5.40484507,22.2665577 5.368,22.2403944 5.25577465,22.1406084 C5.13814084,22.0350423 5.11853521,22.0113127 5.05904225,21.9005747 C4.97723944,21.748462 4.95729577,21.6641916 4.93870423,21.3636169 C4.91639436,20.9833352 4.83830985,19.7305352 4.77645071,18.7396732 C4.74332395,18.224924 4.65374648,16.7740732 4.57566197,15.5130592 C4.49791549,14.2535661 4.40664789,12.7987606 4.37487324,12.2806648 C4.34208451,11.762569 4.29847887,11.0601127 4.27718309,10.720293 C4.25487324,10.3792563 4.22445071,9.86359436 4.20585916,9.57488451 C4.18760564,9.28495775 4.16225352,8.86756056 4.14771831,8.64547605 C4.13352113,8.42339155 4.05814084,7.20527324 3.97870423,5.93939155 C3.89960564,4.67259719 3.82692957,3.50345916 3.81645071,3.34039436 C3.80597183,3.1776338 3.79650704,3.01487324 3.79650704,2.98171268 L3.79650704,2.91873803 L22.1058028,2.91873803 L22.1058028,2.95189859 L22.1058028,2.95189859 Z M8.97814084,5.42372957 C8.84867605,5.45354367 8.73374648,5.55211268 8.69690141,5.66741408 C8.67966197,5.72217465 8.67695775,6.49338592 8.67966197,12.5718085 L8.68338028,19.415662 L8.71380281,19.4728564 C8.80507043,19.6404845 9.02276056,19.7198873 9.21307043,19.6556957 C9.31481691,19.6225352 9.40439436,19.5416113 9.44022535,19.4536901 L9.46929577,19.3861521 L9.46929577,12.5505127 C9.46929577,6.46600564 9.46659155,5.70909296 9.44935211,5.65554929 C9.42298592,5.57827605 9.32394367,5.47849015 9.23943661,5.44502535 C9.15492957,5.41308169 9.06129577,5.4048676 8.97814084,5.42372957 L8.97814084,5.42372957 Z M12.9631549,5.41794929 C12.8377465,5.44046197 12.7278873,5.52108169 12.6724507,5.62816901 L12.6447324,5.68171268 L12.6447324,19.4025803 L12.6778592,19.4679887 C12.7187606,19.545262 12.7873803,19.6082367 12.8691831,19.6438309 C12.9604507,19.6842929 13.1108732,19.6818592 13.2112676,19.6380507 C13.2903662,19.6024564 13.3471549,19.5513465 13.3934648,19.4740732 L13.4238873,19.4253972 L13.4279437,12.5705915 C13.4303099,6.48608451 13.4279437,5.71030985 13.4107042,5.6543324 C13.384338,5.57584225 13.2852958,5.47605633 13.2007887,5.44289577 C13.1267606,5.41794929 13.0277183,5.40608451 12.9631549,5.41794929 L12.9631549,5.41794929 Z M16.6547605,5.41886197 C16.5256339,5.44411268 16.3948169,5.54602817 16.359324,5.6567662 C16.3420845,5.70909296 16.3393803,6.48851831 16.3393803,12.5505127 L16.3393803,19.3861521 L16.3670985,19.4524732 C16.4012395,19.5321803 16.4847324,19.6118873 16.5716056,19.6474817 C16.6601691,19.6842929 16.8173521,19.6842929 16.9018592,19.6462648 C16.9809577,19.6106704 17.0536339,19.545262 17.0945352,19.4740732 L17.127662,19.415662 L17.127662,5.68292957 L17.0999436,5.62938592 C17.0181408,5.47362253 16.8332395,5.38691831 16.6547605,5.41886197 L16.6547605,5.41886197 Z" id="Fill-1" stroke="#4A4A4A" stroke-width="0.5" fill="#4A4A4A"></path>
    </g>
</svg>