<?xml version="1.0" encoding="UTF-8" standalone="no"?>
<svg width="24px" height="19px" viewBox="0 0 24 19" version="1.1" xmlns="http://www.w3.org/2000/svg" xmlns:xlink="http://www.w3.org/1999/xlink">
    <!-- Generator: Sketch 3.7.2 (28276) - http://www.bohemiancoding.com/sketch -->
    <title>Fill-1</title>
    <desc>Created with Sketch.</desc>
    <defs></defs>
    <g id="Page-1" stroke="none" stroke-width="1" fill="none" fill-rule="evenodd">
        <path d="M5.66109388,5.04676246 C4.02856902,4.64641662 3.79499243,4.41284031 3.39665631,2.78232462 C3.30423028,2.40759785 2.67633618,2.40759785 2.5844124,2.78232462 C2.18406711,4.41083077 1.95249969,4.644408 0.319974831,5.04676246 C0.131606585,5.091468 3.10862447e-15,5.26024615 3.10862447e-15,5.45263292 C3.10862447e-15,5.64501969 0.131606585,5.81379785 0.319974831,5.85900646 C1.95049043,6.25734185 2.18406711,6.48890954 2.58240314,8.11942523 C2.62761157,8.30779385 2.79638954,8.43889754 2.98877631,8.43889754 C3.18066074,8.43889754 3.34943871,8.30779385 3.39464705,8.11942523 C3.79499243,6.49041692 4.02655975,6.25734185 5.65707535,5.85900646 C5.8454436,5.81379785 5.97705028,5.64501969 5.97705028,5.45263292 C5.97905954,5.26024615 5.84745286,5.091468 5.66109388,5.04676246 L5.66109388,5.04676246 L5.66109388,5.04676246 Z M2.99028323,6.66120369 C2.72154452,6.07650831 2.36439831,5.71936246 1.77769403,5.45062338 C2.36439831,5.17987569 2.71953526,4.82473846 2.99028323,4.240044 C3.25952428,4.82473846 3.61667049,5.18188523 4.20287243,5.45062338 C3.61667049,5.71936246 3.25952428,6.07650831 2.99028323,6.66120369 L2.99028323,6.66120369 Z M23.2697582,3.4278 C21.0540452,2.88630369 20.7049361,2.53669292 20.1614309,0.319472308 C20.1162225,0.131104615 19.9474446,0 19.7550578,0 C19.5631733,0 19.3943954,0.131104615 19.349187,0.319472308 C18.807691,2.53518554 18.4600888,2.88228554 16.2428689,3.42579046 C16.0545006,3.47099908 15.9233963,3.63977723 15.9233963,3.832164 C15.9233963,4.02404862 16.0545006,4.19282585 16.2428689,4.23803446 C18.4580795,4.78153938 18.8056818,5.12914154 19.349187,7.34636215 C19.3943954,7.53472985 19.5631733,7.66583446 19.7550578,7.66583446 C19.9474446,7.66583446 20.1162225,7.53472985 20.1614309,7.34636215 C20.7049361,5.13064892 21.0540452,4.78153938 23.2697582,4.23803446 C23.4581264,4.19282585 23.5892308,4.02404862 23.5892308,3.832164 C23.5892308,3.63977723 23.4561172,3.47501723 23.2697582,3.4278 L23.2697582,3.4278 Z M19.7550578,5.79219785 C19.3567217,4.76395846 18.8292906,4.23401631 17.7990418,3.83367046 C18.8272813,3.43382769 19.3567217,2.90790369 19.7550578,1.87765477 C20.1554031,2.90790369 20.6833365,3.43533508 21.7135853,3.83367046 C20.6833365,4.23401631 20.1554031,4.76395846 19.7550578,5.79219785 L19.7550578,5.79219785 Z M17.5222661,13.4093077 C14.4732119,12.6618628 13.9472878,12.1359388 13.1998425,9.08839108 C13.1546342,8.90002338 12.9858562,8.76891877 12.7934694,8.76891877 C12.6010827,8.76891877 12.4323047,8.90002338 12.3870964,9.08839108 C11.6416603,12.1359388 11.1177454,12.6618628 8.06668209,13.4093077 C7.87831385,13.4545163 7.74670717,13.6232945 7.74670717,13.8156812 C7.74670717,14.0075658 7.87831385,14.176344 8.06668209,14.2215517 C11.1177454,14.9689975 11.6416603,15.492912 12.3870964,18.5424683 C12.4323047,18.7308369 12.6010827,18.8619415 12.7934694,18.8619415 C12.9858562,18.8619415 13.1546342,18.7308369 13.1998425,18.5424683 C13.9492971,15.492912 14.4732119,14.9674902 17.5222661,14.2215517 C17.7106343,14.176344 17.842241,14.0075658 17.842241,13.8156812 C17.842241,13.6232945 17.7106343,13.4565258 17.5222661,13.4093077 L17.5222661,13.4093077 Z M12.7934694,16.8998972 C12.2087743,15.1518397 11.4593199,14.4038926 9.71076018,13.8171877 C11.4613291,13.2304837 12.2067651,12.4810292 12.7934694,10.7329717 C13.382183,12.4810292 14.1296283,13.2289772 15.878188,13.8171877 C14.1296283,14.4018831 13.382183,15.1518397 12.7934694,16.8998972 L12.7934694,16.8998972 L12.7934694,16.8998972 Z" id="Fill-1" fill="#4A4A4A"></path>
    </g>
</svg>