<?xml version="1.0" encoding="UTF-8" standalone="no"?>
<svg width="20px" height="24px" viewBox="0 0 20 24" version="1.1" xmlns="http://www.w3.org/2000/svg" xmlns:xlink="http://www.w3.org/1999/xlink">
    <!-- Generator: Sketch 3.7.2 (28276) - http://www.bohemiancoding.com/sketch -->
    <title>Shape-Copy-15</title>
    <desc>Created with Sketch.</desc>
    <defs></defs>
    <g id="Page-1" stroke="none" stroke-width="1" fill="none" fill-rule="evenodd">
        <path d="M10.2021786,21.1430615 C10.1793146,20.6648955 10.2021786,20.1649948 10.0878583,19.6868288 C9.81348938,18.4479445 9.12756713,17.4916125 7.91577119,16.9265074 C6.10950931,16.0788496 4.46329594,15.0138436 3.0685874,13.6228156 C0.507811065,11.0363726 0.462082916,8.01523336 2.1768885,4.9940941 C4.0517426,1.69040227 7.89290711,-0.0266480965 11.7797998,0.625396345 C15.5981002,1.25570597 18.6390221,4.16817114 19.2334881,7.86308965 C19.5078569,9.51493557 19.3249443,11.1233119 18.5247017,12.6664837 C17.9302359,13.7749592 17.2443136,14.7964955 16.4897991,15.796297 C14.8664498,17.9697785 13.2659646,20.1649948 11.6654794,22.3384762 C11.4139746,22.6862332 11.1396057,23.186134 10.636596,23.0557251 C10.0878583,22.9035815 10.2250427,22.360211 10.2021786,21.9255148 C10.1793146,21.6646969 10.2021786,21.425614 10.2021786,21.1647963 C10.1793146,21.1430615 10.2021786,21.1430615 10.2021786,21.1430615 L10.2021786,21.1430615 L10.2021786,21.1430615 Z" id="Shape-Copy-15" stroke="#4A4A4A"></path>
    </g>
</svg>