<?xml version="1.0" encoding="UTF-8" standalone="no"?>
<svg width="24px" height="20px" viewBox="0 0 24 20" version="1.1" xmlns="http://www.w3.org/2000/svg" xmlns:xlink="http://www.w3.org/1999/xlink">
    <!-- Generator: Sketch 40.1 (33804) - http://www.bohemiancoding.com/sketch -->
    <title>Stroke 3</title>
    <desc>Created with Sketch.</desc>
    <defs></defs>
    <g id="Welcome" stroke="none" stroke-width="1" fill="none" fill-rule="evenodd">
        <g id="iPhone-7-Copy" transform="translate(-106.000000, -614.000000)" fill="#FFFFFF">
            <g id="Group" transform="translate(90.000000, 613.000000)">
                <g id="Page-1" transform="translate(17.000000, 2.000000)">
                    <path d="M21.0917999,1.20596034 C21.1025076,1.25800246 21.1025076,12.7018008 21.0923787,12.751451 C21.0414056,13.0109616 20.8932392,13.2216542 20.6738084,13.3516117 C20.6157049,13.3850822 20.5318947,13.4189332 20.4300418,13.4472647 L20.3246683,13.4762278 L20.4571944,13.9583448 L20.4569281,13.4583449 L13.9675537,13.4618009 L7.47711611,13.4641048 L7.27151552,13.4641778 L7.12543881,13.6088609 L6.64280481,14.0868905 C6.3401759,14.3868932 5.49861615,15.2226282 4.83457922,15.8827293 C4.13719186,16.5759378 3.53733222,17.1613531 3.5706606,17.1432662 C3.61174647,17.1216987 3.66335328,17.1109408 3.67294032,17.1109408 C3.7150865,17.1109408 3.78034169,17.1402933 3.82259519,17.1959246 C3.79524677,17.1558795 3.83725934,17.2148166 3.85705699,17.2766643 C3.86420277,17.2989876 3.86167306,17.2765346 3.85932368,17.2162235 C3.85264967,17.0448936 3.8524316,16.9728263 3.8524316,15.6501648 L3.8524316,13.9641048 L3.8524316,13.4641048 L3.3524316,13.4641048 L2.2904028,13.4641048 C1.4732856,13.4641048 1.25631033,13.4609827 1.22586267,13.4553789 C1.00446434,13.4171262 0.812108761,13.3032877 0.686146522,13.1414902 C0.580823775,13.0062093 0.527196178,12.8780869 0.504699076,12.7099314 C0.501473905,12.6835539 0.498267775,10.510786 0.50133932,6.91938066 C0.503368366,3.7483376 0.504522021,2.69731076 0.507167256,2.00148495 C0.509345501,1.42850025 0.514572068,1.17616431 0.508639759,1.19970234 C0.544014389,1.05681556 0.595850995,0.942925715 0.663755686,0.850677845 C0.79772161,0.670631139 0.95595709,0.568788499 1.20617924,0.508465307 C1.17809759,0.51599041 1.24974989,0.512624803 1.36731784,0.510990296 C1.57439401,0.508111387 1.94252463,0.506171053 2.56497652,0.504787554 C3.71566049,0.502229976 5.4881361,0.501465405 10.7619325,0.50079322 C17.7709712,0.498708056 20.3392915,0.501972467 20.3623597,0.50594016 C20.7392278,0.566221303 21.0185873,0.8359989 21.0917999,1.20596034 Z M10.7617201,-0.499206754 C0.40744698,-0.497887031 1.10692958,-0.499441743 0.961469462,-0.461072355 C0.498206264,-0.349506646 0.137642424,-0.11744255 -0.14006184,0.255807387 C-0.289613877,0.458961387 -0.39607787,0.692872693 -0.461549952,0.957364857 C-0.496175842,1.09473413 -0.494682551,0.701925753 -0.498660395,6.91863311 C-0.502181589,11.0357772 -0.499673245,12.735661 -0.487128112,12.8374154 C-0.440512753,13.1860449 -0.317277049,13.4804688 -0.102916802,13.7558021 C0.177245676,14.1156686 0.591013003,14.3605414 1.05029946,14.4398316 C1.17179594,14.4622235 1.30253992,14.4641048 2.2904028,14.4641048 L3.3524316,14.4641048 L2.8524316,13.9641048 L2.8524316,15.6501648 C2.8524316,17.0100989 2.85259126,17.0628639 2.86008154,17.2551481 C2.8658199,17.4024587 2.87585695,17.4915444 2.90466152,17.5815296 C2.94041177,17.6932129 3.00122604,17.7785259 3.02551985,17.7998032 C3.18218465,18.0060715 3.41532509,18.1109408 3.67294032,18.1109408 C3.8147188,18.1109408 3.92017526,18.0889574 4.04100463,18.0257173 C4.15674267,17.9629719 4.35108299,17.7733112 5.53956951,16.5919462 C6.20331851,15.9321314 7.04457797,15.0966946 7.34666894,14.7972251 L7.82914839,14.3193487 L7.47747109,14.4641048 L13.9679975,14.4618008 L20.4574607,14.4583447 L20.5897205,14.4404618 L20.6965613,14.411093 C20.8770466,14.3608914 21.0382262,14.2957909 21.1783937,14.2149541 C21.6486657,13.9364752 21.9679055,13.4825165 22.0729181,12.9477387 C22.1093004,12.7694664 22.1093004,1.18901402 22.0720001,1.00799025 C21.918371,0.231584772 21.3108524,-0.355096144 20.5260418,-0.480555284 C20.4113759,-0.500313057 19.2864701,-0.501742845 10.7617201,-0.499206754 Z M0.807774766,0.258975439 C0.580357013,0.368897956 0.375826791,0.57369431 0.261463315,0.805946998 C0.207738515,0.892173752 0.182507513,0.968779481 0.168064552,1.05818417 C0.150572126,1.16646563 0.143342208,1.33299514 0.138694481,1.68239547 C0.131232621,2.24335275 0.131415016,2.02001822 0.131415016,6.98633784 C0.131415016,13.3898343 0.129018116,12.7561017 0.170724812,12.9115665 C0.280146602,13.3388733 0.607582811,13.6724653 1.04045667,13.7974252 C1.17446652,13.8374643 1.14255051,13.836923 2.61300063,13.8409429 L3.98336641,13.8441115 L3.484523,13.344834 L3.486827,14.9421972 L3.49028293,16.5410648 L3.49286865,17.7372902 L4.3423257,16.8950404 L4.85174226,16.389946 C5.11084669,16.1329709 5.7225602,15.5256654 6.28526095,14.9668005 C6.77404596,14.4799508 7.28405836,13.9767045 7.38432544,13.881862 L7.56879662,13.7063734 L7.2241704,13.3441128 L7.22434582,13.8441128 L13.791473,13.8418088 C21.2035834,13.8380448 20.4255144,13.8408117 20.5709485,13.796313 C21.0001681,13.6697972 21.3237327,13.3401393 21.4353104,12.9062273 C21.4745803,12.7549525 21.4723688,13.3673691 21.4723688,6.98748984 C21.4723688,2.02055734 21.4725514,2.24418031 21.4650904,1.68311746 C21.4604425,1.3335936 21.4532134,1.16704916 21.4357133,1.05879594 C21.4212097,0.96907859 21.3958205,0.892178647 21.3514501,0.817561544 C21.2284864,0.575908109 21.0251319,0.371765515 20.7952252,0.258588847 C20.7145014,0.219981506 20.617058,0.182100002 20.5497766,0.163852321 C20.4228777,0.12917865 20.7314632,0.129716896 10.8070776,0.129716896 C1.15056827,0.127094658 1.19770879,0.127019743 1.06853273,0.159472779 C0.995694208,0.176949342 0.890823133,0.217912571 0.807774766,0.258975439 Z M10.8069418,1.12971688 C17.395509,1.1297169 20.3092916,1.13479922 20.2871126,1.12873924 C20.2913346,1.12988521 20.3341151,1.1465163 20.3588401,1.15832975 C20.3849435,1.17121799 20.4284858,1.21492902 20.4451915,1.2488557 C20.4705449,1.30016429 20.5024837,1.34757948 20.4919319,1.32866673 C20.4662213,1.2854296 20.4527932,1.24475793 20.4485294,1.2183827 C20.4550321,1.2586072 20.461267,1.40224941 20.4651788,1.69641421 C20.4725429,2.25019274 20.4723688,2.03693296 20.4723688,6.98748984 C20.4723688,10.503596 20.4720327,11.310932 20.469709,11.9544386 C20.4676987,12.5111459 20.463316,12.6706697 20.4671038,12.656078 C20.4436838,12.7471502 20.3826956,12.8092869 20.2832639,12.8386015 C20.3190096,12.827637 20.0175337,12.8339343 19.4220085,12.836052 C18.640894,12.8388296 17.4464893,12.8399526 13.7910437,12.8418089 L7.22399498,12.8441128 L7.02425793,12.8441829 L6.87954418,12.9818522 L6.69610834,13.1563586 C6.58786358,13.2587443 6.07589163,13.7639242 5.58006716,14.2577862 C5.01803541,14.815986 4.40644772,15.4231665 4.14760663,15.6798805 L3.63823782,16.1849276 L4.49028059,16.5389032 L4.48682531,14.9403952 L4.48452196,13.3433916 L4.48380347,12.8452659 L3.98567855,12.8441141 L2.61552359,12.8409461 C1.58831386,12.8381379 1.30685855,12.8333652 1.3221962,12.8379452 C1.22326808,12.8093653 1.16040065,12.745316 1.13824175,12.6588002 C1.14073329,12.6679656 1.13628074,12.5150316 1.13419067,11.9624236 C1.13176508,11.321107 1.13141502,10.5141928 1.13141502,6.98633784 C1.13141502,2.03639845 1.13124109,2.24936704 1.13860602,1.6956963 C1.14251843,1.40157497 1.14875256,1.25798186 1.15526598,1.21766251 C1.1510621,1.24368533 1.13778884,1.28398526 1.11250224,1.32675571 C1.10245159,1.34498961 1.13405078,1.2977086 1.15886443,1.24716223 C1.17509617,1.21419915 1.21776472,1.17147508 1.24701335,1.15733493 C1.27258737,1.14471195 1.31140161,1.12955089 1.30719134,1.13056266 C1.30231971,1.1318139 3.81638699,1.1278186 10.8069418,1.12971688 Z" id="Stroke-3"></path>
                </g>
            </g>
        </g>
    </g>
</svg>