<?xml version="1.0" encoding="UTF-8" standalone="no"?>
<svg width="24px" height="22px" viewBox="0 0 24 22" version="1.1" xmlns="http://www.w3.org/2000/svg" xmlns:xlink="http://www.w3.org/1999/xlink">
    <!-- Generator: Sketch 3.7.2 (28276) - http://www.bohemiancoding.com/sketch -->
    <title>Combined Shape</title>
    <desc>Created with Sketch.</desc>
    <defs></defs>
    <g id="Page-1" stroke="none" stroke-width="1" fill="none" fill-rule="evenodd">
        <path d="M20.9184053,13.9228594 C20.5460395,13.9228594 20.2443015,14.2196892 20.2443015,14.5855223 L20.2443015,18.4990497 C20.2443015,19.5953925 19.3351639,20.4881948 18.2196359,20.4881948 L3.37365788,20.4881948 C2.25773755,20.4881948 1.34859992,19.5953925 1.34859992,18.4990497 L1.34859992,3.91352739 C1.34859992,2.81757011 2.25773755,1.92438226 3.37365788,1.92438226 L12.8872318,1.92438226 C13.2595977,1.92438226 13.5613356,1.62793796 13.5613356,1.26171938 C13.5613356,0.895886295 13.2595977,0.599441992 12.8872318,0.599441992 L3.37365788,0.599441992 C1.51261353,0.599441992 0,2.08551844 0,3.91352739 L0,18.4990497 C0,20.3274442 1.51261353,21.8135206 3.37365788,21.8135206 L18.2196359,21.8135206 C20.0802879,21.8135206 21.5929014,20.3259022 21.5929014,18.4990497 L21.5929014,14.5855223 C21.5929014,14.2196892 21.2911635,13.9228594 20.9184053,13.9228594 Z M23.9993499,5.85178742 C24.0009194,5.83058529 23.9993499,5.80938316 23.9977804,5.78856652 C23.9962109,5.7673644 23.9946414,5.74462029 23.9915023,5.72380366 C23.9887557,5.70260153 23.9824777,5.68294138 23.9777692,5.66212474 C23.9718835,5.64092261 23.967175,5.62126246 23.9593274,5.60006033 C23.9518723,5.58078567 23.9428476,5.56112551 23.9334305,5.54146536 C23.9244059,5.5218052 23.9149888,5.50214505 23.9028251,5.48441236 C23.892231,5.46629417 23.8796749,5.45125994 23.8675112,5.43468373 C23.853778,5.41502357 23.8384753,5.39690539 23.8216031,5.37878721 C23.8153251,5.37300481 23.8110089,5.36529494 23.8047309,5.35912705 L18.5476632,0.194288594 C18.2839858,-0.0647628647 17.8562948,-0.0647628647 17.5941869,0.194288594 C17.3305095,0.453340053 17.3305095,0.873527687 17.5941869,1.13257915 L21.3064662,4.77934522 C18.9137509,4.48290091 14.9931195,4.43317228 11.6426118,6.43735165 C8.80533338,8.1346784 6.95841461,10.9611148 6.15247214,14.8384059 C6.07713575,15.1969146 6.31334674,15.5477134 6.67825739,15.6213427 C6.72416551,15.6305945 6.77007362,15.6352204 6.81441223,15.6352204 C7.12870625,15.6352204 7.40925584,15.4181877 7.47517518,15.1051672 C8.2014651,11.606816 9.83846215,9.07412543 12.3367268,7.57571319 C15.7409901,5.53529746 19.9590434,5.89072223 21.9699758,6.22494487 L17.5941869,10.524351 C17.3305095,10.7834025 17.3305095,11.2035901 17.5941869,11.4622561 C17.7260256,11.5917818 17.8990639,11.6565447 18.070925,11.6565447 C18.2439633,11.6565447 18.4158245,11.5917818 18.5476632,11.4622561 L23.8047309,6.2974176 C23.812186,6.28970774 23.8168946,6.28238337 23.8231726,6.2746735 C23.8416143,6.25539884 23.856917,6.23573868 23.8722197,6.21453656 C23.8843834,6.19796035 23.8949776,6.18138414 23.9059642,6.16480793 C23.9165583,6.14668975 23.9271525,6.12741508 23.9365696,6.10621296 C23.9471637,6.08501083 23.9550113,6.06265222 23.9624664,6.03990812 C23.9656055,6.0294998 23.9718835,6.02024796 23.9750225,6.00829767 C23.9777692,5.99943133 23.9777692,5.99172146 23.9793387,5.98285512 C23.9856167,5.95856904 23.9887557,5.93582494 23.9915023,5.91192436 C23.9962109,5.89226421 23.9993499,5.87260405 23.9993499,5.85178742 Z" id="Combined-Shape" fill="#4A4A4A"></path>
    </g>
</svg>