<?xml version="1.0" encoding="UTF-8" standalone="no"?>
<svg width="23px" height="24px" viewBox="0 0 23 24" version="1.1" xmlns="http://www.w3.org/2000/svg" xmlns:xlink="http://www.w3.org/1999/xlink">
    <!-- Generator: Sketch 3.7.2 (28276) - http://www.bohemiancoding.com/sketch -->
    <title>Page 1</title>
    <desc>Created with Sketch.</desc>
    <defs></defs>
    <g id="Page-1" stroke="none" stroke-width="1" fill="none" fill-rule="evenodd">
        <path d="M15.9877427,6.5283731 C14.8491564,6.5283731 13.9258207,5.6054859 13.9258207,4.46689961 C13.9258207,3.32831331 14.8491564,2.40497767 15.9877427,2.40497767 C17.126329,2.40497767 18.0510099,3.32831331 18.0510099,4.46689961 C18.0496646,5.6054859 17.126329,6.5283731 15.9877427,6.5283731 L15.9877427,6.5283731 Z M15.9877427,11.9957398 C15.9877427,11.9957398 20.2725761,6.65124535 20.2725761,4.28438498 C20.2725761,1.91797306 18.3541546,0 15.9877427,0 C13.6213307,0 11.7029092,1.91797306 11.7029092,4.28438498 C11.7029092,6.65124535 15.9877427,11.9957398 15.9877427,11.9957398 L15.9877427,11.9957398 Z M6.0184981,22.3098339 L1.56415479,20.4739251 L1.56415479,7.71628767 L6.0184981,9.55040266 L6.0184981,22.3098339 Z M22.7999776,22.0434612 L22.7999776,5.90863058 L21.1887367,5.04987014 C21.0658645,5.50548403 20.8716904,5.99966367 20.6295334,6.50909023 L21.2394103,6.95439003 L21.2394103,19.7120275 L16.7846185,17.8779125 L16.7846185,12.0952933 C16.6254227,12.3020236 16.506138,12.4509053 16.4482894,12.5244493 L15.9877427,13.0975541 L15.5285413,12.5244493 C15.4742802,12.4562866 15.365758,12.3213065 15.2222575,12.1356528 L15.2222575,18.5209739 L7.57951382,21.6685663 L7.57951382,8.90913507 L11.6154637,7.52345896 C11.3611988,7.03466059 11.1405669,6.55483099 10.9724023,6.0992171 L6.01670435,7.86158187 L0,5.38485398 L0,21.5214784 L6.01670435,24 L16.7846185,19.5667333 L22.7999776,22.0434612 Z" fill="#4A4A4A"></path>
    </g>
</svg>