<?xml version="1.0" encoding="UTF-8" standalone="no"?>
<svg width="24px" height="24px" viewBox="0 0 24 24" version="1.1" xmlns="http://www.w3.org/2000/svg" xmlns:xlink="http://www.w3.org/1999/xlink" xmlns:sketch="http://www.bohemiancoding.com/sketch/ns">
    <!-- Generator: Sketch 3.3.3 (12081) - http://www.bohemiancoding.com/sketch -->
    <title>Oval 406 + menu-chat copy 5 + Imported Layers</title>
    <desc>Created with Sketch.</desc>
    <defs></defs>
    <g id="Page-1" stroke="none" stroke-width="1" fill="none" fill-rule="evenodd" sketch:type="MSPage">
        <g id="iPhone-6" sketch:type="MSArtboardGroup" transform="translate(-17.000000, -334.000000)">
            <g id="Oval-406-+-menu-chat-copy-5-+-Imported-Layers" sketch:type="MSLayerGroup" transform="translate(17.000000, 334.000000)">
                <g id="Oval-406-+-menu-chat-copy-5" fill="#2D93FF" sketch:type="MSShapeGroup">
                    <circle id="Oval-406" cx="12" cy="12" r="12"></circle>
                </g>
                <path d="M15.4392931,7 C14.7798798,7.00058667 14.1301465,7.24522667 13.6345598,7.74125333 L12.2916798,9.08428 L13.0220798,9.81468 L14.3651065,8.4718 C14.9551465,7.88176 15.9279865,7.88 16.5564531,8.48265333 C17.1677598,9.06814667 17.1533865,10.02896 16.5564531,10.6631467 C16.5530798,10.6672533 16.5489731,10.67004 16.5455998,10.6741467 L14.1502398,13.0695067 C13.5600531,13.6595467 12.5769465,13.67216 11.9478931,13.0695067 L11.2283465,13.81076 C12.2498798,14.78932 13.8894665,14.7916667 14.8806398,13.7999067 L17.2869998,11.3936933 C18.2602798,10.37788 18.3113198,8.73301333 17.2759998,7.74125333 C16.7650131,7.25212 16.0981198,7 15.4392931,7 L15.4392931,7 Z M11.9697465,10.4374267 C11.3103331,10.4380133 10.6503331,10.6826533 10.1541598,11.1788267 L7.74779981,13.58504 L7.74779981,13.5958933 C6.77451981,14.6117067 6.72347981,16.2565733 7.75879981,17.2483333 C8.78033314,18.2268933 10.4090665,18.2290933 11.4002398,17.23748 L12.7752398,15.86248 L12.0446931,15.1319333 L10.6696931,16.5069333 C10.0796531,17.09712 9.10681314,17.1095867 8.47834647,16.5069333 C7.86366647,15.91748 7.88141314,14.9497733 8.48919981,14.3155867 L10.8845598,11.9092267 C11.4747465,11.3191867 12.4578531,11.3174267 13.0869065,11.9202267 L13.8064531,11.1788267 C13.2954665,10.6895467 12.6285731,10.4374267 11.9697465,10.4374267 L11.9697465,10.4374267 Z" id="Imported-Layers" fill="#FFFFFF" sketch:type="MSShapeGroup"></path>
            </g>
        </g>
    </g>
</svg>