<?xml version="1.0" encoding="UTF-8" standalone="no"?>
<svg width="100px" height="21px" viewBox="0 0 100 21" version="1.1" xmlns="http://www.w3.org/2000/svg" xmlns:xlink="http://www.w3.org/1999/xlink" xmlns:sketch="http://www.bohemiancoding.com/sketch/ns">
    <!-- Generator: Sketch 3.3.2 (12043) - http://www.bohemiancoding.com/sketch -->
    <title>ballon</title>
    <desc>Created with Sketch.</desc>
    <defs></defs>
    <g id="Page-1" stroke="none" stroke-width="1" fill="none" fill-rule="evenodd" sketch:type="MSPage">
        <g id="iPhone-6" sketch:type="MSArtboardGroup" transform="translate(-137.000000, -71.000000)">
            <g id="ballon" sketch:type="MSLayerGroup" transform="translate(138.000000, 71.000000)">
                <path d="M0.289116979,9.03935212 L30.289117,9.03935212" id="Line" stroke="#E4E4E4" stroke-linecap="round" sketch:type="MSShapeGroup"></path>
                <path d="M68.5,9.03935212 L98.5,9.03935212" id="Line-Copy" stroke="#E4E4E4" stroke-linecap="round" sketch:type="MSShapeGroup"></path>
                <g id="Imported-Layers" transform="translate(38.000000, 0.539352)" fill="#E4E4E4" sketch:type="MSShapeGroup">
                    <path d="M7.42248204,2.10272422 C6.50517598,3.05177954 6,4.31181051 6,5.64971139 C6,5.84350415 6.1512605,6 6.33857021,6 C6.52612349,6 6.677384,5.84350415 6.677384,5.64971139 C6.677384,4.49779108 7.11216661,3.41492047 7.90086469,2.59791639 C7.96760443,2.5291187 8,2.4394045 8,2.3499423 C8,2.26022809 7.96663013,2.17076589 7.90086469,2.1019682 C7.7695774,1.96588486 7.55474364,1.96588486 7.42248204,2.10272422 L7.42248204,2.10272422 Z" id="Fill-1"></path>
                    <path d="M19.100182,6.61946882 C19.100182,6.83011513 19.3011122,7 19.5499292,7 C19.7990698,7 20,6.83011513 20,6.61946882 C20,5.67265474 19.562548,4.78246894 18.7688574,4.11141001 C18.5918706,3.96286333 18.3074621,3.96286333 18.1317695,4.11141001 C17.9560768,4.25995669 17.9560768,4.50042175 18.1317695,4.65006269 C18.7575329,5.17695201 19.100182,5.87564117 19.100182,6.61946882 L19.100182,6.61946882 Z" id="Fill-2"></path>
                    <path d="M3.2306447,4.11136939 C2.43644016,4.78218363 2,5.67313872 2,6.61960758 C2,6.83017707 2.20106034,7 2.45036222,7 C2.69934032,7 2.90040066,6.83017707 2.90040066,6.61960758 C2.90040066,5.87714501 3.24456676,5.17761674 3.86814521,4.64982566 C4.0439516,4.50133315 4.0439516,4.2598619 3.86814521,4.11136939 C3.69233882,3.96287687 3.40645109,3.96287687 3.2306447,4.11136939 L3.2306447,4.11136939 Z" id="Fill-3"></path>
                    <path d="M17.25388,11.9479356 C17.26256,11.9414976 17.26816,11.9325402 17.27572,11.9261022 C19.2052,11.5806858 21,8.20853744 21,6.2043387 C21,3.93310007 19.15256,2.08649405 16.88092,2.08649405 C16.39204,2.08649405 15.9152,2.17718684 15.45684,2.3476557 C14.24276,0.857382785 12.47428,0 10.54592,0 C8.5498,0 6.76816,0.927361791 5.60224,2.37060882 C5.12652,2.18586424 4.6298,2.08649405 4.11908,2.08649405 C1.84856,2.08649405 0,3.93310007 0,6.2043387 C0,8.13184045 1.66264,11.3226032 3.5056,11.8703989 C3.38072,12.0355493 3.27264,12.2278516 3.22756,12.4422673 C3.1696,12.7241428 3.2256,13.003219 3.38856,13.2481456 C3.57868,13.53338 3.81836,13.739958 4.02948,13.9227432 C4.44724,14.2835549 4.43184,14.3076277 4.32908,14.4618614 C4.2098,14.639888 4.25796,14.8825752 4.43744,15.0018195 C4.50408,15.046606 4.57856,15.0675997 4.65276,15.0675997 C4.77848,15.0675997 4.90224,15.0074178 4.97756,14.893492 C5.47736,14.1435969 4.91316,13.6559832 4.53908,13.3321204 C4.35652,13.1748076 4.16836,13.0118964 4.03704,12.8151155 C3.98888,12.7428971 3.9746,12.6782365 3.99112,12.5995801 C4.04684,12.3263821 4.41868,12.0288314 4.54356,11.946816 C4.57072,11.9283415 4.58948,11.9031491 4.6102,11.8801959 C4.96552,11.7850245 5.32448,11.6036389 5.67448,11.339958 C6.7256,13.2338698 8.23928,14.843387 9.90388,15.2324703 C9.62836,15.5289013 9.35928,15.9104269 9.26856,16.3490553 C9.18652,16.7470959 9.2652,17.1417775 9.49704,17.4905528 C9.83724,18.0011197 10.29644,18.3084675 10.66408,18.5545136 C11.28428,18.9710287 11.30612,19.0180546 11.0544,19.3942617 C10.9354,19.573408 10.98356,19.8149755 11.16276,19.9342197 C11.2294,19.9781666 11.30388,20 11.37948,20 C11.5052,20 11.62868,19.9398181 11.70316,19.8261721 C12.3998,18.7806858 11.64744,18.2754374 11.09836,17.9081875 C10.77132,17.6884535 10.4006,17.4401679 10.14552,17.0586424 C10.02736,16.8803359 9.99152,16.706508 10.03072,16.5086074 C10.13572,15.9991603 10.72204,15.4983905 10.9998,15.3035689 C12.71592,15.0860742 14.32368,13.2369489 15.36836,11.3749475 C15.6548,11.5848845 15.94684,11.7413576 16.23664,11.8384885 C16.10224,12.0103569 15.98408,12.2146956 15.93592,12.443387 C15.87796,12.7252624 15.93368,13.0040588 16.09776,13.2489853 C16.28816,13.5344997 16.52756,13.7410777 16.73868,13.9238628 C17.15644,14.2846746 17.1402,14.3087474 17.03744,14.4627012 C16.91816,14.6410077 16.96632,14.8836949 17.14552,15.0029391 C17.21244,15.0477257 17.28664,15.0684395 17.36112,15.0684395 C17.48796,15.0684395 17.6106,15.0085374 17.68592,14.8946116 C18.18572,14.1447166 17.62152,13.656823 17.24744,13.33324 C17.0646,13.1759272 16.87644,13.0130161 16.7454,12.8162351 C16.69724,12.7440168 16.68296,12.6793562 16.69836,12.6006998 C16.75744,12.3272218 17.12816,12.029951 17.25388,11.9479356 L17.25388,11.9479356 Z M4.04264,11.1815255 C2.60204,11.1815255 0.77868,8.09461162 0.77868,6.2043387 C0.77868,4.36277117 2.27724,2.86494052 4.11908,2.86494052 C4.4394,2.86494052 4.75552,2.91084675 5.06072,3.00153954 C4.4296,4.00979706 4.09836,5.15885234 4.09836,6.35297411 C4.09836,7.59608118 4.5206,9.15745276 5.26428,10.6773968 C4.8454,11.0088174 4.42736,11.1815255 4.04264,11.1815255 L4.04264,11.1815255 Z M10.66744,14.5491952 C7.7854,14.5491952 4.97,9.36431071 4.97,6.35409377 C4.97,3.2803359 7.47152,0.779846046 10.54592,0.779846046 C12.3256,0.779846046 13.95856,1.6053184 15.02368,3.04408677 C15.74244,4.01287614 16.12072,5.15773268 16.12072,6.35409377 C16.12072,6.65360392 16.09356,6.97494752 16.0398,7.31196641 C15.87796,8.32218334 15.48428,9.47347796 14.90356,10.5976207 C13.68388,12.9603919 11.98204,14.5491952 10.66744,14.5491952 L10.66744,14.5491952 Z M15.8144,10.5069279 C15.85836,10.4139958 15.90092,10.3219034 15.94264,10.230091 C15.98856,10.1251225 16.03336,10.0212736 16.07704,9.91742477 C16.1154,9.82561232 16.15348,9.73379986 16.18848,9.6419874 C16.2302,9.53701889 16.26744,9.43205038 16.30552,9.32708188 C16.33744,9.23722883 16.3702,9.1476557 16.40072,9.05808258 C16.43684,8.9519944 16.46736,8.84590623 16.5004,8.74093772 C16.52644,8.65444367 16.55388,8.56822953 16.57684,8.48173548 C16.60652,8.37452764 16.63144,8.26843947 16.65776,8.16263121 C16.67736,8.08173548 16.69948,7.99972008 16.71684,7.91854444 C16.74092,7.80937719 16.7594,7.70216935 16.77928,7.59384185 C16.79244,7.52078376 16.80756,7.44520644 16.81848,7.3729881 C16.83724,7.25486354 16.84816,7.14121763 16.8602,7.02757173 C16.86552,6.96850945 16.8756,6.9083275 16.88092,6.85038488 C16.8952,6.68103569 16.90164,6.51476557 16.90164,6.35409377 C16.90164,6.19314206 16.8952,6.03358992 16.88316,5.87515745 C16.8798,5.8236529 16.87224,5.77242827 16.86776,5.72204339 C16.85684,5.61483555 16.8448,5.50762771 16.8294,5.40153954 C16.82072,5.34135759 16.80868,5.28257523 16.79776,5.22239328 C16.7804,5.12610217 16.76164,5.02981106 16.7398,4.93351994 C16.72552,4.87137859 16.7104,4.81007698 16.69388,4.74877537 C16.6698,4.65584325 16.64264,4.56403079 16.61408,4.47221833 C16.5956,4.41203639 16.57572,4.35185444 16.555,4.2916725 C16.52336,4.19874038 16.48836,4.10804759 16.45224,4.01735479 C16.42928,3.96053184 16.40744,3.90482855 16.38336,3.84884535 C16.34052,3.75171449 16.2946,3.65542337 16.24756,3.56025192 C16.2246,3.51322603 16.20276,3.46508048 16.17868,3.41805458 C16.1098,3.28593422 16.03448,3.1546536 15.9544,3.02673198 C15.9502,3.01917425 15.94572,3.01021693 15.9404,3.0026592 C16.24644,2.91196641 16.56144,2.86606018 16.88204,2.86606018 C18.72388,2.86606018 20.22244,4.36389083 20.22244,6.20517845 C20.22244,8.09685094 18.39908,11.1826452 16.95848,11.1826452 C16.57348,11.1826452 16.15572,11.0096571 15.73684,10.6785164 C15.76316,10.6205738 15.78724,10.5637509 15.8144,10.5069279 L15.8144,10.5069279 Z" id="Fill-4"></path>
                </g>
            </g>
        </g>
    </g>
</svg>