<?xml version="1.0" encoding="utf-8"?>
<!-- Generator: Adobe Illustrator 18.0.0, SVG Export Plug-In . SVG Version: 6.00 Build 0)  -->
<!DOCTYPE svg PUBLIC "-//W3C//DTD SVG 1.1//EN" "http://www.w3.org/Graphics/SVG/1.1/DTD/svg11.dtd">
<svg version="1.1" id="Layer_1" xmlns="http://www.w3.org/2000/svg" xmlns:xlink="http://www.w3.org/1999/xlink" x="0px" y="0px"
	 viewBox="0 0 144 144" enable-background="new 0 0 144 144" xml:space="preserve">
<path fill-rule="evenodd" clip-rule="evenodd" fill="#A4A4A4" d="M72,13.5c-17.5,0-17.5,15.2-17.5,15.2v45.6c0,0,0,15.2,17.5,15.2
	s17.6-15.2,17.6-15.2V28.7C89.5,28.7,89.5,13.5,72,13.5z M74.9,124.7v-14.1c28.9-1.4,32.2-23,32.2-30.5V64.2c0,0,0.1-3.9-2.9-3.9
	c-3,0-3,3.9-3,3.9v15.5c0,7.7-3.5,25.2-29.2,25.2S42.8,87.4,42.8,79.6V63.2c0,0,0-2.9-2.9-2.9s-2.9,2.9-2.9,2.9V80
	c0,7.5,3.3,29.2,32.2,30.5v14.1H48v5.8h46.8v-5.8H74.9z"/>
</svg>
