<?xml version="1.0" encoding="UTF-8" standalone="no"?>
<svg width="17px" height="24px" viewBox="0 0 17 24" version="1.1" xmlns="http://www.w3.org/2000/svg" xmlns:xlink="http://www.w3.org/1999/xlink" xmlns:sketch="http://www.bohemiancoding.com/sketch/ns">
    <!-- Generator: Sketch 3.3.2 (12043) - http://www.bohemiancoding.com/sketch -->
    <title>Imported Layers</title>
    <desc>Created with Sketch.</desc>
    <defs></defs>
    <g id="Page-1" stroke="none" stroke-width="1" fill="none" fill-rule="evenodd" sketch:type="MSPage">
        <g id="iPhone-6" sketch:type="MSArtboardGroup" transform="translate(-128.000000, -625.000000)" fill="#FFFFFF">
            <g id="Imported-Layers" sketch:type="MSLayerGroup" transform="translate(128.000000, 625.000000)">
                <path d="M8.284,0.231666667 C3.80733333,0.231666667 0.178333333,3.86066667 0.178333333,8.33733333 C0.178333333,12.8136667 8.284,23.9816667 8.284,23.9816667 C8.284,23.9816667 16.3893333,12.8126667 16.3893333,8.336 C16.3893333,3.86066667 12.7603333,0.231666667 8.284,0.231666667 L8.284,0.231666667 Z M8.284,22.2316667 C8.284,22.2316667 1.203,12.4753333 1.203,8.56266667 C1.203,4.651 4.37366667,1.48166667 8.284,1.48166667 C12.1953333,1.48166667 15.366,4.65233333 15.366,8.56266667 C15.366,12.474 8.284,22.2316667 8.284,22.2316667 L8.284,22.2316667 Z" id="Fill-1" sketch:type="MSShapeGroup"></path>
                <path d="M8.284,5.147 C6.59633333,5.147 5.18866667,6.55466667 5.18866667,8.241 C5.18866667,9.927 6.59633333,11.3346667 8.284,11.3346667 C9.96866667,11.3346667 11.3776667,9.927 11.3776667,8.241 C11.3776667,6.55466667 9.96866667,5.147 8.284,5.147 L8.284,5.147 Z M8.284,10.366 C7.125,10.366 6.159,9.39966667 6.159,8.241 C6.159,7.082 7.125,6.116 8.284,6.116 C9.44,6.116 10.409,7.082 10.409,8.241 C10.409,9.39966667 9.44133333,10.366 8.284,10.366 L8.284,10.366 Z" id="Fill-2" sketch:type="MSShapeGroup"></path>
            </g>
        </g>
    </g>
</svg>