<?xml version="1.0" encoding="UTF-8" standalone="no"?>
<svg width="18px" height="24px" viewBox="0 0 18 24" version="1.1" xmlns="http://www.w3.org/2000/svg" xmlns:xlink="http://www.w3.org/1999/xlink">
    <!-- Generator: Sketch 3.8.2 (29753) - http://www.bohemiancoding.com/sketch -->
    <title>Combined Shape</title>
    <desc>Created with Sketch.</desc>
    <defs></defs>
    <g id="Page-1" stroke="none" stroke-width="1" fill="none" fill-rule="evenodd">
        <path d="M9,0 C4.029,0 0,4.029 0,9 C0,12.120081 1.5888411,14.867862 4,16.482422 L4,21 C4,21 6.035,24 9,24 C11.965,24 14,21 14,21 L14,16.482422 C16.411159,14.867862 18,12.120081 18,9 C18,4.029 13.971,0 9,0 L9,0 Z M9,2 C12.86,2 16,5.141 16,9 C16,12.859 12.86,16 9,16 C5.14,16 2,12.859 2,9 C2,5.141 5.14,2 9,2 L9,2 Z M6,17.476562 C6.9397054,17.809261 7.946226,18 9,18 C10.053774,18 11.060295,17.809261 12,17.476562 L12,18.310547 C11.089581,18.746635 10.074971,19 9,19 C7.925029,19 6.9104192,18.746635 6,18.310547 L6,17.476562 L6,17.476562 Z M6.2363281,20.546875 C7.108023,20.832252 8.032636,21 9,21 C9.965197,21 10.887813,20.832689 11.757812,20.548828 C11.155076,21.173162 10.152816,22 9,22 C7.89775,22 6.8827458,21.211335 6.2363281,20.546875 Z M11.745,12.449 L11.741,12.449 C10.889,12.425 10.553,11.591 10.164,10.625 C9.743,9.564 9.461,9.064 8.982,9.059 L8.973,9.059 C8.492,9.059 8.19,9.556 7.738,10.596 C7.302,11.578 6.937,12.407 6.102,12.387 L5.826,12.344 C5.261,12.173 4.973,11.653 4.542,10.55 C4.417,10.237 4.34,9.918 4.272,9.637 C4.221,9.424 4.145,9.107 4.077,9.003 C4.067,9.004 4.039,9 3.99,9 C3.438,8.994 2.994,8.543 3,7.99 C3.006,7.441 3.452,7 4,7 L4.01,7 C5.672,7.017 6.025,8.373 6.208,9.134 C6.694,8.153 7.512,7.076 9.005,7.059 C10.536,7.077 11.285,8.212 11.736,9.2 C11.736,9.198 11.737,9.194 11.738,9.192 C11.944,8.424 12.327,7 13.979,7 L14.011,7 C14.563,7.007 15.006,7.459 15,8.012 C14.994,8.56 14.547,9 14,9 L13.989,9 C13.84,9.076 13.733,9.474 13.67,9.709 C13.591,10.004 13.501,10.338 13.359,10.66 C12.93,11.633 12.569,12.449 11.745,12.449 Z" id="Combined-Shape" fill="#4A4A4A"></path>
    </g>
</svg>