<?xml version="1.0" encoding="UTF-8" standalone="no"?>
<svg width="24px" height="21px" viewBox="0 0 24 21" version="1.1" xmlns="http://www.w3.org/2000/svg" xmlns:xlink="http://www.w3.org/1999/xlink">
    <!-- Generator: Sketch 3.8.2 (29753) - http://www.bohemiancoding.com/sketch -->
    <title>Combined Shape</title>
    <desc>Created with Sketch.</desc>
    <defs></defs>
    <g id="Page-1" stroke="none" stroke-width="1" fill="none" fill-rule="evenodd">
        <path d="M6.35099464,10 C4.97299464,10 3.85099464,11.121 3.85099464,12.5 C3.85099464,13.879 4.97299464,15 6.35099464,15 C7.72899464,15 8.85099464,13.879 8.85099464,12.5 C8.85099464,11.121 7.72899464,10 6.35099464,10 M22.3329946,7.494 L21.2939946,7.148 L21.2509946,7 L21.8509946,7 C22.4029946,7 22.8509946,6.561 22.8509946,6.008 C22.8509946,6.002 22.8479946,6 22.8479946,6 L22.8509946,6 C22.8509946,5 21.9619946,4 20.8669946,4 L20.2249946,4 L19.4939946,2.283 C19.1129946,1.012 17.9419946,0 16.6149946,0 L7.08699464,0 C5.75999464,0 4.58899464,1.012 4.20799464,2.283 L3.47699464,4 L2.83499464,4 C1.73999464,4 0.850994644,5 0.850994644,6 L0.853994644,6 C0.853994644,6 0.850994644,6.002 0.850994644,6.008 C0.850994644,6.561 1.29899464,7 1.85099464,7 L2.45099464,7 L2.40799464,7.148 L1.36899464,7.494 C0.480994644,7.79 -0.0830053558,8.661 0.00999464416,9.591 L0.760994644,17.099 C0.811994644,17.611 1.24199464,18 1.75499464,18 L2.85099464,18 L2.85099464,19 C2.85099464,20.103 3.74699464,21 4.85099464,21 L6.85099464,21 C7.95499464,21 8.85099464,20.103 8.85099464,19 L8.85099464,18 L14.8509946,18 L14.8509946,19 C14.8509946,20.103 15.7469946,21 16.8509946,21 L18.8509946,21 C19.9549946,21 20.8509946,20.103 20.8509946,19 L20.8509946,18 L21.9469946,18 C22.4609946,18 22.8899946,17.611 22.9409946,17.099 L23.6919946,9.591 C23.7849946,8.661 23.2209946,7.79 22.3329946,7.494 Z M6.12399464,2.857 C6.25299464,2.43 6.63899464,2 7.08699464,2 L16.6139946,2 C17.0619946,2 17.4479946,2.43 17.5769946,2.857 L19.1639946,7 L4.53899464,7 L6.12399464,2.857 Z M6.85099464,19 L4.85099464,19 L4.85099464,18 L6.85099464,18 L6.85099464,19 Z M18.8509946,19 L16.8509946,19 L16.8509946,18 L18.8509946,18 L18.8509946,19 Z M6.35099464,13 C6.07599464,13 5.85099464,12.775 5.85099464,12.5 C5.85099464,12.225 6.07599464,12 6.35099464,12 C6.62599464,12 6.85099464,12.225 6.85099464,12.5 C6.85099464,12.775 6.62599464,13 6.35099464,13 Z M17.3509946,10 C15.9729946,10 14.8509946,11.121 14.8509946,12.5 C14.8509946,13.879 15.9729946,15 17.3509946,15 C18.7289946,15 19.8509946,13.879 19.8509946,12.5 C19.8509946,11.121 18.7289946,10 17.3509946,10 Z M17.3509946,13 C17.0759946,13 16.8509946,12.775 16.8509946,12.5 C16.8509946,12.225 17.0759946,12 17.3509946,12 C17.6259946,12 17.8509946,12.225 17.8509946,12.5 C17.8509946,12.775 17.6259946,13 17.3509946,13 Z M21.0399946,16 L20.8509946,16 L14.8509946,16 L8.85099464,16 L2.85099464,16 L2.66199464,16 L1.99999464,9.393 L2.85099464,9 L20.8509946,9 L21.7029946,9.393 L21.0399946,16 Z" id="Combined-Shape" fill="#4A4A4A"></path>
    </g>
</svg>