<?xml version="1.0" encoding="UTF-8" standalone="no"?>
<svg width="24px" height="24px" viewBox="0 0 24 24" version="1.1" xmlns="http://www.w3.org/2000/svg" xmlns:xlink="http://www.w3.org/1999/xlink">
    <!-- Generator: Sketch 3.8.2 (29753) - http://www.bohemiancoding.com/sketch -->
    <title>Combined Shape</title>
    <desc>Created with Sketch.</desc>
    <defs></defs>
    <g id="Page-1" stroke="none" stroke-width="1" fill="none" fill-rule="evenodd">
        <path d="M18.933,0 L18.906,0 C17.936,0 16.768,0.787 15.888,1.497 C14.614,1.123 13.276,0.987 12.001,0.987 C10.716,0.987 9.385,1.12 8.127,1.504 C7.245,0.79 6.069,0 5.093,0 L5.066,0 C3.352,0 0.07,2.67 0.002,7.026 C-0.037,9.505 0.278,11.264 1.042,12.039 C1.296,12.297 1.924,12.716 2.337,12.921 C2.528,16.098 3.259,18.159 4.873,19.301 C5.77,19.938 7.06,20.25 8.073,20.403 C8.04,20.6 8,20.795 8,21 C8,22.773 10.35,24 12,24 C13.648,24 16,22.773 16,21 C16,20.799 15.962,20.607 15.928,20.414 C18.501,20.029 21.363,18.537 21.853,12.827 C22.249,12.607 22.74,12.259 22.957,12.039 C23.72,11.265 24.036,9.505 23.997,7.026 C23.929,2.67 20.646,0 18.933,0 Z M3.223,9.135 C2.986,9.416 2.386,10.29 2.339,10.373 C2.189,9.963 1.971,9.024 2.002,7.082 C2.053,3.801 4.48,2.11 5.093,2.051 C5.349,2.066 5.824,2.321 6.358,2.697 C5.248,3.868 4.083,5.612 4.006,7.822 C3.873,8.368 3.608,8.68 3.223,9.135 Z M12,22 C11.099,22 10.046,21.307 10,21 C10,20.346 10.475,19.764 11,19.398 L11,20 C11,20.553 11.447,21 12,21 C12.553,21 13,20.553 13,20 L13,19.398 C13.524,19.763 14,20.345 14,21 C13.954,21.307 12.901,22 12,22 Z M15.5,8 C14.672,8 14,8.672 14,9.5 C14,10.328 14.672,11 15.5,11 C16.328,11 17,10.329 17,9.5 C17,8.671 16.328,8 15.5,8 Z M8.5,8 C7.672,8 7,8.672 7,9.5 C7,10.328 7.672,11 8.5,11 C9.328,11 10,10.329 10,9.5 C10,8.671 9.329,8 8.5,8 Z M15,18.52 L15,18.54 C14.634,18.122 14.202,17.778 13.738,17.52 C14.83,17.004 15.977,16.186 15.977,15.303 C15.977,13.461 14.196,13.108 12,13.108 C9.804,13.108 8.022,13.462 8.022,15.303 C8.022,16.186 9.17,17.004 10.26,17.52 C9.799,17.777 9.368,18.121 9,18.539 L9,18.514 C8,18.438 6.818,18.233 6.027,17.672 C4.726,16.752 4.189,14.627 4.174,11.194 C4.182,11.18 4.19,11.166 4.197,11.153 C4.693,10.327 5.687,9.703 6.001,8.051 C6.001,6.004 7.358,4.42 8.363,3.529 C9.37,3.178 10.555,3 11.948,3 C13.395,3 14.633,3.192 15.681,3.57 C16.681,4.47 17.997,6.035 17.997,8.05 C18.31,9.701 19.304,10.325 19.8,11.152 C19.835,11.21 19.868,11.269 19.902,11.33 C19.843,17.297 17.953,18.34 15,18.52 Z M21.628,10.318 C21.591,10.253 21.554,10.188 21.515,10.123 C21.282,9.736 21.013,9.417 20.776,9.136 C20.391,8.681 20.128,8.368 19.994,7.823 C19.918,5.614 18.753,3.869 17.641,2.699 C18.172,2.323 18.645,2.069 18.902,2.052 C19.538,2.123 21.946,3.816 21.998,7.083 C22.025,8.893 21.651,10.301 21.628,10.318 Z" id="Combined-Shape" fill="#4A4A4A"></path>
    </g>
</svg>