<?xml version="1.0" encoding="UTF-8" standalone="no"?>
<svg width="24px" height="24px" viewBox="0 0 24 24" version="1.1" xmlns="http://www.w3.org/2000/svg" xmlns:xlink="http://www.w3.org/1999/xlink">
    <!-- Generator: Sketch 3.8.2 (29753) - http://www.bohemiancoding.com/sketch -->
    <title>Combined Shape</title>
    <desc>Created with Sketch.</desc>
    <defs></defs>
    <g id="Page-1" stroke="none" stroke-width="1" fill="none" fill-rule="evenodd">
        <path d="M0,0 L6.084,24 L8,24 L1.916,0 L0,0 Z M21,5 L17,5 L16,1 L4,1 L7,13 L10,13 L11,17 L13,17 L24,17 L21,5 Z M6.563,3 L14.438,3 L16.438,11 L8.563,11 L6.563,3 Z M15.395,13 L12.539,14.904 L12.063,13 L15.395,13 Z M19,13 L17.5,7 L19.438,7 L21.438,15 L16,15 L19,13 Z" id="Combined-Shape" fill="#4A4A4A"></path>
    </g>
</svg>