<?xml version="1.0" encoding="UTF-8" standalone="no"?>
<svg width="25px" height="24px" viewBox="0 0 25 24" version="1.1" xmlns="http://www.w3.org/2000/svg" xmlns:xlink="http://www.w3.org/1999/xlink">
    <!-- Generator: Sketch 3.8.2 (29753) - http://www.bohemiancoding.com/sketch -->
    <title>Combined Shape</title>
    <desc>Created with Sketch.</desc>
    <defs></defs>
    <g id="Page-1" stroke="none" stroke-width="1" fill="none" fill-rule="evenodd">
        <path d="M0.5,0 L11.5,0 L11.5,2 L0.5,2 L0.5,0 Z M4.5,11 L7.5,11 L7.5,6 L11.5,6 L11.5,4 L0.5,4 L0.5,6 L4.5,6 L4.5,11 Z M16,17 C17.381,17 18.5,15.884 18.5,14.507 C18.5,13.13 17.381,12.014 16,12.014 C14.619,12.014 13.5,13.13 13.5,14.507 C13.5,15.884 14.619,17 16,17 Z M16,14.014 C16.276,14.014 16.5,14.236 16.5,14.507 C16.5,14.779 16.276,15 16,15 C15.724,15 15.5,14.779 15.5,14.507 C15.5,14.235 15.724,14.014 16,14.014 Z M22,19.014 C20.619,19.014 19.5,20.13 19.5,21.507 C19.5,22.884 20.619,24 22,24 C23.381,24 24.5,22.884 24.5,21.507 C24.5,20.13 23.381,19.014 22,19.014 Z M22,22 C21.724,22 21.5,21.779 21.5,21.507 C21.5,21.236 21.724,21.014 22,21.014 C22.276,21.014 22.5,21.236 22.5,21.507 C22.5,21.779 22.276,22 22,22 Z M22.5,13 L13.5,22 L15.013,23.5 L24.003,14.491 L22.5,13 Z M17.5,11 C19.709,11 21.5,9.881 21.5,8.5 L21.5,2 C21.5,2 22.485,1.839 22.998,2.949 C23.51,4.055 23.5,6 23.5,6 C23.5,6 24.5,4.881 24.5,2.865 C24.5,-0.02 21.5,6.17284002e-14 21.5,6.17284002e-14 L19.5,6.17284002e-14 L19.5,6.347 C18.91,6.132 18.232,6 17.5,6 C15.291,6 13.5,7.119 13.5,8.5 C13.5,9.881 15.291,11 17.5,11 Z M10.797,20.482 L9.322,18.897 C8.549,19.516 8.068,19.892 7.88,20.026 C7.573,19.738 6.891,19.01 5.835,17.843 C6.737,17.007 7.314,16.377 7.564,15.951 C7.814,15.525 7.94,15.08 7.94,14.615 C7.94,14.023 7.667,13.437 7.122,12.856 C6.576,12.275 5.793,11.985 4.773,11.985 C3.765,11.985 2.983,12.278 2.429,12.864 C1.873,13.451 1.597,14.045 1.597,14.648 C1.597,15.461 2.016,16.396 2.853,17.453 C2.006,18.067 1.409,18.661 1.059,19.237 C0.709,19.812 0.536,20.423 0.536,21.07 C0.536,21.927 0.844,22.63 1.46,23.177 C2.076,23.726 2.883,24 3.88,24 C5.053,24 6.324,23.621 7.693,22.863 L8.735,24 L11.554,24 L9.464,21.617 L10.797,20.482 Z M4.061,14.093 C4.26,13.903 4.504,13.807 4.791,13.807 C5.101,13.807 5.35,13.892 5.538,14.061 C5.727,14.232 5.821,14.452 5.821,14.72 C5.821,15.238 5.402,15.832 4.564,16.504 C4.028,15.853 3.759,15.273 3.759,14.762 C3.76,14.508 3.86,14.284 4.061,14.093 Z M4.24,22 C3.813,22 3.462,21.884 3.183,21.651 C2.904,21.419 2.765,21.164 2.765,20.885 C2.765,20.291 3.274,19.597 4.292,18.802 C5.26,19.936 6.009,20.748 6.54,21.24 C5.619,21.747 4.854,22 4.24,22 Z" id="Combined-Shape" fill="#4A4A4A"></path>
    </g>
</svg>