<?xml version="1.0" encoding="UTF-8" standalone="no"?>
<svg width="110px" height="95px" viewBox="0 0 110 95" version="1.1" xmlns="http://www.w3.org/2000/svg" xmlns:xlink="http://www.w3.org/1999/xlink" xmlns:sketch="http://www.bohemiancoding.com/sketch/ns">
    <!-- Generator: Sketch 3.3.3 (12081) - http://www.bohemiancoding.com/sketch -->
    <title>Imported Layers + Nothing Achieved</title>
    <desc>Created with Sketch.</desc>
    <defs></defs>
    <g id="Page-1" stroke="none" stroke-width="1" fill="none" fill-rule="evenodd" sketch:type="MSPage">
        <g id="iPhone-6" sketch:type="MSArtboardGroup" transform="translate(-132.625000, -440.000000)" fill="#979797">
            <g id="Imported-Layers-+-Nothing-Achieved" sketch:type="MSLayerGroup" transform="translate(133.000000, 440.000000)">
                <path d="M104.747511,37.7955358 C104.513886,37.4897854 104.153257,37.312607 103.772245,37.312607 L95.215938,37.312607 L95.215938,30.2082222 C95.215938,29.5277315 94.6718591,28.9773808 93.9913684,28.9773808 L53.3234299,28.971109 C52.7291766,25.0324167 49.3235876,22 45.2202604,22 L22.9804471,22 C18.460045,22 14.7863364,25.6752766 14.7863364,30.2019504 L14.7863364,37.312607 L6.23002922,37.312607 C5.84901719,37.312607 5.48211671,37.4897854 5.25476385,37.7955358 C5.02270714,38.1028542 4.94274166,38.4948419 5.04152255,38.8680141 L19.7410608,93.2445461 C19.8868802,93.7839211 20.371377,94.1508216 20.9295675,94.1508216 L89.0680031,94.1508216 C89.6246256,94.1508216 90.1091224,93.7839211 90.2549418,93.2445461 L104.95448,38.8680141 C105.059533,38.4948419 104.979567,38.1028542 104.747511,37.7955358 L104.747511,37.7955358 Z M17.2480191,30.214494 C17.2480191,27.0535053 19.8194583,24.4742263 22.9867189,24.4742263 L45.2202604,24.4742263 C48.385953,24.4742263 50.9589602,27.0535053 50.9589602,30.2191978 C50.9589602,30.8996884 51.5093109,31.4453353 52.1898015,31.4453353 L92.7667989,31.4453353 L92.7667989,37.3188788 L17.2480191,37.3188788 L17.2480191,30.214494 Z M88.1240967,91.6954107 L21.8719059,91.6954107 L7.83404283,39.7742897 L102.16196,39.7742897 L88.1240967,91.6954107 Z" id="Imported-Layers" sketch:type="MSShapeGroup"></path>
                <path d="M8.64550781,11 L6.64257812,11 L1.72753906,3.03613281 L1.67285156,3.03613281 L1.70703125,3.48046875 C1.77083365,4.32812924 1.80273438,5.10286107 1.80273438,5.8046875 L1.80273438,11 L0.319335938,11 L0.319335938,1.00585938 L2.30175781,1.00585938 L7.203125,8.92871094 L7.24414062,8.92871094 C7.235026,8.82389271 7.21679701,8.44222334 7.18945312,7.78369141 C7.16210924,7.12515947 7.1484375,6.61132997 7.1484375,6.2421875 L7.1484375,1.00585938 L8.64550781,1.00585938 L8.64550781,11 Z M17.8193359,7.20605469 C17.8193359,8.4410869 17.5026073,9.40494445 16.8691406,10.0976562 C16.2356739,10.790368 15.3538468,11.1367188 14.2236328,11.1367188 C13.5172491,11.1367188 12.8929064,10.9772151 12.3505859,10.6582031 C11.8082655,10.3391911 11.3912775,9.88118788 11.0996094,9.28417969 C10.8079412,8.68717149 10.6621094,7.99447009 10.6621094,7.20605469 C10.6621094,5.9801371 10.9765594,5.02311542 11.6054688,4.33496094 C12.2343781,3.64680646 13.1207625,3.30273438 14.2646484,3.30273438 C15.3584039,3.30273438 16.2242807,3.65478164 16.8623047,4.35888672 C17.5003287,5.0629918 17.8193359,6.0120383 17.8193359,7.20605469 L17.8193359,7.20605469 Z M12.3164062,7.20605469 C12.3164062,8.95150612 12.9612566,9.82421875 14.2509766,9.82421875 C15.5270246,9.82421875 16.1650391,8.95150612 16.1650391,7.20605469 C16.1650391,5.47883251 15.5224674,4.61523438 14.2373047,4.61523438 C13.5628221,4.61523438 13.0740575,4.83853943 12.7709961,5.28515625 C12.4679347,5.73177307 12.3164062,6.37206614 12.3164062,7.20605469 L12.3164062,7.20605469 Z M22.4814453,9.83789062 C22.8733744,9.83789062 23.2652975,9.7763678 23.6572266,9.65332031 L23.6572266,10.8632812 C23.4794913,10.9407556 23.2504897,11.0056964 22.9702148,11.0581055 C22.68994,11.1105146 22.3994156,11.1367188 22.0986328,11.1367188 C20.5764898,11.1367188 19.8154297,10.3346434 19.8154297,8.73046875 L19.8154297,4.65625 L18.7832031,4.65625 L18.7832031,3.9453125 L19.890625,3.35742188 L20.4375,1.7578125 L21.4287109,1.7578125 L21.4287109,3.43945312 L23.5820312,3.43945312 L23.5820312,4.65625 L21.4287109,4.65625 L21.4287109,8.703125 C21.4287109,9.09049673 21.5255524,9.37646392 21.7192383,9.56103516 C21.9129241,9.74560639 22.1669906,9.83789062 22.4814453,9.83789062 L22.4814453,9.83789062 Z M31.8193359,11 L30.2060547,11 L30.2060547,6.3515625 C30.2060547,5.76822625 30.0887056,5.33300925 29.8540039,5.04589844 C29.6193022,4.75878763 29.2467473,4.61523438 28.7363281,4.61523438 C28.0618456,4.61523438 27.5662451,4.81689251 27.2495117,5.22021484 C26.9327784,5.62353717 26.7744141,6.29914891 26.7744141,7.24707031 L26.7744141,11 L25.1679688,11 L25.1679688,0.36328125 L26.7744141,0.36328125 L26.7744141,3.06347656 C26.7744141,3.49642144 26.7470706,3.95898191 26.6923828,4.45117188 L26.7949219,4.45117188 C27.013673,4.08658672 27.3178691,3.80403746 27.7075195,3.60351562 C28.0971699,3.40299379 28.5517552,3.30273438 29.0712891,3.30273438 C30.9033295,3.30273438 31.8193359,4.22557671 31.8193359,6.07128906 L31.8193359,11 Z M35.6611328,11 L34.0546875,11 L34.0546875,3.43945312 L35.6611328,3.43945312 L35.6611328,11 Z M33.9589844,1.43652344 C33.9589844,1.14941263 34.0375969,0.928386191 34.1948242,0.7734375 C34.3520516,0.618488809 34.5764959,0.541015625 34.8681641,0.541015625 C35.1507176,0.541015625 35.3706047,0.618488809 35.527832,0.7734375 C35.6850594,0.928386191 35.7636719,1.14941263 35.7636719,1.43652344 C35.7636719,1.7099623 35.6850594,1.92529218 35.527832,2.08251953 C35.3706047,2.23974688 35.1507176,2.31835938 34.8681641,2.31835938 C34.5764959,2.31835938 34.3520516,2.23974688 34.1948242,2.08251953 C34.0375969,1.92529218 33.9589844,1.7099623 33.9589844,1.43652344 L33.9589844,1.43652344 Z M44.609375,11 L42.9960938,11 L42.9960938,6.3515625 C42.9960938,5.76822625 42.8787447,5.33300925 42.644043,5.04589844 C42.4093413,4.75878763 42.0367864,4.61523438 41.5263672,4.61523438 C40.8473273,4.61523438 40.3505875,4.8157532 40.0361328,5.21679688 C39.7216781,5.61784055 39.5644531,6.29003435 39.5644531,7.23339844 L39.5644531,11 L37.9580078,11 L37.9580078,3.43945312 L39.2158203,3.43945312 L39.4414062,4.43066406 L39.5234375,4.43066406 C39.7513032,4.07063622 40.0748677,3.79264421 40.4941406,3.59667969 C40.9134136,3.40071517 41.3782527,3.30273438 41.8886719,3.30273438 C43.702483,3.30273438 44.609375,4.22557671 44.609375,6.07128906 L44.609375,11 Z M53.2294922,3.43945312 L53.2294922,4.32128906 L51.9375,4.56054688 C52.0559902,4.72005288 52.153971,4.91601446 52.2314453,5.1484375 C52.3089197,5.38086054 52.3476562,5.62695183 52.3476562,5.88671875 C52.3476562,6.66601952 52.0787787,7.27896912 51.5410156,7.72558594 C51.0032525,8.17220275 50.2627,8.39550781 49.3193359,8.39550781 C49.0777983,8.39550781 48.8590505,8.37727883 48.6630859,8.34082031 C48.31673,8.55501409 48.1435547,8.80566263 48.1435547,9.09277344 C48.1435547,9.26595139 48.2244458,9.3958329 48.3862305,9.48242188 C48.5480151,9.56901085 48.8453754,9.61230469 49.2783203,9.61230469 L50.5976562,9.61230469 C51.4316448,9.61230469 52.065102,9.79003729 52.4980469,10.1455078 C52.9309917,10.5009783 53.1474609,11.0136685 53.1474609,11.6835938 C53.1474609,12.5403689 52.7942744,13.2011696 52.0878906,13.6660156 C51.3815069,14.1308617 50.3606838,14.3632812 49.0253906,14.3632812 C47.9954376,14.3632812 47.2093126,14.1809914 46.6669922,13.8164062 C46.1246718,13.4518211 45.8535156,12.932295 45.8535156,12.2578125 C45.8535156,11.7929664 46.0004868,11.4021826 46.2944336,11.0854492 C46.5883804,10.7687159 46.9996718,10.5488287 47.5283203,10.4257812 C47.3141265,10.334635 47.1375332,10.1876638 46.9985352,9.98486328 C46.8595371,9.78206279 46.7900391,9.56901153 46.7900391,9.34570312 C46.7900391,9.06314963 46.8697909,8.82389421 47.0292969,8.62792969 C47.1888029,8.43196517 47.4257797,8.23828221 47.7402344,8.046875 C47.3483053,7.87825437 47.0304374,7.60368029 46.7866211,7.22314453 C46.5428048,6.84260877 46.4208984,6.39713797 46.4208984,5.88671875 C46.4208984,5.06640215 46.6795222,4.43066632 47.1967773,3.97949219 C47.7140325,3.52831806 48.4511671,3.30273438 49.4082031,3.30273438 C49.6223969,3.30273438 49.8468413,3.31754542 50.081543,3.34716797 C50.3162447,3.37679051 50.4928379,3.40755192 50.6113281,3.43945312 L53.2294922,3.43945312 Z M47.2890625,12.1757812 C47.2890625,12.5221371 47.4451482,12.788736 47.7573242,12.9755859 C48.0695003,13.1624358 48.5081352,13.2558594 49.0732422,13.2558594 C49.9482466,13.2558594 50.5999328,13.1305351 51.0283203,12.8798828 C51.4567079,12.6292305 51.6708984,12.2965516 51.6708984,11.8818359 C51.6708984,11.5537093 51.5535494,11.3201504 51.3188477,11.1811523 C51.084146,11.0421543 50.6477896,10.9726562 50.0097656,10.9726562 L48.7929688,10.9726562 C48.33268,10.9726562 47.966961,11.0808908 47.6958008,11.2973633 C47.4246406,11.5138357 47.2890625,11.8066388 47.2890625,12.1757812 L47.2890625,12.1757812 Z M47.9794922,5.88671875 C47.9794922,6.36067945 48.1013985,6.72525914 48.3452148,6.98046875 C48.5890312,7.23567836 48.9387998,7.36328125 49.3945312,7.36328125 C50.3242234,7.36328125 50.7890625,6.86654143 50.7890625,5.87304688 C50.7890625,5.38085691 50.673992,5.00146618 50.4438477,4.73486328 C50.2137033,4.46826039 49.8639346,4.33496094 49.3945312,4.33496094 C48.9296852,4.33496094 48.5776379,4.46712107 48.3383789,4.73144531 C48.0991199,4.99576955 47.9794922,5.38085685 47.9794922,5.88671875 L47.9794922,5.88671875 Z M64.6386719,11 L63.640625,8.22460938 L59.8193359,8.22460938 L58.8417969,11 L57.1191406,11 L60.8583984,0.96484375 L62.6357422,0.96484375 L66.375,11 L64.6386719,11 Z M63.2099609,6.81640625 L62.2734375,4.09570312 C62.2050778,3.91341055 62.1105149,3.62630404 61.9897461,3.234375 C61.8689773,2.84244596 61.7858075,2.55533945 61.7402344,2.37304688 C61.6171869,2.93359655 61.4371757,3.54654615 61.2001953,4.21191406 L60.2978516,6.81640625 L63.2099609,6.81640625 Z M70.5722656,11.1367188 C69.4283797,11.1367188 68.559085,10.8029005 67.9643555,10.1352539 C67.3696259,9.46760734 67.0722656,8.50944635 67.0722656,7.26074219 C67.0722656,5.98925146 67.3832977,5.01172217 68.0053711,4.328125 C68.6274445,3.64452783 69.5263613,3.30273438 70.7021484,3.30273438 C71.4996785,3.30273438 72.2174447,3.45084487 72.8554688,3.74707031 L72.3701172,5.0390625 C71.6910773,4.77473826 71.1305361,4.64257812 70.6884766,4.64257812 C69.3805273,4.64257812 68.7265625,5.51073351 68.7265625,7.24707031 C68.7265625,8.0947308 68.889484,8.73160594 69.215332,9.15771484 C69.54118,9.58382375 70.0185515,9.796875 70.6474609,9.796875 C71.3629593,9.796875 72.0397104,9.6191424 72.6777344,9.26367188 L72.6777344,10.6650391 C72.3906236,10.8336597 72.0841488,10.9544267 71.7583008,11.0273438 C71.4324528,11.1002608 71.0371117,11.1367188 70.5722656,11.1367188 L70.5722656,11.1367188 Z M81.1064453,11 L79.4931641,11 L79.4931641,6.3515625 C79.4931641,5.76822625 79.375815,5.33300925 79.1411133,5.04589844 C78.9064116,4.75878763 78.5338567,4.61523438 78.0234375,4.61523438 C77.348955,4.61523438 76.8533544,4.81689251 76.5366211,5.22021484 C76.2198877,5.62353717 76.0615234,6.29914891 76.0615234,7.24707031 L76.0615234,11 L74.4550781,11 L74.4550781,0.36328125 L76.0615234,0.36328125 L76.0615234,3.06347656 C76.0615234,3.49642144 76.03418,3.95898191 75.9794922,4.45117188 L76.0820312,4.45117188 C76.3007823,4.08658672 76.6049785,3.80403746 76.9946289,3.60351562 C77.3842793,3.40299379 77.8388646,3.30273438 78.3583984,3.30273438 C80.1904388,3.30273438 81.1064453,4.22557671 81.1064453,6.07128906 L81.1064453,11 Z M84.9482422,11 L83.3417969,11 L83.3417969,3.43945312 L84.9482422,3.43945312 L84.9482422,11 Z M83.2460938,1.43652344 C83.2460938,1.14941263 83.3247062,0.928386191 83.4819336,0.7734375 C83.6391609,0.618488809 83.8636053,0.541015625 84.1552734,0.541015625 C84.4378269,0.541015625 84.6577141,0.618488809 84.8149414,0.7734375 C84.9721688,0.928386191 85.0507812,1.14941263 85.0507812,1.43652344 C85.0507812,1.7099623 84.9721688,1.92529218 84.8149414,2.08251953 C84.6577141,2.23974688 84.4378269,2.31835938 84.1552734,2.31835938 C83.8636053,2.31835938 83.6391609,2.23974688 83.4819336,2.08251953 C83.3247062,1.92529218 83.2460938,1.7099623 83.2460938,1.43652344 L83.2460938,1.43652344 Z M88.9677734,11 L86.0966797,3.43945312 L87.7919922,3.43945312 L89.3300781,7.83496094 C89.5944024,8.57324588 89.753906,9.17024512 89.8085938,9.62597656 L89.8632812,9.62597656 C89.9042971,9.29784992 90.0638007,8.70085068 90.3417969,7.83496094 L91.8798828,3.43945312 L93.5888672,3.43945312 L90.7041016,11 L88.9677734,11 Z M98.0390625,11.1367188 C96.8632754,11.1367188 95.943851,10.793786 95.2807617,10.1079102 C94.6176725,9.42203433 94.2861328,8.47754508 94.2861328,7.27441406 C94.2861328,6.03938185 94.5937469,5.06868843 95.2089844,4.36230469 C95.8242218,3.65592095 96.669591,3.30273438 97.7451172,3.30273438 C98.7431691,3.30273438 99.5315726,3.60579124 100.110352,4.21191406 C100.68913,4.81803688 100.978516,5.65201292 100.978516,6.71386719 L100.978516,7.58203125 L95.9404297,7.58203125 C95.9632163,8.31575888 96.1614565,8.87971808 96.5351562,9.27392578 C96.908856,9.66813348 97.435218,9.86523438 98.1142578,9.86523438 C98.5608746,9.86523438 98.9767233,9.82307985 99.3618164,9.73876953 C99.7469095,9.65445921 100.16048,9.5143239 100.602539,9.31835938 L100.602539,10.6240234 C100.21061,10.8108733 99.8141296,10.9430335 99.4130859,11.0205078 C99.0120423,11.0979822 98.554039,11.1367188 98.0390625,11.1367188 L98.0390625,11.1367188 Z M97.7451172,4.51953125 C97.234698,4.51953125 96.8256851,4.68131349 96.5180664,5.00488281 C96.2104477,5.32845214 96.0270185,5.80012711 95.9677734,6.41992188 L99.3994141,6.41992188 C99.3902994,5.79556979 99.2399103,5.32275551 98.9482422,5.00146484 C98.6565741,4.68017417 98.2555364,4.51953125 97.7451172,4.51953125 L97.7451172,4.51953125 Z M105.353516,11.1367188 C104.410152,11.1367188 103.674156,10.7949253 103.145508,10.1113281 C102.616859,9.42773096 102.352539,8.46843065 102.352539,7.23339844 C102.352539,5.99380891 102.620277,5.02881205 103.155762,4.33837891 C103.691246,3.64794577 104.432938,3.30273438 105.380859,3.30273438 C106.374354,3.30273438 107.130857,3.66959269 107.650391,4.40332031 L107.732422,4.40332031 C107.654948,3.86099989 107.616211,3.43261876 107.616211,3.11816406 L107.616211,0.36328125 L109.229492,0.36328125 L109.229492,11 L107.97168,11 L107.691406,10.0087891 L107.616211,10.0087891 C107.101234,10.7607459 106.34701,11.1367188 105.353516,11.1367188 L105.353516,11.1367188 Z M105.78418,9.83789062 C106.44499,9.83789062 106.92578,9.65218285 107.226562,9.28076172 C107.527345,8.90934059 107.682292,8.30664479 107.691406,7.47265625 L107.691406,7.24707031 C107.691406,6.29459159 107.53646,5.61784055 107.226562,5.21679688 C106.916665,4.8157532 106.431318,4.61523438 105.770508,4.61523438 C105.205401,4.61523438 104.770184,4.84423599 104.464844,5.30224609 C104.159504,5.7602562 104.006836,6.4130817 104.006836,7.26074219 C104.006836,8.09928805 104.154946,8.73844181 104.451172,9.17822266 C104.747397,9.6180035 105.191729,9.83789062 105.78418,9.83789062 L105.78418,9.83789062 Z" id="Nothing-Achived" sketch:type="MSShapeGroup"></path>
            </g>
        </g>
    </g>
</svg>