<?xml version="1.0" encoding="UTF-8" standalone="no"?>
<svg width="91px" height="94px" viewBox="0 0 91 94" version="1.1" xmlns="http://www.w3.org/2000/svg" xmlns:xlink="http://www.w3.org/1999/xlink" xmlns:sketch="http://www.bohemiancoding.com/sketch/ns">
    <!-- Generator: Sketch 3.4.4 (17249) - http://www.bohemiancoding.com/sketch -->
    <title>All caught up. + Page 1</title>
    <desc>Created with Sketch.</desc>
    <defs></defs>
    <g id="Page-1" stroke="none" stroke-width="1" fill="none" fill-rule="evenodd" sketch:type="MSPage">
        <g id="All-caught-up.-+-Page-1" sketch:type="MSLayerGroup" fill="#979797">
            <path d="M7.51953125,90 L6.52148438,87.2246094 L2.70019531,87.2246094 L1.72265625,90 L0,90 L3.73925781,79.9648438 L5.51660156,79.9648438 L9.25585938,90 L7.51953125,90 Z M6.09082031,85.8164062 L5.15429688,83.0957031 C5.08593716,82.9134105 4.9913743,82.626304 4.87060547,82.234375 C4.74983664,81.842446 4.66666689,81.5553395 4.62109375,81.3730469 C4.49804626,81.9335966 4.31803504,82.5465462 4.08105469,83.2119141 L3.17871094,85.8164062 L6.09082031,85.8164062 Z M12.0107422,90 L10.4042969,90 L10.4042969,79.3632812 L12.0107422,79.3632812 L12.0107422,90 Z M15.9140625,90 L14.3076172,90 L14.3076172,79.3632812 L15.9140625,79.3632812 L15.9140625,90 Z M24.8964844,90.1367188 C23.7525984,90.1367188 22.8833038,89.8029005 22.2885742,89.1352539 C21.6938447,88.4676073 21.3964844,87.5094463 21.3964844,86.2607422 C21.3964844,84.9892515 21.7075164,84.0117222 22.3295898,83.328125 C22.9516633,82.6445278 23.8505801,82.3027344 25.0263672,82.3027344 C25.8238972,82.3027344 26.5416635,82.4508449 27.1796875,82.7470703 L26.6943359,84.0390625 C26.0152961,83.7747383 25.4547548,83.6425781 25.0126953,83.6425781 C23.7047461,83.6425781 23.0507812,84.5107335 23.0507812,86.2470703 C23.0507812,87.0947308 23.2137028,87.7316059 23.5395508,88.1577148 C23.8653988,88.5838237 24.3427703,88.796875 24.9716797,88.796875 C25.6871781,88.796875 26.3639291,88.6191424 27.0019531,88.2636719 L27.0019531,89.6650391 C26.7148423,89.8336597 26.4083675,89.9544267 26.0825195,90.0273438 C25.7566715,90.1002608 25.3613304,90.1367188 24.8964844,90.1367188 L24.8964844,90.1367188 Z M33.5097656,90 L33.1884766,88.9472656 L33.1337891,88.9472656 C32.7692039,89.4075544 32.4023456,89.7208651 32.0332031,89.887207 C31.6640607,90.053549 31.1901071,90.1367188 30.6113281,90.1367188 C29.8684859,90.1367188 29.2885763,89.9361999 28.871582,89.5351562 C28.4545878,89.1341126 28.2460937,88.5667354 28.2460937,87.8330078 C28.2460937,87.053707 28.5354789,86.4658223 29.1142578,86.0693359 C29.6930367,85.6728496 30.5748639,85.4563804 31.7597656,85.4199219 L33.0654297,85.3789062 L33.0654297,84.9755859 C33.0654297,84.4925106 32.9526378,84.1313489 32.7270508,83.8920898 C32.5014637,83.6528308 32.1516951,83.5332031 31.6777344,83.5332031 C31.2903626,83.5332031 30.9189471,83.5901687 30.5634766,83.7041016 C30.208006,83.8180344 29.8662126,83.9524732 29.5380859,84.1074219 L29.0185547,82.9589844 C29.428713,82.7447906 29.8776017,82.581869 30.3652344,82.4702148 C30.852867,82.3585606 31.3131489,82.3027344 31.7460937,82.3027344 C32.7076871,82.3027344 33.4334285,82.5123677 33.9233398,82.9316406 C34.4132511,83.3509136 34.6582031,84.0094356 34.6582031,84.9072266 L34.6582031,90 L33.5097656,90 Z M31.1171875,88.90625 C31.7005238,88.90625 32.1687808,88.7433285 32.5219727,88.4174805 C32.8751645,88.0916325 33.0517578,87.6347686 33.0517578,87.046875 L33.0517578,86.390625 L32.0810547,86.4316406 C31.3245405,86.4589845 30.774253,86.5854481 30.4301758,86.8110352 C30.0860985,87.0366222 29.9140625,87.3818336 29.9140625,87.8466797 C29.9140625,88.183921 30.0143219,88.4448233 30.2148438,88.6293945 C30.4153656,88.8139658 30.7161438,88.90625 31.1171875,88.90625 L31.1171875,88.90625 Z M42.2324219,90 L42.0068359,89.0087891 L41.9248047,89.0087891 C41.7014963,89.3597023 41.3836284,89.6354157 40.9711914,89.8359375 C40.5587544,90.0364593 40.0882188,90.1367188 39.5595703,90.1367188 C38.6435501,90.1367188 37.9599632,89.9088564 37.5087891,89.453125 C37.0576149,88.9973936 36.8320312,88.3069708 36.8320312,87.3818359 L36.8320312,82.4394531 L38.4521484,82.4394531 L38.4521484,87.1015625 C38.4521484,87.6803414 38.5706368,88.1144191 38.8076172,88.4038086 C39.0445975,88.6931981 39.4160131,88.8378906 39.921875,88.8378906 C40.5963575,88.8378906 41.0919581,88.6362325 41.4086914,88.2329102 C41.7254248,87.8295878 41.8837891,87.1539761 41.8837891,86.2060547 L41.8837891,82.4394531 L43.4970703,82.4394531 L43.4970703,90 L42.2324219,90 Z M52.171875,82.4394531 L52.171875,83.3212891 L50.8798828,83.5605469 C50.998373,83.7200529 51.0963538,83.9160145 51.1738281,84.1484375 C51.2513025,84.3808605 51.2900391,84.6269518 51.2900391,84.8867188 C51.2900391,85.6660195 51.0211615,86.2789691 50.4833984,86.7255859 C49.9456353,87.1722028 49.2050828,87.3955078 48.2617188,87.3955078 C48.0201811,87.3955078 47.8014333,87.3772788 47.6054688,87.3408203 C47.2591129,87.5550141 47.0859375,87.8056626 47.0859375,88.0927734 C47.0859375,88.2659514 47.1668286,88.3958329 47.3286133,88.4824219 C47.4903979,88.5690108 47.7877583,88.6123047 48.2207031,88.6123047 L49.5400391,88.6123047 C50.3740276,88.6123047 51.0074848,88.7900373 51.4404297,89.1455078 C51.8733746,89.5009783 52.0898438,90.0136685 52.0898438,90.6835938 C52.0898438,91.5403689 51.7366572,92.2011696 51.0302734,92.6660156 C50.3238897,93.1308617 49.3030666,93.3632812 47.9677734,93.3632812 C46.9378204,93.3632812 46.1516954,93.1809914 45.609375,92.8164062 C45.0670546,92.4518211 44.7958984,91.932295 44.7958984,91.2578125 C44.7958984,90.7929664 44.9428696,90.4021826 45.2368164,90.0854492 C45.5307632,89.7687159 45.9420546,89.5488287 46.4707031,89.4257812 C46.2565093,89.334635 46.0799161,89.1876638 45.940918,88.9848633 C45.8019199,88.7820628 45.7324219,88.5690115 45.7324219,88.3457031 C45.7324219,88.0631496 45.8121737,87.8238942 45.9716797,87.6279297 C46.1311857,87.4319652 46.3681625,87.2382822 46.6826172,87.046875 C46.2906881,86.8782544 45.9728202,86.6036803 45.7290039,86.2231445 C45.4851876,85.8426088 45.3632812,85.397138 45.3632812,84.8867188 C45.3632812,84.0664021 45.621905,83.4306663 46.1391602,82.9794922 C46.6564153,82.5283181 47.3935499,82.3027344 48.3505859,82.3027344 C48.5647797,82.3027344 48.7892241,82.3175454 49.0239258,82.347168 C49.2586275,82.3767905 49.4352208,82.4075519 49.5537109,82.4394531 L52.171875,82.4394531 Z M46.2314453,91.1757812 C46.2314453,91.5221371 46.387531,91.788736 46.699707,91.9755859 C47.0118831,92.1624358 47.450518,92.2558594 48.015625,92.2558594 C48.8906294,92.2558594 49.5423156,92.1305351 49.9707031,91.8798828 C50.3990907,91.6292305 50.6132812,91.2965516 50.6132812,90.8818359 C50.6132812,90.5537093 50.4959322,90.3201504 50.2612305,90.1811523 C50.0265288,90.0421543 49.5901725,89.9726562 48.9521484,89.9726562 L47.7353516,89.9726562 C47.2750628,89.9726562 46.9093438,90.0808908 46.6381836,90.2973633 C46.3670234,90.5138357 46.2314453,90.8066388 46.2314453,91.1757812 L46.2314453,91.1757812 Z M46.921875,84.8867188 C46.921875,85.3606795 47.0437813,85.7252591 47.2875977,85.9804688 C47.531414,86.2356784 47.8811826,86.3632812 48.3369141,86.3632812 C49.2666062,86.3632812 49.7314453,85.8665414 49.7314453,84.8730469 C49.7314453,84.3808569 49.6163748,84.0014662 49.3862305,83.7348633 C49.1560861,83.4682604 48.8063175,83.3349609 48.3369141,83.3349609 C47.872068,83.3349609 47.5200207,83.4671211 47.2807617,83.7314453 C47.0415027,83.9957696 46.921875,84.3808568 46.921875,84.8867188 L46.921875,84.8867188 Z M60.2246094,90 L58.6113281,90 L58.6113281,85.3515625 C58.6113281,84.7682262 58.493979,84.3330092 58.2592773,84.0458984 C58.0245756,83.7587876 57.6520208,83.6152344 57.1416016,83.6152344 C56.467119,83.6152344 55.9715185,83.8168925 55.6547852,84.2202148 C55.3380518,84.6235372 55.1796875,85.2991489 55.1796875,86.2470703 L55.1796875,90 L53.5732422,90 L53.5732422,79.3632812 L55.1796875,79.3632812 L55.1796875,82.0634766 C55.1796875,82.4964214 55.152344,82.9589819 55.0976562,83.4511719 L55.2001953,83.4511719 C55.4189464,83.0865867 55.7231426,82.8040375 56.112793,82.6035156 C56.5024434,82.4029938 56.9570287,82.3027344 57.4765625,82.3027344 C59.3086029,82.3027344 60.2246094,83.2255767 60.2246094,85.0712891 L60.2246094,90 Z M65.2763672,88.8378906 C65.6682962,88.8378906 66.0602194,88.7763678 66.4521484,88.6533203 L66.4521484,89.8632812 C66.2744132,89.9407556 66.0454116,90.0056964 65.7651367,90.0581055 C65.4848619,90.1105146 65.1943374,90.1367188 64.8935547,90.1367188 C63.3714117,90.1367188 62.6103516,89.3346434 62.6103516,87.7304688 L62.6103516,83.65625 L61.578125,83.65625 L61.578125,82.9453125 L62.6855469,82.3574219 L63.2324219,80.7578125 L64.2236328,80.7578125 L64.2236328,82.4394531 L66.3769531,82.4394531 L66.3769531,83.65625 L64.2236328,83.65625 L64.2236328,87.703125 C64.2236328,88.0904967 64.3204743,88.3764639 64.5141602,88.5610352 C64.707846,88.7456064 64.9619125,88.8378906 65.2763672,88.8378906 L65.2763672,88.8378906 Z M76.9316406,90 L76.7060547,89.0087891 L76.6240234,89.0087891 C76.400715,89.3597023 76.0828471,89.6354157 75.6704102,89.8359375 C75.2579732,90.0364593 74.7874375,90.1367188 74.2587891,90.1367188 C73.3427689,90.1367188 72.6591819,89.9088564 72.2080078,89.453125 C71.7568337,88.9973936 71.53125,88.3069708 71.53125,87.3818359 L71.53125,82.4394531 L73.1513672,82.4394531 L73.1513672,87.1015625 C73.1513672,87.6803414 73.2698556,88.1144191 73.5068359,88.4038086 C73.7438163,88.6931981 74.1152318,88.8378906 74.6210938,88.8378906 C75.2955763,88.8378906 75.7911768,88.6362325 76.1079102,88.2329102 C76.4246435,87.8295878 76.5830078,87.1539761 76.5830078,86.2060547 L76.5830078,82.4394531 L78.1962891,82.4394531 L78.1962891,90 L76.9316406,90 Z M84.3212891,90.1367188 C83.364253,90.1367188 82.6214219,89.7926467 82.0927734,89.1044922 L81.9970703,89.1044922 C82.0608727,89.7425162 82.0927734,90.1298821 82.0927734,90.2666016 L82.0927734,93.3632812 L80.4863281,93.3632812 L80.4863281,82.4394531 L81.7851562,82.4394531 C81.8216148,82.5807299 81.8968093,82.9179661 82.0107422,83.4511719 L82.0927734,83.4511719 C82.594078,82.685543 83.3460236,82.3027344 84.3486328,82.3027344 C85.2919969,82.3027344 86.0268528,82.6445278 86.5532227,83.328125 C87.0795925,84.0117222 87.3427734,84.9710225 87.3427734,86.2060547 C87.3427734,87.4410869 87.0750352,88.4049445 86.5395508,89.0976562 C86.0040663,89.790368 85.2646532,90.1367188 84.3212891,90.1367188 L84.3212891,90.1367188 Z M83.9316406,83.6152344 C83.2936166,83.6152344 82.8276382,83.8020815 82.5336914,84.1757812 C82.2397446,84.549481 82.0927734,85.1464803 82.0927734,85.9667969 L82.0927734,86.2060547 C82.0927734,87.1266322 82.2386053,87.7931294 82.5302734,88.2055664 C82.8219416,88.6180034 83.2981738,88.8242188 83.9589844,88.8242188 C84.5149767,88.8242188 84.9433579,88.5963564 85.2441406,88.140625 C85.5449234,87.6848936 85.6953125,87.035486 85.6953125,86.1923828 C85.6953125,85.3447223 85.5460627,84.7032899 85.2475586,84.2680664 C84.9490545,83.8328429 84.5104196,83.6152344 83.9316406,83.6152344 L83.9316406,83.6152344 Z M88.9697266,89.1455078 C88.9697266,88.8128239 89.0563142,88.5576181 89.2294922,88.3798828 C89.4026701,88.2021475 89.6533187,88.1132812 89.9814453,88.1132812 C90.3141293,88.1132812 90.5670564,88.2055655 90.7402344,88.3901367 C90.9134123,88.574708 91,88.8264958 91,89.1455078 C91,89.4690771 90.912273,89.7254222 90.7368164,89.9145508 C90.5613598,90.1036793 90.309572,90.1982422 89.9814453,90.1982422 C89.6533187,90.1982422 89.4026701,90.1048186 89.2294922,89.9179688 C89.0563142,89.7311189 88.9697266,89.4736345 88.9697266,89.1455078 L88.9697266,89.1455078 Z" id="All-caught-up." sketch:type="MSShapeGroup"></path>
            <path d="M71.801,13.8460609 C74.977,11.8730609 77.875,12.2370609 80.5,14.9360609 C80.051,12.5100609 79.148,10.3970609 77.801,8.59606094 C74.801,5.02206094 70.676,5.02206094 65.426,8.59606094 C64.375,5.62306094 62.949,3.29906094 61.148,1.62306094 C57.25,-1.82593906 53.074,0.221060943 48.625,7.77206094 C50.102,6.84606094 51.875,6.45906094 53.949,6.61206094 C56.801,7.48706094 58.449,9.49806094 58.898,12.6470609 C56.949,11.5960609 54.926,11.3730609 52.824,11.9710609 C48.625,13.0450609 46.074,17.4240609 45.176,25.0960609 C45.742,23.6120609 47.98,22.0490609 51.887,20.4080609 C55.793,18.7680609 58.758,18.8300609 60.773,20.5960609 L52.375,34.9980609 C48.398,42.3220609 45.438,49.6740609 43.488,57.0490609 C42.012,52.8500609 39.727,47.9080609 36.625,42.2370609 L32.352,36.1580609 C33.402,33.2830609 35.875,32.5220609 39.773,33.8730609 C41.723,34.6230609 43.523,35.6860609 45.176,37.0610609 C44.426,31.3340609 42.102,28.0220609 38.199,27.1230609 C36.324,26.7480609 34.449,26.8970609 32.574,27.5720609 C33.176,25.2990609 34.898,23.8620609 37.75,23.2600609 C39.25,22.8110609 40.602,22.6580609 41.801,22.8110609 C37.898,18.0100609 34.227,16.8850609 30.773,19.4360609 C28.973,20.7830609 27.625,22.5960609 26.727,24.8730609 C21.926,22.1470609 18.176,22.0720609 15.477,24.6470609 C14.277,25.9980609 13.449,27.5720609 13,29.3730609 C14.949,27.5720609 17.125,27.0490609 19.523,27.7990609 C20.723,28.1000609 21.699,28.6230609 22.449,29.3730609 C17.801,31.4710609 16.074,34.8620609 17.273,39.5330609 C17.875,41.9360609 18.926,44.0330609 20.426,45.8340609 C19.824,41.9360609 20.801,39.2370609 23.352,37.7370609 C24.801,36.8850609 26.074,36.5840609 27.176,36.8340609 C30.523,39.0610609 33.477,46.5840609 36.023,59.4080609 C31.824,59.9830609 28.449,60.9980609 25.898,62.4480609 C23.301,63.9240609 22,65.6120609 22,67.5100609 L63.398,67.5100609 C63.398,63.7600609 59.199,61.1350609 50.801,59.6350609 C56.648,39.4590609 61.438,27.0720609 65.164,22.4710609 C67.355,22.1580609 69.117,23.3690609 70.449,26.1120609 C71.781,28.8500609 72.434,32.4240609 72.398,36.8340609 C74.051,34.4080609 75.25,31.6230609 76,28.4710609 C77.199,22.2950609 75.25,17.7830609 70.148,14.9360609 L71.801,13.8460609 Z" id="Page-1" sketch:type="MSShapeGroup"></path>
        </g>
    </g>
</svg>