<?xml version="1.0" encoding="UTF-8" standalone="no"?>
<svg width="107px" height="113px" viewBox="0 0 107 113" version="1.1" xmlns="http://www.w3.org/2000/svg" xmlns:xlink="http://www.w3.org/1999/xlink" xmlns:sketch="http://www.bohemiancoding.com/sketch/ns">
    <!-- Generator: Sketch 3.3.3 (12081) - http://www.bohemiancoding.com/sketch -->
    <title>No chats yet + Imported Layers</title>
    <desc>Created with Sketch.</desc>
    <defs></defs>
    <g id="Page-1" stroke="none" stroke-width="1" fill="none" fill-rule="evenodd" sketch:type="MSPage">
        <g id="iPhone-6" sketch:type="MSArtboardGroup" transform="translate(-134.625000, -26.000000)" fill="#979797">
            <g id="No-chats-yet-+-Imported-Layers" sketch:type="MSLayerGroup" transform="translate(135.000000, 26.000000)">
                <path d="M17.0454545,112.5 L17.0454545,92.4418182 L6.39272727,92.4418182 C2.86909091,92.4418182 0,89.5727273 0,86.0509091 L0,26.3909091 C0,22.8690909 2.86909091,20 6.39272727,20 L100.141818,20 C103.665455,20 106.534545,22.8690909 106.534545,26.3909091 L106.534545,86.0509091 C106.534545,89.5727273 103.665455,92.4418182 100.141818,92.4418182 L37.1018182,92.4418182 L17.0454545,112.5 Z M6.39272727,24.26 C5.22,24.26 4.26181818,25.22 4.26181818,26.3909091 L4.26181818,86.0509091 C4.26181818,87.2218182 5.22,88.1818182 6.39272727,88.1818182 L21.3072727,88.1818182 L21.3072727,102.214545 L35.3418182,88.1818182 L100.141818,88.1818182 C101.314545,88.1818182 102.272727,87.2218182 102.272727,86.0509091 L102.272727,26.3909091 C102.272727,25.22 101.314545,24.26 100.141818,24.26 L6.39272727,24.26 Z" id="Imported-Layers" sketch:type="MSShapeGroup"></path>
                <path d="M33.6455078,11 L31.6425781,11 L26.7275391,3.03613281 L26.6728516,3.03613281 L26.7070312,3.48046875 C26.7708337,4.32812924 26.8027344,5.10286107 26.8027344,5.8046875 L26.8027344,11 L25.3193359,11 L25.3193359,1.00585938 L27.3017578,1.00585938 L32.203125,8.92871094 L32.2441406,8.92871094 C32.235026,8.82389271 32.216797,8.44222334 32.1894531,7.78369141 C32.1621092,7.12515947 32.1484375,6.61132997 32.1484375,6.2421875 L32.1484375,1.00585938 L33.6455078,1.00585938 L33.6455078,11 Z M42.8193359,7.20605469 C42.8193359,8.4410869 42.5026073,9.40494445 41.8691406,10.0976562 C41.2356739,10.790368 40.3538468,11.1367188 39.2236328,11.1367188 C38.5172491,11.1367188 37.8929064,10.9772151 37.3505859,10.6582031 C36.8082655,10.3391911 36.3912775,9.88118788 36.0996094,9.28417969 C35.8079412,8.68717149 35.6621094,7.99447009 35.6621094,7.20605469 C35.6621094,5.9801371 35.9765594,5.02311542 36.6054688,4.33496094 C37.2343781,3.64680646 38.1207625,3.30273438 39.2646484,3.30273438 C40.3584039,3.30273438 41.2242807,3.65478164 41.8623047,4.35888672 C42.5003287,5.0629918 42.8193359,6.0120383 42.8193359,7.20605469 L42.8193359,7.20605469 Z M37.3164062,7.20605469 C37.3164062,8.95150612 37.9612566,9.82421875 39.2509766,9.82421875 C40.5270246,9.82421875 41.1650391,8.95150612 41.1650391,7.20605469 C41.1650391,5.47883251 40.5224674,4.61523438 39.2373047,4.61523438 C38.5628221,4.61523438 38.0740575,4.83853943 37.7709961,5.28515625 C37.4679347,5.73177307 37.3164062,6.37206614 37.3164062,7.20605469 L37.3164062,7.20605469 Z M51.3505859,11.1367188 C50.2067,11.1367188 49.3374053,10.8029005 48.7426758,10.1352539 C48.1479462,9.46760734 47.8505859,8.50944635 47.8505859,7.26074219 C47.8505859,5.98925146 48.161618,5.01172217 48.7836914,4.328125 C49.4057648,3.64452783 50.3046816,3.30273438 51.4804688,3.30273438 C52.2779988,3.30273438 52.995765,3.45084487 53.6337891,3.74707031 L53.1484375,5.0390625 C52.4693976,4.77473826 51.9088564,4.64257812 51.4667969,4.64257812 C50.1588476,4.64257812 49.5048828,5.51073351 49.5048828,7.24707031 C49.5048828,8.0947308 49.6678044,8.73160594 49.9936523,9.15771484 C50.3195003,9.58382375 50.7968719,9.796875 51.4257812,9.796875 C52.1412796,9.796875 52.8180307,9.6191424 53.4560547,9.26367188 L53.4560547,10.6650391 C53.1689439,10.8336597 52.8624691,10.9544267 52.5366211,11.0273438 C52.2107731,11.1002608 51.815432,11.1367188 51.3505859,11.1367188 L51.3505859,11.1367188 Z M61.8847656,11 L60.2714844,11 L60.2714844,6.3515625 C60.2714844,5.76822625 60.1541353,5.33300925 59.9194336,5.04589844 C59.6847319,4.75878763 59.312177,4.61523438 58.8017578,4.61523438 C58.1272753,4.61523438 57.6316748,4.81689251 57.3149414,5.22021484 C56.9982081,5.62353717 56.8398438,6.29914891 56.8398438,7.24707031 L56.8398438,11 L55.2333984,11 L55.2333984,0.36328125 L56.8398438,0.36328125 L56.8398438,3.06347656 C56.8398438,3.49642144 56.8125003,3.95898191 56.7578125,4.45117188 L56.8603516,4.45117188 C57.0791027,4.08658672 57.3832988,3.80403746 57.7729492,3.60351562 C58.1625996,3.40299379 58.6171849,3.30273438 59.1367188,3.30273438 C60.9687592,3.30273438 61.8847656,4.22557671 61.8847656,6.07128906 L61.8847656,11 Z M68.8505859,11 L68.5292969,9.94726562 L68.4746094,9.94726562 C68.1100242,10.4075544 67.7431659,10.7208651 67.3740234,10.887207 C67.004881,11.053549 66.5309274,11.1367188 65.9521484,11.1367188 C65.2093062,11.1367188 64.6293966,10.9361999 64.2124023,10.5351562 C63.7954081,10.1341126 63.5869141,9.56673544 63.5869141,8.83300781 C63.5869141,8.05370704 63.8762992,7.46582229 64.4550781,7.06933594 C65.0338571,6.67284958 65.9156842,6.45638039 67.1005859,6.41992188 L68.40625,6.37890625 L68.40625,5.97558594 C68.40625,5.49251061 68.2934582,5.13134885 68.0678711,4.89208984 C67.842284,4.65283083 67.4925154,4.53320312 67.0185547,4.53320312 C66.631183,4.53320312 66.2597674,4.5901687 65.9042969,4.70410156 C65.5488263,4.81803442 65.2070329,4.95247318 64.8789062,5.10742188 L64.359375,3.95898438 C64.7695333,3.7447906 65.218422,3.58186905 65.7060547,3.47021484 C66.1936873,3.35856064 66.6539692,3.30273438 67.0869141,3.30273438 C68.0485074,3.30273438 68.7742489,3.5123677 69.2641602,3.93164062 C69.7540715,4.35091355 69.9990234,5.00943562 69.9990234,5.90722656 L69.9990234,11 L68.8505859,11 Z M66.4580078,9.90625 C67.0413441,9.90625 67.5096011,9.74332845 67.862793,9.41748047 C68.2159848,9.09163249 68.3925781,8.63476856 68.3925781,8.046875 L68.3925781,7.390625 L67.421875,7.43164062 C66.6653608,7.45898451 66.1150733,7.58544809 65.7709961,7.81103516 C65.4269189,8.03662222 65.2548828,8.38183361 65.2548828,8.84667969 C65.2548828,9.18392096 65.3551422,9.4448233 65.5556641,9.62939453 C65.7561859,9.81396577 66.0569641,9.90625 66.4580078,9.90625 L66.4580078,9.90625 Z M75.0576172,9.83789062 C75.4495462,9.83789062 75.8414694,9.7763678 76.2333984,9.65332031 L76.2333984,10.8632812 C76.0556632,10.9407556 75.8266616,11.0056964 75.5463867,11.0581055 C75.2661119,11.1105146 74.9755874,11.1367188 74.6748047,11.1367188 C73.1526617,11.1367188 72.3916016,10.3346434 72.3916016,8.73046875 L72.3916016,4.65625 L71.359375,4.65625 L71.359375,3.9453125 L72.4667969,3.35742188 L73.0136719,1.7578125 L74.0048828,1.7578125 L74.0048828,3.43945312 L76.1582031,3.43945312 L76.1582031,4.65625 L74.0048828,4.65625 L74.0048828,8.703125 C74.0048828,9.09049673 74.1017243,9.37646392 74.2954102,9.56103516 C74.489096,9.74560639 74.7431625,9.83789062 75.0576172,9.83789062 L75.0576172,9.83789062 Z M82.8232422,8.84667969 C82.8232422,9.58496463 82.5543647,10.1512025 82.0166016,10.5454102 C81.4788385,10.9396179 80.7086639,11.1367188 79.7060547,11.1367188 C78.6988882,11.1367188 77.889977,10.984051 77.2792969,10.6787109 L77.2792969,9.29101562 C78.1679732,9.70117393 78.9951134,9.90625 79.7607422,9.90625 C80.7496794,9.90625 81.2441406,9.60775038 81.2441406,9.01074219 C81.2441406,8.81933498 81.1894537,8.65983137 81.0800781,8.53222656 C80.9707026,8.40462176 80.7906914,8.27246162 80.5400391,8.13574219 C80.2893868,7.99902275 79.9407574,7.84407639 79.4941406,7.67089844 C78.6236936,7.33365717 78.0346695,6.99642096 77.7270508,6.65917969 C77.4194321,6.32193842 77.265625,5.88444279 77.265625,5.34667969 C77.265625,4.69954104 77.5265273,4.19710465 78.0483398,3.83935547 C78.5701523,3.48160628 79.2799434,3.30273438 80.1777344,3.30273438 C81.0664107,3.30273438 81.9072226,3.4827456 82.7001953,3.84277344 L82.1806641,5.05273438 C81.3649048,4.71549311 80.6790392,4.546875 80.1230469,4.546875 C79.2753864,4.546875 78.8515625,4.78840904 78.8515625,5.27148438 C78.8515625,5.50846473 78.9620757,5.70898355 79.1831055,5.87304688 C79.4041352,6.0371102 79.886064,6.26269388 80.6289062,6.54980469 C81.2532583,6.79134235 81.7067043,7.01236879 81.9892578,7.21289062 C82.2718113,7.41341246 82.4814446,7.6446927 82.6181641,7.90673828 C82.7548835,8.16878386 82.8232422,8.48209453 82.8232422,8.84667969 L82.8232422,8.84667969 Z" id="No-chats" sketch:type="MSShapeGroup"></path>
            </g>
        </g>
    </g>
</svg>