<?xml version="1.0" encoding="UTF-8" standalone="no"?>
<svg width="37px" height="24px" viewBox="0 0 37 24" version="1.1" xmlns="http://www.w3.org/2000/svg" xmlns:xlink="http://www.w3.org/1999/xlink" xmlns:sketch="http://www.bohemiancoding.com/sketch/ns">
    <!-- Generator: Sketch 3.3.3 (12081) - http://www.bohemiancoding.com/sketch -->
    <title>Imported Layers</title>
    <desc>Created with Sketch.</desc>
    <defs></defs>
    <g id="Page-1" stroke="none" stroke-width="1" fill="none" fill-rule="evenodd" sketch:type="MSPage">
        <g id="iPhone-6" sketch:type="MSArtboardGroup" transform="translate(-109.000000, -76.000000)" fill="#979797">
            <g id="filter" sketch:type="MSLayerGroup" transform="translate(109.000000, 76.000000)">
                <g id="Imported-Layers" sketch:type="MSShapeGroup">
                    <path d="M26.2730667,0.191466667 L36.7690667,0.191466667 L36.7690667,10.6874667 L26.2730667,10.6874667 L26.2730667,0.191466667 Z" id="Fill-1"></path>
                    <path d="M26.2730667,13.3125333 L36.7690667,13.3125333 L36.7690667,23.8085333 L26.2730667,23.8085333 L26.2730667,13.3125333 Z" id="Fill-2"></path>
                    <path d="M13.152,0.191466667 L23.648,0.191466667 L23.648,10.6874667 L13.152,10.6874667 L13.152,0.191466667 Z" id="Fill-3"></path>
                    <path d="M13.152,13.3125333 L23.648,13.3125333 L23.648,23.8085333 L13.152,23.8085333 L13.152,13.3125333 Z" id="Fill-4"></path>
                    <path d="M0.0314666667,0.191466667 L10.5274667,0.191466667 L10.5274667,10.6874667 L0.0314666667,10.6874667 L0.0314666667,0.191466667 Z" id="Fill-5"></path>
                    <path d="M0.0314666667,13.3125333 L10.5274667,13.3125333 L10.5274667,23.8085333 L0.0314666667,23.8085333 L0.0314666667,13.3125333 Z" id="Fill-6"></path>
                </g>
            </g>
        </g>
    </g>
</svg>