<?xml version="1.0" encoding="UTF-8" standalone="no"?>
<svg width="19px" height="20px" viewBox="0 0 19 20" version="1.1" xmlns="http://www.w3.org/2000/svg" xmlns:xlink="http://www.w3.org/1999/xlink">
    <!-- Generator: Sketch 3.6.1 (26313) - http://www.bohemiancoding.com/sketch -->
    <title>Page 1</title>
    <desc>Created with Sketch.</desc>
    <defs></defs>
    <g id="Page-1" stroke="none" stroke-width="1" fill="none" fill-rule="evenodd">
        <g id="iPhone-6-Copy-13" transform="translate(-16.000000, -377.000000)" fill="#FF8A65">
            <path d="M34.7498667,382.625067 C32.1802667,383.570933 30.2229333,384.2448 28.5,386.374933 C26.9656,388.2728 24.7498667,388.9312 22.2498667,387.680267 L22.2498667,394.5 L21,394.5 L21,377.625067 C21,377.2792 21.2792,377 21.6250667,377 C21.9706667,377 22.2498667,377.2792 22.2498667,377.625067 C23.6373333,379.642667 26.0498667,380.0896 28.5,380.125067 C32.2498667,380.180267 34.7498667,382.625067 34.7498667,382.625067 L34.7498667,382.625067 Z M23.5,390.915733 L23.5,392.187467 C24.9749333,392.488533 26,393.129067 26,393.874933 C26,394.9104 24.0405333,395.749867 21.6250667,395.749867 C19.2093333,395.749867 17.2498667,394.9104 17.2498667,393.874933 C17.2498667,393.129067 18.2749333,392.4896 19.7498667,392.187467 L19.7498667,390.915733 C17.4792,391.309333 16,392.4104 16,393.874933 C16,395.714667 18.3136,397 21.6250667,397 C24.9362667,397 27.2498667,395.714667 27.2498667,393.874933 C27.2498667,392.4104 25.7706667,391.309333 23.5,390.915733 L23.5,390.915733 Z" id="Page-1"></path>
        </g>
    </g>
</svg>