<?xml version="1.0" encoding="UTF-8" standalone="no"?>
<svg width="135px" height="135px" viewBox="0 0 135 135" version="1.1" xmlns="http://www.w3.org/2000/svg" xmlns:xlink="http://www.w3.org/1999/xlink">
    <!-- Generator: Sketch 3.7 (28169) - http://www.bohemiancoding.com/sketch -->
    <title>Group 9</title>
    <desc>Created with Sketch.</desc>
    <defs></defs>
    <g id="Page-1" stroke="none" stroke-width="1" fill="none" fill-rule="evenodd">
        <g id="Group-9">
            <rect id="Rectangle-44" fill="#D8D8D8" x="0" y="0" width="135" height="135" rx="3"></rect>
            <g id="Page-1" transform="translate(38.000000, 33.000000)" fill="#979797">
                <path d="M58.301,35.023 L49.375,1.574 C49.301,1.199 49,0.898 48.625,0.824 C48.25,0.676 47.875,0.75 47.574,0.973 C47.5,1.047 41.723,5.398 35.125,7.121 C31.977,7.945 28.602,7.047 25,5.996 C21.324,4.945 17.5,3.895 13.75,4.871 C6.625,6.82 1.074,13.27 0.852,13.496 C0.625,13.797 0.551,14.172 0.625,14.547 L14.801,67.348 C14.949,67.871 15.402,68.172 15.852,68.172 C15.926,68.172 16.078,68.172 16.152,68.098 C16.754,67.949 17.129,67.348 16.977,66.746 L3.023,14.625 C4.375,13.199 8.949,8.625 14.422,7.125 C17.57,6.301 20.945,7.199 24.547,8.25 C28.223,9.301 32.047,10.352 35.797,9.375 C40.898,8.023 45.473,5.25 47.648,3.75 L55.973,34.875 C54.324,36 49.449,39.148 44.121,40.574 C40.973,41.398 37.598,40.5 33.996,39.449 C30.32,38.398 26.496,37.348 22.746,38.324 C20.121,39 17.422,40.426 14.645,42.523 C14.121,42.898 14.043,43.574 14.418,44.098 C14.793,44.621 15.469,44.699 15.992,44.324 C18.469,42.449 20.941,41.176 23.266,40.5 C26.414,39.676 29.789,40.574 33.391,41.625 C37.066,42.676 40.965,43.727 44.641,42.75 C51.691,40.875 57.617,36.375 57.84,36.227 C58.301,35.926 58.449,35.398 58.301,35.023 Z M34.676,18.074 C33.926,15.223 31,13.574 28.227,14.324 C26.051,14.926 24.477,16.801 24.328,19.051 C24.254,19.652 24.777,20.176 25.379,20.25 C25.98,20.324 26.504,19.801 26.578,19.199 C26.652,17.926 27.555,16.801 28.828,16.5 C30.477,16.051 32.129,17.023 32.578,18.676 C32.727,19.352 32.352,20.551 31.902,21.824 C31.227,23.848 30.402,26.324 31.078,28.949 C31.227,29.551 31.828,29.926 32.43,29.773 C33.031,29.625 33.406,29.023 33.254,28.422 C32.73,26.398 33.402,24.371 34.004,22.57 C34.523,20.926 34.977,19.426 34.676,18.074 Z M34.551,32.016 C35.07,33.945 32.172,34.723 31.656,32.793 C31.137,30.859 34.035,30.082 34.551,32.016 Z" id="Combined-Shape"></path>
            </g>
        </g>
    </g>
</svg>