<?xml version="1.0" encoding="UTF-8" standalone="no"?>
<svg width="333px" height="93px" viewBox="0 0 333 93" version="1.1" xmlns="http://www.w3.org/2000/svg" xmlns:xlink="http://www.w3.org/1999/xlink" xmlns:sketch="http://www.bohemiancoding.com/sketch/ns">
    <!-- Generator: Sketch 3.5.2 (25235) - http://www.bohemiancoding.com/sketch -->
    <title>Shape</title>
    <desc>Created with Sketch.</desc>
    <defs></defs>
    <g id="Page-1" stroke="none" stroke-width="1" fill="none" fill-rule="evenodd" sketch:type="MSPage">
        <path d="M332.214356,0 L0,0 L0,92.7929688 L332.214356,92.7929688 L332.214356,0 Z M284.538574,71.8017578 C276.994629,71.8017578 278.044434,64.9609375 277.575684,63.4521484 C277.341309,59.7363281 276.652832,58.696289 271.784668,58.696289 L266.325684,58.696289 C260.876465,58.696289 260.759277,61.9384765 260.759277,64.2578124 C260.876465,76.5624999 273.757324,78.876953 286.51123,78.876953 C301.120605,78.876953 312.253418,73.8916014 312.253418,61.1279296 C312.253418,53.3593749 309.484863,49.5312499 302.404785,46.977539 C309.020996,44.3115234 310.988769,39.555664 310.988769,35.0292968 C310.988769,26.3281249 304.372559,19.3701171 284.074707,19.3701171 C269.572754,19.3701171 262.731934,24.2382812 261.911621,33.4033202 C261.223144,36.3037108 263.083496,38.5107421 266.789551,38.5107421 L272.478027,38.3935546 C274.802246,38.7402343 278.850098,36.6601562 278.38623,33.2958983 C278.38623,30.5029295 278.850098,26.6796874 284.645996,26.6796874 C289.758301,26.6796874 291.154785,29.345703 291.154785,33.7597655 C291.154785,40.3662108 288.718262,43.8427733 282.790527,43.7304686 L274.216309,43.6083983 L274.216309,51.3916014 L282.790527,50.9228514 C290.109863,50.5761717 292.194824,55.439453 292.194824,60.4296873 C292.194824,65.4248047 291.843262,71.8017578 284.538574,71.8017578 Z M228.981934,65.8886719 C228.981934,69.2480469 226.652832,69.9414063 225.383301,70.2929688 C223.063965,70.991211 215.983887,71.6894532 212.966309,71.4550782 L212.966309,78.4082032 C222.248535,78.2958985 229.328613,78.4082032 236.286621,78.4082032 C243.117676,78.4082032 250.202637,78.2958985 259.255371,78.4082032 L259.255371,71.225586 C248.117676,71.225586 246.950684,70.6396485 246.950684,66.0009766 L246.950684,20.4150391 L231.872559,20.4150391 C226.774902,25.1708985 220.388184,28.7646485 210.759277,31.0888672 L210.759277,39.9365235 C213.615723,38.2153321 225.427246,34.0136719 228.981934,32.0117188 L228.981934,65.8886719 Z M178.288574,47.2070313 L208.327637,47.2070313 L208.327637,61.1230469 L178.288574,61.1230469 L178.288574,47.2070313 Z M125.974121,79.2236328 C129.689941,79.2236328 132.705078,79.1064453 136.533203,78.5302734 C143.48877,77.602539 151.149902,75.3955078 159.733887,75.3955078 L159.958496,59.6240234 C159.958496,57.8857421 159.147949,54.2871093 167.849121,54.2871093 L167.849121,47.4414062 C162.744141,47.9052734 156.713867,47.6708984 150.568848,47.6708984 C144.064941,47.6708984 137.924805,47.9052734 127.714844,47.5585937 L127.714844,54.1699218 C141.867676,54.0527343 140.703125,54.8632812 140.817871,59.6240234 C140.939941,67.2753906 140.939941,68.0908203 140.244141,68.7841797 C138.039551,70.991211 131.889648,71.9189453 128.64502,71.9189453 C111.818848,71.9189453 108.579102,58.696289 108.579102,47.9052734 C108.579102,35.2636718 110.43457,21.1083984 129.919434,21.1083984 C143.603516,21.1083984 144.882812,23.6669922 147.084961,34.21875 L158.217773,34.6923828 L157.763672,16.6992187 C146.738281,15.1953124 139.543457,13.9208984 129.919433,13.9208984 C99.4091795,13.9208984 87.6977537,23.774414 87.6977537,47.5585937 C87.6977539,68.203125 99.5239258,79.2236328 125.974121,79.2236328 Z M327.458496,88.0419922 L4.6484375,88.0419922 L4.6484375,4.6386719 L327.458496,4.6386719 L327.458496,88.0419922 Z M27.9589844,27.1386719 L27.9589844,65.7714844 C27.9589844,69.7119141 28.7744141,71.3330078 19.2578125,71.3330078 L19.2578125,78.5302734 L57.6538086,78.5302734 L57.6538086,71.3330078 C47.0996094,71.3330078 47.5634766,70.6396484 47.5634766,65.8886719 L47.5634766,53.125 C50,53.2421875 52.4340821,53.2421875 55.9179688,53.125 C74.2382813,52.4316406 83.9843751,48.2568359 83.9843751,32.4755859 C83.9843751,19.2529296 77.4877931,15.1953125 61.2500001,15.078125 C49.8828126,14.9658203 25.4077149,15.4296875 18.7939454,15.078125 L18.7939454,22.0410156 C28.6547852,22.0410156 27.9589844,23.3154297 27.9589844,27.1386719 Z M47.5634766,23.7744141 L50.6933594,23.7744141 C60.4345703,23.7744141 62.9882813,27.1386719 62.9882813,33.8720704 C62.9882813,42.4609376 58.4643555,47.5585938 47.5634766,47.3242188 L47.5634766,23.7744141 Z" id="Shape" fill="#FFFFFF" sketch:type="MSShapeGroup"></path>
    </g>
</svg>