<?xml version="1.0" encoding="UTF-8" standalone="no"?>
<svg width="107px" height="92px" viewBox="0 0 107 92" version="1.1" xmlns="http://www.w3.org/2000/svg" xmlns:xlink="http://www.w3.org/1999/xlink" xmlns:sketch="http://www.bohemiancoding.com/sketch/ns">
    <!-- Generator: Sketch 3.5.2 (25235) - http://www.bohemiancoding.com/sketch -->
    <title>Shape</title>
    <desc>Created with Sketch.</desc>
    <defs></defs>
    <g id="Page-1" stroke="none" stroke-width="1" fill="none" fill-rule="evenodd" sketch:type="MSPage">
        <path d="M106.330566,0 L0,0 L0,91.9970703 L106.330566,91.9970703 L106.330566,0 L106.330566,0 Z M101.70166,87.2851563 L4.6191406,87.2851563 L4.6191406,4.6240234 L101.70166,4.6240234 L101.70166,87.2851563 L101.70166,87.2851563 Z M17.7490234,69.4384766 L17.6586914,76.6552735 C24.3139648,76.2792969 49.0039062,76.2792969 56.3110352,76.6552735 L56.1254883,69.5361329 C45.3100586,69.8095704 46.3256836,67.4951173 46.3256836,64.2626954 L46.3256836,50.0244141 L59.7290039,65.5517579 C62.3168945,68.5205079 64.4506836,72.2119142 67.0336914,76.4697267 C91.7211914,76.4697267 94.7680664,76.6552736 94.7680664,76.6552736 L94.7680664,69.716797 C86.8237305,68.9794922 85.5249023,68.2373047 82.7563477,65 L65.6469727,44.9414062 C76.2817383,43.6425781 82.9418946,38.0957031 82.8442383,29.1259765 C82.7563477,13.4082031 68.425293,14.0527344 53.2592773,13.7792969 C48.1738281,13.6816406 24.1357421,13.8671875 17.6586914,13.8671875 L17.7490234,21.0791016 C27.6440429,21.0791016 26.8139648,22.0019532 26.8139648,25.8886719 L26.8139648,64.2626953 C26.8139648,66.7578125 28.1054688,70.1806641 17.7490234,69.4384766 Z M46.3256836,21.640625 C47.800293,21.5429687 49.0991211,21.3574219 50.4833984,21.3574219 C57.7856445,21.3574219 62.4096679,24.1357422 62.4096679,30.1464844 L62.3168945,30.1464844 C62.4096679,38.3691407 55.4711914,40.78125 46.3256836,41.0546875 L46.3256836,21.640625 L46.3256836,21.640625 Z" id="Shape" fill="#FFFFFF" sketch:type="MSShapeGroup"></path>
    </g>
</svg>