<?xml version="1.0" encoding="UTF-8" standalone="no"?>
<svg width="71px" height="47px" viewBox="0 0 71 47" version="1.1" xmlns="http://www.w3.org/2000/svg" xmlns:xlink="http://www.w3.org/1999/xlink" xmlns:sketch="http://www.bohemiancoding.com/sketch/ns">
    <!-- Generator: Sketch 3.3.3 (12081) - http://www.bohemiancoding.com/sketch -->
    <title>Imported Layers</title>
    <desc>Created with Sketch.</desc>
    <defs></defs>
    <g id="Page-1" stroke="none" stroke-width="1" fill="none" fill-rule="evenodd" sketch:type="MSPage">
        <g id="Imported-Layers" sketch:type="MSLayerGroup" transform="translate(1.000000, 1.000000)" stroke="#979797">
            <path d="M49.262,0.359 L68.942,0.359 L68.942,20.039 L49.262,20.039 L49.262,0.359 Z" id="Fill-1" sketch:type="MSShapeGroup"></path>
            <path d="M49.262,24.961 L68.942,24.961 L68.942,44.641 L49.262,44.641 L49.262,24.961 Z" id="Fill-2" sketch:type="MSShapeGroup"></path>
            <path d="M24.66,0.359 L44.34,0.359 L44.34,20.039 L24.66,20.039 L24.66,0.359 Z" id="Fill-3" sketch:type="MSShapeGroup"></path>
            <path d="M24.66,24.961 L44.34,24.961 L44.34,44.641 L24.66,44.641 L24.66,24.961 Z" id="Fill-4" sketch:type="MSShapeGroup"></path>
            <path d="M0.059,0.359 L19.739,0.359 L19.739,20.039 L0.059,20.039 L0.059,0.359 Z" id="Fill-5" sketch:type="MSShapeGroup"></path>
            <path d="M0.059,24.961 L19.739,24.961 L19.739,44.641 L0.059,44.641 L0.059,24.961 Z" id="Fill-6" sketch:type="MSShapeGroup"></path>
        </g>
    </g>
</svg>