<?xml version="1.0" encoding="UTF-8" standalone="no"?>
<svg width="17px" height="17px" viewBox="0 0 17 17" version="1.1" xmlns="http://www.w3.org/2000/svg" xmlns:xlink="http://www.w3.org/1999/xlink">
    <!-- Generator: Sketch 39.1 (31720) - http://www.bohemiancoding.com/sketch -->
    <title>Combined Shape Copy 3</title>
    <desc>Created with Sketch.</desc>
    <defs></defs>
    <g id="Welcome" stroke="none" stroke-width="1" fill="none" fill-rule="evenodd">
        <g id="Group-2" transform="translate(-28.000000, 0.000000)" fill="#FFFFFF">
            <g id="Group-3">
                <path d="M35.4019134,0.744222619 C35.896682,-0.245314595 36.6961027,-0.250829986 37.193629,0.744222619 L44.4019134,15.1607914 C44.896682,16.1503286 44.4051484,16.952507 43.3026819,16.952507 L29.2928605,16.952507 C28.1910031,16.952507 27.6961027,16.155844 28.193629,15.1607914 L35.4019134,0.744222619 Z M35.289934,6.152507 L35.4231577,11.5258623 L36.8220064,11.5258623 L36.9552301,6.152507 L35.289934,6.152507 Z M36.122582,14.3013557 C36.6277218,14.3013557 37.0273929,13.9183376 37.0273929,13.4298507 C37.0273929,12.9413639 36.6277218,12.5583458 36.122582,12.5583458 C35.6174422,12.5583458 35.2177712,12.9413639 35.2177712,13.4298507 C35.2177712,13.9183376 35.6174422,14.3013557 36.122582,14.3013557 Z" id="Combined-Shape-Copy-3"></path>
            </g>
        </g>
    </g>
</svg>