<?xml version="1.0" encoding="UTF-8" standalone="no"?>
<svg width="11px" height="14px" viewBox="0 0 11 14" version="1.1" xmlns="http://www.w3.org/2000/svg" xmlns:xlink="http://www.w3.org/1999/xlink">
    <!-- Generator: Sketch 39 (31667) - http://www.bohemiancoding.com/sketch -->
    <title>Page-1</title>
    <desc>Created with Sketch.</desc>
    <defs></defs>
    <g id="Welcome" stroke="none" stroke-width="1" fill="none" fill-rule="evenodd">
        <g id="Group-43" transform="translate(-15.000000, -214.000000)" fill="#4A4A4A">
            <g id="Group-41" transform="translate(15.000000, 213.000000)">
                <path d="M5.13482666,1 C2.30346666,1 0,3.30346664 0,6.13482664 C0,9.79592 4.39394666,14.5574134 4.58136,14.75864 C4.72434666,14.9124534 4.92482666,15 5.13557334,15 C5.34557334,15 5.54605334,14.9124534 5.68904,14.75864 C5.87645334,14.55816 10.2704,9.79666664 10.2704,6.13482664 C10.2696534,3.30346664 7.96618666,1 5.13482666,1 L5.13482666,1 L5.13482666,1 Z M3.10781334,5.97298664 C3.10781334,4.85298664 4.01557334,3.94504 5.13482666,3.94504 C6.25408,3.94504 7.16184,4.85298664 7.16184,5.97298664 C7.16184,7.09224 6.25482666,8 5.13482666,8 C4.01557334,8 3.10781334,7.09224 3.10781334,5.97298664 L3.10781334,5.97298664 L3.10781334,5.97298664 Z" id="Page-1"></path>
            </g>
        </g>
    </g>
</svg>