<?xml version="1.0" encoding="UTF-8" standalone="no"?>
<svg width="12px" height="12px" viewBox="0 0 12 12" version="1.1" xmlns="http://www.w3.org/2000/svg" xmlns:xlink="http://www.w3.org/1999/xlink">
    <!-- Generator: Sketch 39 (31667) - http://www.bohemiancoding.com/sketch -->
    <title>Shape</title>
    <desc>Created with Sketch.</desc>
    <defs></defs>
    <g id="Welcome" stroke="none" stroke-width="1" fill="none" fill-rule="evenodd">
        <g id="Artboard-30-Copy" transform="translate(-16.000000, -61.000000)" fill="#6CADF3">
            <path d="M22,61 C18.68624,61 16,63.68624 16,67 C16,70.31376 18.68624,73 22,73 C25.31376,73 28,70.31376 28,67 C28,63.68624 25.31376,61 22,61 L22,61 L22,61 L22,61 Z M22,71.59872 C19.46,71.59872 17.40128,69.53936 17.40128,67 C17.40128,64.46 19.46,62.40128 22,62.40128 C24.54,62.40128 26.59872,64.46 26.59872,67 C26.59872,69.54 24.54,71.59872 22,71.59872 L22,71.59872 L22,71.59872 Z M24.51936,67.40816 L22.87744,66.46944 L22.87744,63.93632 C22.87744,63.43872 22.48064,63.03504 21.99184,63.03504 C21.50256,63.03504 21.10624,63.43872 21.10624,63.93632 L21.10624,66.98496 C21.10624,67.37568 21.3512,67.70752 21.69312,67.83248 L23.6344,68.94256 C24.0656,69.1912 24.61312,69.04944 24.85744,68.6256 C25.10256,68.20192 24.95056,67.6568 24.51936,67.40816 L24.51936,67.40816 L24.51936,67.40816 Z" id="Shape"></path>
        </g>
    </g>
</svg>