<?xml version="1.0" encoding="UTF-8" standalone="no"?>
<svg width="19px" height="19px" viewBox="0 0 19 19" version="1.1" xmlns="http://www.w3.org/2000/svg" xmlns:xlink="http://www.w3.org/1999/xlink" xmlns:sketch="http://www.bohemiancoding.com/sketch/ns">
    <!-- Generator: Sketch 3.3.3 (12081) - http://www.bohemiancoding.com/sketch -->
    <title>Imported Layers</title>
    <desc>Created with Sketch.</desc>
    <defs></defs>
    <g id="Page-1" stroke="none" stroke-width="1" fill="none" fill-rule="evenodd" sketch:type="MSPage">
        <g id="iPhone-6-Copy-2" sketch:type="MSArtboardGroup" transform="translate(-109.625000, -283.500000)" fill="#2D93FF">
            <path d="M124.086048,302.000623 C124.086048,302.000623 124.086048,302.000623 124.084905,302.000623 C120.607292,302.000623 116.661977,298.439297 115.128593,296.908199 C113.448927,295.232818 109.593038,290.947228 110.035026,287.337046 C110.201307,285.979943 110.955856,284.889403 112.276104,284.095997 C112.382101,284.032285 112.503811,284 112.637522,284 C113.676635,284 115.725718,286.425073 116.554837,287.600467 C117.740232,289.27899 117.572808,289.753262 117.509095,289.931829 C117.308244,290.498669 116.934541,290.828946 116.603979,291.120366 C116.31513,291.37493 116.065994,291.595781 115.938855,291.952913 C115.921141,292.040053 116.037138,292.509754 116.789402,293.435156 C117.972225,294.889114 119.531323,296.059937 120.033594,296.059937 C120.404155,295.932798 120.625291,295.683948 120.879569,295.394814 C121.17099,295.06568 121.501266,294.691691 122.068107,294.489697 C122.147533,294.461698 122.236673,294.447127 122.330385,294.447127 C123.524636,294.447127 126.981107,297.280759 127.792227,298.712718 C127.878224,298.864428 128.140503,299.3267 127.902795,299.722689 C126.997678,301.234931 125.713144,302.000623 124.086048,302.000623 Z M112.667807,284.862832 C111.601838,285.517956 111.01814,286.361646 110.886715,287.441901 C110.612152,289.686121 112.423242,292.998597 115.733432,296.301073 C117.19339,297.757317 120.927568,301.143505 124.086048,301.143505 C125.392868,301.143505 126.391696,300.55095 127.139389,299.330986 C126.997678,298.483867 123.236644,295.318816 122.338384,295.304245 C121.991252,295.433955 121.774686,295.678234 121.524694,295.961654 C121.233274,296.292216 120.902997,296.66592 120.336157,296.866771 C120.244445,296.899342 120.144162,296.915913 120.037022,296.915913 C118.901912,296.915913 116.734546,294.873686 115.741432,293.467441 C115.182305,292.676035 114.983454,292.086909 115.133164,291.663779 C115.334015,291.096938 115.708005,290.766662 116.038281,290.475242 C116.321701,290.225249 116.567123,290.007541 116.696833,289.660694 C116.701119,289.35156 116.002568,288.113881 114.697748,286.633924 C113.624351,285.420816 112.905514,284.916259 112.667807,284.862832 Z" id="Imported-Layers" sketch:type="MSShapeGroup"></path>
        </g>
    </g>
</svg>