<?xml version="1.0" encoding="UTF-8" standalone="no"?>
<svg width="14px" height="14px" viewBox="0 0 14 14" version="1.1" xmlns="http://www.w3.org/2000/svg" xmlns:xlink="http://www.w3.org/1999/xlink">
    <!-- Generator: Sketch 39.1 (31720) - http://www.bohemiancoding.com/sketch -->
    <title>Shape</title>
    <desc>Created with Sketch.</desc>
    <defs></defs>
    <g id="Welcome" stroke="none" stroke-width="1" fill="none" fill-rule="evenodd">
        <g id="iPhone-6-Copy-4" transform="translate(-42.000000, -88.000000)" fill="#6CADF3">
            <g id="icon-myNotes" transform="translate(42.000000, 88.000000)">
                <g id="Combined-Shape">
                    <g id="Page-1">
                        <g id="Combined-Shape">
                            <path d="M11.9875467,3.274567 L11.9875467,0 L0,0 L0,14 L11.9875467,14 L11.9875467,7.21392133 L13.97088,3.06245333 C14,2.97509333 14.02912,2.82912 13.97088,2.71245333 C13.8833333,2.50842667 13.67912,2.30421333 13.4166667,2.21666667 C12.97912,2.01245333 12.54176,2.07088 12.4249067,2.36245333 L11.9875467,3.274567 L11.9875467,3.274567 Z M11.4179532,4.46245333 L11.4042133,4.46245333 L11.4042133,0.583333333 L0.583333333,0.583333333 L0.583333333,13.4166667 L11.4042133,13.4166667 L11.4042133,8.43494131 L10.52912,10.2666667 L8.42912,12.6 L9.01245333,9.47912 L11.4179532,4.46245333 L11.4179532,4.46245333 Z M2.65421333,3.00421333 L8.89597333,3.00421333 L8.89597333,2.42088 L2.65421333,2.42088 L2.65421333,3.00421333 L2.65421333,3.00421333 Z M2.65421333,5.19176 L8.89597333,5.19176 L8.89597333,4.60842667 L2.65421333,4.60842667 L2.65421333,5.19176 L2.65421333,5.19176 Z M2.65421333,7.37912 L8.89597333,7.37912 L8.89597333,6.79578667 L2.65421333,6.79578667 L2.65421333,7.37912 L2.65421333,7.37912 Z" id="Shape"></path>
                        </g>
                    </g>
                </g>
            </g>
        </g>
    </g>
</svg>