<?xml version="1.0" encoding="UTF-8" standalone="no"?>
<svg width="32px" height="20px" viewBox="0 0 32 20" version="1.1" xmlns="http://www.w3.org/2000/svg" xmlns:xlink="http://www.w3.org/1999/xlink">
    <!-- Generator: Sketch 39.1 (31720) - http://www.bohemiancoding.com/sketch -->
    <title>Combined Shape</title>
    <desc>Created with Sketch.</desc>
    <defs></defs>
    <g id="Welcome" stroke="none" stroke-width="1" fill="none" fill-rule="evenodd">
        <g id="Page-1" fill="#6CADF3">
            <path d="M31.19565,14.690981 C31.19565,12.676633 29.33534,10.991383 26.83192,10.534303 L26.83192,9.57169 C27.74425,8.95235 28.36588,7.73104 28.36588,6.32415 C28.36588,4.2906 27.0696,2.64237 25.46982,2.64237 C23.87004,2.64237 22.57377,4.2906 22.57377,6.32415 C22.57377,7.73104 23.19494,8.95235 24.10727,9.57169 L24.10727,10.534303 C23.1538,10.709365 22.29312,11.062687 21.59333,11.543077 C23.40931,12.630468 24.68776,14.216076 25.14118,16.051249 L29.9172,16.051249 C30.62065,16.051249 31.19017,15.473043 31.19017,14.756801 C31.19017,14.733489 31.18514,14.712463 31.18331,14.690981 L31.19565,14.690981 Z M9.9433,11.543077 C9.243512,11.062687 8.38466,10.707537 7.429365,10.534303 L7.429365,9.57169 C8.341695,8.95235 8.962865,7.73104 8.962865,6.32415 C8.962865,4.2906 7.666589,2.64237 6.066812,2.64237 C4.467034,2.64237 3.171215,4.2906 3.171215,6.32415 C3.171215,7.73104 3.792386,8.95235 4.704716,9.57169 L4.704716,10.534303 C2.203121,10.991383 0.3428094,12.676633 0.3428094,14.690981 L0.3551505,14.690981 C0.3533222,14.713835 0.3482943,14.735317 0.3482943,14.756801 C0.3482943,15.471215 0.917815,16.051249 1.62126,16.051249 L6.39728,16.051249 C6.850702,14.216076 8.127324,12.630468 9.9433,11.543077 Z M23.99483,17.286734 L23.99483,17.076019 C23.99483,16.927927 23.96649,16.788517 23.92169,16.65505 C23.88421,16.449364 23.82708,16.24962 23.76263,16.051249 C23.28955,14.598194 22.13086,13.346254 20.55439,12.502029 C19.71519,12.051806 18.7599,11.718138 17.72782,11.528908 L17.72782,10.152185 C19.04009,9.26134 19.93276,7.50433 19.93276,5.48129 C19.93276,2.5569 18.0688,0.1874 15.76923,0.1874 C13.46967,0.1874 11.6057,2.5569 11.6057,5.48129 C11.6057,7.50433 12.5002,9.26134 13.81248,10.152185 L13.81248,11.528908 C12.78039,11.718138 11.82327,12.053635 10.9859,12.502029 C9.407603,13.346254 8.250736,14.598194 7.777659,16.051249 C7.713211,16.24962 7.656076,16.449364 7.618595,16.65505 C7.573802,16.787146 7.545463,16.927927 7.545463,17.076019 L7.545463,17.284904 C7.541806,17.359867 7.538149,17.435284 7.538149,17.511616 L7.545463,17.511616 L7.545463,18.140558 C7.545463,18.87417 8.130981,19.4706573 8.852252,19.4706573 L22.68987,19.4706573 C23.41114,19.4706573 23.99665,18.875998 23.99665,18.140558 L23.99665,17.511616 L24.00397,17.511616 C24.00214,17.435284 23.99848,17.361694 23.99483,17.286734 Z" id="Combined-Shape"></path>
        </g>
    </g>
</svg>