<?xml version="1.0" encoding="UTF-8" standalone="no"?>
<svg width="18px" height="17px" viewBox="0 0 18 17" version="1.1" xmlns="http://www.w3.org/2000/svg" xmlns:xlink="http://www.w3.org/1999/xlink">
    <!-- Generator: Sketch 39.1 (31720) - http://www.bohemiancoding.com/sketch -->
    <title>Group 2</title>
    <desc>Created with Sketch.</desc>
    <defs></defs>
    <g id="Welcome" stroke="none" stroke-width="1" fill="none" fill-rule="evenodd">
        <g id="Group-2" fill="#4A4A4A">
            <g id="Group-3">
                <path d="M8.10414219,0.791715622 C8.5989108,-0.197821592 9.39833151,-0.203336984 9.89585781,0.791715622 L17.1041422,15.2082844 C17.5989108,16.1978216 17.1073772,17 16.0049107,17 L1.99508929,17 C0.893231902,17 0.398331508,16.203337 0.895857811,15.2082844 L8.10414219,0.791715622 Z M7.99216283,6.2 L8.12538651,11.5733553 L9.5242352,11.5733553 L9.65745888,6.2 L7.99216283,6.2 Z M8.82481086,14.3488487 C9.32995066,14.3488487 9.72962171,13.9658306 9.72962171,13.4773438 C9.72962171,12.9888569 9.32995066,12.6058388 8.82481086,12.6058388 C8.31967105,12.6058388 7.92,12.9888569 7.92,13.4773438 C7.92,13.9658306 8.31967105,14.3488487 8.82481086,14.3488487 Z" id="Combined-Shape"></path>
            </g>
        </g>
    </g>
</svg>