<?xml version="1.0" encoding="UTF-8" standalone="no"?>
<svg width="11px" height="11px" viewBox="0 0 11 11" version="1.1" xmlns="http://www.w3.org/2000/svg" xmlns:xlink="http://www.w3.org/1999/xlink" xmlns:sketch="http://www.bohemiancoding.com/sketch/ns">
    <!-- Generator: Sketch 3.3.3 (12081) - http://www.bohemiancoding.com/sketch -->
    <title>Shape</title>
    <desc>Created with Sketch.</desc>
    <defs></defs>
    <g id="Page-1" stroke="none" stroke-width="1" fill="none" fill-rule="evenodd" sketch:type="MSPage">
        <g id="iPhone-6-Copy-3" sketch:type="MSArtboardGroup" transform="translate(-27.000000, -608.000000)" fill="#979797">
            <path d="M35.5437645,608.055072 L29.6292472,608.055072 C28.2728187,608.055072 27.1730117,609.154879 27.1730117,610.511307 L27.1730117,613.590767 C27.1730117,614.947195 28.2728187,616.047002 29.6292472,616.047002 L33.7351931,616.047002 L35.6659653,618.258836 L36.1914286,618.85762 C36.2158687,618.89428 36.2647491,618.9065 36.3014093,618.9065 C36.3136294,618.9065 36.3380695,618.9065 36.3502896,618.89428 C36.41139,618.86984 36.4480502,618.82096 36.4480502,618.759859 L36.4480502,615.875921 C37.3767761,615.509319 38,614.605033 38,613.590767 L38,610.511307 C38,609.154879 36.9001931,608.055072 35.5437645,608.055072 L35.5437645,608.055072 Z" id="Shape" sketch:type="MSShapeGroup"></path>
        </g>
    </g>
</svg>