<?xml version="1.0" encoding="UTF-8" standalone="no"?>
<svg width="29px" height="35px" viewBox="0 0 29 35" version="1.1" xmlns="http://www.w3.org/2000/svg" xmlns:xlink="http://www.w3.org/1999/xlink">
    <!-- Generator: Sketch 39.1 (31720) - http://www.bohemiancoding.com/sketch -->
    <title>icon-save</title>
    <desc>Created with Sketch.</desc>
    <defs></defs>
    <g id="Welcome" stroke="none" stroke-width="1" fill="none" fill-rule="evenodd">
        <g id="icon-save" fill="#2E93FD">
            <g id="Combined-Shape">
                <g id="Page-1">
                    <g id="chat-photos-2">
                        <path d="M19.782609,9.6376812 L24.857778,9.6376812 C25.135072,9.6376812 25.362319,9.8649275 25.362319,10.1476329 L25.362319,31.44657 C25.362319,31.72657 25.132367,31.9565217 24.849662,31.9565217 L3.55343,31.9565217 C3.27343,31.9565217 3.043478,31.72657 3.043478,31.44657 L3.043478,10.1476329 C3.043478,9.8649275 3.270725,9.6376812 3.548019,9.6376812 L8.623188,9.6376812 C9.463188,9.6376812 10.144928,8.955942 10.144928,8.115942 C10.144928,7.275942 9.463188,6.5942029 8.623188,6.5942029 L3.548019,6.5942029 C1.588019,6.5942029 0,8.1869565 0,10.1476329 L0,31.44657 C0,33.4092754 1.590725,35 3.55343,35 L24.849662,35 C26.813043,35 28.405797,33.4092754 28.405797,31.44657 L28.405797,10.1476329 C28.405797,8.1869565 26.817778,6.5942029 24.857778,6.5942029 L19.782609,6.5942029 C18.942609,6.5942029 18.26087,7.275942 18.26087,8.115942 C18.26087,8.955942 18.942609,9.6376812 19.782609,9.6376812 L19.782609,9.6376812 Z M20.839034,17.1645411 C20.234396,16.5835749 19.269952,16.5991304 18.68628,17.2044444 L15.724638,20.2763285 L15.724638,1.52173913 C15.724638,0.68173913 15.042899,0 14.202899,0 C13.362899,0 12.681159,0.68173913 12.681159,1.52173913 L12.681159,20.2763285 L9.719517,17.2044444 C9.135845,16.5991304 8.171401,16.5835749 7.566763,17.1645411 C6.961449,17.7482126 6.945894,18.712657 7.52686,19.3172947 L13.10657,25.103285 C13.109275,25.1059903 13.114686,25.1086957 13.117391,25.111401 C13.124831,25.1195169 13.130242,25.1242512 13.138357,25.1323671 C13.141063,25.1350725 13.143768,25.1404831 13.146473,25.1431884 C13.170145,25.1668599 13.199227,25.1824155 13.222899,25.204058 C13.241159,25.2196135 13.25942,25.2331401 13.278357,25.2486957 C13.302029,25.2669565 13.322995,25.288599 13.346667,25.3041546 C13.354783,25.3122705 13.365604,25.3149758 13.373043,25.3203865 C13.410242,25.3467633 13.45285,25.3650242 13.492077,25.3859903 C13.500193,25.3886957 13.505604,25.3941063 13.513043,25.3968116 C13.544831,25.4123671 13.573913,25.4333333 13.608406,25.4468599 C13.616522,25.4522705 13.626667,25.4549758 13.634783,25.4576812 C13.680097,25.475942 13.724734,25.4867633 13.769372,25.4996135 C13.811981,25.5104348 13.849179,25.5286957 13.891111,25.5368116 C13.899227,25.5395169 13.909372,25.5395169 13.917488,25.5395169 C13.964831,25.5496618 14.010145,25.5496618 14.057488,25.5550725 C14.102802,25.5604831 14.144734,25.5658937 14.189372,25.568599 L14.202899,25.568599 L14.216425,25.568599 C14.261063,25.568599 14.302995,25.5604831 14.348309,25.5550725 C14.395652,25.5496618 14.440966,25.5496618 14.488309,25.5395169 C14.496425,25.5395169 14.50657,25.5395169 14.514686,25.5368116 C14.556618,25.5259903 14.596522,25.5104348 14.636425,25.4996135 C14.681063,25.484058 14.7257,25.4732367 14.771014,25.4576812 C14.781159,25.4549758 14.789275,25.4522705 14.797391,25.4468599 C14.837295,25.4313043 14.873816,25.4069565 14.91372,25.3859903 C14.952947,25.3650242 14.995556,25.3467633 15.034783,25.3203865 C15.040193,25.3149758 15.048309,25.3122705 15.056425,25.3068599 C15.085507,25.2858937 15.111884,25.2595169 15.138261,25.2378744 C15.153816,25.2277295 15.170048,25.2142029 15.185604,25.2013527 C15.209275,25.1797101 15.235652,25.1641546 15.259324,25.1431884 C15.262029,25.1404831 15.264734,25.1350725 15.26744,25.1323671 C15.27285,25.1269565 15.280966,25.1195169 15.288406,25.1141063 C15.291111,25.1086957 15.293816,25.1059903 15.299227,25.103285 L20.878937,19.3172947 C21.462609,18.712657 21.444348,17.7482126 20.839034,17.1645411 L20.839034,17.1645411 Z" id="Combined-Shape"></path>
                    </g>
                </g>
            </g>
        </g>
    </g>
</svg>