<?xml version="1.0" encoding="UTF-8" standalone="no"?>
<svg width="10px" height="14px" viewBox="0 0 10 14" version="1.1" xmlns="http://www.w3.org/2000/svg" xmlns:xlink="http://www.w3.org/1999/xlink">
    <!-- Generator: Sketch 39 (31667) - http://www.bohemiancoding.com/sketch -->
    <title>Shape</title>
    <desc>Created with Sketch.</desc>
    <defs></defs>
    <g id="Welcome" stroke="none" stroke-width="1" fill="none" fill-rule="evenodd">
        <path d="M4.74251497,7.07784431 C3.46107784,7.07784431 2.41916168,6.03592814 2.41916168,4.75449102 C2.41916168,3.47305389 3.46107784,2.43113772 4.74251497,2.43113772 C6.0239521,2.43113772 7.06586826,3.47305389 7.06586826,4.75449102 C7.06586826,6.03592814 6.0239521,7.07784431 4.74251497,7.07784431 L4.74251497,7.07784431 Z M4.74251497,0 C2.11976048,0 0,2.11976048 0,4.74251497 L0,4.91017964 C0.0119760479,5.41317365 0.107784431,5.89221557 0.275449102,6.33532934 C1.29341317,9.66467066 4.74251497,14 4.74251497,14 C4.74251497,14 8.20359281,9.65269461 9.20958084,6.33532934 C9.36526946,5.89221557 9.46107784,5.41317365 9.48502994,4.91017964 L9.48502994,4.74251497 C9.48502994,2.13173653 7.36526946,0 4.74251497,0 L4.74251497,0 Z" id="Shape" fill="#4A4A4A"></path>
    </g>
</svg>