<?xml version="1.0" encoding="UTF-8" standalone="no"?>
<svg width="14px" height="14px" viewBox="0 0 14 14" version="1.1" xmlns="http://www.w3.org/2000/svg" xmlns:xlink="http://www.w3.org/1999/xlink">
    <!-- Generator: Sketch 39 (31667) - http://www.bohemiancoding.com/sketch -->
    <title>Page 1</title>
    <desc>Created with Sketch.</desc>
    <defs></defs>
    <g id="Welcome" stroke="none" stroke-width="1" fill="none" fill-rule="evenodd">
        <path d="M1.38888889,1.5 C0.621555556,1.5 0,2.11977778 0,2.88533333 L0,12.6146664 C0,13.3793336 0.624222222,14 1.38888889,14 L12.5,14 C13.2673333,14 13.8888889,13.380222 13.8888889,12.6146664 L13.8888889,2.88533333 C13.8888889,2.12066667 13.2646667,1.5 12.5,1.5 L1.38888889,1.5 L1.38888889,1.5 Z M1.38888889,4.27777778 L1.38888889,12.6111111 L12.5,12.6111111 L12.5,4.27777778 L1.38888889,4.27777778 L1.38888889,4.27777778 Z M2.77777778,6.01377778 L2.77777778,8.09733333 L4.86111111,8.09733333 L4.86111111,6.01377778 L2.77777778,6.01377778 L2.77777778,6.01377778 Z M5.90266667,6.01377778 L5.90266667,8.09733333 L7.98622222,8.09733333 L7.98622222,6.01377778 L5.90266667,6.01377778 L5.90266667,6.01377778 Z M9.02777778,6.01377778 L9.02777778,8.09733333 L11.1111111,8.09733333 L11.1111111,6.01377778 L9.02777778,6.01377778 L9.02777778,6.01377778 Z M2.77777778,9.13888889 L2.77777778,11.2222222 L4.86111111,11.2222222 L4.86111111,9.13888889 L2.77777778,9.13888889 L2.77777778,9.13888889 Z M5.90266667,9.13888889 L5.90266667,11.2222222 L7.98622222,11.2222222 L7.98622222,9.13888889 L5.90266667,9.13888889 L5.90266667,9.13888889 Z M9.02777778,9.13888889 L9.02777778,11.2222222 L11.1111111,11.2222222 L11.1111111,9.13888889 L9.02777778,9.13888889 L9.02777778,9.13888889 Z M2.77777778,0.111111111 L2.77777778,1.5 L4.16666667,1.5 L4.16666667,0.111111111 L2.77777778,0.111111111 L2.77777778,0.111111111 Z M9.72222222,0.111111111 L9.72222222,1.5 L11.1111111,1.5 L11.1111111,0.111111111 L9.72222222,0.111111111 L9.72222222,0.111111111 Z" id="Page-1" fill="#4A4A4A"></path>
    </g>
</svg>