<?xml version="1.0" encoding="UTF-8" standalone="no"?>
<svg width="77px" height="77px" viewBox="0 0 77 77" version="1.1" xmlns="http://www.w3.org/2000/svg" xmlns:xlink="http://www.w3.org/1999/xlink">
    <!-- Generator: Sketch 3.8.2 (29753) - http://www.bohemiancoding.com/sketch -->
    <title>Page 1</title>
    <desc>Created with Sketch.</desc>
    <defs></defs>
    <g id="Page-1" stroke="none" stroke-width="1" fill="none" fill-rule="evenodd">
        <path d="M38.02,1.946 C17.606,1.946 1,18.555 1,38.969 C1,59.387 17.606,76 38.02,76 C58.43,76 75.039,59.387 75.039,38.969 C75.039,18.555 58.43,1.946 38.02,1.946 L38.02,1.946 Z M38.02,5.461 C56.492,5.461 71.524,20.492 71.524,38.969 C71.524,57.449 56.492,72.485 38.02,72.485 C19.543,72.485 4.516,57.449 4.516,38.969 C4.516,20.492 19.543,5.461 38.02,5.461 L38.02,5.461 Z M25.699,24.992 C23.344,24.992 21.434,26.903 21.434,29.258 C21.434,31.614 23.344,33.528 25.699,33.528 C28.055,33.528 29.965,31.614 29.965,29.258 C29.965,26.903 28.055,24.992 25.699,24.992 L25.699,24.992 Z M50.227,24.992 C47.871,24.992 45.961,26.903 45.961,29.258 C45.961,31.614 47.871,33.528 50.227,33.528 C52.582,33.528 54.492,31.614 54.492,29.258 C54.492,26.903 52.582,24.992 50.227,24.992 L50.227,24.992 Z M23.508,45.664 C22.539,45.664 21.75,46.449 21.75,47.422 C21.75,54.836 27.856,60.867 35.356,60.867 L41.281,60.867 C48.91,60.867 54.887,55.032 54.887,47.586 C54.887,46.614 54.102,45.828 53.129,45.828 C52.16,45.828 51.371,46.614 51.371,47.586 C51.371,53.063 46.938,57.352 41.281,57.352 L35.356,57.352 C29.699,57.352 25.266,52.989 25.266,47.422 C25.266,46.449 24.477,45.664 23.508,45.664 L23.508,45.664 Z" stroke="#979797" stroke-width="2" fill="#979797"></path>
    </g>
</svg>