<?xml version="1.0" encoding="UTF-8" standalone="no"?>
<svg width="25px" height="24px" viewBox="0 0 25 24" version="1.1" xmlns="http://www.w3.org/2000/svg" xmlns:xlink="http://www.w3.org/1999/xlink" xmlns:sketch="http://www.bohemiancoding.com/sketch/ns">
    <!-- Generator: Sketch 3.4 (15588) - http://www.bohemiancoding.com/sketch -->
    <title>Imported Layers</title>
    <desc>Created with Sketch.</desc>
    <defs></defs>
    <g id="Page-1" stroke="none" stroke-width="1" fill="none" fill-rule="evenodd" sketch:type="MSPage">
        <g id="iPhone-6" sketch:type="MSArtboardGroup" transform="translate(-156.000000, -321.000000)" fill="#000000">
            <path d="M158.978653,330.021347 C157.338408,330.021347 156,331.359755 156,333 C156,334.640245 157.338408,335.978653 158.978653,335.978653 C160.623862,335.978653 161.957306,334.640245 161.957306,333 C161.957306,331.359755 160.619891,330.021347 158.978653,330.021347 L158.978653,330.021347 Z M158.978653,334.861658 C157.951018,334.861658 157.116995,334.027635 157.116995,333 C157.116995,331.972365 157.951018,331.138342 158.978653,331.138342 C160.007281,331.138342 160.840311,331.972365 160.840311,333 C160.840311,334.027635 160.00331,334.861658 158.978653,334.861658 L158.978653,334.861658 Z M180.170776,332.441999 L164.754261,332.441999 C164.44746,332.441999 164.195267,332.693199 164.195267,333 C164.195267,333.306801 164.44746,333.558001 164.754261,333.558001 L180.170776,333.558001 C180.477577,333.558001 180.72977,333.306801 180.72977,333 C180.72977,332.693199 180.481549,332.441999 180.170776,332.441999 L180.170776,332.441999 Z M158.978653,339.042694 C157.338408,339.042694 156,340.377131 156,342.021347 C156,343.661592 157.338408,345 158.978653,345 C160.623862,345 161.957306,343.661592 161.957306,342.021347 C161.957306,340.381102 160.619891,339.042694 158.978653,339.042694 L158.978653,339.042694 Z M158.978653,343.883005 C157.951018,343.883005 157.116995,343.048982 157.116995,342.021347 C157.116995,340.993712 157.951018,340.159689 158.978653,340.159689 C160.007281,340.159689 160.840311,340.993712 160.840311,342.021347 C160.840311,343.045011 160.00331,343.883005 158.978653,343.883005 L158.978653,343.883005 Z M180.170776,341.462353 L164.754261,341.462353 C164.44746,341.462353 164.195267,341.714546 164.195267,342.021347 C164.195267,342.328148 164.44746,342.579348 164.754261,342.579348 L180.170776,342.579348 C180.477577,342.579348 180.72977,342.328148 180.72977,342.021347 C180.72977,341.714546 180.481549,341.462353 180.170776,341.462353 L180.170776,341.462353 Z M164.754261,324.537647 L180.170776,324.537647 C180.477577,324.537647 180.72977,324.285454 180.72977,323.978653 C180.72977,323.671852 180.477577,323.420652 180.170776,323.420652 L164.754261,323.420652 C164.44746,323.420652 164.195267,323.671852 164.195267,323.978653 C164.195267,324.285454 164.44746,324.537647 164.754261,324.537647 L164.754261,324.537647 Z M158.978653,321 C157.338408,321 156,322.334437 156,323.978653 C156,325.622869 157.338408,326.957306 158.978653,326.957306 C160.623862,326.957306 161.957306,325.622869 161.957306,323.978653 C161.957306,322.334437 160.619891,321 158.978653,321 L158.978653,321 Z M158.978653,325.840311 C157.951018,325.840311 157.116995,325.006288 157.116995,323.978653 C157.116995,322.954989 157.951018,322.116995 158.978653,322.116995 C160.007281,322.116995 160.840311,322.951018 160.840311,323.978653 C160.840311,325.002317 160.00331,325.840311 158.978653,325.840311 L158.978653,325.840311 Z" id="Imported-Layers" sketch:type="MSShapeGroup"></path>
        </g>
    </g>
</svg>