<?xml version="1.0" encoding="UTF-8" standalone="no"?>
<svg width="12px" height="16px" viewBox="0 0 12 16" version="1.1" xmlns="http://www.w3.org/2000/svg" xmlns:xlink="http://www.w3.org/1999/xlink" xmlns:sketch="http://www.bohemiancoding.com/sketch/ns">
    <!-- Generator: Sketch 3.4.4 (17249) - http://www.bohemiancoding.com/sketch -->
    <title>Page 1</title>
    <desc>Created with Sketch.</desc>
    <defs></defs>
    <g id="Page-1" stroke="none" stroke-width="1" fill="none" fill-rule="evenodd" sketch:type="MSPage">
        <g id="iPhone-6-Copy-7" sketch:type="MSArtboardGroup" transform="translate(-12.000000, -262.000000)" fill="#2E93FD">
            <g id="Kyburz-Cabin-+-Page-1" sketch:type="MSLayerGroup" transform="translate(12.000000, 249.000000)">
                <path d="M5.86837333,13 C2.63253333,13 0,15.6325333 0,18.8683733 C0,23.05248 5.02165333,28.4941867 5.23584,28.72416 C5.39925333,28.8999467 5.62837333,29 5.86922667,29 C6.10922667,29 6.33834667,28.8999467 6.50176,28.72416 C6.71594667,28.49504 11.7376,23.0533333 11.7376,18.8683733 C11.7367467,15.6325333 9.10421333,13 5.86837333,13 L5.86837333,13 Z M3.55178667,18.6834133 C3.55178667,17.4034133 4.58922667,16.36576 5.86837333,16.36576 C7.14752,16.36576 8.18496,17.4034133 8.18496,18.6834133 C8.18496,19.96256 7.14837333,21 5.86837333,21 C4.58922667,21 3.55178667,19.96256 3.55178667,18.6834133 L3.55178667,18.6834133 Z" id="Page-1" sketch:type="MSShapeGroup"></path>
            </g>
        </g>
    </g>
</svg>