<?xml version="1.0" encoding="UTF-8" standalone="no"?>
<svg width="13px" height="14px" viewBox="0 0 13 14" version="1.1" xmlns="http://www.w3.org/2000/svg" xmlns:xlink="http://www.w3.org/1999/xlink">
    <!-- Generator: Sketch 39.1 (31720) - http://www.bohemiancoding.com/sketch -->
    <title>Shape</title>
    <desc>Created with Sketch.</desc>
    <defs></defs>
    <g id="Welcome" stroke="none" stroke-width="1" fill="none" fill-rule="evenodd">
        <g id="iPhone-6-Copy-2" transform="translate(-130.000000, -271.000000)" fill="#979797">
            <path d="M142.5984,280.509973 C142.5184,280.491627 140.500053,279.98496 140.500053,275.999893 C140.500053,274.31648 139.45344,272.875627 137.978453,272.286613 C137.874133,271.559787 137.25504,271 136.500053,271 C135.745067,271 135.125973,271.559787 135.021653,272.286613 C133.546667,272.875627 132.500053,274.31648 132.500053,275.999893 C132.500053,279.98496 130.481707,280.491627 130.395947,280.510827 C130.16832,280.563307 130,280.766613 130,280.999787 L130,281.999893 C130,282.229013 130.155947,282.42912 130.378453,282.4848 C130.447573,282.502293 131.811627,282.83488 134.500053,282.955627 L134.500053,283 C134.500053,284.104 135.394987,284.999787 136.500053,284.999787 C137.60512,284.999787 138.500053,284.104 138.500053,283 L138.500053,282.955627 C141.18848,282.83488 142.552533,282.501653 142.621653,282.4848 C142.84416,282.42912 143.000107,282.229013 143.000107,281.999893 L143.000107,280.999787 C143.000107,280.761493 142.831787,280.55648 142.5984,280.509973 L142.5984,280.509973 L142.5984,280.509973 Z M136.500053,271.49984 C136.913493,271.49984 137.26912,271.752427 137.421653,272.111467 C137.12512,272.04064 136.817493,271.999893 136.500053,271.999893 C136.182613,271.999893 135.874987,272.04064 135.578453,272.111467 C135.730987,271.752427 136.086613,271.49984 136.500053,271.49984 L136.500053,271.49984 L136.500053,271.49984 Z M138,283 C138,283.827307 137.327573,284.499947 136.500053,284.499947 C135.672533,284.499947 135.000107,283.827307 135.000107,283 L135.000107,282.974827 C135.465813,282.990827 135.963307,283 136.500053,283 C137.0368,283 137.534293,282.990827 138,282.974827 L138,283 L138,283 L138,283 Z M142.500053,281.999893 C142.500053,281.999893 140.500053,282.499947 136.500053,282.499947 C132.500053,282.499947 130.500053,281.999893 130.500053,281.999893 L130.500053,280.999787 C130.500053,280.999787 133.000107,280.499947 133.000107,275.999893 C133.000107,274.066453 134.566827,272.499947 136.500053,272.499947 C138.43328,272.499947 140,274.066453 140,275.999893 C140,280.499947 142.500053,280.999787 142.500053,280.999787 L142.500053,281.999893 L142.500053,281.999893 Z" id="Shape"></path>
        </g>
    </g>
</svg>