<?xml version="1.0" encoding="UTF-8" standalone="no"?>
<svg width="22px" height="21px" viewBox="0 0 22 21" version="1.1" xmlns="http://www.w3.org/2000/svg" xmlns:xlink="http://www.w3.org/1999/xlink">
    <!-- Generator: Sketch 39 (31667) - http://www.bohemiancoding.com/sketch -->
    <title>Page 1</title>
    <desc>Created with Sketch.</desc>
    <defs></defs>
    <g id="Welcome" stroke="none" stroke-width="1" fill="none" fill-rule="evenodd">
        <path d="M10.53322,0.7182999 C9.622968,0.7182999 8.501442,0.9325199 7.574259,1.6325999 C6.646709,2.3330499 5.95215,3.5278199 5.95215,5.3162999 L5.95215,6.1702399 C5.95215,7.9344199 6.419606,9.0761899 6.866818,9.9488999 C7.31403,10.8216099 7.703454,11.4038999 7.703454,12.1400529 C7.703454,12.6822279 7.483713,13.0587699 7.08251,13.4084419 C6.681308,13.7577449 6.090178,14.0466839 5.400037,14.3142759 C4.021225,14.8490899 2.290166,15.2745849 1.009263,16.1255749 L1.000429,16.1255749 C0.4008343,16.5311949 0,17.1709099 0,18.1098709 L0,20.6635799 C0,20.8402558 0.1593767,21 0.3364211,21 L20.79038,21 C20.96706,21 21.1268,20.8402558 21.1268,20.6635799 L21.1268,18.1098709 C21.1268,17.1709099 20.72265,16.5311949 20.12601,16.1255749 L20.11754,16.1255749 C18.83479,15.2745849 17.10962,14.8490899 15.7264,14.3142759 C15.03478,14.0466839 14.42967,13.7577449 14.02699,13.4084419 C13.62432,13.0587699 13.41451,12.6822279 13.41451,12.1400529 C13.41451,11.4009599 13.78958,10.8216099 14.22538,9.9488999 C14.66119,9.0761899 15.11392,7.9333199 15.11392,6.1702399 L15.11392,5.3162999 C15.11392,3.5278199 14.42672,2.3330499 13.50064,1.6325999 C12.57493,0.9325199 11.442,0.7182999 10.53322,0.7182999 L10.53322,0.7182999 L10.53322,0.7182999 Z" id="Page-1" fill="#4A4A4A"></path>
    </g>
</svg>