<?xml version="1.0" encoding="UTF-8" standalone="no"?>
<svg width="54px" height="54px" viewBox="0 0 54 54" version="1.1" xmlns="http://www.w3.org/2000/svg" xmlns:xlink="http://www.w3.org/1999/xlink">
    <!-- Generator: Sketch 39.1 (31720) - http://www.bohemiancoding.com/sketch -->
    <title>Page 1</title>
    <desc>Created with Sketch.</desc>
    <defs></defs>
    <g id="Welcome" stroke="none" stroke-width="1" fill="none" fill-rule="evenodd">
        <g id="Page-1" fill="#979797">
            <path d="M53.8967047,50.6968402 C53.616491,41.8928451 52.247418,35.7525912 49.4068508,33.9452185 C47.8674508,32.9653775 46.0376619,32.072847 43.9755827,31.2588791 C41.7978649,30.399265 39.4754209,29.6701759 37.1543938,29.0665572 C36.3428895,28.8555131 35.5887323,28.6750076 34.9105532,28.5247304 C34.499977,28.4337512 34.2031877,28.3725536 34.0389168,28.3408933 L35.0605075,30.5525441 C35.1052097,30.4735504 35.1853719,30.3291066 35.2959551,30.1254514 C35.4781529,29.789907 35.6806203,29.4077462 35.8983258,28.9851725 C36.5194917,27.779469 37.1404485,26.4877718 37.7210778,25.1587804 C38.3385578,23.7454422 38.8743761,22.3708395 39.3048637,21.061558 C40.0344725,18.8425314 40.43803,16.8903433 40.43803,15.24621 C40.43803,6.94260551 34.9079702,0.726894 27.32018,0.726894 C19.6378401,0.726894 14.20233,6.77793742 14.20233,15.12548 C14.20233,16.7899335 14.6147331,18.7690626 15.3601773,21.0205608 C15.7970242,22.339989 16.3399691,23.7252202 16.965221,25.1495749 C17.5557342,26.4947931 18.1872683,27.8025574 18.8190088,29.0234529 C19.0404137,29.4513378 19.2463164,29.83832 19.4315982,30.1781061 C19.5440344,30.3843015 19.625523,30.5305252 19.6709374,30.6104481 L20.7464816,28.3869137 C20.5722194,28.413787 20.2626349,28.4677824 19.8367749,28.5518891 C19.1364309,28.6902061 18.3584179,28.8645872 17.5216627,29.078139 C15.1289117,29.688803 12.7344912,30.4933666 10.4873632,31.5207957 C9.60897191,31.9224127 8.76849075,32.3519247 7.97107223,32.8107048 C6.36335067,33.7333097 5.94606768,33.963665 5.42617551,34.21526 C2.17509407,35.791044 0.795067622,41.0687217 0.733470491,50.7604813 C0.724655928,52.1473742 1.84649906,53.27637 3.23342,53.27637 L51.39797,53.27637 C52.8098488,53.27637 53.9416192,52.1080044 53.8967047,50.6968402 Z M3.23342,50.27637 C3.51080419,50.27637 3.73517281,50.5021692 3.7334099,50.7795477 C3.78770773,42.2362678 4.95341241,37.7782275 6.73383198,36.9152663 C7.3386419,36.6225768 7.79366761,36.371386 9.46569396,35.4118782 C10.1809282,35.0003824 10.9386713,34.6131521 11.7348138,34.2491408 C13.8031896,33.3034406 16.032523,32.5543489 18.263526,31.9849653 C19.0450848,31.7855004 19.7697918,31.6230671 20.4180427,31.4950384 C20.8013396,31.4193378 21.0697244,31.3725282 21.2037124,31.3518656 L23.35428,31.0202226 L22.2792567,29.1283312 C22.242284,29.0632645 22.169297,28.9322962 22.0654674,28.7418844 C21.8903062,28.4206584 21.6945723,28.0527877 21.4834455,27.6447661 C20.8793812,26.4773574 20.2751106,25.2260495 19.712206,23.9437252 C19.1224215,22.6001672 18.6130277,21.3005356 18.2081397,20.0776344 C17.5546062,18.1037384 17.20233,16.4131589 17.20233,15.12548 C17.20233,8.3673166 21.3707126,3.726894 27.32018,3.726894 C33.1679364,3.726894 37.43803,8.52642075 37.43803,15.24621 C37.43803,16.5163874 37.0938164,18.1815023 36.4549589,20.1245185 C36.0563452,21.3368595 35.55403,22.625512 34.9719951,23.9577207 C34.418846,25.2238132 33.8250402,26.4590316 33.2314435,27.6112226 C33.0239821,28.013912 32.8316516,28.3769393 32.6595437,28.6939014 C32.5575434,28.8817501 32.4858603,29.0109155 32.4495783,29.0750298 L31.4215577,30.8916546 L33.471169,31.2866805 C33.6090792,31.3132603 33.8788796,31.3688928 34.2615288,31.4536837 C34.9053922,31.5963569 35.624368,31.7684419 36.3993147,31.9699786 C38.6110046,32.5451624 40.8212776,33.2390374 42.8740957,34.0493497 C44.7712247,34.7982065 46.4349128,35.6097168 47.7961767,36.4761727 C49.4044543,37.4994743 50.6534277,43.1010849 50.8982231,50.792276 C50.8892402,50.5100431 51.1155942,50.27637 51.39797,50.27637 L3.23342,50.27637 Z" id="Stroke-3"></path>
        </g>
    </g>
</svg>