<?xml version="1.0" encoding="UTF-8" standalone="no"?>
<svg width="54px" height="61px" viewBox="0 0 54 61" version="1.1" xmlns="http://www.w3.org/2000/svg" xmlns:xlink="http://www.w3.org/1999/xlink" xmlns:sketch="http://www.bohemiancoding.com/sketch/ns">
    <!-- Generator: Sketch 3.3.3 (12081) - http://www.bohemiancoding.com/sketch -->
    <title>Imported Layers</title>
    <desc>Created with Sketch.</desc>
    <defs></defs>
    <g id="Page-1" stroke="none" stroke-width="1" fill="none" fill-rule="evenodd" sketch:type="MSPage">
        <g id="iPhone-6" sketch:type="MSArtboardGroup" transform="translate(-160.625000, -100.500000)" fill="#FFFFFF">
            <path d="M179.215,100.848 C172.477,100.848 166.98,106.344 166.98,113.082 C166.961,114.336 167.977,115.363 169.23,115.363 C170.484,115.363 171.5,114.336 171.48,113.082 C171.48,108.758 174.891,105.348 179.215,105.348 L195.809,105.348 C200.133,105.348 203.543,108.758 203.543,113.082 L203.543,122.855 L163.16,122.855 C161.918,122.855 160.91,123.863 160.91,125.105 L160.91,158.902 C160.91,160.145 161.918,161.152 163.16,161.152 L211.84,161.152 C213.082,161.152 214.09,160.145 214.09,158.902 L214.09,125.105 C214.09,123.863 213.082,122.855 211.84,122.855 L208.043,122.855 L208.043,113.082 C208.043,106.344 202.547,100.848 195.809,100.848 L179.215,100.848 Z M165.41,127.355 L209.59,127.355 L209.59,156.652 L165.41,156.652 L165.41,127.355 Z" id="Imported-Layers" sketch:type="MSShapeGroup"></path>
        </g>
    </g>
</svg>