<?xml version="1.0" encoding="UTF-8" standalone="no"?>
<svg width="12px" height="16px" viewBox="0 0 12 16" version="1.1" xmlns="http://www.w3.org/2000/svg" xmlns:xlink="http://www.w3.org/1999/xlink" xmlns:sketch="http://www.bohemiancoding.com/sketch/ns">
    <!-- Generator: Sketch 3.5.1 (25234) - http://www.bohemiancoding.com/sketch -->
    <title>icon-location</title>
    <desc>Created with Sketch.</desc>
    <defs></defs>
    <g id="Page-1" stroke="none" stroke-width="1" fill="none" fill-rule="evenodd" sketch:type="MSPage">
        <g id="icon-location" sketch:type="MSLayerGroup" fill="#979797">
            <g id="Page-1" sketch:type="MSShapeGroup">
                <g id="iPhone-6-Copy-7">
                    <g>
                        <g id="Kyburz-Cabin-+-Page-1">
                            <path d="M5.86837333,0 C2.63253333,0 0,2.6325333 0,5.8683733 C0,10.05248 5.02165333,15.4941867 5.23584,15.72416 C5.39925333,15.8999467 5.62837333,16 5.86922667,16 C6.10922667,16 6.33834667,15.8999467 6.50176,15.72416 C6.71594667,15.49504 11.7376,10.0533333 11.7376,5.8683733 C11.7367467,2.6325333 9.10421333,0 5.86837333,0 L5.86837333,0 L5.86837333,0 Z M3.55178667,5.6834133 C3.55178667,4.4034133 4.58922667,3.36576 5.86837333,3.36576 C7.14752,3.36576 8.18496,4.4034133 8.18496,5.6834133 C8.18496,6.96256 7.14837333,8 5.86837333,8 C4.58922667,8 3.55178667,6.96256 3.55178667,5.6834133 L3.55178667,5.6834133 L3.55178667,5.6834133 Z" id="Page-1"></path>
                        </g>
                    </g>
                </g>
            </g>
        </g>
    </g>
</svg>