<?xml version="1.0" encoding="UTF-8" standalone="no"?>
<svg width="24px" height="16px" viewBox="0 0 24 16" version="1.1" xmlns="http://www.w3.org/2000/svg" xmlns:xlink="http://www.w3.org/1999/xlink">
    <!-- Generator: Sketch 39.1 (31720) - http://www.bohemiancoding.com/sketch -->
    <title>Shape</title>
    <desc>Created with Sketch.</desc>
    <defs></defs>
    <g id="Welcome" stroke="none" stroke-width="1" fill="none" fill-rule="evenodd">
        <path d="M11.6945455,11.6945455 C9.62909091,11.6945455 7.91272727,10.0072727 7.91272727,7.91272727 C7.91272727,5.81818182 9.6,4.13090909 11.6945455,4.13090909 C13.7890909,4.13090909 15.4763636,5.81818182 15.4763636,7.91272727 C15.4763636,10.0072727 13.76,11.6945455 11.6945455,11.6945455 L11.6945455,11.6945455 Z M11.6945455,5.17818182 C10.1818182,5.17818182 8.96,6.4 8.96,7.91272727 C8.96,9.42545455 10.1818182,10.6472727 11.6945455,10.6472727 C13.2072727,10.6472727 14.4290909,9.42545455 14.4290909,7.91272727 C14.4290909,6.4 13.2072727,5.17818182 11.6945455,5.17818182 L11.6945455,5.17818182 Z M3.63636364,15.5927273 C3.84,15.3890909 3.84,15.0690909 3.66545455,14.8654545 C2.00727273,12.9454545 1.07636364,10.4727273 1.07636364,7.94181818 C1.07636364,5.35272727 2.03636364,2.85090909 3.75272727,0.901818182 C3.95636364,0.698181818 3.92727273,0.378181818 3.75272727,0.174545455 C3.63636364,0.0581818182 3.52,0 3.34545455,0 C3.2,0 3.05454545,0.0581818182 2.93818182,0.174545455 C1.04727273,2.32727273 0,5.09090909 0,7.94181818 C0,10.7345455 1.01818182,13.4690909 2.85090909,15.5927273 C2.93818182,15.7090909 3.08363636,15.7672727 3.25818182,15.7672727 C3.40363636,15.7672727 3.54909091,15.7090909 3.63636364,15.5927273 L3.63636364,15.5927273 Z M20.5963636,15.5054545 C22.4,13.3818182 23.3890909,10.7054545 23.3890909,7.91272727 C23.3890909,5.09090909 22.3709091,2.35636364 20.48,0.203636364 C20.3927273,0.0872727273 20.2472727,0.0290909091 20.0727273,0.0290909091 C19.9272727,0.0290909091 19.7818182,0.0872727273 19.6945455,0.203636364 C19.4909091,0.407272727 19.4909091,0.727272727 19.6654545,0.96 C21.3527273,2.88 22.2836364,5.38181818 22.2836364,7.94181818 C22.2836364,10.4436364 21.3818182,12.8872727 19.7527273,14.8072727 C19.5781818,15.04 19.5781818,15.3309091 19.7818182,15.5345455 C19.8981818,15.6509091 20.0145455,15.7090909 20.16,15.7090909 C20.3345455,15.7090909 20.48,15.6509091 20.5963636,15.5054545 L20.5963636,15.5054545 Z M17.8036364,12.6545455 C18.8509091,11.2872727 19.4036364,9.65818182 19.4036364,7.94181818 C19.4036364,6.19636364 18.7927273,4.48 17.6872727,3.11272727 C17.5709091,2.99636364 17.4254545,2.90909091 17.2509091,2.90909091 C17.1054545,2.90909091 16.96,2.96727273 16.8727273,3.08363636 C16.6690909,3.28727273 16.6690909,3.57818182 16.8145455,3.78181818 C17.7745455,4.97454545 18.2981818,6.45818182 18.2981818,7.97090909 C18.2981818,9.45454545 17.8036364,10.8509091 16.9018182,12.0436364 C16.7563636,12.2472727 16.7563636,12.5381818 16.96,12.7418182 C17.0763636,12.8581818 17.1927273,12.9163636 17.3381818,12.9163636 C17.5418182,12.8581818 17.7163636,12.8 17.8036364,12.6545455 L17.8036364,12.6545455 Z M6.42909091,12.7418182 C6.60363636,12.5381818 6.63272727,12.2472727 6.48727273,12.0436364 C5.55636364,10.8509091 5.06181818,9.45454545 5.06181818,7.94181818 C5.06181818,6.4 5.58545455,4.91636364 6.57454545,3.72363636 C6.74909091,3.52 6.72,3.22909091 6.51636364,3.02545455 C6.4,2.90909091 6.28363636,2.85090909 6.13818182,2.85090909 C5.96363636,2.85090909 5.81818182,2.93818182 5.70181818,3.05454545 C4.56727273,4.42181818 3.95636364,6.16727273 3.95636364,7.94181818 C3.95636364,9.68727273 4.53818182,11.3454545 5.61454545,12.7127273 C5.73090909,12.8581818 5.87636364,12.9163636 6.05090909,12.9163636 C6.19636364,12.9163636 6.31272727,12.8581818 6.42909091,12.7418182 L6.42909091,12.7418182 Z" id="Shape" fill="#4A4A4A"></path>
    </g>
</svg>