<?xml version="1.0" encoding="UTF-8" standalone="no"?>
<svg width="24px" height="17px" viewBox="0 0 24 17" version="1.1" xmlns="http://www.w3.org/2000/svg" xmlns:xlink="http://www.w3.org/1999/xlink">
    <!-- Generator: Sketch 39.1 (31720) - http://www.bohemiancoding.com/sketch -->
    <title>Shape Copy 6</title>
    <desc>Created with Sketch.</desc>
    <defs></defs>
    <g id="Welcome" stroke="none" stroke-width="1" fill="none" fill-rule="evenodd">
        <path d="M11.6945455,12.1945455 C9.62909091,12.1945455 7.91272727,10.5072727 7.91272727,8.41272727 C7.91272727,6.31818182 9.6,4.63090909 11.6945455,4.63090909 C13.7890909,4.63090909 15.4763636,6.31818182 15.4763636,8.41272727 C15.4763636,10.5072727 13.76,12.1945455 11.6945455,12.1945455 L11.6945455,12.1945455 Z M11.6945455,5.67818182 C10.1818182,5.67818182 8.96,6.9 8.96,8.41272727 C8.96,9.92545455 10.1818182,11.1472727 11.6945455,11.1472727 C13.2072727,11.1472727 14.4290909,9.92545455 14.4290909,8.41272727 C14.4290909,6.9 13.2072727,5.67818182 11.6945455,5.67818182 L11.6945455,5.67818182 Z M3.63636364,16.0927273 C3.84,15.8890909 3.84,15.5690909 3.66545455,15.3654545 C2.00727273,13.4454545 1.07636364,10.9727273 1.07636364,8.44181818 C1.07636364,5.85272727 2.03636364,3.35090909 3.75272727,1.40181818 C3.95636364,1.19818182 3.92727273,0.878181818 3.75272727,0.674545455 C3.63636364,0.558181818 3.52,0.5 3.34545455,0.5 C3.2,0.5 3.05454545,0.558181818 2.93818182,0.674545455 C1.04727273,2.82727273 0,5.59090909 0,8.44181818 C0,11.2345455 1.01818182,13.9690909 2.85090909,16.0927273 C2.93818182,16.2090909 3.08363636,16.2672727 3.25818182,16.2672727 C3.40363636,16.2672727 3.54909091,16.2090909 3.63636364,16.0927273 L3.63636364,16.0927273 Z M20.5963636,16.0054545 C22.4,13.8818182 23.3890909,11.2054545 23.3890909,8.41272727 C23.3890909,5.59090909 22.3709091,2.85636364 20.48,0.703636364 C20.3927273,0.587272727 20.2472727,0.529090909 20.0727273,0.529090909 C19.9272727,0.529090909 19.7818182,0.587272727 19.6945455,0.703636364 C19.4909091,0.907272727 19.4909091,1.22727273 19.6654545,1.46 C21.3527273,3.38 22.2836364,5.88181818 22.2836364,8.44181818 C22.2836364,10.9436364 21.3818182,13.3872727 19.7527273,15.3072727 C19.5781818,15.54 19.5781818,15.8309091 19.7818182,16.0345455 C19.8981818,16.1509091 20.0145455,16.2090909 20.16,16.2090909 C20.3345455,16.2090909 20.48,16.1509091 20.5963636,16.0054545 L20.5963636,16.0054545 Z M17.8036364,13.1545455 C18.8509091,11.7872727 19.4036364,10.1581818 19.4036364,8.44181818 C19.4036364,6.69636364 18.7927273,4.98 17.6872727,3.61272727 C17.5709091,3.49636364 17.4254545,3.40909091 17.2509091,3.40909091 C17.1054545,3.40909091 16.96,3.46727273 16.8727273,3.58363636 C16.6690909,3.78727273 16.6690909,4.07818182 16.8145455,4.28181818 C17.7745455,5.47454545 18.2981818,6.95818182 18.2981818,8.47090909 C18.2981818,9.95454545 17.8036364,11.3509091 16.9018182,12.5436364 C16.7563636,12.7472727 16.7563636,13.0381818 16.96,13.2418182 C17.0763636,13.3581818 17.1927273,13.4163636 17.3381818,13.4163636 C17.5418182,13.3581818 17.7163636,13.3 17.8036364,13.1545455 L17.8036364,13.1545455 Z M6.42909091,13.2418182 C6.60363636,13.0381818 6.63272727,12.7472727 6.48727273,12.5436364 C5.55636364,11.3509091 5.06181818,9.95454545 5.06181818,8.44181818 C5.06181818,6.9 5.58545455,5.41636364 6.57454545,4.22363636 C6.74909091,4.02 6.72,3.72909091 6.51636364,3.52545455 C6.4,3.40909091 6.28363636,3.35090909 6.13818182,3.35090909 C5.96363636,3.35090909 5.81818182,3.43818182 5.70181818,3.55454545 C4.56727273,4.92181818 3.95636364,6.66727273 3.95636364,8.44181818 C3.95636364,10.1872727 4.53818182,11.8454545 5.61454545,13.2127273 C5.73090909,13.3581818 5.87636364,13.4163636 6.05090909,13.4163636 C6.19636364,13.4163636 6.31272727,13.3581818 6.42909091,13.2418182 L6.42909091,13.2418182 Z" id="Shape-Copy-6" fill="#2E93FD"></path>
    </g>
</svg>