<?xml version="1.0" encoding="UTF-8" standalone="no"?>
<svg width="67px" height="50px" viewBox="0 0 67 50" version="1.1" xmlns="http://www.w3.org/2000/svg" xmlns:xlink="http://www.w3.org/1999/xlink" xmlns:sketch="http://www.bohemiancoding.com/sketch/ns">
    <!-- Generator: Sketch 3.4.4 (17249) - http://www.bohemiancoding.com/sketch -->
    <title>Page 1</title>
    <desc>Created with Sketch.</desc>
    <defs></defs>
    <g id="Page-1" stroke="none" stroke-width="1" fill="none" fill-rule="evenodd" sketch:type="MSPage">
        <path d="M66.883,7.274 C66.883,5.84 66.149,4.676 65.43,3.547 L64.411,2.375 C63.09,1.024 61.649,0 59.614,0 L7.27,0 C5.235,0 4.02,0.539 2.7,1.891 C2.672,1.918 1.454,3.547 1.454,3.547 C0.735,4.676 0,5.836 0,7.274 L0,42.168 C0,43.653 0.45,45.035 1.215,46.188 L1.168,46.235 L1.376,46.41 C2.696,48.242 4.844,49.442 7.27,49.442 L59.61,49.442 C62.063,49.442 64.235,48.215 65.547,46.352 L65.684,46.235 L65.653,46.203 C66.426,45.047 66.879,43.66 66.879,42.168 L66.879,7.274 L66.883,7.274 Z M7.27,2.91 L59.61,2.91 C60.286,2.91 60.704,3.383 61.247,3.637 L33.442,31.445 L5.633,3.641 C6.176,3.383 6.594,2.91 7.27,2.91 L7.27,2.91 Z M45.247,25.785 L43.153,27.785 L61.051,45.684 C60.524,45.93 60.012,46.41 59.508,46.41 L7.348,46.41 C6.844,46.41 6.336,45.93 5.801,45.684 L23.704,27.785 L21.704,25.785 L3.356,44.055 C3.079,43.481 2.907,42.848 2.907,42.168 L2.907,7.274 C2.907,6.645 3.301,6.18 3.543,5.641 L33.438,35.535 L63.336,5.641 C63.579,6.18 63.969,6.645 63.969,7.274 L63.969,42.168 C63.969,42.852 63.797,43.488 63.516,44.063 L45.247,25.785 Z" fill="#979797" sketch:type="MSShapeGroup"></path>
    </g>
</svg>