<?xml version="1.0" encoding="UTF-8" standalone="no"?>
<svg width="18px" height="17px" viewBox="0 0 18 17" version="1.1" xmlns="http://www.w3.org/2000/svg" xmlns:xlink="http://www.w3.org/1999/xlink">
    <!-- Generator: Sketch 39.1 (31720) - http://www.bohemiancoding.com/sketch -->
    <title>Group 2</title>
    <desc>Created with Sketch.</desc>
    <defs></defs>
    <g id="Welcome" stroke="none" stroke-width="1" fill="none" fill-rule="evenodd">
        <g id="iPhone-6-Copy-4" transform="translate(-16.000000, -124.000000)">
            <g id="Group-2" transform="translate(16.000000, 123.000000)">
                <g id="Group-3">
                    <path d="M8.10414219,1.79171562 C8.5989108,0.802178408 9.39833151,0.796663016 9.89585781,1.79171562 L17.1041422,16.2082844 C17.5989108,17.1978216 17.1073772,18 16.0049107,18 L1.99508929,18 C0.893231902,18 0.398331508,17.203337 0.895857811,16.2082844 L8.10414219,1.79171562 Z" id="Triangle" fill="#4A4A4A"></path>
                    <path d="M7.99216283,7.2 L8.12538651,12.5733553 L9.5242352,12.5733553 L9.65745888,7.2 L7.99216283,7.2 Z M8.82481086,15.3488487 C9.32995066,15.3488487 9.72962171,14.9658306 9.72962171,14.4773437 C9.72962171,13.9888569 9.32995066,13.6058388 8.82481086,13.6058388 C8.31967105,13.6058388 7.92,13.9888569 7.92,14.4773437 C7.92,14.9658306 8.31967105,15.3488487 8.82481086,15.3488487 L8.82481086,15.3488487 Z" id="!" fill="#F9A825"></path>
                </g>
            </g>
        </g>
    </g>
</svg>