<?xml version="1.0" encoding="UTF-8" standalone="no"?>
<svg width="18px" height="18px" viewBox="0 0 18 18" version="1.1" xmlns="http://www.w3.org/2000/svg" xmlns:xlink="http://www.w3.org/1999/xlink">
    <!-- Generator: Sketch 39.1 (31720) - http://www.bohemiancoding.com/sketch -->
    <title>Combined-Shape</title>
    <desc>Created with Sketch.</desc>
    <defs></defs>
    <g id="Welcome" stroke="none" stroke-width="1" fill="none" fill-rule="evenodd">
        <g id="iPhone-6-Copy-2" transform="translate(-86.000000, -281.000000)" fill="#FFB74D">
            <g id="icon-today" transform="translate(86.000000, 281.000000)">
                <g id="Combined-Shape">
                    <g id="Welcome">
                        <path d="M8.98599233,13.7859923 C8.31099233,13.7859923 7.63599233,13.6359923 6.99849233,13.3359923 C4.56099233,12.2484923 3.47349233,9.36099233 4.59849233,6.92349233 C5.38599233,5.19849233 7.11099233,4.07349233 9.02349233,4.07349233 C9.69849233,4.07349233 10.3734923,4.22349233 11.0109923,4.52349233 C13.4484923,5.61099233 14.5359923,8.49849233 13.4109923,10.9359923 C12.6234923,12.6609923 10.8984923,13.7859923 8.98599233,13.7859923 L8.98599233,13.7859923 L8.98599233,13.7859923 Z M17.3484923,13.1109923 C17.3109923,13.1109923 17.2359923,13.1109923 17.1984923,13.0734923 L14.9859923,12.0609923 C14.7984923,11.9859923 14.6859923,11.7234923 14.7984923,11.5359923 C14.8734923,11.3484923 15.1359923,11.2359923 15.3234923,11.3484923 L17.5359923,12.3609923 C17.7234923,12.4359923 17.8359923,12.6984923 17.7234923,12.8859923 C17.6109923,13.0359923 17.4984923,13.1109923 17.3484923,13.1109923 L17.3484923,13.1109923 Z M2.83599233,6.54849233 C2.79849233,6.54849233 2.72349233,6.54849233 2.68599233,6.51099233 L0.473492333,5.49849233 C0.285992333,5.42349233 0.173492333,5.16099233 0.285992333,4.97349233 C0.360992333,4.78599233 0.623492333,4.67349233 0.810992333,4.78599233 L3.02349233,5.79849233 C3.21099233,5.87349233 3.32349233,6.13599233 3.21099233,6.32349233 C3.13599233,6.47349233 2.98599233,6.54849233 2.83599233,6.54849233 L2.83599233,6.54849233 Z M11.7609923,3.21099233 C11.7234923,3.21099233 11.6484923,3.21099233 11.6109923,3.17349233 C11.4234923,3.09849233 11.3109923,2.83599233 11.4234923,2.64849233 L12.4359923,0.435992333 C12.5109923,0.248492333 12.7734923,0.135992333 12.9609923,0.248492333 C13.1484923,0.323492333 13.2609923,0.585992333 13.1484923,0.773492333 L12.1359923,2.98599233 C12.0609923,3.09849233 11.9109923,3.21099233 11.7609923,3.21099233 L11.7609923,3.21099233 Z M5.19849233,17.6859923 C5.16099233,17.6859923 5.08599233,17.6859923 5.04849233,17.6484923 C4.86099233,17.5734923 4.74849233,17.3109923 4.86099233,17.1234923 L5.87349233,14.9109923 C5.94849233,14.7234923 6.21099233,14.6109923 6.39849233,14.7234923 C6.58599233,14.7984923 6.69849233,15.0609923 6.58599233,15.2484923 L5.57349233,17.4609923 C5.49849233,17.6109923 5.34849233,17.6859923 5.19849233,17.6859923 L5.19849233,17.6859923 Z M15.2859923,6.96099233 C15.1359923,6.96099233 14.9859923,6.84849233 14.9109923,6.69849233 C14.8359923,6.51099233 14.9484923,6.28599233 15.1359923,6.21099233 L17.3859923,5.34849233 C17.5734923,5.27349233 17.7984923,5.38599233 17.8734923,5.57349233 C17.9484923,5.76099233 17.8359923,5.98599233 17.6484923,6.06099233 L15.3984923,6.92349233 C15.3984923,6.96099233 15.3234923,6.96099233 15.2859923,6.96099233 L15.2859923,6.96099233 Z M0.398492333,12.5859923 C0.248492333,12.5859923 0.0984923327,12.4734923 0.0234923327,12.3234923 C-0.0515076673,12.1359923 0.0609923327,11.9109923 0.248492333,11.8359923 L2.49849233,10.9734923 C2.68599233,10.8984923 2.91099233,11.0109923 2.98599233,11.1984923 C3.06099233,11.3859923 2.94849233,11.6109923 2.76099233,11.6859923 L0.510992333,12.5484923 C0.510992333,12.5484923 0.473492333,12.5859923 0.398492333,12.5859923 L0.398492333,12.5859923 Z M6.62349233,3.02349233 C6.47349233,3.02349233 6.32349233,2.91099233 6.24849233,2.76099233 L5.38599233,0.510992333 C5.31099233,0.323492333 5.42349233,0.0984923327 5.61099233,0.0234923327 C5.79849233,-0.0515076673 6.02349233,0.0609923327 6.09849233,0.248492333 L6.96099233,2.49849233 C7.03599233,2.68599233 6.92349233,2.91099233 6.73599233,2.98599233 C6.69849233,3.02349233 6.66099233,3.02349233 6.62349233,3.02349233 L6.62349233,3.02349233 Z M12.2109923,17.9109923 C12.0609923,17.9109923 11.9109923,17.7984923 11.8359923,17.6484923 L10.9734923,15.3984923 C10.8984923,15.2109923 11.0109923,14.9859923 11.1984923,14.9109923 C11.3859923,14.8359923 11.6109923,14.9484923 11.6859923,15.1359923 L12.5484923,17.3859923 C12.6234923,17.5734923 12.5109923,17.7984923 12.3234923,17.8734923 C12.3234923,17.9109923 12.2484923,17.9109923 12.2109923,17.9109923 L12.2109923,17.9109923 Z" id="Combined-Shape"></path>
                    </g>
                </g>
            </g>
        </g>
    </g>
</svg>