<?xml version="1.0" encoding="UTF-8" standalone="no"?>
<svg width="22px" height="22px" viewBox="0 0 22 22" version="1.1" xmlns="http://www.w3.org/2000/svg" xmlns:xlink="http://www.w3.org/1999/xlink">
    <!-- Generator: Sketch 3.8.3 (29802) - http://www.bohemiancoding.com/sketch -->
    <title>Group 2</title>
    <desc>Created with Sketch.</desc>
    <defs></defs>
    <g id="Page-1" stroke="none" stroke-width="1" fill="none" fill-rule="evenodd">
        <g id="iPhone-6" transform="translate(-109.000000, -486.000000)">
            <g id="Group-2" transform="translate(109.000000, 486.000000)">
                <circle id="Oval-486" fill="#65BCB3" cx="11" cy="11" r="11"></circle>
                <g id="icon-Chat" transform="translate(5.000000, 6.000000)" fill="#FFFFFF">
                    <g id="Shape">
                        <g id="Page-1">
                            <g id="iPhone-6-Copy-3">
                                <path d="M8.5437645,0.055072 L2.6292472,0.055072 C1.2728187,0.055072 0.1730117,1.154879 0.1730117,2.511307 L0.1730117,5.590767 C0.1730117,6.947195 1.2728187,8.047002 2.6292472,8.047002 L6.7351931,8.047002 L8.6659653,10.258836 L9.1914286,10.85762 C9.2158687,10.89428 9.2647491,10.9065 9.3014093,10.9065 C9.3136294,10.9065 9.3380695,10.9065 9.3502896,10.89428 C9.41139,10.86984 9.4480502,10.82096 9.4480502,10.759859 L9.4480502,7.875921 C10.3767761,7.509319 11,6.605033 11,5.590767 L11,2.511307 C11,1.154879 9.9001931,0.055072 8.5437645,0.055072 L8.5437645,0.055072 L8.5437645,0.055072 Z" id="Shape"></path>
                            </g>
                        </g>
                    </g>
                </g>
            </g>
        </g>
    </g>
</svg>