<?xml version="1.0" encoding="UTF-8" standalone="no"?>
<svg width="61px" height="61px" viewBox="0 0 61 61" version="1.1" xmlns="http://www.w3.org/2000/svg" xmlns:xlink="http://www.w3.org/1999/xlink">
    <!-- Generator: Sketch 3.6.1 (26313) - http://www.bohemiancoding.com/sketch -->
    <title>Group 7</title>
    <desc>Created with Sketch.</desc>
    <defs></defs>
    <g id="Page-1" stroke="none" stroke-width="1" fill="none" fill-rule="evenodd">
        <g id="Group-7">
            <rect id="Rectangle-44" fill="#979797" x="0" y="0" width="61" height="61"></rect>
            <path d="M30.647059,37.733928 C27.686765,37.733928 25.292647,35.339286 25.292647,32.414286 C25.292647,29.489286 27.686765,27.094643 30.647059,27.094643 C33.607353,27.094643 36.001471,29.489286 36.001471,32.414286 C36.001471,35.339286 33.607353,37.733928 30.647059,37.733928 L30.647059,37.733928 Z M30.647059,29.408928 C28.980882,29.408928 27.622059,30.758928 27.622059,32.414286 C27.622059,34.069643 28.980882,35.419643 30.647059,35.419643 C32.313235,35.419643 33.672059,34.069643 33.672059,32.414286 C33.672059,30.758928 32.313235,29.408928 30.647059,29.408928 L30.647059,29.408928 Z M39.269118,25.005357 L35.775,25.005357 C35.775,23.35 34.416176,22 32.75,22 L28.544118,22 C26.877941,22 25.519118,23.35 25.519118,25.005357 L22.025,25.005357 C20.358824,25.005357 19,26.355357 19,28.010714 L19,36.801786 C19,38.457143 20.358824,39.807143 22.025,39.807143 L39.269118,39.807143 C40.935294,39.807143 42.294118,38.457143 42.294118,36.801786 L42.294118,28.010714 C42.294118,26.355357 40.935294,25.005357 39.269118,25.005357 L39.269118,25.005357 L39.269118,25.005357 Z" id="Shape-Copy-2" fill="#FFFFFF"></path>
        </g>
    </g>
</svg>