<?xml version="1.0" encoding="UTF-8" standalone="no"?>
<svg width="75px" height="75px" viewBox="0 0 75 75" version="1.1" xmlns="http://www.w3.org/2000/svg" xmlns:xlink="http://www.w3.org/1999/xlink">
    <!-- Generator: Sketch 39.1 (31720) - http://www.bohemiancoding.com/sketch -->
    <title>Page 1</title>
    <desc>Created with Sketch.</desc>
    <defs></defs>
    <g id="Welcome" stroke="none" stroke-width="1" fill="none" fill-rule="evenodd">
        <g id="Page-1" fill="#6CADF3">
            <path d="M0.9460983,0.95418 C0.3170983,1.58318 -0.02190169,2.45018 0.001098314,3.33718 L0.8530983,35.47418 C0.8760983,36.33318 1.228098,37.14218 1.829098,37.74318 L38.1141,74.0281754 C39.3801,75.2941742 41.4931,75.3411789 42.7741,74.0591736 L74.0631,42.77018 C75.3451,41.48918 75.2981,39.37617 74.0321,38.11418 L37.7511,1.82918 C37.1491,1.22718 36.3371,0.87218 35.4811,0.84918 L3.345098,0.00118 C2.458098,-0.02282 1.587098,0.32118 0.9540983,0.95418 L0.9460983,0.95418 Z M15.9151,15.91518 C17.5831,14.24718 20.2351,14.24718 21.8991,15.91518 C23.5671,17.58318 23.5671,20.23518 21.8991,21.89918 C20.2311,23.56718 17.5791,23.56718 15.9151,21.89918 C14.2471,20.23118 14.2471,17.57918 15.9151,15.91518 Z" id="Fill-1"></path>
        </g>
    </g>
</svg>