<?xml version="1.0" encoding="UTF-8" standalone="no"?>
<svg width="73px" height="65px" viewBox="0 0 73 65" version="1.1" xmlns="http://www.w3.org/2000/svg" xmlns:xlink="http://www.w3.org/1999/xlink" xmlns:sketch="http://www.bohemiancoding.com/sketch/ns">
    <!-- Generator: Sketch 3.4 (15588) - http://www.bohemiancoding.com/sketch -->
    <title>Fill 1</title>
    <desc>Created with Sketch.</desc>
    <defs></defs>
    <g id="Page-1" stroke="none" stroke-width="1" fill="none" fill-rule="evenodd" sketch:type="MSPage">
        <path d="M65.8692627,34.6588764 C53.323287,35.9737102 47.633,44.97239 47.633,51.516 C47.633,59.914 52.496,64.73 60.969,64.73 L69.07,64.73 C69.150736,64.73 69.2307672,64.7269305 69.3099816,64.7209014 C70.9213094,64.5986217 72.1948126,63.2550719 72.191,61.609 L72.191,37.617 C72.191,32.633 72.191,23.375 62.289,23.375 C58.18,23.375 55.297,25.492 53.484,27.086 C52.191,28.223 52.062,30.199 53.199,31.496 C54.344,32.793 56.316,32.922 57.613,31.781 C59.355,30.254 60.707,29.633 62.293,29.633 C64.4494247,29.633 65.5797513,29.8703485 65.8692627,34.6588764 Z M65.945,40.961 C57.738,42.094 53.891,47.648 53.891,51.52 C53.891,56.402 56.008,58.484 60.977,58.484 L65.945,58.484 L65.945,40.961 Z M33.8478111,45.98 L38.996,61.422 C39.43,62.727 40.652,63.559 41.961,63.559 L41.957,63.562 C42.285,63.562 42.621,63.508 42.941,63.402 C44.582,62.855 45.465,61.078 44.918,59.445 L25.91,2.414 C25.484,1.129 24.293,0.27 22.945,0.27 C21.598,0.27 20.406,1.137 19.98,2.41 L0.973,59.441 C0.426,61.086 1.312,62.855 2.949,63.398 C4.59,63.961 6.359,63.055 6.902,61.426 L12.080418,45.8920369 C12.3175195,45.9495325 12.5651965,45.98 12.82,45.98 L33.8478111,45.98 Z M31.7641316,39.73 L22.949,13.289 L14.134601,39.73 L31.7641316,39.73 Z" id="Fill-1" fill="#979797" sketch:type="MSShapeGroup"></path>
    </g>
</svg>