<?xml version="1.0" encoding="UTF-8" standalone="no"?>
<svg width="13px" height="14px" viewBox="0 0 13 14" version="1.1" xmlns="http://www.w3.org/2000/svg" xmlns:xlink="http://www.w3.org/1999/xlink">
    <!-- Generator: Sketch 39.1 (31720) - http://www.bohemiancoding.com/sketch -->
    <title>Shape</title>
    <desc>Created with Sketch.</desc>
    <defs></defs>
    <g id="Welcome" stroke="none" stroke-width="1" fill="none" fill-rule="evenodd">
        <g id="icon-notify-light" fill="#6CADF3">
            <g id="Shape">
                <g id="Welcome">
                    <g id="iPhone-6-Copy-2">
                        <path d="M12.5984,9.509973 C12.5184,9.491627 10.500053,8.98496 10.500053,4.999893 C10.500053,3.31648 9.45344,1.875627 7.9784533,1.286613 C7.8741333,0.559787 7.25504,0 6.5000533,0 C5.7450667,0 5.1259733,0.559787 5.0216533,1.286613 C3.5466667,1.875627 2.5000533,3.31648 2.5000533,4.999893 C2.5000533,8.98496 0.4817067,9.491627 0.3959467,9.510827 C0.16832,9.563307 0,9.766613 0,9.999787 L0,10.999893 C0,11.229013 0.1559467,11.42912 0.3784533,11.4848 C0.4475733,11.502293 1.8116267,11.83488 4.5000533,11.955627 L4.5000533,12 C4.5000533,13.104 5.3949867,13.999787 6.5000533,13.999787 C7.60512,13.999787 8.500053,13.104 8.500053,12 L8.500053,11.955627 C11.18848,11.83488 12.552533,11.501653 12.621653,11.4848 C12.84416,11.42912 13.000107,11.229013 13.000107,10.999893 L13.000107,9.999787 C13.000107,9.761493 12.831787,9.55648 12.5984,9.509973 L12.5984,9.509973 L12.5984,9.509973 L12.5984,9.509973 Z M6.5000533,0.49984 C6.9134933,0.49984 7.26912,0.752427 7.4216533,1.111467 C7.12512,1.04064 6.8174933,0.999893 6.5000533,0.999893 C6.1826133,0.999893 5.8749867,1.04064 5.5784533,1.111467 C5.7309867,0.752427 6.0866133,0.49984 6.5000533,0.49984 L6.5000533,0.49984 L6.5000533,0.49984 L6.5000533,0.49984 Z" id="Shape"></path>
                    </g>
                </g>
            </g>
        </g>
    </g>
</svg>