<?xml version="1.0" encoding="UTF-8" standalone="no"?>
<svg width="16px" height="16px" viewBox="0 0 16 16" version="1.1" xmlns="http://www.w3.org/2000/svg" xmlns:xlink="http://www.w3.org/1999/xlink" xmlns:sketch="http://www.bohemiancoding.com/sketch/ns">
    <!-- Generator: Sketch 3.4.4 (17249) - http://www.bohemiancoding.com/sketch -->
    <title>Page 1</title>
    <desc>Created with Sketch.</desc>
    <defs></defs>
    <g id="Page-1" stroke="none" stroke-width="1" fill="none" fill-rule="evenodd" sketch:type="MSPage">
        <g id="Oval-518-+-Page-1" sketch:type="MSLayerGroup" transform="translate(-301.000000, -6.000000)" fill="#979797">
            <path d="M317,7.63158974 L317,15.7243077 C317,16.6170256 316.261128,17.3558974 315.36841,17.3558974 L314.384615,17.3558974 L310.384615,21.7530256 C310.261128,21.8765128 310.107282,21.968 309.923077,21.968 C309.862359,21.968 309.769231,21.968 309.708513,21.937641 C309.461538,21.8445128 309.307692,21.6299487 309.307692,21.3526154 L309.307692,17.3846154 L302.63159,17.3846154 C301.738872,17.3846154 301,16.6457436 301,15.7530256 L301,7.63158974 C301,6.73887179 301.738872,6 302.63159,6 L315.339692,6 C316.261128,6 317,6.73887179 317,7.63158974 Z M304.076923,10.3076923 C304.076923,9.96964103 304.354256,9.69230769 304.692308,9.69230769 L309,9.69230769 C309.338051,9.69230769 309.615385,9.96964103 309.615385,10.3076923 C309.615385,10.6457436 309.338051,10.9230769 309,10.9230769 L304.692308,10.9230769 C304.354256,10.9230769 304.076923,10.6457436 304.076923,10.3076923 Z M312.969641,12.4615385 L304.692308,12.4615385 C304.354256,12.4615385 304.076923,12.7388718 304.076923,13.0769231 C304.076923,13.4149744 304.354256,13.6923077 304.692308,13.6923077 L312.969641,13.6923077 C313.307692,13.6923077 313.585026,13.4149744 313.585026,13.0769231 C313.585026,12.7388718 313.307692,12.4615385 312.969641,12.4615385 Z M315.769231,7.63158974 C315.769231,7.41661538 315.585026,7.23076923 315.36841,7.23076923 L302.63159,7.23076923 C302.416615,7.23076923 302.230769,7.41497436 302.230769,7.63158974 L302.230769,15.7243077 C302.230769,15.9392821 302.414974,16.1251282 302.63159,16.1251282 L309.923077,16.1251282 C310.261128,16.1251282 310.538462,16.4020513 310.538462,16.7405128 L310.538462,19.7243077 L313.615385,16.3093333 C313.738872,16.1858462 313.892718,16.094359 314.076923,16.094359 L315.338051,16.094359 C315.553026,16.094359 315.738872,15.9101538 315.738872,15.6939487 L315.738872,7.63158974 L315.769231,7.63158974 Z" id="Page-1" sketch:type="MSShapeGroup"></path>
        </g>
    </g>
</svg>