<?xml version="1.0" encoding="UTF-8" standalone="no"?>
<svg width="19px" height="12px" viewBox="0 0 19 12" version="1.1" xmlns="http://www.w3.org/2000/svg" xmlns:xlink="http://www.w3.org/1999/xlink" xmlns:sketch="http://www.bohemiancoding.com/sketch/ns">
    <!-- Generator: Sketch 3.3.3 (12081) - http://www.bohemiancoding.com/sketch -->
    <title>Imported Layers</title>
    <desc>Created with Sketch.</desc>
    <defs></defs>
    <g id="Page-1" stroke="none" stroke-width="1" fill="none" fill-rule="evenodd" sketch:type="MSPage">
        <g id="iPhone-6-Copy-2" sketch:type="MSArtboardGroup" transform="translate(-109.625000, -248.500000)" stroke="#2D93FF" stroke-width="0.25" fill="#2D93FF">
            <path d="M126.646927,259.766431 L111.325467,259.766431 C110.690156,259.766431 110,259.325099 110,258.634943 L110,250.077011 C110,249.414093 110.662918,249 111.325467,249 L126.646927,249 C127.226657,249 127.751176,249.441332 127.972762,250.104249 L128,250.158726 L128,250.932436 L128,250.959674 L128,251.043229 L128,258.772975 L127.972762,258.827451 C127.780254,259.268782 127.282606,259.766431 126.646927,259.766431 Z M111.160198,259.187068 C111.215042,259.187068 111.270991,259.214306 111.325467,259.214306 L126.646927,259.214306 C126.730481,259.214306 126.812564,259.187068 126.895751,259.15983 L121.12568,253.720298 L119.634943,254.713754 C119.248088,254.962578 118.751912,254.962578 118.365057,254.713754 L116.930269,253.803853 L111.160198,259.187068 Z M110.773343,249.717394 C110.662918,249.800949 110.580835,249.91027 110.580835,250.077011 L110.580835,258.662182 C110.580835,258.745736 110.608073,258.854689 110.66439,258.911006 L116.488937,253.500552 L110.829659,249.773711 C110.802421,249.773711 110.773343,249.744632 110.773343,249.717394 Z M121.59609,253.416997 L127.338555,258.827451 C127.393399,258.772975 127.42211,258.716658 127.449348,258.634943 L127.449348,251.043229 L127.449348,251.015991 L127.449348,250.932436 L127.449348,250.215042 C127.366161,250.022167 127.284078,249.884136 127.173285,249.746104 L121.59609,253.416997 Z M117.0683,253.22449 L118.641119,254.273895 C118.833995,254.411926 119.110057,254.411926 119.304037,254.273895 L120.987649,253.169645 L126.454419,249.580835 L111.492577,249.580835 L117.0683,253.22449 C117.0683,253.195411 117.0683,253.22449 117.0683,253.22449 Z" id="Imported-Layers" sketch:type="MSShapeGroup"></path>
        </g>
    </g>
</svg>