<?xml version="1.0" encoding="UTF-8" standalone="no"?>
<svg width="75px" height="63px" viewBox="0 0 75 63" version="1.1" xmlns="http://www.w3.org/2000/svg" xmlns:xlink="http://www.w3.org/1999/xlink" xmlns:sketch="http://www.bohemiancoding.com/sketch/ns">
    <!-- Generator: Sketch 3.4.4 (17249) - http://www.bohemiancoding.com/sketch -->
    <title>Page 1</title>
    <desc>Created with Sketch.</desc>
    <defs></defs>
    <g id="Page-1" stroke="none" stroke-width="1" fill="none" fill-rule="evenodd" sketch:type="MSPage">
        <path d="M68.1950111,21.519 L62.0470111,5.644 C60.8950111,2.605 58.3830111,0.019 53.6290111,0 L21.3200111,0 C16.5860111,0.023 14.0740111,2.609 12.9020111,5.648 L6.7540111,21.519 C4.3120111,21.836 -0.00798890452,24.703 1.10954771e-05,30.14 L1.10954771e-05,50.355 L6.0000111,50.355 L6.0000111,56.808 C5.9840111,64.762 17.2420111,64.668 17.2380111,56.808 L17.2380111,50.355 L57.7110111,50.355 L57.7110111,56.808 C57.7340111,64.668 68.9920111,64.762 69.0000111,56.808 L69.0000111,50.355 L75.0000111,50.355 L75.0000111,30.14 C74.9800111,24.703 70.6560111,21.836 68.1950111,21.519 L68.1950111,21.519 Z M11.7970111,38.156 C8.9220111,38.164 6.5940111,35.765 6.6050111,32.816 C6.5940111,29.847 8.9220111,27.445 11.7970111,27.469 C14.6640111,27.445 16.9920111,29.844 16.9880111,32.816 C16.9880111,35.765 14.6600111,38.164 11.7970111,38.156 L11.7970111,38.156 Z M37.5000111,21.371 L13.1560111,21.371 L17.7930111,8.871 C18.3520111,7.097 19.2230111,5.828 21.2730111,5.797 L53.7300111,5.797 C55.7500111,5.828 56.6210111,7.097 57.2070111,8.871 L61.8440111,21.371 L37.5000111,21.371 Z M63.2070111,38.156 C60.3120111,38.164 57.9800111,35.765 57.9650111,32.816 C57.9800111,29.847 60.3090111,27.445 63.2070111,27.469 C66.0550111,27.445 68.3790111,29.844 68.3980111,32.816 C68.3790111,35.765 66.0510111,38.164 63.2070111,38.156 L63.2070111,38.156 Z" fill="#979797" sketch:type="MSShapeGroup"></path>
    </g>
</svg>