<?xml version="1.0" encoding="UTF-8" standalone="no"?>
<svg width="51px" height="50px" viewBox="0 0 51 50" version="1.1" xmlns="http://www.w3.org/2000/svg" xmlns:xlink="http://www.w3.org/1999/xlink">
    <!-- Generator: Sketch 39.1 (31720) - http://www.bohemiancoding.com/sketch -->
    <title>Stroke 3</title>
    <desc>Created with Sketch.</desc>
    <defs></defs>
    <g id="Welcome" stroke="none" stroke-width="1" fill="none" fill-rule="evenodd">
        <g id="Page-1" fill="#6CADF3">
            <path d="M49.39797,49.77637 C49.9627215,49.77637 50.4154297,49.3090238 50.3974639,48.7445581 C50.1626282,41.3662872 49.0195674,34.7492349 46.6016203,33.2107634 C40.8880112,29.5740033 36.3339688,27.3342448 30.6739413,26.2873295 L29.3259936,26.0384689 L29.7550429,27.8137869 L30.8416229,26.9760069 C34.5151892,24.148223 36.93803,18.6548822 36.93803,13.24621 C36.93803,5.75400729 32.055297,0.226894 25.32018,0.226894 C18.4885996,0.226894 13.70233,5.59007897 13.70233,13.12548 C13.70233,18.590054 16.218882,24.2909317 19.9009975,27.0621914 L20.975097,27.8693897 L21.3673745,26.0919467 L20.0548245,26.3717567 C15.7201939,27.2933832 12.3029506,28.898314 6.71910289,32.1108779 C5.13628182,33.0191945 4.66086841,33.2841615 4.079589,33.565464 C1.63845371,34.7486711 0.29300185,39.3985191 0.233440196,48.7700145 C0.229914371,49.3247717 0.678651623,49.77637 1.23342,49.77637 L49.39797,49.77637 Z" id="Stroke-3"></path>
        </g>
    </g>
</svg>