<?xml version="1.0" encoding="UTF-8" standalone="no"?>
<svg width="10px" height="12px" viewBox="0 0 10 12" version="1.1" xmlns="http://www.w3.org/2000/svg" xmlns:xlink="http://www.w3.org/1999/xlink">
    <!-- Generator: Sketch 3.8.3 (29802) - http://www.bohemiancoding.com/sketch -->
    <title>Page-1</title>
    <desc>Created with Sketch.</desc>
    <defs>
        <path d="M3.66773333,2 C1.64533333,2 0,3.64533331 0,5.66773331 C0,8.2828 3.13853333,11.6838667 3.2724,11.8276 C3.37453333,11.9374667 3.51773333,12 3.66826667,12 C3.81826667,12 3.96146667,11.9374667 4.0636,11.8276 C4.19746667,11.6844 7.336,8.28333331 7.336,5.66773331 C7.33546669,3.64533331 5.69013333,2 3.66773333,2 L3.66773333,2 L3.66773333,2 Z M2.21986667,5.55213331 C2.21986667,4.75213331 2.86826667,4.1036 3.66773333,4.1036 C4.4672,4.1036 5.1156,4.75213331 5.1156,5.55213331 C5.1156,6.3516 4.46773333,7 3.66773333,7 C2.86826667,7 2.21986667,6.3516 2.21986667,5.55213331 L2.21986667,5.55213331 L2.21986667,5.55213331 Z" id="path-1"></path>
        <mask id="mask-2" maskContentUnits="userSpaceOnUse" maskUnits="objectBoundingBox" x="-1" y="-1" width="9.336" height="12">
            <rect x="-1" y="1" width="9.336" height="12" fill="white"></rect>
            <use xlink:href="#path-1" fill="black"></use>
        </mask>
    </defs>
    <g id="Welcome" stroke="none" stroke-width="1" fill="none" fill-rule="evenodd">
        <g id="Group-24" transform="translate(-35.000000, -6.000000)" stroke="#FFFFFF" stroke-width="2">
            <g id="Group-23" transform="translate(36.000000, 5.000000)">
                <use id="Page-1" mask="url(#mask-2)" xlink:href="#path-1"></use>
            </g>
        </g>
    </g>
</svg>