<?xml version="1.0" encoding="UTF-8" standalone="no"?>
<svg width="13px" height="14px" viewBox="0 0 13 14" version="1.1" xmlns="http://www.w3.org/2000/svg" xmlns:xlink="http://www.w3.org/1999/xlink">
    <!-- Generator: Sketch 39.1 (31720) - http://www.bohemiancoding.com/sketch -->
    <title>Shape</title>
    <desc>Created with Sketch.</desc>
    <defs></defs>
    <g id="Welcome" stroke="none" stroke-width="1" fill="none" fill-rule="evenodd">
        <g id="iPhone-6-Copy-2" transform="translate(-92.000000, -255.000000)" fill="#FFFFFF">
            <path d="M104.5984,264.509973 C104.5184,264.491627 102.500053,263.98496 102.500053,259.999893 C102.500053,258.31648 101.45344,256.875627 99.9784533,256.286613 C99.8741333,255.559787 99.25504,255 98.5000533,255 C97.7450667,255 97.1259733,255.559787 97.0216533,256.286613 C95.5466667,256.875627 94.5000533,258.31648 94.5000533,259.999893 C94.5000533,263.98496 92.4817067,264.491627 92.3959467,264.510827 C92.16832,264.563307 92,264.766613 92,264.999787 L92,265.999893 C92,266.229013 92.1559467,266.42912 92.3784533,266.4848 C92.4475733,266.502293 93.8116267,266.83488 96.5000533,266.955627 L96.5000533,267 C96.5000533,268.104 97.3949867,268.999787 98.5000533,268.999787 C99.60512,268.999787 100.500053,268.104 100.500053,267 L100.500053,266.955627 C103.18848,266.83488 104.552533,266.501653 104.621653,266.4848 C104.84416,266.42912 105.000107,266.229013 105.000107,265.999893 L105.000107,264.999787 C105.000107,264.761493 104.831787,264.55648 104.5984,264.509973 L104.5984,264.509973 L104.5984,264.509973 Z M98.5000533,255.49984 C98.9134933,255.49984 99.26912,255.752427 99.4216533,256.111467 C99.12512,256.04064 98.8174933,255.999893 98.5000533,255.999893 C98.1826133,255.999893 97.8749867,256.04064 97.5784533,256.111467 C97.7309867,255.752427 98.0866133,255.49984 98.5000533,255.49984 L98.5000533,255.49984 L98.5000533,255.49984 Z" id="Shape"></path>
        </g>
    </g>
</svg>