<?xml version="1.0" encoding="UTF-8" standalone="no"?>
<svg width="22px" height="21px" viewBox="0 0 22 21" version="1.1" xmlns="http://www.w3.org/2000/svg" xmlns:xlink="http://www.w3.org/1999/xlink" xmlns:sketch="http://www.bohemiancoding.com/sketch/ns">
    <!-- Generator: Sketch 3.5.1 (25234) - http://www.bohemiancoding.com/sketch -->
    <title>Path</title>
    <desc>Created with Sketch.</desc>
    <defs></defs>
    <g id="Page-1" stroke="none" stroke-width="1" fill="none" fill-rule="evenodd" sketch:type="MSPage">
        <path d="M10.5332188,0 C9.62296792,0 8.50144163,0.214219987 7.57425925,0.914299736 C6.64670879,1.61474756 5.95215017,2.80952089 5.95215017,4.59800012 L5.95215017,5.45193546 C5.95215017,7.21612171 6.41960616,8.35789215 6.86681799,9.23059935 C7.31402981,10.1033065 7.70345378,10.6856021 7.70345378,11.4217533 C7.70345378,11.9639286 7.48371266,12.3404699 7.08251028,12.6901417 C6.6813079,13.0394454 6.09017852,13.3283848 5.40003681,13.5959757 C4.02122569,14.1307895 2.29016625,14.5562849 1.00926324,15.4072756 L1.00042942,15.4072756 C0.400834305,15.8128949 0,16.4526103 0,17.3915711 L0,19.9452794 C0,20.1219557 0.159376725,20.2817005 0.336421078,20.2817005 L20.790381,20.2817005 C20.9670572,20.2817005 21.126802,20.1219557 21.126802,19.9452794 L21.126802,17.3915711 C21.126802,16.4526103 20.7226551,15.8128949 20.1260045,15.4072756 L20.1175388,15.4072756 C18.8347954,14.5562849 17.1096252,14.1307895 15.7263972,13.5959757 C15.0347831,13.3283848 14.4296669,13.0394454 14.0269922,12.6901417 C13.6243175,12.3404699 13.4145144,11.9639286 13.4145144,11.4217533 C13.4145144,10.6826575 13.7895835,10.1033065 14.2253849,9.23059935 C14.6611864,8.35789215 15.1139194,7.21501748 15.1139194,5.45193546 L15.1139194,4.59800012 C15.1139194,2.80952089 14.4267223,1.61474756 13.5006441,0.914299736 C12.5749341,0.214219987 11.4419974,0 10.5332188,0 L10.5332188,0 Z" id="Path" fill="#979797" sketch:type="MSShapeGroup"></path>
    </g>
</svg>