<?xml version="1.0" encoding="UTF-8" standalone="no"?>
<svg width="56px" height="56px" viewBox="0 0 56 56" version="1.1" xmlns="http://www.w3.org/2000/svg" xmlns:xlink="http://www.w3.org/1999/xlink" xmlns:sketch="http://www.bohemiancoding.com/sketch/ns">
    <!-- Generator: Sketch 3.4.4 (17249) - http://www.bohemiancoding.com/sketch -->
    <title>Page 1</title>
    <desc>Created with Sketch.</desc>
    <defs></defs>
    <g id="Page-1" stroke="none" stroke-width="1" fill="none" fill-rule="evenodd" sketch:type="MSPage">
        <path d="M1.44679495,0 C0.648816627,0 0,1.12846023 0,2.5445166 C0,3.95025563 0.657634067,5.09290222 1.44679495,5.09290222 L53.6622051,5.09290222 C54.4601834,5.09290222 55.109,3.95928331 55.109,2.5445166 C55.109,1.13877758 54.4513659,0 53.6622051,0 L1.44679495,0 Z M1.44679495,25.4554834 C0.648816627,25.4554834 0,26.5839436 0,28 C0,29.405739 0.657634067,30.5445166 1.44679495,30.5445166 L53.6622051,30.5445166 C54.4601834,30.5445166 55.109,29.4160564 55.109,28 C55.109,26.594261 54.4513659,25.4554834 53.6622051,25.4554834 L1.44679495,25.4554834 Z M1.44679495,50.9070978 C0.648816627,50.9070978 0,52.0407167 0,53.4554834 C0,54.8612224 0.657634067,56 1.44679495,56 L53.6622051,56 C54.4601834,56 55.109,54.8715398 55.109,53.4554834 C55.109,52.0497444 54.4513659,50.9070978 53.6622051,50.9070978 L1.44679495,50.9070978 Z" fill="#979797" sketch:type="MSShapeGroup"></path>
    </g>
</svg>