<?xml version="1.0" encoding="UTF-8" standalone="no"?>
<svg width="23px" height="21px" viewBox="0 0 23 21" version="1.1" xmlns="http://www.w3.org/2000/svg" xmlns:xlink="http://www.w3.org/1999/xlink">
    <!-- Generator: Sketch 40.1 (33804) - http://www.bohemiancoding.com/sketch -->
    <title>Page 1</title>
    <desc>Created with Sketch.</desc>
    <defs></defs>
    <g id="Welcome" stroke="none" stroke-width="1" fill="none" fill-rule="evenodd">
        <g id="iPhone-7-Copy" transform="translate(-33.000000, -613.000000)" fill="#FFFFFF">
            <path d="M37.6387149,614.008384 C35.9976787,614.424113 34.5591286,615.641734 33.9497625,616.749672 C32.6024862,619.242091 33.2931873,623.040947 35.308545,624.984328 L43.8543721,633.53033 L44.3847022,634.06066 L44.9150323,633.53033 L53.4705879,624.974775 C55.4762172,623.040947 56.1669182,619.242091 54.8222599,616.754473 C54.2217008,615.662506 52.7067893,614.423498 51.0359949,614.007623 C48.6479674,613.413223 46.1572133,614.394298 43.8060991,617.245024 L44.9516618,617.231247 C42.4909641,614.389727 39.9866984,613.413561 37.6387149,614.008384 Z M44.3986745,618.884036 L44.9633054,618.199421 C46.9656559,615.771571 48.881229,615.017052 50.6736873,615.46321 C51.9223114,615.774003 53.1015966,616.738511 53.5053181,617.47255 C54.5193418,619.348536 53.9612537,622.418021 52.4196561,623.904561 L43.8543721,632.46967 L44.9150323,632.46967 L36.3594767,623.914114 C34.8081507,622.418021 34.2500626,619.348536 35.2667043,617.467749 C35.6833849,616.710189 36.7946353,615.769602 38.0070784,615.46245 C39.7636494,615.017452 41.7059277,615.774554 43.8177426,618.213198 L44.3986745,618.884036 Z" id="Page-1"></path>
        </g>
    </g>
</svg>