<?xml version="1.0" encoding="UTF-8" standalone="no"?>
<svg width="23px" height="22px" viewBox="0 0 23 22" version="1.1" xmlns="http://www.w3.org/2000/svg" xmlns:xlink="http://www.w3.org/1999/xlink">
    <!-- Generator: Sketch 39.1 (31720) - http://www.bohemiancoding.com/sketch -->
    <title>Path</title>
    <desc>Created with Sketch.</desc>
    <defs></defs>
    <g id="Welcome" stroke="none" stroke-width="1" fill="none" fill-rule="evenodd">
        <g id="iPhone-6-Copy-2" transform="translate(-42.000000, -254.000000)" stroke="#979797">
            <path d="M53.5332188,255 C52.6229679,255 51.5014416,255.21422 50.5742592,255.9143 C49.6467088,256.614748 48.9521502,257.809521 48.9521502,259.598 L48.9521502,260.451935 C48.9521502,262.216122 49.4196062,263.357892 49.866818,264.230599 C50.3140298,265.103306 50.7034538,265.685602 50.7034538,266.421753 C50.7034538,266.963929 50.4837127,267.34047 50.0825103,267.690142 C49.6813079,268.039445 49.0901785,268.328385 48.4000368,268.595976 C47.0212257,269.130789 45.2901662,269.556285 44.0092632,270.407276 L44.0004294,270.407276 C43.4008343,270.812895 43,271.45261 43,272.391571 L43,274.945279 C43,275.121956 43.1593767,275.2817 43.3364211,275.2817 L63.790381,275.2817 C63.9670572,275.2817 64.126802,275.121956 64.126802,274.945279 L64.126802,272.391571 C64.126802,271.45261 63.7226551,270.812895 63.1260045,270.407276 L63.1175388,270.407276 C61.8347954,269.556285 60.1096252,269.130789 58.7263972,268.595976 C58.0347831,268.328385 57.4296669,268.039445 57.0269922,267.690142 C56.6243175,267.34047 56.4145144,266.963929 56.4145144,266.421753 C56.4145144,265.682658 56.7895835,265.103306 57.2253849,264.230599 C57.6611864,263.357892 58.1139194,262.215017 58.1139194,260.451935 L58.1139194,259.598 C58.1139194,257.809521 57.4267223,256.614748 56.5006441,255.9143 C55.5749341,255.21422 54.4419974,255 53.5332188,255 L53.5332188,255 L53.5332188,255 Z" id="Path"></path>
        </g>
    </g>
</svg>