<?xml version="1.0" encoding="UTF-8" standalone="no"?>
<svg width="26px" height="61px" viewBox="0 0 26 61" version="1.1" xmlns="http://www.w3.org/2000/svg" xmlns:xlink="http://www.w3.org/1999/xlink" xmlns:sketch="http://www.bohemiancoding.com/sketch/ns">
    <!-- Generator: Sketch 3.4.4 (17249) - http://www.bohemiancoding.com/sketch -->
    <title>Fill 1</title>
    <desc>Created with Sketch.</desc>
    <defs></defs>
    <g id="Page-1" stroke="none" stroke-width="1" fill="none" fill-rule="evenodd" sketch:type="MSPage">
        <g sketch:type="MSLayerGroup" id="Fill-1" fill="#979797">
            <path d="M24.082,10.258 L24.082,3.684 L25.16,3.684 L25.16,0.078 L0.59,0.078 L0.59,3.684 L1.668,3.684 L1.668,10.258 C1.668,19.609 4.223,27.496 8.203,30.969 C4.223,34.441 1.668,42.324 1.668,51.68 L1.668,57.098 L0.59,57.098 L0.59,60.703 L25.156,60.703 L25.156,57.098 L24.078,57.098 L24.078,51.68 C24.078,42.328 21.523,34.441 17.543,30.969 C21.527,27.496 24.082,19.609 24.082,10.258 L24.082,10.258 Z M21.266,51.676 L21.266,56.395 L4.488,56.395 L4.488,51.676 C4.488,41.012 7.93,33.828 11.328,32.242 L12.879,31.52 L14.43,32.242 C17.824,33.828 21.266,41.016 21.266,51.676 L21.266,51.676 Z M13.582,28.8504687 C15.8390007,28.3326112 17.1637627,25.3976516 17.75,23.359 L8.004,23.359 C8.48344947,25.399617 9.89487089,28.3382709 12.172,28.8519597 L12.172,28.672 L13.582,28.672 L13.582,28.8504687 Z M14.426,29.688 L12.875,30.41 L11.324,29.688 C7.926,28.105 4.484,20.922 4.484,10.254 L4.484,5.535 L21.262,5.535 L21.262,10.254 C21.266,20.922 17.824,28.105 14.426,29.688 Z M5.551,55.391 C5.551,53.09 8.828,50.523 12.875,50.523 C16.918,50.523 20.199,53.094 20.199,55.391 L5.551,55.391 Z M13.582,28.8504687 C13.355765,28.9023772 13.1201634,28.93 12.875,28.93 C12.6321945,28.93 12.3978397,28.902906 12.172,28.8519597 L12.172,29.375 L13.582,29.375 L13.582,28.8504687 Z M13.578,49.738 L12.168,49.738 L12.168,48.285 L13.578,48.285 L13.578,49.738 Z M13.578,46.828 L12.168,46.828 L12.168,45.375 L13.578,45.375 L13.578,46.828 Z M13.578,43.922 L12.168,43.922 L12.168,42.465 L13.578,42.465 L13.578,43.922 Z M13.578,41.012 L12.168,41.012 L12.168,39.559 L13.578,39.559 L13.578,41.012 Z M13.578,38.102 L12.168,38.102 L12.168,36.648 L13.578,36.648 L13.578,38.102 Z M13.578,35.191 L12.168,35.191 L12.168,33.738 L13.578,33.738 L13.578,35.191 Z M13.578,32.285 L12.168,32.285 L12.168,30.832 L13.578,30.832 L13.578,32.285 Z" sketch:type="MSShapeGroup"></path>
        </g>
    </g>
</svg>