<?xml version="1.0" encoding="UTF-8" standalone="no"?>
<svg width="14px" height="13px" viewBox="0 0 14 13" version="1.1" xmlns="http://www.w3.org/2000/svg" xmlns:xlink="http://www.w3.org/1999/xlink">
    <!-- Generator: Sketch 39 (31667) - http://www.bohemiancoding.com/sketch -->
    <title>Shape</title>
    <desc>Created with Sketch.</desc>
    <defs></defs>
    <g id="Welcome" stroke="none" stroke-width="1" fill="none" fill-rule="evenodd">
        <path d="M13.5835354,2.24017949 L12.3271252,0.250923077 C12.2285867,0.0947692308 12.0568175,3.22973971e-16 11.8721252,3.22973971e-16 L5.32084311,3.22973971e-16 C5.02361235,3.22973971e-16 4.78238158,0.241051282 4.78238158,0.538461538 L4.78238158,2.36330769 L1.79481747,2.36330769 C1.61909953,2.36330769 1.45433029,2.44928205 1.3534585,2.59323077 L0.0970482431,4.39079487 C-0.0307466287,4.57387179 -0.0325415005,4.81689744 0.0929200379,5.00158974 L1.34933029,6.85371795 C1.44948414,7.00107692 1.61640722,7.08974359 1.79481747,7.08974359 L4.75635594,7.08974359 L4.75635594,11.2665897 C3.57622773,11.3364103 2.69853542,11.5954103 2.69853542,11.9057436 C2.69853542,12.2693846 3.90271491,12.5641026 5.38833029,12.5641026 C6.87340722,12.5641026 8.0775867,12.2693846 8.0775867,11.9057436 C8.0775867,11.5794359 7.10620209,11.3094872 5.83327901,11.2576154 L5.83327901,5.1155641 L11.8723047,5.1155641 C12.0596893,5.1155641 12.2334329,5.01828205 12.3314329,4.85853846 L13.5878431,2.80933333 C13.694638,2.63433333 13.6933816,2.4135641 13.5835354,2.24017949 L13.5835354,2.24017949 Z M2.0800226,6.013 L1.19209953,4.704 L2.07535594,3.44023077 L4.75635594,3.44023077 L4.75635594,6.01282051 L2.0800226,6.013 L2.0800226,6.013 L2.0800226,6.013 Z M11.5705867,4.03864103 L5.85930465,4.03864103 L5.85930465,1.07710256 L11.5754329,1.07710256 L12.4944072,2.53202564 L11.5705867,4.03864103 L11.5705867,4.03864103 Z" id="Shape" fill="#4A4A4A"></path>
    </g>
</svg>