<?xml version="1.0" encoding="UTF-8" standalone="no"?>
<svg width="16px" height="16px" viewBox="0 0 16 16" version="1.1" xmlns="http://www.w3.org/2000/svg" xmlns:xlink="http://www.w3.org/1999/xlink">
    <!-- Generator: Sketch 39 (31667) - http://www.bohemiancoding.com/sketch -->
    <title>Shape</title>
    <desc>Created with Sketch.</desc>
    <defs></defs>
    <g id="Welcome" stroke="none" stroke-width="1" fill="none" fill-rule="evenodd">
        <g id="intelliFlight" transform="translate(-16.000000, -13.000000)" fill="#4A4A4A">
            <path d="M28.531115,27.2156267 L29.6534013,26.0933404 C29.7214187,26.025323 29.7554274,25.923297 29.7214187,25.8552796 L28.2930543,18.8154836 C28.2590456,18.7134576 28.2930543,18.6454403 28.3610716,18.5774229 L31.5578872,15.3806073 C32.102026,14.8364685 32.102026,13.9522429 31.5578872,13.4081041 L31.5578872,13.4081041 C31.0137484,12.8639653 30.1295228,12.8639653 29.585384,13.4081041 L26.2865424,16.7069457 C26.218525,16.7749631 26.1505077,16.8089717 26.0484817,16.7749631 L18.9066596,15.4486247 C18.8046336,15.4486247 18.7366163,15.4486247 18.6685989,15.516642 L17.5123039,16.7069457 C17.3762692,16.8429804 17.4102779,17.0810412 17.5803213,17.1490585 L22.9877008,19.5296658 C23.1577442,19.5976832 23.1917528,19.8357439 23.0557181,19.9717786 L19.5528245,23.4746723 C19.4848071,23.5426896 19.3827811,23.5766983 19.3147638,23.5426896 L17.0021738,23.0665682 C16.9001477,23.0325595 16.8321304,23.0665682 16.764113,23.1345855 L16.0839395,23.8147591 C15.9479048,23.9507938 15.9819135,24.1548458 16.1519569,24.2568718 L18.4645468,25.3791582 C18.4645468,25.4131668 18.4985555,25.4131668 18.5325642,25.4471755 L19.5188158,26.4334271 C19.5528245,26.4674358 19.5528245,26.4674358 19.5528245,26.5014445 L20.7431282,28.8480431 C20.8111455,29.0180865 21.0492062,29.0520952 21.1852409,28.9160605 L21.7633884,28.337913 C21.8314058,28.2698956 21.8654145,28.1678696 21.8314058,28.0998523 L21.3552843,25.7532536 C21.3212757,25.6512276 21.3552843,25.5832102 21.4233017,25.5151929 L25.1302474,21.8082472 C25.2662821,21.6722124 25.4703342,21.7062211 25.5723602,21.8762645 L28.1230109,27.1476093 C28.1910283,27.3176527 28.3950803,27.3516614 28.531115,27.2156267 L28.531115,27.2156267 Z" id="Shape"></path>
        </g>
    </g>
</svg>