<?xml version="1.0" encoding="UTF-8" standalone="no"?>
<svg width="145px" height="28px" viewBox="0 0 145 28" version="1.1" xmlns="http://www.w3.org/2000/svg" xmlns:xlink="http://www.w3.org/1999/xlink">
    <!-- Generator: Sketch 3.8.3 (29802) - http://www.bohemiancoding.com/sketch -->
    <title>Group 4</title>
    <desc>Created with Sketch.</desc>
    <defs></defs>
    <g id="Welcome" stroke="none" stroke-width="1" fill="none" fill-rule="evenodd">
        <g id="iPhone-6-Copy" transform="translate(-114.000000, -41.000000)" fill="#FFFFFF">
            <g id="Group-4" transform="translate(114.000000, 41.000000)">
                <path d="M2,3.00069463 L2,3.00069463 L2,18.0083475 C2,22.4199239 5.57798469,26 9.99165249,26 L18.0083475,26 C22.4199239,26 26,22.4220153 26,18.0083475 L26,9.99165249 C26,5.5800761 22.4220153,2 18.0083475,2 L3.00069463,2 C2.44746922,2 2,2.44802625 2,3.00069463 L2,3.00069463 Z M0,3.00069463 L0,3.00069463 C0,1.34343643 1.34291989,0 3.00069463,0 L18.0083475,0 C23.5259436,0 28,4.4748652 28,9.99165249 L28,18.0083475 C28,23.5259436 23.5251348,28 18.0083475,28 L9.99165249,28 C4.47405644,28 0,23.5251348 0,18.0083475 L0,3.00069463 Z" id="Rectangle-57"></path>
                <path d="M43.152,21 L40.92,21 L40.92,8.52 L43.152,8.52 L43.152,21 Z M42.024,6.264 C41.623998,6.264 41.2840014,6.13200132 41.004,5.868 C40.7239986,5.60399868 40.584,5.24800224 40.584,4.8 C40.584,4.35199776 40.7239986,3.99600132 41.004,3.732 C41.2840014,3.46799868 41.623998,3.336 42.024,3.336 C42.424002,3.336 42.7639986,3.46799868 43.044,3.732 C43.3240014,3.99600132 43.464,4.35199776 43.464,4.8 C43.464,5.24800224 43.3240014,5.60399868 43.044,5.868 C42.7639986,6.13200132 42.424002,6.264 42.024,6.264 L42.024,6.264 Z M46.992,8.88 C47.5040026,8.75199936 48.1839958,8.61600072 49.032,8.472 C49.8800042,8.32799928 50.8559945,8.256 51.96,8.256 C52.952005,8.256 53.7759967,8.3959986 54.432,8.676 C55.0880033,8.9560014 55.611998,9.34799748 56.004,9.852 C56.396002,10.3560025 56.6719992,10.9599965 56.832,11.664 C56.9920008,12.3680035 57.072,13.1439958 57.072,13.992 L57.072,21 L54.84,21 L54.84,14.472 C54.84,13.7039962 54.7880005,13.0480027 54.684,12.504 C54.5799995,11.9599973 54.4080012,11.5200017 54.168,11.184 C53.9279988,10.8479983 53.608002,10.6040008 53.208,10.452 C52.807998,10.2999992 52.312003,10.224 51.72,10.224 C51.4799988,10.224 51.2320013,10.2319999 50.976,10.248 C50.7199987,10.2640001 50.4760012,10.2839999 50.244,10.308 C50.0119988,10.3320001 49.8040009,10.3599998 49.62,10.392 C49.4359991,10.4240002 49.3040004,10.4479999 49.224,10.464 L49.224,21 L46.992,21 L46.992,8.88 Z M62.856,8.52 L67.584,8.52 L67.584,10.392 L62.856,10.392 L62.856,16.152 C62.856,16.7760031 62.9039995,17.291998 63,17.7 C63.0960005,18.108002 63.239999,18.4279988 63.432,18.66 C63.624001,18.8920012 63.8639986,19.0559995 64.152,19.152 C64.4400014,19.2480005 64.7759981,19.296 65.16,19.296 C65.8320034,19.296 66.371998,19.2200008 66.78,19.068 C67.188002,18.9159992 67.4719992,18.8080003 67.632,18.744 L68.064,20.592 C67.8399989,20.7040006 67.4480028,20.8439992 66.888,21.012 C66.3279972,21.1800008 65.6880036,21.264 64.968,21.264 C64.1199958,21.264 63.4200028,21.1560011 62.868,20.94 C62.3159972,20.7239989 61.8720017,20.4000022 61.536,19.968 C61.1999983,19.5359978 60.9640007,19.0040032 60.828,18.372 C60.6919993,17.7399968 60.624,17.0080042 60.624,16.176 L60.624,5.04 L62.856,4.656 L62.856,8.52 Z M69.48,14.784 C69.48,13.6799945 69.6399984,12.7160041 69.96,11.892 C70.2800016,11.0679959 70.7039974,10.3840027 71.232,9.84 C71.7600026,9.29599728 72.3679966,8.88800136 73.056,8.616 C73.7440034,8.34399864 74.4479964,8.208 75.168,8.208 C76.8480084,8.208 78.1359955,8.73199476 79.032,9.78 C79.9280045,10.8280052 80.376,12.4239893 80.376,14.568 L80.376,14.94 C80.376,15.0920008 80.3680001,15.2319994 80.352,15.36 L71.808,15.36 C71.9040005,16.6560065 72.2799967,17.6399966 72.936,18.312 C73.5920033,18.9840034 74.615993,19.32 76.008,19.32 C76.7920039,19.32 77.4519973,19.2520007 77.988,19.116 C78.5240027,18.9799993 78.9279986,18.8480006 79.2,18.72 L79.512,20.592 C79.2399986,20.7360007 78.7640034,20.8879992 78.084,21.048 C77.4039966,21.2080008 76.6320043,21.288 75.768,21.288 C74.6799946,21.288 73.740004,21.1240016 72.948,20.796 C72.155996,20.4679984 71.5040026,20.0160029 70.992,19.44 C70.4799974,18.8639971 70.1000012,18.180004 69.852,17.388 C69.6039988,16.595996 69.48,15.7280047 69.48,14.784 L69.48,14.784 Z M78.048,13.56 C78.0640001,12.551995 77.8120026,11.7240032 77.292,11.076 C76.7719974,10.4279968 76.0560046,10.104 75.144,10.104 C74.6319974,10.104 74.180002,10.203999 73.788,10.404 C73.395998,10.604001 73.0640014,10.8639984 72.792,11.184 C72.5199986,11.5040016 72.3080008,11.8719979 72.156,12.288 C72.0039992,12.7040021 71.9040002,13.1279978 71.856,13.56 L78.048,13.56 Z M87.336,21.24 C85.9599931,21.2079998 84.9840029,20.9120028 84.408,20.352 C83.8319971,19.7919972 83.544,18.9200059 83.544,17.736 L83.544,2.76 L85.776,2.376 L85.776,17.376 C85.776,17.7440018 85.8079997,18.0479988 85.872,18.288 C85.9360003,18.5280012 86.0399993,18.7199993 86.184,18.864 C86.3280007,19.0080007 86.5199988,19.1159996 86.76,19.188 C87.0000012,19.2600004 87.2959982,19.3199998 87.648,19.368 L87.336,21.24 Z M93.888,21.24 C92.5119931,21.2079998 91.5360029,20.9120028 90.96,20.352 C90.3839971,19.7919972 90.096,18.9200059 90.096,17.736 L90.096,2.76 L92.328,2.376 L92.328,17.376 C92.328,17.7440018 92.3599997,18.0479988 92.424,18.288 C92.4880003,18.5280012 92.5919993,18.7199993 92.736,18.864 C92.8800007,19.0080007 93.0719988,19.1159996 93.312,19.188 C93.5520012,19.2600004 93.8479982,19.3199998 94.2,19.368 L93.888,21.24 Z M98.928,21 L96.696,21 L96.696,8.52 L98.928,8.52 L98.928,21 Z M97.8,6.264 C97.399998,6.264 97.0600014,6.13200132 96.78,5.868 C96.4999986,5.60399868 96.36,5.24800224 96.36,4.8 C96.36,4.35199776 96.4999986,3.99600132 96.78,3.732 C97.0600014,3.46799868 97.399998,3.336 97.8,3.336 C98.200002,3.336 98.5399986,3.46799868 98.82,3.732 C99.1000014,3.99600132 99.24,4.35199776 99.24,4.8 C99.24,5.24800224 99.1000014,5.60399868 98.82,5.868 C98.5399986,6.13200132 98.200002,6.264 97.8,6.264 L97.8,6.264 Z M115.104,4.368 L115.104,7.56 L110.088,7.56 L110.088,21 L106.344,21 L106.344,7.56 L101.328,7.56 L101.328,4.368 L115.104,4.368 Z M123.216,11.544 C122.895998,11.4639996 122.520002,11.3800004 122.088,11.292 C121.655998,11.2039996 121.192002,11.16 120.696,11.16 C120.471999,11.16 120.204002,11.1799998 119.892,11.22 C119.579998,11.2600002 119.344001,11.3039998 119.184,11.352 L119.184,21 L115.608,21 L115.608,9.048 C116.248003,8.82399888 117.003996,8.612001 117.876,8.412 C118.748004,8.211999 119.719995,8.112 120.792,8.112 C120.984001,8.112 121.215999,8.12399988 121.488,8.148 C121.760001,8.17200012 122.031999,8.2039998 122.304,8.244 C122.576001,8.2840002 122.847999,8.33199972 123.12,8.388 C123.392001,8.44400028 123.623999,8.5119996 123.816,8.592 L123.216,11.544 Z M129.312,21 L125.736,21 L125.736,8.376 L129.312,8.376 L129.312,21 Z M129.648,4.728 C129.648,5.38400328 129.436002,5.89999812 129.012,6.276 C128.587998,6.65200188 128.088003,6.84 127.512,6.84 C126.935997,6.84 126.436002,6.65200188 126.012,6.276 C125.587998,5.89999812 125.376,5.38400328 125.376,4.728 C125.376,4.07199672 125.587998,3.55600188 126.012,3.18 C126.436002,2.80399812 126.935997,2.616 127.512,2.616 C128.088003,2.616 128.587998,2.80399812 129.012,3.18 C129.436002,3.55600188 129.648,4.07199672 129.648,4.728 L129.648,4.728 Z M140.76,14.784 C140.76,13.6799945 140.512002,12.7960033 140.016,12.132 C139.519998,11.4679967 138.784005,11.136 137.808,11.136 C137.487998,11.136 137.192001,11.1479999 136.92,11.172 C136.647999,11.1960001 136.424001,11.2239998 136.248,11.256 L136.248,17.712 C136.472001,17.8560007 136.763998,17.9759995 137.124,18.072 C137.484002,18.1680005 137.847998,18.216 138.216,18.216 C139.912008,18.216 140.76,17.0720114 140.76,14.784 L140.76,14.784 Z M144.408,14.688 C144.408,15.6640049 144.288001,16.551996 144.048,17.352 C143.807999,18.152004 143.456002,18.8399971 142.992,19.416 C142.527998,19.9920029 141.952003,20.4399984 141.264,20.76 C140.575997,21.0800016 139.784004,21.24 138.888,21.24 C138.391998,21.24 137.928002,21.1920005 137.496,21.096 C137.063998,20.9999995 136.648002,20.8640009 136.248,20.688 L136.248,25.44 L132.672,25.44 L132.672,8.808 C132.992002,8.71199952 133.359998,8.62000044 133.776,8.532 C134.192002,8.44399956 134.627998,8.36800032 135.084,8.304 C135.540002,8.23999968 136.003998,8.1880002 136.476,8.148 C136.948002,8.1079998 137.399998,8.088 137.832,8.088 C138.872005,8.088 139.799996,8.24399844 140.616,8.556 C141.432004,8.86800156 142.119997,9.30799716 142.68,9.876 C143.240003,10.4440028 143.667999,11.1359959 143.964,11.952 C144.260001,12.7680041 144.408,13.679995 144.408,14.688 L144.408,14.688 Z" id="intelliTrip"></path>
                <path d="M20.5835354,10.2401795 L19.3271252,8.25092308 C19.2285867,8.09476923 19.0568175,8 18.8721252,8 L12.3208431,8 C12.0236123,8 11.7823816,8.24105128 11.7823816,8.53846154 L11.7823816,10.3633077 L8.79481747,10.3633077 C8.61909953,10.3633077 8.45433029,10.4492821 8.3534585,10.5932308 L7.09704824,12.3907949 C6.96925337,12.5738718 6.9674585,12.8168974 7.09292004,13.0015897 L8.34933029,14.8537179 C8.44948414,15.0010769 8.61640722,15.0897436 8.79481747,15.0897436 L11.7563559,15.0897436 L11.7563559,19.2665897 C10.5762277,19.3364103 9.69853542,19.5954103 9.69853542,19.9057436 C9.69853542,20.2693846 10.9027149,20.5641026 12.3883303,20.5641026 C13.8734072,20.5641026 15.0775867,20.2693846 15.0775867,19.9057436 C15.0775867,19.5794359 14.1062021,19.3094872 12.833279,19.2576154 L12.833279,13.1155641 L18.8723047,13.1155641 C19.0596893,13.1155641 19.2334329,13.0182821 19.3314329,12.8585385 L20.5878431,10.8093333 C20.694638,10.6343333 20.6933816,10.4135641 20.5835354,10.2401795 L20.5835354,10.2401795 Z M9.0800226,14.013 L8.19209953,12.704 L9.07535594,11.4402308 L11.7563559,11.4402308 L11.7563559,14.0128205 L9.0800226,14.013 L9.0800226,14.013 L9.0800226,14.013 Z M18.5705867,12.038641 L12.8593047,12.038641 L12.8593047,9.07710256 L18.5754329,9.07710256 L19.4944072,10.5320256 L18.5705867,12.038641 L18.5705867,12.038641 Z" id="Shape"></path>
            </g>
        </g>
    </g>
</svg>