<?xml version="1.0" encoding="UTF-8" standalone="no"?>
<svg width="22px" height="24px" viewBox="0 0 22 24" version="1.1" xmlns="http://www.w3.org/2000/svg" xmlns:xlink="http://www.w3.org/1999/xlink">
    <!-- Generator: Sketch 3.8.3 (29802) - http://www.bohemiancoding.com/sketch -->
    <title>Shape</title>
    <desc>Created with Sketch.</desc>
    <defs></defs>
    <g id="Welcome" stroke="none" stroke-width="1" fill="none" fill-rule="evenodd">
        <g id="iPhone-6-Copy" transform="translate(-108.000000, -164.000000)" fill="#6CADF3">
            <g id="Step-1" transform="translate(26.000000, 164.000000)">
                <path d="M84.3884892,24 L86.7769784,24 L86.7769784,21.6115108 L98.7769784,21.6115108 L98.7769784,24 L101.165468,24 L101.165468,21.6115108 L103.553957,21.6115108 L103.553957,3.5971223 C103.553957,1.61151079 101.942446,-1.77635684e-15 99.9568345,-1.77635684e-15 L85.5971223,-1.77635684e-15 C83.6115108,-1.77635684e-15 82,1.61151079 82,3.5971223 L82,21.5827338 L84.3884892,21.5827338 L84.3884892,24 L84.3884892,24 Z M99.9856115,19.1942446 C99.323741,19.1942446 98.7769784,18.647482 98.7769784,17.9856115 C98.7769784,17.323741 99.323741,16.7769784 99.9856115,16.7769784 C100.647482,16.7769784 101.194245,17.323741 101.194245,17.9856115 C101.194245,18.647482 100.647482,19.1942446 99.9856115,19.1942446 L99.9856115,19.1942446 Z M87.9856115,2.41726619 L97.5683453,2.41726619 L97.5683453,4.8057554 L87.9856115,4.8057554 L87.9856115,2.41726619 L87.9856115,2.41726619 Z M84.3884892,7.1942446 L101.165468,7.1942446 L101.165468,14.3884892 L84.3884892,14.3884892 L84.3884892,7.1942446 L84.3884892,7.1942446 Z M85.5971223,16.8057554 C86.2589928,16.8057554 86.8057554,17.352518 86.8057554,18.0143885 C86.8057554,18.676259 86.2589928,19.2230216 85.5971223,19.2230216 C84.9352518,19.2230216 84.3884892,18.676259 84.3884892,18.0143885 C84.3884892,17.323741 84.9352518,16.8057554 85.5971223,16.8057554 L85.5971223,16.8057554 Z" id="Shape"></path>
            </g>
        </g>
    </g>
</svg>