<?xml version="1.0" encoding="UTF-8" standalone="no"?>
<svg width="29px" height="24px" viewBox="0 0 29 24" version="1.1" xmlns="http://www.w3.org/2000/svg" xmlns:xlink="http://www.w3.org/1999/xlink">
    <!-- Generator: Sketch 3.8.3 (29802) - http://www.bohemiancoding.com/sketch -->
    <title>Shape</title>
    <desc>Created with Sketch.</desc>
    <defs></defs>
    <g id="Welcome" stroke="none" stroke-width="1" fill="none" fill-rule="evenodd">
        <g id="iPhone-6-Copy" transform="translate(-40.000000, -164.000000)" fill="#D0D0D0">
            <g id="Step-1" transform="translate(26.000000, 164.000000)">
                <path d="M39.9790518,8.19771429 L37.6369566,2.15009524 C37.1980995,0.992380952 36.2411471,0.00723809524 34.4300995,0 L22.121909,0 C20.3184804,0.00876190476 19.361528,0.993904762 18.9150518,2.15161905 L16.5729566,8.19771429 C15.6426709,8.31847619 13.9969566,9.41066667 14.0000042,11.4819048 L14.0000042,19.1828571 L16.2857185,19.1828571 L16.2857185,21.6411429 C16.2796233,24.6712381 20.5683852,24.6354286 20.5668614,21.6411429 L20.5668614,19.1828571 L35.9851471,19.1828571 L35.9851471,21.6411429 C35.993909,24.6354286 40.2826709,24.6712381 40.2857185,21.6411429 L40.2857185,19.1828571 L42.5714328,19.1828571 L42.5714328,11.4819048 C42.5638138,9.41066667 40.9165757,8.31847619 39.9790518,8.19771429 L39.9790518,8.19771429 L39.9790518,8.19771429 Z M18.4940995,14.535619 C17.3988614,14.5386667 16.5120042,13.6247619 16.5161947,12.5013333 C16.5120042,11.3702857 17.3988614,10.4552381 18.4940995,10.464381 C19.5862899,10.4552381 20.4731471,11.3691429 20.4716233,12.5013333 C20.4716233,13.6247619 19.5847661,14.5386667 18.4940995,14.535619 L18.4940995,14.535619 L18.4940995,14.535619 Z M28.2857185,8.14133333 L19.0118138,8.14133333 L20.7782899,3.37942857 C20.9912423,2.70361905 21.3230518,2.22019048 22.1040042,2.20838095 L34.4685757,2.20838095 C35.2380995,2.22019048 35.569909,2.70361905 35.7931471,3.37942857 L37.5596233,8.14133333 L28.2857185,8.14133333 L28.2857185,8.14133333 Z M38.0788614,14.535619 C36.9760042,14.5386667 36.0876233,13.6247619 36.081909,12.5013333 C36.0876233,11.3702857 36.9748614,10.4552381 38.0788614,10.464381 C39.1638138,10.4552381 40.0491471,11.3691429 40.0563852,12.5013333 C40.0491471,13.6247619 39.1622899,14.5386667 38.0788614,14.535619 L38.0788614,14.535619 L38.0788614,14.535619 Z" id="Shape"></path>
            </g>
        </g>
    </g>
</svg>