<?xml version="1.0" encoding="UTF-8" standalone="no"?>
<svg width="36px" height="24px" viewBox="0 0 36 24" version="1.1" xmlns="http://www.w3.org/2000/svg" xmlns:xlink="http://www.w3.org/1999/xlink">
    <!-- Generator: Sketch 3.8.3 (29802) - http://www.bohemiancoding.com/sketch -->
    <title>Shape</title>
    <desc>Created with Sketch.</desc>
    <defs></defs>
    <g id="Welcome" stroke="none" stroke-width="1" fill="none" fill-rule="evenodd">
        <g id="iPhone-6-Copy" transform="translate(-169.000000, -164.000000)" fill="#6CADF3">
            <g id="Step-1" transform="translate(26.000000, 164.000000)">
                <path d="M171.235294,9.88235294 C170.800118,9.88235294 170.375529,9.92788235 169.961882,10.0034118 L168.249765,4.08952941 C169.170235,3.76270588 169.647059,2.93611765 169.647059,2.11764706 C169.647059,1.55929412 169.432824,1.03729412 169.043176,0.648 C168.747412,0.352235294 168.214118,0 167.352941,0 L165.235294,0 C164.845647,0 164.529412,0.316235294 164.529412,0.705882353 C164.529412,1.09552941 164.845647,1.41176471 165.235294,1.41176471 L167.352941,1.41176471 C167.652588,1.41176471 167.891529,1.49258824 168.045059,1.64611765 C168.167882,1.76894118 168.235294,1.93623529 168.235294,2.11764706 C168.235294,2.45894118 168.003765,2.82352941 167.352941,2.82352941 C167.130941,2.82352941 166.922,2.928 166.788588,3.10517647 C166.655176,3.28270588 166.613176,3.51247059 166.674941,3.72564706 L167.333176,6 L156.685294,6 L156.281176,4.78764706 C157.221412,4.41070588 157.985176,4.21658824 157.995059,4.21411765 C158.340588,4.12729412 158.567529,3.79658824 158.523765,3.44294118 C158.48,3.08894118 158.18,2.82352941 157.823529,2.82352941 L152.529412,2.82352941 C152.274941,2.82352941 152.040588,2.96047059 151.915294,3.18176471 C151.79,3.40305882 151.793176,3.67447059 151.924118,3.89258824 C152.020118,4.05317647 152.906,5.46070588 154.326941,5.46070588 C154.547529,5.46070588 154.766353,5.42223529 154.981294,5.35305882 L155.362824,6.49729412 L152.997765,10.5317647 C152.101647,10.1188235 151.108471,9.88235294 150.058824,9.88235294 C146.166588,9.88235294 143,13.0489412 143,16.9411765 C143,20.8334118 146.166588,24 150.058824,24 C153.712824,24 156.726588,21.2092941 157.081647,17.6470588 L157.972118,17.6470588 C158.244588,18.27 158.864706,18.7058824 159.587882,18.7058824 C160.562353,18.7058824 161.352588,17.916 161.352588,16.9411765 C161.352588,16.7011765 161.303529,16.4735294 161.217059,16.2649412 L168.201765,9.00105882 L168.605529,10.3955294 C166.013176,11.4409412 164.176471,13.9782353 164.176471,16.9411765 C164.176471,20.8334118 167.343059,24 171.235294,24 C175.127529,24 178.294118,20.8334118 178.294118,16.9411765 C178.294118,13.0489412 175.127529,9.88235294 171.235294,9.88235294 L171.235294,9.88235294 Z M155.956118,8.27682353 L158.409412,15.6367059 C158.225176,15.8032941 158.073412,16.0044706 157.972471,16.2352941 L157.082,16.2352941 C156.878,14.1885882 155.791647,12.4023529 154.214706,11.2478824 L155.956118,8.27682353 L155.956118,8.27682353 Z M155.300353,16.2352941 L151.290941,16.2352941 L153.317882,12.7775294 C154.378824,13.6101176 155.112588,14.8358824 155.300353,16.2352941 L155.300353,16.2352941 Z M150.058824,22.2352941 C147.139647,22.2352941 144.764706,19.8603529 144.764706,16.9411765 C144.764706,14.022 147.139647,11.6470588 150.058824,11.6470588 C150.783059,11.6470588 151.473412,11.7938824 152.103059,12.0582353 L149.45,16.584 C149.322235,16.8024706 149.320824,17.0724706 149.446471,17.292 C149.572118,17.5115294 149.805765,17.6470588 150.058824,17.6470588 L155.300353,17.6470588 C154.953412,20.2330588 152.738,22.2352941 150.058824,22.2352941 L150.058824,22.2352941 Z M160.196,15.2904706 C160.054824,15.2385882 159.905176,15.2071765 159.749529,15.1927059 L157.155765,7.41176471 L167.741882,7.41176471 L167.748941,7.43541176 L160.196,15.2904706 L160.196,15.2904706 Z M171.235294,22.2352941 C168.316118,22.2352941 165.941176,19.8603529 165.941176,16.9411765 C165.941176,14.7825882 167.242118,12.924 169.099294,12.1009412 L170.557294,17.1374118 C170.646588,17.4465882 170.928588,17.6474118 171.234941,17.6474118 C171.300235,17.6474118 171.365882,17.6382353 171.431529,17.6191765 C171.806353,17.5108235 172.022,17.1194118 171.913294,16.7449412 L170.456,11.7109412 C170.711176,11.6731765 170.969882,11.6470588 171.235294,11.6470588 C174.154471,11.6470588 176.529412,14.022 176.529412,16.9411765 C176.529412,19.8603529 174.154471,22.2352941 171.235294,22.2352941 L171.235294,22.2352941 Z" id="Shape"></path>
            </g>
        </g>
    </g>
</svg>