<?xml version="1.0" encoding="UTF-8" standalone="no"?>
<svg width="168px" height="28px" viewBox="0 0 168 28" version="1.1" xmlns="http://www.w3.org/2000/svg" xmlns:xlink="http://www.w3.org/1999/xlink">
    <!-- Generator: Sketch 39 (31667) - http://www.bohemiancoding.com/sketch -->
    <title>Group 44 Copy</title>
    <desc>Created with Sketch.</desc>
    <defs></defs>
    <g id="Welcome" stroke="none" stroke-width="1" fill="none" fill-rule="evenodd">
        <g id="Group-44-Copy" fill="#FFFFFF">
            <g id="Group-2-Copy">
                <path d="M2,18.0083475 C2,22.4199239 5.57798469,26 9.99165249,26 L18.0083475,26 C22.4199239,26 26,22.4220153 26,18.0083475 L26,9.99165249 C26,5.5800761 22.4220153,2 18.0083475,2 L3.00069463,2 C2.44746922,2 2,2.44802625 2,3.00069463 L2,18.0083475 Z M0,3.00069463 C0,1.34343643 1.34291989,0 3.00069463,0 L18.0083475,0 C23.5259436,0 28,4.4748652 28,9.99165249 L28,18.0083475 C28,23.5259436 23.5251348,28 18.0083475,28 L9.99165249,28 C4.47405644,28 0,23.5251348 0,18.0083475 L0,3.00069463 Z" id="Rectangle-57"></path>
            </g>
            <path d="M43.152,21 L40.92,21 L40.92,8.52 L43.152,8.52 L43.152,21 Z M42.024,6.264 C41.623998,6.264 41.2840014,6.13200132 41.004,5.868 C40.7239986,5.60399868 40.584,5.24800224 40.584,4.8 C40.584,4.35199776 40.7239986,3.99600132 41.004,3.732 C41.2840014,3.46799868 41.623998,3.336 42.024,3.336 C42.424002,3.336 42.7639986,3.46799868 43.044,3.732 C43.3240014,3.99600132 43.464,4.35199776 43.464,4.8 C43.464,5.24800224 43.3240014,5.60399868 43.044,5.868 C42.7639986,6.13200132 42.424002,6.264 42.024,6.264 L42.024,6.264 Z M46.992,8.88 C47.5040026,8.75199936 48.1839958,8.61600072 49.032,8.472 C49.8800042,8.32799928 50.8559945,8.256 51.96,8.256 C52.952005,8.256 53.7759967,8.3959986 54.432,8.676 C55.0880033,8.9560014 55.611998,9.34799748 56.004,9.852 C56.396002,10.3560025 56.6719992,10.9599965 56.832,11.664 C56.9920008,12.3680035 57.072,13.1439958 57.072,13.992 L57.072,21 L54.84,21 L54.84,14.472 C54.84,13.7039962 54.7880005,13.0480027 54.684,12.504 C54.5799995,11.9599973 54.4080012,11.5200017 54.168,11.184 C53.9279988,10.8479983 53.608002,10.6040008 53.208,10.452 C52.807998,10.2999992 52.312003,10.224 51.72,10.224 C51.4799988,10.224 51.2320013,10.2319999 50.976,10.248 C50.7199987,10.2640001 50.4760012,10.2839999 50.244,10.308 C50.0119988,10.3320001 49.8040009,10.3599998 49.62,10.392 C49.4359991,10.4240002 49.3040004,10.4479999 49.224,10.464 L49.224,21 L46.992,21 L46.992,8.88 Z M62.856,8.52 L67.584,8.52 L67.584,10.392 L62.856,10.392 L62.856,16.152 C62.856,16.7760031 62.9039995,17.291998 63,17.7 C63.0960005,18.108002 63.239999,18.4279988 63.432,18.66 C63.624001,18.8920012 63.8639986,19.0559995 64.152,19.152 C64.4400014,19.2480005 64.7759981,19.296 65.16,19.296 C65.8320034,19.296 66.371998,19.2200008 66.78,19.068 C67.188002,18.9159992 67.4719992,18.8080003 67.632,18.744 L68.064,20.592 C67.8399989,20.7040006 67.4480028,20.8439992 66.888,21.012 C66.3279972,21.1800008 65.6880036,21.264 64.968,21.264 C64.1199958,21.264 63.4200028,21.1560011 62.868,20.94 C62.3159972,20.7239989 61.8720017,20.4000022 61.536,19.968 C61.1999983,19.5359978 60.9640007,19.0040032 60.828,18.372 C60.6919993,17.7399968 60.624,17.0080042 60.624,16.176 L60.624,5.04 L62.856,4.656 L62.856,8.52 Z M69.48,14.784 C69.48,13.6799945 69.6399984,12.7160041 69.96,11.892 C70.2800016,11.0679959 70.7039974,10.3840027 71.232,9.84 C71.7600026,9.29599728 72.3679966,8.88800136 73.056,8.616 C73.7440034,8.34399864 74.4479964,8.208 75.168,8.208 C76.8480084,8.208 78.1359955,8.73199476 79.032,9.78 C79.9280045,10.8280052 80.376,12.4239893 80.376,14.568 L80.376,14.94 C80.376,15.0920008 80.3680001,15.2319994 80.352,15.36 L71.808,15.36 C71.9040005,16.6560065 72.2799967,17.6399966 72.936,18.312 C73.5920033,18.9840034 74.615993,19.32 76.008,19.32 C76.7920039,19.32 77.4519973,19.2520007 77.988,19.116 C78.5240027,18.9799993 78.9279986,18.8480006 79.2,18.72 L79.512,20.592 C79.2399986,20.7360007 78.7640034,20.8879992 78.084,21.048 C77.4039966,21.2080008 76.6320043,21.288 75.768,21.288 C74.6799946,21.288 73.740004,21.1240016 72.948,20.796 C72.155996,20.4679984 71.5040026,20.0160029 70.992,19.44 C70.4799974,18.8639971 70.1000012,18.180004 69.852,17.388 C69.6039988,16.595996 69.48,15.7280047 69.48,14.784 L69.48,14.784 Z M78.048,13.56 C78.0640001,12.551995 77.8120026,11.7240032 77.292,11.076 C76.7719974,10.4279968 76.0560046,10.104 75.144,10.104 C74.6319974,10.104 74.180002,10.203999 73.788,10.404 C73.395998,10.604001 73.0640014,10.8639984 72.792,11.184 C72.5199986,11.5040016 72.3080008,11.8719979 72.156,12.288 C72.0039992,12.7040021 71.9040002,13.1279978 71.856,13.56 L78.048,13.56 Z M87.336,21.24 C85.9599931,21.2079998 84.9840029,20.9120028 84.408,20.352 C83.8319971,19.7919972 83.544,18.9200059 83.544,17.736 L83.544,2.76 L85.776,2.376 L85.776,17.376 C85.776,17.7440018 85.8079997,18.0479988 85.872,18.288 C85.9360003,18.5280012 86.0399993,18.7199993 86.184,18.864 C86.3280007,19.0080007 86.5199988,19.1159996 86.76,19.188 C87.0000012,19.2600004 87.2959982,19.3199998 87.648,19.368 L87.336,21.24 Z M93.888,21.24 C92.5119931,21.2079998 91.5360029,20.9120028 90.96,20.352 C90.3839971,19.7919972 90.096,18.9200059 90.096,17.736 L90.096,2.76 L92.328,2.376 L92.328,17.376 C92.328,17.7440018 92.3599997,18.0479988 92.424,18.288 C92.4880003,18.5280012 92.5919993,18.7199993 92.736,18.864 C92.8800007,19.0080007 93.0719988,19.1159996 93.312,19.188 C93.5520012,19.2600004 93.8479982,19.3199998 94.2,19.368 L93.888,21.24 Z M98.928,21 L96.696,21 L96.696,8.52 L98.928,8.52 L98.928,21 Z M97.8,6.264 C97.399998,6.264 97.0600014,6.13200132 96.78,5.868 C96.4999986,5.60399868 96.36,5.24800224 96.36,4.8 C96.36,4.35199776 96.4999986,3.99600132 96.78,3.732 C97.0600014,3.46799868 97.399998,3.336 97.8,3.336 C98.200002,3.336 98.5399986,3.46799868 98.82,3.732 C99.1000014,3.99600132 99.24,4.35199776 99.24,4.8 C99.24,5.24800224 99.1000014,5.60399868 98.82,5.868 C98.5399986,6.13200132 98.200002,6.264 97.8,6.264 L97.8,6.264 Z M102.768,21 L102.768,4.368 L113.904,4.368 L113.904,7.512 L106.512,7.512 L106.512,10.992 L113.088,10.992 L113.088,14.136 L106.512,14.136 L106.512,21 L102.768,21 Z M121.344,21.24 C120.303995,21.2239999 119.460003,21.112001 118.812,20.904 C118.163997,20.695999 117.652002,20.4040019 117.276,20.028 C116.899998,19.6519981 116.644001,19.1960027 116.508,18.66 C116.371999,18.1239973 116.304,17.5200034 116.304,16.848 L116.304,2.952 L119.88,2.376 L119.88,16.128 C119.88,16.4480016 119.904,16.7359987 119.952,16.992 C120,17.2480013 120.091999,17.4639991 120.228,17.64 C120.364001,17.8160009 120.559999,17.9599994 120.816,18.072 C121.072001,18.1840006 121.415998,18.2559998 121.848,18.288 L121.344,21.24 Z M127.464,21 L123.888,21 L123.888,8.376 L127.464,8.376 L127.464,21 Z M127.8,4.728 C127.8,5.38400328 127.588002,5.89999812 127.164,6.276 C126.739998,6.65200188 126.240003,6.84 125.664,6.84 C125.087997,6.84 124.588002,6.65200188 124.164,6.276 C123.739998,5.89999812 123.528,5.38400328 123.528,4.728 C123.528,4.07199672 123.739998,3.55600188 124.164,3.18 C124.588002,2.80399812 125.087997,2.616 125.664,2.616 C126.240003,2.616 126.739998,2.80399812 127.164,3.18 C127.588002,3.55600188 127.8,4.07199672 127.8,4.728 L127.8,4.728 Z M133.872,14.28 C133.872,16.28001 134.679992,17.28 136.296,17.28 C136.664002,17.28 137.007998,17.2320005 137.328,17.136 C137.648002,17.0399995 137.919999,16.9280006 138.144,16.8 L138.144,11.088 C137.967999,11.0559998 137.760001,11.0280001 137.52,11.004 C137.279999,10.9799999 137.000002,10.968 136.68,10.968 C135.735995,10.968 135.032002,11.2799969 134.568,11.904 C134.103998,12.5280031 133.872,13.3199952 133.872,14.28 L133.872,14.28 Z M141.72,19.416 C141.72,21.4800103 141.196005,23.011995 140.148,24.012 C139.099995,25.012005 137.480011,25.512 135.288,25.512 C134.519996,25.512 133.752004,25.4440007 132.984,25.308 C132.215996,25.1719993 131.504003,24.9920011 130.848,24.768 L131.472,21.768 C132.032003,21.9920011 132.619997,22.1679994 133.236,22.296 C133.852003,22.4240006 134.551996,22.488 135.336,22.488 C136.360005,22.488 137.083998,22.2640022 137.508,21.816 C137.932002,21.3679978 138.144,20.7920035 138.144,20.088 L138.144,19.632 C137.759998,19.8080009 137.364002,19.9399996 136.956,20.028 C136.547998,20.1160004 136.104002,20.16 135.624,20.16 C133.879991,20.16 132.544005,19.6440052 131.616,18.612 C130.687995,17.5799948 130.224,16.1360093 130.224,14.28 C130.224,13.3519954 130.367999,12.5080038 130.656,11.748 C130.944001,10.9879962 131.363997,10.3360027 131.916,9.792 C132.468003,9.24799728 133.143996,8.82800148 133.944,8.532 C134.744004,8.23599852 135.647995,8.088 136.656,8.088 C137.088002,8.088 137.531998,8.1079998 137.988,8.148 C138.444002,8.1880002 138.895998,8.23999968 139.344,8.304 C139.792002,8.36800032 140.219998,8.44399956 140.628,8.532 C141.036002,8.62000044 141.399998,8.71199952 141.72,8.808 L141.72,19.416 Z M145.08,21 L145.08,2.952 L148.656,2.376 L148.656,8.424 C148.896001,8.3439996 149.203998,8.26800036 149.58,8.196 C149.956002,8.12399964 150.319998,8.088 150.672,8.088 C151.696005,8.088 152.547997,8.2279986 153.228,8.508 C153.908003,8.7880014 154.451998,9.18399744 154.86,9.696 C155.268002,10.2080026 155.555999,10.8159965 155.724,11.52 C155.892001,12.2240035 155.976,13.0079957 155.976,13.872 L155.976,21 L152.4,21 L152.4,14.304 C152.4,13.1519942 152.252001,12.3360024 151.956,11.856 C151.659999,11.3759976 151.112004,11.136 150.312,11.136 C149.991998,11.136 149.692001,11.1639997 149.412,11.22 C149.131999,11.2760003 148.880001,11.3359997 148.656,11.4 L148.656,21 L145.08,21 Z M159.096,5.232 L162.672,4.656 L162.672,8.376 L166.968,8.376 L166.968,11.352 L162.672,11.352 L162.672,15.792 C162.672,16.5440038 162.803999,17.1439978 163.068,17.592 C163.332001,18.0400022 163.863996,18.264 164.664,18.264 C165.048002,18.264 165.443998,18.2280004 165.852,18.156 C166.260002,18.0839996 166.631998,17.9840006 166.968,17.856 L167.472,20.64 C167.039998,20.8160009 166.560003,20.9679994 166.032,21.096 C165.503997,21.2240006 164.856004,21.288 164.088,21.288 C163.111995,21.288 162.304003,21.1560013 161.664,20.892 C161.023997,20.6279987 160.512002,20.2600024 160.128,19.788 C159.743998,19.3159976 159.476001,18.7440034 159.324,18.072 C159.171999,17.3999966 159.096,16.6560041 159.096,15.84 L159.096,5.232 Z" id="intelliFlight"></path>
            <path d="M17.9647256,19.4386733 L18.9467262,18.4566728 C19.0062414,18.3971576 19.0359989,18.3078849 19.0062414,18.2483697 L17.7564225,12.0885482 C17.7266649,11.9992754 17.7564225,11.9397602 17.8159377,11.880245 L20.6131513,9.08303142 C21.0892728,8.60690995 21.0892728,7.83321257 20.6131513,7.3570911 L20.6131513,7.3570911 C20.1370298,6.88096963 19.3633325,6.88096963 18.887211,7.3570911 L16.0007246,10.2435775 C15.9412094,10.3030927 15.8816942,10.3328503 15.7924214,10.3030927 L9.54332718,9.1425466 C9.45405441,9.1425466 9.39453922,9.1425466 9.33502404,9.20206179 L8.32326592,10.2435775 C8.20423555,10.3626079 8.23399315,10.570911 8.3827811,10.6304262 L13.1142382,12.7134576 C13.2630261,12.7729728 13.2927837,12.9812759 13.1737534,13.1003063 L10.1087214,16.1653383 C10.0492062,16.2248534 9.95993347,16.254611 9.90041828,16.2248534 L7.87690205,15.8082472 C7.78762927,15.7784896 7.72811409,15.8082472 7.6685989,15.8677623 L7.07344707,16.4629142 C6.9544167,16.5819445 6.98417429,16.7604901 7.13296225,16.8497629 L9.15647849,17.8317634 C9.15647849,17.861521 9.18623608,17.861521 9.21599367,17.8912786 L10.0789638,18.7542487 C10.1087214,18.7840063 10.1087214,18.7840063 10.1087214,18.8137639 L11.1502371,20.8670377 C11.2097523,21.0158257 11.4180555,21.0455833 11.5370858,20.9265529 L12.0429649,20.4206739 C12.1024801,20.3611587 12.1322377,20.2718859 12.1024801,20.2123707 L11.6858738,18.1590969 C11.6561162,18.0698241 11.6858738,18.0103089 11.745389,17.9507938 L14.9889665,14.7072163 C15.1079968,14.5881859 15.2865424,14.6179435 15.3758152,14.7667314 L17.6076345,19.3791582 C17.6671497,19.5279461 17.8456953,19.5577037 17.9647256,19.4386733 L17.9647256,19.4386733 Z" id="Shape"></path>
        </g>
    </g>
</svg>