<?xml version="1.0" encoding="UTF-8" standalone="no"?>
<svg width="17px" height="24px" viewBox="0 0 17 24" version="1.1" xmlns="http://www.w3.org/2000/svg" xmlns:xlink="http://www.w3.org/1999/xlink">
    <!-- Generator: Sketch 3.8.3 (29802) - http://www.bohemiancoding.com/sketch -->
    <title>Combined Shape</title>
    <desc>Created with Sketch.</desc>
    <defs></defs>
    <g id="Welcome" stroke="none" stroke-width="1" fill="none" fill-rule="evenodd">
        <g id="iPhone-6-Copy" transform="translate(-243.000000, -164.000000)" fill="#D0D0D0">
            <g id="Step-1" transform="translate(26.000000, 164.000000)">
                <path d="M224.113587,3.98293778 C225.213445,3.98293778 226.105056,3.09132679 226.105056,1.99146889 C226.105056,0.891610993 225.213445,0 224.113587,0 C223.013729,0 222.122118,0.891610993 222.122118,1.99146889 C222.122118,3.09132679 223.013729,3.98293778 224.113587,3.98293778 Z M217.910012,10.5607302 C218.463321,10.4650173 220.678778,10.0811791 220.802366,10.0399831 C220.943962,9.99286676 220.802366,10.0399831 220.849483,9.96918523 C220.896352,9.89838731 222.829111,5.82121676 223.017823,5.6090697 C223.206288,5.39692263 223.724815,4.85471421 224.455243,4.61913229 C225.185917,4.38355038 225.916591,4.76048144 225.916591,4.76048144 C225.916591,4.76048144 229.546032,6.83458902 229.781614,6.95225663 C230.017443,7.07017093 230.22959,7.49446506 230.22959,7.49446506 L231.924053,10.6798779 C232.062688,10.8547759 232.146067,11.0755568 232.146067,11.3163191 C232.146067,11.8824557 231.687237,12.3415321 231.120854,12.3415321 C230.636863,12.3415321 230.232303,12.0055504 230.124503,11.5546145 L228.544501,8.56679446 L227.554563,8.01299195 C227.625114,8.22513902 228.53266,12.6442117 228.53266,12.6442117 L229.451799,17.8763503 L232.672488,21.7569148 C232.904123,21.9727621 233.049666,22.2796353 233.049666,22.6210441 C233.049666,23.274013 232.520531,23.8036406 231.867316,23.8036406 C231.46991,23.8036406 231.118634,23.6062945 230.904267,23.305095 C230.313955,22.6114235 227.346116,19.1228377 227.059718,18.7831557 C226.741497,18.4062246 226.659105,18.2177591 226.611989,17.9703364 C226.565119,17.7226671 226.034505,14.5293604 226.034505,14.5293604 L222.994141,17.5702172 L222.994141,22.9316175 L222.987974,22.9316175 C222.926797,23.5317964 222.419864,24 221.803651,24 C221.187684,24 220.680752,23.5317964 220.619821,22.9316175 L220.613654,22.9316175 C220.613654,22.9316175 220.613901,22.8936284 220.614394,22.8277641 C220.614394,22.8218437 220.613654,22.8156767 220.613654,22.8097563 C220.613654,22.8021091 220.614641,22.794462 220.614641,22.7865681 C220.620314,21.9695553 220.645476,17.9020053 220.613654,16.9806457 C220.578378,15.9556794 220.943962,15.7316915 221.026354,15.6374588 C221.108993,15.543226 223.948803,12.5265441 223.948803,12.5265441 L223.324449,9.49826808 C223.324449,9.49826808 222.511137,11.0888777 222.428745,11.2657491 C222.346106,11.4423739 222.086843,11.7608412 221.816232,11.8195517 C221.544881,11.8785088 218.162862,12.5620664 218.162862,12.5620664 L218.161382,12.5549126 C218.111799,12.5623131 218.061475,12.5702069 218.009672,12.5702069 C217.451923,12.5702069 217,12.1182843 217,11.5605349 C216.999753,11.036581 217.399626,10.6115468 217.910012,10.5607302 Z" id="Combined-Shape"></path>
            </g>
        </g>
    </g>
</svg>