<?xml version="1.0" encoding="UTF-8" standalone="no"?>
<svg width="15px" height="14px" viewBox="0 0 15 14" version="1.1" xmlns="http://www.w3.org/2000/svg" xmlns:xlink="http://www.w3.org/1999/xlink">
    <!-- Generator: Sketch 39 (31667) - http://www.bohemiancoding.com/sketch -->
    <title>Combined Shape</title>
    <desc>Created with Sketch.</desc>
    <defs></defs>
    <g id="Welcome" stroke="none" stroke-width="1" fill="none" fill-rule="evenodd">
        <g id="Group-43" transform="translate(-13.000000, -12.000000)" fill="#4A4A4A">
            <path d="M16.5489958,24.6994509 C16.3762107,24.6571221 16.2273941,24.5484482 16.1356163,24.3974455 C16.0438384,24.2464428 16.0162292,24.0655698 16.0593117,23.8944535 L17.3803057,18.629023 C17.4060945,18.5263532 17.4984792,18.1580027 17.5235095,18.0578846 L18.8108263,12.9264953 L18.1981145,12.9264953 C18.02002,12.9264953 17.8490553,12.9964429 17.7231452,13.1210276 C17.5972352,13.2456123 17.5263918,13.4146272 17.5265435,13.590847 C17.5265435,13.7401986 17.467836,13.8803939 17.36104,13.9859157 C17.2543956,14.0915875 17.1125572,14.149677 16.9617685,14.149677 C16.6501789,14.149677 16.3968418,13.8988565 16.3968418,13.5905468 C16.3968418,13.2236974 16.0961745,12.9261951 15.725119,12.9261951 L13.671571,12.9261951 C13.3006672,12.9261951 13,13.2236974 13,13.5905468 L13,19.0161362 L13,19.6045363 L13,25.0298255 C13,25.2060454 13.0706917,25.3750603 13.1966018,25.4997951 C13.3225119,25.6243798 13.4933248,25.6943274 13.6714193,25.6943274 L18.1982662,25.6943274 L18.3194736,25.6943274 L20.2518142,25.6943274 C20.3238712,25.6943274 20.3918323,25.6800677 20.4569111,25.6595037 L16.5489958,24.6994509 Z M21.526085,25.4906389 L23.5191051,25.9802718 C23.8792383,26.0686819 24.2434673,25.8516344 24.332818,25.4954421 L25.653812,20.2301618 C25.6796008,20.1273418 25.771227,19.7615431 25.7970158,19.6588733 L27.1178581,14.393743 C27.2069053,14.0374007 26.9877004,13.6770056 26.6278706,13.5885955 L24.6343954,13.0989626 C24.4616104,13.0564837 24.2786615,13.0836522 24.1260524,13.174614 C23.9734433,13.2654258 23.863765,13.4125258 23.8208342,13.5837922 C23.7844265,13.7287908 23.6934071,13.8508238 23.564008,13.9278262 C23.4347605,14.0049787 23.2830616,14.027494 23.1368239,13.9914695 C22.834488,13.9171689 22.649567,13.6133624 22.724658,13.3142089 C22.8140086,12.9580167 22.594652,12.5977718 22.2345188,12.5092115 L20.241347,12.0197287 C19.8813655,11.9313186 19.5171364,12.1483662 19.4277858,12.5044083 L18.1067918,17.7702891 C18.0817614,17.870257 17.9893768,18.2386075 17.963588,18.3412773 L16.642594,23.6067078 C16.5996632,23.7776741 16.6271207,23.9585471 16.7188985,24.1096998 C16.8106764,24.2607025 16.959493,24.3692263 17.1324297,24.4117052 L21.6436516,25.5197587 L21.526085,25.4906389 Z" id="Combined-Shape"></path>
        </g>
    </g>
</svg>