<?xml version="1.0" encoding="UTF-8" standalone="no"?>
<svg width="152px" height="24px" viewBox="0 0 152 24" version="1.1" xmlns="http://www.w3.org/2000/svg" xmlns:xlink="http://www.w3.org/1999/xlink">
    <!-- Generator: Sketch 3.8.3 (29802) - http://www.bohemiancoding.com/sketch -->
    <title>Group Copy</title>
    <desc>Created with Sketch.</desc>
    <defs></defs>
    <g id="Welcome" stroke="none" stroke-width="1" fill="none" fill-rule="evenodd">
        <g id="Group-Copy">
            <path d="M29.3515625,19.1171875 L32.2460938,19.1171875 L32.2460938,6.296875 L29.3515625,6.296875 L29.3515625,19.1171875 Z M30.7929688,4.2109375 C31.859375,4.2109375 32.5859375,3.53125 32.5859375,2.60546875 C32.5859375,1.6796875 31.859375,1 30.7929688,1 C29.7382812,1 29,1.6796875 29,2.60546875 C29,3.53125 29.7382812,4.2109375 30.7929688,4.2109375 L30.7929688,4.2109375 Z M35.84375,19.1171875 L38.75,19.1171875 L38.75,11.6523438 C38.75,9.765625 39.8398438,8.5703125 41.5742188,8.5703125 C43.34375,8.5703125 44.1640625,9.5546875 44.1640625,11.5117188 L44.1640625,19.1171875 L47.0703125,19.1171875 L47.0703125,10.8203125 C47.0703125,7.76171875 45.5117188,6.0390625 42.6523438,6.0390625 C40.7421875,6.0390625 39.453125,6.91796875 38.84375,8.34765625 L38.6445312,8.34765625 L38.6445312,6.296875 L35.84375,6.296875 L35.84375,19.1171875 Z M51.4414062,3.15625 L51.4414062,6.37890625 L49.4140625,6.37890625 L49.4140625,8.69921875 L51.4414062,8.69921875 L51.4414062,15.6953125 C51.4414062,18.1796875 52.6132812,19.1757812 55.5546875,19.1757812 C56.1171875,19.1757812 56.65625,19.1171875 57.078125,19.0351562 L57.078125,16.7617188 C56.7265625,16.796875 56.5039062,16.8203125 56.09375,16.8203125 C54.875,16.8203125 54.3359375,16.2578125 54.3359375,14.9921875 L54.3359375,8.69921875 L57.078125,8.69921875 L57.078125,6.37890625 L54.3359375,6.37890625 L54.3359375,3.15625 L51.4414062,3.15625 Z M65.2460938,8.34765625 C66.9921875,8.34765625 68.140625,9.56640625 68.1992188,11.4648438 L62.1640625,11.4648438 C62.2929688,9.58984375 63.5117188,8.34765625 65.2460938,8.34765625 L65.2460938,8.34765625 Z M68.2226562,15.5898438 C67.8007812,16.5390625 66.8046875,17.0664062 65.3632812,17.0664062 C63.453125,17.0664062 62.2226562,15.7304688 62.1523438,13.5976562 L62.1523438,13.4453125 L71.1054688,13.4453125 L71.1054688,12.5078125 C71.1054688,8.46484375 68.9140625,6.0390625 65.2578125,6.0390625 C61.5429688,6.0390625 59.234375,8.62890625 59.234375,12.7539062 C59.234375,16.8789062 61.5078125,19.375 65.28125,19.375 C68.3046875,19.375 70.4257812,17.921875 70.9765625,15.5898438 L68.2226562,15.5898438 Z M74.140625,19.1171875 L77.046875,19.1171875 L77.046875,1.33984375 L74.140625,1.33984375 L74.140625,19.1171875 Z M80.8320312,19.1171875 L83.7382812,19.1171875 L83.7382812,1.33984375 L80.8320312,1.33984375 L80.8320312,19.1171875 Z M87.4414062,19.1171875 L90.3359375,19.1171875 L90.3359375,6.296875 L87.4414062,6.296875 L87.4414062,19.1171875 Z M88.8828125,4.2109375 C89.9492188,4.2109375 90.6757812,3.53125 90.6757812,2.60546875 C90.6757812,1.6796875 89.9492188,1 88.8828125,1 C87.828125,1 87.0898438,1.6796875 87.0898438,2.60546875 C87.0898438,3.53125 87.828125,4.2109375 88.8828125,4.2109375 L88.8828125,4.2109375 Z M99.4414062,16.5625 C97.4140625,16.5625 96.265625,15.015625 96.265625,12.5664062 C96.265625,10.1171875 97.4140625,8.55859375 99.4414062,8.55859375 C101.457031,8.55859375 102.6875,10.1171875 102.6875,12.5664062 C102.6875,15.015625 101.46875,16.5625 99.4414062,16.5625 L99.4414062,16.5625 Z M99.4414062,23.9921875 C103.179688,23.9921875 105.546875,22.1289062 105.546875,19.1640625 L105.546875,6.296875 L102.746094,6.296875 L102.746094,8.34765625 L102.546875,8.34765625 C101.84375,6.953125 100.320312,6.0859375 98.5742188,6.0859375 C95.3046875,6.0859375 93.2773438,8.640625 93.2773438,12.5664062 C93.2773438,16.421875 95.2929688,18.9296875 98.5273438,18.9296875 C100.308594,18.9296875 101.703125,18.1796875 102.441406,16.8085938 L102.640625,16.8085938 L102.640625,19.234375 C102.640625,20.8398438 101.480469,21.7773438 99.4882812,21.7773438 C97.8945312,21.7773438 96.8632812,21.2148438 96.6757812,20.3359375 L93.7578125,20.3359375 C93.9921875,22.5390625 96.1484375,23.9921875 99.4414062,23.9921875 L99.4414062,23.9921875 Z M109.109375,19.1171875 L112.015625,19.1171875 L112.015625,11.7109375 C112.015625,9.91796875 113.328125,8.74609375 115.214844,8.74609375 C115.707031,8.74609375 116.480469,8.828125 116.703125,8.91015625 L116.703125,6.21484375 C116.433594,6.1328125 115.917969,6.0859375 115.496094,6.0859375 C113.84375,6.0859375 112.460938,7.0234375 112.109375,8.2890625 L111.910156,8.2890625 L111.910156,6.296875 L109.109375,6.296875 L109.109375,19.1171875 Z M123.3125,17.0429688 C122.023438,17.0429688 121.097656,16.3984375 121.097656,15.3203125 C121.097656,14.2773438 121.859375,13.6914062 123.488281,13.5859375 L126.382812,13.3984375 L126.382812,14.4179688 C126.382812,15.90625 125.070312,17.0429688 123.3125,17.0429688 L123.3125,17.0429688 Z M122.457031,19.328125 C124.132812,19.328125 125.539062,18.6015625 126.253906,17.359375 L126.453125,17.359375 L126.453125,19.1171875 L129.253906,19.1171875 L129.253906,10.3632812 C129.253906,7.64453125 127.402344,6.0390625 124.109375,6.0390625 C121.0625,6.0390625 118.941406,7.48046875 118.707031,9.7421875 L121.449219,9.7421875 C121.71875,8.875 122.632812,8.40625 123.96875,8.40625 C125.539062,8.40625 126.382812,9.109375 126.382812,10.3632812 L126.382812,11.4414062 L123.078125,11.640625 C119.960938,11.828125 118.214844,13.1640625 118.214844,15.484375 C118.214844,17.828125 119.984375,19.328125 122.457031,19.328125 L122.457031,19.328125 Z M132.746094,19.1171875 L135.652344,19.1171875 L135.652344,11.3242188 C135.652344,9.75390625 136.71875,8.5703125 138.160156,8.5703125 C139.589844,8.5703125 140.480469,9.42578125 140.480469,10.8320312 L140.480469,19.1171875 L143.304688,19.1171875 L143.304688,11.1367188 C143.304688,9.671875 144.300781,8.5703125 145.8125,8.5703125 C147.371094,8.5703125 148.15625,9.390625 148.15625,11.0429688 L148.15625,19.1171875 L151.050781,19.1171875 L151.050781,10.3046875 C151.050781,7.64453125 149.503906,6.0390625 146.9375,6.0390625 C145.15625,6.0390625 143.679688,6.96484375 143.046875,8.37109375 L142.847656,8.37109375 C142.308594,6.9296875 141.078125,6.0390625 139.308594,6.0390625 C137.609375,6.0390625 136.296875,6.90625 135.746094,8.37109375 L135.546875,8.37109375 L135.546875,6.296875 L132.746094,6.296875 L132.746094,19.1171875 Z" id="intelligrams" fill="#FFFFFF"></path>
            <g id="ghost-xl-copy-2">
                <g id="Shape-Copy-15-+-Shape-Copy-16">
                    <path d="M9.02521366,20.1164991 C9.00278928,19.6507855 9.02521366,19.163903 8.91309176,18.6981893 C8.64399919,17.4915675 7.97126777,16.5601401 6.78277559,16.0097512 C5.01124951,15.1841678 3.3966941,14.1468964 2.02880688,12.792093 C-0.482723763,10.2730053 -0.527572525,7.33054157 1.15425603,4.38807782 C2.99305525,1.17041962 6.76035121,-0.501915886 10.5724959,0.133148232 C14.3173675,0.747043546 17.2998102,3.58366327 17.8828441,7.18235994 C18.1519366,8.79118904 17.9725416,10.3576805 17.1876882,11.8606656 C16.6046544,12.9402746 15.9319229,13.9352084 15.1919184,14.9089734 C13.5997873,17.0258538 12.0300807,19.163903 10.460374,21.2807834 C10.2137058,21.6194842 9.94461327,22.1063667 9.4512769,21.9793539 C8.91309176,21.8311723 9.04763805,21.3019522 9.02521366,20.8785761 C9.00278928,20.6245504 9.02521366,20.3916936 9.02521366,20.1376679 C9.00278928,20.1164991 9.02521366,20.1164991 9.02521366,20.1164991 L9.02521366,20.1164991 Z" id="Shape-Copy-15" fill="#FFFFFF"></path>
                    <path d="M7.46284424,16.3915187 C8.22670045,16.9484297 8.68714485,17.726453 8.89852388,18.674285 C9.01064578,19.1399987 8.9882214,19.6268811 9.01064578,20.0925948 C9.01064578,20.0925948 8.9882214,20.0925948 9.01064578,20.1137636 C9.01064578,20.3677893 8.9882214,20.6006461 9.01064578,20.8546718 C9.03254619,21.2681552 8.90472579,21.7825942 9.40007459,21.9444444 C9.89893781,21.3491018 10.1985983,20.5859423 10.1985983,19.7538735 C10.1985983,18.1094644 9.02820809,16.7341961 7.46284424,16.3915187 Z" id="Shape-Copy-16" fill-opacity="0.25" fill="#27476E"></path>
                </g>
                <path d="M12.0040217,1.00271334 C12.0707859,0.946741681 14.3711879,1.76715243 15.5725776,2.49855855 C16.2777333,2.92785738 17,3.67839479 17,3.99440377 C17,4.06919603 16.385955,3.3810598 15.3049359,2.72293534 C12.6877732,1.1296065 11.9372574,1.058685 12.0040217,1.00271334 Z" id="Path-131"></path>
            </g>
        </g>
    </g>
</svg>