<?xml version="1.0" encoding="UTF-8" standalone="no"?>
<svg width="120px" height="24px" viewBox="0 0 120 24" version="1.1" xmlns="http://www.w3.org/2000/svg" xmlns:xlink="http://www.w3.org/1999/xlink">
    <!-- Generator: Sketch 3.8.3 (29802) - http://www.bohemiancoding.com/sketch -->
    <title>intelligram copy 6</title>
    <desc>Created with Sketch.</desc>
    <defs></defs>
    <g id="Welcome" stroke="none" stroke-width="1" fill="none" fill-rule="evenodd">
        <path d="M3.776,19 L0.872,19 L0.872,6.448 L3.776,6.448 L3.776,19 Z M4.088,2.776 C4.088,3.32000272 3.91200176,3.7519984 3.56,4.072 C3.20799824,4.3920016 2.7920024,4.552 2.312,4.552 C1.81599752,4.552 1.39200176,4.3920016 1.04,4.072 C0.68799824,3.7519984 0.512,3.32000272 0.512,2.776 C0.512,2.2159972 0.68799824,1.7760016 1.04,1.456 C1.39200176,1.1359984 1.81599752,0.976 2.312,0.976 C2.7920024,0.976 3.20799824,1.1359984 3.56,1.456 C3.91200176,1.7760016 4.088,2.2159972 4.088,2.776 L4.088,2.776 Z M7.472,6.856 C8.0320028,6.6959992 8.75999552,6.54400072 9.656,6.4 C10.5520045,6.25599928 11.5439946,6.184 12.632,6.184 C13.6560051,6.184 14.5119966,6.3239986 15.2,6.604 C15.8880034,6.8840014 16.435998,7.27599748 16.844,7.78 C17.252002,8.28400252 17.5399992,8.89199644 17.708,9.604 C17.8760008,10.3160036 17.96,11.0959958 17.96,11.944 L17.96,19 L15.056,19 L15.056,12.4 C15.056,11.7279966 15.0120004,11.1560024 14.924,10.684 C14.8359996,10.2119976 14.692001,9.82800148 14.492,9.532 C14.291999,9.23599852 14.0200017,9.02000068 13.676,8.884 C13.3319983,8.74799932 12.9120025,8.68 12.416,8.68 C12.0479982,8.68 11.664002,8.70399976 11.264,8.752 C10.863998,8.80000024 10.568001,8.83999984 10.376,8.872 L10.376,19 L7.472,19 L7.472,6.856 Z M21.368,3.136 L24.272,2.656 L24.272,6.448 L28.736,6.448 L28.736,8.872 L24.272,8.872 L24.272,13.984 C24.272,14.992005 24.4319984,15.7119978 24.752,16.144 C25.0720016,16.5760022 25.6159962,16.792 26.384,16.792 C26.9120026,16.792 27.379998,16.7360006 27.788,16.624 C28.196002,16.5119994 28.5199988,16.4080005 28.76,16.312 L29.24,18.616 C28.9039983,18.7600007 28.4640027,18.9079992 27.92,19.06 C27.3759973,19.2120008 26.7360037,19.288 26,19.288 C25.1039955,19.288 24.356003,19.1680012 23.756,18.928 C23.155997,18.6879988 22.6800018,18.3400023 22.328,17.884 C21.9759982,17.4279977 21.7280007,16.8760032 21.584,16.228 C21.4399993,15.5799968 21.368,14.8400042 21.368,14.008 L21.368,3.136 Z M30.632,12.784 C30.632,11.6799945 30.7959984,10.7120042 31.124,9.88 C31.4520016,9.04799584 31.8879973,8.35600276 32.432,7.804 C32.9760027,7.25199724 33.5999965,6.8360014 34.304,6.556 C35.0080035,6.2759986 35.7279963,6.136 36.464,6.136 C38.1920086,6.136 39.5399952,6.67199464 40.508,7.744 C41.4760048,8.81600536 41.96,10.4159894 41.96,12.544 C41.96,12.7040008 41.956,12.883999 41.948,13.084 C41.94,13.284001 41.9280001,13.4639992 41.912,13.624 L33.632,13.624 C33.7120004,14.632005 34.0679968,15.4119972 34.7,15.964 C35.3320032,16.5160028 36.247994,16.792 37.448,16.792 C38.1520035,16.792 38.7959971,16.7280006 39.38,16.6 C39.9640029,16.4719994 40.4239983,16.3360007 40.76,16.192 L41.144,18.568 C40.9839992,18.6480004 40.7640014,18.7319996 40.484,18.82 C40.2039986,18.9080004 39.8840018,18.9879996 39.524,19.06 C39.1639982,19.1320004 38.7760021,19.1919998 38.36,19.24 C37.9439979,19.2880002 37.5200022,19.312 37.088,19.312 C35.9839945,19.312 35.0240041,19.1480016 34.208,18.82 C33.3919959,18.4919984 32.7200026,18.0360029 32.192,17.452 C31.6639974,16.8679971 31.2720013,16.180004 31.016,15.388 C30.7599987,14.595996 30.632,13.7280047 30.632,12.784 L30.632,12.784 Z M39.056,11.488 C39.056,11.087998 39.0000006,10.7080018 38.888,10.348 C38.7759994,9.9879982 38.6120011,9.67600132 38.396,9.412 C38.1799989,9.14799868 37.9160016,8.94000076 37.604,8.788 C37.2919984,8.63599924 36.9200022,8.56 36.488,8.56 C36.0399978,8.56 35.6480017,8.64399916 35.312,8.812 C34.9759983,8.98000084 34.6920012,9.19999864 34.46,9.472 C34.2279988,9.74400136 34.0480006,10.0559982 33.92,10.408 C33.7919994,10.7600018 33.7040002,11.1199982 33.656,11.488 L39.056,11.488 Z M49.4,19.24 C48.5359957,19.2239999 47.8200028,19.1280009 47.252,18.952 C46.6839972,18.7759991 46.2320017,18.5240016 45.896,18.196 C45.5599983,17.8679984 45.3240007,17.4600024 45.188,16.972 C45.0519993,16.4839976 44.984,15.9280031 44.984,15.304 L44.984,0.856 L47.888,0.376 L47.888,14.752 C47.888,15.1040018 47.9159997,15.3999988 47.972,15.64 C48.0280003,15.8800012 48.1279993,16.0839992 48.272,16.252 C48.4160007,16.4200008 48.6119988,16.5479996 48.86,16.636 C49.1080012,16.7240004 49.4239981,16.7919998 49.808,16.84 L49.4,19.24 Z M56.528,19.24 C55.6639957,19.2239999 54.9480028,19.1280009 54.38,18.952 C53.8119972,18.7759991 53.3600017,18.5240016 53.024,18.196 C52.6879983,17.8679984 52.4520007,17.4600024 52.316,16.972 C52.1799993,16.4839976 52.112,15.9280031 52.112,15.304 L52.112,0.856 L55.016,0.376 L55.016,14.752 C55.016,15.1040018 55.0439997,15.3999988 55.1,15.64 C55.1560003,15.8800012 55.2559993,16.0839992 55.4,16.252 C55.5440007,16.4200008 55.7399988,16.5479996 55.988,16.636 C56.2360012,16.7240004 56.5519981,16.7919998 56.936,16.84 L56.528,19.24 Z M62.216,19 L59.312,19 L59.312,6.448 L62.216,6.448 L62.216,19 Z M62.528,2.776 C62.528,3.32000272 62.3520018,3.7519984 62,4.072 C61.6479982,4.3920016 61.2320024,4.552 60.752,4.552 C60.2559975,4.552 59.8320018,4.3920016 59.48,4.072 C59.1279982,3.7519984 58.952,3.32000272 58.952,2.776 C58.952,2.2159972 59.1279982,1.7760016 59.48,1.456 C59.8320018,1.1359984 60.2559975,0.976 60.752,0.976 C61.2320024,0.976 61.6479982,1.1359984 62,1.456 C62.3520018,1.7760016 62.528,2.2159972 62.528,2.776 L62.528,2.776 Z M68.192,12.4 C68.192,13.6320062 68.4599973,14.5319972 68.996,15.1 C69.5320027,15.6680028 70.2239958,15.952 71.072,15.952 C71.5360023,15.952 71.971998,15.8880006 72.38,15.76 C72.788002,15.6319994 73.1199987,15.4800009 73.376,15.304 L73.376,8.8 C73.167999,8.75199976 72.9120015,8.7080002 72.608,8.668 C72.3039985,8.6279998 71.9200023,8.608 71.456,8.608 C70.3999947,8.608 69.5920028,8.95599652 69.032,9.652 C68.4719972,10.3480035 68.192,11.2639943 68.192,12.4 L68.192,12.4 Z M76.28,17.728 C76.28,19.72801 75.7720051,21.1919954 74.756,22.12 C73.7399949,23.0480046 72.1840105,23.512 70.088,23.512 C69.3199962,23.512 68.5720036,23.4480006 67.844,23.32 C67.1159964,23.1919994 66.456003,23.024001 65.864,22.816 L66.392,20.344 C66.8880025,20.552001 67.4519968,20.7199994 68.084,20.848 C68.7160032,20.9760006 69.3999963,21.04 70.136,21.04 C71.3040058,21.04 72.1359975,20.8000024 72.632,20.32 C73.1280025,19.8399976 73.376,19.1280047 73.376,18.184 L73.376,17.704 C73.0879986,17.8480007 72.7080024,17.9919993 72.236,18.136 C71.7639976,18.2800007 71.224003,18.352 70.616,18.352 C69.815996,18.352 69.0840033,18.2240013 68.42,17.968 C67.7559967,17.7119987 67.1880024,17.3360025 66.716,16.84 C66.2439976,16.3439975 65.8760013,15.7240037 65.612,14.98 C65.3479987,14.2359963 65.216,13.3760049 65.216,12.4 C65.216,11.4879954 65.3559986,10.6480038 65.636,9.88 C65.9160014,9.11199616 66.3239973,8.45600272 66.86,7.912 C67.3960027,7.36799728 68.0479962,6.94400152 68.816,6.64 C69.5840038,6.33599848 70.4559951,6.184 71.432,6.184 C72.3760047,6.184 73.2719958,6.25599928 74.12,6.4 C74.9680042,6.54400072 75.687997,6.6959992 76.28,6.856 L76.28,17.728 Z M87.128,9.064 C86.8879988,8.9839996 86.5560021,8.90000044 86.132,8.812 C85.7079979,8.72399956 85.2160028,8.68 84.656,8.68 C84.3359984,8.68 83.9960018,8.71199968 83.636,8.776 C83.2759982,8.84000032 83.0240007,8.89599976 82.88,8.944 L82.88,19 L79.976,19 L79.976,7.048 C80.5360028,6.83999896 81.2359958,6.64400092 82.076,6.46 C82.9160042,6.27599908 83.8479949,6.184 84.872,6.184 C85.064001,6.184 85.2879987,6.19599988 85.544,6.22 C85.8000013,6.24400012 86.0559987,6.2759998 86.312,6.316 C86.5680013,6.3560002 86.8159988,6.40399972 87.056,6.46 C87.2960012,6.51600028 87.4879993,6.56799976 87.632,6.616 L87.128,9.064 Z M94.064,16.96 C94.9600045,16.96 95.6399977,16.9120005 96.104,16.816 L96.104,13.6 C95.9439992,13.5519998 95.7120015,13.5040002 95.408,13.456 C95.1039985,13.4079998 94.7680018,13.384 94.4,13.384 C94.0799984,13.384 93.7560016,13.4079998 93.428,13.456 C93.0999984,13.5040002 92.8040013,13.5919994 92.54,13.72 C92.2759987,13.8480006 92.0640008,14.0279988 91.904,14.26 C91.7439992,14.4920012 91.664,14.7839982 91.664,15.136 C91.664,15.8240034 91.8799978,16.2999987 92.312,16.564 C92.7440022,16.8280013 93.3279963,16.96 94.064,16.96 L94.064,16.96 Z M93.824,6.136 C94.7840048,6.136 95.5919967,6.2559988 96.248,6.496 C96.9040033,6.7360012 97.427998,7.07199784 97.82,7.504 C98.212002,7.93600216 98.4919992,8.45999692 98.66,9.076 C98.8280008,9.69200308 98.912,10.3679963 98.912,11.104 L98.912,18.712 C98.4639978,18.8080005 97.7880045,18.9239993 96.884,19.06 C95.9799955,19.1960007 94.9600057,19.264 93.824,19.264 C93.0719962,19.264 92.3840031,19.1920007 91.76,19.048 C91.1359969,18.9039993 90.6040022,18.6720016 90.164,18.352 C89.7239978,18.0319984 89.3800012,17.6160026 89.132,17.104 C88.8839988,16.5919974 88.76,15.9600038 88.76,15.208 C88.76,14.4879964 88.8999986,13.8800025 89.18,13.384 C89.4600014,12.8879975 89.8399976,12.4840016 90.32,12.172 C90.8000024,11.8599984 91.3559968,11.6360007 91.988,11.5 C92.6200032,11.3639993 93.2799966,11.296 93.968,11.296 C94.2880016,11.296 94.6239982,11.3159998 94.976,11.356 C95.3280018,11.3960002 95.703998,11.4639995 96.104,11.56 L96.104,11.08 C96.104,10.7439983 96.0640004,10.4240015 95.984,10.12 C95.9039996,9.81599848 95.764001,9.54800116 95.564,9.316 C95.363999,9.08399884 95.1000016,8.90400064 94.772,8.776 C94.4439984,8.64799936 94.0320025,8.584 93.536,8.584 C92.8639966,8.584 92.2480028,8.63199952 91.688,8.728 C91.1279972,8.82400048 90.6720018,8.93599936 90.32,9.064 L89.96,6.712 C90.3280018,6.58399936 90.8639965,6.45600064 91.568,6.328 C92.2720035,6.19999936 93.023996,6.136 93.824,6.136 L93.824,6.136 Z M109.616,12.4 C109.616,11.0879934 109.452002,10.1400029 109.124,9.556 C108.795998,8.97199708 108.184004,8.68 107.288,8.68 C106.967998,8.68 106.616002,8.70399976 106.232,8.752 C105.847998,8.80000024 105.560001,8.83999984 105.368,8.872 L105.368,19 L102.464,19 L102.464,6.856 C103.024003,6.6959992 103.755995,6.54400072 104.66,6.4 C105.564005,6.25599928 106.519995,6.184 107.528,6.184 C108.392004,6.184 109.099997,6.29599888 109.652,6.52 C110.204003,6.74400112 110.663998,7.03999816 111.032,7.408 C111.208001,7.27999936 111.431999,7.14400072 111.704,7 C111.976001,6.85599928 112.279998,6.7240006 112.616,6.604 C112.952002,6.4839994 113.307998,6.3840004 113.684,6.304 C114.060002,6.2239996 114.439998,6.184 114.824,6.184 C115.800005,6.184 116.603997,6.3239986 117.236,6.604 C117.868003,6.8840014 118.363998,7.27599748 118.724,7.78 C119.084002,8.28400252 119.331999,8.89199644 119.468,9.604 C119.604001,10.3160036 119.672,11.0959958 119.672,11.944 L119.672,19 L116.768,19 L116.768,12.4 C116.768,11.0879934 116.608002,10.1400029 116.288,9.556 C115.967998,8.97199708 115.352005,8.68 114.44,8.68 C113.975998,8.68 113.536002,8.75599924 113.12,8.908 C112.703998,9.06000076 112.392001,9.20799928 112.184,9.352 C112.312001,9.752002 112.4,10.1759978 112.448,10.624 C112.496,11.0720022 112.52,11.5519974 112.52,12.064 L112.52,19 L109.616,19 L109.616,12.4 Z" id="intelligram-copy-6" fill="#FFFFFF"></path>
    </g>
</svg>