<?xml version="1.0" encoding="UTF-8" standalone="no"?>
<svg width="158px" height="28px" viewBox="0 0 158 28" version="1.1" xmlns="http://www.w3.org/2000/svg" xmlns:xlink="http://www.w3.org/1999/xlink">
    <!-- Generator: Sketch 3.8.3 (29802) - http://www.bohemiancoding.com/sketch -->
    <title>Group 3 Copy 5</title>
    <desc>Created with Sketch.</desc>
    <defs>
        <rect id="path-1" x="0" y="0" width="24" height="24" rx="8"></rect>
        <mask id="mask-2" maskContentUnits="userSpaceOnUse" maskUnits="objectBoundingBox" x="-2" y="-2" width="28" height="28">
            <rect x="-2" y="-2" width="28" height="28" fill="white"></rect>
            <use xlink:href="#path-1" fill="black"></use>
        </mask>
    </defs>
    <g id="Welcome" stroke="none" stroke-width="1" fill="none" fill-rule="evenodd">
        <g id="Group-3-Copy-5" transform="translate(2.000000, 2.000000)">
            <g id="Group-2-Copy" transform="translate(0.000000, 0.000000)">
                <use id="Rectangle-57" stroke="#FFFFFF" mask="url(#mask-2)" stroke-width="4" xlink:href="#path-1"></use>
                <g id="ghost-xl-copy-2" transform="translate(7.000000, 5.000000)">
                    <g id="Shape-Copy-15-+-Shape-Copy-16">
                        <path d="M5.51540835,12.8014085 C5.50170456,12.5050453 5.51540835,12.195211 5.44688941,11.8988477 C5.28244395,11.1309975 4.8713303,10.538271 4.14502953,10.1880235 C3.06243026,9.66265225 2.07575751,9.00257046 1.23982643,8.1404228 C-0.294997855,6.53736702 -0.322405432,4.66489009 0.705378685,2.79241316 C1.82908932,0.744812488 4.13132574,-0.319401018 6.46096974,0.0847306929 C8.74950237,0.475391347 10.5721062,2.28051299 10.9284047,4.57059269 C11.0928502,5.59439302 10.9832199,6.59125124 10.5035873,7.54769629 C10.1472888,8.2347202 9.73617512,8.86785989 9.28395011,9.48752851 C8.31098115,10.8346342 7.35171597,12.195211 6.3924508,13.5423167 C6.24170913,13.7578536 6.07726367,14.0676879 5.77578033,13.9868616 C5.44688941,13.8925642 5.52911214,13.5557877 5.51540835,13.2863666 C5.50170456,13.1247139 5.51540835,12.9765323 5.51540835,12.8148796 C5.50170456,12.8014085 5.51540835,12.8014085 5.51540835,12.8014085 L5.51540835,12.8014085 Z" id="Shape-Copy-15" fill="#FFFFFF"></path>
                        <path d="M4.56062704,10.4309664 C5.02742805,10.7853644 5.30881074,11.2804701 5.43798681,11.8836359 C5.50650575,12.1799991 5.49280197,12.4898335 5.50650575,12.7861967 C5.50650575,12.7861967 5.49280197,12.7861967 5.50650575,12.7996678 C5.50650575,12.9613205 5.49280197,13.1095021 5.50650575,13.2711548 C5.51988934,13.5342806 5.44177687,13.8616509 5.74449003,13.9646465 C6.04935088,13.585792 6.23247671,13.1001451 6.23247671,12.5706468 C6.23247671,11.5242046 5.51723828,10.6490339 4.56062704,10.4309664 Z" id="Shape-Copy-16" fill-opacity="0.25" fill="#27476E"></path>
                    </g>
                    <path d="M7.33579103,0.638090308 C7.37659141,0.602471979 8.78239263,1.12455155 9.51657521,1.58999181 C9.94750369,1.86318197 10.3888889,2.34079669 10.3888889,2.54189331 C10.3888889,2.58948838 10.0136391,2.15158351 9.3530164,1.73277703 C7.75363918,0.718840498 7.29499065,0.673708636 7.33579103,0.638090308 Z" id="Path-131"></path>
                </g>
            </g>
            <path d="M39.776,20 L36.872,20 L36.872,7.448 L39.776,7.448 L39.776,20 Z M40.088,3.776 C40.088,4.32000272 39.9120018,4.7519984 39.56,5.072 C39.2079982,5.3920016 38.7920024,5.552 38.312,5.552 C37.8159975,5.552 37.3920018,5.3920016 37.04,5.072 C36.6879982,4.7519984 36.512,4.32000272 36.512,3.776 C36.512,3.2159972 36.6879982,2.7760016 37.04,2.456 C37.3920018,2.1359984 37.8159975,1.976 38.312,1.976 C38.7920024,1.976 39.2079982,2.1359984 39.56,2.456 C39.9120018,2.7760016 40.088,3.2159972 40.088,3.776 L40.088,3.776 Z M43.472,7.856 C44.0320028,7.6959992 44.7599955,7.54400072 45.656,7.4 C46.5520045,7.25599928 47.5439946,7.184 48.632,7.184 C49.6560051,7.184 50.5119966,7.3239986 51.2,7.604 C51.8880034,7.8840014 52.435998,8.27599748 52.844,8.78 C53.252002,9.28400252 53.5399992,9.89199644 53.708,10.604 C53.8760008,11.3160036 53.96,12.0959958 53.96,12.944 L53.96,20 L51.056,20 L51.056,13.4 C51.056,12.7279966 51.0120004,12.1560024 50.924,11.684 C50.8359996,11.2119976 50.692001,10.8280015 50.492,10.532 C50.291999,10.2359985 50.0200017,10.0200007 49.676,9.884 C49.3319983,9.74799932 48.9120025,9.68 48.416,9.68 C48.0479982,9.68 47.664002,9.70399976 47.264,9.752 C46.863998,9.80000024 46.568001,9.83999984 46.376,9.872 L46.376,20 L43.472,20 L43.472,7.856 Z M57.368,4.136 L60.272,3.656 L60.272,7.448 L64.736,7.448 L64.736,9.872 L60.272,9.872 L60.272,14.984 C60.272,15.992005 60.4319984,16.7119978 60.752,17.144 C61.0720016,17.5760022 61.6159962,17.792 62.384,17.792 C62.9120026,17.792 63.379998,17.7360006 63.788,17.624 C64.196002,17.5119994 64.5199988,17.4080005 64.76,17.312 L65.24,19.616 C64.9039983,19.7600007 64.4640027,19.9079992 63.92,20.06 C63.3759973,20.2120008 62.7360037,20.288 62,20.288 C61.1039955,20.288 60.356003,20.1680012 59.756,19.928 C59.155997,19.6879988 58.6800018,19.3400023 58.328,18.884 C57.9759982,18.4279977 57.7280007,17.8760032 57.584,17.228 C57.4399993,16.5799968 57.368,15.8400042 57.368,15.008 L57.368,4.136 Z M66.632,13.784 C66.632,12.6799945 66.7959984,11.7120042 67.124,10.88 C67.4520016,10.0479958 67.8879973,9.35600276 68.432,8.804 C68.9760027,8.25199724 69.5999965,7.8360014 70.304,7.556 C71.0080035,7.2759986 71.7279963,7.136 72.464,7.136 C74.1920086,7.136 75.5399952,7.67199464 76.508,8.744 C77.4760048,9.81600536 77.96,11.4159894 77.96,13.544 C77.96,13.7040008 77.956,13.883999 77.948,14.084 C77.94,14.284001 77.9280001,14.4639992 77.912,14.624 L69.632,14.624 C69.7120004,15.632005 70.0679968,16.4119972 70.7,16.964 C71.3320032,17.5160028 72.247994,17.792 73.448,17.792 C74.1520035,17.792 74.7959971,17.7280006 75.38,17.6 C75.9640029,17.4719994 76.4239983,17.3360007 76.76,17.192 L77.144,19.568 C76.9839992,19.6480004 76.7640014,19.7319996 76.484,19.82 C76.2039986,19.9080004 75.8840018,19.9879996 75.524,20.06 C75.1639982,20.1320004 74.7760021,20.1919998 74.36,20.24 C73.9439979,20.2880002 73.5200022,20.312 73.088,20.312 C71.9839945,20.312 71.0240041,20.1480016 70.208,19.82 C69.3919959,19.4919984 68.7200026,19.0360029 68.192,18.452 C67.6639974,17.8679971 67.2720013,17.180004 67.016,16.388 C66.7599987,15.595996 66.632,14.7280047 66.632,13.784 L66.632,13.784 Z M75.056,12.488 C75.056,12.087998 75.0000006,11.7080018 74.888,11.348 C74.7759994,10.9879982 74.6120011,10.6760013 74.396,10.412 C74.1799989,10.1479987 73.9160016,9.94000076 73.604,9.788 C73.2919984,9.63599924 72.9200022,9.56 72.488,9.56 C72.0399978,9.56 71.6480017,9.64399916 71.312,9.812 C70.9759983,9.98000084 70.6920012,10.1999986 70.46,10.472 C70.2279988,10.7440014 70.0480006,11.0559982 69.92,11.408 C69.7919994,11.7600018 69.7040002,12.1199982 69.656,12.488 L75.056,12.488 Z M85.4,20.24 C84.5359957,20.2239999 83.8200028,20.1280009 83.252,19.952 C82.6839972,19.7759991 82.2320017,19.5240016 81.896,19.196 C81.5599983,18.8679984 81.3240007,18.4600024 81.188,17.972 C81.0519993,17.4839976 80.984,16.9280031 80.984,16.304 L80.984,1.856 L83.888,1.376 L83.888,15.752 C83.888,16.1040018 83.9159997,16.3999988 83.972,16.64 C84.0280003,16.8800012 84.1279993,17.0839992 84.272,17.252 C84.4160007,17.4200008 84.6119988,17.5479996 84.86,17.636 C85.1080012,17.7240004 85.4239981,17.7919998 85.808,17.84 L85.4,20.24 Z M92.528,20.24 C91.6639957,20.2239999 90.9480028,20.1280009 90.38,19.952 C89.8119972,19.7759991 89.3600017,19.5240016 89.024,19.196 C88.6879983,18.8679984 88.4520007,18.4600024 88.316,17.972 C88.1799993,17.4839976 88.112,16.9280031 88.112,16.304 L88.112,1.856 L91.016,1.376 L91.016,15.752 C91.016,16.1040018 91.0439997,16.3999988 91.1,16.64 C91.1560003,16.8800012 91.2559993,17.0839992 91.4,17.252 C91.5440007,17.4200008 91.7399988,17.5479996 91.988,17.636 C92.2360012,17.7240004 92.5519981,17.7919998 92.936,17.84 L92.528,20.24 Z M98.216,20 L95.312,20 L95.312,7.448 L98.216,7.448 L98.216,20 Z M98.528,3.776 C98.528,4.32000272 98.3520018,4.7519984 98,5.072 C97.6479982,5.3920016 97.2320024,5.552 96.752,5.552 C96.2559975,5.552 95.8320018,5.3920016 95.48,5.072 C95.1279982,4.7519984 94.952,4.32000272 94.952,3.776 C94.952,3.2159972 95.1279982,2.7760016 95.48,2.456 C95.8320018,2.1359984 96.2559975,1.976 96.752,1.976 C97.2320024,1.976 97.6479982,2.1359984 98,2.456 C98.3520018,2.7760016 98.528,3.2159972 98.528,3.776 L98.528,3.776 Z M104.192,13.4 C104.192,14.6320062 104.459997,15.5319972 104.996,16.1 C105.532003,16.6680028 106.223996,16.952 107.072,16.952 C107.536002,16.952 107.971998,16.8880006 108.38,16.76 C108.788002,16.6319994 109.119999,16.4800009 109.376,16.304 L109.376,9.8 C109.167999,9.75199976 108.912002,9.7080002 108.608,9.668 C108.303998,9.6279998 107.920002,9.608 107.456,9.608 C106.399995,9.608 105.592003,9.95599652 105.032,10.652 C104.471997,11.3480035 104.192,12.2639943 104.192,13.4 L104.192,13.4 Z M112.28,18.728 C112.28,20.72801 111.772005,22.1919954 110.756,23.12 C109.739995,24.0480046 108.18401,24.512 106.088,24.512 C105.319996,24.512 104.572004,24.4480006 103.844,24.32 C103.115996,24.1919994 102.456003,24.024001 101.864,23.816 L102.392,21.344 C102.888002,21.552001 103.451997,21.7199994 104.084,21.848 C104.716003,21.9760006 105.399996,22.04 106.136,22.04 C107.304006,22.04 108.135998,21.8000024 108.632,21.32 C109.128002,20.8399976 109.376,20.1280047 109.376,19.184 L109.376,18.704 C109.087999,18.8480007 108.708002,18.9919993 108.236,19.136 C107.763998,19.2800007 107.224003,19.352 106.616,19.352 C105.815996,19.352 105.084003,19.2240013 104.42,18.968 C103.755997,18.7119987 103.188002,18.3360025 102.716,17.84 C102.243998,17.3439975 101.876001,16.7240037 101.612,15.98 C101.347999,15.2359963 101.216,14.3760049 101.216,13.4 C101.216,12.4879954 101.355999,11.6480038 101.636,10.88 C101.916001,10.1119962 102.323997,9.45600272 102.86,8.912 C103.396003,8.36799728 104.047996,7.94400152 104.816,7.64 C105.584004,7.33599848 106.455995,7.184 107.432,7.184 C108.376005,7.184 109.271996,7.25599928 110.12,7.4 C110.968004,7.54400072 111.687997,7.6959992 112.28,7.856 L112.28,18.728 Z M123.128,10.064 C122.887999,9.9839996 122.556002,9.90000044 122.132,9.812 C121.707998,9.72399956 121.216003,9.68 120.656,9.68 C120.335998,9.68 119.996002,9.71199968 119.636,9.776 C119.275998,9.84000032 119.024001,9.89599976 118.88,9.944 L118.88,20 L115.976,20 L115.976,8.048 C116.536003,7.83999896 117.235996,7.64400092 118.076,7.46 C118.916004,7.27599908 119.847995,7.184 120.872,7.184 C121.064001,7.184 121.287999,7.19599988 121.544,7.22 C121.800001,7.24400012 122.055999,7.2759998 122.312,7.316 C122.568001,7.3560002 122.815999,7.40399972 123.056,7.46 C123.296001,7.51600028 123.487999,7.56799976 123.632,7.616 L123.128,10.064 Z M130.064,17.96 C130.960004,17.96 131.639998,17.9120005 132.104,17.816 L132.104,14.6 C131.943999,14.5519998 131.712002,14.5040002 131.408,14.456 C131.103998,14.4079998 130.768002,14.384 130.4,14.384 C130.079998,14.384 129.756002,14.4079998 129.428,14.456 C129.099998,14.5040002 128.804001,14.5919994 128.54,14.72 C128.275999,14.8480006 128.064001,15.0279988 127.904,15.26 C127.743999,15.4920012 127.664,15.7839982 127.664,16.136 C127.664,16.8240034 127.879998,17.2999987 128.312,17.564 C128.744002,17.8280013 129.327996,17.96 130.064,17.96 L130.064,17.96 Z M129.824,7.136 C130.784005,7.136 131.591997,7.2559988 132.248,7.496 C132.904003,7.7360012 133.427998,8.07199784 133.82,8.504 C134.212002,8.93600216 134.491999,9.45999692 134.66,10.076 C134.828001,10.6920031 134.912,11.3679963 134.912,12.104 L134.912,19.712 C134.463998,19.8080005 133.788005,19.9239993 132.884,20.06 C131.979995,20.1960007 130.960006,20.264 129.824,20.264 C129.071996,20.264 128.384003,20.1920007 127.76,20.048 C127.135997,19.9039993 126.604002,19.6720016 126.164,19.352 C125.723998,19.0319984 125.380001,18.6160026 125.132,18.104 C124.883999,17.5919974 124.76,16.9600038 124.76,16.208 C124.76,15.4879964 124.899999,14.8800025 125.18,14.384 C125.460001,13.8879975 125.839998,13.4840016 126.32,13.172 C126.800002,12.8599984 127.355997,12.6360007 127.988,12.5 C128.620003,12.3639993 129.279997,12.296 129.968,12.296 C130.288002,12.296 130.623998,12.3159998 130.976,12.356 C131.328002,12.3960002 131.703998,12.4639995 132.104,12.56 L132.104,12.08 C132.104,11.7439983 132.064,11.4240015 131.984,11.12 C131.904,10.8159985 131.764001,10.5480012 131.564,10.316 C131.363999,10.0839988 131.100002,9.90400064 130.772,9.776 C130.443998,9.64799936 130.032002,9.584 129.536,9.584 C128.863997,9.584 128.248003,9.63199952 127.688,9.728 C127.127997,9.82400048 126.672002,9.93599936 126.32,10.064 L125.96,7.712 C126.328002,7.58399936 126.863996,7.45600064 127.568,7.328 C128.272004,7.19999936 129.023996,7.136 129.824,7.136 L129.824,7.136 Z M145.616,13.4 C145.616,12.0879934 145.452002,11.1400029 145.124,10.556 C144.795998,9.97199708 144.184004,9.68 143.288,9.68 C142.967998,9.68 142.616002,9.70399976 142.232,9.752 C141.847998,9.80000024 141.560001,9.83999984 141.368,9.872 L141.368,20 L138.464,20 L138.464,7.856 C139.024003,7.6959992 139.755995,7.54400072 140.66,7.4 C141.564005,7.25599928 142.519995,7.184 143.528,7.184 C144.392004,7.184 145.099997,7.29599888 145.652,7.52 C146.204003,7.74400112 146.663998,8.03999816 147.032,8.408 C147.208001,8.27999936 147.431999,8.14400072 147.704,8 C147.976001,7.85599928 148.279998,7.7240006 148.616,7.604 C148.952002,7.4839994 149.307998,7.3840004 149.684,7.304 C150.060002,7.2239996 150.439998,7.184 150.824,7.184 C151.800005,7.184 152.603997,7.3239986 153.236,7.604 C153.868003,7.8840014 154.363998,8.27599748 154.724,8.78 C155.084002,9.28400252 155.331999,9.89199644 155.468,10.604 C155.604001,11.3160036 155.672,12.0959958 155.672,12.944 L155.672,20 L152.768,20 L152.768,13.4 C152.768,12.0879934 152.608002,11.1400029 152.288,10.556 C151.967998,9.97199708 151.352005,9.68 150.44,9.68 C149.975998,9.68 149.536002,9.75599924 149.12,9.908 C148.703998,10.0600008 148.392001,10.2079993 148.184,10.352 C148.312001,10.752002 148.4,11.1759978 148.448,11.624 C148.496,12.0720022 148.52,12.5519974 148.52,13.064 L148.52,20 L145.616,20 L145.616,13.4 Z" id="intelligram-copy-3" fill="#FFFFFF"></path>
        </g>
    </g>
</svg>