<?xml version="1.0" encoding="UTF-8" standalone="no"?>
<svg width="24px" height="18px" viewBox="0 0 24 18" version="1.1" xmlns="http://www.w3.org/2000/svg" xmlns:xlink="http://www.w3.org/1999/xlink" xmlns:sketch="http://www.bohemiancoding.com/sketch/ns">
    <!-- Generator: Sketch 3.3.2 (12043) - http://www.bohemiancoding.com/sketch -->
    <title>Editor</title>
    <desc>Created with Sketch.</desc>
    <defs></defs>
    <g id="Page-1" stroke="none" stroke-width="1" fill="none" fill-rule="evenodd" sketch:type="MSPage">
        <g id="iPhone-6" sketch:type="MSArtboardGroup" transform="translate(-8.000000, -45.000000)" fill="#979797">
            <g id="Editor" sketch:type="MSLayerGroup" transform="translate(8.000000, 45.000000)">
                <path d="M0.629605517,0 C0.281883992,0 0,0.363162127 0,0.818181818 C0,1.27005116 0.286250711,1.63636364 0.629605517,1.63636364 L23.3703945,1.63636364 C23.718116,1.63636364 24,1.27320151 24,0.818181818 C24,0.366312477 23.7137493,0 23.3703945,0 L0.629605517,0 L0.629605517,0 Z M0.629605517,8.18181818 C0.281883992,8.18181818 0,8.54498029 0,9 C0,9.4518693 0.286250711,9.81818182 0.629605517,9.81818182 L23.3703945,9.81818182 C23.718116,9.81818182 24,9.45501971 24,9 C24,8.5481307 23.7137493,8.18181818 23.3703945,8.18181818 L0.629605517,8.18181818 L0.629605517,8.18181818 Z M0.629605517,16.3636364 C0.281883992,16.3636364 0,16.7267985 0,17.1818182 C0,17.6336875 0.286250711,18 0.629605517,18 L23.3703945,18 C23.718116,18 24,17.6368379 24,17.1818182 C24,16.7299489 23.7137493,16.3636364 23.3703945,16.3636364 L0.629605517,16.3636364 L0.629605517,16.3636364 Z" id="list_view" sketch:type="MSShapeGroup"></path>
            </g>
        </g>
    </g>
</svg>