<?xml version="1.0" encoding="UTF-8" standalone="no"?>
<svg xmlns:sketch="http://www.bohemiancoding.com/sketch/ns" xmlns="http://www.w3.org/2000/svg" height="25px" width="26px" version="1.1" xmlns:xlink="http://www.w3.org/1999/xlink" viewBox="0 0 26 25"><!-- Generator: Sketch 3.3.2 (12043) - http://www.bohemiancoding.com/sketch -->
 <title>Imported Layers</title>
 <desc>Created with Sketch.</desc>
 <g id="Page-1" fill-rule="evenodd" sketch:type="MSPage" fill="none">
  <g id="iPhone-6" transform="translate(-341 -34)" sketch:type="MSArtboardGroup" stroke="#979797" stroke-width=".4" fill="#979797">
   <path id="Imported-Layers" sketch:type="MSShapeGroup" d="m355.42 34.894l1.46 3.416c0.28 0.1 0.54 0.205 0.8 0.33l3.43-1.407 2.03 2.032-1.38 3.455c0.12 0.257 0.22 0.517 0.31 0.787l3.44 1.435v2.875l-3.44 1.467c-0.09 0.265-0.19 0.528-0.31 0.788l1.41 3.432-2.03 2.034-3.45-1.384c-0.25 0.124-0.52 0.23-0.8 0.333l-1.42 3.421h-2.87l-1.45-3.402c-0.29-0.1-0.57-0.203-0.84-0.333l-3.39 1.396-2.04-2.032 1.37-3.411c-0.13-0.276-0.24-0.563-0.35-0.855l-3.38-1.411v-2.875l3.38-1.445c0.1-0.293 0.21-0.577 0.35-0.853l-1.4-3.389 2.04-2.033 3.41 1.375c0.27-0.133 0.55-0.238 0.83-0.336l1.42-3.405h2.87v-0.005zm-1.43 15.82c2.38 0 4.31-1.93 4.31-4.316 0-2.379-1.93-4.314-4.31-4.314s-4.31 1.932-4.31 4.314c0 2.386 1.93 4.316 4.31 4.316zm1.76-16.31h-3.53l-0.12 0.3-1.34 3.205c-0.16 0.06-0.32 0.122-0.47 0.192l-3.22-1.294-0.31-0.122-0.23 0.23-2.03 2.034-0.23 0.23 0.13 0.306 1.31 3.188c-0.08 0.163-0.14 0.331-0.2 0.499l-3.19 1.361-0.3 0.127v3.53l0.31 0.125 3.18 1.329c0.07 0.165 0.13 0.333 0.2 0.498l-1.29 3.211-0.11 0.303 0.22 0.23 2.03 2.033 0.24 0.233 0.3-0.124 3.19-1.316c0.16 0.067 0.32 0.127 0.48 0.187l1.37 3.205 0.13 0.3h3.53l0.13-0.306 1.33-3.224c0.15-0.056 0.3-0.119 0.45-0.181l3.24 1.302 0.31 0.122 0.23-0.23 2.03-2.036 0.23-0.23-0.12-0.309-1.34-3.235c0.06-0.14 0.12-0.282 0.17-0.425l3.24-1.383 0.3-0.127v-3.533l-0.3-0.128-3.24-1.35c-0.05-0.144-0.11-0.284-0.17-0.428l1.3-3.259 0.13-0.301-2.5-2.492-0.3 0.124-3.23 1.329c-0.14-0.065-0.29-0.124-0.44-0.184l-1.37-3.219-0.13-0.297zm-1.76 15.82c-2.11 0-3.82-1.717-3.82-3.823 0-2.109 1.72-3.823 3.82-3.823s3.82 1.714 3.82 3.823c0 2.106-1.72 3.823-3.82 3.823z"/>
  </g>
 </g>
</svg>
