<?xml version="1.0" encoding="UTF-8" standalone="no"?>
<svg width="26px" height="25px" viewBox="0 0 26 25" version="1.1" xmlns="http://www.w3.org/2000/svg" xmlns:xlink="http://www.w3.org/1999/xlink">
    <!-- Generator: Sketch 3.7.2 (28276) - http://www.bohemiancoding.com/sketch -->
    <title>Imported-Layers</title>
    <desc>Created with Sketch.</desc>
    <defs></defs>
    <g id="Page-1" stroke="none" stroke-width="1" fill="none" fill-rule="evenodd">
        <path d="M14.2394534,0.97225252 L15.6961414,4.38805302 L15.8116486,4.49751537 C16.1256935,4.61192881 16.3696168,4.71110643 16.597446,4.82046411 L16.760029,4.8251415 L20.184145,3.4176571 L19.9667108,3.37412046 L21.9999748,5.40669146 L21.9557538,5.19077533 L20.5697528,8.64538383 L20.574673,8.80557638 C20.6797427,9.02705859 20.771213,9.25550795 20.8867589,9.57510323 L20.9976909,9.69162266 L24.4301239,11.1268271 L24.307277,10.9423077 L24.307277,13.8168746 L24.4287261,13.6329459 L20.9935211,15.1000283 L20.883757,15.2165964 C20.7634949,15.5528039 20.6787595,15.7690648 20.5769063,15.9873218 L20.5732538,16.1481614 L21.9890538,19.5805939 L22.0325216,19.3629099 L19.9992576,21.3961739 L20.2151759,21.3519876 L16.7688839,19.9687582 L16.6074781,19.9742358 C16.3832386,20.0824265 16.1425944,20.1812124 15.8237232,20.2994905 L15.7085289,20.4104047 L14.2899559,23.8317492 L14.474705,23.7083507 L11.600139,23.7083507 L11.7840531,23.8297658 L10.3301371,20.4271324 L10.2124981,20.3170175 C9.85127711,20.1901495 9.62238839,20.1008928 9.39606195,19.99265 L9.23362673,19.9881389 L5.84208173,21.3845353 L6.05962325,21.4280278 L4.02635925,19.3954568 L4.07060267,19.611317 L5.43789267,16.2003676 L5.43167518,16.0375938 C5.31559337,15.8018764 5.21440239,15.5520799 5.08832277,15.2028721 L4.97723046,15.0862161 L1.59608046,13.6752667 L1.719058,13.8598406 L1.719058,10.9852737 L1.59773715,11.1691475 L4.97611515,9.72354814 L5.08616582,9.60586384 C5.19795666,9.28710856 5.30557908,9.02169358 5.42630966,8.77527909 L5.43166946,8.61119623 L4.03735246,5.22172983 L3.99381236,5.43923836 L6.02707636,3.40597436 L5.81090312,3.45005814 L9.22462412,4.82566454 L9.3877126,4.81959364 C9.62080335,4.7048416 9.86970719,4.60611698 10.1980978,4.49318253 L10.317638,4.38105721 L11.73829,0.975651709 L11.553708,1.0986486 L14.423423,1.0986486 L14.623423,1.0986486 L14.623423,0.8986486 L14.623423,0.8937976 L14.423423,0.8937976 L14.2394534,0.97225252 L14.2394534,0.97225252 Z M14.6073926,0.81534268 L14.223423,-0.0850310865 L14.223423,0.8937976 L14.223423,0.8986486 L14.423423,0.8986486 L14.423423,0.6986486 L11.553708,0.6986486 L11.369126,0.821645491 L9.94847398,4.22705099 L10.0680142,4.11492567 C9.72505438,4.23287051 9.46166475,4.33734074 9.2110394,4.46072516 L9.37412788,4.45465426 L5.96040688,3.07904786 L5.74423364,3.12313164 L3.71096964,5.15639564 L3.66742954,5.37390417 L5.06174654,8.76337057 L5.06710634,8.59928771 C4.93867181,8.86142616 4.82533736,9.14092794 4.70870618,9.47348476 L4.81875685,9.35580046 L1.44037885,10.8013999 L1.319058,10.9852737 L1.319058,13.8598406 L1.44203554,14.0444145 L4.82318554,15.4553639 L4.71209323,15.3387079 C4.84277442,15.7006607 4.94894941,15.9627606 5.07282882,16.214312 L5.06661133,16.0515382 L3.69932133,19.4624876 L3.74356475,19.6783478 L5.77682875,21.7109188 L5.99437027,21.7544113 L9.38591527,20.3580149 L9.22348005,20.3535038 C9.46592071,20.4694534 9.70613385,20.5631262 10.0799479,20.6944171 L9.96230887,20.5843022 L11.4162249,23.9869356 L11.600139,24.1083507 L14.474705,24.1083507 L14.6594541,23.9849522 L16.0780271,20.5636077 L15.9628328,20.6745219 C16.2924927,20.5522419 16.5438529,20.4490571 16.7812959,20.334496 L16.6198901,20.3399736 L20.0661821,21.723203 L20.2821004,21.6790167 L22.3153644,19.6457527 L22.3588322,19.4280687 L20.9430322,15.9956362 L20.9393797,16.1564758 C21.04767,15.924425 21.1362754,15.6982869 21.260387,15.3513176 L21.1506229,15.4678857 L24.5858279,14.0008033 L24.707277,13.8168746 L24.707277,10.9423077 L24.5844301,10.7577883 L21.1519971,9.32258394 L21.2629291,9.43910337 C21.143403,9.10849885 21.0476167,8.86927025 20.936069,8.63413262 L20.9409892,8.79432517 L22.3269902,5.33971667 L22.2827692,5.12380054 L20.2495052,3.09122954 L20.032071,3.0476929 L16.607955,4.4551773 L16.770538,4.45985469 C16.5291374,4.34398277 16.2738893,4.24020057 15.9485734,4.12168083 L16.0640806,4.23114318 L14.6073926,0.81534268 L14.6073926,0.81534268 Z M12.988912,16.9136175 C15.4795709,16.9136175 17.498683,14.8929357 17.498683,12.3983021 C17.498683,9.90746005 15.4778202,7.8836798 12.988912,7.8836798 C10.4988431,7.8836798 8.479141,9.90584945 8.479141,12.3983021 C8.47624274,14.8921448 10.496818,16.9136175 12.988912,16.9136175 L12.988912,16.9136175 Z M12.988912,16.5136175 C10.7178492,16.5136175 8.87649948,14.67145 8.87914086,12.3985345 C8.879141,10.1266541 10.7198664,8.2836798 12.988912,8.2836798 C15.2567771,8.2836798 17.098683,10.1282449 17.098683,12.3983021 C17.098683,14.6720914 15.2585874,16.5136175 12.988912,16.5136175 L12.988912,16.5136175 Z M14.748441,0.2038462 L11.221067,0.2038462 L11.0363886,0.327074638 L10.9116486,0.627143938 L9.57494078,3.83205546 L9.759529,3.9090437 L9.68974911,3.72161167 C9.49784462,3.79305663 9.34652109,3.85381771 9.2030016,3.9188199 L9.285516,4.1010049 L9.360104,3.91543381 L6.141116,2.62160151 L5.8384042,2.49968529 L5.62226555,2.54378314 L5.39218955,2.77385944 L3.36160121,4.80721984 L3.12969824,5.03635502 L3.08504066,5.25405359 L3.20978066,5.56035989 L4.52048947,8.74945205 L4.705475,8.6734234 L4.52329517,8.59089759 C4.45535141,8.74088683 4.39222473,8.8994454 4.31748967,9.10265771 L4.505198,9.1716909 L4.42654461,8.98780603 L1.24289861,10.3495524 L0.945243205,10.4762288 L0.823562,10.6602564 L0.823562,14.1904019 L0.947539407,14.3753899 L1.25107341,14.5001301 L4.43298046,15.8288721 L4.510049,15.6443174 L4.32403198,15.7177862 C4.37283509,15.8417004 4.39736006,15.9037332 4.42322007,15.9678822 C4.46161097,16.0631155 4.49576279,16.1447561 4.5301144,16.2226199 L4.713098,16.1418919 L4.52748291,16.0674135 L3.23919391,19.2780857 L3.11945235,19.5829943 L3.16333741,19.7966603 L3.39064241,20.0267365 L5.4219163,22.0600947 L5.65483658,22.2930152 L5.87206707,22.3366695 L6.17490807,22.2126224 L9.37000819,20.8964633 L9.293832,20.7115385 L9.21543451,20.8955326 C9.36011987,20.9571812 9.50394631,21.0129569 9.70370366,21.086372 L9.772696,20.8986486 L9.58879303,20.9772596 L10.958855,24.1823879 L11.0853542,24.4817047 L11.269577,24.6038462 L14.799723,24.6038462 L14.9843012,24.4808583 L15.1118132,24.1752449 L16.4487797,20.9510007 L16.264033,20.8743936 L16.3353043,21.0612636 C16.4746731,21.008109 16.6203899,20.9479069 16.7852203,20.8762414 L16.705475,20.6928274 L16.6310672,20.8784708 L19.8798542,22.1806191 L20.1823858,22.302463 L20.3985244,22.2583652 L20.6286004,22.0282889 L22.6619616,19.9921566 L22.8919414,19.7621767 L22.9359266,19.5457595 L22.8111866,19.2373742 L21.4759414,16.0011614 L21.29106,16.0774428 L21.4752159,16.1554595 C21.5371416,16.0092858 21.5947525,15.8656097 21.6486921,15.7224622 L21.461538,15.6519404 L21.5401127,15.8358589 L24.7778127,14.4526295 L25.0777064,14.326179 L25.2,14.1418919 L25.2,10.6089744 L25.0774609,10.424584 L24.7739269,10.2970718 L21.5385958,8.9462447 L21.461538,9.1308039 L21.6486922,9.06028214 C21.5925956,8.91141025 21.5344513,8.76780083 21.471702,8.62347732 L21.288288,8.7032225 L21.4739588,8.77756193 L22.7788798,5.51837963 L22.9005168,5.21843868 L22.8565787,5.00183688 L20.3631617,2.50911338 L20.1465409,2.46523822 L19.8409279,2.58928532 L16.6153951,3.9188701 L16.691615,4.1037769 L16.7726003,3.92090707 C16.6358784,3.8603587 16.4934481,3.80161261 16.3211982,3.73397107 L16.248094,3.9201317 L16.432062,3.84167302 L15.059228,0.62268482 L14.9324029,0.325373041 L14.748441,0.2038462 L14.748441,0.2038462 Z M14.748441,0.6038462 L14.5644791,0.482319359 L14.6912981,0.779616659 L16.064126,3.99859038 L16.1749898,4.10629233 C16.3423412,4.17201023 16.4797344,4.22867872 16.6106297,4.28664673 L16.7678349,4.2886837 L19.9923669,2.9595083 L20.2969791,2.83587058 L20.0803583,2.79199542 L22.5737753,5.28471892 L22.5298372,5.06811712 L22.4078692,5.36887942 L21.1026172,8.62888307 L21.104874,8.78296768 C21.164948,8.92113804 21.2206025,9.05859814 21.2743838,9.20132566 L21.3844802,9.3153631 L24.6194082,10.6660214 L24.9225391,10.7933648 L24.8,10.6089744 L24.8,14.1418919 L24.9222936,13.9576048 L24.6215316,14.0844239 L21.3829633,15.4680219 L21.2743839,15.5814186 C21.2223815,15.7194248 21.1667707,15.858113 21.1069041,15.9994261 L21.1061786,16.1537242 L22.4408986,19.3886515 L22.5651134,19.6957513 L22.6090986,19.4793341 L22.3790226,19.7094103 L20.3456614,21.7455426 L20.1156816,21.9755226 L20.3318202,21.9314248 L20.0289792,21.8094566 L16.7798828,20.507184 L16.6257297,20.5094134 C16.4660772,20.5788276 16.3257698,20.6367949 16.1927617,20.6875236 L16.0792863,20.7977865 L14.7424883,24.0216257 L14.6151448,24.3268341 L14.799723,24.2038462 L11.269577,24.2038462 L11.4537998,24.3259877 L11.3269808,24.0259184 L9.95659897,20.8200376 L9.84168834,20.7109252 C9.64771979,20.6396377 9.50956923,20.5860631 9.37222949,20.5275444 L9.21765581,20.5266137 L6.02292281,21.842622 L5.72044893,21.9665183 L5.93767942,22.0101726 L5.70483142,21.7773244 L3.6744117,19.7448256 L3.44788859,19.5155365 L3.49177365,19.7292025 L3.61096965,19.4256682 L4.89871309,16.2163703 L4.8960816,16.0611639 C4.86366503,15.9876863 4.83110951,15.9098617 4.79420968,15.8183271 C4.76893456,15.7556291 4.74497591,15.6950287 4.69606602,15.5708486 L4.58711754,15.4597627 L1.40416454,14.1305874 L1.09958459,14.0054139 L1.223562,14.1904019 L1.223562,10.6602564 L1.10188079,10.844284 L1.39987079,10.7174649 L4.58385139,9.35557577 L4.69290633,9.24072409 C4.7645715,9.04585915 4.8243914,8.8956064 4.88765483,8.75594921 L4.89046053,8.59739475 L3.57999553,5.40889855 L3.45549934,5.10318821 L3.41084176,5.32088678 L3.64369076,5.09081058 L5.67512879,3.05660556 L5.90510845,2.82662566 L5.6889698,2.87072351 L5.9918108,2.99269171 L9.210928,4.28657599 L9.3680304,4.2831899 C9.50186111,4.2225759 9.64528442,4.16498701 9.82930889,4.09647573 L9.94411722,3.98603194 L11.2809152,0.780903736 L11.4057454,0.480617762 L11.221067,0.6038462 L14.748441,0.6038462 L14.748441,0.6038462 Z M12.988912,16.023666 C10.9944836,16.023666 9.371864,14.3977919 9.371864,12.4010742 C9.371864,10.4035441 10.9952987,8.7784823 12.988912,8.7784823 C14.9847475,8.7784823 16.608039,10.4029937 16.608039,12.4010742 C16.608039,14.3973618 14.9837693,16.023666 12.988912,16.023666 L12.988912,16.023666 Z M12.988912,16.423666 C15.2047954,16.423666 17.008039,14.6181637 17.008039,12.4010742 C17.008039,10.182147 15.2057287,8.3784823 12.988912,8.3784823 C10.774295,8.3784823 8.971864,10.1827199 8.971864,12.4010742 C8.971864,14.6185266 10.7733901,16.423666 12.988912,16.423666 L12.988912,16.423666 Z" id="Imported-Layers" fill="#FFFFFF"></path>
    </g>
</svg>