<?xml version="1.0" encoding="UTF-8" standalone="no"?>
<svg width="21px" height="25px" viewBox="0 0 21 25" version="1.1" xmlns="http://www.w3.org/2000/svg" xmlns:xlink="http://www.w3.org/1999/xlink" xmlns:sketch="http://www.bohemiancoding.com/sketch/ns">
    <!-- Generator: Sketch 3.3.2 (12043) - http://www.bohemiancoding.com/sketch -->
    <title>Imported Layers Copy 4</title>
    <desc>Created with Sketch.</desc>
    <defs></defs>
    <g id="Page-1" stroke="none" stroke-width="1" fill="none" fill-rule="evenodd" sketch:type="MSPage">
        <g id="iPhone-6" sketch:type="MSArtboardGroup" transform="translate(-328.000000, -634.000000)" stroke="#979797">
            <g id="Imported-Layers-Copy-4" sketch:type="MSLayerGroup" transform="translate(329.000000, 635.000000)">
                <path d="M16.5697674,3 L18.1162791,3 C18.604093,3 19,3.18 19,3.68181818 L19,21.8636364 C19,22.3654545 18.604093,23 18.1162791,23 L0.88372093,23 C0.395906977,23 0,22.3654545 0,21.8636364 L0,3.68181818 C0,3.18 0.395906977,3 0.88372093,3 L7.06976744,3 C7.06976744,3 7.29069767,4.81818182 9.27906977,4.81818182 C11.2674419,4.81818182 11.4883721,3 11.4883721,3 L16.5697674,3 Z" id="Stroke-1" sketch:type="MSShapeGroup"></path>
                <path d="M0,2.93861559 L0.678571429,0.857422725 C0.678571429,0.316064432 1.08390476,0 1.58333333,0 L17.4166667,0 C17.9160952,0 18.3214286,0.316064432 18.3214286,0.857422725 L19,3" id="Stroke-2" sketch:type="MSShapeGroup"></path>
                <path d="M10,8 L10,16" id="Stroke-3" stroke-linecap="round" sketch:type="MSShapeGroup"></path>
                <path d="M12,14.0811559 L10.0417255,16 L8,14" id="Stroke-4" stroke-linecap="round" sketch:type="MSShapeGroup"></path>
            </g>
        </g>
    </g>
</svg>