<?xml version="1.0" encoding="UTF-8" standalone="no"?>
<svg width="19px" height="27px" viewBox="0 0 19 27" version="1.1" xmlns="http://www.w3.org/2000/svg" xmlns:xlink="http://www.w3.org/1999/xlink" xmlns:sketch="http://www.bohemiancoding.com/sketch/ns">
    <!-- Generator: Sketch 3.3.2 (12043) - http://www.bohemiancoding.com/sketch -->
    <title>Shape</title>
    <desc>Created with Sketch.</desc>
    <defs></defs>
    <g id="Page-1" stroke="none" stroke-width="1" fill="none" fill-rule="evenodd" sketch:type="MSPage">
        <g id="iPhone-6" sketch:type="MSArtboardGroup" transform="translate(-253.000000, -633.000000)" stroke="#3CAAEE">
            <g id="menu-places" sketch:type="MSLayerGroup" transform="translate(254.000000, 634.000000)">
                <path d="M8.07484096,12.1125 C5.89798291,12.1125 4.1304486,10.33125 4.1304486,8.1375 C4.1304486,5.94375 5.89798291,4.1625 8.07484096,4.1625 C10.251699,4.1625 12.0192333,5.94375 12.0192333,8.1375 C12.0192333,10.33125 10.251699,12.1125 8.07484096,12.1125 L8.07484096,12.1125 Z M8.07484096,0 C3.62809675,0 0,3.6375 0,8.1375 L0,8.4375 C0.0372112487,9.3 0.186056243,10.10625 0.465140608,10.875 C2.19546367,16.55625 8.07484096,24 8.07484096,24 C8.07484096,24 13.9542183,16.55625 15.6659357,10.85625 C15.9450201,10.0875 16.0938651,9.2625 16.1310763,8.41875 L16.1310763,8.11875 C16.1496819,3.6375 12.5215852,0 8.07484096,0 L8.07484096,0 Z" id="Shape" sketch:type="MSShapeGroup"></path>
            </g>
        </g>
    </g>
</svg>