<?xml version="1.0" encoding="UTF-8" standalone="no"?>
<svg width="123px" height="125px" viewBox="0 0 123 125" version="1.1" xmlns="http://www.w3.org/2000/svg" xmlns:xlink="http://www.w3.org/1999/xlink" xmlns:sketch="http://www.bohemiancoding.com/sketch/ns">
    <!-- Generator: Sketch 3.3.2 (12043) - http://www.bohemiancoding.com/sketch -->
    <title>Imported Layers</title>
    <desc>Created with Sketch.</desc>
    <defs></defs>
    <g id="Page-1" stroke="none" stroke-width="1" fill="none" fill-rule="evenodd" sketch:type="MSPage">
        <g id="Imported-Layers" sketch:type="MSLayerGroup" transform="translate(1.000000, 1.468750)" stroke="#979797" stroke-width="3" fill="#979797">
            <path d="M104.557778,107.62 C104.557778,114.086667 99.3066667,119.346667 92.8377778,119.346667 L14.1222222,119.346667 C7.65555556,119.346667 2.39555556,114.086667 2.39555556,107.62 L2.39555556,28.9044444 C2.39555556,22.4466667 7.65555556,17.1866667 14.1222222,17.1866667 L69.1755556,17.1866667 L69.1755556,15.3377778 L14.1222222,15.3377778 C6.64,15.3377778 0.546666667,21.4222222 0.546666667,28.9044444 L0.546666667,107.62 C0.546666667,115.111111 6.64,121.204444 14.1222222,121.204444 L92.8466667,121.204444 C100.328889,121.204444 106.415556,115.111111 106.415556,107.62 L106.415556,53.6866667 L104.566667,53.6866667 L104.566667,107.62 L104.557778,107.62 Z" id="Fill-1" sketch:type="MSShapeGroup"></path>
            <path d="M117.04,2.62888889 C115.504444,1.25777778 113.524444,0.511111111 111.475556,0.511111111 C109.088889,0.511111111 106.813333,1.52666667 105.233333,3.30666667 L48.62,66.7177778 C45.7377778,69.9466667 45.1466667,72.0466667 42.3177778,85.1555556 L41.9711111,86.7688889 L43.5244444,86.2311111 C45.0266667,85.7111111 58.2888889,81.0311111 61.1111111,77.88 L117.708889,14.46 C120.788889,11.0044444 120.486667,5.70222222 117.04,2.62888889 L117.04,2.62888889 Z M116.337778,13.2177778 L59.7311111,76.64 C57.8555556,78.74 49.1755556,82.2022222 44.48,83.9133333 C46.9533333,72.5066667 47.5266667,70.7266667 50,67.9488889 L106.597778,4.52888889 C107.828889,3.14888889 109.6,2.35111111 111.457778,2.35111111 C113.055556,2.35111111 114.6,2.94 115.788889,4.00888889 C118.488889,6.40444444 118.724444,10.5355556 116.337778,13.2177778 L116.337778,13.2177778 Z" id="Fill-2" sketch:type="MSShapeGroup"></path>
        </g>
    </g>
</svg>