<?xml version="1.0" encoding="UTF-8" standalone="no"?>
<svg width="45px" height="53px" viewBox="0 0 45 53" version="1.1" xmlns="http://www.w3.org/2000/svg" xmlns:xlink="http://www.w3.org/1999/xlink" xmlns:sketch="http://www.bohemiancoding.com/sketch/ns">
    <!-- Generator: Sketch 3.3.2 (12043) - http://www.bohemiancoding.com/sketch -->
    <title>Imported Layers</title>
    <desc>Created with Sketch.</desc>
    <defs></defs>
    <g id="Page-1" stroke="none" stroke-width="1" fill="none" fill-rule="evenodd" sketch:type="MSPage">
        <g id="Imported-Layers" sketch:type="MSLayerGroup" transform="translate(1.500000, 2.000000)" stroke="#979797" stroke-width="2.25">
            <path d="M36.627907,6 L40.0465116,6 C41.1248372,6 42,6.387 42,7.46590909 L42,46.5568182 C42,47.6357273 41.1248372,49 40.0465116,49 L1.95348837,49 C0.875162791,49 0,47.6357273 0,46.5568182 L0,7.46590909 C0,6.387 0.875162791,6 1.95348837,6 L15.627907,6 C15.627907,6 16.1162791,9.90909091 20.5116279,9.90909091 C24.9069767,9.90909091 25.3953488,6 25.3953488,6 L36.627907,6 Z" id="Stroke-1" sketch:type="MSShapeGroup"></path>
            <path d="M1,5.87723117 L2.46428571,1.71484545 C2.46428571,0.632128864 3.33895238,0 4.41666667,0 L38.5833333,0 C39.6610476,0 40.5357143,0.632128864 40.5357143,1.71484545 L42,6" id="Stroke-2" sketch:type="MSShapeGroup"></path>
            <path d="M21,17 L21,34" id="Stroke-3" stroke-linecap="round" sketch:type="MSShapeGroup"></path>
            <path d="M25,30.1623117 L21.083451,34 L17,30" id="Stroke-4" stroke-linecap="round" sketch:type="MSShapeGroup"></path>
        </g>
    </g>
</svg>