<?xml version="1.0" encoding="UTF-8" standalone="no"?>
<svg width="67px" height="30px" viewBox="0 0 67 30" version="1.1" xmlns="http://www.w3.org/2000/svg" xmlns:xlink="http://www.w3.org/1999/xlink" xmlns:sketch="http://www.bohemiancoding.com/sketch/ns">
    <!-- Generator: Sketch 3.3.3 (12081) - http://www.bohemiancoding.com/sketch -->
    <title>Imported Layers + Crop</title>
    <desc>Created with Sketch.</desc>
    <defs></defs>
    <g id="Page-1" stroke="none" stroke-width="1" fill="none" fill-rule="evenodd" sketch:type="MSPage">
        <g id="iPhone-6" sketch:type="MSArtboardGroup" transform="translate(-41.000000, -106.000000)" fill="#FFFFFF">
            <g id="Imported-Layers-+-Crop" sketch:type="MSLayerGroup" transform="translate(41.000000, 106.000000)">
                <g id="Imported-Layers" sketch:type="MSShapeGroup">
                    <path d="M28.9703196,23.4910529 L7.73794191,23.4910529 C7.35965334,23.4910529 7.05325275,23.1828989 7.05325275,22.8063637 L7.05325275,1.57398604 C7.05325275,1.19745083 7.35965334,0.889296875 7.73794191,0.889296875 C8.11666883,0.889296875 8.42306942,1.19745083 8.42306942,1.57398604 L8.42306942,22.1212362 L28.9703196,22.1212362 C29.3468548,22.1212362 29.6550087,22.4293901 29.6550087,22.8063637 C29.6550087,23.1828989 29.3468548,23.4910529 28.9703196,23.4910529 L28.9703196,23.4910529 Z" id="Fill-1"></path>
                    <path d="M22.8063637,29.6550087 C22.4293901,29.6550087 22.1212362,29.3468548 22.1212362,28.9703196 L22.1212362,8.42306942 L1.57398604,8.42306942 C1.19569747,8.42306942 0.889296875,8.11491546 0.889296875,7.73794191 C0.889296875,7.36140671 1.19569747,7.05325275 1.57398604,7.05325275 L22.8063637,7.05325275 C23.1828989,7.05325275 23.4910529,7.36140671 23.4910529,7.73794191 L23.4910529,28.9703196 C23.4910529,29.3468548 23.1828989,29.6550087 22.8063637,29.6550087 L22.8063637,29.6550087 Z" id="Fill-2"></path>
                </g>
                <text id="Crop" sketch:type="MSTextLayer" font-family="Open Sans" font-size="14" font-weight="normal">
                    <tspan x="36" y="21">Crop</tspan>
                </text>
            </g>
        </g>
    </g>
</svg>