<?xml version="1.0" encoding="UTF-8" standalone="no"?>
<svg width="6px" height="10px" viewBox="0 0 6 10" version="1.1" xmlns="http://www.w3.org/2000/svg" xmlns:xlink="http://www.w3.org/1999/xlink" xmlns:sketch="http://www.bohemiancoding.com/sketch/ns">
    <!-- Generator: Sketch 3.3.2 (12043) - http://www.bohemiancoding.com/sketch -->
    <title>Imported Layers</title>
    <desc>Created with Sketch.</desc>
    <defs></defs>
    <g id="Page-1" stroke="none" stroke-width="1" fill="none" fill-rule="evenodd" sketch:type="MSPage">
        <g id="iPhone-6" sketch:type="MSArtboardGroup" transform="translate(-18.000000, -184.000000)" fill="#979797">
            <g id="Group" sketch:type="MSLayerGroup" transform="translate(0.000000, 131.000000)">
                <g id="Imported-Layers-+-Secret" transform="translate(18.000000, 49.000000)" sketch:type="MSShapeGroup">
                    <g id="Imported-Layers" transform="translate(0.000000, 4.000000)">
                        <path d="M3,5.07515789 C1.78568421,5.07515789 0.789473684,4.07894737 0.789473684,2.86463158 C0.789473684,1.64957895 1.78568421,0.654105263 3,0.654105263 C4.21431579,0.654105263 5.21052632,1.64957895 5.21052632,2.86463158 C5.21052632,4.07894737 4.21431579,5.07515789 3,5.07515789 L3,5.07515789 Z M3,1.75936842 C2.39284211,1.75936842 1.89473684,2.25673684 1.89473684,2.86463158 C1.89473684,3.47178947 2.39284211,3.96989474 3,3.96989474 C3.60715789,3.96989474 4.10526316,3.47178947 4.10526316,2.86463158 C4.10526316,2.25673684 3.60715789,1.75936842 3,1.75936842 L3,1.75936842 Z" id="Fill-2"></path>
                        <path d="M2.44736842,6.28947368 L3.55263158,6.28947368 L3.55263158,9.60526316 L2.44736842,9.60526316 L2.44736842,6.28947368 Z" id="Fill-4"></path>
                    </g>
                </g>
            </g>
        </g>
    </g>
</svg>