<?xml version="1.0" encoding="UTF-8" standalone="no"?>
<svg width="14px" height="12px" viewBox="0 0 14 12" version="1.1" xmlns="http://www.w3.org/2000/svg" xmlns:xlink="http://www.w3.org/1999/xlink" xmlns:sketch="http://www.bohemiancoding.com/sketch/ns">
    <!-- Generator: Sketch 3.3.2 (12043) - http://www.bohemiancoding.com/sketch -->
    <title>Imported Layers</title>
    <desc>Created with Sketch.</desc>
    <defs></defs>
    <g id="Page-1" stroke="none" stroke-width="1" fill="none" fill-rule="evenodd" sketch:type="MSPage">
        <g id="iPhone-6" sketch:type="MSArtboardGroup" transform="translate(-16.000000, -254.000000)" fill="#979797">
            <g id="Group" sketch:type="MSLayerGroup" transform="translate(0.000000, 202.000000)">
                <g id="public" transform="translate(16.000000, 49.000000)" sketch:type="MSShapeGroup">
                    <g id="Imported-Layers" transform="translate(0.000000, 3.000000)">
                        <path d="M2.30263158,9.562 C-0.129684211,7.12968421 -0.293263158,3.20673684 1.91726316,0.552631579 C2.08378947,0.330842105 2.36010526,0.221789474 2.63642105,0.221789474 C2.91273684,0.221789474 3.18905263,0.330842105 3.41084211,0.498105263 L4.29431579,1.38157895 C4.68042105,1.76694737 4.68042105,2.31957895 4.40410526,2.70863158 C3.35336842,4.03568421 3.40789474,5.91463158 4.62515789,7.12968421 L3.85147368,7.90410526 C2.24810526,6.30073684 2.13831579,3.81389474 3.46536842,2.04621053 L2.69094737,1.27252632 C0.924,3.42778947 1.08831579,6.68905263 3.07705263,8.67778947 L2.30263158,9.562 Z" id="Fill-1"></path>
                        <path d="M7,7.07515789 C5.78568421,7.07515789 4.78947368,6.07894737 4.78947368,4.86463158 C4.78947368,3.64957895 5.78568421,2.65410526 7,2.65410526 C8.21431579,2.65410526 9.21052632,3.64957895 9.21052632,4.86463158 C9.21052632,6.07894737 8.21431579,7.07515789 7,7.07515789 L7,7.07515789 Z M7,3.75936842 C6.39284211,3.75936842 5.89473684,4.25673684 5.89473684,4.86463158 C5.89473684,5.47178947 6.39284211,5.96989474 7,5.96989474 C7.60715789,5.96989474 8.10526316,5.47178947 8.10526316,4.86463158 C8.10526316,4.25673684 7.60715789,3.75936842 7,3.75936842 L7,3.75936842 Z" id="Fill-2"></path>
                        <path d="M11.312,9.50378947 C11.0356842,9.50378947 10.7593684,9.39473684 10.5921053,9.22747368 L9.70863158,8.344 C9.32252632,7.95863158 9.32252632,7.406 9.59884211,7.01694737 C10.6495789,5.69063158 10.5950526,3.81094737 9.37778947,2.59589474 L10.1514737,1.82221053 C11.7548421,3.42484211 11.8646316,5.91168421 10.5375789,7.67936842 L11.312,8.45378947 C13.0789474,6.29778947 12.9146316,3.03652632 10.9258947,1.04778947 L11.7003158,0.273368421 C14.1326316,2.70568421 14.2962105,6.62863158 12.0856842,9.28273684 C11.8646316,9.39473684 11.6428421,9.50378947 11.312,9.50378947 L11.312,9.50378947 L11.312,9.50378947 Z" id="Fill-3"></path>
                        <path d="M6.44736842,8.28947368 L7.55263158,8.28947368 L7.55263158,11.6052632 L6.44736842,11.6052632 L6.44736842,8.28947368 Z" id="Fill-4"></path>
                    </g>
                </g>
            </g>
        </g>
    </g>
</svg>