<?xml version="1.0" encoding="UTF-8" standalone="no"?>
<svg width="25px" height="18px" viewBox="0 0 25 18" version="1.1" xmlns="http://www.w3.org/2000/svg" xmlns:xlink="http://www.w3.org/1999/xlink" xmlns:sketch="http://www.bohemiancoding.com/sketch/ns">
    <!-- Generator: Sketch 3.3.2 (12043) - http://www.bohemiancoding.com/sketch -->
    <title>Imported Layers + Oval 144</title>
    <desc>Created with Sketch.</desc>
    <defs></defs>
    <g id="Page-1" stroke="none" stroke-width="1" fill="none" fill-rule="evenodd" sketch:type="MSPage">
        <g id="iPhone-6" sketch:type="MSArtboardGroup" transform="translate(-329.000000, -376.000000)" fill="#FADDB0">
            <g id="Imported-Layers-+-Oval-144" sketch:type="MSLayerGroup" transform="translate(329.000000, 376.000000)">
                <path d="M13.2028998,5.82002163 L16.0459573,2.89570703 C14.8973374,2.41308919 13.7512199,2.14411018 12.5,2.14411018 C8.12073021,2.14411018 4.26196792,5.73607388 2.33383799,7.93552424 C1.96973299,8.31003568 1.96973299,8.90075991 2.33383799,9.27527135 C3.27225295,10.2958472 4.67987538,11.6883605 6.34900278,12.869809 L9.31683897,9.81714946 C9.20639181,9.49266845 9.14634146,9.14383164 9.14634146,8.78056845 C9.14634146,7.04864915 10.511327,5.64465115 12.195122,5.64465115 C12.5482912,5.64465115 12.887435,5.70641778 13.2028998,5.82002163 Z M10.6272123,11.470564 L8.22583269,13.9405771 C9.57965266,14.5840676 10.9872751,15.0139192 12.5,15.0139192 C16.8792698,15.0139192 20.7380321,11.4219555 22.666162,9.27527135 C23.030267,8.8479937 23.030267,8.31003568 22.666162,7.93552424 C21.5713446,6.75664973 19.9560196,5.1479236 17.9740872,3.91370892 L14.8103713,7.16784659 C15.0856221,7.63906864 15.2439024,8.19080608 15.2439024,8.78056845 C15.2439024,10.5124878 13.8789169,11.9164858 12.195122,11.9164858 C11.6217471,11.9164858 11.0853407,11.7536817 10.6272123,11.470564 Z M24.1788869,6.43490451 C22.040552,4.02181532 17.6612823,0 12.5,0 C7.33871775,0 2.95944796,4.02181532 0.821113085,6.43490451 C-0.273704362,7.66911919 -0.273704362,9.49148415 0.821113085,10.6703587 C2.95944796,13.0834478 7.33871775,17.1052632 12.5,17.1052632 C17.6612823,17.1052632 22.040552,13.0834478 24.1788869,10.6703587 C25.2737044,9.49148415 25.2737044,7.66654523 24.1788869,6.43490451 Z" id="Imported-Layers" sketch:type="MSShapeGroup"></path>
            </g>
        </g>
    </g>
</svg>