<?xml version="1.0" encoding="UTF-8" standalone="no"?>
<svg width="75px" height="73px" viewBox="0 0 75 73" version="1.1" xmlns="http://www.w3.org/2000/svg" xmlns:xlink="http://www.w3.org/1999/xlink" xmlns:sketch="http://www.bohemiancoding.com/sketch/ns">
    <!-- Generator: Sketch 3.4.3 (16044) - http://www.bohemiancoding.com/sketch -->
    <title>Page 1</title>
    <desc>Created with Sketch.</desc>
    <defs></defs>
    <g id="Page-1" stroke="none" stroke-width="1" fill="none" fill-rule="evenodd" sketch:type="MSPage">
        <g sketch:type="MSLayerGroup" id="Fill-1" fill="#FFFFFF">
            <path d="M61.621,43.457 C61.652,43.434 61.672,43.402 61.699,43.379 C68.59,42.145 75,30.098 75,22.938 C75,14.824 68.402,8.227 60.289,8.227 C58.543,8.227 56.84,8.551 55.203,9.16 C50.867,3.836 44.551,0.773 37.664,0.773 C30.535,0.773 24.172,4.086 20.008,9.242 C18.309,8.582 16.535,8.227 14.711,8.227 C6.602,8.227 0,14.824 0,22.938 C0,29.824 5.938,41.223 12.52,43.18 C12.074,43.77 11.688,44.457 11.527,45.223 C11.32,46.23 11.52,47.227 12.102,48.102 C12.781,49.121 13.637,49.859 14.391,50.512 C15.883,51.801 15.828,51.887 15.461,52.438 C15.035,53.074 15.207,53.941 15.848,54.367 C16.086,54.527 16.352,54.602 16.617,54.602 C17.066,54.602 17.508,54.387 17.777,53.98 C19.562,51.301 17.547,49.559 16.211,48.402 C15.559,47.84 14.887,47.258 14.418,46.555 C14.246,46.297 14.195,46.066 14.254,45.785 C14.453,44.809 15.781,43.746 16.227,43.453 C16.324,43.387 16.391,43.297 16.465,43.215 C17.734,42.875 19.016,42.227 20.266,41.285 C24.02,48.051 29.426,53.801 35.371,55.191 C34.387,56.25 33.426,57.613 33.102,59.18 C32.809,60.602 33.09,62.012 33.918,63.258 C35.133,65.082 36.773,66.18 38.086,67.059 C40.301,68.547 40.379,68.715 39.48,70.059 C39.055,70.699 39.227,71.562 39.867,71.988 C40.105,72.145 40.371,72.223 40.641,72.223 C41.09,72.223 41.531,72.008 41.797,71.602 C44.285,67.867 41.598,66.062 39.637,64.75 C38.469,63.965 37.145,63.078 36.234,61.715 C35.812,61.078 35.684,60.457 35.824,59.75 C36.199,57.93 38.293,56.141 39.285,55.445 C45.414,54.668 51.156,48.062 54.887,41.41 C55.91,42.16 56.953,42.719 57.988,43.066 C57.508,43.68 57.086,44.41 56.914,45.227 C56.707,46.234 56.906,47.23 57.492,48.105 C58.172,49.125 59.027,49.863 59.781,50.516 C61.273,51.805 61.215,51.891 60.848,52.441 C60.422,53.078 60.594,53.945 61.234,54.371 C61.473,54.531 61.738,54.605 62.004,54.605 C62.457,54.605 62.895,54.391 63.164,53.984 C64.949,51.305 62.934,49.562 61.598,48.406 C60.945,47.844 60.273,47.262 59.805,46.559 C59.633,46.301 59.582,46.07 59.637,45.789 C59.848,44.812 61.172,43.75 61.621,43.457 Z M25.852,10.023 C22.086,13.789 20.012,18.789 20.012,24.098 C20.012,24.867 20.633,25.488 21.402,25.488 C22.172,25.488 22.793,24.867 22.793,24.098 C22.793,19.527 24.578,15.23 27.816,11.988 C28.09,11.715 28.223,11.359 28.223,11.004 C28.223,10.648 28.086,10.293 27.816,10.02 C27.277,9.48 26.395,9.48 25.852,10.023 Z M67.059,23.531 C67.059,24.301 67.68,24.922 68.449,24.922 C69.219,24.922 69.84,24.301 69.84,23.531 C69.84,20.07 68.488,16.816 66.035,14.363 C65.488,13.82 64.609,13.82 64.066,14.363 C63.523,14.906 63.523,15.785 64.066,16.332 C66,18.258 67.059,20.812 67.059,23.531 Z M8.961,14.359 C6.508,16.812 5.16,20.07 5.16,23.531 C5.16,24.301 5.781,24.922 6.551,24.922 C7.32,24.922 7.941,24.301 7.941,23.531 C7.941,20.816 9.004,18.258 10.93,16.328 C11.473,15.785 11.473,14.902 10.93,14.359 C10.387,13.816 9.504,13.816 8.961,14.359 Z M14.438,40.719 C9.293,40.719 2.781,29.691 2.781,22.938 C2.781,16.359 8.133,11.008 14.711,11.008 C15.855,11.008 16.984,11.172 18.074,11.496 C15.82,15.098 14.637,19.203 14.637,23.469 C14.637,27.91 16.145,33.488 18.801,38.918 C17.305,40.102 15.812,40.719 14.438,40.719 L14.438,40.719 Z M38.098,52.75 C27.805,52.75 17.75,34.227 17.75,23.473 C17.75,12.492 26.684,3.559 37.664,3.559 C44.02,3.559 49.852,6.508 53.656,11.648 C56.223,15.109 57.574,19.199 57.574,23.473 C57.574,24.543 57.477,25.691 57.285,26.895 C56.707,30.504 55.301,34.617 53.227,38.633 C48.871,47.074 42.793,52.75 38.098,52.75 L38.098,52.75 Z M56.48,38.309 C56.637,37.977 56.789,37.648 56.938,37.32 C57.102,36.945 57.262,36.574 57.418,36.203 C57.555,35.875 57.691,35.547 57.816,35.219 C57.965,34.844 58.098,34.469 58.234,34.094 C58.348,33.773 58.465,33.453 58.574,33.133 C58.703,32.754 58.812,32.375 58.93,32 C59.023,31.691 59.121,31.383 59.203,31.074 C59.309,30.691 59.398,30.312 59.492,29.934 C59.562,29.645 59.641,29.352 59.703,29.062 C59.789,28.672 59.855,28.289 59.926,27.902 C59.973,27.641 60.027,27.371 60.066,27.113 C60.133,26.691 60.172,26.285 60.215,25.879 C60.234,25.668 60.27,25.453 60.289,25.246 C60.34,24.641 60.363,24.047 60.363,23.473 C60.363,22.898 60.34,22.328 60.297,21.762 C60.285,21.578 60.258,21.395 60.242,21.215 C60.203,20.832 60.16,20.449 60.105,20.07 C60.074,19.855 60.031,19.645 59.992,19.43 C59.93,19.086 59.863,18.742 59.785,18.398 C59.734,18.176 59.68,17.957 59.621,17.738 C59.535,17.406 59.438,17.078 59.336,16.75 C59.27,16.535 59.199,16.32 59.125,16.105 C59.012,15.773 58.887,15.449 58.758,15.125 C58.676,14.922 58.598,14.723 58.512,14.523 C58.359,14.176 58.195,13.832 58.027,13.492 C57.945,13.324 57.867,13.152 57.781,12.984 C57.535,12.512 57.266,12.043 56.98,11.586 C56.965,11.559 56.949,11.527 56.93,11.5 C58.023,11.176 59.148,11.012 60.293,11.012 C66.871,11.012 72.223,16.363 72.223,22.941 C72.223,29.699 65.711,40.723 60.566,40.723 C59.191,40.723 57.699,40.105 56.203,38.922 C56.297,38.715 56.383,38.512 56.48,38.309 L56.48,38.309 Z" sketch:type="MSShapeGroup"></path>
        </g>
    </g>
</svg>