<?xml version="1.0" encoding="UTF-8" standalone="no"?>
<svg width="39px" height="39px" viewBox="0 0 39 39" version="1.1" xmlns="http://www.w3.org/2000/svg" xmlns:xlink="http://www.w3.org/1999/xlink">
    <!-- Generator: Sketch 3.6.1 (26313) - http://www.bohemiancoding.com/sketch -->
    <title>Group 4</title>
    <desc>Created with Sketch.</desc>
    <defs></defs>
    <g id="Page-1" stroke="none" stroke-width="1" fill="none" fill-rule="evenodd">
        <g id="iPhone-6-Copy-10" transform="translate(-175.000000, -156.000000)">
            <g id="gram-panel" transform="translate(159.000000, 0.000000)">
                <g id="Group-4" transform="translate(16.000000, 156.000000)">
                    <circle id="Oval-560-Copy-2" fill="#FFFFFF" cx="19.5" cy="19.5" r="19.5"></circle>
                    <g id="1f4ab" transform="translate(8.000000, 8.000000)">
                        <g id="Group">
                            <path d="M19.24,4.19540984 C19.8032787,2.47868852 19.6422951,-0.683278689 13.802623,3.15245902 C7.85180328,7.06032787 1.71737705,16.175082 2.16819672,17.8222951 C2.52557377,19.1272131 7.83180328,16.1665574 10.6960656,12.1859016 C10.9403279,11.8465574 13.5360656,15.06 13.1806557,15.4127869 C10.6118033,17.9655738 2.37967213,21.212459 0.656065574,19.5416393 C-1.34590164,17.5983607 6.12360656,6.4947541 13.7904918,2.07606557 C15.9167213,0.850819672 22.1491803,-2.04918033 19.2396721,4.19442623" id="Shape" fill="#FFDD7D"></path>
                            <path d="M19.5442623,15.8983607 L14.9895082,15.395082 L12,18.8652459 L11.0642623,14.3718033 L6.84327869,12.5921311 L10.8137705,10.3216393 L11.1977049,5.75016393 L14.5895082,8.83540984 L19.0481967,7.79278689 L17.1685246,11.9718033 L19.5432787,15.8983607" id="Shape" fill="#FFD05A"></path>
                        </g>
                    </g>
                </g>
            </g>
        </g>
    </g>
</svg>