<?xml version="1.0" encoding="UTF-8" standalone="no"?>
<svg width="59px" height="59px" viewBox="0 0 59 59" version="1.1" xmlns="http://www.w3.org/2000/svg" xmlns:xlink="http://www.w3.org/1999/xlink" xmlns:sketch="http://www.bohemiancoding.com/sketch/ns">
    <!-- Generator: Sketch 3.4.4 (17249) - http://www.bohemiancoding.com/sketch -->
    <title>Shape</title>
    <desc>Created with Sketch.</desc>
    <defs></defs>
    <g id="Page-1" stroke="none" stroke-width="1" fill="none" fill-rule="evenodd" sketch:type="MSPage">
        <path d="M25.6608335,47.9998262 L25.6608335,30.2472217 L0,33.926 L0,31.113 L2.453,27.336 L25.6608335,19.8780621 L25.6608335,5.586 L25.6724602,5.586 C25.6721538,5.55738601 25.672,5.52871881 25.672,5.5 C25.672,2.465 27.394,0 29.515,0 C31.637,0 33.359,2.465 33.359,5.5 C33.359,5.52871881 33.3588462,5.55738601 33.3585398,5.586 L33.3691665,5.586 L33.3691665,19.9128669 L56.465,27.336 L58.918,31.113 L58.918,33.926 L33.3691665,30.2627447 L33.3691665,47.9971405 L40.219,52.172 L40.219,58.383 L29.5170361,55.2046949 L18.816,58.383 L18.816,52.172 L25.6608335,47.9998262 Z" id="Shape" fill="#979797" sketch:type="MSShapeGroup"></path>
    </g>
</svg>