<?xml version="1.0" encoding="UTF-8" standalone="no"?>
<svg width="18px" height="18px" viewBox="0 0 18 18" version="1.1" xmlns="http://www.w3.org/2000/svg" xmlns:xlink="http://www.w3.org/1999/xlink" xmlns:sketch="http://www.bohemiancoding.com/sketch/ns">
    <!-- Generator: Sketch 3.4.4 (17249) - http://www.bohemiancoding.com/sketch -->
    <title>smart-time</title>
    <desc>Created with Sketch.</desc>
    <defs></defs>
    <g id="Page-1" stroke="none" stroke-width="1" fill="none" fill-rule="evenodd" sketch:type="MSPage">
        <g id="iPhone-6" sketch:type="MSArtboardGroup" transform="translate(-15.000000, -71.000000)" fill="#FFFFFF">
            <g id="Expired-event-+-smart-time" sketch:type="MSLayerGroup" transform="translate(15.000000, 71.000000)">
                <g id="smart-time" sketch:type="MSShapeGroup">
                    <g id="Page-1">
                        <g id="Group">
                            <g>
                                <path d="M5.52544615,0.389353846 C5.0148,0.144830769 4.47286154,0.0204923077 3.91596923,0.0204923077 C1.82381538,0.0204923077 0.121292308,1.75569231 0.121292308,3.88883077 C0.121292308,4.4352 0.233723077,4.96633846 0.454430769,5.46923077 L0.610061538,5.82286154 L5.8608,0.549415385 L5.52544615,0.389353846 L5.52544615,0.389353846 Z" id="Fill-1"></path>
                                <path d="M14.0840308,0.0204923077 C13.5357231,0.0204923077 13.0012615,0.140676923 12.4972615,0.378553846 L12.1585846,0.537507692 L17.4018462,5.80347692 L17.5563692,5.44652308 C17.7707077,4.95110769 17.8798154,4.42633846 17.8798154,3.88883077 C17.8787077,1.75569231 16.1761846,0.0204923077 14.0840308,0.0204923077 L14.0840308,0.0204923077 L14.0840308,0.0204923077 Z" id="Fill-2"></path>
                                <path d="M11.9888308,9.26944615 L9.32233846,9.26944615 L9.32233846,4.55510769 C9.32233846,4.37676923 9.17861538,4.23276923 9,4.23276923 C8.82138462,4.23276923 8.67766154,4.37676923 8.67766154,4.55510769 L8.67766154,9.59483077 C8.67766154,9.77344615 8.82138462,9.91716923 9,9.91716923 C9.01190769,9.91716923 9.02381538,9.91523077 9.03572308,9.91412308 L11.9888308,9.91412308 C12.1674462,9.91412308 12.3111692,9.76901538 12.3111692,9.59178462 C12.3111692,9.41316923 12.1674462,9.26944615 11.9888308,9.26944615 L11.9888308,9.26944615 L11.9888308,9.26944615 Z" id="Fill-3"></path>
                                <path d="M14.8142769,14.8954154 C16.1512615,13.4382462 16.8837231,11.5637538 16.8837231,9.57323077 C16.8837231,5.22692308 13.3474154,1.69061538 9.00110769,1.69061538 C4.6548,1.69061538 1.11738462,5.22692308 1.11738462,9.57323077 C1.11738462,11.5593231 1.84652308,13.4318769 3.17907692,14.8879385 L0.983353846,17.1670154 C0.815538462,17.3412 0.841569231,17.6300308 1.04289231,17.8236 C1.23535385,18.0085846 1.54024615,18.0249231 1.70169231,17.8582154 L3.89852308,15.5791385 C5.3244,16.7928923 7.12107692,17.4558462 9.00110769,17.4558462 C10.8778154,17.4558462 12.6725538,16.794 14.0959385,15.5855077 L16.2855692,17.8571077 C16.3611692,17.9352 16.4650154,17.9784 16.5785538,17.9784 C16.7084308,17.9784 16.8413538,17.9210769 16.9443692,17.8224923 C17.1454154,17.6289231 17.1714462,17.3400923 17.0025231,17.1659077 L14.8142769,14.8954154 L14.8142769,14.8954154 Z M9,16.6209231 C5.11338462,16.6209231 1.95258462,13.4590154 1.95258462,9.57323077 C1.95258462,5.68661538 5.11449231,2.52581538 9,2.52581538 C12.8866154,2.52581538 16.0474154,5.68772308 16.0474154,9.57323077 C16.0474154,13.4598462 12.8866154,16.6209231 9,16.6209231 L9,16.6209231 L9,16.6209231 Z" id="Fill-4"></path>
                            </g>
                        </g>
                    </g>
                </g>
            </g>
        </g>
    </g>
</svg>