<?xml version="1.0" encoding="UTF-8" standalone="no"?>
<svg width="39px" height="44px" viewBox="0 0 39 44" version="1.1" xmlns="http://www.w3.org/2000/svg" xmlns:xlink="http://www.w3.org/1999/xlink" xmlns:sketch="http://www.bohemiancoding.com/sketch/ns">
    <!-- Generator: Sketch 3.4.4 (17249) - http://www.bohemiancoding.com/sketch -->
    <title>Page 1 Copy 4</title>
    <desc>Created with Sketch.</desc>
    <defs></defs>
    <g id="Page-1" stroke="none" stroke-width="1" fill="none" fill-rule="evenodd" sketch:type="MSPage">
        <path d="M35.368,0 L3.055,0 C1.368,0 0,1.367 0,3.055 L0,40.215 C0,41.903 1.368,43.27 3.055,43.27 L35.368,43.27 C37.055,43.27 38.422,41.903 38.422,40.215 L38.422,3.055 C38.422,1.367 37.055,0 35.368,0 L35.368,0 Z M7.375,40.481 L3.676,40.481 L3.676,36.781 L7.375,36.781 L7.375,40.481 Z M7.375,33.688 L3.676,33.688 L3.676,29.988 L7.375,29.988 L7.375,33.688 Z M7.375,26.895 L3.676,26.895 L3.676,23.195 L7.375,23.195 L7.375,26.895 Z M7.375,20.102 L3.676,20.102 L3.676,16.403 L7.375,16.403 L7.375,20.102 Z M7.375,13.309 L3.676,13.309 L3.676,9.61 L7.375,9.61 L7.375,13.309 Z M7.375,6.516 L3.676,6.516 L3.676,2.817 L7.375,2.817 L7.375,6.516 Z M34.895,40.481 L31.196,40.481 L31.196,36.781 L34.895,36.781 L34.895,40.481 Z M34.895,33.688 L31.196,33.688 L31.196,29.988 L34.895,29.988 L34.895,33.688 Z M34.895,26.895 L31.196,26.895 L31.196,23.195 L34.895,23.195 L34.895,26.895 Z M34.895,20.102 L31.196,20.102 L31.196,16.403 L34.895,16.403 L34.895,20.102 Z M34.895,13.309 L31.196,13.309 L31.196,9.61 L34.895,9.61 L34.895,13.309 Z M34.895,6.516 L31.196,6.516 L31.196,2.817 L34.895,2.817 L34.895,6.516 Z" id="Page-1-Copy-4" fill="#FFFFFF" sketch:type="MSShapeGroup"></path>
    </g>
</svg>