<?xml version="1.0" encoding="UTF-8" standalone="no"?>
<svg width="39px" height="39px" viewBox="0 0 39 39" version="1.1" xmlns="http://www.w3.org/2000/svg" xmlns:xlink="http://www.w3.org/1999/xlink">
    <!-- Generator: Sketch 3.6.1 (26313) - http://www.bohemiancoding.com/sketch -->
    <title>Group 3</title>
    <desc>Created with Sketch.</desc>
    <defs></defs>
    <g id="Page-1" stroke="none" stroke-width="1" fill="none" fill-rule="evenodd">
        <g id="iPhone-6-Copy-10" transform="translate(-175.000000, -96.000000)">
            <g id="gram-panel" transform="translate(159.000000, 0.000000)">
                <g id="Group-3" transform="translate(16.000000, 96.000000)">
                    <circle id="Oval-560-Copy" fill="#FFFFFF" cx="19.5" cy="19.5" r="19.5"></circle>
                    <g id="1f4f7" transform="translate(10.000000, 11.000000)">
                        <g id="Group">
                            <g transform="translate(0.303030, 2.121212)" id="Shape" fill="#212528">
                                <path d="M6.53878788,1.53636364 C6.53878788,1.90060606 6.24333333,2.19575758 5.87939394,2.19575758 L2.9530303,2.19575758 C2.58878788,2.19575758 2.29363636,1.90060606 2.29363636,1.53636364 L2.29363636,0.713939394 C2.29363636,0.35 2.58878788,0.0548484848 2.9530303,0.0548484848 L5.87939394,0.0548484848 C6.24333333,0.0548484848 6.53878788,0.35 6.53878788,0.713939394 L6.53878788,1.53636364"></path>
                                <path d="M18.3854545,1.48090909 C18.3854545,1.67545455 18.2275758,1.8330303 18.0333333,1.8330303 L16.470303,1.8330303 C16.2760606,1.8330303 16.1181818,1.67545455 16.1181818,1.48090909 L16.1181818,1.04181818 C16.1181818,0.847272727 16.2760606,0.68969697 16.470303,0.68969697 L18.0333333,0.68969697 C18.2278788,0.68969697 18.3854545,0.847272727 18.3854545,1.04181818 L18.3854545,1.48090909"></path>
                                <path d="M19.3939394,11.9212121 C19.3939394,12.830303 18.6557576,13.5693939 17.7457576,13.5693939 L1.64878788,13.5693939 C0.73969697,13.5693939 0.000606060606,12.8315152 0.000606060606,11.9212121 L0.000606060606,11.4266667 L19.3945455,11.4266667 L19.3945455,11.9212121"></path>
                            </g>
                            <path d="M0.303030303,4.89393939 C0.303030303,3.98484848 1.04121212,3.24575758 1.95121212,3.24575758 L18.0481818,3.24575758 C18.9572727,3.24575758 19.6963636,3.98393939 19.6963636,4.89393939 L19.6963636,5.38818182 L0.302727273,5.38818182 L0.302727273,4.89393939" id="Shape" fill="#51575B"></path>
                            <path d="M0.303030303,5.30454545 L19.6969697,5.30454545 L19.6969697,13.8742424 L0.303030303,13.8742424 L0.303030303,5.30454545 Z" id="Shape" fill="#3E4347"></path>
                            <path d="M16.8663636,4.24242424 L7.14515152,4.24242424 L8.12030303,0.959090909 C8.20242424,0.775757576 8.6069697,0.478787879 8.84878788,0.411818182 C10.3306061,0.00272727273 13.6812121,0.00272727273 15.1630303,0.411818182 C15.4048485,0.478787879 15.8093939,0.775757576 15.8915152,0.959090909 L16.8666667,4.24242424" id="Shape" fill="#51575B"></path>
                            <path d="M16.3939394,7.76151515 L7.61727273,7.76151515 L8.49757576,3.32818182 C8.57181818,3.08060606 8.9369697,2.67939394 9.15545455,2.58939394 C10.4930303,2.0369697 13.5178788,2.0369697 14.8560606,2.58939394 C15.0745455,2.67969697 15.4393939,3.08090909 15.5139394,3.32818182 L16.3939394,7.76151515" id="Shape" fill="#3E4347"></path>
                            <path d="M18.6727273,10.1966667 C18.6727273,13.88 15.6869697,16.8633333 12.0066667,16.8633333 C8.32484848,16.8633333 5.34,13.88 5.34,10.1966667 C5.34,6.51545455 8.32545455,3.53 12.0066667,3.53 C15.6872727,3.53 18.6727273,6.51545455 18.6727273,10.1966667" id="Shape" fill="#788287"></path>
                            <path d="M17.930303,10.1957576 C17.930303,13.470303 15.2766667,16.1218182 12.0051515,16.1218182 C8.73212121,16.1218182 6.07818182,13.470303 6.07818182,10.1957576 C6.07818182,6.92363636 8.73212121,4.27 12.0051515,4.27 C15.2766667,4.27 17.930303,6.92363636 17.930303,10.1957576" id="Shape" fill="#212528"></path>
                            <ellipse id="Oval" fill="#3E4347" cx="12.0063636" cy="10.1957576" rx="4.81484848" ry="4.81484848"></ellipse>
                            <circle id="Oval" fill="#212528" cx="12.0063636" cy="10.1963636" r="2.59272727"></circle>
                            <g transform="translate(8.787879, 6.363636)" fill="#F5F5F5" opacity="0.5">
                                <path d="M6.76060606,1.77818182 C6.76060606,2.60121212 6.0930303,3.26939394 5.26939394,3.26939394 C4.44545455,3.26939394 3.77787879,2.60121212 3.77787879,1.77818182 C3.77787879,0.955454545 4.44545455,0.286666667 5.26939394,0.286666667 C6.09272727,0.286666667 6.76060606,0.955454545 6.76060606,1.77818182" id="Shape"></path>
                                <ellipse id="Oval" cx="2.29181818" cy="4.75878788" rx="0.926060606" ry="0.926060606"></ellipse>
                                <ellipse id="Oval" cx="0.627272727" cy="6.42424242" rx="0.573333333" ry="0.573333333"></ellipse>
                            </g>
                            <path d="M4.84848485,12.530303 C4.84848485,12.8945455 4.5530303,13.189697 4.18909091,13.189697 L1.38727273,13.189697 C1.02333333,13.189697 0.727878788,12.8945455 0.727878788,12.530303 L0.727878788,6.65181818 C0.727878788,6.28757576 1.02333333,5.99242424 1.38727273,5.99242424 L4.18909091,5.99242424 C4.5530303,5.99242424 4.84848485,6.28757576 4.84848485,6.65181818 L4.84848485,12.530303" id="Shape" fill="#636C72"></path>
                            <ellipse id="Oval" fill="#212528" cx="3.36666667" cy="4.42545455" rx="0.961515152" ry="0.961515152"></ellipse>
                        </g>
                    </g>
                </g>
            </g>
        </g>
    </g>
</svg>