<?xml version="1.0" encoding="UTF-8" standalone="no"?>
<svg width="63px" height="63px" viewBox="0 0 63 63" version="1.1" xmlns="http://www.w3.org/2000/svg" xmlns:xlink="http://www.w3.org/1999/xlink" xmlns:sketch="http://www.bohemiancoding.com/sketch/ns">
    <!-- Generator: Sketch 3.4.4 (17249) - http://www.bohemiancoding.com/sketch -->
    <title>Page 1 Copy 2</title>
    <desc>Created with Sketch.</desc>
    <defs></defs>
    <g id="Page-1" stroke="none" stroke-width="1" fill="none" fill-rule="evenodd" sketch:type="MSPage">
        <path d="M6.25,6.25 C2.797,6.25 0,9.039 0,12.484 L0,56.266 C0,59.707 2.809,62.5 6.25,62.5 L56.25,62.5 C59.703,62.5 62.5,59.711 62.5,56.266 L62.5,12.484 C62.5,9.043 59.691,6.25 56.25,6.25 L6.25,6.25 Z M6.25,18.75 L6.25,56.25 L56.25,56.25 L56.25,18.75 L6.25,18.75 Z M12.5,26.562 L12.5,35.938 L21.875,35.938 L21.875,26.562 L12.5,26.562 Z M26.562,26.562 L26.562,35.938 L35.938,35.938 L35.938,26.562 L26.562,26.562 Z M40.625,26.562 L40.625,35.938 L50,35.938 L50,26.562 L40.625,26.562 Z M12.5,40.625 L12.5,50 L21.875,50 L21.875,40.625 L12.5,40.625 Z M26.562,40.625 L26.562,50 L35.938,50 L35.938,40.625 L26.562,40.625 Z M40.625,40.625 L40.625,50 L50,50 L50,40.625 L40.625,40.625 Z M12.5,0 L12.5,6.25 L18.75,6.25 L18.75,0 L12.5,0 Z M43.75,0 L43.75,6.25 L50,6.25 L50,0 L43.75,0 Z" id="Page-1-Copy-2" fill="#FFFFFF" sketch:type="MSShapeGroup"></path>
    </g>
</svg>