<?xml version="1.0" encoding="UTF-8" standalone="no"?>
<svg width="40px" height="40px" viewBox="0 0 40 40" version="1.1" xmlns="http://www.w3.org/2000/svg" xmlns:xlink="http://www.w3.org/1999/xlink" xmlns:sketch="http://www.bohemiancoding.com/sketch/ns">
    <!-- Generator: Sketch 3.5.1 (25234) - http://www.bohemiancoding.com/sketch -->
    <title>Group 2</title>
    <desc>Created with Sketch.</desc>
    <defs></defs>
    <g id="Page-1" stroke="none" stroke-width="1" fill="none" fill-rule="evenodd" sketch:type="MSPage">
        <g id="iPhone-6" sketch:type="MSArtboardGroup" transform="translate(-19.000000, -47.000000)">
            <g id="Group-2" sketch:type="MSLayerGroup" transform="translate(19.000000, 47.000000)">
                <circle id="Oval-533" fill="#65BCB3" sketch:type="MSShapeGroup" cx="20" cy="20" r="20"></circle>
                <g id="2615-(2)" transform="translate(8.000000, 7.000000)" sketch:type="MSShapeGroup">
                    <g id="Group">
                        <g transform="translate(0.000000, 11.409836)" id="Shape" fill="#E0DAC6">
                            <path d="M21.4622951,0.118032787 L0,0.118032787 C0,0.118032787 0.63304918,6.07081967 1.752,7.71186885 C3.00629508,9.55396721 5.99016393,12.1986885 10.7295738,12.1986885 C15.4705574,12.1986885 18.4548197,9.5547541 19.7087213,7.71186885 C20.8280656,6.06885246 21.4603279,0.118032787 21.4603279,0.118032787"></path>
                            <path d="M18.96,1.13940984 C17.5428197,1.13940984 17.0982295,2.31737705 17.9988197,2.31737705 C19.4321311,2.31737705 21.880918,2.16668852 21.880918,4.66583607 C21.880918,7.16380328 19.4317377,7.01390164 17.9988197,7.01390164 C17.0982295,7.01390164 17.5640656,8.53259016 18.9808525,8.53259016 C20.8359344,8.53259016 23.6077377,7.81455738 23.6077377,4.66583607 C23.6073443,1.51829508 20.8154754,1.13940984 18.96,1.13940984"></path>
                        </g>
                        <path d="M21.4622951,11.5278689 C21.4622951,13.5737705 16.659541,15.2325246 10.7331148,15.2325246 C4.80786885,15.2325246 0.00393442623,13.5737705 0.00393442623,11.5278689 C0.00393442623,9.48157377 4.8082623,7.82321311 10.7331148,7.82321311 C16.6622951,7.82321311 21.4622951,9.48157377 21.4622951,11.5278689" id="Shape" fill="#F9F3D9"></path>
                        <path d="M20.3122623,11.6868197 C20.3122623,13.2936393 16.0229508,14.5939672 10.7299672,14.5939672 C5.43777049,14.5939672 1.14885246,13.2936393 1.14885246,11.6868197 C1.14885246,10.0819672 5.43737705,8.78163934 10.7299672,8.78163934 C16.0229508,8.78163934 20.3122623,10.0819672 20.3122623,11.6868197" id="Shape" fill="#E0DAC6"></path>
                        <path d="M19.2708197,12.9993443 C17.6891803,12.0546885 14.4633443,11.4059016 10.7295738,11.4059016 C6.99737705,11.4059016 3.77114754,12.0542951 2.19068852,12.9993443 C3.77232787,13.944 6.99737705,14.5927869 10.7295738,14.5927869 C14.4637377,14.5927869 17.6895738,13.944 19.2708197,12.9993443" id="Shape" fill="#50261A"></path>
                        <g transform="translate(17.311475, 11.803279)" id="Shape" fill="#F9F3D9">
                            <path d="M3.87383607,0.33757377 C3.45127869,0.178622951 1.63672131,1.39396721 2.53455738,1.48485246 C5.89377049,1.82321311 6.29508197,4.03318033 6.29508197,4.03318033 C6.2557377,2.09704918 4.96406557,0.745967213 3.87383607,0.33757377"></path>
                            <path d="M1.8664918,6.29154098 C1.4584918,6.09560656 -0.371409836,7.3652459 0.527213115,7.43921311 C3.68655738,7.69416393 4.30937705,5.46413115 4.30937705,5.46413115 C4.30937705,5.46413115 3.08616393,6.87265574 1.8664918,6.29232787"></path>
                        </g>
                        <g transform="translate(3.934426, 0.000000)" id="Shape" fill="#E8E8E8">
                            <path d="M1.01783607,0 C1.92590164,0.443016393 2.69980328,1.35029508 2.89101639,2.49757377 C3.08852459,3.64170492 2.66793443,4.82990164 1.94990164,5.68603279 C1.43527869,6.2935082 1.1787541,7.07134426 1.16577049,7.94636066 C1.1602623,8.37954098 1.19645902,8.83436066 1.31016393,9.27777049 C1.35816393,9.50321311 1.43291803,9.72157377 1.52262295,9.93757377 C1.61586885,10.1516066 1.7224918,10.3628852 1.91606557,10.5273443 C1.65403279,10.5029508 1.41442623,10.3373115 1.21731148,10.1630164 C1.01547541,9.98478689 0.850229508,9.77272131 0.697967213,9.55121311 C0.411540984,9.09993443 0.198688525,8.59357377 0.0967868852,8.05180328 C-0.00904918033,7.51160656 -0.0106229508,6.93442623 0.121967213,6.36865574 C0.188065574,6.08695082 0.288786885,5.80996721 0.418229508,5.54518033 C0.488262295,5.41495082 0.555147541,5.29062295 0.648393443,5.15567213 C0.751081967,4.99947541 0.794754098,4.95108197 0.899016393,4.81495082 C1.43016393,4.17245902 1.78977049,3.40406557 1.82439344,2.57980328 C1.87554098,1.75042623 1.54504918,0.870295082 1.0162623,6.98894494e-16"></path>
                            <path d="M6.61967213,0 C7.52734426,0.443016393 8.30163934,1.35029508 8.49285246,2.49757377 C8.68996721,3.6424918 8.26937705,4.83068852 7.55134426,5.68603279 C7.03672131,6.2935082 6.78019672,7.07134426 6.76721311,7.94636066 C6.76170492,8.37954098 6.79790164,8.83436066 6.91160656,9.27777049 C6.95960656,9.50321311 7.0347541,9.72157377 7.12367213,9.93757377 C7.21731148,10.1516066 7.32472131,10.3628852 7.51711475,10.5273443 C7.25547541,10.5029508 7.01665574,10.3373115 6.81836066,10.1630164 C6.61652459,9.98478689 6.45245902,9.77272131 6.29901639,9.552 C6.01298361,9.09993443 5.79934426,8.59357377 5.69822951,8.05180328 C5.592,7.51160656 5.59042623,6.93442623 5.72340984,6.36865574 C5.7895082,6.08695082 5.88944262,5.80996721 6.01927869,5.54518033 C6.08931148,5.41495082 6.15619672,5.29101639 6.24904918,5.15567213 C6.35213115,4.99947541 6.39580328,4.95108197 6.49967213,4.81495082 C7.03121311,4.17245902 7.39042623,3.40406557 7.42544262,2.57980328 C7.47777049,1.75042623 7.14688525,0.870295082 6.61770492,6.98894494e-16"></path>
                            <path d="M12.2203279,-1.07746235e-15 C13.1283934,0.443016393 13.9015082,1.35029508 14.0927213,2.49757377 C14.2902295,3.6424918 13.8696393,4.83068852 13.1512131,5.68603279 C12.6365902,6.2935082 12.3812459,7.07134426 12.3666885,7.94636066 C12.3611803,8.37954098 12.3981639,8.83436066 12.5126557,9.27777049 C12.5602623,9.50321311 12.6354098,9.72157377 12.7239344,9.93757377 C12.8179672,10.1516066 12.9245902,10.3628852 13.1213115,10.5273443 C12.8592787,10.5029508 12.6192787,10.3373115 12.4225574,10.1630164 C12.2207213,9.98478689 12.0554754,9.77272131 11.9032131,9.552 C11.6163934,9.09993443 11.4031475,8.59357377 11.3008525,8.05180328 C11.1961967,7.51160656 11.1938361,6.93442623 11.3264262,6.36983607 C11.3921311,6.08695082 11.492459,5.80996721 11.6222951,5.54518033 C11.6927213,5.41495082 11.7592131,5.29101639 11.8532459,5.15567213 C11.955541,4.99986885 11.9992131,4.95108197 12.1038689,4.81495082 C12.6338361,4.17245902 12.9938361,3.40406557 13.028459,2.57980328 C13.0803934,1.75042623 12.7502951,0.870295082 12.2215082,-1.77635684e-15"></path>
                        </g>
                    </g>
                </g>
            </g>
        </g>
    </g>
</svg>