<?xml version="1.0" encoding="UTF-8" standalone="no"?>
<svg width="77px" height="78px" viewBox="0 0 77 78" version="1.1" xmlns="http://www.w3.org/2000/svg" xmlns:xlink="http://www.w3.org/1999/xlink" xmlns:sketch="http://www.bohemiancoding.com/sketch/ns">
    <!-- Generator: Sketch 3.3.2 (12043) - http://www.bohemiancoding.com/sketch -->
    <title>Rectangle 392 + Imported Layers</title>
    <desc>Created with Sketch.</desc>
    <defs></defs>
    <g id="Page-1" stroke="none" stroke-width="1" fill="none" fill-rule="evenodd" sketch:type="MSPage">
        <g id="Rectangle-392-+-Imported-Layers" sketch:type="MSLayerGroup" transform="translate(2.000000, 2.000000)" stroke="#979797">
            <rect id="Rectangle-392" stroke-width="4" stroke-linecap="round" stroke-linejoin="round" sketch:type="MSShapeGroup" transform="translate(36.398602, 36.692758) rotate(45.000000) translate(-36.398602, -36.692758) " x="10.8986021" y="11.192758" width="51" height="51" rx="4"></rect>
            <path d="M38.1641612,50.3728388 C38.1641612,51.287018 37.4141792,52.037 36.5,52.037 C35.5858208,52.037 34.8358388,51.287018 34.8358388,50.3728388 C34.8358388,49.4586596 35.5858208,48.7086776 36.5,48.7086776 C37.4141792,48.7086776 38.1641612,49.4586596 38.1641612,50.3728388 L38.1641612,50.3728388 Z M34.9179374,42.2217773 L34.9179374,23.499964 C34.9179374,22.6678834 35.5858208,22 36.4179014,22 C37.249982,22 37.9167559,22.6678834 37.9167559,23.499964 L37.9167559,42.2217773 C37.9167559,43.0538579 37.249982,43.7206318 36.4179014,43.7206318 C35.5858208,43.7982927 34.9179374,43.0538579 34.9179374,42.2217773 L34.9179374,42.2217773 Z" id="Imported-Layers" stroke-width="2" fill="#979797" sketch:type="MSShapeGroup"></path>
        </g>
    </g>
</svg>