<?xml version="1.0" encoding="UTF-8" standalone="no"?>
<svg width="15px" height="18px" viewBox="0 0 15 18" version="1.1" xmlns="http://www.w3.org/2000/svg" xmlns:xlink="http://www.w3.org/1999/xlink">
    <!-- Generator: Sketch 3.8.3 (29802) - http://www.bohemiancoding.com/sketch -->
    <title>icon-verified-dark</title>
    <desc>Created with Sketch.</desc>
    <defs>
        <path d="M1.26546785,2.4064898 C1.0732949,2.4064898 0.906266075,2.54277551 0.867113082,2.73489796 C0.867113082,2.73489796 0.463011086,4.59477551 0.259702882,6.84330612 C0.0574722838,9.09183673 0.0154456763,11.726449 0.903751663,13.426898 C1.57007095,14.7012245 3.14588914,15.7242857 4.55180488,16.5034286 C5.8524745,17.2237959 6.9257694,17.6598367 7.09423503,17.728898 C7.17002661,17.7891429 7.26557428,17.8192653 7.36219956,17.8148571 C7.46062084,17.8207347 7.55724612,17.7891429 7.63303769,17.7274286 C7.80976497,17.656898 8.87767184,17.2237959 10.174031,16.5063673 C11.5813836,15.7268571 13.1543282,14.7023265 13.8210067,13.4298367 C14.7103902,11.7293878 14.6683636,9.09477551 14.4650554,6.8462449 C14.2628248,4.59771429 13.8587228,2.73783673 13.8587228,2.73783673 C13.8195698,2.54277551 13.6467938,2.40355102 13.4488736,2.40942857 C10.8446608,2.39914286 7.58526386,0.182204082 7.41284701,0.185142857 C7.27420342,0.187505981 3.05034146,2.37930612 1.26546785,2.4064898 Z" id="path-1"></path>
        <mask id="mask-2" maskContentUnits="userSpaceOnUse" maskUnits="objectBoundingBox" x="0" y="0" width="14.4470424" height="17.6304123" fill="white">
            <use xlink:href="#path-1"></use>
        </mask>
    </defs>
    <g id="Welcome" stroke="none" stroke-width="1" fill="none" fill-rule="evenodd">
        <g id="icon-verified-dark">
            <g id="Group-7">
                <g id="Page-1">
                    <g id="Group-7">
                        <g id="Imported-Layers-Copy-18" stroke="#FFFFFF" stroke-width="2" fill="#64B5F6">
                            <use id="Fill-2" mask="url(#mask-2)" xlink:href="#path-1"></use>
                        </g>
                        <path d="M5.81589867,12.0326003 C5.40469802,12.2524111 5.13512553,12.0531796 5.21380786,11.58761 L5.54368716,9.63108463 L4.14626956,8.24620665 C3.81375123,7.91654007 3.91677131,7.59423034 4.3761588,7.52622917 L6.3072478,7.24080313 L7.17089624,5.4606434 C7.37634995,5.03692839 7.70965022,5.03692839 7.91549493,5.4606434 L8.77914337,7.24040548 L10.7102324,7.52583152 C11.1699131,7.59383269 11.2726399,7.91614242 10.9401216,8.245809 L9.542704,9.63148232 L9.87258331,11.5880077 C9.95087464,12.0535772 9.68130219,12.2528088 9.27049249,12.0329979 L7.54319558,11.1091163 L5.81589867,12.0326003 L5.81589867,12.0326003 Z" id="Page-1" fill="#FFFFFF"></path>
                    </g>
                </g>
            </g>
        </g>
    </g>
</svg>