<?xml version="1.0" encoding="utf-8"?>
<!-- Generator: Adobe Illustrator 18.0.0, SVG Export Plug-In . SVG Version: 6.00 Build 0)  -->
<!DOCTYPE svg PUBLIC "-//W3C//DTD SVG 1.1//EN" "http://www.w3.org/Graphics/SVG/1.1/DTD/svg11.dtd">
<svg version="1.1" id="Layer_1" xmlns="http://www.w3.org/2000/svg" xmlns:xlink="http://www.w3.org/1999/xlink" x="0px" y="0px"
	 viewBox="0 0 144 144" enable-background="new 0 0 144 144" xml:space="preserve">
<path fill="#A4A4A4" d="M72,68.7c-10.7,0-19.4-8.7-19.4-19.4c0-10.7,8.7-19.4,19.4-19.4s19.4,8.7,19.4,19.4
	C91.4,60,82.7,68.7,72,68.7z M72,9.6c-21.9,0-39.6,17.7-39.6,39.6c0,0.5,0,0.9,0,1.4c0.1,4.2,0.9,8.2,2.3,11.9
	c8.5,27.8,37.3,64,37.3,64s28.9-36.3,37.3-64c1.3-3.7,2.1-7.7,2.3-11.9c0-0.5,0-1,0-1.4C111.6,27.4,93.9,9.6,72,9.6z"/>
</svg>
