<?xml version="1.0" encoding="utf-8"?>
<!-- Generator: Adobe Illustrator 18.0.0, SVG Export Plug-In . SVG Version: 6.00 Build 0)  -->
<!DOCTYPE svg PUBLIC "-//W3C//DTD SVG 1.1//EN" "http://www.w3.org/Graphics/SVG/1.1/DTD/svg11.dtd">
<svg version="1.1" id="Layer_1" xmlns="http://www.w3.org/2000/svg" xmlns:xlink="http://www.w3.org/1999/xlink" x="0px" y="0px"
	 viewBox="0 0 144 144" enable-background="new 0 0 144 144" xml:space="preserve">
<g>
	<path fill="#A4A4A4" d="M72,53.3c-10.3,0-18.7,8.4-18.7,18.7S61.7,90.7,72,90.7S90.7,82.3,90.7,72S82.3,53.3,72,53.3z"/>
	<path fill="#A4A4A4" d="M72,105.1c-18.3,0-33.1-14.9-33.1-33.1S53.7,38.9,72,38.9s33.1,14.9,33.1,33.1S90.3,105.1,72,105.1z
		 M125.3,25.9h-21.6c0-10.3-8.4-18.7-18.7-18.7H59c-10.3,0-18.7,8.4-18.7,18.7H18.7C8.4,25.9,0,34.3,0,44.6v54.7
		c0,10.3,8.4,18.7,18.7,18.7h106.6c10.3,0,18.7-8.4,18.7-18.7V44.6C144,34.3,135.6,25.9,125.3,25.9z"/>
</g>
</svg>
