<?xml version="1.0" encoding="UTF-8" standalone="no"?>
<svg width="62px" height="9px" viewBox="0 0 62 9" version="1.1" xmlns="http://www.w3.org/2000/svg" xmlns:xlink="http://www.w3.org/1999/xlink" xmlns:sketch="http://www.bohemiancoding.com/sketch/ns">
    <!-- Generator: Sketch 3.3.2 (12043) - http://www.bohemiancoding.com/sketch -->
    <title>ghost-xl copy 6 + invisible on</title>
    <desc>Created with Sketch.</desc>
    <defs></defs>
    <g id="Page-1" stroke="none" stroke-width="1" fill="none" fill-rule="evenodd" sketch:type="MSPage">
        <g id="iPhone-6" sketch:type="MSArtboardGroup" transform="translate(-156.000000, -647.000000)">
            <g id="ghost-xl-copy-6-+-invisible-on" sketch:type="MSLayerGroup" transform="translate(156.000000, 644.000000)">
                <g id="ghost-xl-copy-6" transform="translate(0.000000, 3.000000)" sketch:type="MSShapeGroup">
                    <g id="Shape-Copy-15-+-Shape-Copy-16">
                        <path d="M3.32700295,8.22947692 C3.31873656,8.03895768 3.32700295,7.83977848 3.28567098,7.64925925 C3.18647424,7.15564123 2.93848239,6.77460276 2.50036346,6.54944366 C1.84731825,6.21170502 1.25213781,5.78736672 0.747887721,5.23312895 C-0.177948517,4.20259308 -0.194481307,2.99885791 0.425498317,1.79512274 C1.1033427,0.478808028 2.49209706,-0.205329226 3.89738421,0.0544697312 C5.27787217,0.305608723 6.3773027,1.46604407 6.59222897,2.93823816 C6.69142571,3.59639552 6.62529455,4.23723294 6.33597073,4.85209048 C6.12104446,5.2937487 5.87305261,5.70076707 5.60026157,6.09912547 C5.01334753,6.96512199 4.43469988,7.83977848 3.85605223,8.70577501 C3.76512189,8.84433445 3.66592515,9.04351365 3.48406446,8.99155386 C3.28567098,8.9309341 3.33526935,8.71443497 3.32700295,8.54123567 C3.31873656,8.43731609 3.32700295,8.34205647 3.32700295,8.23813688 C3.31873656,8.22947692 3.32700295,8.22947692 3.32700295,8.22947692 L3.32700295,8.22947692 Z" id="Shape-Copy-15" fill="#FFFFFF"></path>
                        <path d="M2.75106006,6.70562128 C3.03264363,6.93344852 3.20237921,7.25173076 3.28030076,7.63948022 C3.32163273,7.82999945 3.31336634,8.02917865 3.32163273,8.21969789 C3.32163273,8.21969789 3.31336634,8.21969789 3.32163273,8.22835785 C3.32163273,8.33227743 3.31336634,8.42753705 3.32163273,8.53145664 C3.32970597,8.70060896 3.282587,8.91106127 3.46518953,8.97727273 C3.64908761,8.73372345 3.75955271,8.42152185 3.75955271,8.08113006 C3.75955271,7.40841725 3.3281068,6.84580748 2.75106006,6.70562128 Z" id="Shape-Copy-16" fill-opacity="0.100000001" fill="#27476E"></path>
                    </g>
                    <path d="M4.00160867,1.00090445 C4.02831438,0.982247227 4.94847517,1.25571748 5.42903105,1.49951952 C5.71109333,1.64261913 6,1.89279826 6,1.99813459 C6,2.02306534 5.75438198,1.7936866 5.32197437,1.57431178 C4.27510928,1.04320217 3.97490297,1.01956167 4.00160867,1.00090445 Z" id="Path-131"></path>
                    <path d="M5.97221853,0.997117386 C6.16659087,0.949175339 5.31609059,0.198829853 4.20081612,0.0402734082 C3.08554165,-0.118283037 1.93447236,0.234224853 2.00290874,0.356287672 C2.07134512,0.478350491 3.02372476,0.164213496 4.13899923,0.322769941 C5.25427371,0.481326386 5.77784619,1.04505943 5.97221853,0.997117386 Z" id="Oval-74" fill-opacity="0.100000001" fill="#FFFFFF"></path>
                </g>
                <text id="invisible-on" sketch:type="MSTextLayer" font-family="Open Sans" font-size="10" font-weight="normal" fill="#FFFFFF">
                    <tspan x="10" y="11">invisible on</tspan>
                </text>
            </g>
        </g>
    </g>
</svg>