<?xml version="1.0" encoding="UTF-8" standalone="no"?>
<svg width="27px" height="26px" viewBox="0 0 27 26" version="1.1" xmlns="http://www.w3.org/2000/svg" xmlns:xlink="http://www.w3.org/1999/xlink" xmlns:sketch="http://www.bohemiancoding.com/sketch/ns">
    <!-- Generator: Sketch 3.3.3 (12081) - http://www.bohemiancoding.com/sketch -->
    <title>close</title>
    <desc>Created with Sketch.</desc>
    <defs></defs>
    <g id="Page-1" stroke="none" stroke-width="1" fill="none" fill-rule="evenodd" sketch:type="MSPage">
        <g id="iPhone-6" sketch:type="MSArtboardGroup" transform="translate(-328.000000, -14.000000)" fill="#FFFFFF">
            <g id="close" sketch:type="MSLayerGroup" transform="translate(327.000000, 14.000000)">
                <g id="Page-1" sketch:type="MSShapeGroup">
                    <g id="iPhone-6">
                        <path d="M15.201242,12.6915314 L27.130936,0.923461882 C27.3444453,0.710430118 27.3444453,0.367557412 27.127772,0.157636471 C26.9118904,-0.0515090588 26.5631567,-0.0546183529 26.3496458,0.160745765 L14.4231158,11.9264829 L2.49658422,0.160745765 C2.28070267,-0.0515090588 1.93434111,-0.0515090588 1.718458,0.157636471 C1.50178467,0.370668235 1.50178467,0.710430118 1.71529556,0.923461882 L13.644988,12.6946407 L1.71529556,24.4634872 C1.50178467,24.675742 1.50178467,25.0193916 1.718458,25.2285372 C1.82600444,25.3350531 1.96518156,25.3863664 2.10752111,25.3863664 C2.24907044,25.3863664 2.39141156,25.3350531 2.49658422,25.2254264 L14.4231158,13.4604676 L26.3496458,25.2285372 C26.4579824,25.3350531 26.5995318,25.3894772 26.7387089,25.3894772 C26.88105,25.3894772 27.0202271,25.3381624 27.127772,25.2316465 C27.3444453,25.0193916 27.3444453,24.6788528 27.130936,24.466598 L15.201242,12.6915314 L15.201242,12.6915314 Z" id="Imported-Layers"></path>
                    </g>
                </g>
            </g>
        </g>
    </g>
</svg>