<?xml version="1.0" encoding="UTF-8" standalone="no"?>
<svg width="45px" height="45px" viewBox="0 0 45 45" version="1.1" xmlns="http://www.w3.org/2000/svg" xmlns:xlink="http://www.w3.org/1999/xlink" xmlns:sketch="http://www.bohemiancoding.com/sketch/ns">
    <!-- Generator: Sketch 3.3.3 (12081) - http://www.bohemiancoding.com/sketch -->
    <title>privateChat</title>
    <desc>Created with Sketch.</desc>
    <defs></defs>
    <g id="Page-1" stroke="none" stroke-width="1" fill="none" fill-rule="evenodd" sketch:type="MSPage">
        <g id="iPhone-6" sketch:type="MSArtboardGroup" transform="translate(-305.000000, -259.000000)">
            <g id="privateChat" sketch:type="MSLayerGroup" transform="translate(305.000000, 259.000000)">
                <circle id="Oval-411-Copy-3" fill="#26C6DA" sketch:type="MSShapeGroup" cx="22.5" cy="22.5" r="22.5"></circle>
                <path d="M34.0389903,22.3190329 L20.5759659,22.3190329 C20.3342024,19.8942877 18.288457,18 15.7997156,18 C13.1484949,18 11,20.1484949 11,22.7997156 C11,25.4509362 13.1484949,27.5994311 15.7997156,27.5994311 C18.288457,27.5994311 20.3342024,25.7051434 20.5759659,23.2803982 L31.1584499,23.2803982 L31.1584499,27.1201707 C31.1584499,27.3853994 31.3739038,27.6008533 31.6391325,27.6008533 C31.9043612,27.6008533 32.1194596,27.3853994 32.1194596,27.1201707 L32.1194596,23.2803982 L34.0389903,23.2803982 L34.0389903,27.1201707 C34.0389903,27.3853994 34.2540886,27.6008533 34.5193174,27.6008533 C34.7845461,27.6008533 35,27.3853994 35,27.1201707 L35,22.3204551 L34.0389903,22.3204551 L34.0389903,22.3190329 Z M15.7997156,26.6398436 C13.6789524,26.6398436 11.9595876,24.9204788 11.9595876,22.7997156 C11.9595876,20.6789524 13.6789524,18.9595876 15.7997156,18.9595876 C17.9204788,18.9595876 19.6398436,20.6789524 19.6398436,22.7997156 C19.6398436,24.9204788 17.9204788,26.6398436 15.7997156,26.6398436 L15.7997156,26.6398436 Z" id="Imported-Layers" fill="#FFFFFF" sketch:type="MSShapeGroup" transform="translate(23.000000, 22.800427) rotate(-30.000000) translate(-23.000000, -22.800427) "></path>
            </g>
        </g>
    </g>
</svg>