<?xml version="1.0" encoding="UTF-8" standalone="no"?>
<svg width="45px" height="45px" viewBox="0 0 45 45" version="1.1" xmlns="http://www.w3.org/2000/svg" xmlns:xlink="http://www.w3.org/1999/xlink" xmlns:sketch="http://www.bohemiancoding.com/sketch/ns">
    <!-- Generator: Sketch 3.3.3 (12081) - http://www.bohemiancoding.com/sketch -->
    <title>call</title>
    <desc>Created with Sketch.</desc>
    <defs></defs>
    <g id="Page-1" stroke="none" stroke-width="1" fill="none" fill-rule="evenodd" sketch:type="MSPage">
        <g id="iPhone-6" sketch:type="MSArtboardGroup" transform="translate(-305.000000, -489.000000)">
            <g id="Oval-411-+-Imported-Layers-+-Call-John" sketch:type="MSLayerGroup" transform="translate(246.000000, 489.000000)">
                <g id="call" transform="translate(59.000000, 0.000000)" sketch:type="MSShapeGroup">
                    <circle id="Oval-411" fill="#9E788F" cx="22.5" cy="22.5" r="22.5"></circle>
                    <path d="M29.7801792,34.9992734 C29.7801792,34.9992734 29.7801792,34.9992734 29.7786556,34.9992734 C25.142138,34.9992734 19.8820598,30.2511472 17.8376801,28.2098148 C15.598271,25.9761195 10.4574197,20.2623695 11.0466978,15.4491066 C11.2683913,13.6397525 12.2743922,12.1857936 14.0346081,11.127988 C14.1759282,11.0430436 14.3381987,11 14.5164677,11 C15.9018616,11 18.6337959,14.2332206 19.739216,15.8003118 C21.3196393,18.0381972 21.0964221,18.6705188 21.0114777,18.9085917 C20.7436933,19.6643304 20.2454543,20.10467 19.8047337,20.493205 C19.4196269,20.8326018 19.0874676,21.1270504 18.9179597,21.6031962 C18.8943429,21.7193758 19.048995,22.3456028 20.0519486,23.5793918 C21.6289436,25.5178767 23.7076058,27.0788732 24.3772573,27.0788732 C24.8713062,26.9093653 25.1661357,26.5775869 25.5051515,26.1920992 C25.8936865,25.7532832 26.3340262,25.2546633 27.0897648,24.9853552 C27.1956597,24.9480254 27.3145057,24.9285987 27.4394463,24.9285987 C29.031678,24.9285987 33.6400078,28.7065301 34.7214302,30.6156844 C34.8360861,30.8179512 35.1857676,31.4342743 34.8688449,31.9622248 C33.6621009,33.9784167 31.9494996,34.9992734 29.7801792,34.9992734 Z M14.5568448,12.1503683 C13.1356448,13.0238102 12.357432,14.1486571 12.1822104,15.588903 C11.8161495,18.5810034 14.2307802,22.9973512 18.6440806,27.4003669 C20.5905648,29.3418991 25.5691455,33.8565234 29.7801792,33.8565234 C31.522492,33.8565234 32.8541767,33.0665022 33.8510356,31.4399881 C33.6621009,30.3105702 28.647714,26.0907754 27.450112,26.0713486 C26.9872983,26.2442848 26.6985634,26.5699686 26.3652614,26.9478379 C25.9767264,27.3885585 25.5363867,27.8867974 24.780648,28.1545819 C24.6583738,28.1980064 24.524672,28.2200995 24.3818283,28.2200995 C22.8684464,28.2200995 19.9788126,25.4973072 18.6547463,23.6224354 C17.9092924,22.5672963 17.6441744,21.7818461 17.8437747,21.2177085 C18.1115591,20.4619699 18.610179,20.0216302 19.0505187,19.6330952 C19.428388,19.2997931 19.7555954,19.0095346 19.9285316,18.5471018 C19.9342454,18.13495 19.0029041,16.484819 17.2632577,14.5116707 C15.8321538,12.8942986 14.8737675,12.2215997 14.5568448,12.1503683 Z" id="Imported-Layers" fill="#FFFFFF"></path>
                </g>
            </g>
        </g>
    </g>
</svg>