<?xml version="1.0" encoding="UTF-8" standalone="no"?>
<svg width="30px" height="13px" viewBox="0 0 30 13" version="1.1" xmlns="http://www.w3.org/2000/svg" xmlns:xlink="http://www.w3.org/1999/xlink" xmlns:sketch="http://www.bohemiancoding.com/sketch/ns">
    <!-- Generator: Sketch 3.3.3 (12081) - http://www.bohemiancoding.com/sketch -->
    <title>Fill 1</title>
    <desc>Created with Sketch.</desc>
    <defs></defs>
    <g id="Page-1" stroke="none" stroke-width="1" fill="none" fill-rule="evenodd" sketch:type="MSPage">
        <path d="M9.92173913,3.7973913 C9.92173913,3.48347826 9.66695652,3.22869565 9.35304348,3.22869565 L2.72434783,3.22869565 C2.41,3.22869565 2.15521739,3.48347826 2.15521739,3.7973913 C2.15521739,4.11173913 2.41,4.36652174 2.72434783,4.36652174 L9.35304348,4.36652174 C9.66695652,4.36826087 9.92173913,4.11173913 9.92173913,3.7973913 Z M11.7730435,6.59130435 C11.7730435,6.2773913 11.5182609,6.0226087 11.2043478,6.0226087 L4.57391304,6.0226087 C4.25956522,6.0226087 4.00478261,6.2773913 4.00478261,6.59130435 C4.00478261,6.90565217 4.25956522,7.16043478 4.57391304,7.16043478 L11.2026087,7.16043478 C11.5165217,7.16043478 11.7730435,6.90565217 11.7730435,6.59130435 Z M12.3421739,8.81304348 L5.71347826,8.81304348 C5.39913043,8.81304348 5.14434783,9.0673913 5.14434783,9.38173913 C5.14434783,9.69608696 5.39913043,9.95086957 5.71347826,9.95086957 L12.3421739,9.95086957 C12.656087,9.95086957 12.9108696,9.69608696 12.9108696,9.38173913 C12.9108696,9.06913043 12.656087,8.81304348 12.3421739,8.81304348 Z M29.663913,0.89 C29.6669565,0.874782609 29.6669565,0.859565217 29.6686957,0.842608696 C29.6721739,0.80826087 29.6721739,0.776086957 29.6686957,0.742173913 C29.6669565,0.726956522 29.6669565,0.71173913 29.6652174,0.696521739 C29.6604348,0.660869565 29.6517391,0.625217391 29.64,0.590869565 C29.6365217,0.579130435 29.6347826,0.567391304 29.6295652,0.555217391 C29.6282609,0.552173913 29.6282609,0.548695652 29.6265217,0.546956522 C29.6078261,0.502608696 29.5856522,0.46173913 29.56,0.424782609 C29.5582609,0.423043478 29.5582609,0.423043478 29.5582609,0.421304348 C29.5552174,0.416086957 29.55,0.410869565 29.5447826,0.406086957 C29.5208696,0.37173913 29.493913,0.341304348 29.4634783,0.314347826 C29.4513043,0.303913043 29.4395652,0.293913043 29.4278261,0.285217391 C29.4021739,0.264782609 29.3747826,0.246086957 29.346087,0.229130435 C29.3326087,0.220869565 29.3173913,0.212173913 29.3034783,0.205652174 C29.2713043,0.190434783 29.2391304,0.17826087 29.2052174,0.16826087 C29.1934783,0.164782609 29.1813043,0.159565217 29.1678261,0.156086957 C29.1204348,0.144347826 29.0726087,0.139130435 29.0234783,0.139130435 L29.02,0.139130435 L12.6934783,0.139130435 L12.6904348,0.139130435 L0.97826087,0.139130435 C0.61826087,0.139130435 0.326086957,0.431304348 0.326086957,0.791304348 C0.326086957,1.15130435 0.61826087,1.44347826 0.97826087,1.44347826 L12.5,1.44347826 L18.5121739,5.43652174 C18.6208696,5.50608696 18.7465217,5.54347826 18.8721739,5.54347826 C18.9556522,5.54347826 19.0386957,5.52826087 19.1169565,5.49608696 L27.8786957,1.95478261 L24.2121739,11.5504348 L7.01086957,11.5504348 C6.65086957,11.5504348 6.35869565,11.8426087 6.35869565,12.2026087 C6.35869565,12.5630435 6.65086957,12.8547826 7.01086957,12.8547826 L24.6604348,12.8547826 C24.9304348,12.8547826 25.1730435,12.6886957 25.27,12.4356522 L29.6313043,1.0226087 C29.6347826,1.01391304 29.6347826,1.00391304 29.6382609,0.995217391 C29.6482609,0.961304348 29.6586957,0.925652174 29.663913,0.89 Z M18.9469565,4.1573913 L14.8573913,1.44173913 L25.6656522,1.44173913 L18.9469565,4.1573913 Z" id="Fill-1" fill="#979797" sketch:type="MSShapeGroup"></path>
    </g>
</svg>