<?xml version="1.0" encoding="UTF-8" standalone="no"?>
<svg width="45px" height="45px" viewBox="0 0 45 45" version="1.1" xmlns="http://www.w3.org/2000/svg" xmlns:xlink="http://www.w3.org/1999/xlink" xmlns:sketch="http://www.bohemiancoding.com/sketch/ns">
    <!-- Generator: Sketch 3.3.3 (12081) - http://www.bohemiancoding.com/sketch -->
    <title>ghostMail</title>
    <desc>Created with Sketch.</desc>
    <defs></defs>
    <g id="Page-1" stroke="none" stroke-width="1" fill="none" fill-rule="evenodd" sketch:type="MSPage">
        <g id="iPhone-6" sketch:type="MSArtboardGroup" transform="translate(-305.000000, -333.000000)">
            <g id="ghostMail" sketch:type="MSLayerGroup" transform="translate(305.000000, 333.000000)">
                <circle id="Oval-411-Copy-2" fill="#EB6262" sketch:type="MSShapeGroup" cx="22.5" cy="22.5" r="22.5"></circle>
                <path d="M32.9294118,14 L13.0705882,14 C11.9295059,14 11,14.9295059 11,16.0705882 L11,29.2854588 C11,30.4265412 11.9295059,31.3560471 13.0705882,31.3560471 L32.9294118,31.3560471 C34.0704941,31.3560471 35,30.4280471 35,29.2854588 L35,16.0705882 C35,14.9295059 34.0704941,14 32.9294118,14 L32.9294118,14 Z M25.9647059,22.6780235 L33.8457412,15.8176 C33.8675765,15.8985412 33.8837647,15.9824941 33.8837647,16.0705882 L33.8837647,29.2854588 C33.8837647,29.3735529 33.8675765,29.4575059 33.8457412,29.5384471 L25.9647059,22.6780235 Z M32.9294118,15.1162353 C32.9354353,15.1162353 32.9410824,15.1177412 32.9486118,15.1177412 L23.6264471,23.2340706 C23.2631529,23.5499294 22.7368471,23.5499294 22.3735529,23.2340706 L13.0513882,15.1177412 C13.0574118,15.1177412 13.0630588,15.1162353 13.0705882,15.1162353 L32.9294118,15.1162353 Z M12.1542588,29.5384471 C12.1324235,29.4575059 12.1162353,29.3735529 12.1162353,29.2854588 L12.1162353,16.0705882 C12.1162353,15.9824941 12.1324235,15.8985412 12.1542588,15.8176 L20.0352941,22.6780235 L12.1542588,29.5384471 Z M13.0705882,30.2398118 C13.0645647,30.2398118 13.0589176,30.2383059 13.0513882,30.2383059 L20.8853647,23.4177882 L21.6398118,24.0751059 C22.0339765,24.4176941 22.5162353,24.5897412 22.9984941,24.5897412 C23.4807529,24.5897412 23.9645176,24.4176941 24.3586824,24.0751059 L25.1131294,23.4177882 L32.9471059,30.2383059 C32.9410824,30.2383059 32.9354353,30.2398118 32.9294118,30.2398118 L13.0705882,30.2398118 Z" id="Imported-Layers" fill="#FFFFFF" sketch:type="MSShapeGroup"></path>
            </g>
        </g>
    </g>
</svg>