<?xml version="1.0" encoding="UTF-8" standalone="no"?>
<svg width="66px" height="66px" viewBox="0 0 66 66" version="1.1" xmlns="http://www.w3.org/2000/svg" xmlns:xlink="http://www.w3.org/1999/xlink" xmlns:sketch="http://www.bohemiancoding.com/sketch/ns">
    <!-- Generator: Sketch 3.3.2 (12043) - http://www.bohemiancoding.com/sketch -->
    <title>Rectangle 196 + Imported Layers Copy</title>
    <desc>Created with Sketch.</desc>
    <defs></defs>
    <g id="Page-1" stroke="none" stroke-width="1" fill="none" fill-rule="evenodd" sketch:type="MSPage">
        <g id="iPhone-6" sketch:type="MSArtboardGroup" transform="translate(-170.000000, -511.000000)">
            <g id="Rectangle-196-+-Imported-Layers-Copy" sketch:type="MSLayerGroup" transform="translate(170.000000, 511.000000)">
                <rect id="Rectangle-196" fill="#FFFFFF" sketch:type="MSShapeGroup" x="0" y="0" width="66" height="66"></rect>
                <path d="M5,60.9206128 C5,60.9206128 5.32928,57.8072949 9.06261333,56.8407567 C9.06261333,56.8407567 15.0770133,54.6354899 19.7877333,52.5756911 C22.2226133,51.5124241 22.7482667,50.8713146 25.2040533,49.7818033 C25.2040533,49.7818033 25.46016,48.5130812 25.3668267,47.760996 L27.2894933,47.760996 C27.2894933,47.760996 27.72928,48.0181896 27.2894933,45.0398422 C27.2894933,45.0398422 24.9472,44.4159789 24.8359467,39.6732679 C24.8359467,39.6732679 23.0775467,40.2678877 22.96928,37.3945172 C22.8968533,35.4471938 21.39456,33.7570641 23.55616,32.3593703 L22.45632,29.3840222 C22.45632,29.3840222 20.2603733,17.3656553 26.5749333,19.1292689 C23.91456,15.9334691 41.6740267,12.7354198 42.82912,22.8814469 C42.82912,22.8814469 43.6519467,28.3589968 42.82912,32.1081754 C42.82912,32.1081754 45.4222933,31.8059916 43.68928,36.8118948 C43.68928,36.8118948 42.7387733,40.4148555 41.27456,39.6065326 C41.27456,39.6065326 41.5134933,44.1640341 39.2062933,44.9371147 C39.2062933,44.9371147 39.3698133,47.3620834 39.3698133,47.5292968 L41.5665067,47.8599743 C41.5665067,47.8599743 41.23648,49.8462891 41.62176,50.065991 C41.62176,50.065991 44.2261333,51.8580984 47.32928,52.6581731 C53.31456,54.201335 60.3959467,56.8467554 60.3959467,59.1637478 C60.3959467,59.1637478 61,62.2508214 61,66 L5,66 L5,60.9206128 Z" id="Imported-Layers-Copy" fill="#E0E0E0" sketch:type="MSShapeGroup"></path>
            </g>
        </g>
    </g>
</svg>