<?xml version="1.0" encoding="UTF-8" standalone="no"?>
<svg width="27px" height="18px" viewBox="0 0 27 18" version="1.1" xmlns="http://www.w3.org/2000/svg" xmlns:xlink="http://www.w3.org/1999/xlink" xmlns:sketch="http://www.bohemiancoding.com/sketch/ns">
    <!-- Generator: Sketch 3.3.2 (12043) - http://www.bohemiancoding.com/sketch -->
    <title>Imported Layers</title>
    <desc>Created with Sketch.</desc>
    <defs></defs>
    <g id="Page-1" stroke="none" stroke-width="1" fill="none" fill-rule="evenodd" sketch:type="MSPage">
        <g id="iPhone-6" sketch:type="MSArtboardGroup" transform="translate(-15.000000, -155.000000)" stroke="#979797" stroke-width="0.5" fill="#979797">
            <g id="Imported-Layers" sketch:type="MSLayerGroup" transform="translate(16.000000, 156.019231)">
                <path d="M9,8 C6.79239893,8 5,6.18189689 5,4.00017315 C5,1.81810311 6.81802441,0 9,0 C11.1819756,0 13,1.81810311 13,4.00017315 C13,6.18189689 11.2332266,8 9,8 L9,8 Z M9,0.495216657 C7.07774219,0.495216657 5.54506103,2.05359075 5.54506103,3.94995888 C5.54506103,5.8722999 7.10336767,7.4050474 9,7.4050474 C10.896286,7.4050474 12.4545927,5.8466733 12.4545927,3.94995888 C12.5061899,2.07921735 10.9222578,0.495216657 9,0.495216657 L9,0.495216657 Z" id="Fill-1" sketch:type="MSShapeGroup"></path>
                <path d="M17.7137266,16 C17.5586763,16 17.4547338,15.8919514 17.4547338,15.7307759 C17.4547338,12.3389108 13.6482302,9.56518441 8.98635971,9.56518441 C4.32448921,9.56518441 0.517985612,12.3105526 0.517985612,15.7042124 C0.517985612,15.8653879 0.414043165,15.9734366 0.258992806,15.9734366 C0.103597122,15.9734366 0,15.8653879 0,15.7042124 C0,11.9882015 4.03994245,9.00017271 9.01329496,9.00017271 C13.9597122,8.97360926 18,12.014765 18,15.7042124 C17.9727194,15.8653879 17.8705036,16 17.7137266,16 L17.7137266,16 Z" id="Fill-2" sketch:type="MSShapeGroup"></path>
                <path d="M18,7 C16.336657,7 15,5.66334304 15,4 C15,2.33665696 16.336657,1 18,1 C19.663343,1 21,2.33665696 21,4 C21,5.66334304 19.6384719,7 18,7 L18,7 Z M18,1.52901636 C16.6384719,1.52901636 15.5290164,2.63847188 15.5290164,4 C15.5290164,5.36152812 16.6384719,6.47064755 18,6.47064755 C19.3615281,6.47064755 20.4706475,5.36152812 20.4706475,4 C20.4706475,2.63981627 19.3615281,1.52901636 18,1.52901636 L18,1.52901636 Z" id="Fill-3" sketch:type="MSShapeGroup"></path>
                <path d="M24.7158882,13 C24.5610748,13 24.4572912,12.9004909 24.4572912,12.7512273 C24.4572912,10.4127637 21.6382398,8.52209102 18.1471811,8.52209102 C16.3370026,8.52209102 14.6561225,9.04451373 13.4414065,9.93976383 C13.3376229,10.0147273 13.1572946,10.0147273 13.053511,9.89034098 C12.9752424,9.7908319 12.9752424,9.61702269 13.1045408,9.5171819 C14.3975255,8.52209102 16.233219,8 18.1471811,8 C21.9223516,8 25,10.1145681 25,12.7512273 C24.9744851,12.9018177 24.8451866,13 24.7158882,13 L24.7158882,13 Z" id="Fill-4" sketch:type="MSShapeGroup"></path>
            </g>
        </g>
    </g>
</svg>