<?xml version="1.0" encoding="UTF-8" standalone="no"?>
<svg width="109px" height="110px" viewBox="0 0 109 110" version="1.1" xmlns="http://www.w3.org/2000/svg" xmlns:xlink="http://www.w3.org/1999/xlink" xmlns:sketch="http://www.bohemiancoding.com/sketch/ns">
    <!-- Generator: Sketch 3.3.3 (12081) - http://www.bohemiancoding.com/sketch -->
    <title>Imported Layers + No Places</title>
    <desc>Created with Sketch.</desc>
    <defs></defs>
    <g id="Page-1" stroke="none" stroke-width="1" fill="none" fill-rule="evenodd" sketch:type="MSPage">
        <g id="iPhone-6" sketch:type="MSArtboardGroup" transform="translate(-133.625000, -308.000000)" fill="#979797">
            <g id="Imported-Layers-+-No-Places" sketch:type="MSLayerGroup" transform="translate(134.000000, 308.000000)">
                <g id="Imported-Layers" transform="translate(25.000000, 20.000000)" sketch:type="MSShapeGroup">
                    <path d="M28.2389231,80.4156923 L26.9470769,78.7070769 C25.8546154,77.2629231 0.222615385,43.1238462 0.222615385,28.1741538 C0.222615385,12.726 12.7921538,0.156461538 28.2389231,0.156461538 C43.6856923,0.156461538 56.2566154,12.726 56.2566154,28.1741538 C56.2566154,43.1238462 30.6246154,77.2573846 29.5321538,78.7070769 L28.2389231,80.4156923 Z M28.2389231,3.39646154 C14.5769231,3.39646154 3.45707692,14.5107692 3.45707692,28.1796923 C3.45707692,40.2452308 22.976,67.8032308 28.2389231,75.0129231 C33.5018462,67.8032308 53.0166154,40.2396923 53.0166154,28.1796923 C53.0221538,14.5107692 41.9064615,3.39646154 28.2389231,3.39646154 L28.2389231,3.39646154 Z M28.2389231,40.3698462 C21.5166154,40.3698462 16.0432308,34.902 16.0432308,28.1796923 C16.0432308,21.456 21.5166154,15.9826154 28.2389231,15.9826154 C34.9626154,15.9826154 40.4304615,21.4504615 40.4304615,28.1796923 C40.436,34.902 34.9681538,40.3698462 28.2389231,40.3698462 L28.2389231,40.3698462 Z M28.2389231,19.2170769 C23.3013846,19.2170769 19.2776923,23.2352308 19.2776923,28.1796923 C19.2776923,33.1172308 23.2958462,37.1353846 28.2389231,37.1353846 C33.1778462,37.1353846 37.196,33.1172308 37.196,28.1796923 C37.2015385,23.2352308 33.1833846,19.2170769 28.2389231,19.2170769 L28.2389231,19.2170769 Z" id="Fill-1"></path>
                    <path d="M29.2510769,89.2426154 C16.3838462,89.2426154 6.72892308,85.1164615 6.30107692,79.4256923 C5.90092308,74.1046154 13.2518462,71.8809231 17.6701538,71.0266154 L19.6833846,73.7196923 C11.8893846,74.4936923 9.31953846,78.1227692 9.39569231,79.128 C9.57430769,81.5026154 16.2315385,86.4526154 29.1153846,86.4526154 C41.3983077,86.4526154 46.9312308,81.6272308 47.0932308,79.4201538 C47.2123077,77.814 42.9296923,73.9910769 36.8221538,73.6767692 L38.8783077,70.9781538 C49.5107692,72.936 50.3332308,77.7336923 50.1878462,79.7012308 C49.7821538,85.3213846 41.1712308,89.2426154 29.2510769,89.2426154 L29.2510769,89.2426154 Z" id="Fill-2"></path>
                </g>
                <path d="M8.64550781,11 L6.64257812,11 L1.72753906,3.03613281 L1.67285156,3.03613281 L1.70703125,3.48046875 C1.77083365,4.32812924 1.80273438,5.10286107 1.80273438,5.8046875 L1.80273438,11 L0.319335938,11 L0.319335938,1.00585938 L2.30175781,1.00585938 L7.203125,8.92871094 L7.24414062,8.92871094 C7.235026,8.82389271 7.21679701,8.44222334 7.18945312,7.78369141 C7.16210924,7.12515947 7.1484375,6.61132997 7.1484375,6.2421875 L7.1484375,1.00585938 L8.64550781,1.00585938 L8.64550781,11 Z M17.8193359,7.20605469 C17.8193359,8.4410869 17.5026073,9.40494445 16.8691406,10.0976562 C16.2356739,10.790368 15.3538468,11.1367188 14.2236328,11.1367188 C13.5172491,11.1367188 12.8929064,10.9772151 12.3505859,10.6582031 C11.8082655,10.3391911 11.3912775,9.88118788 11.0996094,9.28417969 C10.8079412,8.68717149 10.6621094,7.99447009 10.6621094,7.20605469 C10.6621094,5.9801371 10.9765594,5.02311542 11.6054688,4.33496094 C12.2343781,3.64680646 13.1207625,3.30273438 14.2646484,3.30273438 C15.3584039,3.30273438 16.2242807,3.65478164 16.8623047,4.35888672 C17.5003287,5.0629918 17.8193359,6.0120383 17.8193359,7.20605469 L17.8193359,7.20605469 Z M12.3164062,7.20605469 C12.3164062,8.95150612 12.9612566,9.82421875 14.2509766,9.82421875 C15.5270246,9.82421875 16.1650391,8.95150612 16.1650391,7.20605469 C16.1650391,5.47883251 15.5224674,4.61523438 14.2373047,4.61523438 C13.5628221,4.61523438 13.0740575,4.83853943 12.7709961,5.28515625 C12.4679347,5.73177307 12.3164062,6.37206614 12.3164062,7.20605469 L12.3164062,7.20605469 Z M29.2353516,8.28613281 C29.2353516,9.17480913 28.9140657,9.87206778 28.2714844,10.3779297 C27.628903,10.8837916 26.7425187,11.1367188 25.6123047,11.1367188 C24.4820907,11.1367188 23.5569697,10.9612648 22.8369141,10.6103516 L22.8369141,9.06542969 C23.2926455,9.27962347 23.7768529,9.44824157 24.2895508,9.57128906 C24.8022487,9.69433655 25.2796202,9.75585938 25.7216797,9.75585938 C26.3688183,9.75585938 26.8461899,9.63281373 27.1538086,9.38671875 C27.4614273,9.14062377 27.6152344,8.81022343 27.6152344,8.39550781 C27.6152344,8.02180803 27.4739597,7.70507942 27.1914062,7.4453125 C26.9088528,7.18554558 26.3255253,6.87793146 25.4414062,6.52246094 C24.5299434,6.15331847 23.8873717,5.7317732 23.5136719,5.2578125 C23.1399721,4.7838518 22.953125,4.21419604 22.953125,3.54882813 C22.953125,2.71483958 23.249346,2.05859614 23.8417969,1.58007812 C24.4342478,1.10156011 25.2294872,0.862304688 26.2275391,0.862304688 C27.1845751,0.862304688 28.1370395,1.07193801 29.0849609,1.49121094 L28.5654297,2.82421875 C27.6767534,2.45051896 26.8837925,2.26367188 26.1865234,2.26367188 C25.657875,2.26367188 25.2568373,2.37874234 24.9833984,2.60888672 C24.7099596,2.8390311 24.5732422,3.14322728 24.5732422,3.52148438 C24.5732422,3.7812513 24.6279291,4.00341705 24.7373047,4.18798828 C24.8466802,4.37255952 25.0266915,4.54687418 25.2773438,4.7109375 C25.527996,4.87500082 25.9791634,5.09147001 26.6308594,5.36035156 C27.364587,5.66569163 27.902342,5.95051951 28.2441406,6.21484375 C28.5859392,6.47916799 28.8365877,6.77766761 28.9960938,7.11035156 C29.1555998,7.44303552 29.2353516,7.83495868 29.2353516,8.28613281 L29.2353516,8.28613281 Z M35.7294922,11 L35.4082031,9.94726562 L35.3535156,9.94726562 C34.9889305,10.4075544 34.6220722,10.7208651 34.2529297,10.887207 C33.8837872,11.053549 33.4098336,11.1367188 32.8310547,11.1367188 C32.0882124,11.1367188 31.5083029,10.9361999 31.0913086,10.5351562 C30.6743143,10.1341126 30.4658203,9.56673544 30.4658203,8.83300781 C30.4658203,8.05370704 30.7552054,7.46582229 31.3339844,7.06933594 C31.9127633,6.67284958 32.7945904,6.45638039 33.9794922,6.41992188 L35.2851562,6.37890625 L35.2851562,5.97558594 C35.2851562,5.49251061 35.1723644,5.13134885 34.9467773,4.89208984 C34.7211903,4.65283083 34.3714216,4.53320312 33.8974609,4.53320312 C33.5100892,4.53320312 33.1386737,4.5901687 32.7832031,4.70410156 C32.4277326,4.81803442 32.0859391,4.95247318 31.7578125,5.10742188 L31.2382812,3.95898438 C31.6484396,3.7447906 32.0973283,3.58186905 32.5849609,3.47021484 C33.0725936,3.35856064 33.5328754,3.30273438 33.9658203,3.30273438 C34.9274137,3.30273438 35.6531551,3.5123677 36.1430664,3.93164062 C36.6329777,4.35091355 36.8779297,5.00943562 36.8779297,5.90722656 L36.8779297,11 L35.7294922,11 Z M33.3369141,9.90625 C33.9202503,9.90625 34.3885073,9.74332845 34.7416992,9.41748047 C35.0948911,9.09163249 35.2714844,8.63476856 35.2714844,8.046875 L35.2714844,7.390625 L34.3007812,7.43164062 C33.5442671,7.45898451 32.9939796,7.58544809 32.6499023,7.81103516 C32.3058251,8.03662222 32.1337891,8.38183361 32.1337891,8.84667969 C32.1337891,9.18392096 32.2340485,9.4448233 32.4345703,9.62939453 C32.6350921,9.81396577 32.9358704,9.90625 33.3369141,9.90625 L33.3369141,9.90625 Z M40.8427734,11 L37.9716797,3.43945312 L39.6669922,3.43945312 L41.2050781,7.83496094 C41.4694024,8.57324588 41.628906,9.17024512 41.6835938,9.62597656 L41.7382812,9.62597656 C41.7792971,9.29784992 41.9388007,8.70085068 42.2167969,7.83496094 L43.7548828,3.43945312 L45.4638672,3.43945312 L42.5791016,11 L40.8427734,11 Z M49.9140625,11.1367188 C48.7382754,11.1367188 47.818851,10.793786 47.1557617,10.1079102 C46.4926725,9.42203433 46.1611328,8.47754508 46.1611328,7.27441406 C46.1611328,6.03938185 46.4687469,5.06868843 47.0839844,4.36230469 C47.6992218,3.65592095 48.544591,3.30273438 49.6201172,3.30273438 C50.6181691,3.30273438 51.4065726,3.60579124 51.9853516,4.21191406 C52.5641305,4.81803688 52.8535156,5.65201292 52.8535156,6.71386719 L52.8535156,7.58203125 L47.8154297,7.58203125 C47.8382163,8.31575888 48.0364565,8.87971808 48.4101562,9.27392578 C48.783856,9.66813348 49.310218,9.86523438 49.9892578,9.86523438 C50.4358746,9.86523438 50.8517233,9.82307985 51.2368164,9.73876953 C51.6219095,9.65445921 52.0354796,9.5143239 52.4775391,9.31835938 L52.4775391,10.6240234 C52.08561,10.8108733 51.6891296,10.9430335 51.2880859,11.0205078 C50.8870423,11.0979822 50.429039,11.1367188 49.9140625,11.1367188 L49.9140625,11.1367188 Z M49.6201172,4.51953125 C49.109698,4.51953125 48.7006851,4.68131349 48.3930664,5.00488281 C48.0854477,5.32845214 47.9020185,5.80012711 47.8427734,6.41992188 L51.2744141,6.41992188 C51.2652994,5.79556979 51.1149103,5.32275551 50.8232422,5.00146484 C50.5315741,4.68017417 50.1305364,4.51953125 49.6201172,4.51953125 L49.6201172,4.51953125 Z M57.2285156,11.1367188 C56.2851515,11.1367188 55.5491563,10.7949253 55.0205078,10.1113281 C54.4918593,9.42773096 54.2275391,8.46843065 54.2275391,7.23339844 C54.2275391,5.99380891 54.4952773,5.02881205 55.0307617,4.33837891 C55.5662462,3.64794577 56.307938,3.30273438 57.2558594,3.30273438 C58.2493539,3.30273438 59.0058568,3.66959269 59.5253906,4.40332031 L59.6074219,4.40332031 C59.5299475,3.86099989 59.4912109,3.43261876 59.4912109,3.11816406 L59.4912109,0.36328125 L61.1044922,0.36328125 L61.1044922,11 L59.8466797,11 L59.5664062,10.0087891 L59.4912109,10.0087891 C58.9762344,10.7607459 58.2220102,11.1367188 57.2285156,11.1367188 L57.2285156,11.1367188 Z M57.6591797,9.83789062 C58.3199903,9.83789062 58.8007797,9.65218285 59.1015625,9.28076172 C59.4023453,8.90934059 59.5572916,8.30664479 59.5664062,7.47265625 L59.5664062,7.24707031 C59.5664062,6.29459159 59.4114599,5.61784055 59.1015625,5.21679688 C58.7916651,4.8157532 58.3063184,4.61523438 57.6455078,4.61523438 C57.0804008,4.61523438 56.6451838,4.84423599 56.3398438,5.30224609 C56.0345037,5.7602562 55.8818359,6.4130817 55.8818359,7.26074219 C55.8818359,8.09928805 56.0299464,8.73844181 56.3261719,9.17822266 C56.6223973,9.6180035 57.0667288,9.83789062 57.6591797,9.83789062 L57.6591797,9.83789062 Z M73.8261719,4.02734375 C73.8261719,5.07096876 73.4843784,5.87076545 72.8007812,6.42675781 C72.1171841,6.98275018 71.144212,7.26074219 69.8818359,7.26074219 L68.8427734,7.26074219 L68.8427734,11 L67.2089844,11 L67.2089844,1.00585938 L70.0869141,1.00585938 C71.3356182,1.00585938 72.270993,1.26106516 72.8930664,1.77148438 C73.5151398,2.28190359 73.8261719,3.0338492 73.8261719,4.02734375 L73.8261719,4.02734375 Z M68.8427734,5.88671875 L69.7109375,5.88671875 C70.5494834,5.88671875 71.1647116,5.74088687 71.5566406,5.44921875 C71.9485697,5.15755063 72.1445312,4.70182602 72.1445312,4.08203125 C72.1445312,3.50780963 71.9690773,3.0794285 71.6181641,2.796875 C71.2672508,2.5143215 70.7203813,2.37304688 69.9775391,2.37304688 L68.8427734,2.37304688 L68.8427734,5.88671875 Z M77.2578125,11 L75.6513672,11 L75.6513672,0.36328125 L77.2578125,0.36328125 L77.2578125,11 Z M84.2851562,11 L83.9638672,9.94726562 L83.9091797,9.94726562 C83.5445945,10.4075544 83.1777362,10.7208651 82.8085938,10.887207 C82.4394513,11.053549 81.9654977,11.1367188 81.3867188,11.1367188 C80.6438765,11.1367188 80.0639669,10.9361999 79.6469727,10.5351562 C79.2299784,10.1341126 79.0214844,9.56673544 79.0214844,8.83300781 C79.0214844,8.05370704 79.3108695,7.46582229 79.8896484,7.06933594 C80.4684274,6.67284958 81.3502545,6.45638039 82.5351562,6.41992188 L83.8408203,6.37890625 L83.8408203,5.97558594 C83.8408203,5.49251061 83.7280285,5.13134885 83.5024414,4.89208984 C83.2768543,4.65283083 82.9270857,4.53320312 82.453125,4.53320312 C82.0657533,4.53320312 81.6943377,4.5901687 81.3388672,4.70410156 C80.9833967,4.81803442 80.6416032,4.95247318 80.3134766,5.10742188 L79.7939453,3.95898438 C80.2041036,3.7447906 80.6529924,3.58186905 81.140625,3.47021484 C81.6282576,3.35856064 82.0885395,3.30273438 82.5214844,3.30273438 C83.4830777,3.30273438 84.2088192,3.5123677 84.6987305,3.93164062 C85.1886418,4.35091355 85.4335938,5.00943562 85.4335938,5.90722656 L85.4335938,11 L84.2851562,11 Z M81.8925781,9.90625 C82.4759144,9.90625 82.9441714,9.74332845 83.2973633,9.41748047 C83.6505552,9.09163249 83.8271484,8.63476856 83.8271484,8.046875 L83.8271484,7.390625 L82.8564453,7.43164062 C82.0999311,7.45898451 81.5496436,7.58544809 81.2055664,7.81103516 C80.8614892,8.03662222 80.6894531,8.38183361 80.6894531,8.84667969 C80.6894531,9.18392096 80.7897125,9.4448233 80.9902344,9.62939453 C81.1907562,9.81396577 81.4915345,9.90625 81.8925781,9.90625 L81.8925781,9.90625 Z M90.7246094,11.1367188 C89.5807234,11.1367188 88.7114288,10.8029005 88.1166992,10.1352539 C87.5219697,9.46760734 87.2246094,8.50944635 87.2246094,7.26074219 C87.2246094,5.98925146 87.5356414,5.01172217 88.1577148,4.328125 C88.7797883,3.64452783 89.6787051,3.30273438 90.8544922,3.30273438 C91.6520222,3.30273438 92.3697885,3.45084487 93.0078125,3.74707031 L92.5224609,5.0390625 C91.8434211,4.77473826 91.2828798,4.64257812 90.8408203,4.64257812 C89.5328711,4.64257812 88.8789062,5.51073351 88.8789062,7.24707031 C88.8789062,8.0947308 89.0418278,8.73160594 89.3676758,9.15771484 C89.6935238,9.58382375 90.1708953,9.796875 90.7998047,9.796875 C91.5153031,9.796875 92.1920541,9.6191424 92.8300781,9.26367188 L92.8300781,10.6650391 C92.5429673,10.8336597 92.2364925,10.9544267 91.9106445,11.0273438 C91.5847965,11.1002608 91.1894554,11.1367188 90.7246094,11.1367188 L90.7246094,11.1367188 Z M97.9091797,11.1367188 C96.7333926,11.1367188 95.8139682,10.793786 95.1508789,10.1079102 C94.4877897,9.42203433 94.15625,8.47754508 94.15625,7.27441406 C94.15625,6.03938185 94.4638641,5.06868843 95.0791016,4.36230469 C95.694339,3.65592095 96.5397082,3.30273438 97.6152344,3.30273438 C98.6132862,3.30273438 99.4016898,3.60579124 99.9804688,4.21191406 C100.559248,4.81803688 100.848633,5.65201292 100.848633,6.71386719 L100.848633,7.58203125 L95.8105469,7.58203125 C95.8333334,8.31575888 96.0315737,8.87971808 96.4052734,9.27392578 C96.7789732,9.66813348 97.3053351,9.86523438 97.984375,9.86523438 C98.4309918,9.86523438 98.8468405,9.82307985 99.2319336,9.73876953 C99.6170267,9.65445921 100.030597,9.5143239 100.472656,9.31835938 L100.472656,10.6240234 C100.080727,10.8108733 99.6842468,10.9430335 99.2832031,11.0205078 C98.8821595,11.0979822 98.4241562,11.1367188 97.9091797,11.1367188 L97.9091797,11.1367188 Z M97.6152344,4.51953125 C97.1048152,4.51953125 96.6958023,4.68131349 96.3881836,5.00488281 C96.0805649,5.32845214 95.8971357,5.80012711 95.8378906,6.41992188 L99.2695312,6.41992188 C99.2604166,5.79556979 99.1100275,5.32275551 98.8183594,5.00146484 C98.5266912,4.68017417 98.1256536,4.51953125 97.6152344,4.51953125 L97.6152344,4.51953125 Z M107.75293,8.84667969 C107.75293,9.58496463 107.484052,10.1512025 106.946289,10.5454102 C106.408526,10.9396179 105.638351,11.1367188 104.635742,11.1367188 C103.628576,11.1367188 102.819665,10.984051 102.208984,10.6787109 L102.208984,9.29101562 C103.097661,9.70117393 103.924801,9.90625 104.69043,9.90625 C105.679367,9.90625 106.173828,9.60775038 106.173828,9.01074219 C106.173828,8.81933498 106.119141,8.65983137 106.009766,8.53222656 C105.90039,8.40462176 105.720379,8.27246162 105.469727,8.13574219 C105.219074,7.99902275 104.870445,7.84407639 104.423828,7.67089844 C103.553381,7.33365717 102.964357,6.99642096 102.656738,6.65917969 C102.34912,6.32193842 102.195312,5.88444279 102.195312,5.34667969 C102.195312,4.69954104 102.456215,4.19710465 102.978027,3.83935547 C103.49984,3.48160628 104.209631,3.30273438 105.107422,3.30273438 C105.996098,3.30273438 106.83691,3.4827456 107.629883,3.84277344 L107.110352,5.05273438 C106.294592,4.71549311 105.608727,4.546875 105.052734,4.546875 C104.205074,4.546875 103.78125,4.78840904 103.78125,5.27148438 C103.78125,5.50846473 103.891763,5.70898355 104.112793,5.87304688 C104.333823,6.0371102 104.815751,6.26269388 105.558594,6.54980469 C106.182946,6.79134235 106.636392,7.01236879 106.918945,7.21289062 C107.201499,7.41341246 107.411132,7.6446927 107.547852,7.90673828 C107.684571,8.16878386 107.75293,8.48209453 107.75293,8.84667969 L107.75293,8.84667969 Z" id="No-Saved-Places" sketch:type="MSShapeGroup"></path>
            </g>
        </g>
    </g>
</svg>