<?xml version="1.0" encoding="UTF-8" standalone="no"?>
<svg width="107px" height="113px" viewBox="0 0 107 113" version="1.1" xmlns="http://www.w3.org/2000/svg" xmlns:xlink="http://www.w3.org/1999/xlink" xmlns:sketch="http://www.bohemiancoding.com/sketch/ns">
    <!-- Generator: Sketch 3.3.3 (12081) - http://www.bohemiancoding.com/sketch -->
    <title>No chats yet + Imported Layers</title>
    <desc>Created with Sketch.</desc>
    <defs></defs>
    <g id="Page-1" stroke="none" stroke-width="1" fill="none" fill-rule="evenodd" sketch:type="MSPage">
        <g id="iPhone-6" sketch:type="MSArtboardGroup" transform="translate(-127.625000, -259.000000)" fill="#979797">
            <g id="No-chats-yet-+-Imported-Layers" sketch:type="MSLayerGroup" transform="translate(128.000000, 255.000000)">
                <text id="No-chats" sketch:type="MSTextLayer" font-family="Open Sans" font-size="14" font-weight="526">
                    <tspan x="24" y="15">No chats</tspan>
                </text>
                <path d="M17.0454545,116.5 L17.0454545,96.4418182 L6.39272727,96.4418182 C2.86909091,96.4418182 0,93.5727273 0,90.0509091 L0,30.3909091 C0,26.8690909 2.86909091,24 6.39272727,24 L100.141818,24 C103.665455,24 106.534545,26.8690909 106.534545,30.3909091 L106.534545,90.0509091 C106.534545,93.5727273 103.665455,96.4418182 100.141818,96.4418182 L37.1018182,96.4418182 L17.0454545,116.5 Z M6.39272727,28.26 C5.22,28.26 4.26181818,29.22 4.26181818,30.3909091 L4.26181818,90.0509091 C4.26181818,91.2218182 5.22,92.1818182 6.39272727,92.1818182 L21.3072727,92.1818182 L21.3072727,106.214545 L35.3418182,92.1818182 L100.141818,92.1818182 C101.314545,92.1818182 102.272727,91.2218182 102.272727,90.0509091 L102.272727,30.3909091 C102.272727,29.22 101.314545,28.26 100.141818,28.26 L6.39272727,28.26 Z" id="Imported-Layers" sketch:type="MSShapeGroup"></path>
            </g>
        </g>
    </g>
</svg>