<?xml version="1.0" encoding="UTF-8" standalone="no"?>
<svg width="108px" height="110px" viewBox="0 0 108 110" version="1.1" xmlns="http://www.w3.org/2000/svg" xmlns:xlink="http://www.w3.org/1999/xlink" xmlns:sketch="http://www.bohemiancoding.com/sketch/ns">
    <!-- Generator: Sketch 3.3.3 (12081) - http://www.bohemiancoding.com/sketch -->
    <title>Imported Layers + No Contacts</title>
    <desc>Created with Sketch.</desc>
    <defs></defs>
    <g id="Page-1" stroke="none" stroke-width="1" fill="none" fill-rule="evenodd" sketch:type="MSPage">
        <g id="iPhone-6" sketch:type="MSArtboardGroup" transform="translate(-132.625000, -176.000000)" fill="#979797">
            <g id="Imported-Layers-+-No-Contacts" sketch:type="MSLayerGroup" transform="translate(133.250000, 176.000000)">
                <g id="Imported-Layers" transform="translate(0.000000, 20.000000)" sketch:type="MSShapeGroup">
                    <path d="M54,47 C45.7292454,47 39,40.2707546 39,32 C39,23.7274168 45.7292454,17 54,17 C62.2707546,17 69,23.7274168 69,32 C69,40.2707546 62.2707546,47 54,47 L54,47 Z M54,21.2844081 C48.0936243,21.2844081 43.2862367,26.0917957 43.2862367,32 C43.2862367,37.9063757 48.0936243,42.7137633 54,42.7137633 C59.9063757,42.7137633 64.7137633,37.9063757 64.7137633,32 C64.7137633,26.0917957 59.9063757,21.2844081 54,21.2844081 Z M82,73 L26,73 L26,70.8213994 C26,68.6725407 26,64.2075247 28.0530393,59.6681538 C30.6225548,53.9911518 35.4619929,50.143282 42.440856,48.2397948 L43.3230931,48 L44.1060785,48.4721541 C47.0854667,50.2659677 50.5114875,51.2177114 54,51.2177114 C57.4885125,51.2177114 60.9145333,50.2659677 63.9012735,48.4721541 L64.6824209,48 L65.566496,48.2397948 C72.5453591,50.143282 77.3847972,53.9911518 79.9543127,59.6681538 C82,64.2075247 82,68.6725407 82,70.8213994 L82,73 Z M100.579343,90 L6.42065741,90 C2.88162611,90 0,87.1144703 0,83.5724735 L0,6.42752651 C0,2.88552968 2.88162611,0 6.42065741,0 L100.579343,0 C104.118374,0 107,2.88552968 107,6.42752651 L107,83.5724735 C107,87.1144703 104.118374,90 100.579343,90 Z M30.3505317,68.6446576 L77.6494683,68.6446576 C77.4123671,63.9026693 75.8188263,55.9448286 65.272417,52.6917986 C61.8261783,54.578556 57.948011,55.5730538 54,55.5730538 C50.051989,55.5730538 46.1738217,54.578556 42.727583,52.6917986 C32.1811737,55.9448286 30.5876329,63.9026693 30.3505317,68.6446576 Z M6.42065741,4.28440814 C5.24280643,4.28440814 4.28043827,5.24990857 4.28043827,6.42752651 L4.28043827,83.5724735 C4.28043827,84.7500914 5.24280643,85.7155919 6.42065741,85.7155919 L100.579343,85.7155919 C101.757194,85.7155919 102.719562,84.7500914 102.719562,83.5724735 L102.719562,6.42752651 C102.719562,5.24990857 101.757194,4.28440814 100.579343,4.28440814 L6.42065741,4.28440814 Z" id="Fill-1"></path>
                </g>
                <path d="M21.6455078,11 L19.6425781,11 L14.7275391,3.03613281 L14.6728516,3.03613281 L14.7070312,3.48046875 C14.7708337,4.32812924 14.8027344,5.10286107 14.8027344,5.8046875 L14.8027344,11 L13.3193359,11 L13.3193359,1.00585938 L15.3017578,1.00585938 L20.203125,8.92871094 L20.2441406,8.92871094 C20.235026,8.82389271 20.216797,8.44222334 20.1894531,7.78369141 C20.1621092,7.12515947 20.1484375,6.61132997 20.1484375,6.2421875 L20.1484375,1.00585938 L21.6455078,1.00585938 L21.6455078,11 Z M30.8193359,7.20605469 C30.8193359,8.4410869 30.5026073,9.40494445 29.8691406,10.0976562 C29.2356739,10.790368 28.3538468,11.1367188 27.2236328,11.1367188 C26.5172491,11.1367188 25.8929064,10.9772151 25.3505859,10.6582031 C24.8082655,10.3391911 24.3912775,9.88118788 24.0996094,9.28417969 C23.8079412,8.68717149 23.6621094,7.99447009 23.6621094,7.20605469 C23.6621094,5.9801371 23.9765594,5.02311542 24.6054688,4.33496094 C25.2343781,3.64680646 26.1207625,3.30273437 27.2646484,3.30273437 C28.3584039,3.30273437 29.2242807,3.65478164 29.8623047,4.35888672 C30.5003287,5.0629918 30.8193359,6.0120383 30.8193359,7.20605469 L30.8193359,7.20605469 Z M25.3164062,7.20605469 C25.3164062,8.95150612 25.9612566,9.82421875 27.2509766,9.82421875 C28.5270246,9.82421875 29.1650391,8.95150612 29.1650391,7.20605469 C29.1650391,5.47883251 28.5224674,4.61523438 27.2373047,4.61523438 C26.5628221,4.61523438 26.0740575,4.83853943 25.7709961,5.28515625 C25.4679347,5.73177307 25.3164062,6.37206614 25.3164062,7.20605469 L25.3164062,7.20605469 Z M40.7246094,2.26367188 C39.7858026,2.26367188 39.0475287,2.59635084 38.5097656,3.26171875 C37.9720025,3.92708666 37.703125,4.84537175 37.703125,6.01660156 C37.703125,7.24251915 37.9617487,8.16991873 38.4790039,8.79882812 C38.9962591,9.42773752 39.7447868,9.7421875 40.7246094,9.7421875 C41.1484396,9.7421875 41.5585918,9.70003297 41.9550781,9.61572266 C42.3515645,9.53141234 42.7639953,9.42317774 43.1923828,9.29101562 L43.1923828,10.6923828 C42.4085247,10.9886083 41.5198617,11.1367188 40.5263672,11.1367188 C39.0634692,11.1367188 37.9401081,10.6935266 37.15625,9.80712891 C36.3723919,8.92073125 35.9804688,7.65267752 35.9804688,6.00292969 C35.9804688,4.96386199 36.1707338,4.0546914 36.5512695,3.27539062 C36.9318053,2.49608985 37.4820928,1.89909062 38.2021484,1.484375 C38.9222041,1.06965938 39.7675733,0.862304688 40.7382812,0.862304688 C41.7591197,0.862304688 42.7024696,1.07649525 43.5683594,1.50488281 L42.9804688,2.86523438 C42.6432275,2.70572837 42.286623,2.56559305 41.9106445,2.44482422 C41.5346661,2.32405539 41.139325,2.26367188 40.7246094,2.26367188 L40.7246094,2.26367188 Z M51.8808594,7.20605469 C51.8808594,8.4410869 51.5641308,9.40494445 50.9306641,10.0976562 C50.2971974,10.790368 49.4153702,11.1367188 48.2851562,11.1367188 C47.5787725,11.1367188 46.9544298,10.9772151 46.4121094,10.6582031 C45.869789,10.3391911 45.4528009,9.88118788 45.1611328,9.28417969 C44.8694647,8.68717149 44.7236328,7.99447009 44.7236328,7.20605469 C44.7236328,5.9801371 45.0380828,5.02311542 45.6669922,4.33496094 C46.2959016,3.64680646 47.1822859,3.30273437 48.3261719,3.30273437 C49.4199273,3.30273437 50.2858041,3.65478164 50.9238281,4.35888672 C51.5618521,5.0629918 51.8808594,6.0120383 51.8808594,7.20605469 L51.8808594,7.20605469 Z M46.3779297,7.20605469 C46.3779297,8.95150612 47.02278,9.82421875 48.3125,9.82421875 C49.588548,9.82421875 50.2265625,8.95150612 50.2265625,7.20605469 C50.2265625,5.47883251 49.5839908,4.61523438 48.2988281,4.61523438 C47.6243456,4.61523438 47.1355809,4.83853943 46.8325195,5.28515625 C46.5294581,5.73177307 46.3779297,6.37206614 46.3779297,7.20605469 L46.3779297,7.20605469 Z M60.3779297,11 L58.7646484,11 L58.7646484,6.3515625 C58.7646484,5.76822625 58.6472994,5.33300925 58.4125977,5.04589844 C58.177896,4.75878763 57.8053411,4.61523438 57.2949219,4.61523438 C56.615882,4.61523438 56.1191422,4.8157532 55.8046875,5.21679688 C55.4902328,5.61784055 55.3330078,6.29003435 55.3330078,7.23339844 L55.3330078,11 L53.7265625,11 L53.7265625,3.43945312 L54.984375,3.43945312 L55.2099609,4.43066406 L55.2919922,4.43066406 C55.5198579,4.07063622 55.8434224,3.79264421 56.2626953,3.59667969 C56.6819682,3.40071517 57.1468073,3.30273438 57.6572266,3.30273438 C59.4710377,3.30273438 60.3779297,4.22557671 60.3779297,6.07128906 L60.3779297,11 Z M65.4296875,9.83789062 C65.8216165,9.83789062 66.2135397,9.7763678 66.6054688,9.65332031 L66.6054688,10.8632812 C66.4277335,10.9407556 66.1987319,11.0056964 65.918457,11.0581055 C65.6381822,11.1105146 65.3476578,11.1367188 65.046875,11.1367188 C63.524732,11.1367188 62.7636719,10.3346434 62.7636719,8.73046875 L62.7636719,4.65625 L61.7314453,4.65625 L61.7314453,3.9453125 L62.8388672,3.35742188 L63.3857422,1.7578125 L64.3769531,1.7578125 L64.3769531,3.43945312 L66.5302734,3.43945312 L66.5302734,4.65625 L64.3769531,4.65625 L64.3769531,8.703125 C64.3769531,9.09049673 64.4737946,9.37646392 64.6674805,9.56103516 C64.8611663,9.74560639 65.1152328,9.83789062 65.4296875,9.83789062 L65.4296875,9.83789062 Z M72.8466797,11 L72.5253906,9.94726562 L72.4707031,9.94726562 C72.106118,10.4075544 71.7392597,10.7208651 71.3701172,10.887207 C71.0009747,11.053549 70.5270211,11.1367188 69.9482422,11.1367188 C69.2053999,11.1367188 68.6254904,10.9361999 68.2084961,10.5351562 C67.7915018,10.1341126 67.5830078,9.56673544 67.5830078,8.83300781 C67.5830078,8.05370704 67.8723929,7.46582229 68.4511719,7.06933594 C69.0299508,6.67284958 69.9117779,6.45638039 71.0966797,6.41992188 L72.4023438,6.37890625 L72.4023438,5.97558594 C72.4023438,5.49251061 72.2895519,5.13134885 72.0639648,4.89208984 C71.8383778,4.65283083 71.4886091,4.53320312 71.0146484,4.53320312 C70.6272767,4.53320312 70.2558612,4.5901687 69.9003906,4.70410156 C69.5449201,4.81803442 69.2031266,4.95247318 68.875,5.10742188 L68.3554688,3.95898437 C68.7656271,3.7447906 69.2145158,3.58186905 69.7021484,3.47021484 C70.1897811,3.35856064 70.6500629,3.30273437 71.0830078,3.30273437 C72.0446012,3.30273437 72.7703426,3.5123677 73.2602539,3.93164062 C73.7501652,4.35091355 73.9951172,5.00943562 73.9951172,5.90722656 L73.9951172,11 L72.8466797,11 Z M70.4541016,9.90625 C71.0374378,9.90625 71.5056948,9.74332845 71.8588867,9.41748047 C72.2120786,9.09163249 72.3886719,8.63476856 72.3886719,8.046875 L72.3886719,7.390625 L71.4179688,7.43164062 C70.6614546,7.45898451 70.1111671,7.58544809 69.7670898,7.81103516 C69.4230126,8.03662222 69.2509766,8.38183361 69.2509766,8.84667969 C69.2509766,9.18392096 69.351236,9.4448233 69.5517578,9.62939453 C69.7522796,9.81396577 70.0530579,9.90625 70.4541016,9.90625 L70.4541016,9.90625 Z M79.2861328,11.1367188 C78.1422469,11.1367188 77.2729522,10.8029005 76.6782227,10.1352539 C76.0834931,9.46760734 75.7861328,8.50944635 75.7861328,7.26074219 C75.7861328,5.98925146 76.0971649,5.01172217 76.7192383,4.328125 C77.3413117,3.64452783 78.2402285,3.30273437 79.4160156,3.30273437 C80.2135457,3.30273437 80.9313119,3.45084487 81.5693359,3.74707031 L81.0839844,5.0390625 C80.4049445,4.77473826 79.8444033,4.64257812 79.4023438,4.64257812 C78.0943945,4.64257812 77.4404297,5.51073351 77.4404297,7.24707031 C77.4404297,8.0947308 77.6033512,8.73160594 77.9291992,9.15771484 C78.2550472,9.58382375 78.7324187,9.796875 79.3613281,9.796875 C80.0768265,9.796875 80.7535775,9.6191424 81.3916016,9.26367188 L81.3916016,10.6650391 C81.1044908,10.8336597 80.798016,10.9544267 80.472168,11.0273438 C80.14632,11.1002608 79.7509789,11.1367188 79.2861328,11.1367188 L79.2861328,11.1367188 Z M85.9853516,9.83789062 C86.3772806,9.83789062 86.7692038,9.7763678 87.1611328,9.65332031 L87.1611328,10.8632812 C86.9833975,10.9407556 86.7543959,11.0056964 86.4741211,11.0581055 C86.1938463,11.1105146 85.9033218,11.1367188 85.6025391,11.1367188 C84.080396,11.1367188 83.3193359,10.3346434 83.3193359,8.73046875 L83.3193359,4.65625 L82.2871094,4.65625 L82.2871094,3.9453125 L83.3945312,3.35742188 L83.9414062,1.7578125 L84.9326172,1.7578125 L84.9326172,3.43945312 L87.0859375,3.43945312 L87.0859375,4.65625 L84.9326172,4.65625 L84.9326172,8.703125 C84.9326172,9.09049673 85.0294587,9.37646392 85.2231445,9.56103516 C85.4168304,9.74560639 85.6708969,9.83789062 85.9853516,9.83789062 L85.9853516,9.83789062 Z M93.7509766,8.84667969 C93.7509766,9.58496463 93.482099,10.1512025 92.9443359,10.5454102 C92.4065728,10.9396179 91.6363982,11.1367188 90.6337891,11.1367188 C89.6266226,11.1367188 88.8177114,10.984051 88.2070312,10.6787109 L88.2070312,9.29101562 C89.0957076,9.70117393 89.9228477,9.90625 90.6884766,9.90625 C91.6774138,9.90625 92.171875,9.60775038 92.171875,9.01074219 C92.171875,8.81933498 92.117188,8.65983137 92.0078125,8.53222656 C91.898437,8.40462176 91.7184257,8.27246162 91.4677734,8.13574219 C91.2171211,7.99902275 90.8684918,7.84407639 90.421875,7.67089844 C89.5514279,7.33365717 88.9624039,6.99642096 88.6547852,6.65917969 C88.3471664,6.32193842 88.1933594,5.88444279 88.1933594,5.34667969 C88.1933594,4.69954104 88.4542617,4.19710465 88.9760742,3.83935547 C89.4978867,3.48160628 90.2076778,3.30273437 91.1054688,3.30273437 C91.9941451,3.30273437 92.834957,3.4827456 93.6279297,3.84277344 L93.1083984,5.05273438 C92.2926392,4.71549311 91.6067736,4.546875 91.0507812,4.546875 C90.2031208,4.546875 89.7792969,4.78840904 89.7792969,5.27148438 C89.7792969,5.50846473 89.8898101,5.70898355 90.1108398,5.87304688 C90.3318696,6.0371102 90.8137984,6.26269388 91.5566406,6.54980469 C92.1809927,6.79134235 92.6344387,7.01236879 92.9169922,7.21289062 C93.1995457,7.41341246 93.409179,7.6446927 93.5458984,7.90673828 C93.6826179,8.16878386 93.7509766,8.48209453 93.7509766,8.84667969 L93.7509766,8.84667969 Z" id="No-Contacts" sketch:type="MSShapeGroup"></path>
            </g>
        </g>
    </g>
</svg>