<?xml version="1.0" encoding="UTF-8" standalone="no"?>
<svg width="85px" height="104px" viewBox="0 0 85 104" version="1.1" xmlns="http://www.w3.org/2000/svg" xmlns:xlink="http://www.w3.org/1999/xlink" xmlns:sketch="http://www.bohemiancoding.com/sketch/ns">
    <!-- Generator: Sketch 3.3.3 (12081) - http://www.bohemiancoding.com/sketch -->
    <title>No Photos + Imported Layers</title>
    <desc>Created with Sketch.</desc>
    <defs></defs>
    <g id="Page-1" stroke="none" stroke-width="1" fill="none" fill-rule="evenodd" sketch:type="MSPage">
        <g id="iPhone-6" sketch:type="MSArtboardGroup" transform="translate(-142.625000, -562.000000)" fill="#979797">
            <g id="No-Photos-+-Imported-Layers" sketch:type="MSLayerGroup" transform="translate(142.000000, 558.000000)">
                <text id="No-Photos" sketch:type="MSTextLayer" font-family="Open Sans" font-size="14" font-weight="526">
                    <tspan x="7" y="15">No Photos</tspan>
                </text>
                <g id="Imported-Layers" transform="translate(0.000000, 24.000000)" sketch:type="MSShapeGroup">
                    <path d="M85,83.9880952 L1.01190476,83.9880952 L1.01190476,9.10714286 L85,9.10714286 L85,83.9880952 Z M3.03571429,81.9642857 L82.9761905,81.9642857 L82.9761905,11.1309524 L3.03571429,11.1309524 L3.03571429,81.9642857 Z M3.03571429,5.05952381 L82.9761905,5.05952381 L82.9761905,7.08333333 L3.03571429,7.08333333 L3.03571429,5.05952381 Z M5.05952381,1.01190476 L80.952381,1.01190476 L80.952381,3.03571429 L5.05952381,3.03571429 L5.05952381,1.01190476 Z M23.2738095,35.7229365 C18.0146032,35.7229365 13.6607143,31.4742857 13.6607143,26.1098413 C13.6607143,20.7440476 17.9080159,16.496746 23.2738095,16.496746 C28.6396032,16.496746 32.8869048,20.7440476 32.8869048,26.1098413 C32.8869048,31.4742857 28.5330159,35.7229365 23.2738095,35.7229365 Z M23.2738095,18.6203968 C19.1263492,18.6203968 15.6845238,21.9610317 15.6845238,26.2096825 C15.6845238,30.4569841 19.0265079,33.7989683 23.2738095,33.7989683 C27.5211111,33.7989683 30.8630952,30.4569841 30.8630952,26.2096825 C30.8630952,21.9610317 27.4212698,18.6203968 23.2738095,18.6203968 Z M3.03571429,71.5389683 L27.5211111,49.077381 L34.0984921,55.7546032 L54.0370635,35.8227778 L82.9761905,62.5384127 L82.9761905,59.5026984 L53.9372222,33.0865873 L34.0984921,52.8187302 L27.6276984,46.3479365 L3.03571429,68.7096825 L3.03571429,71.5389683 Z" id="Fill-1"></path>
                </g>
            </g>
        </g>
    </g>
</svg>