<?xml version="1.0" encoding="UTF-8" standalone="no"?>
<svg width="108px" height="110px" viewBox="0 0 108 110" version="1.1" xmlns="http://www.w3.org/2000/svg" xmlns:xlink="http://www.w3.org/1999/xlink" xmlns:sketch="http://www.bohemiancoding.com/sketch/ns">
    <!-- Generator: Sketch 3.3.3 (12081) - http://www.bohemiancoding.com/sketch -->
    <title>Imported Layers + No Places</title>
    <desc>Created with Sketch.</desc>
    <defs></defs>
    <g id="Page-1" stroke="none" stroke-width="1" fill="none" fill-rule="evenodd" sketch:type="MSPage">
        <g id="iPhone-6" sketch:type="MSArtboardGroup" transform="translate(-135.625000, -397.000000)" fill="#979797">
            <g id="Imported-Layers-+-No-Places" sketch:type="MSLayerGroup" transform="translate(135.000000, 393.000000)">
                <g id="Imported-Layers" transform="translate(26.000000, 24.000000)" sketch:type="MSShapeGroup">
                    <path d="M28.2389231,80.4156923 L26.9470769,78.7070769 C25.8546154,77.2629231 0.222615385,43.1238462 0.222615385,28.1741538 C0.222615385,12.726 12.7921538,0.156461538 28.2389231,0.156461538 C43.6856923,0.156461538 56.2566154,12.726 56.2566154,28.1741538 C56.2566154,43.1238462 30.6246154,77.2573846 29.5321538,78.7070769 L28.2389231,80.4156923 Z M28.2389231,3.39646154 C14.5769231,3.39646154 3.45707692,14.5107692 3.45707692,28.1796923 C3.45707692,40.2452308 22.976,67.8032308 28.2389231,75.0129231 C33.5018462,67.8032308 53.0166154,40.2396923 53.0166154,28.1796923 C53.0221538,14.5107692 41.9064615,3.39646154 28.2389231,3.39646154 L28.2389231,3.39646154 Z M28.2389231,40.3698462 C21.5166154,40.3698462 16.0432308,34.902 16.0432308,28.1796923 C16.0432308,21.456 21.5166154,15.9826154 28.2389231,15.9826154 C34.9626154,15.9826154 40.4304615,21.4504615 40.4304615,28.1796923 C40.436,34.902 34.9681538,40.3698462 28.2389231,40.3698462 L28.2389231,40.3698462 Z M28.2389231,19.2170769 C23.3013846,19.2170769 19.2776923,23.2352308 19.2776923,28.1796923 C19.2776923,33.1172308 23.2958462,37.1353846 28.2389231,37.1353846 C33.1778462,37.1353846 37.196,33.1172308 37.196,28.1796923 C37.2015385,23.2352308 33.1833846,19.2170769 28.2389231,19.2170769 L28.2389231,19.2170769 Z" id="Fill-1"></path>
                    <path d="M29.2510769,89.2426154 C16.3838462,89.2426154 6.72892308,85.1164615 6.30107692,79.4256923 C5.90092308,74.1046154 13.2518462,71.8809231 17.6701538,71.0266154 L19.6833846,73.7196923 C11.8893846,74.4936923 9.31953846,78.1227692 9.39569231,79.128 C9.57430769,81.5026154 16.2315385,86.4526154 29.1153846,86.4526154 C41.3983077,86.4526154 46.9312308,81.6272308 47.0932308,79.4201538 C47.2123077,77.814 42.9296923,73.9910769 36.8221538,73.6767692 L38.8783077,70.9781538 C49.5107692,72.936 50.3332308,77.7336923 50.1878462,79.7012308 C49.7821538,85.3213846 41.1712308,89.2426154 29.2510769,89.2426154 L29.2510769,89.2426154 Z" id="Fill-2"></path>
                </g>
                <text id="No-Saved-Places" sketch:type="MSTextLayer" font-family="Open Sans" font-size="14" font-weight="526">
                    <tspan x="0" y="15">No Saved Places</tspan>
                </text>
            </g>
        </g>
    </g>
</svg>