<?xml version="1.0" encoding="UTF-8" standalone="no"?>
<svg width="91px" height="94px" viewBox="0 0 91 94" version="1.1" xmlns="http://www.w3.org/2000/svg" xmlns:xlink="http://www.w3.org/1999/xlink" xmlns:sketch="http://www.bohemiancoding.com/sketch/ns">
    <!-- Generator: Sketch 3.4 (15588) - http://www.bohemiancoding.com/sketch -->
    <title>All caught up. + Page 1</title>
    <desc>Created with Sketch.</desc>
    <defs></defs>
    <g id="Page-1" stroke="none" stroke-width="1" fill="none" fill-rule="evenodd" sketch:type="MSPage">
        <g id="All-caught-up.-+-Page-1" sketch:type="MSLayerGroup" fill="#979797">
            <text id="All-caught-up." sketch:type="MSTextLayer" font-family="Open Sans" font-size="14" font-weight="526">
                <tspan x="0" y="90">All caught up.</tspan>
            </text>
            <path d="M71.801,13.8460609 C74.977,11.8730609 77.875,12.2370609 80.5,14.9360609 C80.051,12.5100609 79.148,10.3970609 77.801,8.59606094 C74.801,5.02206094 70.676,5.02206094 65.426,8.59606094 C64.375,5.62306094 62.949,3.29906094 61.148,1.62306094 C57.25,-1.82593906 53.074,0.221060943 48.625,7.77206094 C50.102,6.84606094 51.875,6.45906094 53.949,6.61206094 C56.801,7.48706094 58.449,9.49806094 58.898,12.6470609 C56.949,11.5960609 54.926,11.3730609 52.824,11.9710609 C48.625,13.0450609 46.074,17.4240609 45.176,25.0960609 C45.742,23.6120609 47.98,22.0490609 51.887,20.4080609 C55.793,18.7680609 58.758,18.8300609 60.773,20.5960609 L52.375,34.9980609 C48.398,42.3220609 45.438,49.6740609 43.488,57.0490609 C42.012,52.8500609 39.727,47.9080609 36.625,42.2370609 L32.352,36.1580609 C33.402,33.2830609 35.875,32.5220609 39.773,33.8730609 C41.723,34.6230609 43.523,35.6860609 45.176,37.0610609 C44.426,31.3340609 42.102,28.0220609 38.199,27.1230609 C36.324,26.7480609 34.449,26.8970609 32.574,27.5720609 C33.176,25.2990609 34.898,23.8620609 37.75,23.2600609 C39.25,22.8110609 40.602,22.6580609 41.801,22.8110609 C37.898,18.0100609 34.227,16.8850609 30.773,19.4360609 C28.973,20.7830609 27.625,22.5960609 26.727,24.8730609 C21.926,22.1470609 18.176,22.0720609 15.477,24.6470609 C14.277,25.9980609 13.449,27.5720609 13,29.3730609 C14.949,27.5720609 17.125,27.0490609 19.523,27.7990609 C20.723,28.1000609 21.699,28.6230609 22.449,29.3730609 C17.801,31.4710609 16.074,34.8620609 17.273,39.5330609 C17.875,41.9360609 18.926,44.0330609 20.426,45.8340609 C19.824,41.9360609 20.801,39.2370609 23.352,37.7370609 C24.801,36.8850609 26.074,36.5840609 27.176,36.8340609 C30.523,39.0610609 33.477,46.5840609 36.023,59.4080609 C31.824,59.9830609 28.449,60.9980609 25.898,62.4480609 C23.301,63.9240609 22,65.6120609 22,67.5100609 L63.398,67.5100609 C63.398,63.7600609 59.199,61.1350609 50.801,59.6350609 C56.648,39.4590609 61.438,27.0720609 65.164,22.4710609 C67.355,22.1580609 69.117,23.3690609 70.449,26.1120609 C71.781,28.8500609 72.434,32.4240609 72.398,36.8340609 C74.051,34.4080609 75.25,31.6230609 76,28.4710609 C77.199,22.2950609 75.25,17.7830609 70.148,14.9360609 L71.801,13.8460609 Z" id="Page-1" sketch:type="MSShapeGroup"></path>
        </g>
    </g>
</svg>