<?xml version="1.0" encoding="UTF-8" standalone="no"?>
<svg width="113px" height="111px" viewBox="0 0 113 111" version="1.1" xmlns="http://www.w3.org/2000/svg" xmlns:xlink="http://www.w3.org/1999/xlink" xmlns:sketch="http://www.bohemiancoding.com/sketch/ns">
    <!-- Generator: Sketch 3.5.1 (25234) - http://www.bohemiancoding.com/sketch -->
    <title>Group</title>
    <desc>Created with Sketch.</desc>
    <defs></defs>
    <g id="Page-1" stroke="none" stroke-width="1" fill="none" fill-rule="evenodd" sketch:type="MSPage">
        <g id="iPhone-6" sketch:type="MSArtboardGroup" transform="translate(-226.000000, -307.000000)" fill="#979797">
            <g id="Group" sketch:type="MSLayerGroup" transform="translate(226.000000, 307.000000)">
                <g id="Imported-Layers-+-No-Places-Copy" transform="translate(28.000000, 21.000000)" sketch:type="MSShapeGroup">
                    <g id="Imported-Layers">
                        <path d="M28.2389231,80.4156923 L26.9470769,78.7070769 C25.8546154,77.2629231 0.222615385,43.1238462 0.222615385,28.1741538 C0.222615385,12.726 12.7921538,0.156461538 28.2389231,0.156461538 C43.6856923,0.156461538 56.2566154,12.726 56.2566154,28.1741538 C56.2566154,43.1238462 30.6246154,77.2573846 29.5321538,78.7070769 L28.2389231,80.4156923 Z M28.2389231,3.39646154 C14.5769231,3.39646154 3.45707692,14.5107692 3.45707692,28.1796923 C3.45707692,40.2452308 22.976,67.8032308 28.2389231,75.0129231 C33.5018462,67.8032308 53.0166154,40.2396923 53.0166154,28.1796923 C53.0221538,14.5107692 41.9064615,3.39646154 28.2389231,3.39646154 L28.2389231,3.39646154 Z M28.2389231,40.3698462 C21.5166154,40.3698462 16.0432308,34.902 16.0432308,28.1796923 C16.0432308,21.456 21.5166154,15.9826154 28.2389231,15.9826154 C34.9626154,15.9826154 40.4304615,21.4504615 40.4304615,28.1796923 C40.436,34.902 34.9681538,40.3698462 28.2389231,40.3698462 L28.2389231,40.3698462 Z M28.2389231,19.2170769 C23.3013846,19.2170769 19.2776923,23.2352308 19.2776923,28.1796923 C19.2776923,33.1172308 23.2958462,37.1353846 28.2389231,37.1353846 C33.1778462,37.1353846 37.196,33.1172308 37.196,28.1796923 C37.2015385,23.2352308 33.1833846,19.2170769 28.2389231,19.2170769 L28.2389231,19.2170769 Z" id="Fill-1"></path>
                        <path d="M29.2510769,89.2426154 C16.3838462,89.2426154 6.72892308,85.1164615 6.30107692,79.4256923 C5.90092308,74.1046154 13.2518462,71.8809231 17.6701538,71.0266154 L19.6833846,73.7196923 C11.8893846,74.4936923 9.31953846,78.1227692 9.39569231,79.128 C9.57430769,81.5026154 16.2315385,86.4526154 29.1153846,86.4526154 C41.3983077,86.4526154 46.9312308,81.6272308 47.0932308,79.4201538 C47.2123077,77.814 42.9296923,73.9910769 36.8221538,73.6767692 L38.8783077,70.9781538 C49.5107692,72.936 50.3332308,77.7336923 50.1878462,79.7012308 C49.7821538,85.3213846 41.1712308,89.2426154 29.2510769,89.2426154 L29.2510769,89.2426154 Z" id="Fill-2"></path>
                    </g>
                </g>
                <path d="M0.168,12 L0.168,1.216 L2.12,1.216 L4.776,5.728 C5.26666912,6.57067088 5.711998,7.34932976 6.112,8.064 C6.512002,8.77867024 6.78666592,9.27999856 6.936,9.568 L7.16,10.016 C7.09599968,9.04532848 7.064,7.62134272 7.064,5.744 L7.064,1.216 L8.712,1.216 L8.712,12 L6.76,12 L4.088,7.504 C3.6079976,6.69332928 3.168002,5.9280036 2.768,5.208 C2.367998,4.4879964 2.0880008,3.9680016 1.928,3.648 L1.688,3.184 C1.77333376,4.250672 1.816,5.68532432 1.816,7.488 L1.816,12 L0.168,12 Z M14.376,12.144 C13.1813274,12.144 12.2426701,11.7546706 11.56,10.976 C10.8773299,10.1973294 10.536,9.21067264 10.536,8.016 C10.536,6.79999392 10.8879965,5.78933736 11.592,4.984 C12.2960035,4.17866264 13.2239942,3.776 14.376,3.776 C15.6133395,3.776 16.5679966,4.16799608 17.24,4.952 C17.9120034,5.73600392 18.248,6.73599392 18.248,7.952 C18.248,9.16800608 17.9040034,10.1706627 17.216,10.96 C16.5279966,11.7493373 15.5813394,12.144 14.376,12.144 L14.376,12.144 Z M14.36,5.104 C13.6666632,5.104 13.1280019,5.37866392 12.744,5.928 C12.3599981,6.47733608 12.168,7.15732928 12.168,7.968 C12.168,8.768004 12.3653314,9.44266392 12.76,9.992 C13.1546686,10.5413361 13.6933299,10.816 14.376,10.816 C15.101337,10.816 15.6533314,10.549336 16.032,10.016 C16.4106686,9.482664 16.6,8.80533744 16.6,7.984 C16.6,7.14132912 16.4186685,6.45066936 16.056,5.912 C15.6933315,5.37333064 15.1280038,5.104 14.36,5.104 L14.36,5.104 Z M25.656,6.816 L27.24,6.816 C27.9333368,6.79466656 28.4773314,6.58666864 28.872,6.192 C29.2666686,5.79733136 29.464,5.3066696 29.464,4.72 C29.464,4.10133024 29.2586687,3.592002 28.848,3.192 C28.4373313,2.791998 27.869337,2.58666672 27.144,2.576 L25.656,2.576 L25.656,6.816 Z M24.008,1.216 L27.096,1.216 C28.3333395,1.216 29.314663,1.54399672 30.04,2.2 C30.765337,2.85600328 31.128,3.69599488 31.128,4.72 C31.128,5.74400512 30.7626703,6.5759968 30.032,7.216 C29.3013297,7.8560032 28.3546725,8.176 27.192,8.176 L25.656,8.176 L25.656,12 L24.008,12 L24.008,1.216 Z M32.808,12 L32.808,0.688 L34.392,0.688 L34.392,12 L32.808,12 Z M40.936,8.384 L39.72,8.384 C39.1226637,8.384 38.6720015,8.50133216 38.368,8.736 C38.0639985,8.97066784 37.912,9.26933152 37.912,9.632 C37.912,10.0053352 38.0293322,10.2986656 38.264,10.512 C38.4986678,10.7253344 38.8399978,10.832 39.288,10.832 C39.8000026,10.832 40.2026652,10.6906681 40.496,10.408 C40.7893348,10.1253319 40.936,9.75466896 40.936,9.296 L40.936,8.384 Z M36.856,5.824 L36.856,4.304 C37.4853365,3.94133152 38.3173282,3.76 39.352,3.76 C41.4746773,3.76 42.536,4.78932304 42.536,6.848 L42.536,12 L40.984,12 L40.984,11.04 C40.5679979,11.7226701 39.8373386,12.064 38.792,12.064 C38.0239962,12.064 37.4080023,11.8426689 36.944,11.4 C36.4799977,10.9573311 36.248,10.3946701 36.248,9.712 C36.248,8.93332944 36.5413304,8.32800216 37.128,7.896 C37.7146696,7.46399784 38.5359947,7.248 39.592,7.248 L40.936,7.248 L40.936,6.784 C40.936,6.22933056 40.802668,5.81066808 40.536,5.528 C40.269332,5.24533192 39.8266698,5.104 39.208,5.104 C38.3439957,5.104 37.5600035,5.3439976 36.856,5.824 L36.856,5.824 Z M45.816,7.984 C45.8373334,8.80533744 46.0879976,9.47999736 46.568,10.008 C47.0480024,10.5360026 47.7199957,10.8 48.584,10.8 C49.2240032,10.8 49.8213306,10.6240018 50.376,10.272 L50.376,11.68 C49.8533307,12.0000016 49.1866707,12.16 48.376,12.16 C47.1066603,12.16 46.0933371,11.760004 45.336,10.96 C44.5786629,10.159996 44.2,9.16267264 44.2,7.968 C44.2,6.80532752 44.5813295,5.8106708 45.344,4.984 C46.1066705,4.1573292 47.1386602,3.744 48.44,3.744 C49.1440035,3.744 49.7893304,3.89333184 50.376,4.192 L50.376,5.632 C49.8533307,5.30133168 49.2613366,5.136 48.6,5.136 C47.7573291,5.136 47.0826692,5.402664 46.576,5.936 C46.0693308,6.469336 45.816,7.15199584 45.816,7.984 L45.816,7.984 Z M57.224,7.36 L57.224,7.072 C57.2026666,6.46399696 57.0373349,5.98133512 56.728,5.624 C56.4186651,5.26666488 55.9760029,5.088 55.4,5.088 C54.866664,5.088 54.4080019,5.28266472 54.024,5.672 C53.6399981,6.06133528 53.4000005,6.62399632 53.304,7.36 L57.224,7.36 Z M58.232,10.16 L58.232,11.568 C57.6346637,11.909335 56.8453382,12.08 55.864,12.08 C54.605327,12.08 53.6026704,11.7013371 52.856,10.944 C52.1093296,10.1866629 51.736,9.1946728 51.736,7.968 C51.736,6.66666016 52.0773299,5.64533704 52.76,4.904 C53.4426701,4.16266296 54.3119947,3.792 55.368,3.792 C56.4026718,3.792 57.223997,4.11466344 57.832,4.76 C58.440003,5.40533656 58.744,6.33599392 58.744,7.552 C58.744,7.88266832 58.7120003,8.22933152 58.648,8.592 L53.32,8.592 C53.4266672,9.29600352 53.7253309,9.8346648 54.216,10.208 C54.7066691,10.5813352 55.3253296,10.768 56.072,10.768 C56.9360043,10.768 57.6559971,10.5653354 58.232,10.16 L58.232,10.16 Z M65.208,4.16 L65.208,5.584 C64.6853307,5.27466512 64.0133374,5.12 63.192,5.12 C62.8186648,5.12 62.5226678,5.20533248 62.304,5.376 C62.0853322,5.54666752 61.976,5.77066528 61.976,6.048 C61.976,6.12266704 61.9839999,6.19466632 62,6.264 C62.0160001,6.33333368 62.0453331,6.40266632 62.088,6.472 C62.1306669,6.54133368 62.1706665,6.59999976 62.208,6.648 C62.2453335,6.69600024 62.3066662,6.7466664 62.392,6.8 C62.4773338,6.8533336 62.5439998,6.89866648 62.592,6.936 C62.6400002,6.97333352 62.7199994,7.0186664 62.832,7.072 C62.9440006,7.1253336 63.0266664,7.1653332 63.08,7.192 C63.1333336,7.2186668 63.226666,7.26133304 63.36,7.32 C63.493334,7.37866696 63.5866664,7.41866656 63.64,7.44 C64.2693365,7.71733472 64.7626649,8.0293316 65.12,8.376 C65.4773351,8.7226684 65.656,9.18399712 65.656,9.76 C65.656,10.485337 65.4000026,11.0533313 64.888,11.464 C64.3759974,11.8746687 63.682671,12.08 62.808,12.08 C61.8479952,12.08 61.0480032,11.9200016 60.408,11.6 L60.408,10.112 C61.1546704,10.570669 61.927996,10.8 62.728,10.8 C63.1440021,10.8 63.4666655,10.7146675 63.696,10.544 C63.9253345,10.3733325 64.04,10.1493347 64.04,9.872 C64.04,9.63733216 63.9493342,9.4266676 63.768,9.24 C63.5866658,9.0533324 63.4026676,8.91466712 63.216,8.824 C63.0293324,8.73333288 62.7120022,8.59200096 62.264,8.4 C60.9946603,7.87733072 60.36,7.1093384 60.36,6.096 C60.36,5.38132976 60.626664,4.82133536 61.16,4.416 C61.693336,4.01066464 62.359996,3.808 63.16,3.808 C64.034671,3.808 64.7173309,3.92533216 65.208,4.16 L65.208,4.16 Z M77.4,2.592 L72.936,2.592 L72.936,6.128 L76.856,6.128 L76.856,7.504 L72.936,7.504 L72.936,12 L71.288,12 L71.288,1.216 L77.4,1.216 L77.4,2.592 Z M82.52,12.144 C81.3253274,12.144 80.3866701,11.7546706 79.704,10.976 C79.0213299,10.1973294 78.68,9.21067264 78.68,8.016 C78.68,6.79999392 79.0319965,5.78933736 79.736,4.984 C80.4400035,4.17866264 81.3679942,3.776 82.52,3.776 C83.7573395,3.776 84.7119966,4.16799608 85.384,4.952 C86.0560034,5.73600392 86.392,6.73599392 86.392,7.952 C86.392,9.16800608 86.0480034,10.1706627 85.36,10.96 C84.6719966,11.7493373 83.7253394,12.144 82.52,12.144 L82.52,12.144 Z M82.504,5.104 C81.8106632,5.104 81.2720019,5.37866392 80.888,5.928 C80.5039981,6.47733608 80.312,7.15732928 80.312,7.968 C80.312,8.768004 80.5093314,9.44266392 80.904,9.992 C81.2986686,10.5413361 81.8373299,10.816 82.52,10.816 C83.245337,10.816 83.7973314,10.549336 84.176,10.016 C84.5546686,9.482664 84.744,8.80533744 84.744,7.984 C84.744,7.14132912 84.5626685,6.45066936 84.2,5.912 C83.8373315,5.37333064 83.2720038,5.104 82.504,5.104 L82.504,5.104 Z M93.192,3.888 L94.76,3.888 L94.76,12 L93.192,12 L93.192,10.608 C92.7653312,11.600005 91.922673,12.096 90.664,12.096 C89.863996,12.096 89.2293357,11.858669 88.76,11.384 C88.2906643,10.909331 88.056,10.2560042 88.056,9.424 L88.056,3.888 L89.64,3.888 L89.64,9.04 C89.64,9.59466944 89.7759986,10.0186652 90.048,10.312 C90.3200014,10.6053348 90.6959976,10.752 91.176,10.752 C91.784003,10.752 92.2719982,10.5386688 92.64,10.112 C93.0080018,9.6853312 93.192,9.08267056 93.192,8.304 L93.192,3.888 Z M98.536,3.888 L98.536,5.28 C99.0160024,4.27732832 99.8586606,3.776 101.064,3.776 C101.864004,3.776 102.498664,4.02133088 102.968,4.512 C103.437336,5.00266912 103.672,5.66932912 103.672,6.512 L103.672,12 L102.104,12 L102.104,6.88 C102.104,6.31466384 101.962668,5.88266816 101.68,5.584 C101.397332,5.28533184 101.021336,5.136 100.552,5.136 C99.9973306,5.136 99.5226686,5.35199784 99.128,5.784 C98.7333314,6.21600216 98.536,6.82132944 98.536,7.6 L98.536,12 L96.968,12 L96.968,3.888 L98.536,3.888 Z M109.064,10.736 C109.68267,10.736 110.205331,10.5013357 110.632,10.032 C111.058669,9.56266432 111.272,8.8480048 111.272,7.888 C111.272,6.95999536 111.050669,6.27200224 110.608,5.824 C110.165331,5.37599776 109.666669,5.152 109.112,5.152 C108.482664,5.152 107.965335,5.39999752 107.56,5.896 C107.154665,6.39200248 106.952,7.09866208 106.952,8.016 C106.952,8.82667072 107.151998,9.48266416 107.552,9.984 C107.952002,10.4853358 108.455997,10.736 109.064,10.736 L109.064,10.736 Z M111.272,0.688 L112.856,0.688 L112.856,12 L111.272,12 L111.272,10.768 C110.706664,11.6640045 109.880005,12.112 108.792,12.112 C107.725328,12.112 106.88267,11.7093374 106.264,10.904 C105.64533,10.0986626 105.336,9.12533904 105.336,7.984 C105.336,6.71466032 105.66133,5.69600384 106.312,4.928 C106.96267,4.15999616 107.799995,3.776 108.824,3.776 C109.880005,3.776 110.695997,4.22399552 111.272,5.12 L111.272,0.688 Z" id="No-Places-Found" sketch:type="MSShapeGroup"></path>
            </g>
        </g>
    </g>
</svg>