<?xml version="1.0" encoding="UTF-8" standalone="no"?>
<svg width="85px" height="104px" viewBox="0 0 85 104" version="1.1" xmlns="http://www.w3.org/2000/svg" xmlns:xlink="http://www.w3.org/1999/xlink" xmlns:sketch="http://www.bohemiancoding.com/sketch/ns">
    <!-- Generator: Sketch 3.3.3 (12081) - http://www.bohemiancoding.com/sketch -->
    <title>No Photos + Imported Layers</title>
    <desc>Created with Sketch.</desc>
    <defs></defs>
    <g id="Page-1" stroke="none" stroke-width="1" fill="none" fill-rule="evenodd" sketch:type="MSPage">
        <g id="iPhone-6" sketch:type="MSArtboardGroup" transform="translate(-142.625000, -562.000000)" fill="#979797">
            <g id="No-Photos-+-Imported-Layers" sketch:type="MSLayerGroup" transform="translate(142.000000, 562.000000)">
                <g id="Imported-Layers" transform="translate(0.000000, 20.000000)" sketch:type="MSShapeGroup">
                    <path d="M85,83.9880952 L1.01190476,83.9880952 L1.01190476,9.10714286 L85,9.10714286 L85,83.9880952 Z M3.03571429,81.9642857 L82.9761905,81.9642857 L82.9761905,11.1309524 L3.03571429,11.1309524 L3.03571429,81.9642857 Z M3.03571429,5.05952381 L82.9761905,5.05952381 L82.9761905,7.08333333 L3.03571429,7.08333333 L3.03571429,5.05952381 Z M5.05952381,1.01190476 L80.952381,1.01190476 L80.952381,3.03571429 L5.05952381,3.03571429 L5.05952381,1.01190476 Z M23.2738095,35.7229365 C18.0146032,35.7229365 13.6607143,31.4742857 13.6607143,26.1098413 C13.6607143,20.7440476 17.9080159,16.496746 23.2738095,16.496746 C28.6396032,16.496746 32.8869048,20.7440476 32.8869048,26.1098413 C32.8869048,31.4742857 28.5330159,35.7229365 23.2738095,35.7229365 Z M23.2738095,18.6203968 C19.1263492,18.6203968 15.6845238,21.9610317 15.6845238,26.2096825 C15.6845238,30.4569841 19.0265079,33.7989683 23.2738095,33.7989683 C27.5211111,33.7989683 30.8630952,30.4569841 30.8630952,26.2096825 C30.8630952,21.9610317 27.4212698,18.6203968 23.2738095,18.6203968 Z M3.03571429,71.5389683 L27.5211111,49.077381 L34.0984921,55.7546032 L54.0370635,35.8227778 L82.9761905,62.5384127 L82.9761905,59.5026984 L53.9372222,33.0865873 L34.0984921,52.8187302 L27.6276984,46.3479365 L3.03571429,68.7096825 L3.03571429,71.5389683 Z" id="Fill-1"></path>
                </g>
                <path d="M16.6455078,11 L14.6425781,11 L9.72753906,3.03613281 L9.67285156,3.03613281 L9.70703125,3.48046875 C9.77083365,4.32812924 9.80273438,5.10286107 9.80273438,5.8046875 L9.80273438,11 L8.31933594,11 L8.31933594,1.00585938 L10.3017578,1.00585938 L15.203125,8.92871094 L15.2441406,8.92871094 C15.235026,8.82389271 15.216797,8.44222334 15.1894531,7.78369141 C15.1621092,7.12515947 15.1484375,6.61132997 15.1484375,6.2421875 L15.1484375,1.00585938 L16.6455078,1.00585938 L16.6455078,11 Z M25.8193359,7.20605469 C25.8193359,8.4410869 25.5026073,9.40494445 24.8691406,10.0976562 C24.2356739,10.790368 23.3538468,11.1367188 22.2236328,11.1367188 C21.5172491,11.1367188 20.8929064,10.9772151 20.3505859,10.6582031 C19.8082655,10.3391911 19.3912775,9.88118788 19.0996094,9.28417969 C18.8079412,8.68717149 18.6621094,7.99447009 18.6621094,7.20605469 C18.6621094,5.9801371 18.9765594,5.02311542 19.6054688,4.33496094 C20.2343781,3.64680646 21.1207625,3.30273438 22.2646484,3.30273438 C23.3584039,3.30273438 24.2242807,3.65478164 24.8623047,4.35888672 C25.5003287,5.0629918 25.8193359,6.0120383 25.8193359,7.20605469 L25.8193359,7.20605469 Z M20.3164062,7.20605469 C20.3164062,8.95150612 20.9612566,9.82421875 22.2509766,9.82421875 C23.5270246,9.82421875 24.1650391,8.95150612 24.1650391,7.20605469 C24.1650391,5.47883251 23.5224674,4.61523438 22.2373047,4.61523438 C21.5628221,4.61523438 21.0740575,4.83853943 20.7709961,5.28515625 C20.4679347,5.73177307 20.3164062,6.37206614 20.3164062,7.20605469 L20.3164062,7.20605469 Z M38.0898438,4.02734375 C38.0898438,5.07096876 37.7480503,5.87076545 37.0644531,6.42675781 C36.380856,6.98275018 35.4078839,7.26074219 34.1455078,7.26074219 L33.1064453,7.26074219 L33.1064453,11 L31.4726562,11 L31.4726562,1.00585938 L34.3505859,1.00585938 C35.5992901,1.00585938 36.5346649,1.26106516 37.1567383,1.77148438 C37.7788117,2.28190359 38.0898438,3.0338492 38.0898438,4.02734375 L38.0898438,4.02734375 Z M33.1064453,5.88671875 L33.9746094,5.88671875 C34.8131552,5.88671875 35.4283835,5.74088687 35.8203125,5.44921875 C36.2122415,5.15755063 36.4082031,4.70182602 36.4082031,4.08203125 C36.4082031,3.50780963 36.2327492,3.0794285 35.8818359,2.796875 C35.5309227,2.5143215 34.9840532,2.37304688 34.2412109,2.37304688 L33.1064453,2.37304688 L33.1064453,5.88671875 Z M46.5664062,11 L44.953125,11 L44.953125,6.3515625 C44.953125,5.76822625 44.8357759,5.33300925 44.6010742,5.04589844 C44.3663725,4.75878763 43.9938177,4.61523438 43.4833984,4.61523438 C42.8089159,4.61523438 42.3133154,4.81689251 41.996582,5.22021484 C41.6798487,5.62353717 41.5214844,6.29914891 41.5214844,7.24707031 L41.5214844,11 L39.9150391,11 L39.9150391,0.36328125 L41.5214844,0.36328125 L41.5214844,3.06347656 C41.5214844,3.49642144 41.4941409,3.95898191 41.4394531,4.45117188 L41.5419922,4.45117188 C41.7607433,4.08658672 42.0649395,3.80403746 42.4545898,3.60351562 C42.8442402,3.40299379 43.2988255,3.30273438 43.8183594,3.30273438 C45.6503998,3.30273438 46.5664062,4.22557671 46.5664062,6.07128906 L46.5664062,11 Z M55.5078125,7.20605469 C55.5078125,8.4410869 55.1910839,9.40494445 54.5576172,10.0976562 C53.9241505,10.790368 53.0423234,11.1367188 51.9121094,11.1367188 C51.2057256,11.1367188 50.5813829,10.9772151 50.0390625,10.6582031 C49.4967421,10.3391911 49.0797541,9.88118788 48.7880859,9.28417969 C48.4964178,8.68717149 48.3505859,7.99447009 48.3505859,7.20605469 C48.3505859,5.9801371 48.6650359,5.02311542 49.2939453,4.33496094 C49.9228547,3.64680646 50.8092391,3.30273438 51.953125,3.30273438 C53.0468805,3.30273438 53.9127572,3.65478164 54.5507812,4.35888672 C55.1888053,5.0629918 55.5078125,6.0120383 55.5078125,7.20605469 L55.5078125,7.20605469 Z M50.0048828,7.20605469 C50.0048828,8.95150612 50.6497331,9.82421875 51.9394531,9.82421875 C53.2155012,9.82421875 53.8535156,8.95150612 53.8535156,7.20605469 C53.8535156,5.47883251 53.2109439,4.61523438 51.9257812,4.61523438 C51.2512987,4.61523438 50.7625341,4.83853943 50.4594727,5.28515625 C50.1564112,5.73177307 50.0048828,6.37206614 50.0048828,7.20605469 L50.0048828,7.20605469 Z M60.1699219,9.83789062 C60.5618509,9.83789062 60.9537741,9.7763678 61.3457031,9.65332031 L61.3457031,10.8632812 C61.1679679,10.9407556 60.9389662,11.0056964 60.6586914,11.0581055 C60.3784166,11.1105146 60.0878921,11.1367188 59.7871094,11.1367188 C58.2649663,11.1367188 57.5039063,10.3346434 57.5039063,8.73046875 L57.5039063,4.65625 L56.4716797,4.65625 L56.4716797,3.9453125 L57.5791016,3.35742188 L58.1259766,1.7578125 L59.1171875,1.7578125 L59.1171875,3.43945312 L61.2705078,3.43945312 L61.2705078,4.65625 L59.1171875,4.65625 L59.1171875,8.703125 C59.1171875,9.09049673 59.214029,9.37646392 59.4077148,9.56103516 C59.6014007,9.74560639 59.8554672,9.83789062 60.1699219,9.83789062 L60.1699219,9.83789062 Z M69.5625,7.20605469 C69.5625,8.4410869 69.2457714,9.40494445 68.6123047,10.0976562 C67.978838,10.790368 67.0970109,11.1367188 65.9667969,11.1367188 C65.2604131,11.1367188 64.6360704,10.9772151 64.09375,10.6582031 C63.5514296,10.3391911 63.1344416,9.88118788 62.8427734,9.28417969 C62.5511053,8.68717149 62.4052734,7.99447009 62.4052734,7.20605469 C62.4052734,5.9801371 62.7197234,5.02311542 63.3486328,4.33496094 C63.9775422,3.64680646 64.8639266,3.30273438 66.0078125,3.30273438 C67.101568,3.30273438 67.9674447,3.65478164 68.6054688,4.35888672 C69.2434928,5.0629918 69.5625,6.0120383 69.5625,7.20605469 L69.5625,7.20605469 Z M64.0595703,7.20605469 C64.0595703,8.95150612 64.7044206,9.82421875 65.9941406,9.82421875 C67.2701887,9.82421875 67.9082031,8.95150612 67.9082031,7.20605469 C67.9082031,5.47883251 67.2656314,4.61523438 65.9804688,4.61523438 C65.3059862,4.61523438 64.8172216,4.83853943 64.5141602,5.28515625 C64.2110987,5.73177307 64.0595703,6.37206614 64.0595703,7.20605469 L64.0595703,7.20605469 Z M76.4873047,8.84667969 C76.4873047,9.58496463 76.2184272,10.1512025 75.6806641,10.5454102 C75.142901,10.9396179 74.3727264,11.1367188 73.3701172,11.1367188 C72.3629507,11.1367188 71.5540395,10.984051 70.9433594,10.6787109 L70.9433594,9.29101562 C71.8320357,9.70117393 72.6591759,9.90625 73.4248047,9.90625 C74.4137419,9.90625 74.9082031,9.60775038 74.9082031,9.01074219 C74.9082031,8.81933498 74.8535162,8.65983137 74.7441406,8.53222656 C74.6347651,8.40462176 74.4547539,8.27246162 74.2041016,8.13574219 C73.9534493,7.99902275 73.6048199,7.84407639 73.1582031,7.67089844 C72.2877561,7.33365717 71.698732,6.99642096 71.3911133,6.65917969 C71.0834946,6.32193842 70.9296875,5.88444279 70.9296875,5.34667969 C70.9296875,4.69954104 71.1905898,4.19710465 71.7124023,3.83935547 C72.2342148,3.48160628 72.9440059,3.30273438 73.8417969,3.30273438 C74.7304732,3.30273438 75.5712851,3.4827456 76.3642578,3.84277344 L75.8447266,5.05273438 C75.0289673,4.71549311 74.3431017,4.546875 73.7871094,4.546875 C72.9394489,4.546875 72.515625,4.78840904 72.515625,5.27148438 C72.515625,5.50846473 72.6261382,5.70898355 72.847168,5.87304688 C73.0681977,6.0371102 73.5501265,6.26269388 74.2929688,6.54980469 C74.9173208,6.79134235 75.3707668,7.01236879 75.6533203,7.21289062 C75.9358738,7.41341246 76.1455071,7.6446927 76.2822266,7.90673828 C76.418946,8.16878386 76.4873047,8.48209453 76.4873047,8.84667969 L76.4873047,8.84667969 Z" id="No-Photos" sketch:type="MSShapeGroup"></path>
            </g>
        </g>
    </g>
</svg>