<?xml version="1.0" encoding="UTF-8" standalone="no"?>
<svg width="110px" height="95px" viewBox="0 0 110 95" version="1.1" xmlns="http://www.w3.org/2000/svg" xmlns:xlink="http://www.w3.org/1999/xlink" xmlns:sketch="http://www.bohemiancoding.com/sketch/ns">
    <!-- Generator: Sketch 3.3.3 (12081) - http://www.bohemiancoding.com/sketch -->
    <title>Imported Layers + Nothing Achieved</title>
    <desc>Created with Sketch.</desc>
    <defs></defs>
    <g id="Page-1" stroke="none" stroke-width="1" fill="none" fill-rule="evenodd" sketch:type="MSPage">
        <g id="iPhone-6" sketch:type="MSArtboardGroup" transform="translate(-135.625000, -544.000000)" fill="#979797">
            <g id="Imported-Layers-+-Nothing-Achieved" sketch:type="MSLayerGroup" transform="translate(135.000000, 540.000000)">
                <path d="M105.747511,41.7955358 C105.513886,41.4897854 105.153257,41.312607 104.772245,41.312607 L96.215938,41.312607 L96.215938,34.2082222 C96.215938,33.5277315 95.6718591,32.9773808 94.9913684,32.9773808 L54.3234299,32.971109 C53.7291766,29.0324167 50.3235876,26 46.2202604,26 L23.9804471,26 C19.460045,26 15.7863364,29.6752766 15.7863364,34.2019504 L15.7863364,41.312607 L7.23002922,41.312607 C6.84901719,41.312607 6.48211671,41.4897854 6.25476385,41.7955358 C6.02270714,42.1028542 5.94274166,42.4948419 6.04152255,42.8680141 L20.7410608,97.2445461 C20.8868802,97.7839211 21.371377,98.1508216 21.9295675,98.1508216 L90.0680031,98.1508216 C90.6246256,98.1508216 91.1091224,97.7839211 91.2549418,97.2445461 L105.95448,42.8680141 C106.059533,42.4948419 105.979567,42.1028542 105.747511,41.7955358 L105.747511,41.7955358 Z M18.2480191,34.214494 C18.2480191,31.0535053 20.8194583,28.4742263 23.9867189,28.4742263 L46.2202604,28.4742263 C49.385953,28.4742263 51.9589602,31.0535053 51.9589602,34.2191978 C51.9589602,34.8996884 52.5093109,35.4453353 53.1898015,35.4453353 L93.7667989,35.4453353 L93.7667989,41.3188788 L18.2480191,41.3188788 L18.2480191,34.214494 Z M89.1240967,95.6954107 L22.8719059,95.6954107 L8.83404283,43.7742897 L103.16196,43.7742897 L89.1240967,95.6954107 Z" id="Imported-Layers" sketch:type="MSShapeGroup"></path>
                <text id="Nothing-Achived" sketch:type="MSTextLayer" font-family="Open Sans" font-size="14" font-weight="526">
                    <tspan x="0" y="15">Nothing Achived</tspan>
                </text>
            </g>
        </g>
    </g>
</svg>