<?xml version="1.0" encoding="UTF-8" standalone="no"?>
<svg width="108px" height="110px" viewBox="0 0 108 110" version="1.1" xmlns="http://www.w3.org/2000/svg" xmlns:xlink="http://www.w3.org/1999/xlink" xmlns:sketch="http://www.bohemiancoding.com/sketch/ns">
    <!-- Generator: Sketch 3.3.3 (12081) - http://www.bohemiancoding.com/sketch -->
    <title>Imported Layers + No Contacts</title>
    <desc>Created with Sketch.</desc>
    <defs></defs>
    <g id="Page-1" stroke="none" stroke-width="1" fill="none" fill-rule="evenodd" sketch:type="MSPage">
        <g id="iPhone-6" sketch:type="MSArtboardGroup" transform="translate(-126.625000, -409.000000)" fill="#979797">
            <g id="Imported-Layers-+-No-Contacts" sketch:type="MSLayerGroup" transform="translate(127.000000, 405.000000)">
                <g id="Imported-Layers" transform="translate(0.000000, 24.000000)" sketch:type="MSShapeGroup">
                    <path d="M54,47 C45.7292454,47 39,40.2707546 39,32 C39,23.7274168 45.7292454,17 54,17 C62.2707546,17 69,23.7274168 69,32 C69,40.2707546 62.2707546,47 54,47 L54,47 Z M54,21.2844081 C48.0936243,21.2844081 43.2862367,26.0917957 43.2862367,32 C43.2862367,37.9063757 48.0936243,42.7137633 54,42.7137633 C59.9063757,42.7137633 64.7137633,37.9063757 64.7137633,32 C64.7137633,26.0917957 59.9063757,21.2844081 54,21.2844081 Z M82,73 L26,73 L26,70.8213994 C26,68.6725407 26,64.2075247 28.0530393,59.6681538 C30.6225548,53.9911518 35.4619929,50.143282 42.440856,48.2397948 L43.3230931,48 L44.1060785,48.4721541 C47.0854667,50.2659677 50.5114875,51.2177114 54,51.2177114 C57.4885125,51.2177114 60.9145333,50.2659677 63.9012735,48.4721541 L64.6824209,48 L65.566496,48.2397948 C72.5453591,50.143282 77.3847972,53.9911518 79.9543127,59.6681538 C82,64.2075247 82,68.6725407 82,70.8213994 L82,73 Z M100.579343,90 L6.42065741,90 C2.88162611,90 0,87.1144703 0,83.5724735 L0,6.42752651 C0,2.88552968 2.88162611,0 6.42065741,0 L100.579343,0 C104.118374,0 107,2.88552968 107,6.42752651 L107,83.5724735 C107,87.1144703 104.118374,90 100.579343,90 Z M30.3505317,68.6446576 L77.6494683,68.6446576 C77.4123671,63.9026693 75.8188263,55.9448286 65.272417,52.6917986 C61.8261783,54.578556 57.948011,55.5730538 54,55.5730538 C50.051989,55.5730538 46.1738217,54.578556 42.727583,52.6917986 C32.1811737,55.9448286 30.5876329,63.9026693 30.3505317,68.6446576 Z M6.42065741,4.28440814 C5.24280643,4.28440814 4.28043827,5.24990857 4.28043827,6.42752651 L4.28043827,83.5724735 C4.28043827,84.7500914 5.24280643,85.7155919 6.42065741,85.7155919 L100.579343,85.7155919 C101.757194,85.7155919 102.719562,84.7500914 102.719562,83.5724735 L102.719562,6.42752651 C102.719562,5.24990857 101.757194,4.28440814 100.579343,4.28440814 L6.42065741,4.28440814 Z" id="Fill-1"></path>
                </g>
                <text id="No-Contacts" sketch:type="MSTextLayer" font-family="Open Sans" font-size="14" font-weight="526">
                    <tspan x="12" y="15">No Contacts</tspan>
                </text>
            </g>
        </g>
    </g>
</svg>