<?xml version="1.0" encoding="utf-8"?>
<!-- Generator: Adobe Illustrator 18.0.0, SVG Export Plug-In . SVG Version: 6.00 Build 0)  -->
<!DOCTYPE svg PUBLIC "-//W3C//DTD SVG 1.1//EN" "http://www.w3.org/Graphics/SVG/1.1/DTD/svg11.dtd">
<svg version="1.1" id="Layer_1" xmlns="http://www.w3.org/2000/svg" xmlns:xlink="http://www.w3.org/1999/xlink" x="0px" y="0px"
	 viewBox="0 0 764 383" enable-background="new 0 0 764 383" xml:space="preserve">
<g>
	<g>
		<path fill="#FFFFFF" d="M0,0.5h448.8C442,3,435,4.4,428.1,6.4C370.7,21.7,313.3,37.1,256,52.5c-5.7,1.3-11.2,3.2-17,4.4
			c6.1,25.4,13.7,50.4,19.9,75.7c11.3,2.3,21.3,10.3,25.7,21c5.8,13.5,1.8,30.1-9.2,39.8c6.6,25.1,13.5,50,20,75.1
			c5.1-0.6,10-2.3,15-3.5c60.8-16.3,121.6-32.6,182.4-48.9c4.6-1.3,9.5-2.1,14-4c0.7-1.2-0.2-2.6-0.3-3.9
			c-6.2-23.2-12.4-46.4-18.6-69.5c-0.2-2-2.3-2.4-3.9-3c-9.4-2.7-17.5-9.6-21.6-18.5c-5.2-10.5-4.3-23.6,2-33.4
			c1.8-2.9,4.5-5.3,6.3-8.2c-0.4-3.8-1.8-7.4-2.7-11.1c-5.7-21.3-11.6-42.5-17-63.9H764v383H0V0.5z M573,296.6
			c-9.7,5.6-17,15.1-19.9,25.9c-4.3,15.2-1.5,32.8,9.2,44.7c8,9.2,19.8,14.5,31.8,15.6c4.3-0.4,8.6-0.4,12.9,0.1
			c11.4-1.5,22.6-6.4,30.7-14.8c2-2,2.6-4.8,2.6-7.6c0-10.3,0.1-20.7-0.1-31c-14.6,0.1-29.2-0.2-43.8,0.2c0.1,6.8,0.1,13.6,0,20.4
			c6.7-0.1,13.4,0.1,20-0.1c0.3,2.4,0.5,4.9,0,7.2c-8.7,6-21.1,7.1-30.1,1c-12.8-8.2-14.9-28.1-5-39.4c6.2-7.4,17.3-10.6,26.4-7
			c4.9,1.9,8.5,5.7,11.5,9.9c6.8-2.8,12.9-6.9,19.6-9.8c-5.3-11.3-16.6-19.1-28.8-21.5C597.5,288.1,584,290,573,296.6z M688.5,290.1
			c-8.8,1.4-17.3,4.9-24.1,10.8c-17.5,14.6-20.5,42.6-8.2,61.4c7.4,11.5,20.4,18.9,33.9,20.3c5-0.3,9.9,0,14.9,0
			c11.7-1.5,23.1-7.3,30.5-16.6c15.2-18.7,13-49.7-5.7-65.2C718.5,291.1,702.9,287.9,688.5,290.1z M755.3,289.8
			c-3.7,1.2-5.1,6.2-2.7,9.2c2.5,3.4,8.2,2.9,10.2-0.8c0.2-2.3,0.9-5.5-1.2-7.2C759.9,289.5,757.4,289,755.3,289.8z M0.8,290.5
			c-0.4,1.3-0.6,2.6-0.7,4c0.9,24.3,0.2,48.7,0.5,73c-0.1,4.5-1.2,9.2,0.7,13.6c8.2-0.1,16.3-0.1,24.5,0c0.1-10.6-0.1-21.2,0.1-31.9
			c7.7,0,15.5,0.1,23.2,0c4.1,0.2,7.9-2.9,8.6-6.9c0.7-4.5,0.2-9.1,0.3-13.6c-10.7,0-21.5,0.1-32.2-0.1c-0.1-5.8-0.1-11.7,0-17.5
			c14.7-0.2,29.4-0.2,44.2,0c0.7-6.9,0.2-13.7,0.3-20.6C47.1,290.5,23.9,290.4,0.8,290.5z M94.8,291.1
			c-11.2,30.2-22.6,60.2-33.9,90.3c9.2,0.1,18.5,0.4,27.7-0.2c1.1-4.3,2.7-8.6,4.3-12.8c11.7,0.1,23.4,0,35.1,0
			c0.9,2.4,1.7,4.8,2.7,7.1c1.5,3.6,5.4,6.1,9.3,5.9c6.4,0.1,12.8,0,19.2,0c-11.1-30.2-22.7-60.2-33.8-90.4
			C115.1,290.9,104.9,290.9,94.8,291.1z M167.3,290.9c-0.2,30.2,0,60.3-0.1,90.5c7.9,0.2,15.7,0.2,23.6,0c0.1-17-0.3-34.1,0.2-51.1
			c12.7,16.5,24.6,33.6,37,50.3c0.9,1.3,2.7,0.8,4,1c6.4,0,12.8,0,19.2,0c0.1-30.1,0.1-60.3,0-90.4c-4.7,0-9.4-0.2-14.1,0
			c-4.9,0.1-9.3,4.5-9.3,9.4c-0.1,13.1,0,26.2,0,39.3c-1.3-1.3-2.5-2.7-3.6-4.2c-10.7-14.9-21.9-29.5-32.6-44.5
			C183.5,290.9,175.4,291,167.3,290.9z M267.2,290.9c-0.5,26.5,0,53.1-0.2,79.6c-0.4,4.9,2.9,10,8,10.7c5.3,0.6,10.7,0.2,16.1,0.3
			c9.6-0.2,19.4,0.7,28.9-1.8c8.8-2.1,17.2-6.5,23.2-13.3c13.9-15.7,14.6-41.4,2.1-58.1c-8.7-11.5-23.2-16.8-37.2-17.4
			C294.3,290.8,280.8,291.2,267.2,290.9z M384.8,291.3c-11.5,30-22.7,60.1-34,90.2c8.9,0,17.9,0.2,26.8-0.2
			c1.3-4.3,2.8-8.5,4.3-12.8c11.7-0.1,23.4-0.2,35.1,0.1c1.2,1.7,1.4,3.8,2.2,5.7c1.1,3.7,4.6,6.9,8.6,7c6.8,0.4,13.6,0.1,20.4,0.1
			c-11-30.3-22.7-60.3-33.9-90.6C404.6,291.2,394.6,290.5,384.8,291.3z M457.2,290.8c-0.5,4.6-0.2,9.1-0.2,13.7
			c0,25.7,0.1,51.4-0.1,77c7.8-0.1,15.6,0,23.5,0c0.1-17.3,0.1-34.5,0-51.8c12.8,17.1,25.3,34.3,37.8,51.6
			c7.6,0.4,15.2,0.1,22.8,0.2c0-30.2,0.3-60.5-0.1-90.7c-4.6,0.2-9.2,0-13.9,0.2c-5,0.1-9.5,4.5-9.4,9.5c-0.1,13.3,0,26.5,0,39.8
			c-11.9-16.5-24.4-32.7-36.1-49.3C473.3,290.9,465.3,291.1,457.2,290.8z"/>
	</g>
	<path fill="#FFFFFF" d="M375.7,32.1c1.2-0.2,2.7-0.8,3.8-0.2c4.1,15.6,8.3,31.1,12.4,46.6c-20.6,5.5-41.1,11.1-61.7,16.5
		c-1.5,0.2-0.7,2-0.6,3c3.8,14.8,8.2,29.4,11.8,44.3c21.1-5.4,42.1-11.4,63.2-16.6c3.2,12.8,6.9,25.5,10.1,38.4c0.9,3,1.9,6,2.1,9.1
		c-17.1,4.2-34,9.1-51,13.6c-3.9,1.1-7.9,1.8-11.6,3.4c4.2,15.6,8.6,31.2,12.5,47c-17.7,4.6-35.3,9.5-53,14.1
		c-3.4,0.8-6.7,2.3-10.3,2.1c-4.5-18-9.4-35.9-14.3-53.9c-0.5-1.5-0.7-3.2,0.5-4.4c5.4-7.4,9-16.3,9.3-25.5
		c1-14.7-5.6-29.7-17.2-38.8c-3.6-3.4-8.3-5.2-12.5-7.6c-1.4-2.3-1.7-5-2.5-7.5c-3.5-13.4-7.2-26.8-10.7-40.2
		c-0.9-3.6-2.3-7.1-2.6-10.8c4.5-0.8,8.9-2.2,13.3-3.3C303.1,51.5,339.4,41.8,375.7,32.1z"/>
	<path fill="#FFFFFF" d="M752.9,296.5c-1.3-3.8,3.8-7.7,7.1-5.2c2.5,1.4,2.7,4.8,1.3,7.1c-0.5-0.5-1.6-1.5-2.1-2
		c0.3-1.3,0.6-2.6,0.8-3.9c-1.6-0.3-3.3-0.5-4.9-0.4c0,2.2,0,4.4,0.1,6.6c1.2-0.2,1.8-1,2-2.2c1.1,1,2.2,1.9,3.5,2.6
		C758,301.1,753.6,300,752.9,296.5z"/>
	<path fill="#FFFFFF" d="M757.1,293.7"/>
	<path fill="#FFFFFF" d="M692.5,310.2c8.6-1.6,17.9,1.4,23.8,8c9.3,9.3,9.7,25.7,0.8,35.4c-8,9.5-23,12.1-33.5,5.3
		c-9.8-5.9-15.1-18.4-11.9-29.5C674.2,319.7,682.7,312,692.5,310.2z"/>
	<path fill="#FFFFFF" d="M290.6,311.5c6.2,0.1,12.3-0.3,18.5,0.2c7.9,0.7,15.6,5.7,18.6,13.2c3.6,8.5,2.9,19-2.7,26.5
		c-4.2,5.7-11.1,9-18.1,9.3c-5.4,0.3-10.9,0.1-16.3,0.1C290.5,344.4,290.5,328,290.6,311.5z"/>
	<path fill="#FFFFFF" d="M105.6,328.9c1.8-4.5,2.8-9.3,5-13.7c3.7,10.8,7.4,21.7,10.8,32.6c-7.3,0.2-14.7,0.1-22,0.1
		C101.1,341.5,103.6,335.3,105.6,328.9z"/>
	<path fill="#FFFFFF" d="M399.4,315.2c2.1,3.5,2.8,7.6,4.2,11.3c2.3,7.1,5,14.1,6.9,21.4c-7.3,0-14.6,0.2-21.9-0.1
		C391.8,336.8,396,326.1,399.4,315.2z"/>
</g>
<g>
	<g>
		<path fill="#EE7C3D" d="M448.8,0.5h2.1c5.4,21.4,11.3,42.6,17,63.9c0.9,3.7,2.2,7.3,2.7,11.1c-1.8,2.9-4.5,5.3-6.3,8.2
			c-6.3,9.8-7.2,22.9-2,33.4c4.1,8.9,12.2,15.8,21.6,18.5c1.6,0.6,3.7,1,3.9,3c6.2,23.2,12.4,46.4,18.6,69.5c0.1,1.3,1,2.7,0.3,3.9
			c-4.5,1.9-9.3,2.6-14,4C432,232.4,371.2,248.7,310.4,265c-5,1.2-9.8,3-15,3.5c-6.5-25.1-13.4-50.1-20-75.1
			c11-9.6,15-26.3,9.2-39.8c-4.4-10.7-14.4-18.7-25.7-21c-6.2-25.3-13.8-50.3-19.9-75.7c5.7-1.1,11.3-3,17-4.4
			c57.3-15.4,114.7-30.8,172.1-46.1C435,4.4,442,3,448.8,0.5z M375.7,32.1c-36.3,9.8-72.6,19.5-108.9,29.2
			c-4.4,1.2-8.8,2.6-13.3,3.3c0.3,3.7,1.7,7.2,2.6,10.8c3.5,13.4,7.2,26.8,10.7,40.2c0.8,2.5,1.1,5.2,2.5,7.5
			c4.2,2.4,8.9,4.2,12.5,7.6c11.6,9.1,18.2,24.1,17.2,38.8c-0.3,9.2-3.9,18.1-9.3,25.5c-1.2,1.2-1,2.9-0.5,4.4
			c4.9,17.9,9.8,35.9,14.3,53.9c3.6,0.2,6.9-1.3,10.3-2.1c17.7-4.6,35.3-9.6,53-14.1c-3.9-15.7-8.3-31.3-12.5-47
			c3.7-1.6,7.7-2.3,11.6-3.4c17-4.4,33.9-9.4,51-13.6c-0.3-3.1-1.2-6.1-2.1-9.1c-3.2-12.8-6.9-25.6-10.1-38.4
			c-21.1,5.3-42.1,11.2-63.2,16.6c-3.6-14.8-7.9-29.5-11.8-44.3c-0.1-1-1-2.7,0.6-3c20.6-5.4,41.1-11,61.7-16.5
			c-4.2-15.5-8.4-31.1-12.4-46.6C378.4,31.3,376.9,31.9,375.7,32.1z"/>
	</g>
</g>
<g>
	<path fill="#467CBC" d="M573,296.6c11.1-6.6,24.5-8.5,37.1-6.2c12.1,2.4,23.4,10.2,28.8,21.5c-6.7,2.9-12.9,7-19.6,9.8
		c-3-4.2-6.6-8-11.5-9.9c-9.1-3.6-20.2-0.4-26.4,7c-9.8,11.3-7.8,31.2,5,39.4c9,6.1,21.3,4.9,30.1-1c0.5-2.4,0.3-4.9,0-7.2
		c-6.7,0.2-13.4,0.1-20,0.1c0.1-6.8,0.1-13.6,0-20.4c14.6-0.4,29.2-0.1,43.8-0.2c0.2,10.3,0,20.7,0.1,31c0,2.7-0.6,5.6-2.6,7.6
		c-8.1,8.3-19.3,13.2-30.7,14.8c-4.3-0.5-8.6-0.5-12.9-0.1c-12-1.1-23.8-6.4-31.8-15.6c-10.7-11.9-13.5-29.5-9.2-44.7
		C556,311.7,563.3,302.2,573,296.6z"/>
	<g>
		<path fill="#467CBC" d="M688.5,290.1c14.4-2.2,30.1,1,41.3,10.6c18.8,15.6,21,46.5,5.7,65.2c-7.4,9.4-18.8,15.1-30.5,16.6
			c-5,0-9.9-0.3-14.9,0c-13.5-1.4-26.5-8.8-33.9-20.3c-12.3-18.8-9.3-46.8,8.2-61.4C671.2,295.1,679.7,291.5,688.5,290.1z
			 M692.5,310.2c-9.8,1.8-18.4,9.5-20.9,19.2c-3.2,11,2.1,23.6,11.9,29.5c10.5,6.8,25.6,4.2,33.5-5.3c8.8-9.7,8.5-26.1-0.8-35.4
			C710.5,311.6,701.1,308.6,692.5,310.2z"/>
	</g>
	<g>
		<path fill="#467CBC" d="M755.3,289.8c2.1-0.8,4.6-0.3,6.3,1.2c2.1,1.7,1.4,4.8,1.2,7.2c-1.9,3.8-7.7,4.2-10.2,0.8
			C750.2,296,751.6,291,755.3,289.8z M752.9,296.5c0.7,3.5,5.1,4.6,7.8,2.6c-1.3-0.7-2.4-1.6-3.5-2.6c-0.2,1.2-0.8,1.9-2,2.2
			c0-2.2,0-4.4-0.1-6.6c1.7-0.1,3.3,0.1,4.9,0.4c-0.3,1.3-0.5,2.6-0.8,3.9c0.5,0.5,1.6,1.5,2.1,2c1.3-2.3,1.1-5.7-1.3-7.1
			C756.7,288.9,751.6,292.7,752.9,296.5z M757.1,293.7"/>
	</g>
	<path fill="#467CBC" d="M0.8,290.5c23.1-0.1,46.3-0.1,69.4,0c0,6.9,0.4,13.8-0.3,20.6c-14.7-0.2-29.4-0.2-44.2,0
		c-0.1,5.8-0.1,11.7,0,17.5c10.7,0.2,21.4,0.1,32.2,0.1c0,4.5,0.5,9.1-0.3,13.6c-0.8,4-4.5,7.1-8.6,6.9c-7.7,0.1-15.5,0-23.2,0
		c-0.2,10.6,0,21.2-0.1,31.9c-8.2-0.1-16.3-0.1-24.5,0c-1.9-4.3-0.7-9-0.7-13.6c-0.3-24.3,0.4-48.7-0.5-73
		C0.2,293.2,0.4,291.8,0.8,290.5z"/>
	<g>
		<path fill="#467CBC" d="M94.8,291.1c10.2-0.2,20.3-0.1,30.5,0c11.1,30.2,22.8,60.2,33.8,90.4c-6.4,0-12.8,0.1-19.2,0
			c-3.9,0.2-7.8-2.2-9.3-5.9c-1-2.3-1.8-4.7-2.7-7.1c-11.7,0-23.4,0-35.1,0c-1.6,4.2-3.2,8.4-4.3,12.8c-9.2,0.6-18.4,0.2-27.7,0.2
			C72.2,351.3,83.6,321.2,94.8,291.1z M105.6,328.9c-2,6.4-4.5,12.6-6.2,19c7.3,0,14.7,0.1,22-0.1c-3.4-10.9-7.1-21.8-10.8-32.6
			C108.4,319.6,107.4,324.4,105.6,328.9z"/>
	</g>
	<path fill="#467CBC" d="M167.3,290.9c8.1,0.1,16.2,0,24.2,0.1c10.7,15,21.9,29.6,32.6,44.5c1.1,1.5,2.3,2.9,3.6,4.2
		c0.1-13.1-0.1-26.2,0-39.3c0-4.9,4.5-9.2,9.3-9.4c4.7-0.1,9.4,0,14.1,0c0.1,30.1,0.1,60.3,0,90.4c-6.4,0-12.8,0-19.2,0
		c-1.3-0.2-3.1,0.3-4-1c-12.4-16.7-24.3-33.8-37-50.3c-0.5,17-0.1,34.1-0.2,51.1c-7.9,0.2-15.7,0.2-23.6,0
		C167.3,351.2,167.1,321.1,167.3,290.9z"/>
	<g>
		<path fill="#467CBC" d="M267.2,290.9c13.6,0.3,27.1,0,40.7,0.2c14,0.6,28.5,5.9,37.2,17.4c12.5,16.7,11.8,42.4-2.1,58.1
			c-6.1,6.8-14.4,11.2-23.2,13.3c-9.4,2.5-19.2,1.6-28.9,1.8c-5.4-0.1-10.8,0.3-16.1-0.3c-5-0.8-8.3-5.9-8-10.7
			C267.2,343.9,266.7,317.4,267.2,290.9z M290.6,311.5c-0.1,16.4-0.1,32.9,0,49.3c5.4,0.1,10.9,0.2,16.3-0.1
			c7-0.3,13.9-3.7,18.1-9.3c5.6-7.5,6.3-18,2.7-26.5c-3-7.5-10.7-12.5-18.6-13.2C302.9,311.2,296.8,311.6,290.6,311.5z"/>
	</g>
	<g>
		<path fill="#467CBC" d="M384.8,291.3c9.8-0.8,19.8-0.1,29.7-0.4c11.1,30.2,22.9,60.3,33.9,90.6c-6.8-0.1-13.6,0.2-20.4-0.1
			c-4-0.1-7.5-3.3-8.6-7c-0.8-1.9-1-4-2.2-5.7c-11.7-0.3-23.4-0.1-35.1-0.1c-1.4,4.2-3,8.5-4.3,12.8c-8.9,0.4-17.9,0.1-26.8,0.2
			C362.1,351.4,373.3,321.3,384.8,291.3z M399.4,315.2c-3.4,10.9-7.7,21.6-10.7,32.6c7.3,0.2,14.6,0.1,21.9,0.1
			c-1.9-7.2-4.6-14.2-6.9-21.4C402.3,322.8,401.6,318.7,399.4,315.2z"/>
	</g>
	<path fill="#467CBC" d="M457.2,290.8c8,0.3,16.1,0.1,24.1,0.2c11.8,16.6,24.2,32.8,36.1,49.3c0-13.3-0.1-26.5,0-39.8
		c-0.1-5,4.5-9.4,9.4-9.5c4.6-0.2,9.2,0.1,13.9-0.2c0.4,30.2,0.1,60.5,0.1,90.7c-7.6-0.2-15.2,0.2-22.8-0.2
		c-12.5-17.3-25-34.6-37.8-51.6c0.2,17.3,0.1,34.6,0,51.8c-7.8,0-15.7-0.1-23.5,0c0.1-25.7,0-51.3,0.1-77
		C457.1,300,456.7,295.4,457.2,290.8z"/>
</g>
</svg>
