<?xml version="1.0" encoding="UTF-8" standalone="no"?>
<svg width="764px" height="383px" viewBox="0 0 764 383" version="1.1" xmlns="http://www.w3.org/2000/svg" xmlns:xlink="http://www.w3.org/1999/xlink" xmlns:sketch="http://www.bohemiancoding.com/sketch/ns">
    <!-- Generator: Sketch 3.5.2 (25235) - http://www.bohemiancoding.com/sketch -->
    <title>fandango-logo</title>
    <desc>Created with Sketch.</desc>
    <defs></defs>
    <g id="Page-1" stroke="none" stroke-width="1" fill="none" fill-rule="evenodd" sketch:type="MSPage">
        <g id="fandango-logo" sketch:type="MSLayerGroup">
            <g id="Group" transform="translate(99.000000, 31.000000)" fill="#FFFFFF" sketch:type="MSShapeGroup">
                <path d="M276.7,1.1 C277.9,0.9 279.4,0.3 280.5,0.9 C284.6,16.5 288.8,32 292.9,47.5 C272.3,53 251.8,58.6 231.2,64 C229.7,64.2 230.5,66 230.6,67 C234.4,81.8 238.8,96.4 242.4,111.3 C263.5,105.9 284.5,99.9 305.6,94.7 C308.8,107.5 312.5,120.2 315.7,133.1 C316.6,136.1 317.6,139.1 317.8,142.2 C300.7,146.4 283.8,151.3 266.8,155.8 C262.9,156.9 258.9,157.6 255.2,159.2 C259.4,174.8 263.8,190.4 267.7,206.2 C250,210.8 232.4,215.7 214.7,220.3 C211.3,221.1 208,222.6 204.4,222.4 C199.9,204.4 195,186.5 190.1,168.5 C189.6,167 189.4,165.3 190.6,164.1 C196,156.7 199.6,147.8 199.9,138.6 C200.9,123.9 194.3,108.9 182.7,99.8 C179.1,96.4 174.4,94.6 170.2,92.2 C168.8,89.9 168.5,87.2 167.7,84.7 C164.2,71.3 160.5,57.9 157,44.5 C156.1,40.9 154.7,37.4 154.4,33.7 C158.9,32.9 163.3,31.5 167.7,30.4 C204.1,20.5 240.4,10.8 276.7,1.1 L276.7,1.1 Z" id="Shape"></path>
                <path d="M653.9,265.5 C652.6,261.7 657.7,257.8 661,260.3 C663.5,261.7 663.7,265.1 662.3,267.4 C661.8,266.9 660.7,265.9 660.2,265.4 C660.5,264.1 660.8,262.8 661,261.5 C659.4,261.2 657.7,261 656.1,261.1 C656.1,263.3 656.1,265.5 656.2,267.7 C657.4,267.5 658,266.7 658.2,265.5 C659.3,266.5 660.4,267.4 661.7,268.1 C659,270.1 654.6,269 653.9,265.5 L653.9,265.5 Z" id="Shape"></path>
                <path d="M593.5,279.2 C602.1,277.6 611.4,280.6 617.3,287.2 C626.6,296.5 627,312.9 618.1,322.6 C610.1,332.1 595.1,334.7 584.6,327.9 C574.8,322 569.5,309.5 572.7,298.4 C575.2,288.7 583.7,281 593.5,279.2 L593.5,279.2 Z" id="Shape"></path>
                <path d="M191.6,280.5 C197.8,280.6 203.9,280.2 210.1,280.7 C218,281.4 225.7,286.4 228.7,293.9 C232.3,302.4 231.6,312.9 226,320.4 C221.8,326.1 214.9,329.4 207.9,329.7 C202.5,330 197,329.8 191.6,329.8 C191.5,313.4 191.5,297 191.6,280.5 L191.6,280.5 Z" id="Shape"></path>
                <path d="M6.6,297.9 C8.4,293.4 9.4,288.6 11.6,284.2 C15.3,295 19,305.9 22.4,316.8 C15.1,317 7.7,316.9 0.4,316.9 C2.1,310.5 4.6,304.3 6.6,297.9 L6.6,297.9 Z" id="Shape"></path>
                <path d="M300.4,284.2 C302.5,287.7 303.2,291.8 304.6,295.5 C306.9,302.6 309.6,309.6 311.5,316.9 C304.2,316.9 296.9,317.1 289.6,316.8 C292.8,305.8 297,295.1 300.4,284.2 L300.4,284.2 Z" id="Shape"></path>
            </g>
            <path d="M448.8,0.5 L450.9,0.5 C456.3,21.9 462.2,43.1 467.9,64.4 C468.8,68.1 470.1,71.7 470.6,75.5 C468.8,78.4 466.1,80.8 464.3,83.7 C458,93.5 457.1,106.6 462.3,117.1 C466.4,126 474.5,132.9 483.9,135.6 C485.5,136.2 487.6,136.6 487.8,138.6 C494,161.8 500.2,185 506.4,208.1 C506.5,209.4 507.4,210.8 506.7,212 C502.2,213.9 497.4,214.6 492.7,216 C432,232.4 371.2,248.7 310.4,265 C305.4,266.2 300.6,268 295.4,268.5 C288.9,243.4 282,218.4 275.4,193.4 C286.4,183.8 290.4,167.1 284.6,153.6 C280.2,142.9 270.2,134.9 258.9,132.6 C252.7,107.3 245.1,82.3 239,56.9 C244.7,55.8 250.3,53.9 256,52.5 C313.3,37.1 370.7,21.7 428.1,6.4 C435,4.4 442,3 448.8,0.5 L448.8,0.5 Z M375.7,32.1 C339.4,41.9 303.1,51.6 266.8,61.3 C262.4,62.5 258,63.9 253.5,64.6 C253.8,68.3 255.2,71.8 256.1,75.4 C259.6,88.8 263.3,102.2 266.8,115.6 C267.6,118.1 267.9,120.8 269.3,123.1 C273.5,125.5 278.2,127.3 281.8,130.7 C293.4,139.8 300,154.8 299,169.5 C298.7,178.7 295.1,187.6 289.7,195 C288.5,196.2 288.7,197.9 289.2,199.4 C294.1,217.3 299,235.3 303.5,253.3 C307.1,253.5 310.4,252 313.8,251.2 C331.5,246.6 349.1,241.6 366.8,237.1 C362.9,221.4 358.5,205.8 354.3,190.1 C358,188.5 362,187.8 365.9,186.7 C382.9,182.3 399.8,177.3 416.9,173.1 C416.6,170 415.7,167 414.8,164 C411.6,151.2 407.9,138.4 404.7,125.6 C383.6,130.9 362.6,136.8 341.5,142.2 C337.9,127.4 333.6,112.7 329.7,97.9 C329.6,96.9 328.7,95.2 330.3,94.9 C350.9,89.5 371.4,83.9 392,78.4 C387.8,62.9 383.6,47.3 379.6,31.8 C378.4,31.3 376.9,31.9 375.7,32.1 L375.7,32.1 Z" id="Shape" fill="#EE7C3D" sketch:type="MSShapeGroup"></path>
            <g id="Group" transform="translate(0.000000, 289.000000)" fill="#467CBC" sketch:type="MSShapeGroup">
                <path d="M573,7.6 C584.1,1 597.5,-0.9 610.1,1.4 C622.2,3.8 633.5,11.6 638.9,22.9 C632.2,25.8 626,29.9 619.3,32.7 C616.3,28.5 612.7,24.7 607.8,22.8 C598.7,19.2 587.6,22.4 581.4,29.8 C571.6,41.1 573.6,61 586.4,69.2 C595.4,75.3 607.7,74.1 616.5,68.2 C617,65.8 616.8,63.3 616.5,61 C609.8,61.2 603.1,61.1 596.5,61.1 C596.6,54.3 596.6,47.5 596.5,40.7 C611.1,40.3 625.7,40.6 640.3,40.5 C640.5,50.8 640.3,61.2 640.4,71.5 C640.4,74.2 639.8,77.1 637.8,79.1 C629.7,87.4 618.5,92.3 607.1,93.9 C602.8,93.4 598.5,93.4 594.2,93.8 C582.2,92.7 570.4,87.4 562.4,78.2 C551.7,66.3 548.9,48.7 553.2,33.5 C556,22.7 563.3,13.2 573,7.6 L573,7.6 Z" id="Shape"></path>
                <path d="M688.5,1.1 C702.9,-1.1 718.6,2.1 729.8,11.7 C748.6,27.3 750.8,58.2 735.5,76.9 C728.1,86.3 716.7,92 705,93.5 C700,93.5 695.1,93.2 690.1,93.5 C676.6,92.1 663.6,84.7 656.2,73.2 C643.9,54.4 646.9,26.4 664.4,11.8 C671.2,6.1 679.7,2.5 688.5,1.1 L688.5,1.1 Z M692.5,21.2 C682.7,23 674.1,30.7 671.6,40.4 C668.4,51.4 673.7,64 683.5,69.9 C694,76.7 709.1,74.1 717,64.6 C725.8,54.9 725.5,38.5 716.2,29.2 C710.5,22.6 701.1,19.6 692.5,21.2 L692.5,21.2 Z" id="Shape"></path>
                <path d="M755.3,0.8 C757.4,-5.22359933e-14 759.9,0.5 761.6,2 C763.7,3.7 763,6.8 762.8,9.2 C760.9,13 755.1,13.4 752.6,10 C750.2,7 751.6,2 755.3,0.8 L755.3,0.8 Z M752.9,7.5 C753.6,11 758,12.1 760.7,10.1 C759.4,9.4 758.3,8.5 757.2,7.5 C757,8.7 756.4,9.4 755.2,9.7 C755.2,7.5 755.2,5.3 755.1,3.1 C756.8,3 758.4,3.2 760,3.5 C759.7,4.8 759.5,6.1 759.2,7.4 C759.7,7.9 760.8,8.9 761.3,9.4 C762.6,7.1 762.4,3.7 760,2.3 C756.7,-0.1 751.6,3.7 752.9,7.5 L752.9,7.5 Z" id="Shape"></path>
                <path d="M0.8,1.5 C23.9,1.4 47.1,1.4 70.2,1.5 C70.2,8.4 70.6,15.3 69.9,22.1 C55.2,21.9 40.5,21.9 25.7,22.1 C25.6,27.9 25.6,33.8 25.7,39.6 C36.4,39.8 47.1,39.7 57.9,39.7 C57.9,44.2 58.4,48.8 57.6,53.3 C56.8,57.3 53.1,60.4 49,60.2 C41.3,60.3 33.5,60.2 25.8,60.2 C25.6,70.8 25.8,81.4 25.7,92.1 C17.5,92 9.4,92 1.2,92.1 C-0.7,87.8 0.5,83.1 0.5,78.5 C0.2,54.2 0.9,29.8 7.10542736e-15,5.5 C0.2,4.2 0.4,2.8 0.8,1.5 L0.8,1.5 Z" id="Shape"></path>
                <path d="M94.8,2.1 C105,1.9 115.1,2 125.3,2.1 C136.4,32.3 148.1,62.3 159.1,92.5 C152.7,92.5 146.3,92.6 139.9,92.5 C136,92.7 132.1,90.3 130.6,86.6 C129.6,84.3 128.8,81.9 127.9,79.5 L92.8,79.5 C91.2,83.7 89.6,87.9 88.5,92.3 C79.3,92.9 70.1,92.5 60.8,92.5 C72.2,62.3 83.6,32.2 94.8,2.1 L94.8,2.1 Z M105.6,39.9 C103.6,46.3 101.1,52.5 99.4,58.9 C106.7,58.9 114.1,59 121.4,58.8 C118,47.9 114.3,37 110.6,26.2 C108.4,30.6 107.4,35.4 105.6,39.9 L105.6,39.9 Z" id="Shape"></path>
                <path d="M167.3,1.9 C175.4,2 183.5,1.9 191.5,2 C202.2,17 213.4,31.6 224.1,46.5 C225.2,48 226.4,49.4 227.7,50.7 C227.8,37.6 227.6,24.5 227.7,11.4 C227.7,6.5 232.2,2.2 237,2 C241.7,1.9 246.4,2 251.1,2 C251.2,32.1 251.2,62.3 251.1,92.4 L231.9,92.4 C230.6,92.2 228.8,92.7 227.9,91.4 C215.5,74.7 203.6,57.6 190.9,41.1 C190.4,58.1 190.8,75.2 190.7,92.2 C182.8,92.4 175,92.4 167.1,92.2 C167.3,62.2 167.1,32.1 167.3,1.9 L167.3,1.9 Z" id="Shape"></path>
                <path d="M267.2,1.9 C280.8,2.2 294.3,1.9 307.9,2.1 C321.9,2.7 336.4,8 345.1,19.5 C357.6,36.2 356.9,61.9 343,77.6 C336.9,84.4 328.6,88.8 319.8,90.9 C310.4,93.4 300.6,92.5 290.9,92.7 C285.5,92.6 280.1,93 274.8,92.4 C269.8,91.6 266.5,86.5 266.8,81.7 C267.2,54.9 266.7,28.4 267.2,1.9 L267.2,1.9 Z M290.6,22.5 C290.5,38.9 290.5,55.4 290.6,71.8 C296,71.9 301.5,72 306.9,71.7 C313.9,71.4 320.8,68 325,62.4 C330.6,54.9 331.3,44.4 327.7,35.9 C324.7,28.4 317,23.4 309.1,22.7 C302.9,22.2 296.8,22.6 290.6,22.5 L290.6,22.5 Z" id="Shape"></path>
                <path d="M384.8,2.3 C394.6,1.5 404.6,2.2 414.5,1.9 C425.6,32.1 437.4,62.2 448.4,92.5 C441.6,92.4 434.8,92.7 428,92.4 C424,92.3 420.5,89.1 419.4,85.4 C418.6,83.5 418.4,81.4 417.2,79.7 C405.5,79.4 393.8,79.6 382.1,79.6 C380.7,83.8 379.1,88.1 377.8,92.4 C368.9,92.8 359.9,92.5 351,92.6 C362.1,62.4 373.3,32.3 384.8,2.3 L384.8,2.3 Z M399.4,26.2 C396,37.1 391.7,47.8 388.7,58.8 C396,59 403.3,58.9 410.6,58.9 C408.7,51.7 406,44.7 403.7,37.5 C402.3,33.8 401.6,29.7 399.4,26.2 L399.4,26.2 Z" id="Shape"></path>
                <path d="M457.2,1.8 C465.2,2.1 473.3,1.9 481.3,2 C493.1,18.6 505.5,34.8 517.4,51.3 C517.4,38 517.3,24.8 517.4,11.5 C517.3,6.5 521.9,2.1 526.8,2 C531.4,1.8 536,2.1 540.7,1.8 C541.1,32 540.8,62.3 540.8,92.5 C533.2,92.3 525.6,92.7 518,92.3 C505.5,75 493,57.7 480.2,40.7 C480.4,58 480.3,75.3 480.2,92.5 C472.4,92.5 464.5,92.4 456.7,92.5 C456.8,66.8 456.7,41.2 456.8,15.5 C457.1,11 456.7,6.4 457.2,1.8 L457.2,1.8 Z" id="Shape"></path>
            </g>
        </g>
    </g>
</svg>

