<?xml version="1.0" encoding="UTF-8" standalone="no"?>
<svg width="268px" height="269px" viewBox="0 0 268 269" version="1.1" xmlns="http://www.w3.org/2000/svg" xmlns:xlink="http://www.w3.org/1999/xlink" xmlns:sketch="http://www.bohemiancoding.com/sketch/ns">
    <!-- Generator: Sketch 3.5.2 (25235) - http://www.bohemiancoding.com/sketch -->
    <title>Shape</title>
    <desc>Created with Sketch.</desc>
    <defs></defs>
    <g id="Page-1" stroke="none" stroke-width="1" fill="none" fill-rule="evenodd" sketch:type="MSPage">
        <g id="fandango-logo" sketch:type="MSLayerGroup" transform="translate(-239.000000, 0.000000)" fill="#EE7C3D">
            <g id="Page-1" sketch:type="MSShapeGroup">
                <g id="fandango-logo">
                    <g id="Page-1">
                        <g id="fandango-logo">
                            <path d="M448.8,0.5 L450.9,0.5 C456.3,21.9 462.2,43.1 467.9,64.4 C468.8,68.1 470.1,71.7 470.6,75.5 C468.8,78.4 466.1,80.8 464.3,83.7 C458,93.5 457.1,106.6 462.3,117.1 C466.4,126 474.5,132.9 483.9,135.6 C485.5,136.2 487.6,136.6 487.8,138.6 C494,161.8 500.2,185 506.4,208.1 C506.5,209.4 507.4,210.8 506.7,212 C502.2,213.9 497.4,214.6 492.7,216 C432,232.4 371.2,248.7 310.4,265 C305.4,266.2 300.6,268 295.4,268.5 C288.9,243.4 282,218.4 275.4,193.4 C286.4,183.8 290.4,167.1 284.6,153.6 C280.2,142.9 270.2,134.9 258.9,132.6 C252.7,107.3 245.1,82.3 239,56.9 C244.7,55.8 250.3,53.9 256,52.5 C313.3,37.1 370.7,21.7 428.1,6.4 C435,4.4 442,3 448.8,0.5 L448.8,0.5 L448.8,0.5 L448.8,0.5 Z M375.7,32.1 C339.4,41.9 303.1,51.6 266.8,61.3 C262.4,62.5 258,63.9 253.5,64.6 C253.8,68.3 255.2,71.8 256.1,75.4 C259.6,88.8 263.3,102.2 266.8,115.6 C267.6,118.1 267.9,120.8 269.3,123.1 C273.5,125.5 278.2,127.3 281.8,130.7 C293.4,139.8 300,154.8 299,169.5 C298.7,178.7 295.1,187.6 289.7,195 C288.5,196.2 288.7,197.9 289.2,199.4 C294.1,217.3 299,235.3 303.5,253.3 C307.1,253.5 310.4,252 313.8,251.2 C331.5,246.6 349.1,241.6 366.8,237.1 C362.9,221.4 358.5,205.8 354.3,190.1 C358,188.5 362,187.8 365.9,186.7 C382.9,182.3 399.8,177.3 416.9,173.1 C416.6,170 415.7,167 414.8,164 C411.6,151.2 407.9,138.4 404.7,125.6 C383.6,130.9 362.6,136.8 341.5,142.2 C337.9,127.4 333.6,112.7 329.7,97.9 C329.6,96.9 328.7,95.2 330.3,94.9 C350.9,89.5 371.4,83.9 392,78.4 C387.8,62.9 383.6,47.3 379.6,31.8 C378.4,31.3 376.9,31.9 375.7,32.1 L375.7,32.1 L375.7,32.1 L375.7,32.1 Z" id="Shape"></path>
                        </g>
                    </g>
                </g>
            </g>
        </g>
    </g>
</svg>