<?xml version="1.0" encoding="UTF-8" standalone="no"?>
<svg width="24px" height="24px" viewBox="0 0 24 24" version="1.1" xmlns="http://www.w3.org/2000/svg" xmlns:xlink="http://www.w3.org/1999/xlink" xmlns:sketch="http://www.bohemiancoding.com/sketch/ns">
    <!-- Generator: Sketch 3.3.2 (12043) - http://www.bohemiancoding.com/sketch -->
    <title>Imported Layers</title>
    <desc>Created with Sketch.</desc>
    <defs></defs>
    <g id="Page-1" stroke="none" stroke-width="1" fill="none" fill-rule="evenodd" sketch:type="MSPage">
        <g id="iPhone-6" sketch:type="MSArtboardGroup" transform="translate(-16.000000, -82.000000)" fill="#000000">
            <g id="Imported-Layers" sketch:type="MSLayerGroup" transform="translate(16.000000, 82.000000)">
                <path d="M0.49984,23.18016 C0.22496,23.18016 0,22.95488 0,22.68 L0,0.68 C0,0.40384 0.22368,0.17984 0.49984,0.17984 C0.77632,0.17984 1,0.40384 1,0.68 L1,22.68 C1,22.95488 0.77632,23.18016 0.49984,23.18016 L0.49984,23.18016 Z" id="Fill-1" sketch:type="MSShapeGroup"></path>
                <path d="M23.50016,18.68 L10.49984,18.68 C10.22368,18.68 10,18.45504 10,18.17984 L10,15.68 C10,15.40512 10.22368,15.18016 10.49984,15.18016 C10.77632,15.18016 11,15.40512 11,15.68 L11,17.68 L22.7424,17.68 L20.04128,11.3776 C19.9888,11.25248 19.9888,11.10752 20.04128,10.98112 L22.7424,4.67872 L14,4.67872 C13.72512,4.67872 13.50016,4.45504 13.50016,4.17888 C13.50016,3.9024 13.72512,3.67872 14,3.67872 L23.50016,3.67872 C23.66752,3.67872 23.82624,3.76256 23.91744,3.90368 C24.00992,4.04512 24.02496,4.22112 23.95872,4.37632 L21.04256,11.17888 L23.95872,17.98112 C24.02496,18.13504 24.00992,18.3136 23.91744,18.45376 C23.82496,18.59616 23.66752,18.68128 23.50016,18.68128 L23.50016,18.68 Z" id="Fill-2" sketch:type="MSShapeGroup"></path>
                <path d="M13.50016,15.68 L2.49984,15.68 C2.22496,15.68 2,15.45504 2,15.18016 L2,1.18016 C2,0.90368 2.22496,0.68 2.49984,0.68 L13.50016,0.68 C13.77632,0.68 14,0.90368 14,1.18016 L14,15.18016 C14,15.45504 13.77632,15.68 13.50016,15.68 L13.50016,15.68 Z M3,14.68 L13,14.68 L13,1.68 L3,1.68 L3,14.68 Z" id="Fill-3" sketch:type="MSShapeGroup"></path>
                <path d="M10.49984,18.68 C10.37248,18.68 10.24384,18.63136 10.14624,18.53376 C9.95136,18.33984 9.95136,18.02112 10.14624,17.82624 L13.14624,14.82624 C13.34112,14.63264 13.65888,14.63264 13.85376,14.82624 C14.04864,15.02112 14.04864,15.33888 13.85376,15.53376 L10.85376,18.53376 C10.75616,18.63136 10.6288,18.68 10.50112,18.68 L10.49984,18.68 Z" id="Fill-4" sketch:type="MSShapeGroup"></path>
            </g>
        </g>
    </g>
</svg>