<?xml version="1.0" encoding="UTF-8" standalone="no"?>
<svg width="26px" height="20px" viewBox="0 0 26 20" version="1.1" xmlns="http://www.w3.org/2000/svg" xmlns:xlink="http://www.w3.org/1999/xlink" xmlns:sketch="http://www.bohemiancoding.com/sketch/ns">
    <!-- Generator: Sketch 3.3.3 (12081) - http://www.bohemiancoding.com/sketch -->
    <title>Imported Layers Copy</title>
    <desc>Created with Sketch.</desc>
    <defs></defs>
    <g id="Page-1" stroke="none" stroke-width="1" fill="none" fill-rule="evenodd" sketch:type="MSPage">
        <g id="iPhone-6" sketch:type="MSArtboardGroup" transform="translate(-241.000000, -78.000000)" fill="#FFFFFF">
            <g id="Imported-Layers-Copy-+-Photos" sketch:type="MSLayerGroup" transform="translate(241.000000, 78.000000)">
                <g id="Imported-Layers-Copy" sketch:type="MSShapeGroup">
                    <g>
                        <path d="M24.6258333,19.8958333 L1.53166667,19.8958333 C0.875833333,19.8958333 0.3125,19.3325 0.3125,18.6458333 L0.3125,1.52 C0.3125,0.833333333 0.875833333,0.30125 1.53166667,0.30125 L24.5945833,0.30125 C25.2816667,0.30125 25.81375,0.864166667 25.81375,1.52 L25.81375,18.6458333 C25.8429167,19.3325 25.2816667,19.8958333 24.6258333,19.8958333 L24.6258333,19.8958333 Z M1.53166667,0.927916667 C1.18833333,0.927916667 0.9375,1.20916667 0.9375,1.52166667 L0.9375,18.6458333 C0.9375,18.9891667 1.21916667,19.24 1.53166667,19.24 L24.5945833,19.24 C24.9383333,19.24 25.18875,18.9583333 25.18875,18.6458333 L25.18875,1.52 C25.18875,1.17666667 24.9070833,0.92625 24.5945833,0.92625 L1.53166667,0.92625 L1.53166667,0.927916667 Z" id="Fill-1"></path>
                        <path d="M23.0304167,17.6466667 L2.96875,17.6466667 C2.78166667,17.6466667 2.65625,17.52125 2.65625,17.3341667 L2.65625,11.6454167 C2.65625,11.55125 2.71791667,11.4275 2.8125,11.395 L7.09291667,8.5825 C7.1875,8.52041667 7.34375,8.52041667 7.43666667,8.5825 L14.18625,12.92625 L17.31125,11.0204167 C17.4054167,10.95875 17.5616667,10.95875 17.6545833,11.0204167 L23.2179167,15.02125 C23.3120833,15.0829167 23.3429167,15.1775 23.3429167,15.2716667 L23.3429167,17.3341667 C23.3429167,17.4904167 23.2195833,17.6466667 23.0304167,17.6466667 L23.0304167,17.6466667 Z M3.28125,17.0216667 L22.7179167,17.0216667 L22.7179167,15.4279167 L17.4383333,11.67625 L14.3441667,13.55125 C14.2495833,13.6133333 14.1258333,13.6133333 14.0008333,13.55125 L7.24916667,9.20916667 L3.28125,11.8341667 L3.28125,17.0216667 Z" id="Fill-2"></path>
                        <path d="M18.5320833,7.73916667 C17.1875,7.73916667 16.09375,6.64541667 16.09375,5.30125 C16.09375,3.95666667 17.1875,2.86291667 18.5320833,2.86291667 C19.87625,2.86291667 20.97,3.95666667 20.97,5.30125 C20.9375,6.64541667 19.84375,7.73916667 18.5320833,7.73916667 L18.5320833,7.73916667 Z M18.5320833,3.52041667 C17.5325,3.52041667 16.71875,4.3325 16.71875,5.33375 C16.71875,6.33291667 17.5308333,7.14666667 18.5320833,7.14666667 C19.53125,7.14666667 20.345,6.33458333 20.345,5.33375 C20.3125,4.30166667 19.5004167,3.52041667 18.5320833,3.52041667 L18.5320833,3.52041667 Z" id="Fill-3"></path>
                    </g>
                </g>
            </g>
        </g>
    </g>
</svg>