<?xml version="1.0" encoding="UTF-8" standalone="no"?>
<svg width="36px" height="51px" viewBox="0 0 36 51" version="1.1" xmlns="http://www.w3.org/2000/svg" xmlns:xlink="http://www.w3.org/1999/xlink" xmlns:sketch="http://www.bohemiancoding.com/sketch/ns">
    <!-- Generator: Sketch 3.3.3 (12081) - http://www.bohemiancoding.com/sketch -->
    <title>Imported Layers</title>
    <desc>Created with Sketch.</desc>
    <defs></defs>
    <g id="Page-1" stroke="none" stroke-width="1" fill="none" fill-rule="evenodd" sketch:type="MSPage">
        <path d="M17.9346667,1 C8.58066667,1 1,8.58333333 1,17.9346667 C1,18.1353333 1.00466667,18.3386667 1.01533333,18.544 C1.078,20.3226667 1.414,22.0313333 1.984,23.63 C5.596,35.508 17.9346667,51 17.9346667,51 C17.9346667,51 30.2706667,35.508 33.8853333,23.6326667 C34.4553333,22.034 34.7913333,20.3253333 34.854,18.544 C34.8646667,18.3386667 34.8693333,18.1353333 34.8693333,17.9346667 C34.8693333,8.58333333 27.2886667,1 17.9346667,1 L17.9346667,1 Z M17.9346667,26.2293333 C13.354,26.2293333 9.64066667,22.5153333 9.64066667,17.9346667 C9.64066667,13.354 13.354,9.64066667 17.9346667,9.64066667 C22.5153333,9.64066667 26.2286667,13.354 26.2286667,17.9346667 C26.2286667,22.5153333 22.5153333,26.2293333 17.9346667,26.2293333 L17.9346667,26.2293333 Z" id="Imported-Layers" stroke="#979797" sketch:type="MSShapeGroup"></path>
    </g>
</svg>