<?xml version="1.0" encoding="UTF-8" standalone="no"?>
<svg width="60px" height="56px" viewBox="0 0 60 56" version="1.1" xmlns="http://www.w3.org/2000/svg" xmlns:xlink="http://www.w3.org/1999/xlink" xmlns:sketch="http://www.bohemiancoding.com/sketch/ns">
    <!-- Generator: Sketch 3.3.3 (12081) - http://www.bohemiancoding.com/sketch -->
    <title>Imported Layers</title>
    <desc>Created with Sketch.</desc>
    <defs></defs>
    <g id="Page-1" stroke="none" stroke-width="1" fill="none" fill-rule="evenodd" sketch:type="MSPage">
        <path d="M56.176,5.926 L49.125,5.926 L49.125,1.727 C49.125,0.829 48.375,0 47.399,0 L43.649,0 C42.75,0 41.922,0.75 41.922,1.727 L41.922,6 L18,6 L18,1.727 C18,0.829 17.25,0 16.274,0 L12.524,0 C11.625,0 10.797,0.75 10.797,1.727 L10.797,6 L3.676,6 C1.653,6 0,7.649 0,9.676 L0,51.528 C0,53.551 1.649,55.204 3.676,55.204 L56.176,55.204 C58.199,55.204 59.852,53.555 59.852,51.528 L59.852,9.676 C59.852,7.579 58.199,5.926 56.176,5.926 L56.176,5.926 Z M42.977,1.727 C42.977,1.278 43.352,0.977 43.727,0.977 L47.477,0.977 C47.926,0.977 48.227,1.352 48.227,1.727 L48.227,10.278 C48.227,10.727 47.852,11.028 47.477,11.028 L43.727,11.028 C43.278,11.028 42.977,10.653 42.977,10.278 L42.977,1.727 Z M11.852,1.727 C11.852,1.278 12.227,0.977 12.602,0.977 L16.352,0.977 C16.801,0.977 17.102,1.352 17.102,1.727 L17.102,10.278 C17.102,10.727 16.727,11.028 16.352,11.028 L12.602,11.028 C12.153,11.028 11.852,10.653 11.852,10.278 L11.852,1.727 Z M3.676,6.903 L10.949,6.903 L10.949,10.278 C10.949,11.176 11.699,12.004 12.676,12.004 L16.426,12.004 C17.324,12.004 18.153,11.254 18.153,10.278 L18.153,6.903 L42.227,6.903 L42.227,10.278 C42.227,11.176 42.977,12.004 43.953,12.004 L47.703,12.004 C48.602,12.004 49.43,11.254 49.43,10.278 L49.43,6.903 L56.176,6.903 C57.676,6.903 58.949,8.176 58.949,9.676 L58.949,18.075 L0.903,18.075 L0.903,9.676 C0.903,8.102 2.102,6.903 3.676,6.903 L3.676,6.903 Z M56.176,54.227 L3.676,54.227 C2.176,54.227 0.903,52.954 0.903,51.454 L0.903,18.977 L58.953,18.977 L58.953,51.454 C58.949,53.028 57.676,54.227 56.176,54.227 L56.176,54.227 Z M13.051,27.454 C13.051,27.68 12.824,27.903 12.602,27.903 L8.102,27.903 C7.875,27.903 7.653,27.676 7.653,27.454 C7.653,27.227 7.879,27.004 8.102,27.004 L12.602,27.004 C12.903,27 13.051,27.227 13.051,27.454 L13.051,27.454 Z M25.949,27.454 C25.949,27.68 25.723,27.903 25.5,27.903 L21,27.903 C20.774,27.903 20.551,27.676 20.551,27.454 C20.551,27.227 20.778,27.004 21,27.004 L25.5,27.004 C25.801,27 25.949,27.227 25.949,27.454 L25.949,27.454 Z M38.852,27.454 C38.852,27.68 38.625,27.903 38.403,27.903 L33.903,27.903 C33.676,27.903 33.453,27.676 33.453,27.454 C33.453,27.227 33.68,27.004 33.903,27.004 L38.403,27.004 C38.699,27 38.852,27.227 38.852,27.454 L38.852,27.454 Z M51.75,27.454 C51.75,27.68 51.524,27.903 51.301,27.903 L46.801,27.903 C46.574,27.903 46.352,27.676 46.352,27.454 C46.352,27.227 46.578,27.004 46.801,27.004 L51.301,27.004 C51.602,27 51.75,27.227 51.75,27.454 L51.75,27.454 Z M13.051,36.676 C13.051,36.903 12.824,37.125 12.602,37.125 L8.102,37.125 C7.875,37.125 7.653,36.899 7.653,36.676 C7.653,36.45 7.879,36.227 8.102,36.227 L12.602,36.227 C12.903,36.227 13.051,36.454 13.051,36.676 L13.051,36.676 Z M25.949,36.676 C25.949,36.903 25.723,37.125 25.5,37.125 L21,37.125 C20.774,37.125 20.551,36.899 20.551,36.676 C20.551,36.45 20.778,36.227 21,36.227 L25.5,36.227 C25.801,36.227 25.949,36.454 25.949,36.676 L25.949,36.676 Z M38.852,36.676 C38.852,36.903 38.625,37.125 38.403,37.125 L33.903,37.125 C33.676,37.125 33.453,36.899 33.453,36.676 C33.453,36.45 33.68,36.227 33.903,36.227 L38.403,36.227 C38.699,36.227 38.852,36.454 38.852,36.676 L38.852,36.676 Z M51.75,36.676 C51.75,36.903 51.524,37.125 51.301,37.125 L46.801,37.125 C46.574,37.125 46.352,36.899 46.352,36.676 C46.352,36.45 46.578,36.227 46.801,36.227 L51.301,36.227 C51.602,36.227 51.75,36.454 51.75,36.676 L51.75,36.676 Z M13.051,45.903 C13.051,46.129 12.824,46.352 12.602,46.352 L8.102,46.352 C7.875,46.352 7.653,46.125 7.653,45.903 C7.653,45.676 7.879,45.454 8.102,45.454 L12.602,45.454 C12.903,45.454 13.051,45.676 13.051,45.903 L13.051,45.903 Z M25.949,45.903 C25.949,46.129 25.723,46.352 25.5,46.352 L21,46.352 C20.774,46.352 20.551,46.125 20.551,45.903 C20.551,45.676 20.778,45.454 21,45.454 L25.5,45.454 C25.801,45.454 25.949,45.676 25.949,45.903 L25.949,45.903 Z M38.852,45.903 C38.852,46.129 38.625,46.352 38.403,46.352 L33.903,46.352 C33.676,46.352 33.453,46.125 33.453,45.903 C33.453,45.676 33.68,45.454 33.903,45.454 L38.403,45.454 C38.699,45.454 38.852,45.676 38.852,45.903 L38.852,45.903 Z M51.75,45.903 C51.75,46.129 51.524,46.352 51.301,46.352 L46.801,46.352 C46.574,46.352 46.352,46.125 46.352,45.903 C46.352,45.676 46.578,45.454 46.801,45.454 L51.301,45.454 C51.602,45.454 51.75,45.676 51.75,45.903 L51.75,45.903 Z" id="Imported-Layers" fill="#979797" sketch:type="MSShapeGroup"></path>
    </g>
</svg>