<?xml version="1.0" encoding="UTF-8" standalone="no"?>
<svg width="51px" height="50px" viewBox="0 0 51 50" version="1.1" xmlns="http://www.w3.org/2000/svg" xmlns:xlink="http://www.w3.org/1999/xlink" xmlns:sketch="http://www.bohemiancoding.com/sketch/ns">
    <!-- Generator: Sketch 3.3.3 (12081) - http://www.bohemiancoding.com/sketch -->
    <title>Imported Layers</title>
    <desc>Created with Sketch.</desc>
    <defs></defs>
    <g id="Page-1" stroke="none" stroke-width="1" fill="none" fill-rule="evenodd" sketch:type="MSPage">
        <path d="M50.6468928,50 L0,50 L0,49.3881846 C0,39.9017832 1.30683765,34.6597491 3.98332599,33.3627005 C4.67753251,33.0249784 5.57323022,32.5118692 6.6092376,31.9163689 C9.57205554,30.2114434 13.9379701,27.7038161 18.816178,26.4353189 C15.6298435,23.4308975 13.4819637,18.1603119 13.4819637,13.1222162 C13.4819637,5.51939047 18.4629566,0 25.3234464,0 C32.1839362,0 37.1649291,5.56996721 37.1649291,13.2429478 C37.1649291,18.2206777 35.1059664,23.3003769 31.9449203,26.3178503 C38.5761833,27.8375997 44.2260943,31.4318111 46.7206696,33.0192681 C50.2895926,35.2911425 50.6118154,47.9385901 50.6371037,49.3751326 L50.6468928,50 Z M1.2334198,48.7763692 L49.3979737,48.7763692 C49.2674531,44.6755747 48.4892239,35.5970502 46.0648035,34.0544597 C43.4772323,32.4074527 37.4161813,28.5513843 30.4920627,27.2706508 L29.1444374,27.0218459 L30.2310215,26.1840667 C33.6465828,23.5548921 35.9380353,18.3577244 35.9380353,13.2462108 C35.9380353,6.2804888 31.4734146,1.22689377 25.3201834,1.22689377 C19.068246,1.22689377 14.7023314,6.11815379 14.7023314,13.1254793 C14.7023314,18.2908326 17.0859641,23.6919387 20.5023412,26.2631948 L21.5758733,27.0699754 L20.2633253,27.3497789 C15.091446,28.4494151 10.352732,31.1740329 7.21778996,32.9776647 C6.16302025,33.582954 5.25182321,34.1091152 4.51519749,34.4655997 C3.04928785,35.1761213 1.30031162,38.2515132 1.2334198,48.7763692 L1.2334198,48.7763692 Z" id="Imported-Layers" fill="#979797" sketch:type="MSShapeGroup"></path>
    </g>
</svg>