<?xml version="1.0" encoding="UTF-8" standalone="no"?>
<svg width="24px" height="24px" viewBox="0 0 24 24" version="1.1" xmlns="http://www.w3.org/2000/svg" xmlns:xlink="http://www.w3.org/1999/xlink" xmlns:sketch="http://www.bohemiancoding.com/sketch/ns">
    <!-- Generator: Sketch 3.3.3 (12081) - http://www.bohemiancoding.com/sketch -->
    <title>Search Icon Copy</title>
    <desc>Created with Sketch.</desc>
    <defs></defs>
    <g id="Page-1" stroke="none" stroke-width="1" fill="none" fill-rule="evenodd" sketch:type="MSPage">
        <g id="iPhone-6" sketch:type="MSArtboardGroup" transform="translate(-15.000000, -76.000000)" fill="#8E8E93">
            <path d="M29.7696168,92.6157707 C28.2267928,93.7747565 26.3089843,94.4615385 24.2307692,94.4615385 C19.1327562,94.4615385 15,90.3287823 15,85.2307692 C15,80.1327562 19.1327562,76 24.2307692,76 C29.3287823,76 33.4615385,80.1327562 33.4615385,85.2307692 C33.4615385,87.3089843 32.7747565,89.2267928 31.6157707,90.7696168 L39,98.1538462 L37.1538462,100 L29.7696168,92.6157707 L29.7696168,92.6157707 Z M24.2307692,92.6153846 C28.3091797,92.6153846 31.6153846,89.3091797 31.6153846,85.2307692 C31.6153846,81.1523588 28.3091797,77.8461538 24.2307692,77.8461538 C20.1523588,77.8461538 16.8461538,81.1523588 16.8461538,85.2307692 C16.8461538,89.3091797 20.1523588,92.6153846 24.2307692,92.6153846 Z" id="Search-Icon-Copy" sketch:type="MSShapeGroup"></path>
        </g>
    </g>
</svg>