<?xml version="1.0" encoding="UTF-8" standalone="no"?>
<svg width="39px" height="63px" viewBox="0 0 39 63" version="1.1" xmlns="http://www.w3.org/2000/svg" xmlns:xlink="http://www.w3.org/1999/xlink">
    <!-- Generator: Sketch 3.7 (28169) - http://www.bohemiancoding.com/sketch -->
    <title>Page 1</title>
    <desc>Created with Sketch.</desc>
    <defs></defs>
    <g id="Page-1" stroke="none" stroke-width="1" fill="none" fill-rule="evenodd">
        <path d="M32.2518316,27.805 C29.7128316,35.004 25.2288316,34.246 25.2288316,34.246 C28.7398316,23.711 24.5648316,9.996 18.1898316,2.738 C11.3578316,-5.035 16.4508316,9.078 9.88483156,20.066 C4.50583156,29.066 -0.639168443,33.145 0.0648315567,44.777 C0.505831557,52.094 5.16183156,57.793 9.51783156,58.707 C8.25983156,52.969 6.15083156,45.629 7.46283156,39.859 C8.60383156,34.824 12.7638316,30.848 18.4668316,29.668 C12.8538316,41.477 24.2828316,48.004 23.6228316,58.73 C23.5688316,59.664 23.3848316,62.086 23.1188316,63 C31.2368316,61.172 38.1538316,48.789 38.0998316,41.852 C38.0718316,38.312 34.3258316,21.918 32.2518316,27.805 Z" fill="#FFC107"></path>
    </g>
</svg>