<?xml version="1.0" encoding="UTF-8" standalone="no"?>
<svg width="16px" height="16px" viewBox="0 0 16 16" version="1.1" xmlns="http://www.w3.org/2000/svg" xmlns:xlink="http://www.w3.org/1999/xlink">
    <!-- Generator: Sketch 3.6.1 (26313) - http://www.bohemiancoding.com/sketch -->
    <title>Page 1</title>
    <desc>Created with Sketch.</desc>
    <defs></defs>
    <g id="Page-1" stroke="none" stroke-width="1" fill="none" fill-rule="evenodd">
        <g id="iPhone-6-Copy-13" transform="translate(-18.000000, -284.000000)" fill="#DC4242">
            <path d="M22.6223828,299.996388 C22.483323,299.996388 22.3686438,299.881709 22.3686438,299.742198 L22.3686438,295.625938 L18.2541904,295.625938 C18.1146792,295.625938 18,295.511259 18,295.372199 L18,288.622383 C18,288.483323 18.1146792,288.368644 18.2541904,288.368644 L22.3704498,288.368644 L22.3704498,284.25419 C22.3704498,284.114679 22.485129,284 22.6241887,284 L29.3753598,284 C29.514871,284 29.6295502,284.114679 29.6295502,284.25419 L29.6295502,288.37045 L33.7458096,288.37045 C33.8853208,288.37045 34,288.485129 34,288.624189 L34,295.374005 C34,295.513065 33.8853208,295.627744 33.7458096,295.627744 L29.6277442,295.627744 L29.6277442,299.744004 C29.6277442,299.883515 29.5130651,299.996388 29.3740053,299.996388 L22.6223828,299.996388 Z" id="Page-1"></path>
        </g>
    </g>
</svg>