<?xml version="1.0" encoding="UTF-8" standalone="no"?>
<svg width="20px" height="17px" viewBox="0 0 20 17" version="1.1" xmlns="http://www.w3.org/2000/svg" xmlns:xlink="http://www.w3.org/1999/xlink">
    <!-- Generator: Sketch 3.6.1 (26313) - http://www.bohemiancoding.com/sketch -->
    <title>Combined Shape</title>
    <desc>Created with Sketch.</desc>
    <defs></defs>
    <g id="Page-1" stroke="none" stroke-width="1" fill="none" fill-rule="evenodd">
        <g id="iPhone-6-Copy-13" transform="translate(-16.000000, -219.000000)" fill="#6CADF3">
            <path d="M33.9365079,229.575238 C33.9365079,229.575238 31.6546032,235.031746 26,235.031746 C20.3453968,235.031746 18.0634921,229.575238 18.0634921,229.575238 C18.0634921,229.575238 22.1307937,230.567619 25.9009524,230.567619 C29.6704762,230.567619 33.9365079,229.575238 33.9365079,229.575238 Z M35.2260317,223.622857 C31.0596825,222.333333 27.7857143,219.15873 26,219.15873 C24.2142857,219.15873 20.9403175,222.333333 16.7739683,223.622857 C16.0793651,223.821587 15.7815873,224.615238 16.1784127,225.210159 C17.0714286,226.400635 18.0634921,226.5 18.0634921,227.888889 C18.0634921,227.888889 22.031746,228.880952 26,228.880952 C29.968254,228.880952 33.9365079,227.888889 33.9365079,227.888889 C33.9365079,226.5 34.9285714,226.400635 35.7222222,225.111111 C36.1190476,224.615238 35.8215873,223.821587 35.2260317,223.622857 Z M26,227.095238 C24.9085714,227.095238 24.015873,225.210159 24.015873,224.119048 C24.015873,224.119048 24.9085714,223.126984 26,223.126984 C27.0914286,223.126984 27.984127,224.119048 27.984127,224.119048 C27.984127,225.210159 27.0914286,227.095238 26,227.095238 Z" id="Combined-Shape"></path>
        </g>
    </g>
</svg>