<?xml version="1.0" encoding="UTF-8" standalone="no"?>
<svg width="107px" height="92px" viewBox="0 0 107 92" version="1.1" xmlns="http://www.w3.org/2000/svg" xmlns:xlink="http://www.w3.org/1999/xlink" xmlns:sketch="http://www.bohemiancoding.com/sketch/ns">
    <!-- Generator: Sketch 3.5.2 (25235) - http://www.bohemiancoding.com/sketch -->
    <title>Shape</title>
    <desc>Created with Sketch.</desc>
    <defs></defs>
    <g id="Page-1" stroke="none" stroke-width="1" fill="none" fill-rule="evenodd" sketch:type="MSPage">
        <path d="M106.330566,0 L0,0 L0,91.9995117 L106.330566,91.9995117 L106.330566,0 Z M50.8544922,79.5141602 C54.4604492,79.5141602 57.512207,79.3286133 61.4868164,78.8647461 C68.5180664,77.8491211 76.2817383,75.6323242 84.8803711,75.6323242 L85.0610352,59.6342773 C85.0610352,57.974121 84.4165039,54.364746 93.2055665,54.364746 L93.2055665,47.4291991 C87.932129,47.8955077 81.8286134,47.7099608 75.7250977,47.7099608 C69.1625977,47.7099608 62.8686524,47.8955077 52.7050782,47.614746 L52.7050782,54.1791991 C66.8481446,54.0893553 65.6469727,55.0151366 65.7397462,59.6342772 C65.9252931,67.3999022 66.0180665,68.1420897 65.1879884,68.8842772 C62.9614259,71.1938475 56.7700196,72.1166991 53.4399415,72.1166991 C36.5234376,72.1166991 33.2836915,58.7133788 33.2836915,47.8955077 C33.2836915,35.0390624 35.0439454,20.8007811 54.6430665,20.8007811 C68.6987306,20.8007811 69.8999024,23.4838866 72.2094728,34.2089842 L83.3032228,34.580078 L82.8442384,16.2695311 C71.7504884,14.7900389 64.5336915,13.4936522 54.6430665,13.4936522 C24.0405274,13.4936522 12.294922,23.5742186 12.294922,47.614746 C12.2949219,68.4204102 24.128418,79.5141602 50.8544922,79.5141602 Z M101.70166,87.2827148 L4.6191406,87.2827148 L4.6191406,4.6191406 L101.70166,4.6191406 L101.70166,87.2827148 L101.70166,87.2827148 Z" id="Shape" fill="#FFFFFF" sketch:type="MSShapeGroup"></path>
    </g>
</svg>