<?xml version="1.0" encoding="UTF-8" standalone="no"?>
<svg width="176px" height="93px" viewBox="0 0 176 93" version="1.1" xmlns="http://www.w3.org/2000/svg" xmlns:xlink="http://www.w3.org/1999/xlink" xmlns:sketch="http://www.bohemiancoding.com/sketch/ns">
    <!-- Generator: Sketch 3.5.2 (25235) - http://www.bohemiancoding.com/sketch -->
    <title>Shape</title>
    <desc>Created with Sketch.</desc>
    <defs></defs>
    <g id="Page-1" stroke="none" stroke-width="1" fill="none" fill-rule="evenodd" sketch:type="MSPage">
        <path d="M20.065918,26.71875 L20.065918,65.7373047 C20.065918,69.8046875 20.991211,71.5673828 11.3745117,71.5673828 L11.3745117,78.7792969 L50.1147461,78.7792969 L50.1147461,71.5673828 C39.3896484,71.5673828 40.0415039,70.727539 40.0415039,65.8349609 L40.0415039,53.0712891 C42.4414062,53.1640625 44.9414062,53.1640625 48.4545898,53.0712891 C66.9458007,52.241211 76.8408203,48.0810547 76.8408203,32.2705078 C76.8408203,18.8574219 70.2758789,14.609375 53.7255859,14.4238281 C42.3510742,14.3310547 17.5708007,14.7949219 10.9106445,14.4238281 L10.9106445,21.6357422 C20.8959961,21.6357422 20.065918,22.8369141 20.065918,26.71875 L20.065918,26.71875 Z M175.214844,0 L0,0 L0,92.0898438 L175.214844,92.0898438 L175.214844,0 Z M40.0415039,22.0996094 L43.2714844,22.0996094 C52.9858399,22.0996094 55.5712891,25.5175782 55.5712891,32.4462891 C55.5712891,41.0498047 50.9448243,46.2304688 40.0415039,45.9521485 L40.0415039,22.0996094 Z M121.68457,79.4238281 C125.288086,79.4238281 128.432617,79.4238281 132.314453,78.7792968 C139.438476,77.7636718 147.109375,75.6347655 155.805664,75.6347655 L156.074219,59.6386717 C156.074219,57.8808592 155.244141,54.1796873 164.121094,54.1796873 L164.121094,47.2460935 C158.852539,47.7099607 152.651367,47.6123044 146.557617,47.6123044 C139.985351,47.6123044 133.701172,47.7099607 123.535156,47.5244138 L123.535156,54.0869138 C137.768555,53.9941404 136.660156,54.9169919 136.75293,59.6386716 C136.845703,67.2167966 136.845703,68.2324216 136.010742,68.7890622 C133.881836,71.0986325 127.602539,72.0263669 124.272461,72.0263669 C107.260742,72.0263669 104.018554,58.6181638 104.018554,47.7099606 C104.018554,34.8535153 105.86914,20.5273434 125.473633,20.5273434 C139.526367,20.5273434 140.825195,23.2031247 143.134765,33.9306637 L154.223633,34.3945309 L153.852539,16.0888668 C142.768554,14.6093746 135.454101,13.3154293 125.473632,13.3154293 C94.8681637,13.3154293 83.0346677,23.4814449 83.0346677,47.5244137 C83.034668,68.3300781 94.9609375,79.4238281 121.68457,79.4238281 Z M170.595703,87.4658203 L4.6264648,87.4658203 L4.6264648,4.6191406 L170.595703,4.6191406 L170.595703,87.4658203 Z" id="Shape" fill="#FFFFFF" sketch:type="MSShapeGroup"></path>
    </g>
</svg>