<?xml version="1.0" encoding="UTF-8" standalone="no"?>
<svg width="82px" height="21px" viewBox="0 0 82 21" version="1.1" xmlns="http://www.w3.org/2000/svg" xmlns:xlink="http://www.w3.org/1999/xlink" xmlns:sketch="http://www.bohemiancoding.com/sketch/ns">
    <!-- Generator: Sketch 3.5.2 (25235) - http://www.bohemiancoding.com/sketch -->
    <title>path5</title>
    <desc>Created with Sketch.</desc>
    <defs></defs>
    <g id="Page-1" stroke="none" stroke-width="1" fill="none" fill-rule="evenodd" sketch:type="MSPage">
        <path d="M8.1791131,20.3464495 C8.09484122,20.4881795 7.95311124,20.5724513 7.69933797,20.5724513 L2.13164808,20.5724513 C1.90564622,20.5724513 1.62314389,20.5159509 1.76391624,20.0352181 L1.93341763,19.4979849 C2.04641856,19.1312107 2.27242042,19.1024816 2.47065087,19.0459812 C3.1773855,18.9061664 3.91189154,18.3967046 3.91189154,17.1824234 L3.91189154,4.23902879 C3.40338736,3.64529509 2.30114947,2.82555953 1.31191252,2.40228486 C0.774679285,2.20405441 0.71817882,1.95028114 0.832137385,1.66777881 L1.05813924,1.01754465 C1.14336876,0.90454372 1.2841411,0.79154279 1.53887201,0.79154279 L8.63207446,0.79154279 C9.33880909,0.848043255 9.70654093,1.35654744 10.2140875,1.95028114 L18.8328025,13.3672056 L18.8893029,13.3672056 L18.8893029,4.18252832 C18.8893029,2.79778811 18.4660283,2.6005153 17.0803304,2.26151251 C16.7135562,2.20501205 16.6570558,1.92250972 16.7690991,1.66777881 L16.9960585,1.01754465 C17.0803304,0.87581467 17.2220604,0.79154279 17.4758337,0.79154279 L23.0425659,0.79154279 C23.2685678,0.79154279 23.5510701,0.848043255 23.4102978,1.32877602 L23.2407964,1.86600926 C23.1277955,2.23278346 22.9017936,2.26151251 22.7035631,2.31801298 C21.9968285,2.45878532 21.2623225,2.96824714 21.2623225,4.18252832 L21.2623225,19.6406725 C21.2623225,20.2056771 21.0075916,20.573409 20.4990874,20.573409 L17.2211028,20.573409 C17.0803304,20.573409 16.910829,20.3751785 16.034593,19.3016697 L6.34236917,6.2175027 L6.28586871,6.2175027 L6.28586871,17.1824234 C6.28586871,18.5671637 6.70914338,18.7644365 8.09484122,19.1034393 C8.46161543,19.1599397 8.51811589,19.442442 8.40511496,19.697173 L8.1791131,20.3464495 Z M41.2596565,19.0469388 C41.0901551,19.4146706 40.9771542,19.7536734 40.6946519,19.9509462 C40.0166463,20.4881795 38.2364028,20.9114541 35.7494248,20.9114541 C28.7414518,20.9114541 24.3325003,16.6729616 24.3325003,10.5124957 C24.3325003,4.97449247 28.966496,0.45254 35.5224653,0.45254 C38.4614471,0.45254 41.2596565,1.38527649 42.1914354,2.06328207 C42.3044363,2.14755395 42.3322077,2.26151251 42.3322077,2.45878532 L42.3322077,4.57803158 C42.3322077,4.71976156 42.2192068,4.91703437 42.1062059,4.97449247 L40.9771542,5.65249805 C40.5538795,5.93500037 38.9709089,2.51624342 35.4669224,2.51624342 C32.0194364,2.51624342 30.4939239,5.6812271 30.4939239,10.2874514 C30.4939239,15.9394132 32.8104429,18.3698909 36.6543898,18.3698909 C37.8121705,18.3698909 40.1018758,17.7761571 41.2883856,16.0524141 C41.599617,15.6004104 42.3906235,16.1654151 42.2776225,16.3914169 L41.2596565,19.0469388 Z M42.9824419,11.8914901 L42.9824419,9.29151105 L50.0191439,9.29151105 L50.0191439,11.8914901 L42.9824419,11.8914901 Z M61.2378379,16.842463 C61.2378379,17.6909276 61.6620702,18.1429314 61.9445725,18.3689332 C62.99031,19.1321683 65.4207876,18.707936 64.9965553,19.4433997 L64.5732806,20.1779057 C64.3472788,20.6299094 63.8378169,20.573409 63.2737699,20.573409 L53.4110871,20.573409 C52.647852,20.573409 51.8281164,20.6864099 52.0828473,20.0361757 L52.3940787,19.2451692 C52.5923091,18.8209369 54.371595,18.9339379 54.8523277,18.5384346 C55.2191019,18.2837037 55.8702937,17.860429 55.8702937,16.842463 L55.8702937,5.0300353 C55.8702937,3.56102321 54.3438236,3.92779741 52.8748115,4.40853018 L52.2533063,4.63453204 C52.0550759,4.69103251 51.8855745,4.63453204 51.8013026,4.37980113 L51.6318012,3.47579369 C51.5475293,3.22202042 51.5475293,2.96728951 51.8300317,2.85428858 L61.2378379,0.45254 L61.2378379,16.842463 Z M71.9939942,5.08653576 C70.1007498,5.08653576 69.733018,7.40401246 69.2245138,7.00850921 L68.8290106,6.69727783 C68.7447387,6.5842769 68.6882382,6.44254692 68.6882382,6.30177458 L68.6604668,1.4130479 C68.6604668,0.90454372 68.8864687,0.79154279 69.4514733,0.79154279 L81.4046734,0.79154279 L81.4046734,2.68478718 C79.9634327,5.87849991 74.5939733,16.8146916 72.8989593,20.573409 L67.9537322,20.573409 C70.750984,16.3061874 75.6962111,7.71524384 77.0244509,5.0874934 L71.9939942,5.0874934 L71.9939942,5.08653576 Z" id="path5" fill="#FFFFFF" sketch:type="MSShapeGroup"></path>
    </g>
</svg>