<?xml version="1.0" encoding="UTF-8" standalone="no"?>
<svg width="13px" height="17px" viewBox="0 0 13 17" version="1.1" xmlns="http://www.w3.org/2000/svg" xmlns:xlink="http://www.w3.org/1999/xlink" xmlns:sketch="http://www.bohemiancoding.com/sketch/ns">
    <!-- Generator: Sketch 3.3.2 (12043) - http://www.bohemiancoding.com/sketch -->
    <title>ghost-xl copy 5</title>
    <desc>Created with Sketch.</desc>
    <defs></defs>
    <g id="Page-1" stroke="none" stroke-width="1" fill="none" fill-rule="evenodd" sketch:type="MSPage">
        <g id="iPhone-6" sketch:type="MSArtboardGroup" transform="translate(-16.000000, -130.000000)">
            <g id="ghost-xl-copy-5" sketch:type="MSLayerGroup" transform="translate(16.000000, 130.346154)">
                <g id="Shape-Copy-15-+-Shape-Copy-16" sketch:type="MSShapeGroup">
                    <path d="M6.51820987,14.6301812 C6.50201448,14.2914803 6.51820987,13.937384 6.43723294,13.5986831 C6.24288831,12.72114 5.75702672,12.0437382 4.89867126,11.6434554 C3.61923576,11.0430311 2.45316796,10.2886519 1.46524941,9.30334035 C-0.348633829,7.47127659 -0.381024601,5.33130296 0.833629355,3.19132932 C2.16165101,0.851214272 4.88247587,-0.365029735 7.63569151,0.0968350776 C10.340321,0.543304397 12.4943073,2.60630056 12.9153874,5.2235345 C13.109732,6.39359203 12.9801689,7.53285857 12.4133304,8.62593862 C11.9922504,9.4111088 11.5063888,10.134697 10.971941,10.8428897 C9.82206863,12.3824391 8.6883916,13.937384 7.55471458,15.4769333 C7.37656533,15.7232612 7.1822207,16.0773576 6.8259222,15.9849846 C6.43723294,15.8772162 6.53440526,15.4923288 6.51820987,15.184419 C6.50201448,14.999673 6.51820987,14.8303226 6.51820987,14.6455767 C6.50201448,14.6301812 6.51820987,14.6301812 6.51820987,14.6301812 L6.51820987,14.6301812 Z" id="Shape-Copy-15" fill="#4A4A4A"></path>
                    <path d="M5.38983195,11.9211045 C5.94150588,12.3261307 6.27404906,12.8919658 6.42671169,13.5812982 C6.50768862,13.919999 6.49149323,14.2740954 6.50768862,14.6127962 C6.50768862,14.6127962 6.49149323,14.6127962 6.50768862,14.6281917 C6.50768862,14.8129377 6.49149323,14.9822881 6.50768862,15.167034 C6.52350558,15.4677493 6.43119085,15.8418867 6.78894276,15.959596 C7.14923286,15.5266195 7.3656543,14.9715944 7.3656543,14.3664534 C7.3656543,13.1705196 6.52037251,12.1703244 5.38983195,11.9211045 Z" id="Shape-Copy-16" fill-opacity="0.100000001" fill="#27476E"></path>
                </g>
                <path d="M9.00241301,1.00180889 C9.04247157,0.964494454 10.4227128,1.51143495 11.1435466,1.99903904 C11.56664,2.28523826 12,2.78559653 12,2.99626918 C12,3.04613068 11.631573,2.5873732 10.9829616,2.14862356 C9.41266393,1.08640433 8.96235445,1.03912333 9.00241301,1.00180889 Z" id="Path-131" sketch:type="MSShapeGroup"></path>
                <path d="M9.95138243,1.99423477 C10.291534,1.89835068 8.80315854,0.397659707 6.85142821,0.0805468165 C4.89969789,-0.236566074 2.88532663,0.468449707 3.0050903,0.712575344 C3.12485396,0.956700982 4.79151834,0.328426992 6.74324866,0.645539882 C8.69497898,0.962652772 9.61123084,2.09011887 9.95138243,1.99423477 Z" id="Oval-74" fill-opacity="0.100000001" fill="#FFFFFF" sketch:type="MSShapeGroup"></path>
            </g>
        </g>
    </g>
</svg>