<?xml version="1.0" encoding="UTF-8" standalone="no"?>
<svg width="140px" height="141px" viewBox="0 0 140 141" version="1.1" xmlns="http://www.w3.org/2000/svg" xmlns:xlink="http://www.w3.org/1999/xlink" xmlns:sketch="http://www.bohemiancoding.com/sketch/ns">
    <!-- Generator: Sketch 3.3.2 (12043) - http://www.bohemiancoding.com/sketch -->
    <title>Brown</title>
    <desc>Created with Sketch.</desc>
    <defs></defs>
    <g id="Page-1" stroke="none" stroke-width="1" fill="none" fill-rule="evenodd" sketch:type="MSPage">
        <g id="Brown" sketch:type="MSLayerGroup" transform="translate(0.000000, 0.279412)">
            <rect id="Rectangle-200-Copy-6" fill="#FFFFFF" sketch:type="MSShapeGroup" x="0" y="0" width="140" height="140"></rect>
            <g id="Shape-Copy-15-+-Shape-Copy-16-Copy" transform="translate(33.000000, 26.000000)" sketch:type="MSShapeGroup">
                <path d="M35.5865502,79.6474191 C35.4981305,77.8035151 35.5865502,75.8757973 35.1444519,74.0318933 C34.0834159,69.2545057 31.430826,65.5666977 26.7445839,63.3875384 C19.7594305,60.1187995 13.3932148,56.0119224 7.99961536,50.6478381 C-1.9033869,40.6739937 -2.08022622,29.023873 4.5512485,17.3737523 C11.8016609,4.63405196 26.6561642,-1.98723966 41.6875069,0.52717488 C56.4535907,2.9577756 68.2134058,14.1888272 70.5123171,28.4371763 C71.573353,34.8070264 70.8659957,41.009249 67.7713075,46.9600301 C65.4723963,51.2345348 62.8198064,55.1737842 59.9019575,59.0292199 C53.6241615,67.4106017 47.434785,75.8757973 41.2454086,84.2571791 C40.2727923,85.5982002 39.2117564,87.525918 37.2665238,87.0230351 C35.1444519,86.4363383 35.6749699,84.3409929 35.5865502,82.6647165 C35.4981305,81.6589507 35.5865502,80.7369987 35.5865502,79.7312329 C35.4981305,79.6474191 35.5865502,79.6474191 35.5865502,79.6474191 L35.5865502,79.6474191 Z M21.4272352,38.1558986 C18.4428736,37.3162003 17.1262435,36.3925321 17.3017942,34.5451956 C17.4773449,32.1100704 19.2328517,31.270372 21.5150106,31.1864022 C22.4805393,31.1024323 22.3049886,30.6825832 22.0416626,30.0947943 C20.5494818,26.652031 15.985164,25.7283628 13.1763531,28.3314277 C10.2797668,31.1024323 10.1042162,36.1406225 12.9130271,39.0795668 C15.458512,41.8505714 19.320627,41.4307223 21.4272352,38.1558986 L21.4272352,38.1558986 Z M41.1071289,38.1853951 C40.6671488,38.1018071 40.3151648,37.9346312 39.8751847,37.8510433 C38.1152645,37.3495156 36.8833204,36.3464602 36.9713164,34.4239375 C37.0593124,32.5014147 38.4672486,31.4983593 40.2271688,31.3311834 C42.427069,31.1640076 41.987089,30.411716 41.1071289,29.2414848 C38.9952246,26.3994946 35.0354041,25.9815549 32.5715159,28.4891933 C29.7556435,31.3311834 29.7556435,36.5972241 32.7475079,39.3556263 C35.4753842,41.7796768 39.0832206,41.361737 41.1071289,38.1853951 L41.1071289,38.1853951 Z" id="Shape-Copy-15" fill="#A1887F"></path>
                <path d="M29.5726122,64.7400402 C32.545145,66.9830325 34.3369561,70.1165675 35.1595338,73.9340174 C35.5958542,75.809707 35.5085901,77.7706552 35.5958542,79.6463448 C35.5958542,79.6463448 35.5085901,79.6463448 35.5958542,79.7316034 C35.5958542,80.7547069 35.5085901,81.6925517 35.5958542,82.7156551 C35.6810793,84.3809844 35.1836685,86.452918 37.1113094,87.1047794 C39.0526267,84.7070013 40.21875,81.6333311 40.21875,78.2821244 C40.21875,71.6591688 35.6641976,66.1201937 29.5726122,64.7400402 Z" id="Shape-Copy-16" fill-opacity="0.25" fill="#27476E"></path>
            </g>
        </g>
    </g>
</svg>