<?xml version="1.0" encoding="UTF-8" standalone="no"?>
<svg width="140px" height="140px" viewBox="0 0 140 140" version="1.1" xmlns="http://www.w3.org/2000/svg" xmlns:xlink="http://www.w3.org/1999/xlink" xmlns:sketch="http://www.bohemiancoding.com/sketch/ns">
    <!-- Generator: Sketch 3.3.2 (12043) - http://www.bohemiancoding.com/sketch -->
    <title>Purple</title>
    <desc>Created with Sketch.</desc>
    <defs></defs>
    <g id="Page-1" stroke="none" stroke-width="1" fill="none" fill-rule="evenodd" sketch:type="MSPage">
        <g id="Purple" sketch:type="MSLayerGroup" transform="translate(0.000000, -0.500000)">
            <rect id="Rectangle-200-Copy-2" fill="#FFFFFF" sketch:type="MSShapeGroup" x="0" y="0.5" width="140" height="140"></rect>
            <g id="Shape-Copy-15-+-Shape-Copy-16-Copy" transform="translate(32.500000, 25.045455)" sketch:type="MSShapeGroup">
                <path d="M36.6649305,82.0609772 C36.5738315,80.1611974 36.6649305,78.1750639 36.2094353,76.275284 C35.1162467,71.353127 32.3832753,67.5535673 27.5550258,65.3083729 C20.3582012,61.9405813 13.7990698,57.7092534 8.24202794,52.182621 C-1.96106529,41.906539 -2.14326338,29.9033843 4.68916512,17.9002296 C12.159287,4.77447778 27.4639268,-2.04745904 42.9507647,0.543149876 C58.1643055,3.04740517 70.2804787,14.6187917 72.649054,29.2989089 C73.7422425,35.8617848 73.0134501,42.2519535 69.8249835,48.3830613 C67.4564083,52.7870964 64.7234369,56.8457171 61.7171684,60.8179841 C55.249136,69.4533472 48.8722028,78.1750639 42.4952695,86.8104269 C41.49318,88.192085 40.3999914,90.1782185 38.3958124,89.6600967 C36.2094353,89.0556213 36.7560296,86.8967806 36.6649305,85.1697079 C36.5738315,84.1334644 36.6649305,83.1835744 36.6649305,82.1473309 C36.5738315,82.0609772 36.6649305,82.0609772 36.6649305,82.0609772 L36.6649305,82.0609772 Z M22.0765454,39.312138 C19.0017486,38.4469942 17.6452206,37.4953361 17.826091,35.5920198 C18.0069614,33.0831028 19.8156654,32.217959 22.1669806,32.1314447 C23.1617678,32.0449303 22.9808974,31.6123584 22.7095918,31.0067578 C21.1721934,27.4596683 16.469563,26.5080101 13.5756365,29.1899558 C10.5912749,32.0449303 10.4104045,37.2357929 13.3043309,40.2637961 C15.9269518,43.1187706 19.9061006,42.6861987 22.0765454,39.312138 L22.0765454,39.312138 Z M42.3527994,39.3425282 C41.8994867,39.2564073 41.5368364,39.0841655 41.0835237,38.9980446 C39.2702725,38.4813191 38.0009967,37.4478681 38.0916593,35.4670871 C38.1823219,33.4863061 39.6329228,32.4528551 41.4461739,32.2806132 C43.7127378,32.1083714 43.259425,31.3332832 42.3527994,30.1275904 C40.1768981,27.1994793 36.0970831,26.7688747 33.5585315,29.3525022 C30.6573297,32.2806132 30.6573297,37.7062309 33.7398566,40.5482211 C36.5503958,43.0457276 40.2675607,42.615123 42.3527994,39.3425282 L42.3527994,39.3425282 Z" id="Shape-Copy-15" fill="#9575CD"></path>
                <path d="M30.468752,66.7018596 C33.5313615,69.0128214 35.3774699,72.241312 36.2249742,76.1744421 C36.6745164,78.1069708 36.584608,80.1273417 36.6745164,82.0598704 C36.6745164,82.0598704 36.584608,82.0598704 36.6745164,82.1477126 C36.6745164,83.2018192 36.584608,84.1680835 36.6745164,85.2221901 C36.7623241,86.9379839 36.2498402,89.0727034 38.2358946,89.7443182 C40.2360396,87.2738801 41.4375,84.1070684 41.4375,80.6543099 C41.4375,73.8306588 36.7449309,68.1238359 30.468752,66.7018596 Z" id="Shape-Copy-16" fill-opacity="0.25" fill="#27476E"></path>
            </g>
        </g>
    </g>
</svg>