<?xml version="1.0" encoding="UTF-8" standalone="no"?>
<svg width="319px" height="396px" viewBox="0 0 319 396" version="1.1" xmlns="http://www.w3.org/2000/svg" xmlns:xlink="http://www.w3.org/1999/xlink" xmlns:sketch="http://www.bohemiancoding.com/sketch/ns">
    <!-- Generator: Sketch 3.3.2 (12043) - http://www.bohemiancoding.com/sketch -->
    <title>ghost-xl + Imported Layers</title>
    <desc>Created with Sketch.</desc>
    <defs></defs>
    <g id="Page-1" stroke="none" stroke-width="1" fill="none" fill-rule="evenodd" sketch:type="MSPage">
        <g id="iPhone-6" sketch:type="MSArtboardGroup" transform="translate(-37.000000, -141.000000)">
            <g id="ghost-xl-+-Imported-Layers" sketch:type="MSLayerGroup" transform="translate(37.000000, 131.000000)">
                <g id="ghost-xl" sketch:type="MSShapeGroup">
                    <g id="Shape-Copy-15-+-Shape-Copy-16" transform="translate(0.000000, 10.000000)">
                        <path d="M159.946842,362.096984 C159.549432,353.714138 159.946842,344.950253 157.959793,336.567407 C153.190875,314.848214 141.268579,298.082521 120.205856,288.175521 C88.8104775,273.315021 60.1969677,254.644136 35.9549663,230.257674 C-8.5549378,184.914096 -9.34975752,131.949748 20.4559819,78.9854008 C53.0435903,21.0675532 119.808446,-9.03448595 187.368122,2.39666817 C253.735569,13.4467838 306.59108,64.5059389 316.923736,129.282479 C321.692655,158.241403 318.513376,186.438249 304.604031,213.491981 C294.271374,232.924943 282.349079,250.833751 269.234553,268.361521 C241.018453,306.465368 213.199763,344.950253 185.381073,383.0541 C181.009565,389.150716 176.240646,397.914601 167.497629,395.62837 C157.959793,392.961101 160.344252,383.435139 159.946842,375.814369 C159.549432,371.241908 159.946842,367.050485 159.946842,362.478023 C159.549432,362.096984 159.946842,362.096984 159.946842,362.096984 L159.946842,362.096984 Z M96.3065707,173.466209 C82.893098,169.648731 76.9753895,165.449506 77.7644173,157.051055 C78.5534451,145.980369 86.4437231,142.162892 96.7010846,141.781144 C101.040737,141.399396 100.25171,139.490657 99.068168,136.818423 C92.3614317,121.166764 71.8467088,116.967539 59.222264,128.80172 C46.2033053,141.399396 45.4142775,164.304262 58.0387223,177.665434 C69.4796254,190.263111 86.838237,188.354372 96.3065707,173.466209 L96.3065707,173.466209 Z M184.759563,173.600307 C182.782034,173.220295 181.200011,172.460272 179.222483,172.080261 C171.312368,169.800191 165.775288,165.240052 166.170794,156.499785 C166.5663,147.759518 172.894391,143.199379 180.804506,142.439356 C190.692148,141.679332 188.71462,138.259228 184.759563,132.939065 C175.267426,120.018671 157.469668,118.118613 146.395508,129.518961 C133.739325,142.439356 133.739325,166.380087 147.18652,178.920469 C159.447197,189.940806 175.662931,188.040748 184.759563,173.600307 L184.759563,173.600307 Z" id="Shape-Copy-15" fill="#3CAAEE"></path>
                        <path d="M132.258175,295.04733 C145.79541,305.071729 153.955511,319.07615 157.701618,336.137129 C159.688667,344.519976 159.291257,353.283861 159.688667,361.666707 C159.688667,361.666707 159.291257,361.666707 159.688667,362.047745 C159.688667,366.620207 159.291257,370.81163 159.688667,375.384092 C160.076791,382.826794 157.811529,392.086696 166.590211,395 C175.431176,384.283832 180.741825,370.546961 180.741825,355.569723 C180.741825,325.970359 159.99991,301.215529 132.258184,295.047336 Z" id="Shape-Copy-16" fill-opacity="0.25" fill="#27476E"></path>
                    </g>
                    <path d="M210.063543,32.5113462 C211.118418,31.4564709 247.464769,46.9184217 266.446726,60.7029381 C277.588186,68.7937602 289,82.9388363 289,88.89453 C289,90.3041096 279.298088,77.3350834 262.217988,64.9316769 C220.866817,34.9028504 209.008667,33.5662215 210.063543,32.5113462 Z" id="Path-131"></path>
                    <path d="M192.513804,37.3583017 C242.495574,37.3583017 273.69044,68.1536871 279.082087,59.8512693 C284.473734,51.5488516 243.643904,18.7120863 193.662135,18.7120863 C143.680365,18.7120863 95.5543727,47.7442594 100.15211,54.945706 C104.749846,62.1471525 142.532034,37.3583017 192.513804,37.3583017 Z" id="Oval-74" fill-opacity="0.100000001" fill="#FFFFFF" transform="translate(189.704227, 39.992056) rotate(12.000000) translate(-189.704227, -39.992056) "></path>
                </g>
                <path d="M1,130.8222 C39.1611647,122.061067 70.0587169,125.072107 104.293691,133.046081 C109.36862,134.233218 114.731534,135.548348 120.392032,135.721139 C129.81873,136.009123 140.416564,133.660449 149.568076,131.372571 C185.652552,122.310654 213.839849,127.024003 241,132.822093 L238.987307,148.872437 C234.750733,148.971632 233.413205,150.945927 232.200469,154.795321 C225.861607,174.995844 231.262919,209.75559 184.388619,205.669408 C153.555064,202.981551 144.729934,194.530802 130.029918,157.383983 C128.781985,154.222552 127.969228,149.01003 120.830409,149.19562 C116.795424,149.307614 113.192416,150.021176 111.931684,157.022403 C109.583009,170.071307 91.769559,205.531815 55.5730894,205.493417 C23.6099941,205.45502 11.4122447,188.870304 9.96272199,152.309054 C9.78673137,147.771696 5.82534265,146.907742 3.45106928,146.859745 L1,130.809401 L1,130.8222 Z M12.8105701,137.957819 C16.1991894,137.957819 18.9350435,138.658582 18.9350435,139.522536 C18.9350435,140.38329 16.1863901,141.084053 12.8105701,141.084053 C9.42515066,141.084053 6.68609674,140.38329 6.68609674,139.522536 C6.68609674,138.658582 9.43794998,137.957819 12.8105701,137.957819 L12.8105701,137.957819 Z M229.838995,139.522536 C233.224415,139.522536 235.963469,140.223299 235.963469,141.084053 C235.963469,141.948007 233.211615,142.645569 229.838995,142.645569 C226.450376,142.645569 223.714522,141.948007 223.714522,141.084053 C223.714522,140.223299 226.463175,139.522536 229.838995,139.522536 L229.838995,139.522536 Z" id="Imported-Layers" fill="#000000" sketch:type="MSShapeGroup"></path>
            </g>
        </g>
    </g>
</svg>