<?xml version="1.0" encoding="UTF-8" standalone="no"?>
<svg width="16px" height="17px" viewBox="0 0 16 17" version="1.1" xmlns="http://www.w3.org/2000/svg" xmlns:xlink="http://www.w3.org/1999/xlink" xmlns:sketch="http://www.bohemiancoding.com/sketch/ns">
    <!-- Generator: Sketch 3.3.2 (12043) - http://www.bohemiancoding.com/sketch -->
    <title>Imported Layers</title>
    <desc>Created with Sketch.</desc>
    <defs></defs>
    <g id="Page-1" stroke="none" stroke-width="1" fill="none" fill-rule="evenodd" sketch:type="MSPage">
        <g id="iPhone-6" sketch:type="MSArtboardGroup" transform="translate(-24.000000, -358.000000)" fill="#979797">
            <g id="private-chat-helper" sketch:type="MSLayerGroup" transform="translate(0.000000, 352.000000)">
                <path d="M31.9998602,6.68554713 C27.58106,6.68554713 24,10.2666072 24,14.6854074 C24,19.1042076 27.58106,22.6855469 31.9998602,22.6855469 C36.4186605,22.6855469 39.9999997,19.1042076 39.9999997,14.6854074 C40.0011167,10.2666072 36.3979962,6.68554713 31.9998602,6.68554713 L31.9998602,6.68554713 Z M31.9998602,21.9109165 C28.0205944,21.9109165 24.7743512,18.6646732 24.7743512,14.6854074 C24.7743512,10.7061415 27.9999301,7.45989831 31.9998602,7.45989831 C35.9997904,7.45989831 39.2253693,10.7061415 39.2253693,14.6854074 C39.2253693,18.6646732 35.9791261,21.9109165 31.9998602,21.9109165 L31.9998602,21.9109165 Z M32.3346771,18.5599557 C32.3346771,18.790055 32.1461855,18.9788258 31.915807,18.9788258 C31.6857077,18.9788258 31.4969369,18.790055 31.4969369,18.5599557 C31.4969369,18.3298564 31.6857077,18.1410856 31.915807,18.1410856 C32.1473025,18.1410856 32.3346771,18.3298564 32.3346771,18.5599557 L32.3346771,18.5599557 Z M34.0735464,12.863881 C34.0735464,13.5969036 33.6546764,14.2665373 32.8803252,14.7281321 C32.3151298,15.062949 32.3357941,15.4611548 32.3357941,15.481819 L32.3357941,15.5231476 L32.3357941,16.4862695 C32.3357941,16.6957046 32.1679668,16.8638111 31.9585317,16.8638111 C31.7490967,16.8638111 31.5603259,16.6957046 31.5603259,16.4862695 L31.5603259,15.5438118 C31.5396616,15.208995 31.7063719,14.5600256 32.4614551,14.09871 C32.8387174,13.8683315 33.2782518,13.4704049 33.2782518,12.8834282 C33.2782518,12.1710698 32.6915544,11.5854895 31.980313,11.5854895 C31.2679546,11.5854895 30.6820949,12.1721868 30.6820949,12.8834282 C30.6820949,13.0928633 30.5142677,13.2609698 30.3048326,13.2609698 C30.0953976,13.2609698 29.927291,13.0928633 29.927291,12.8834282 C29.927291,11.7315355 30.8490845,10.8097421 32.0009772,10.8097421 C33.15287,10.8097421 34.0735464,11.7119882 34.0735464,12.863881 L34.0735464,12.863881 Z" id="Imported-Layers" sketch:type="MSShapeGroup"></path>
            </g>
        </g>
    </g>
</svg>