<?xml version="1.0" encoding="UTF-8" standalone="no"?>
<svg width="57px" height="59px" viewBox="0 0 57 59" version="1.1" xmlns="http://www.w3.org/2000/svg" xmlns:xlink="http://www.w3.org/1999/xlink" xmlns:sketch="http://www.bohemiancoding.com/sketch/ns">
    <!-- Generator: Sketch 3.4.4 (17249) - http://www.bohemiancoding.com/sketch -->
    <title>Page 1</title>
    <desc>Created with Sketch.</desc>
    <defs></defs>
    <g id="Page-1" stroke="none" stroke-width="1" fill="none" fill-rule="evenodd" sketch:type="MSPage">
        <path d="M0,0.25 L0,12.25 L12,12.25 L12,0.25 L0,0.25 Z M22,0.25 L22,12.25 L34,12.25 L34,0.25 L22,0.25 Z M44,0.25 L44,12.25 L56,12.25 L56,0.25 L44,0.25 Z M0,23 L0,35 L12,35 L12,23 L0,23 Z M22.125,23.125 L22.125,35.125 L34.125,35.125 L34.125,23.125 L22.125,23.125 Z M44.25,23 L44.25,35 L56.25,35 L56.25,23 L44.25,23 Z M0,45.875 L0,57.875 L12,57.875 L12,45.875 L0,45.875 Z M22,46.875 L22,58.875 L34,58.875 L34,46.875 L22,46.875 Z M44,45.875 L44,57.875 L56,57.875 L56,45.875 L44,45.875 Z" fill="#2E93FD" sketch:type="MSShapeGroup"></path>
    </g>
</svg>