<?xml version="1.0" encoding="UTF-8" standalone="no"?>
<svg width="63px" height="57px" viewBox="0 0 63 57" version="1.1" xmlns="http://www.w3.org/2000/svg" xmlns:xlink="http://www.w3.org/1999/xlink" xmlns:sketch="http://www.bohemiancoding.com/sketch/ns">
    <!-- Generator: Sketch 3.3.3 (12081) - http://www.bohemiancoding.com/sketch -->
    <title>Imported Layers</title>
    <desc>Created with Sketch.</desc>
    <defs></defs>
    <g id="Page-1" stroke="none" stroke-width="1" fill="none" fill-rule="evenodd" sketch:type="MSPage">
        <g id="Imported-Layers" sketch:type="MSLayerGroup" fill="#FFFFFF">
            <path d="M54.23,36.324 C53.281,36.324 52.512,37.094 52.512,38.043 L52.512,48.195 C52.512,51.039 50.195,53.355 47.352,53.355 L9.516,53.355 C6.672,53.355 4.355,51.039 4.355,48.195 L4.355,10.359 C4.355,7.516 6.672,5.199 9.516,5.199 L33.762,5.199 C34.711,5.199 35.48,4.43 35.48,3.48 C35.48,2.531 34.711,1.762 33.762,1.762 L9.516,1.762 C4.773,1.762 0.918,5.617 0.918,10.359 L0.918,48.195 C0.918,52.938 4.773,56.793 9.516,56.793 L47.352,56.793 C52.094,56.793 55.949,52.934 55.949,48.195 L55.949,38.043 C55.949,37.094 55.18,36.324 54.23,36.324 Z M62.082,15.387 C62.086,15.332 62.082,15.277 62.078,15.223 C62.074,15.168 62.07,15.109 62.062,15.055 C62.055,15 62.039,14.949 62.027,14.895 C62.012,14.84 62,14.789 61.98,14.734 C61.961,14.684 61.938,14.633 61.914,14.582 C61.891,14.531 61.867,14.48 61.836,14.434 C61.809,14.387 61.777,14.348 61.746,14.305 C61.711,14.254 61.672,14.207 61.629,14.16 C61.613,14.145 61.602,14.125 61.586,14.109 L48.188,0.711 C47.516,0.039 46.426,0.039 45.758,0.711 C45.086,1.383 45.086,2.473 45.758,3.145 L55.219,12.605 C49.121,11.836 39.129,11.707 30.59,16.906 C23.359,21.309 18.652,28.641 16.598,38.699 C16.406,39.629 17.008,40.539 17.938,40.73 C18.055,40.754 18.172,40.766 18.285,40.766 C19.086,40.766 19.801,40.203 19.969,39.391 C21.82,30.316 25.992,23.746 32.359,19.859 C41.035,14.566 51.785,15.488 56.91,16.355 L45.758,27.508 C45.086,28.18 45.086,29.27 45.758,29.941 C46.094,30.277 46.535,30.445 46.973,30.445 C47.414,30.445 47.852,30.277 48.188,29.941 L61.586,16.543 C61.605,16.523 61.617,16.504 61.633,16.484 C61.68,16.434 61.719,16.383 61.758,16.328 C61.789,16.285 61.816,16.242 61.844,16.199 C61.871,16.152 61.898,16.102 61.922,16.047 C61.949,15.992 61.969,15.934 61.988,15.875 C61.996,15.848 62.012,15.824 62.02,15.793 C62.027,15.77 62.027,15.75 62.031,15.727 C62.047,15.664 62.055,15.605 62.062,15.543 C62.074,15.492 62.082,15.441 62.082,15.387 Z" id="Fill-1" sketch:type="MSShapeGroup"></path>
        </g>
    </g>
</svg>