<?xml version="1.0" encoding="UTF-8" standalone="no"?>
<svg width="61px" height="61px" viewBox="0 0 61 61" version="1.1" xmlns="http://www.w3.org/2000/svg" xmlns:xlink="http://www.w3.org/1999/xlink">
    <!-- Generator: Sketch 3.6.1 (26313) - http://www.bohemiancoding.com/sketch -->
    <title>Group 2</title>
    <desc>Created with Sketch.</desc>
    <defs>
        <filter x="-50%" y="-50%" width="200%" height="200%" filterUnits="objectBoundingBox" id="filter-1">
            <feOffset dx="0" dy="2" in="SourceAlpha" result="shadowOffsetOuter1"></feOffset>
            <feGaussianBlur stdDeviation="2" in="shadowOffsetOuter1" result="shadowBlurOuter1"></feGaussianBlur>
            <feColorMatrix values="0 0 0 0 0   0 0 0 0 0   0 0 0 0 0  0 0 0 0.0850430254 0" in="shadowBlurOuter1" type="matrix" result="shadowMatrixOuter1"></feColorMatrix>
            <feMerge>
                <feMergeNode in="shadowMatrixOuter1"></feMergeNode>
                <feMergeNode in="SourceGraphic"></feMergeNode>
            </feMerge>
        </filter>
    </defs>
    <g id="Page-1" stroke="none" stroke-width="1" fill="none" fill-rule="evenodd">
        <g id="Group-2" transform="translate(4.000000, 2.000000)">
            <circle id="Oval-27-Copy-3" fill="#FFFFFF" filter="url(#filter-1)" cx="26.5" cy="26.5" r="26.5"></circle>
            <path d="M31.6694286,21.8010038 L31.5217306,21.8010038 L31.5217306,19.0045564 C31.5217306,16.2444201 29.2773105,14 26.5171742,14 C23.7570379,14 21.5126178,16.2444201 21.5126178,19.0045564 L21.5126178,21.8010038 L21.3649198,21.8010038 C20.4085633,21.8010038 19.6362158,22.5733513 19.6362158,23.5297078 L19.6362158,30.1177238 C19.6362158,31.0740803 20.4085633,31.8469185 21.3649198,31.8469185 L31.6694286,31.8469185 C32.6257851,31.8469185 33.3981326,31.0740803 33.3981326,30.1177238 L33.3981326,23.5297078 C33.3981326,22.5733513 32.6257851,21.8010038 31.6694286,21.8010038 L31.6694286,21.8010038 Z M22.4326632,19.0045564 C22.4326632,16.7601363 24.272754,14.9200454 26.5171742,14.9200454 C28.7615943,14.9200454 30.6016852,16.7601363 30.6016852,19.0045564 L30.6016852,21.8010038 L22.4326632,21.8010038 L22.4326632,19.0045564 Z M32.5168517,30.1177238 C32.5168517,30.5971288 32.1488336,30.9651469 31.6694286,30.9651469 L21.3649198,30.9651469 C20.8855148,30.9651469 20.5174966,30.5971288 20.5174966,30.1177238 L20.5174966,23.5297078 C20.5174966,23.0507935 20.8855148,22.6827753 21.3649198,22.6827753 L31.6694286,22.6827753 C32.1488336,22.6827753 32.5168517,23.0507935 32.5168517,23.5297078 L32.5168517,30.1177238 Z M27.6212287,26.0332128 C27.6212287,26.4012309 27.4735307,26.6966269 27.1805883,26.9169471 C27.1074753,26.9895693 27.0692014,27.064645 27.0692014,27.1372673 L27.0692014,28.5367177 C27.0692014,28.7207268 26.9965792,28.9047359 26.8125701,29.015632 C26.4077501,29.2359522 26.0034208,28.9430098 26.0034208,28.5367177 L26.0034208,27.1372673 C26.0034208,27.0258804 25.9671097,26.9895693 25.8925247,26.9169471 C25.4513936,26.6215511 25.3404974,26.0695239 25.5245065,25.5925723 C25.7448267,25.1514412 26.223741,24.856536 26.7011833,24.9674321 C27.2168994,25.0768562 27.5849176,25.5174966 27.6212287,26.0332128 L27.6212287,26.0332128 Z M17.169022,26.6578623 L13.3799069,26.6578623 C13.159096,25.6651946 12.2758524,24.9291583 11.2444201,24.9291583 C10.0289788,24.9291583 9.03631113,25.9218259 9.03631113,27.1372673 C9.03631113,28.3527086 10.0289788,29.3453763 11.2444201,29.3453763 C12.3121635,29.3453763 13.1958978,28.60934 13.3799069,27.6166723 L17.1709847,27.6166723 C17.4281068,27.6166723 17.6121159,27.4326632 17.6121159,27.1755412 C17.648427,26.8418714 17.4281068,26.6578623 17.169022,26.6578623 L17.169022,26.6578623 Z M11.2444201,28.3890197 C10.5446949,28.3890197 9.95635655,27.8006814 9.95635655,27.1009561 C9.95635655,26.4012309 10.5446949,25.8128926 11.2444201,25.8128926 C11.9441454,25.8128926 12.5324837,26.4012309 12.5324837,27.1009561 C12.5324837,27.8006814 11.9441454,28.3890197 11.2444201,28.3890197 L11.2444201,28.3890197 Z M17.169022,22.7936715 L13.1958978,22.7936715 C12.3484747,22.7936715 11.6870233,22.1307481 11.6870233,21.2852877 L11.6870233,19.0045564 C12.6801817,18.7842362 13.416218,17.9005019 13.416218,16.8690697 C13.416218,15.654119 12.4230597,14.6609606 11.208109,14.6609606 C9.99266768,14.6609606 9,15.654119 9,16.8690697 C9,17.936813 9.73603634,18.8205473 10.728704,19.0045564 L10.728704,21.2852877 C10.728704,22.6096624 11.7964474,23.6774058 13.1208221,23.6774058 L17.0963997,23.6774058 C17.3530311,23.6774058 17.5370402,23.4933967 17.5370402,23.2367654 C17.5370402,22.9776806 17.4281068,22.7936715 17.169022,22.7936715 L17.169022,22.7936715 Z M9.95635655,16.8690697 C9.95635655,16.1693444 10.5446949,15.5810061 11.2444201,15.5810061 C11.9441454,15.5810061 12.5324837,16.1693444 12.5324837,16.8690697 C12.5324837,17.5687949 11.9441454,18.1571332 11.2444201,18.1571332 C10.5446949,18.1571332 9.95635655,17.5687949 9.95635655,16.8690697 L9.95635655,16.8690697 Z M13.1958978,31.4057873 L17.1709847,31.4057873 C17.4281068,31.4057873 17.6121159,31.2217783 17.6121159,30.9651469 C17.6121159,30.7080249 17.4281068,30.5240158 17.1709847,30.5240158 L13.1958978,30.5240158 C11.8710324,30.5240158 10.8037797,31.5917592 10.8037797,32.9161339 L10.8037797,35.1973559 C9.81062135,35.4176761 9.07458502,36.3014104 9.07458502,37.332352 C9.07458502,38.5477933 10.0677434,39.540461 11.282694,39.540461 C12.4981354,39.540461 13.4908031,38.5477933 13.4908031,37.332352 C13.4908031,36.2650993 12.7547667,35.381365 11.762099,35.1973559 L11.762099,32.9161339 C11.6850606,32.0692014 12.3847858,31.4057873 13.1958978,31.4057873 L13.1958978,31.4057873 Z M12.5324837,37.3303892 C12.5324837,38.0301144 11.9441454,38.6184528 11.2444201,38.6184528 C10.5446949,38.6184528 9.95635655,38.0664255 9.95635655,37.3303892 C9.95635655,36.6311547 10.5446949,36.0423256 11.2444201,36.0423256 C11.9441454,36.0423256 12.5324837,36.6331174 12.5324837,37.3303892 L12.5324837,37.3303892 Z M41.7899282,24.9291583 C40.7221848,24.9291583 39.8384505,25.6651946 39.6544415,26.6578623 L35.8653264,26.6578623 C35.6082044,26.6578623 35.4241953,26.8418714 35.4241953,27.0989934 C35.4241953,27.3556247 35.6082044,27.5396338 35.8653264,27.5396338 L39.6564042,27.5396338 C39.8772151,28.5327922 40.7604587,29.2688285 41.791891,29.2688285 C43.0068416,29.2688285 44,28.2756701 44,27.0607195 C43.9617261,25.8855148 43.0053696,24.9291583 41.7899282,24.9291583 L41.7899282,24.9291583 Z M41.7899282,28.3890197 C41.090203,28.3890197 40.5018646,27.8006814 40.5018646,27.1009561 C40.5018646,26.4012309 41.090203,25.8128926 41.7899282,25.8128926 C42.4896534,25.8128926 43.0779918,26.4012309 43.0779918,27.1009561 C43.0779918,27.8006814 42.4896534,28.3890197 41.7899282,28.3890197 L41.7899282,28.3890197 Z M39.5818192,37.3303892 C39.5818192,38.5458305 40.5744869,39.5384982 41.7899282,39.5384982 C43.0053696,39.5384982 43.9980372,38.5458305 43.9980372,37.3303892 C43.9980372,36.2631365 43.2620009,35.3794022 42.2693332,35.1953931 L42.2693332,32.9141712 C42.2693332,31.5897964 41.2015898,30.5220531 39.8772151,30.5220531 L35.8653264,30.5220531 C35.6082044,30.5220531 35.4241953,30.7060621 35.4241953,30.9631842 C35.4241953,31.2198155 35.6082044,31.4038246 35.8653264,31.4038246 L39.8404133,31.4038246 C40.6878365,31.4038246 41.3492878,32.0672387 41.3492878,32.9126991 L41.3492878,35.1934303 C40.3541667,35.4176761 39.5818192,36.3014104 39.5818192,37.3303892 L39.5818192,37.3303892 Z M43.0779918,37.3303892 C43.0779918,38.0301144 42.4896534,38.6184528 41.7899282,38.6184528 C41.090203,38.6184528 40.5018646,38.0664255 40.5018646,37.3303892 C40.5018646,36.6311547 41.090203,36.0423256 41.7899282,36.0423256 C42.4896534,36.0423256 43.0779918,36.6331174 43.0779918,37.3303892 L43.0779918,37.3303892 Z M41.7899282,14.6609606 C40.5744869,14.6609606 39.5818192,15.654119 39.5818192,16.8690697 C39.5818192,17.936813 40.3178555,18.8205473 41.3105232,19.0045564 L41.3105232,21.2852877 C41.3105232,22.1327109 40.6475998,22.7936715 39.8021394,22.7936715 L35.8653264,22.7936715 C35.6082044,22.7936715 35.4241953,22.9776806 35.4241953,23.2348026 C35.4241953,23.4914339 35.6082044,23.675443 35.8653264,23.675443 L39.8404133,23.675443 C41.1652787,23.675443 42.2325314,22.6081903 42.2325314,21.2833249 L42.2325314,19.0025937 C43.2256898,18.7822734 43.9617261,17.8985391 43.9617261,16.8671069 C43.9617261,15.6560818 43.0053696,14.6609606 41.7899282,14.6609606 L41.7899282,14.6609606 Z M41.7899282,18.1571332 C41.090203,18.1571332 40.5018646,17.5687949 40.5018646,16.8690697 C40.5018646,16.1693444 41.090203,15.5810061 41.7899282,15.5810061 C42.4896534,15.5810061 43.0779918,16.1693444 43.0779918,16.8690697 C43.0779918,17.5687949 42.4896534,18.1571332 41.7899282,18.1571332 L41.7899282,18.1571332 Z" id="Page-1-Copy" fill="#E57373"></path>
        </g>
    </g>
</svg>