<?xml version="1.0" encoding="UTF-8" standalone="no"?>
<svg width="94px" height="94px" viewBox="0 0 94 94" version="1.1" xmlns="http://www.w3.org/2000/svg" xmlns:xlink="http://www.w3.org/1999/xlink" xmlns:sketch="http://www.bohemiancoding.com/sketch/ns">
    <!-- Generator: Sketch 3.4.4 (17249) - http://www.bohemiancoding.com/sketch -->
    <title>Rectangle 1 Copy 2 + Page 1</title>
    <desc>Created with Sketch.</desc>
    <defs></defs>
    <g id="Page-1" stroke="none" stroke-width="1" fill="none" fill-rule="evenodd" sketch:type="MSPage">
        <g id="Rectangle-1-Copy-2-+-Page-1" sketch:type="MSLayerGroup" transform="translate(2.000000, 2.000000)">
            <rect id="Rectangle-1-Copy-2" stroke="#E4E4E4" stroke-width="2" fill="#FFFFFF" sketch:type="MSShapeGroup" x="0" y="0" width="90" height="90" rx="8"></rect>
            <g id="Page-1" transform="translate(23.000000, 28.000000)" fill="#3CAAEE" sketch:type="MSShapeGroup">
                <path d="M15.8713337,24.16785 L23.355,31.0629452 L39.8036384,5.59022948 L15.8713337,24.16785 Z M35.1370059,5.07588272 L3.31582192,15.1582192 L9.09420463,19.7664327 L35.1370059,5.07588272 Z M9.91356164,21.5200204 L9.91356164,27.8623973 L13.8143836,23.3476027 C13.8797576,23.2723652 13.9539874,23.2097816 14.0340871,23.1599672 L32.7168493,8.65171233 L9.91356164,21.5200204 Z M14.4898027,25.5131446 L22.8902055,33.2513014 C23.0683562,33.4177397 23.3044521,33.5114384 23.544863,33.5114384 L23.5423973,33.5089726 C23.5836986,33.5089726 23.6219178,33.5065068 23.6724658,33.5021918 C23.949863,33.4658219 24.2026027,33.3067808 24.3567123,33.0688356 L44.4969863,1.87582192 C44.7207534,1.53369863 44.7041096,1.09294521 44.4556849,0.770547945 C44.2029452,0.45 43.7837671,0.315616438 43.3941781,0.435821918 L1.0140411,13.8673973 C0.674383562,13.9758904 0.421643836,14.2600685 0.358767123,14.6114384 C0.294041096,14.9535616 0.425958904,15.3172603 0.707671233,15.5336301 L7.98719178,21.3447771 L7.98719178,30.4508219 C7.98719178,30.8533562 8.23746575,31.2195205 8.61349315,31.3588356 C8.72383562,31.3952055 8.83726027,31.4143151 8.95068493,31.4143151 L8.95253425,31.4143151 C9.22746575,31.4143151 9.49438356,31.2965753 9.67993151,31.0746575 L14.4898027,25.5131446 Z" id="Fill-1"></path>
            </g>
        </g>
    </g>
</svg>