<?xml version="1.0" encoding="UTF-8" standalone="no"?>
<svg width="19px" height="17px" viewBox="0 0 19 17" version="1.1" xmlns="http://www.w3.org/2000/svg" xmlns:xlink="http://www.w3.org/1999/xlink" xmlns:sketch="http://www.bohemiancoding.com/sketch/ns">
    <!-- Generator: Sketch 3.3.3 (12081) - http://www.bohemiancoding.com/sketch -->
    <title>Imported Layers</title>
    <desc>Created with Sketch.</desc>
    <defs></defs>
    <g id="Page-1" stroke="none" stroke-width="1" fill="none" fill-rule="evenodd" sketch:type="MSPage">
        <g id="iPhone-6-Copy-2" sketch:type="MSArtboardGroup" transform="translate(-109.625000, -327.500000)" stroke="#2D93FF" stroke-width="0.25" fill="#2D93FF">
            <g id="Imported-Layers" sketch:type="MSLayerGroup" transform="translate(110.000000, 328.000000)">
                <path d="M5.391,15.4755 C5.14488462,15.4755 4.70007692,15.3363462 4.5,14.4006923 L4.09015385,12.4722692 L2.60030769,12.4722692 C1.45211538,12.4722692 0.173076923,11.5798846 0.173076923,10.2980769 L0.173076923,2.39746154 C0.173076923,1.19526923 1.32923077,0.101423077 2.60030769,0.101423077 L15.8825769,0.101423077 C17.0480769,0.101423077 17.9255769,1.08865385 17.9255769,2.39746154 L17.9255769,10.2994615 C17.9255769,11.5598077 17.0657308,12.4736538 15.8825769,12.4736538 L7.668,12.4736538 C7.03384615,13.4269615 6.36611538,14.6776154 6.35919231,14.6900769 C5.99676923,15.3401538 5.63192308,15.4755 5.391,15.4755 L5.391,15.4755 Z M2.60030769,0.620653846 C1.62,0.620653846 0.692307692,1.48326923 0.692307692,2.39746154 L0.692307692,10.2994615 C0.692307692,11.2756154 1.69684615,11.9544231 2.60030769,11.9544231 L4.30130769,11.9544231 C4.42419231,11.9544231 4.52976923,12.0395769 4.55538462,12.1600385 L5.00988462,14.2923462 C5.10853846,14.7506538 5.27330769,14.9562692 5.39238462,14.9562692 C5.49657692,14.9562692 5.6925,14.8209231 5.90503846,14.4411923 C5.93203846,14.3896154 6.64442308,13.0551923 7.31803846,12.0665769 C7.3665,11.9963077 7.44646154,11.9530385 7.533,11.9530385 L15.8853462,11.9530385 C16.7964231,11.9530385 17.4091154,11.2877308 17.4091154,10.2980769 L17.4091154,2.39746154 C17.4091154,1.53623077 16.875,0.620653846 15.8853462,0.620653846 L2.60030769,0.620653846 Z M14.0787692,6.25223077 C14.0787692,7.26230769 12.5643462,7.26230769 12.5643462,6.25223077 C12.5643462,5.24353846 14.0787692,5.24353846 14.0787692,6.25223077 Z M5.53430769,6.25223077 C5.53430769,7.26230769 4.01988462,7.26230769 4.01988462,6.25223077 C4.01988462,5.24353846 5.53430769,5.24353846 5.53430769,6.25223077 Z M9.80584615,6.25223077 C9.80584615,7.26230769 8.29142308,7.26230769 8.29142308,6.25223077 C8.29142308,5.24353846 9.80584615,5.24353846 9.80584615,6.25223077 Z" id="Fill-1" sketch:type="MSShapeGroup"></path>
            </g>
        </g>
    </g>
</svg>