<?xml version="1.0" encoding="UTF-8" standalone="no"?>
<svg width="73px" height="60px" viewBox="0 0 73 60" version="1.1" xmlns="http://www.w3.org/2000/svg" xmlns:xlink="http://www.w3.org/1999/xlink" xmlns:sketch="http://www.bohemiancoding.com/sketch/ns">
    <!-- Generator: Sketch 3.4.2 (15857) - http://www.bohemiancoding.com/sketch -->
    <title>Fill 1</title>
    <desc>Created with Sketch.</desc>
    <defs></defs>
    <g id="Page-1" stroke="none" stroke-width="1" fill="none" fill-rule="evenodd" sketch:type="MSPage">
        <path d="M55.793,45.652 C55.41,45.652 55.023,45.523 54.766,45.27 C54.254,44.758 54.254,43.859 54.766,43.348 C63.355,34.758 63.355,20.785 54.766,12.195 C54.254,11.684 54.254,10.785 54.766,10.273 C55.277,9.762 56.176,9.762 56.688,10.273 C66.305,19.891 66.305,35.656 56.688,45.273 C56.562,45.527 56.18,45.652 55.793,45.652 Z M61.949,50.652 C61.566,50.652 61.18,50.523 60.922,50.27 C60.41,49.758 60.41,48.859 60.922,48.348 C66.562,42.707 69.641,35.27 69.641,27.32 C69.641,19.371 66.566,11.938 60.922,6.293 C60.41,5.781 60.41,4.883 60.922,4.371 C61.438,3.859 62.332,3.859 62.848,4.371 C69,10.523 72.336,18.73 72.336,27.32 C72.336,36.039 69,44.117 62.848,50.27 C62.59,50.527 62.207,50.652 61.949,50.652 Z M41.949,59.5 C41.691,59.5 41.438,59.371 41.18,59.242 L19.387,43.344 L5.285,43.344 C4.133,43.344 2.977,42.961 2.078,42.062 C1.18,41.293 0.668,40.141 0.668,38.988 L0.668,21.039 C0.668,19.887 1.18,18.73 1.949,17.961 C2.848,17.191 3.871,16.68 5.156,16.68 L19.258,16.68 L41.051,0.781 C41.434,0.523 42.078,0.398 42.461,0.652 C42.973,0.91 43.23,1.422 43.23,1.934 L43.23,58.086 C43.23,58.598 42.973,59.113 42.461,59.367 C42.461,59.371 42.207,59.5 41.949,59.5 Z M5.281,19.5 C4.77,19.5 4.383,19.629 4,20.012 C3.742,20.27 3.488,20.652 3.488,21.164 L3.488,38.984 C3.488,39.367 3.617,39.754 4,40.137 C4.383,40.395 4.77,40.648 5.281,40.648 L19.77,40.648 C20.027,40.648 20.41,40.777 20.539,40.906 L40.539,55.527 L40.539,4.629 L20.668,19.242 C20.41,19.371 20.156,19.5 19.898,19.5 L5.281,19.5 Z M50.41,39.758 C50.027,39.758 49.641,39.629 49.383,39.375 C48.871,38.863 48.871,37.965 49.383,37.453 C51.691,35.145 52.973,32.07 52.973,28.863 C52.973,25.656 51.691,22.582 49.383,20.273 C48.871,19.762 48.871,18.863 49.383,18.352 C49.895,17.84 50.793,17.84 51.305,18.352 C54.125,21.172 55.664,24.891 55.664,28.992 C55.664,32.965 54.125,36.812 51.305,39.633 C51.051,39.629 50.793,39.758 50.41,39.758 Z" id="Fill-1" fill="#979797" sketch:type="MSShapeGroup"></path>
    </g>
</svg>