<?xml version="1.0" encoding="UTF-8" standalone="no"?>
<svg width="61px" height="61px" viewBox="0 0 61 61" version="1.1" xmlns="http://www.w3.org/2000/svg" xmlns:xlink="http://www.w3.org/1999/xlink">
    <!-- Generator: Sketch 3.6.1 (26313) - http://www.bohemiancoding.com/sketch -->
    <title>Group 3</title>
    <desc>Created with Sketch.</desc>
    <defs>
        <filter x="-50%" y="-50%" width="200%" height="200%" filterUnits="objectBoundingBox" id="filter-1">
            <feOffset dx="0" dy="2" in="SourceAlpha" result="shadowOffsetOuter1"></feOffset>
            <feGaussianBlur stdDeviation="2" in="shadowOffsetOuter1" result="shadowBlurOuter1"></feGaussianBlur>
            <feColorMatrix values="0 0 0 0 0   0 0 0 0 0   0 0 0 0 0  0 0 0 0.0850430254 0" in="shadowBlurOuter1" type="matrix" result="shadowMatrixOuter1"></feColorMatrix>
            <feMerge>
                <feMergeNode in="shadowMatrixOuter1"></feMergeNode>
                <feMergeNode in="SourceGraphic"></feMergeNode>
            </feMerge>
        </filter>
    </defs>
    <g id="Page-1" stroke="none" stroke-width="1" fill="none" fill-rule="evenodd">
        <g id="Group-3" transform="translate(4.000000, 2.000000)">
            <circle id="Oval-27-Copy-2" fill="#FFFFFF" filter="url(#filter-1)" cx="26.5" cy="26.5" r="26.5"></circle>
            <path d="M31.852339,19.6279322 C32.1574237,19.1202712 32.36,18.5101017 32.36,17.8999322 C32.36,16.4245424 31.4447458,15.2042034 30.1218983,14.7465763 L31.9524068,10.0677966 C32.0549153,9.81274576 32.0024407,9.56013559 31.8498983,9.35511864 C31.6973559,9.15254237 31.4947797,9 31.2397288,9 L22.0871864,9 C21.8321356,9 21.5795254,9.10250847 21.4770169,9.35511864 C21.3244746,9.55769492 21.3244746,9.81274576 21.3745085,10.0677966 L23.2050169,14.7465763 C21.8821695,15.2042034 20.9669153,16.4245424 20.9669153,17.8999322 C20.9669153,18.5601356 21.1694915,19.1202712 21.4745763,19.6804068 C17.0008136,22.7312542 14,28.5278644 14,34.2219661 C14,36.712678 14,44.2397288 26.6610169,44.2397288 C29.8143729,44.2397288 39.3220339,44.2397288 39.3220339,34.2219661 C39.3269153,28.5254237 36.3261017,22.6787797 31.852339,19.6279322 L31.852339,19.6279322 Z M30.0718644,10.5254237 L28.5464407,14.5415593 L24.7829153,14.5415593 L23.2074576,10.5254237 L30.0718644,10.5254237 Z M24.2752542,16.0669831 L29.0040678,16.0669831 C30.0218305,16.0669831 30.7845424,16.8797288 30.7845424,17.8474576 C30.7845424,18.8127458 29.9717966,19.6279322 29.0040678,19.6279322 L24.2752542,19.6279322 C23.2574915,19.6279322 22.4947797,18.8151864 22.4947797,17.8474576 C22.4947797,16.8821695 23.2599322,16.0669831 24.2752542,16.0669831 L24.2752542,16.0669831 Z M26.6158644,42.6618305 C18.8862373,42.6618305 15.4802712,40.0185763 15.4802712,34.1694915 C15.4802712,28.8805424 18.3285424,23.4915254 22.4972203,20.7457627 C23.0048814,21.0508475 23.6150508,21.2534237 24.2252203,21.2534237 L28.9540339,21.2534237 C29.6142373,21.2534237 30.1743729,21.0508475 30.6820339,20.7457627 C30.7320678,20.7957966 30.7845424,20.8482712 30.8345763,20.8482712 C34.9532203,23.6440678 37.7490169,28.9830508 37.7490169,34.2219661 C37.8014915,40.0686102 34.3430508,42.6618305 26.6158644,42.6618305 Z M28.7514576,31.9838644 C28.2437966,31.7288136 27.5811525,31.5762712 26.9209492,31.4237288 L26.8709153,31.4237288 C26.1582373,31.2711864 25.5480678,31.0686102 25.1929492,30.8135593 C25.0404068,30.7110508 24.8878644,30.5585085 24.8378305,30.4584407 C24.7853559,30.3559322 24.7853559,30.2534237 24.7853559,30.1008814 C24.7853559,29.7957966 24.9378983,29.5407458 25.2930169,29.235661 C25.6481356,28.9806102 26.2082712,28.7780339 26.7684068,28.7780339 C27.5811525,28.7780339 28.2437966,29.1856271 28.904,29.6432542 C29.2090847,29.8458305 29.6667119,29.7457627 29.8692881,29.440678 C30.0718644,29.1355932 29.9717966,28.728 29.6667119,28.4753898 C29.1065763,28.1202712 28.3438644,27.6101695 27.3785763,27.4576271 L27.3785763,25.4745763 C27.3785763,25.0669831 27.0234576,24.7118644 26.6158644,24.7118644 C26.2082712,24.7118644 25.8531525,25.0669831 25.8531525,25.4745763 L25.8531525,27.507661 C25.3454915,27.6101695 24.8353898,27.8127458 24.4302373,28.1178305 C23.8200678,28.5754576 23.3624407,29.2881356 23.3624407,30.0508475 C23.3624407,30.4584407 23.4649492,30.8135593 23.6675254,31.168678 C23.9726102,31.6263051 24.3802034,31.9814237 24.8878644,32.1864407 C25.3955254,32.4414915 26.0056949,32.5940339 26.6158644,32.6941017 L26.6658983,32.6941017 C27.4286102,32.8466441 28.0888136,33.0492203 28.4964068,33.3042712 C28.6989831,33.4568136 28.8014915,33.559322 28.904,33.7118644 C29.0065085,33.8644068 29.0065085,33.9669153 29.0065085,34.1194576 C29.0065085,34.4745763 28.8539661,34.779661 28.4463729,35.0847458 C28.0387797,35.3898305 27.4286102,35.5924068 26.7684068,35.5924068 C25.8031186,35.5924068 24.7853559,35.0322712 24.2252203,34.5746441 C23.9201356,34.3195932 23.5125424,34.3720678 23.2599322,34.6771525 C23.0573559,34.9822373 23.0573559,35.3898305 23.3624407,35.6424407 C23.9726102,36.1000678 24.8378305,36.6602034 25.8531525,36.8627797 L25.8531525,38.743322 C25.8531525,39.1509153 26.2082712,39.5060339 26.6158644,39.5060339 C27.0234576,39.5060339 27.3785763,39.1509153 27.3785763,38.743322 L27.3785763,36.9128136 C28.0912542,36.8103051 28.7514576,36.5576949 29.2591186,36.2001356 C29.919322,35.7425085 30.4294237,34.9797966 30.4294237,34.1145763 C30.4294237,33.7069831 30.3269153,33.3018305 30.124339,32.9967458 C29.8192542,32.5940339 29.3091525,32.2364746 28.7514576,31.9838644 Z" id="Combined-Shape-Copy" fill="#009688"></path>
        </g>
    </g>
</svg>