<?xml version="1.0" encoding="UTF-8" standalone="no"?>
<svg width="17px" height="26px" viewBox="0 0 17 26" version="1.1" xmlns="http://www.w3.org/2000/svg" xmlns:xlink="http://www.w3.org/1999/xlink" xmlns:sketch="http://www.bohemiancoding.com/sketch/ns">
    <!-- Generator: Sketch 3.4 (15588) - http://www.bohemiancoding.com/sketch -->
    <title>Imported Layers</title>
    <desc>Created with Sketch.</desc>
    <defs></defs>
    <g id="Page-1" stroke="none" stroke-width="1" fill="none" fill-rule="evenodd" sketch:type="MSPage">
        <g id="iPhone-6" sketch:type="MSArtboardGroup" transform="translate(-106.000000, -321.000000)">
            <g id="Imported-Layers" sketch:type="MSLayerGroup" transform="translate(106.000000, 321.000000)">
                <path d="M15.73376,0 L15.73376,12.9335467 C15.73376,15.2 14.9333333,16.93312 13.46688,18.1333333 C12.1335467,19.3335467 10.1333333,20 7.86688,20 C5.46688,20 3.60021333,19.3335467 2.13333333,18.1333333 C0.66688,16.93312 0,15.2 0,12.9335467 L0,0 L4.00042667,0 L4.00042667,12.9335467 C4.00042667,14.2664533 4.40021333,15.2 5.06709333,16 C5.73354667,16.66688 6.66709333,17.0666667 7.86688,17.0666667 C9.06666667,17.0666667 10.0002133,16.66688 10.8002133,16 C11.4670933,15.33312 11.86688,14.2664533 11.86688,12.9335467 L11.86688,0 L15.73376,0 Z" id="Fill-1" fill="#4A4A4A" sketch:type="MSShapeGroup"></path>
                <path d="M0,24 L16.75,24" id="Stroke-2" stroke="#4A4A4A" stroke-width="3" sketch:type="MSShapeGroup"></path>
            </g>
        </g>
    </g>
</svg>