<?xml version="1.0" encoding="UTF-8" standalone="no"?>
<svg width="12px" height="11px" viewBox="0 0 12 11" version="1.1" xmlns="http://www.w3.org/2000/svg" xmlns:xlink="http://www.w3.org/1999/xlink" xmlns:sketch="http://www.bohemiancoding.com/sketch/ns">
    <!-- Generator: Sketch 3.3.3 (12081) - http://www.bohemiancoding.com/sketch -->
    <title>icon-Links</title>
    <desc>Created with Sketch.</desc>
    <defs></defs>
    <g id="Page-1" stroke="none" stroke-width="1" fill="none" fill-rule="evenodd" sketch:type="MSPage">
        <g id="icon-Links" sketch:type="MSLayerGroup" transform="translate(-1.000000, 0.000000)" fill="#FFFFFF">
            <g id="Page-1" sketch:type="MSShapeGroup">
                <g id="iPhone-6-Copy-3">
                    <path d="M9.4392931,0 C8.7798798,0.000587 8.1301465,0.245227 7.6345598,0.741253 L6.2916798,2.08428 L7.0220798,2.81468 L8.3651065,1.4718 C8.9551465,0.88176 9.9279865,0.88 10.5564531,1.482653 C11.1677598,2.068147 11.1533865,3.02896 10.5564531,3.663147 C10.5530798,3.667253 10.5489731,3.67004 10.5455998,3.674147 L8.1502398,6.069507 C7.5600531,6.659547 6.5769465,6.67216 5.9478931,6.069507 L5.2283465,6.81076 C6.2498798,7.78932 7.8894665,7.791667 8.8806398,6.799907 L11.2869998,4.393693 C12.2602798,3.37788 12.3113198,1.733013 11.2759998,0.741253 C10.7650131,0.25212 10.0981198,0 9.4392931,0 L9.4392931,0 L9.4392931,0 Z M5.9697465,3.437427 C5.3103331,3.438013 4.6503331,3.682653 4.1541598,4.178827 L1.7477998,6.58504 L1.7477998,6.595893 C0.7745198,7.611707 0.7234798,9.256573 1.7587998,10.248333 C2.7803331,11.226893 4.4090665,11.229093 5.4002398,10.23748 L6.7752398,8.86248 L6.0446931,8.131933 L4.6696931,9.506933 C4.0796531,10.09712 3.1068131,10.109587 2.4783465,9.506933 C1.8636665,8.91748 1.8814131,7.949773 2.4891998,7.315587 L4.8845598,4.909227 C5.4747465,4.319187 6.4578531,4.317427 7.0869065,4.920227 L7.8064531,4.178827 C7.2954665,3.689547 6.6285731,3.437427 5.9697465,3.437427 L5.9697465,3.437427 L5.9697465,3.437427 Z" id="Imported-Layers-Copy"></path>
                </g>
            </g>
        </g>
    </g>
</svg>