<?xml version="1.0" encoding="UTF-8" standalone="no"?>
<svg width="16px" height="16px" viewBox="0 0 16 16" version="1.1" xmlns="http://www.w3.org/2000/svg" xmlns:xlink="http://www.w3.org/1999/xlink" xmlns:sketch="http://www.bohemiancoding.com/sketch/ns">
    <!-- Generator: Sketch 3.4.4 (17249) - http://www.bohemiancoding.com/sketch -->
    <title>Page 1</title>
    <desc>Created with Sketch.</desc>
    <defs></defs>
    <g id="Page-1" stroke="none" stroke-width="1" fill="none" fill-rule="evenodd" sketch:type="MSPage">
        <g id="iPhone-6" sketch:type="MSArtboardGroup" transform="translate(-18.000000, -20.000000)" fill="#2E93FD">
            <g id="New-Messages-+-Page-1" sketch:type="MSLayerGroup" transform="translate(18.000000, 18.000000)">
                <path d="M16,3.63158974 L16,11.7243077 C16,12.6170256 15.2611282,13.3558974 14.3684103,13.3558974 L13.3846154,13.3558974 L9.38461538,17.7530256 C9.26112821,17.8765128 9.10728205,17.968 8.92307692,17.968 C8.86235897,17.968 8.76923077,17.968 8.70851282,17.937641 C8.46153846,17.8445128 8.30769231,17.6299487 8.30769231,17.3526154 L8.30769231,13.3846154 L1.63158974,13.3846154 C0.738871795,13.3846154 0,12.6457436 0,11.7530256 L0,3.63158974 C0,2.73887179 0.738871795,2 1.63158974,2 L14.3396923,2 C15.2611282,2 16,2.73887179 16,3.63158974 Z M3.07692308,6.30769231 C3.07692308,5.96964103 3.35425641,5.69230769 3.69230769,5.69230769 L8,5.69230769 C8.33805128,5.69230769 8.61538462,5.96964103 8.61538462,6.30769231 C8.61538462,6.64574359 8.33805128,6.92307692 8,6.92307692 L3.69230769,6.92307692 C3.35425641,6.92307692 3.07692308,6.64574359 3.07692308,6.30769231 Z M11.969641,8.46153846 L3.69230769,8.46153846 C3.35425641,8.46153846 3.07692308,8.73887179 3.07692308,9.07692308 C3.07692308,9.41497436 3.35425641,9.69230769 3.69230769,9.69230769 L11.969641,9.69230769 C12.3076923,9.69230769 12.5850256,9.41497436 12.5850256,9.07692308 C12.5850256,8.73887179 12.3076923,8.46153846 11.969641,8.46153846 Z M14.7692308,3.63158974 C14.7692308,3.41661538 14.5850256,3.23076923 14.3684103,3.23076923 L1.63158974,3.23076923 C1.41661538,3.23076923 1.23076923,3.41497436 1.23076923,3.63158974 L1.23076923,11.7243077 C1.23076923,11.9392821 1.41497436,12.1251282 1.63158974,12.1251282 L8.92307692,12.1251282 C9.26112821,12.1251282 9.53846154,12.4020513 9.53846154,12.7405128 L9.53846154,15.7243077 L12.6153846,12.3093333 C12.7388718,12.1858462 12.8927179,12.094359 13.0769231,12.094359 L14.3380513,12.094359 C14.5530256,12.094359 14.7388718,11.9101538 14.7388718,11.6939487 L14.7388718,3.63158974 L14.7692308,3.63158974 Z" id="Page-1" sketch:type="MSShapeGroup"></path>
            </g>
        </g>
    </g>
</svg>