<?xml version="1.0" encoding="UTF-8" standalone="no"?>
<svg width="22px" height="18px" viewBox="0 0 22 18" version="1.1" xmlns="http://www.w3.org/2000/svg" xmlns:xlink="http://www.w3.org/1999/xlink" xmlns:sketch="http://www.bohemiancoding.com/sketch/ns">
    <!-- Generator: Sketch 3.3.3 (12081) - http://www.bohemiancoding.com/sketch -->
    <title>Imported Layers</title>
    <desc>Created with Sketch.</desc>
    <defs></defs>
    <g id="Page-1" stroke="none" stroke-width="1" fill="none" fill-rule="evenodd" sketch:type="MSPage">
        <g id="iPhone-6" sketch:type="MSArtboardGroup" transform="translate(-341.000000, -164.000000)" fill="#64B5F6">
            <path d="M347.768962,179.931443 C347.768962,180.54941 347.269579,181.048793 346.651612,181.048793 L342.726616,181.048793 C342.108649,181.048793 341.609583,180.54941 341.609583,179.931443 C341.609583,179.313475 342.108649,178.814409 342.726616,178.814409 L346.650343,178.814409 C347.268311,178.837872 347.768962,179.336939 347.768962,179.931443 L347.768962,179.931443 Z M362.678492,176.744583 C362.249815,176.316223 361.53641,176.316223 361.109318,176.744583 L359.610534,178.243368 L359.610534,165.117351 C359.610534,164.499066 359.111467,164 358.4935,164 C357.875533,164 357.376149,164.499066 357.376149,165.117351 L357.376149,178.219905 L355.877682,176.72112 C355.449005,176.29276 354.7356,176.29276 354.308508,176.72112 C353.879831,177.149797 353.879831,177.863202 354.308508,178.290294 L357.684657,181.666761 L357.684657,181.666761 C357.731584,181.713687 357.803558,181.738418 357.850484,181.785661 C357.922459,181.832588 357.969385,181.881099 358.04136,181.904562 C358.183724,181.951488 358.326088,182 358.470037,182 C358.612401,182 358.754765,181.97622 358.898397,181.904562 C358.970372,181.881099 359.017298,181.832588 359.089273,181.785661 C359.136199,181.738418 359.208173,181.713687 359.2551,181.666761 L359.2551,181.666761 L362.678492,178.315343 C363.107169,177.886665 363.107169,177.173261 362.678492,176.744583 L362.678492,176.744583 Z M351.098186,171.419095 L342.726616,171.419095 C342.108649,171.419095 341.609583,171.918161 341.609583,172.536128 C341.609583,173.154095 342.108649,173.653162 342.726616,173.653162 L351.096917,173.653162 C351.714885,173.653162 352.213951,173.154095 352.213951,172.536128 C352.215219,171.918161 351.716153,171.419095 351.098186,171.419095 L351.098186,171.419095 Z M342.726616,166.234384 L354.069438,166.234384 C354.687405,166.234384 355.186472,165.735318 355.186472,165.117351 C355.186472,164.499066 354.687405,164 354.069438,164 L342.726616,164 C342.108649,164 341.609583,164.499066 341.609583,165.117351 C341.609583,165.735318 342.108649,166.234384 342.726616,166.234384 L342.726616,166.234384 Z" id="Imported-Layers" sketch:type="MSShapeGroup"></path>
        </g>
    </g>
</svg>