<?xml version="1.0" encoding="UTF-8" standalone="no"?>
<svg width="63px" height="67px" viewBox="0 0 63 67" version="1.1" xmlns="http://www.w3.org/2000/svg" xmlns:xlink="http://www.w3.org/1999/xlink" xmlns:sketch="http://www.bohemiancoding.com/sketch/ns">
    <!-- Generator: Sketch 3.4 (15588) - http://www.bohemiancoding.com/sketch -->
    <title>Page 1</title>
    <desc>Created with Sketch.</desc>
    <defs></defs>
    <g id="Page-1" stroke="none" stroke-width="1" fill="none" fill-rule="evenodd" sketch:type="MSPage">
        <g sketch:type="MSLayerGroup" fill="#979797">
            <path d="M13.062,16.625 C17.438,11.625 24.312,8.5 31.5,8.5 C45.25,8.5 56.5,19.75 56.5,33.5 L56.5,35.688 L61.812,41 C62.438,38.5 62.75,36 62.75,33.5 C62.75,16.312 48.688,2.25 31.5,2.25 C22.438,2.25 14.312,6 8.688,12.25 L13.062,16.625 Z" id="Fill-1" sketch:type="MSShapeGroup"></path>
            <path d="M49.312,51 C44.938,55.688 38.375,58.5 31.5,58.5 C17.75,58.5 6.5,47.25 6.5,33.5 L6.5,31.312 L1.188,26 C0.562,28.5 0.25,31 0.25,33.5 C0.25,50.688 14.312,64.75 31.5,64.75 C40.25,64.75 48.062,61 53.688,55.375 L49.312,51 Z" id="Fill-2" sketch:type="MSShapeGroup"></path>
            <path d="M26.812,19.438 L6.5,21 L8.062,0.688 L26.812,19.438 Z" id="Fill-3" sketch:type="MSShapeGroup"></path>
            <path d="M36.188,47.562 L56.5,46 L54.938,66.312 L36.188,47.562 Z" id="Fill-4" sketch:type="MSShapeGroup"></path>
        </g>
    </g>
</svg>