<?xml version="1.0" encoding="UTF-8" standalone="no"?>
<svg width="75px" height="53px" viewBox="0 0 75 53" version="1.1" xmlns="http://www.w3.org/2000/svg" xmlns:xlink="http://www.w3.org/1999/xlink" xmlns:sketch="http://www.bohemiancoding.com/sketch/ns">
    <!-- Generator: Sketch 3.5.2 (25235) - http://www.bohemiancoding.com/sketch -->
    <title>Page 1</title>
    <desc>Created with Sketch.</desc>
    <defs></defs>
    <g id="Page-1" stroke="none" stroke-width="1" fill="none" fill-rule="evenodd" sketch:type="MSPage">
        <g sketch:type="MSLayerGroup" fill="#000000">
            <path d="M72.199,19.918 C73.48,19.621 74.375,18.539 74.375,17.297 L74.375,3.309 C74.375,1.762 73.117,0.504 71.57,0.504 L3.43,0.504 C1.883,0.508 0.625,1.766 0.625,3.309 L0.625,17.297 C0.625,18.539 1.52,19.617 2.801,19.918 C5.871,20.637 8.02,23.34 8.02,26.492 C8.02,29.652 5.875,32.359 2.801,33.082 C1.52,33.379 0.625,34.461 0.625,35.703 L0.625,49.691 C0.625,51.238 1.883,52.496 3.43,52.496 L71.574,52.496 C73.121,52.496 74.379,51.238 74.379,49.691 L74.379,35.703 C74.379,34.461 73.484,33.379 72.203,33.082 C69.133,32.363 66.984,29.652 66.984,26.492 C66.984,23.34 69.129,20.641 72.199,19.918 L72.199,19.918 Z M65.734,26.492 C65.734,30.234 68.277,33.445 71.914,34.297 C72.637,34.469 73.125,35.031 73.125,35.703 L73.125,49.691 C73.125,50.547 72.43,51.246 71.57,51.246 L3.43,51.246 C2.57,51.242 1.875,50.547 1.875,49.691 L1.875,35.703 C1.875,35.031 2.363,34.469 3.086,34.297 C6.727,33.445 9.266,30.234 9.266,26.492 C9.266,22.758 6.723,19.555 3.086,18.703 C2.363,18.531 1.875,17.969 1.875,17.297 L1.875,3.309 C1.875,2.453 2.57,1.754 3.43,1.754 L71.574,1.754 C72.43,1.754 73.129,2.449 73.129,3.309 L73.129,17.297 C73.129,17.969 72.641,18.531 71.918,18.703 C68.273,19.555 65.734,22.758 65.734,26.492 L65.734,26.492 Z" id="Fill-1" sketch:type="MSShapeGroup"></path>
            <path d="M18.508,15.941 C18.164,15.941 17.883,16.223 17.883,16.566 L17.883,16.816 C17.883,17.16 18.164,17.441 18.508,17.441 C18.852,17.441 19.133,17.16 19.133,16.816 L19.133,16.566 C19.133,16.223 18.852,15.941 18.508,15.941 L18.508,15.941 Z" id="Fill-2" sketch:type="MSShapeGroup"></path>
            <path d="M18.508,19.941 C18.164,19.941 17.883,20.223 17.883,20.566 L17.883,20.816 C17.883,21.16 18.164,21.441 18.508,21.441 C18.852,21.441 19.133,21.16 19.133,20.816 L19.133,20.566 C19.133,20.223 18.852,19.941 18.508,19.941 L18.508,19.941 Z" id="Fill-3" sketch:type="MSShapeGroup"></path>
            <path d="M18.508,7.941 C18.164,7.941 17.883,8.223 17.883,8.566 L17.883,8.816 C17.883,9.16 18.164,9.441 18.508,9.441 C18.852,9.441 19.133,9.16 19.133,8.816 L19.133,8.566 C19.133,8.223 18.852,7.941 18.508,7.941 L18.508,7.941 Z" id="Fill-4" sketch:type="MSShapeGroup"></path>
            <path d="M18.508,23.941 C18.164,23.941 17.883,24.223 17.883,24.566 L17.883,24.816 C17.883,25.16 18.164,25.441 18.508,25.441 C18.852,25.441 19.133,25.16 19.133,24.816 L19.133,24.566 C19.133,24.223 18.852,23.941 18.508,23.941 L18.508,23.941 Z" id="Fill-5" sketch:type="MSShapeGroup"></path>
            <path d="M18.508,11.941 C18.164,11.941 17.883,12.223 17.883,12.566 L17.883,12.816 C17.883,13.16 18.164,13.441 18.508,13.441 C18.852,13.441 19.133,13.16 19.133,12.816 L19.133,12.566 C19.133,12.223 18.852,11.941 18.508,11.941 L18.508,11.941 Z" id="Fill-6" sketch:type="MSShapeGroup"></path>
            <path d="M18.508,3.941 C18.164,3.941 17.883,4.223 17.883,4.566 L17.883,4.816 C17.883,5.16 18.164,5.441 18.508,5.441 C18.852,5.441 19.133,5.16 19.133,4.816 L19.133,4.566 C19.133,4.223 18.852,3.941 18.508,3.941 L18.508,3.941 Z" id="Fill-7" sketch:type="MSShapeGroup"></path>
            <path d="M18.508,27.941 C18.164,27.941 17.883,28.223 17.883,28.566 L17.883,28.816 C17.883,29.16 18.164,29.441 18.508,29.441 C18.852,29.441 19.133,29.16 19.133,28.816 L19.133,28.566 C19.133,28.223 18.852,27.941 18.508,27.941 L18.508,27.941 Z" id="Fill-8" sketch:type="MSShapeGroup"></path>
            <path d="M18.508,43.941 C18.164,43.941 17.883,44.223 17.883,44.566 L17.883,44.816 C17.883,45.16 18.164,45.441 18.508,45.441 C18.852,45.441 19.133,45.16 19.133,44.816 L19.133,44.566 C19.133,44.223 18.852,43.941 18.508,43.941 L18.508,43.941 Z" id="Fill-9" sketch:type="MSShapeGroup"></path>
            <path d="M18.508,47.941 C18.164,47.941 17.883,48.223 17.883,48.566 L17.883,48.816 C17.883,49.16 18.164,49.441 18.508,49.441 C18.852,49.441 19.133,49.16 19.133,48.816 L19.133,48.566 C19.133,48.223 18.852,47.941 18.508,47.941 L18.508,47.941 Z" id="Fill-10" sketch:type="MSShapeGroup"></path>
            <path d="M18.508,31.941 C18.164,31.941 17.883,32.223 17.883,32.566 L17.883,32.816 C17.883,33.16 18.164,33.441 18.508,33.441 C18.852,33.441 19.133,33.16 19.133,32.816 L19.133,32.566 C19.133,32.223 18.852,31.941 18.508,31.941 L18.508,31.941 Z" id="Fill-11" sketch:type="MSShapeGroup"></path>
            <path d="M18.508,35.941 C18.164,35.941 17.883,36.223 17.883,36.566 L17.883,36.816 C17.883,37.16 18.164,37.441 18.508,37.441 C18.852,37.441 19.133,37.16 19.133,36.816 L19.133,36.566 C19.133,36.223 18.852,35.941 18.508,35.941 L18.508,35.941 Z" id="Fill-12" sketch:type="MSShapeGroup"></path>
            <path d="M18.508,39.941 C18.164,39.941 17.883,40.223 17.883,40.566 L17.883,40.816 C17.883,41.16 18.164,41.441 18.508,41.441 C18.852,41.441 19.133,41.16 19.133,40.816 L19.133,40.566 C19.133,40.223 18.852,39.941 18.508,39.941 L18.508,39.941 Z" id="Fill-13" sketch:type="MSShapeGroup"></path>
            <path d="M56.492,11.941 C56.148,11.941 55.867,12.223 55.867,12.566 L55.867,12.816 C55.867,13.16 56.148,13.441 56.492,13.441 C56.836,13.441 57.117,13.16 57.117,12.816 L57.117,12.566 C57.117,12.223 56.84,11.941 56.492,11.941 L56.492,11.941 Z" id="Fill-14" sketch:type="MSShapeGroup"></path>
            <path d="M56.492,15.941 C56.148,15.941 55.867,16.223 55.867,16.566 L55.867,16.816 C55.867,17.16 56.148,17.441 56.492,17.441 C56.836,17.441 57.117,17.16 57.117,16.816 L57.117,16.566 C57.117,16.223 56.84,15.941 56.492,15.941 L56.492,15.941 Z" id="Fill-15" sketch:type="MSShapeGroup"></path>
            <path d="M56.492,19.941 C56.148,19.941 55.867,20.223 55.867,20.566 L55.867,20.816 C55.867,21.16 56.148,21.441 56.492,21.441 C56.836,21.441 57.117,21.16 57.117,20.816 L57.117,20.566 C57.117,20.223 56.84,19.941 56.492,19.941 L56.492,19.941 Z" id="Fill-16" sketch:type="MSShapeGroup"></path>
            <path d="M56.492,23.941 C56.148,23.941 55.867,24.223 55.867,24.566 L55.867,24.816 C55.867,25.16 56.148,25.441 56.492,25.441 C56.836,25.441 57.117,25.16 57.117,24.816 L57.117,24.566 C57.117,24.223 56.84,23.941 56.492,23.941 L56.492,23.941 Z" id="Fill-17" sketch:type="MSShapeGroup"></path>
            <path d="M56.492,7.941 C56.148,7.941 55.867,8.223 55.867,8.566 L55.867,8.816 C55.867,9.16 56.148,9.441 56.492,9.441 C56.836,9.441 57.117,9.16 57.117,8.816 L57.117,8.566 C57.117,8.223 56.84,7.941 56.492,7.941 L56.492,7.941 Z" id="Fill-18" sketch:type="MSShapeGroup"></path>
            <path d="M56.492,3.941 C56.148,3.941 55.867,4.223 55.867,4.566 L55.867,4.816 C55.867,5.16 56.148,5.441 56.492,5.441 C56.836,5.441 57.117,5.16 57.117,4.816 L57.117,4.566 C57.117,4.223 56.84,3.941 56.492,3.941 L56.492,3.941 Z" id="Fill-19" sketch:type="MSShapeGroup"></path>
            <path d="M56.492,27.941 C56.148,27.941 55.867,28.223 55.867,28.566 L55.867,28.816 C55.867,29.16 56.148,29.441 56.492,29.441 C56.836,29.441 57.117,29.16 57.117,28.816 L57.117,28.566 C57.117,28.223 56.84,27.941 56.492,27.941 L56.492,27.941 Z" id="Fill-20" sketch:type="MSShapeGroup"></path>
            <path d="M56.492,43.941 C56.148,43.941 55.867,44.223 55.867,44.566 L55.867,44.816 C55.867,45.16 56.148,45.441 56.492,45.441 C56.836,45.441 57.117,45.16 57.117,44.816 L57.117,44.566 C57.117,44.223 56.84,43.941 56.492,43.941 L56.492,43.941 Z" id="Fill-21" sketch:type="MSShapeGroup"></path>
            <path d="M56.492,39.941 C56.148,39.941 55.867,40.223 55.867,40.566 L55.867,40.816 C55.867,41.16 56.148,41.441 56.492,41.441 C56.836,41.441 57.117,41.16 57.117,40.816 L57.117,40.566 C57.117,40.223 56.84,39.941 56.492,39.941 L56.492,39.941 Z" id="Fill-22" sketch:type="MSShapeGroup"></path>
            <path d="M56.492,31.941 C56.148,31.941 55.867,32.223 55.867,32.566 L55.867,32.816 C55.867,33.16 56.148,33.441 56.492,33.441 C56.836,33.441 57.117,33.16 57.117,32.816 L57.117,32.566 C57.117,32.223 56.84,31.941 56.492,31.941 L56.492,31.941 Z" id="Fill-23" sketch:type="MSShapeGroup"></path>
            <path d="M56.492,35.941 C56.148,35.941 55.867,36.223 55.867,36.566 L55.867,36.816 C55.867,37.16 56.148,37.441 56.492,37.441 C56.836,37.441 57.117,37.16 57.117,36.816 L57.117,36.566 C57.117,36.223 56.84,35.941 56.492,35.941 L56.492,35.941 Z" id="Fill-24" sketch:type="MSShapeGroup"></path>
            <path d="M56.492,47.941 C56.148,47.941 55.867,48.223 55.867,48.566 L55.867,48.816 C55.867,49.16 56.148,49.441 56.492,49.441 C56.836,49.441 57.117,49.16 57.117,48.816 L57.117,48.566 C57.117,48.223 56.84,47.941 56.492,47.941 L56.492,47.941 Z" id="Fill-25" sketch:type="MSShapeGroup"></path>
            <path d="M46.59,23.055 L41.305,22.09 C41.242,22.078 41.188,22.039 41.16,21.98 L38.793,17.039 C38.551,16.531 38.051,16.215 37.488,16.215 C36.922,16.215 36.422,16.531 36.18,17.043 L33.848,21.977 C33.82,22.035 33.766,22.074 33.703,22.086 L28.402,23.082 C27.871,23.184 27.445,23.566 27.285,24.082 C27.129,24.598 27.27,25.156 27.652,25.535 L31.469,29.305 C31.516,29.348 31.535,29.414 31.527,29.477 L30.664,35.109 C30.602,35.527 30.719,35.949 30.992,36.27 C31.27,36.594 31.672,36.777 32.094,36.777 C32.328,36.777 32.559,36.719 32.77,36.609 L37.426,34.148 L37.133,33.598 L37.609,34.148 L42.293,36.59 C42.887,36.898 43.637,36.75 44.066,36.242 C44.34,35.922 44.457,35.496 44.391,35.074 L43.492,29.469 C43.484,29.406 43.504,29.344 43.547,29.297 L47.348,25.492 C47.73,25.109 47.867,24.551 47.703,24.039 C47.551,23.531 47.117,23.148 46.59,23.055 L46.59,23.055 Z M46.469,24.617 L42.668,28.422 C42.344,28.75 42.191,29.215 42.262,29.672 L43.16,35.277 C43.168,35.34 43.156,35.391 43.117,35.434 C43.078,35.48 43.02,35.508 42.871,35.484 L38.188,33.043 C37.773,32.828 37.254,32.828 36.84,33.047 L32.184,35.508 C32.098,35.555 32,35.531 31.938,35.461 C31.898,35.418 31.887,35.367 31.895,35.305 L32.758,29.668 C32.828,29.211 32.672,28.746 32.344,28.418 L28.527,24.648 C28.453,24.574 28.465,24.492 28.477,24.449 C28.488,24.406 28.527,24.332 28.629,24.312 L33.93,23.316 C34.383,23.23 34.773,22.93 34.973,22.512 L37.305,17.574 C37.352,17.477 37.438,17.461 37.484,17.461 C37.543,17.461 37.617,17.48 37.664,17.574 L40.031,22.516 C40.23,22.934 40.621,23.23 41.078,23.316 L46.363,24.281 C46.465,24.301 46.504,24.375 46.516,24.418 C46.531,24.461 46.543,24.543 46.469,24.617 L46.469,24.617 Z" id="Fill-26" sketch:type="MSShapeGroup"></path>
        </g>
    </g>
</svg>