<?xml version="1.0" encoding="UTF-8" standalone="no"?>
<svg width="24px" height="18px" viewBox="0 0 24 18" version="1.1" xmlns="http://www.w3.org/2000/svg" xmlns:xlink="http://www.w3.org/1999/xlink" xmlns:sketch="http://www.bohemiancoding.com/sketch/ns">
    <!-- Generator: Sketch 3.5.1 (25234) - http://www.bohemiancoding.com/sketch -->
    <title>Shape</title>
    <desc>Created with Sketch.</desc>
    <defs></defs>
    <g id="Page-1" stroke="none" stroke-width="1" fill="none" fill-rule="evenodd" sketch:type="MSPage">
        <path d="M11.647059,15.766071 C8.686765,15.766071 6.292647,13.371429 6.292647,10.446429 C6.292647,7.521429 8.686765,5.126786 11.647059,5.126786 C14.607353,5.126786 17.001471,7.521429 17.001471,10.446429 C17.001471,13.371429 14.607353,15.766071 11.647059,15.766071 L11.647059,15.766071 L11.647059,15.766071 Z M11.647059,7.441071 C9.980882,7.441071 8.622059,8.791071 8.622059,10.446429 C8.622059,12.101786 9.980882,13.451786 11.647059,13.451786 C13.313235,13.451786 14.672059,12.101786 14.672059,10.446429 C14.672059,8.791071 13.313235,7.441071 11.647059,7.441071 L11.647059,7.441071 L11.647059,7.441071 Z M20.269118,3.0375 L16.775,3.0375 C16.775,1.382143 15.416176,0.032143 13.75,0.032143 L9.544118,0.032143 C7.877941,0.032143 6.519118,1.382143 6.519118,3.0375 L3.025,3.0375 C1.358824,3.0375 0,4.3875 0,6.042857 L0,14.833929 C0,16.489286 1.358824,17.839286 3.025,17.839286 L20.269118,17.839286 C21.935294,17.839286 23.294118,16.489286 23.294118,14.833929 L23.294118,6.042857 C23.294118,4.3875 21.935294,3.0375 20.269118,3.0375 L20.269118,3.0375 L20.269118,3.0375 L20.269118,3.0375 Z" id="Shape" fill="#979797" sketch:type="MSShapeGroup"></path>
    </g>
</svg>