<?xml version="1.0" encoding="UTF-8" standalone="no"?>
<svg width="349px" height="231px" viewBox="0 0 349 231" version="1.1" xmlns="http://www.w3.org/2000/svg" xmlns:xlink="http://www.w3.org/1999/xlink" xmlns:sketch="http://www.bohemiancoding.com/sketch/ns">
    <!-- Generator: Sketch 3.4.2 (15857) - http://www.bohemiancoding.com/sketch -->
    <title>Group</title>
    <desc>Created with Sketch.</desc>
    <defs></defs>
    <g id="Page-1" stroke="none" stroke-width="1" fill="none" fill-rule="evenodd" sketch:type="MSPage">
        <g id="iPhone-6" sketch:type="MSArtboardGroup" transform="translate(0.000000, -391.000000)">
            <g id="Group" sketch:type="MSLayerGroup" transform="translate(-11.000000, 391.000000)">
                <path d="M281.908175,225.351261 L281.998887,225.385587 L269.804552,230 L272.789137,225.316935 L282.180311,225.316935 L281.998887,225.385587 L294.193222,230 L291.210863,225.316935 L281.817463,225.316935 L281.908175,225.351261 L281.817463,225.316935 L291.210863,225.316935 L294.193222,230 L281.998887,225.385587 L282.180311,225.316935 L272.789137,225.316935 L269.804552,230 L281.998887,225.385587 L281.908175,225.351261 Z M297.388725,209.802438 C297.388725,218.369414 290.499638,225.316935 282,225.316935 C273.500362,225.316935 266.611275,218.369414 266.611275,209.802438 C266.611275,201.232679 273.500362,194.287384 282,194.287384 C290.499638,194.287384 297.388725,201.232679 297.388725,209.802438 Z M268.300295,190 C264.819856,190 262,192.843787 262,196.350381 C262,197.835161 262.50921,199.198063 263.356781,200.280483 L273.337303,192.554399 C272.189215,191.004508 270.363292,190 268.300295,190 Z M295.701931,190 C299.180144,190 302,192.843787 302,196.350381 C302,197.835161 301.48912,199.198063 300.640993,200.280483 L290.660471,192.554399 C291.808559,191.004508 293.636708,190 295.701931,190 Z M282.180311,198.652123 L282.180311,209.802438 L288.00423,209.802438 L282.180311,198.652123 Z" id="Stroke-1" stroke="#3A779D" stroke-width="2" stroke-linecap="round" stroke-linejoin="round" sketch:type="MSShapeGroup"></path>
                <path d="M19.0366701,113.482354 L19.0206701,160.514354 C16.4626701,159.498354 13.3526701,159.256354 10.1926701,160.025354 C3.38067007,161.682354 -1.08032993,167.389354 0.227670067,172.779354 C1.53667007,178.170354 8.12267007,181.197354 14.9316701,179.545354 C21.3526701,177.982354 25.6846701,172.818354 25.0606701,167.717354 L25.0606701,132.576354 C25.0606701,132.576354 39.6146701,127.486354 58.4896701,126.213354 L58.4896701,152.350354 C55.9586701,151.381354 52.9076701,151.162354 49.8066701,151.916354 C42.9936701,153.572354 38.5326701,159.279354 39.8416701,164.670354 C41.1496701,170.060354 47.7316701,173.088354 54.5446701,171.432354 C60.4936701,169.986354 64.6456701,165.447354 64.7356701,160.732354 C64.7436701,160.736354 64.7436701,114.596354 64.7436701,105.053354 C39.6186701,104.217354 19.0366701,113.482354 19.0366701,113.482354 Z" id="Imported-Layers-Copy" stroke="#3A779D" stroke-width="3" sketch:type="MSShapeGroup"></path>
                <path d="M142.3216,150 C131.0968,150 122,159.1 122,170.3216 C122,170.5624 122.0056,170.8064 122.0184,171.0528 C122.0936,173.1872 122.4968,175.2376 123.1808,177.156 C127.5152,191.4096 142.3216,210 142.3216,210 C142.3216,210 157.1248,191.4096 161.4624,177.1592 C162.1464,175.2408 162.5496,173.1904 162.6248,171.0528 C162.6376,170.8064 162.6432,170.5624 162.6432,170.3216 C162.6432,159.1 153.5464,150 142.3216,150 L142.3216,150 Z M142.3216,180.2752 C136.8248,180.2752 132.3688,175.8184 132.3688,170.3216 C132.3688,164.8248 136.8248,160.3688 142.3216,160.3688 C147.8184,160.3688 152.2744,164.8248 152.2744,170.3216 C152.2744,175.8184 147.8184,180.2752 142.3216,180.2752 L142.3216,180.2752 Z" id="Imported-Layers" stroke="#3A779D" stroke-width="3" sketch:type="MSShapeGroup"></path>
                <path d="M322.5,85 C301.793,85 285,101.793 285,122.5 C285,143.207 301.793,160 322.5,160 C343.207,160 360,143.207 360,122.5 C360,101.793 343.207,85 322.5,85 Z M322.5,157 C303.48,157 288,141.52 288,122.5 C288,103.48 303.48,88 322.5,88 C341.52,88 357,103.48 357,122.5 C357,141.52 341.52,157 322.5,157 Z M315,111.25 C315,116.25 307.5,116.25 307.5,111.25 C307.5,106.25 315,106.25 315,111.25 Z M337.5,111.25 C337.5,116.25 330,116.25 330,111.25 C330,106.25 337.5,106.25 337.5,111.25 Z M345,128.5 L300,128.5 C299.176,128.5 298.5,129.176 298.5,130 C298.5,130.824 299.176,131.5 300,131.5 L321,131.5 L321,137.5 C321,142.465 325.035,146.5 330,146.5 C334.965,146.5 339,142.465 339,137.5 L339,131.5 L345,131.5 C345.824,131.5 346.5,130.824 346.5,130 C346.5,129.176 345.824,128.5 345,128.5 Z M336,137.5 C336,140.809 333.309,143.5 330,143.5 C326.691,143.5 324,140.809 324,137.5 L324,131.5 L328.5,131.5 L328.5,137.5 C328.5,138.324 329.176,139 330,139 C330.824,139 331.5,138.324 331.5,137.5 L331.5,131.5 L336,131.5 L336,137.5 Z" id="Fill-1" fill="#3A779D" sketch:type="MSShapeGroup"></path>
                <path d="M165.102715,29.5871728 L162.5168,31.6293333 C162.362667,31.7504 162.1792,31.8085333 161.997867,31.8085333 L162,31.8064 C161.798996,31.8064 161.599418,31.7354648 161.44323,31.5956344 L158.898848,29.5862744 L147.4144,36.1834667 C147.2832,36.2586667 147.141867,36.2917333 147,36.2917333 C146.712533,36.2917333 146.429333,36.1397333 146.277333,35.8752 C146.048,35.4773333 146.1856,34.9669333 146.5856,34.7333333 L157.48683,28.4711687 L146.4832,19.7813333 C146.121067,19.4938667 146.0624,18.9712 146.3456,18.6106667 C146.631467,18.2501333 147.156267,18.1898667 147.5168,18.4730667 L162.00135,29.9139302 L176.4832,18.4752 C176.845867,18.192 177.368533,18.2544 177.6544,18.6128 C177.941867,18.9754667 177.878933,19.496 177.5168,19.7834667 L166.517836,28.4696174 L177.4144,34.7296 C177.812267,34.9584 177.949867,35.4672 177.722667,35.8688 C177.568533,36.1461333 177.287467,36.2896 177,36.2896 C176.860267,36.2917333 176.7168,36.2565333 176.5856,36.1834667 L165.102715,29.5871728 Z M181.166933,40.0005333 L142.833067,40.0005333 C142.3728,40.0005333 142,39.6250667 142,39.1669333 L142,15.8336 C142,15.3754667 142.3728,15 142.833067,15 L181.166933,15 C181.625067,15 182,15.3754667 182,15.8336 L182,39.1669333 C182,39.6250667 181.625067,40.0005333 181.166933,40.0005333 Z M143.666667,38.3333333 L180.333333,38.3333333 L180.333333,16.6672 L143.666667,16.6672 L143.666667,38.3333333 Z" id="Fill-1" fill="#3A779D" sketch:type="MSShapeGroup"></path>
                <path d="M241.261317,84.5533144 C241.211125,84.5241114 240.01015,83.8789072 239.271862,81.7370484 C238.67685,80.0113325 240.287579,77.4807085 240.958336,76.6493351 C241.211125,76.3399656 241.186484,75.8873189 240.897192,75.6053272 L228.644701,63.5992365 C228.356321,63.3172449 227.903674,63.2999056 227.600693,63.5599949 C227.579703,63.5773342 225.319207,65.4600163 223.326101,65.4600163 C223.048673,65.4600163 222.788583,65.4207747 222.553134,65.345942 C220.392111,64.6505451 219.725917,63.46326 219.704927,63.420368 C219.590853,63.1958698 219.376393,63.042554 219.130905,63.0069628 C218.888155,62.975022 218.635367,63.0535051 218.456498,63.231461 L182.216465,100.206132 C182.04581,100.380437 181.970978,100.630488 182.010219,100.875976 C182.049461,101.118726 182.206427,101.332273 182.423624,101.446348 C182.473817,101.475551 183.674791,102.120755 184.41308,104.262614 C185.008091,105.98833 183.39645,108.518954 182.726606,109.350327 C182.473817,109.659696 182.498457,110.112343 182.786837,110.394335 L195.035678,122.400426 C195.32132,122.678767 195.773967,122.696106 196.084249,122.439667 C196.70755,121.912188 198.693356,120.539646 200.357928,120.539646 C200.636269,120.539646 200.896358,120.578887 201.131808,120.65372 C203.274579,121.345467 203.948074,122.51815 203.987315,122.585682 C204.10139,122.803792 204.314937,122.953458 204.557687,122.992699 C204.596928,123 204.63617,123 204.675411,123 C204.881658,123 205.085166,122.917867 205.231181,122.764551 L241.471214,85.7898797 C241.642782,85.6155742 241.717614,85.3655233 241.678373,85.1200355 C241.635481,84.8809358 241.482165,84.6673887 241.261317,84.5533144 L241.261317,84.5533144 Z M204.739293,121.042485 C204.179873,120.453862 203.196096,119.684545 201.606357,119.170754 C201.217592,119.045729 200.793235,118.981847 200.354277,118.981847 C198.465207,118.981847 196.561535,120.154531 195.638903,120.817987 L184.351936,109.756431 C185.133117,108.619339 186.648023,105.99563 185.877794,103.757036 C185.332975,102.177336 184.540843,101.211811 183.945832,100.66608 L218.941998,64.9571768 C219.501419,65.5458002 220.481545,66.3151172 222.074934,66.8289078 C222.4637,66.9530206 222.888056,67.0178148 223.326101,67.0178148 C225.216084,67.0178148 227.119756,65.8451311 228.038738,65.181675 L239.328442,76.246881 C238.548174,77.3839735 237.029617,80.0040318 237.803497,82.246276 C238.348316,83.8259767 239.139535,84.7915015 239.73546,85.3372329 L204.739293,121.042485 Z M189.970779,100.316556 C189.400408,100.897878 189.410446,101.831462 189.991769,102.401834 C190.573092,102.972205 191.506676,102.962167 192.077047,102.380844 C192.647418,101.799522 192.636467,100.865938 192.056057,100.295566 C191.474735,99.7251948 190.541151,99.7352333 189.970779,100.316556 L189.970779,100.316556 Z M194.31199,104.540955 C193.741619,105.122278 193.75257,106.055861 194.333893,106.626233 C194.915215,107.196604 195.848799,107.185653 196.419171,106.605243 C196.989542,106.023921 196.978591,105.090337 196.398181,104.519965 C195.816858,103.949594 194.882362,103.959632 194.31199,104.540955 L194.31199,104.540955 Z M198.917854,108.633028 C198.347482,109.21435 198.358434,110.147934 198.939756,110.719218 C199.520166,111.288677 200.454663,111.278639 201.025034,110.697316 C201.595406,110.115994 201.584454,109.18241 201.003132,108.612038 C200.422722,108.041667 199.488225,108.052618 198.917854,108.633028 L198.917854,108.633028 Z M203.267278,112.982452 C202.696907,113.563775 202.707858,114.497359 203.288268,115.06773 C203.869591,115.638102 204.803175,115.627151 205.373546,115.046741 C205.943917,114.465418 205.933879,113.531834 205.352556,112.961463 C204.771234,112.391091 203.83765,112.40113 203.267278,112.982452 L203.267278,112.982452 Z M218.164468,71.7587422 C217.594096,72.3400648 217.605048,73.2736488 218.18637,73.8440202 C218.76678,74.4143916 219.701277,74.4043531 220.271648,73.8230305 C220.84202,73.241708 220.831068,72.308124 220.249746,71.7377525 C219.665685,71.1673811 218.734839,71.1737693 218.164468,71.7587422 L218.164468,71.7587422 Z M222.506592,75.9831413 C221.93622,76.5644638 221.947171,77.4980478 222.527581,78.0684193 C223.108904,78.6387907 224.042488,78.6278396 224.613772,78.0474296 C225.183231,77.466107 225.173192,76.532523 224.59187,75.9621516 C224.010547,75.3917801 223.076963,75.4018187 222.506592,75.9831413 L222.506592,75.9831413 Z M227.112455,80.0752141 C226.542084,80.6565367 226.552122,81.5910333 227.133445,82.1614047 C227.714767,82.7317762 228.648351,82.720825 229.218723,82.1395025 C229.789094,81.5581799 229.779056,80.6245959 229.197733,80.0542245 C228.61276,79.483853 227.682826,79.4948042 227.112455,80.0752141 L227.112455,80.0752141 Z M231.460967,84.4246386 C230.890595,85.0059612 230.901547,85.9395452 231.482869,86.5099166 C232.064192,87.080288 232.997776,87.0693369 233.568147,86.4889269 C234.138519,85.9076044 234.127567,84.9740204 233.547158,84.4036489 C232.962185,83.8332775 232.027688,83.843316 231.460967,84.4246386 L231.460967,84.4246386 Z" id="Imported-Layers-Copy-2" stroke="#3A779D" fill="#3A779D" sketch:type="MSShapeGroup"></path>
                <path d="M90.3012464,65 C90.3012464,65 90.3012464,65 90.2987069,65 C82.5709436,65 73.8038812,57.0862167 70.3964785,53.6838931 C66.664017,49.9609549 58.0956722,40.43775 59.077832,32.4154022 C59.4473324,29.3997207 61.1240513,26.9763825 64.0578333,25.2133198 C64.2933739,25.0717415 64.5638329,25 64.8609569,25 C67.1700167,25 71.7233783,30.3888642 73.565801,33.0007619 C76.1999195,36.7306838 75.8278796,37.7845851 75.6863013,38.1813853 C75.2399805,39.4409879 74.409557,40.1749095 73.6750005,40.8224875 C73.0331365,41.3881658 72.4795208,41.8789283 72.1969991,42.6725287 C72.1576365,42.8661672 72.4153979,43.9099105 74.0870378,45.9662879 C76.7154423,49.1971938 80.1799843,51.7989334 81.2961039,51.7989334 C82.1195437,51.5164117 82.610941,50.9634309 83.1759845,50.320932 C83.8235625,49.5895499 84.5574841,48.7584915 85.8170867,48.3096311 C85.9935834,48.2474129 86.1916661,48.215034 86.3999068,48.215034 C89.0537066,48.215034 96.7344888,54.511777 98.536914,57.6937972 C98.728013,58.0309187 99.3108331,59.058155 98.7826127,59.9380992 C96.7713118,63.2985207 93.9168899,65 90.3012464,65 L90.3012464,65 Z M64.9282542,26.9173386 C62.5595157,28.3731192 61.2624552,30.2479208 60.9704103,32.6484033 C60.3602903,37.6353882 64.3847967,44.9961907 71.7405201,52.3347724 C74.9847586,55.5707574 83.2826444,63.095359 90.3012464,63.095359 L90.3012464,63.095359 C93.205189,63.095359 95.4247306,61.7786172 97.0862125,59.0676782 C96.7713118,57.1852581 88.4137472,50.1520538 86.4176835,50.1196749 C85.6463039,50.4079106 85.1650646,50.9507333 84.6095443,51.5805346 C83.9619664,52.3150911 83.2280447,53.1455146 81.9684421,53.5918354 C81.7646456,53.6642118 81.5418026,53.7010349 81.3037224,53.7010349 C78.7813429,53.7010349 73.9651408,49.1629103 71.7582968,46.0380293 C70.515836,44.2794108 70.0739593,42.9702876 70.4066366,42.0300298 C70.8529574,40.7704273 71.6840158,40.0365056 72.4179374,39.3889277 C73.0477387,38.8334074 73.5931009,38.3496286 73.8813366,37.5788839 C73.8908598,36.8919434 72.3385774,34.1416418 69.4390789,30.8529617 C67.0538336,28.1572599 65.4564747,27.0360612 64.9282542,26.9173386 L64.9282542,26.9173386 Z" id="Imported-Layers" fill="#3A779D" sketch:type="MSShapeGroup"></path>
                <path d="M298.748327,40 C298.487282,40 298.236757,39.8957736 298.050296,39.7121821 L278.450947,20.102314 C276.2249,17.8800918 275,14.9225473 275,11.7766303 C275,8.63166954 276.2249,5.67412507 278.450947,3.45094664 C280.674125,1.2248996 283.63167,0 286.77663,0 C289.922547,0 292.880092,1.2248996 295.10327,3.45094664 L298.748327,7.10078409 L302.397208,3.45477147 C304.620386,1.23254924 307.577931,0.0076496462 310.722892,0.0076496462 C313.867852,0.0076496462 316.826353,1.23254924 319.048575,3.45859629 C323.639319,8.04934022 323.639319,15.5163511 319.048575,20.1061388 L299.446357,39.7083572 C299.259897,39.8957736 299.009371,40 298.748327,40 L298.748327,40 Z M286.77663,1.97552113 C284.158539,1.97552113 281.697265,2.99579269 279.844138,4.84796328 C277.991968,6.70109007 276.972653,9.16236374 276.972653,11.7804552 C276.972653,14.3995028 277.991968,16.8607764 279.844138,18.7091222 L298.748327,37.6171352 L317.652515,18.7091222 C321.473513,14.8881239 321.473513,8.66896156 317.652515,4.84796328 C315.799388,2.99579269 313.338114,1.97552113 310.722892,1.97552113 C308.1048,1.97552113 305.643526,2.99579269 303.794225,4.84796328 L299.446357,9.19200612 C299.061962,9.57735705 298.438516,9.57735705 298.053165,9.19200612 L293.709122,4.84796328 C291.853127,2.99579269 289.395678,1.97552113 286.77663,1.97552113 L286.77663,1.97552113 Z" id="Imported-Layers" fill="#3A779D" sketch:type="MSShapeGroup"></path>
            </g>
        </g>
    </g>
</svg>