<?xml version="1.0" encoding="UTF-8" standalone="no"?>
<svg width="53px" height="52px" viewBox="0 0 53 52" version="1.1" xmlns="http://www.w3.org/2000/svg" xmlns:xlink="http://www.w3.org/1999/xlink" xmlns:sketch="http://www.bohemiancoding.com/sketch/ns">
    <!-- Generator: Sketch 3.3.3 (12081) - http://www.bohemiancoding.com/sketch -->
    <title>Imported-Layers</title>
    <desc>Created with Sketch.</desc>
    <defs></defs>
    <g id="Page-1" stroke="none" stroke-width="1" fill="none" fill-rule="evenodd" sketch:type="MSPage">
        <path d="M51.6468928,51 L1,51 L1,50.3881846 C1,40.9017832 2.30683765,35.6597491 4.98332599,34.3627005 C5.67753251,34.0249784 6.57323022,33.5118692 7.6092376,32.9163689 C10.5720555,31.2114434 14.9379701,28.7038161 19.816178,27.4353189 C16.6298435,24.4308975 14.4819637,19.1603119 14.4819637,14.1222162 C14.4819637,6.51939047 19.4629566,1 26.3234464,1 C33.1839362,1 38.1649291,6.56996721 38.1649291,14.2429478 C38.1649291,19.2206777 36.1059664,24.3003769 32.9449203,27.3178503 C39.5761833,28.8375997 45.2260943,32.4318111 47.7206696,34.0192681 C51.2895926,36.2911425 51.6118154,48.9385901 51.6371037,50.3751326 L51.6468928,51 L51.6468928,51 Z M2.2334198,49.7763692 L50.3979737,49.7763692 C50.2674531,45.6755747 49.4892239,36.5970502 47.0648035,35.0544597 C44.4772323,33.4074527 38.4161813,29.5513843 31.4920627,28.2706508 L30.1444374,28.0218459 L31.2310215,27.1840667 C34.6465828,24.5548921 36.9380353,19.3577244 36.9380353,14.2462108 C36.9380353,7.2804888 32.4734146,2.22689377 26.3201834,2.22689377 C20.068246,2.22689377 15.7023314,7.11815379 15.7023314,14.1254793 C15.7023314,19.2908326 18.0859641,24.6919387 21.5023412,27.2631948 L22.5758733,28.0699754 L21.2633253,28.3497789 C16.091446,29.4494151 11.352732,32.1740329 8.21778996,33.9776647 C7.16302025,34.582954 6.25182321,35.1091152 5.51519749,35.4655997 C4.04928785,36.1761213 2.30031162,39.2515132 2.2334198,49.7763692 L2.2334198,49.7763692 L2.2334198,49.7763692 Z" id="Imported-Layers" stroke="#FFFFFF" stroke-width="2" stroke-linecap="round" stroke-linejoin="round" fill="#FFFFFF" sketch:type="MSShapeGroup"></path>
    </g>
</svg>