<?xml version="1.0" encoding="UTF-8" standalone="no"?>
<svg width="61px" height="61px" viewBox="0 0 61 61" version="1.1" xmlns="http://www.w3.org/2000/svg" xmlns:xlink="http://www.w3.org/1999/xlink" xmlns:sketch="http://www.bohemiancoding.com/sketch/ns">
    <!-- Generator: Sketch 3.3.2 (12043) - http://www.bohemiancoding.com/sketch -->
    <title>Imported Layers</title>
    <desc>Created with Sketch.</desc>
    <defs></defs>
    <g id="Page-1" stroke="none" stroke-width="1" fill="none" fill-rule="evenodd" sketch:type="MSPage">
        <g id="iPhone-6" sketch:type="MSArtboardGroup" transform="translate(-183.000000, -341.000000)" fill="#979797">
            <path d="M204.72675,341 C199.16075,341 193.58575,343.117 189.35175,347.352 C180.88275,355.82 180.88275,369.609 189.35175,378.078 C197.28575,386.012 209.89075,386.512 218.41375,379.578 L218.43775,379.578 L239.92975,401.094 C242.05475,403.219 245.24275,400.031 243.11775,397.906 L221.60175,376.391 C228.51575,367.867 228.02775,355.277 220.10175,347.352 C215.86775,343.117 210.29275,341 204.72675,341 L204.72675,341 Z M204.72675,345.477 C209.13275,345.477 213.53875,347.164 216.91375,350.539 C223.61775,357.242 223.66375,368.016 217.05475,374.774 C217.03875,374.789 217.02375,374.805 217.00775,374.82 C216.94175,374.871 216.87875,374.926 216.82075,374.984 C210.06675,381.649 199.26175,381.613 192.53875,374.891 C185.78875,368.141 185.78875,357.289 192.53875,350.539 C195.91375,347.164 200.32075,345.477 204.72675,345.477 L204.72675,345.477 Z" id="Imported-Layers" sketch:type="MSShapeGroup"></path>
        </g>
    </g>
</svg>