<?xml version="1.0" encoding="UTF-8" standalone="no"?>
<svg width="67px" height="66px" viewBox="0 0 67 66" version="1.1" xmlns="http://www.w3.org/2000/svg" xmlns:xlink="http://www.w3.org/1999/xlink" xmlns:sketch="http://www.bohemiancoding.com/sketch/ns">
    <!-- Generator: Sketch 3.5.1 (25234) - http://www.bohemiancoding.com/sketch -->
    <title>Fill 1</title>
    <desc>Created with Sketch.</desc>
    <defs></defs>
    <g id="Page-1" stroke="none" stroke-width="1" fill="none" fill-rule="evenodd" sketch:type="MSPage">
        <g sketch:type="MSLayerGroup" id="Fill-1" fill="#979797">
            <path d="M34.855,0.098 L33.352,0.059 L33.352,17.945 L36.359,17.945 L36.359,3.238 C51.387,4.738 63.285,17.457 63.285,32.973 C63.285,49.5 49.883,62.895 33.355,62.895 C16.828,62.895 3.426,49.5 3.426,32.973 C3.426,24.711 6.773,17.23 12.188,11.812 L10.07,9.699 C4.113,15.656 0.43,23.883 0.43,32.973 C0.43,51.152 15.168,65.887 33.344,65.887 C51.523,65.887 66.266,51.148 66.266,32.973 C66.27,15.297 52.289,0.879 34.855,0.098 Z M32.598,37.461 C35.492,37.461 37.836,35.117 37.836,32.223 C37.836,30.785 37.367,29.27 36.316,28.535 C32.609,25.934 16.887,16.516 16.887,16.516 C16.887,16.516 27.289,34.27 28.746,35.777 C30.207,37.285 31.074,37.461 32.598,37.461 Z" sketch:type="MSShapeGroup"></path>
        </g>
    </g>
</svg>