<?xml version="1.0" encoding="UTF-8" standalone="no"?>
<svg width="68px" height="68px" viewBox="0 0 68 68" version="1.1" xmlns="http://www.w3.org/2000/svg" xmlns:xlink="http://www.w3.org/1999/xlink" xmlns:sketch="http://www.bohemiancoding.com/sketch/ns">
    <!-- Generator: Sketch 3.3.3 (12081) - http://www.bohemiancoding.com/sketch -->
    <title>Imported Layers</title>
    <desc>Created with Sketch.</desc>
    <defs></defs>
    <g id="Page-1" stroke="none" stroke-width="1" fill="none" fill-rule="evenodd" sketch:type="MSPage">
        <path d="M33.75,0 C15.074,0 0,15.074 0,33.75 C0,52.426 15.074,67.5 33.75,67.5 C52.426,67.5 67.5,52.426 67.5,33.75 C67.5,15.074 52.426,0 33.75,0 L33.75,0 Z M39.074,52.5 C39.074,54.148 37.648,55.574 36,55.574 L31.352,55.574 C29.703,55.574 28.277,54.148 28.277,52.5 L28.277,32.852 C28.277,31.125 29.703,29.777 31.352,29.777 L36,29.777 C37.648,29.777 39.074,31.203 39.074,32.852 L39.074,52.5 Z M33.676,24.676 C30.227,24.676 27.375,21.824 27.375,18.301 C27.375,14.777 30.227,11.926 33.676,11.926 C37.199,11.926 40.051,14.777 40.051,18.301 C40.051,21.824 37.199,24.676 33.676,24.676 L33.676,24.676 Z" id="Imported-Layers" fill="#979797" sketch:type="MSShapeGroup"></path>
    </g>
</svg>