<?xml version="1.0" encoding="UTF-8" standalone="no"?>
<svg width="16px" height="16px" viewBox="0 0 16 16" version="1.1" xmlns="http://www.w3.org/2000/svg" xmlns:xlink="http://www.w3.org/1999/xlink" xmlns:sketch="http://www.bohemiancoding.com/sketch/ns">
    <!-- Generator: Sketch 3.5.2 (25235) - http://www.bohemiancoding.com/sketch -->
    <title>Fill 1</title>
    <desc>Created with Sketch.</desc>
    <defs></defs>
    <g id="Page-1" stroke="none" stroke-width="1" fill="none" fill-rule="evenodd" sketch:type="MSPage">
        <g id="iPhone-6-Copy-9" sketch:type="MSArtboardGroup" transform="translate(-326.000000, -90.000000)" fill="#FFFFFF">
            <g id="Page-1" sketch:type="MSLayerGroup" transform="translate(326.000000, 90.000000)">
                <path d="M15.2466043,0 L10.0546416,0 C9.63788496,0 9.30148728,0.334792033 9.30148728,0.746880582 C9.30148728,1.16016567 9.63885023,1.49376116 10.0546416,1.49376116 L13.5103193,1.49376116 L6.11536208,8.82927237 C5.8211951,9.12098894 5.8211951,9.59386175 6.11536208,9.88653555 C6.26232491,10.0322742 6.45562085,10.1052632 6.64795151,10.1052632 C6.84028218,10.1052632 7.0333368,10.0322742 7.18054095,9.88653555 L14.49345,2.63430357 L14.49345,5.89583367 C14.49345,6.30911876 14.8310543,6.64271425 15.2466043,6.64271425 C15.663361,6.64271425 16,6.30816153 16,5.89583367 L16,0.746880582 C16,0.334792033 15.663361,0 15.2466043,0 Z M12.7290564,7.38831354 C12.3170178,7.38831354 11.9844285,7.72210168 11.9844285,8.13319316 L11.9844285,14.0120637 C11.9844285,14.2814324 11.7568172,14.5088092 11.4876918,14.5088092 L1.98790106,14.5088092 C1.71853713,14.5088092 1.49116439,14.2814324 1.49116439,14.0120637 L1.49116439,4.51234333 C1.49116439,4.24297463 1.71853713,4.01559786 1.98790106,4.01559786 L7.88742454,4.01559786 C8.2992245,4.01559786 8.63205239,3.68180971 8.63205239,3.27095682 C8.63205239,2.85891098 8.29827016,2.52631579 7.88742454,2.52631579 L1.98694672,2.52631579 C0.891119836,2.52631579 0,3.41721282 0,4.51329769 L0,14.0130181 C0,15.109103 0.891119836,16 1.98694672,16 L11.4867375,16 C12.5825644,16 13.4736842,15.109103 13.4736842,14.0130181 L13.4736842,8.13390893 C13.4736842,7.72210168 13.139902,7.38831354 12.7290564,7.38831354 Z" id="Fill-1" sketch:type="MSShapeGroup"></path>
            </g>
        </g>
    </g>
</svg>