<?xml version="1.0" encoding="UTF-8" standalone="no"?>
<svg width="42px" height="66px" viewBox="0 0 42 66" version="1.1" xmlns="http://www.w3.org/2000/svg" xmlns:xlink="http://www.w3.org/1999/xlink" xmlns:sketch="http://www.bohemiancoding.com/sketch/ns">
    <!-- Generator: Sketch 3.4.3 (16044) - http://www.bohemiancoding.com/sketch -->
    <title>Page 1</title>
    <desc>Created with Sketch.</desc>
    <defs></defs>
    <g id="Page-1" stroke="none" stroke-width="1" fill="none" fill-rule="evenodd" sketch:type="MSPage">
        <path d="M34.8062526,14.95 L34.8062526,9.223 C34.8062526,9.036 34.7752526,7.332 33.5212526,6.075 C32.7082526,5.258 31.6072526,4.844 30.2512526,4.844 C29.1622526,4.844 28.3062526,5.051 27.6262526,5.371 L27.6262526,4.426 C27.6542526,4.043 27.6892526,2.555 26.6262526,1.368 C25.8142526,0.461 24.6192526,0 23.0722526,0 C19.1892526,0 18.1622526,2.567 18.1622526,3.926 L18.1622526,6.168 C17.4272526,5.707 16.5212526,5.469 15.4552526,5.469 C14.0132526,5.469 12.8612526,5.911 12.0332526,6.786 C10.7482526,8.137 10.8022526,9.969 10.8102526,10.114 L10.8102526,35.106 L35.1072526,35.106 L35.1072526,32.813 L13.1032526,32.813 L13.1032526,10.055 C13.1032526,10.043 13.0802526,9.012 13.6972526,8.364 C14.0762526,7.965 14.6652526,7.762 15.4552526,7.762 C16.2672526,7.762 16.8732526,7.961 17.2512526,8.352 C17.8262526,8.946 17.7982526,9.868 17.7942526,9.93 L17.7942526,31.664 L20.4512526,31.664 L20.4512526,3.942 C20.4662526,3.555 20.7012526,2.289 23.0682526,2.289 C23.9272526,2.289 24.5442526,2.489 24.9042526,2.879 C25.4002526,3.418 25.3372526,4.243 25.3372526,4.243 L25.3302526,31.512 L27.6302526,31.614 L27.6302526,8.77 C27.6302526,8.703 27.6582526,7.137 30.2482526,7.137 C32.3142526,7.137 32.5012526,8.735 32.5092526,9.219 L32.5092526,31.762 L34.8022526,31.762 L34.8802526,18.61 C34.9352526,18.196 35.2712526,16.641 37.2322526,16.641 C39.2082526,16.641 39.3882526,18.555 39.4042526,18.903 L39.4042526,48.485 C39.4042526,62.633 23.4702526,62.918 22.7942526,62.926 C22.6032526,62.938 13.0292526,63.723 7.21625258,58.743 C4.54125258,56.45 3.04425258,53.243 2.77925258,49.215 C1.71625258,33.164 2.75125258,27.051 2.76325258,26.993 L2.78325258,26.766 C2.78325258,26.754 2.77525258,25.586 3.45525258,24.899 C3.81825258,24.532 4.33325258,24.352 5.03325258,24.352 C7.26725258,24.352 7.45825258,26.707 7.47025258,27.149 L7.49025258,41.922 L8.54825258,42.004 C8.89225258,42.032 16.9702526,42.743 16.9702526,51.532 L19.2632526,51.532 C19.2632526,42.735 12.4512526,40.446 9.77925258,39.887 L9.75925258,27.121 C9.72025258,25.371 8.68125258,22.059 5.02925258,22.059 C3.70825258,22.059 2.59125258,22.493 1.79825258,23.309 C0.611252584,24.532 0.494252584,26.2 0.486252584,26.696 C0.341252584,27.606 -0.533747416,33.934 0.490252584,49.368 C0.798252584,54.039 2.56425258,57.782 5.73225258,60.493 C10.6852526,64.727 17.7082526,65.278 21.0332526,65.278 C22.0132526,65.278 22.6732526,65.231 22.8612526,65.215 C23.9902526,65.188 41.6972526,64.477 41.6972526,48.481 L41.6972526,18.868 C41.6502526,17.051 40.4232526,14.348 37.2362526,14.348 C36.2402526,14.348 35.4432526,14.582 34.8062526,14.95 Z" fill="#979797" sketch:type="MSShapeGroup"></path>
    </g>
</svg>