<?xml version="1.0" encoding="UTF-8" standalone="no"?>
<svg width="21px" height="21px" viewBox="0 0 21 21" version="1.1" xmlns="http://www.w3.org/2000/svg" xmlns:xlink="http://www.w3.org/1999/xlink" xmlns:sketch="http://www.bohemiancoding.com/sketch/ns">
    <!-- Generator: Sketch 3.5.2 (25235) - http://www.bohemiancoding.com/sketch -->
    <title>Shape</title>
    <desc>Created with Sketch.</desc>
    <defs></defs>
    <g id="Page-1" stroke="none" stroke-width="1" fill="none" fill-rule="evenodd" sketch:type="MSPage">
        <g id="iPhone-6" sketch:type="MSArtboardGroup" transform="translate(-24.000000, -523.000000)" fill="#FFFFFF">
            <path d="M34.0733601,527.923686 C31.269186,527.923686 28.9883373,530.204535 28.9883373,533.008418 C28.9883373,535.410123 31.3341284,537.882014 31.4002358,538.0218 C31.4695465,538.167411 31.6163223,538.260893 31.778824,538.260893 L36.7025101,538.260893 C36.8720011,538.260893 37.025475,538.158383 37.0904174,538.001415 C37.1472057,537.865996 39.158383,535.115407 39.158383,533.007544 C39.1595479,530.204535 36.8775343,527.923686 34.0733601,527.923686 L34.0733601,527.923686 Z M36.4931216,538.97293 L31.9244349,538.97293 C31.6923312,538.97293 31.5047844,539.161642 31.5047844,539.392581 C31.5047844,539.62352 31.6923312,539.811358 31.9244349,539.811358 L36.4942865,539.811358 C36.7263902,539.811358 36.913937,539.62352 36.913937,539.392581 C36.9127722,539.161642 36.7252254,538.97293 36.4931216,538.97293 L36.4931216,538.97293 Z M36.0743448,540.52456 L32.3432118,540.52456 C32.111108,540.52456 31.9244349,540.712398 31.9244349,540.943337 C31.9244349,541.175149 32.1122729,541.362987 32.3432118,541.362987 L36.0743448,541.362987 C36.3064485,541.362987 36.4931216,541.175149 36.4931216,540.943337 C36.4931216,540.712398 36.3064485,540.52456 36.0743448,540.52456 L36.0743448,540.52456 Z M35.1141867,542.204909 L33.2008598,542.204909 C32.9687561,542.204909 32.7812093,542.392456 32.7812093,542.62456 C32.7812093,543.383484 33.3988906,544 34.1575232,544 C34.9164471,544 35.5341284,543.383484 35.5341284,542.62456 C35.5341284,542.392456 35.3462904,542.204909 35.1141867,542.204909 L35.1141867,542.204909 Z M26.8510609,532.67293 L24.4187769,532.67293 C24.187838,532.67293 24,532.860768 24,533.092872 C24,533.323811 24.1890029,533.511358 24.4187769,533.511358 L26.8510609,533.511358 C27.0828734,533.511358 27.2695465,533.323811 27.2695465,533.092872 C27.2707114,532.860768 27.0828734,532.67293 26.8510609,532.67293 L26.8510609,532.67293 Z M29.238788,527.688088 L27.519706,525.968132 C27.3548745,525.804174 27.0910276,525.804174 26.9270698,525.968132 C26.7634031,526.131799 26.7634031,526.39681 26.9270698,526.560768 L28.6461517,528.279559 C28.8098183,528.443517 29.0748301,528.443517 29.238788,528.279559 C29.4024546,528.117057 29.4024546,527.850881 29.238788,527.688088 L29.238788,527.688088 Z M34.0325891,526.270711 C34.2635279,526.270711 34.4510747,526.082873 34.4510747,525.85077 L34.4510747,523.418777 C34.4510747,523.187838 34.2635279,523 34.0325891,523 C33.8004854,523 33.6126473,523.187838 33.6126473,523.418777 L33.6126473,525.85077 C33.6126473,526.081709 33.8004854,526.269547 34.0325891,526.270711 L34.0325891,526.270711 Z M41.1561642,525.925905 C40.9922064,525.762238 40.7271946,525.762238 40.5632367,525.925905 L38.844446,527.64586 C38.6807794,527.808653 38.6807794,528.07483 38.844446,528.238788 C39.0084038,528.402455 39.2734156,528.402455 39.4370822,528.238788 L41.1561642,526.519706 C41.3198308,526.354874 41.3198308,526.089863 41.1561642,525.925905 L41.1561642,525.925905 Z M43.7052281,532.612647 L41.2732353,532.612647 C41.0411316,532.612647 40.8544585,532.800485 40.8544585,533.031424 C40.8544585,533.262363 41.0422965,533.451075 41.2732353,533.451075 L43.7052281,533.451075 C43.9373319,533.451075 44.1251699,533.262363 44.124005,533.031424 C44.124005,532.800485 43.936167,532.612647 43.7052281,532.612647 L43.7052281,532.612647 Z" id="Shape" sketch:type="MSShapeGroup"></path>
        </g>
    </g>
</svg>