<?xml version="1.0" encoding="UTF-8" standalone="no"?>
<svg width="70px" height="73px" viewBox="0 0 70 73" version="1.1" xmlns="http://www.w3.org/2000/svg" xmlns:xlink="http://www.w3.org/1999/xlink" xmlns:sketch="http://www.bohemiancoding.com/sketch/ns">
    <!-- Generator: Sketch 3.4.4 (17249) - http://www.bohemiancoding.com/sketch -->
    <title>Page 1</title>
    <desc>Created with Sketch.</desc>
    <defs></defs>
    <g id="Page-1" stroke="none" stroke-width="1" fill="none" fill-rule="evenodd" sketch:type="MSPage">
        <g sketch:type="MSLayerGroup" id="Fill-1" fill="#979797">
            <path d="M35.238,17.602 C25.609,17.602 17.777,25.434 17.777,35.062 C17.777,43.309 25.832,51.797 26.059,52.277 C26.297,52.777 26.801,53.098 27.359,53.098 L44.266,53.098 C44.848,53.098 45.375,52.746 45.598,52.207 C45.793,51.742 52.699,42.297 52.699,35.059 C52.703,25.434 44.867,17.602 35.238,17.602 Z M43.547,55.543 L27.859,55.543 C27.062,55.543 26.418,56.191 26.418,56.984 C26.418,57.777 27.062,58.422 27.859,58.422 L43.551,58.422 C44.348,58.422 44.992,57.777 44.992,56.984 C44.988,56.191 44.344,55.543 43.547,55.543 Z M42.109,60.871 L29.297,60.871 C28.5,60.871 27.859,61.516 27.859,62.309 C27.859,63.105 28.504,63.75 29.297,63.75 L42.109,63.75 C42.906,63.75 43.547,63.105 43.547,62.309 C43.547,61.516 42.906,60.871 42.109,60.871 Z M38.812,66.641 L32.242,66.641 C31.445,66.641 30.801,67.285 30.801,68.082 C30.801,70.688 32.922,72.805 35.527,72.805 C38.133,72.805 40.254,70.688 40.254,68.082 C40.254,67.285 39.609,66.641 38.812,66.641 Z M10.438,33.91 L2.086,33.91 C1.293,33.91 0.648,34.555 0.648,35.352 C0.648,36.145 1.297,36.789 2.086,36.789 L10.438,36.789 C11.234,36.789 11.875,36.145 11.875,35.352 C11.879,34.555 11.234,33.91 10.438,33.91 Z M18.637,16.793 L12.734,10.887 C12.168,10.324 11.262,10.324 10.699,10.887 C10.137,11.449 10.137,12.359 10.699,12.922 L16.602,18.824 C17.164,19.387 18.074,19.387 18.637,18.824 C19.199,18.266 19.199,17.352 18.637,16.793 Z M35.098,11.926 C35.891,11.926 36.535,11.281 36.535,10.484 L36.535,2.133 C36.535,1.34 35.891,0.695 35.098,0.695 C34.301,0.695 33.656,1.34 33.656,2.133 L33.656,10.484 C33.656,11.277 34.301,11.922 35.098,11.926 Z M59.559,10.742 C58.996,10.18 58.086,10.18 57.523,10.742 L51.621,16.648 C51.059,17.207 51.059,18.121 51.621,18.684 C52.184,19.246 53.094,19.246 53.656,18.684 L59.559,12.781 C60.121,12.215 60.121,11.305 59.559,10.742 Z M68.312,33.703 L59.961,33.703 C59.164,33.703 58.523,34.348 58.523,35.141 C58.523,35.934 59.168,36.582 59.961,36.582 L68.312,36.582 C69.109,36.582 69.754,35.934 69.75,35.141 C69.75,34.348 69.105,33.703 68.312,33.703 Z" sketch:type="MSShapeGroup"></path>
        </g>
    </g>
</svg>