<?xml version="1.0" encoding="UTF-8" standalone="no"?>
<svg width="51px" height="75px" viewBox="0 0 51 75" version="1.1" xmlns="http://www.w3.org/2000/svg" xmlns:xlink="http://www.w3.org/1999/xlink" xmlns:sketch="http://www.bohemiancoding.com/sketch/ns">
    <!-- Generator: Sketch 3.4.4 (17249) - http://www.bohemiancoding.com/sketch -->
    <title>Page 1</title>
    <desc>Created with Sketch.</desc>
    <defs></defs>
    <g id="Page-1" stroke="none" stroke-width="1" fill="none" fill-rule="evenodd" sketch:type="MSPage">
        <g sketch:type="MSLayerGroup" transform="translate(1.000000, 1.000000)" stroke="#2E93FD" stroke-width="3.125" stroke-linecap="round">
            <path d="M24.5,0.562 C11.449,0.562 0.867,11.145 0.867,24.195 C0.867,32.578 5.246,39.926 11.828,44.117 L11.828,62.133 C11.828,64.512 13.777,66.461 16.16,66.461 L17.73,66.461 C17.719,66.582 17.688,66.699 17.688,66.82 C17.691,69.922 20.738,72.438 24.5,72.438 C28.262,72.438 31.312,69.922 31.312,66.82 C31.312,66.699 31.281,66.582 31.27,66.461 L32.84,66.461 C35.223,66.461 37.168,64.512 37.168,62.133 L37.168,44.117 C43.754,39.922 48.129,32.578 48.129,24.195 C48.129,11.145 37.551,0.562 24.5,0.562 L24.5,0.562 Z" id="Stroke-1" sketch:type="MSShapeGroup"></path>
            <path d="M12.754,48 L37.168,48" id="Stroke-2" sketch:type="MSShapeGroup"></path>
            <path d="M12.754,53.938 L37.168,53.938" id="Stroke-3" sketch:type="MSShapeGroup"></path>
            <path d="M12.754,59.871 L37.168,59.871" id="Stroke-4" sketch:type="MSShapeGroup"></path>
            <path d="M8.984,24.926 C8.984,24.926 11.527,7.371 27.465,9.684" id="Stroke-5" sketch:type="MSShapeGroup"></path>
        </g>
    </g>
</svg>