<?xml version="1.0" encoding="UTF-8" standalone="no"?>
<svg width="16px" height="16px" viewBox="0 0 16 16" version="1.1" xmlns="http://www.w3.org/2000/svg" xmlns:xlink="http://www.w3.org/1999/xlink" xmlns:sketch="http://www.bohemiancoding.com/sketch/ns">
    <!-- Generator: Sketch 3.3.3 (12081) - http://www.bohemiancoding.com/sketch -->
    <title>Oval 489 + @</title>
    <desc>Created with Sketch.</desc>
    <defs></defs>
    <g id="Page-1" stroke="none" stroke-width="1" fill="none" fill-rule="evenodd" sketch:type="MSPage">
        <g id="iPhone-6-Copy-5" sketch:type="MSArtboardGroup" transform="translate(-138.000000, -243.000000)">
            <g id="Oval-489-+-@" sketch:type="MSLayerGroup" transform="translate(138.000000, 243.000000)">
                <circle id="Oval-489" fill="#6CADF3" sketch:type="MSShapeGroup" cx="8" cy="8" r="8"></circle>
                <path d="M12.7144593,7.67153801 C12.7144593,8.24667252 12.6253553,8.77319621 12.4471446,9.25112489 C12.2689339,9.72905356 12.0178226,10.0996452 11.6938032,10.362911 C11.3697837,10.6261768 10.997167,10.7578078 10.5759417,10.7578078 C10.2276208,10.7578078 9.93398256,10.652503 9.69501823,10.4418904 C9.45605389,10.2312777 9.31429751,9.96194062 9.26974484,9.63387094 L9.22114216,9.63387094 C9.05913244,9.98624208 8.82725951,10.2616545 8.5255164,10.4601164 C8.2237733,10.6585783 7.86634471,10.7578078 7.45321993,10.7578078 C6.84568348,10.7578078 6.37079961,10.5502359 6.02855407,10.135086 C5.68630854,9.7199361 5.51518834,9.15594822 5.51518834,8.44310545 C5.51518834,7.61685587 5.75414909,6.94553816 6.23207776,6.42913218 C6.71000644,5.91272619 7.33778469,5.65452707 8.11543135,5.65452707 C8.39084787,5.65452707 8.70271191,5.67984071 9.05103281,5.73046875 C9.39935371,5.78109679 9.71324283,5.85096243 9.9927096,5.94006778 L9.84082625,8.79547483 L9.84082625,8.92913218 C9.84082625,9.65007543 10.1101634,10.0105417 10.6488457,10.0105417 C11.0174178,10.0105417 11.3171313,9.79284436 11.5479951,9.35744323 C11.778859,8.92204211 11.8942892,8.35602914 11.8942892,7.65938734 C11.8942892,6.92629336 11.7444324,6.28433947 11.4447145,5.73350642 C11.1449965,5.18267337 10.7187148,4.75841678 10.1658566,4.46072391 C9.61299845,4.16303105 8.97813238,4.01418685 8.26123937,4.01418685 C7.35803518,4.01418685 6.57229982,4.20150778 5.90400972,4.57615526 C5.23571962,4.95080274 4.72539666,5.4854268 4.37302552,6.18004348 C4.02065437,6.87466015 3.84447145,7.67760879 3.84447145,8.58891346 C3.84447145,9.82423758 4.17051112,10.7740053 4.82260024,11.4382452 C5.47468937,12.102485 6.41433165,12.4346 7.64155529,12.4346 C8.49210632,12.4346 9.37504605,12.2604421 10.290401,11.9121212 L10.290401,12.7201407 C9.51275431,13.0603611 8.62981458,13.2304688 7.64155529,13.2304688 C6.17131707,13.2304688 5.03017822,12.8264631 4.2181045,12.0184396 C3.40603077,11.2104161 3,10.0814278 3,8.6314408 C3,7.57837762 3.21668475,6.64076043 3.65006075,5.8185611 C4.08343676,4.99636176 4.70108955,4.3594706 5.50303767,3.90786851 C6.30498578,3.45626641 7.22437716,3.23046875 8.26123937,3.23046875 C9.13204162,3.23046875 9.90663897,3.4137395 10.5850547,3.78028649 C11.2634704,4.14683348 11.787969,4.6672819 12.1585662,5.34164736 C12.5291635,6.01601283 12.7144593,6.79263527 12.7144593,7.67153801 L12.7144593,7.67153801 Z M6.43256379,8.46740678 C6.43256379,9.49616851 6.82745656,10.0105417 7.61725395,10.0105417 C8.45565425,10.0105417 8.91129976,9.37668813 8.98420413,8.10896207 L9.06925881,6.52329986 C8.77764131,6.442295 8.459702,6.40179317 8.11543135,6.40179317 C7.58889976,6.40179317 7.17679371,6.58405137 6.87910085,6.94857325 C6.58140799,7.31309512 6.43256379,7.8193679 6.43256379,8.46740678 L6.43256379,8.46740678 Z" id="@" fill="#FFFFFF" sketch:type="MSShapeGroup"></path>
            </g>
        </g>
    </g>
</svg>