<?xml version="1.0" encoding="UTF-8" standalone="no"?>
<svg width="48px" height="51px" viewBox="0 0 48 51" version="1.1" xmlns="http://www.w3.org/2000/svg" xmlns:xlink="http://www.w3.org/1999/xlink">
    <!-- Generator: Sketch 3.7 (28169) - http://www.bohemiancoding.com/sketch -->
    <title>Page 1</title>
    <desc>Created with Sketch.</desc>
    <defs></defs>
    <g id="Page-1" stroke="none" stroke-width="1" fill="none" fill-rule="evenodd">
        <path d="M24.0027185,33.8849263 L39.5377185,49.7909263 C41.0967185,51.3999263 42.1077185,51.4159263 43.6977185,49.7909263 L46.8147185,46.5999263 C48.3427185,45.0369263 48.4437185,44.0099263 46.8147185,42.3419263 L30.3657185,25.5019263 L46.8147185,8.66592632 C48.3577185,7.08392632 48.3857185,6.01792632 46.8147185,4.40392632 L43.6977185,1.21292632 C42.0807185,-0.443073683 41.0807185,-0.365073683 39.5377185,1.21292632 L24.0027185,17.1189263 L8.46371851,1.21292632 C6.92071851,-0.365073683 5.92071851,-0.443073683 4.30371851,1.21292632 L1.18671851,4.40392632 C-0.384281488,6.01392632 -0.356281488,7.07992632 1.18671851,8.66592632 L17.6357185,25.5019263 L1.18971851,42.3379263 C-0.439281488,44.0099263 -0.353281488,45.0329263 1.18971851,46.5959263 L4.30771851,49.7869263 C5.88171851,51.4119263 6.89371851,51.3969263 8.46771851,49.7869263 L24.0027185,33.8849263 Z" fill="#FFFFFF"></path>
    </g>
</svg>