<?xml version="1.0" encoding="UTF-8" standalone="no"?>
<svg width="147px" height="147px" viewBox="0 0 147 147" version="1.1" xmlns="http://www.w3.org/2000/svg" xmlns:xlink="http://www.w3.org/1999/xlink" xmlns:sketch="http://www.bohemiancoding.com/sketch/ns">
    <!-- Generator: Sketch 3.4.4 (17249) - http://www.bohemiancoding.com/sketch -->
    <title>Page 1 Copy</title>
    <desc>Created with Sketch.</desc>
    <defs></defs>
    <g id="Page-1" stroke="none" stroke-width="1" fill="none" fill-rule="evenodd" sketch:type="MSPage">
        <g id="Page-1-Copy" sketch:type="MSLayerGroup" fill="#979797">
            <path d="M73.5,147 C90.2836378,147 106.109793,141.481242 119.209949,131.057145 C121.984979,128.844513 122.445876,124.813253 120.233925,122.03908 C118.031252,119.260174 113.994804,118.803769 111.218013,121.017808 C100.391362,129.623694 87.3638856,134.166667 73.5,134.166667 C40.0540633,134.166667 12.8333333,106.945937 12.8333333,73.5 C12.8333333,40.0540633 40.0540633,12.8333333 73.5,12.8333333 C106.945937,12.8333333 134.166667,40.0540633 134.166667,73.5 C134.166667,83.9923736 125.421186,93.3333333 117.250933,93.3333333 C107.387991,93.3333333 100.318073,88.4884927 100.282904,79.8436284 L106.059808,48.4015833 C106.70058,44.9184534 104.383002,41.5674463 100.88733,40.9389647 C97.4030605,40.3009817 94.0600622,42.6165389 93.4314981,46.1126703 L87.5555063,78.7124764 C87.5,96.1068084 100.484943,106.166667 117.250933,106.166667 C132.525589,106.166667 147,91.1419213 147,73.5 C147,32.9643367 114.035663,0 73.5,0 C32.9643367,0 0,32.9643367 0,73.5 C0,114.035663 32.9643367,147 73.5,147 L73.5,147 Z M95.160692,80.4799146 C95.9116806,77.1554327 93.9099082,73.7627825 90.5884615,72.9490234 C87.2287085,72.0963586 83.879485,74.2828374 83.1277742,77.6829029 C81.3858639,85.5416418 75.2335131,92.3938308 67.7923479,92.3938308 C63.7158835,92.3938308 59.9059719,90.3110552 57.3230518,86.6000878 C54.4607635,82.5011078 53.5991041,77.2254969 55.011955,72.529212 C58.0494284,62.4378803 64.1752735,57.2755189 71.4899681,55.3392858 C77.7475327,53.6921188 84.2214847,54.9992844 87.4589145,58.3126871 C89.9431782,60.8211273 93.9264608,60.7740008 96.3115043,58.190651 C98.606362,55.7173268 98.5576583,51.8222313 96.1983824,49.4052021 C89.691426,42.7532057 78.7935952,40.3679256 68.3882185,43.1281047 C56.327436,46.3145282 47.1448384,55.7368422 43.2167522,68.8190718 C40.6648965,77.2594638 42.1770308,86.619825 47.2634556,93.9027028 C52.1519622,100.923396 59.6525872,105 67.7923479,105 C81.1316673,105 92.1356802,94.0680894 95.160692,80.4799146 Z" id="Shape" sketch:type="MSShapeGroup"></path>
        </g>
    </g>
</svg>