<?xml version="1.0" encoding="UTF-8" standalone="no"?>
<svg width="75px" height="51px" viewBox="0 0 75 51" version="1.1" xmlns="http://www.w3.org/2000/svg" xmlns:xlink="http://www.w3.org/1999/xlink" xmlns:sketch="http://www.bohemiancoding.com/sketch/ns">
    <!-- Generator: Sketch 3.4 (15588) - http://www.bohemiancoding.com/sketch -->
    <title>Page 1</title>
    <desc>Created with Sketch.</desc>
    <defs></defs>
    <g id="Page-1" stroke="none" stroke-width="1" fill="none" fill-rule="evenodd" sketch:type="MSPage">
        <g sketch:type="MSLayerGroup" fill="#000000">
            <path d="M1.562,3.625 L73.438,3.625 C74.301,3.625 75,2.926 75,2.062 C75,1.199 74.301,0.5 73.438,0.5 L1.562,0.5 C0.699,0.5 0,1.199 0,2.062 C0,2.926 0.699,3.625 1.562,3.625 L1.562,3.625 Z" id="Fill-1" sketch:type="MSShapeGroup"></path>
            <path d="M20.312,9.875 C19.449,9.875 18.75,10.574 18.75,11.438 C18.75,12.301 19.449,13 20.312,13 L51.562,13 C52.426,13 53.125,12.301 53.125,11.438 C53.125,10.574 52.426,9.875 51.562,9.875 L20.312,9.875 Z" id="Fill-2" sketch:type="MSShapeGroup"></path>
            <path d="M73.438,19.25 L20.312,19.25 C19.449,19.25 18.75,19.949 18.75,20.812 C18.75,21.676 19.449,22.375 20.312,22.375 L73.438,22.375 C74.301,22.375 75,21.676 75,20.812 C75,19.949 74.301,19.25 73.438,19.25 L73.438,19.25 Z" id="Fill-3" sketch:type="MSShapeGroup"></path>
            <path d="M20.312,31.75 L51.562,31.75 C52.426,31.75 53.125,31.051 53.125,30.188 C53.125,29.324 52.426,28.625 51.562,28.625 L20.312,28.625 C19.449,28.625 18.75,29.324 18.75,30.188 C18.75,31.051 19.449,31.75 20.312,31.75 L20.312,31.75 Z" id="Fill-4" sketch:type="MSShapeGroup"></path>
            <path d="M73.438,38 L20.312,38 C19.449,38 18.75,38.699 18.75,39.562 C18.75,40.426 19.449,41.125 20.312,41.125 L73.438,41.125 C74.301,41.125 75,40.426 75,39.562 C75,38.699 74.301,38 73.438,38 L73.438,38 Z" id="Fill-5" sketch:type="MSShapeGroup"></path>
            <path d="M51.562,47.375 L1.562,47.375 C0.699,47.375 0,48.074 0,48.938 C0,49.801 0.699,50.5 1.562,50.5 L51.562,50.5 C52.426,50.5 53.125,49.801 53.125,48.938 C53.125,48.074 52.426,47.375 51.562,47.375 L51.562,47.375 Z" id="Fill-6" sketch:type="MSShapeGroup"></path>
            <path d="M12.957,37.543 C13.258,37.84 13.656,38 14.062,38 C14.262,38 14.469,37.961 14.66,37.883 C15.242,37.641 15.625,37.07 15.625,36.438 L15.625,11.438 C15.625,10.805 15.242,10.234 14.66,9.992 C14.082,9.75 13.402,9.883 12.957,10.332 L0.457,22.832 C-0.152,23.441 -0.152,24.434 0.457,25.043 L12.957,37.543 Z" id="Fill-7" sketch:type="MSShapeGroup"></path>
        </g>
    </g>
</svg>