<?xml version="1.0" encoding="UTF-8" standalone="no"?>
<svg width="18px" height="18px" viewBox="0 0 18 18" version="1.1" xmlns="http://www.w3.org/2000/svg" xmlns:xlink="http://www.w3.org/1999/xlink" xmlns:sketch="http://www.bohemiancoding.com/sketch/ns">
    <!-- Generator: Sketch 3.3.3 (12081) - http://www.bohemiancoding.com/sketch -->
    <title>Shape</title>
    <desc>Created with Sketch.</desc>
    <defs></defs>
    <g id="Page-1" stroke="none" stroke-width="1" fill="none" fill-rule="evenodd" sketch:type="MSPage">
        <g id="iPhone-6" sketch:type="MSArtboardGroup" transform="translate(-45.000000, -174.000000)" fill="#6CADF3">
            <path d="M58.9807055,174.090118 L49.3024045,174.090118 C47.0827942,174.090118 45.2831101,175.889802 45.2831101,178.109411 L45.2831101,183.148528 C45.2831101,185.368137 47.0827942,187.167821 49.3024045,187.167821 L56.0212251,187.167821 L59.1806705,190.787186 L60.0405195,191.767015 C60.0805124,191.827004 60.1604985,191.847 60.2204879,191.847 C60.2404845,191.847 60.2804774,191.847 60.3004739,191.827004 C60.4004564,191.787011 60.4604458,191.707025 60.4604458,191.607042 L60.4604458,186.887871 C61.9801791,186.287977 63,184.808236 63,183.148528 L63,178.109411 C63,175.889802 61.200316,174.090118 58.9807055,174.090118 L58.9807055,174.090118 L58.9807055,174.090118 Z" id="Shape" sketch:type="MSShapeGroup"></path>
        </g>
    </g>
</svg>