<?xml version="1.0" encoding="UTF-8" standalone="no"?>
<svg width="75px" height="75px" viewBox="0 0 75 75" version="1.1" xmlns="http://www.w3.org/2000/svg" xmlns:xlink="http://www.w3.org/1999/xlink">
    <!-- Generator: Sketch 3.6.1 (26313) - http://www.bohemiancoding.com/sketch -->
    <title>Shape</title>
    <desc>Created with Sketch.</desc>
    <defs></defs>
    <g id="Page-1" stroke="none" stroke-width="1" fill="none" fill-rule="evenodd">
        <g id="iPhone-6-Copy-13" transform="translate(-94.000000, -98.000000)" fill="#FFFFFF">
            <path d="M158.219,115.542323 L158.219,98 L94,98 L94,173 L158.219,173 L158.219,136.646007 L168.844,114.406 C169,113.938 169.156,113.156 168.844,112.531 C168.375,111.438 167.281,110.344 165.875,109.875 C163.531,108.781 161.188,109.094 160.562,110.656 L158.219,115.542323 L158.219,115.542323 Z M155.167607,121.906 L155.094,121.906 L155.094,101.125 L97.125,101.125 L97.125,169.875 L155.094,169.875 L155.094,143.187186 L150.406,153 L139.156,165.5 L142.281,148.781 L155.167607,121.906 L155.167607,121.906 Z M108.219,114.094 L141.657,114.094 L141.657,110.969 L108.219,110.969 L108.219,114.094 L108.219,114.094 Z M108.219,125.813 L141.657,125.813 L141.657,122.688 L108.219,122.688 L108.219,125.813 L108.219,125.813 Z M108.219,137.531 L141.657,137.531 L141.657,134.406 L108.219,134.406 L108.219,137.531 L108.219,137.531 Z" id="Shape"></path>
        </g>
    </g>
</svg>