<?xml version="1.0" encoding="UTF-8" standalone="no"?>
<svg width="15px" height="13px" viewBox="0 0 15 13" version="1.1" xmlns="http://www.w3.org/2000/svg" xmlns:xlink="http://www.w3.org/1999/xlink" xmlns:sketch="http://www.bohemiancoding.com/sketch/ns">
    <!-- Generator: Sketch 3.4.4 (17249) - http://www.bohemiancoding.com/sketch -->
    <title>Page 1</title>
    <desc>Created with Sketch.</desc>
    <defs></defs>
    <g id="Page-1" stroke="none" stroke-width="1" fill="none" fill-rule="evenodd" sketch:type="MSPage">
        <g id="iPhone-6" sketch:type="MSArtboardGroup" transform="translate(-20.000000, -181.000000)" fill="#2E93FD">
            <g id="New-Connection-+-Page-1" sketch:type="MSLayerGroup" transform="translate(20.000000, 178.000000)">
                <path d="M13.6480476,15.6784 C13.1829809,12.89504 11.1339142,11.5992533 7.20047422,11.5992533 C3.26788756,11.5992533 1.21882089,12.8958933 0.752900889,15.6775467 C0.718767556,15.8834133 0.522927556,16.02336 0.316207556,15.9883733 C0.109700889,15.95424 -0.0296057777,15.7584 0.00538088899,15.55168 C0.536367556,12.3824 2.89050089,10.8408533 7.20047422,10.8408533 C11.5121542,10.8408533 13.8654342,12.3824 14.3955676,15.5525333 C14.4297009,15.7592533 14.2903942,15.95424 14.0847409,15.9892267 C14.0629809,15.99328 14.0420742,15.9949867 14.0213809,15.9949867 C13.8396209,15.9949867 13.6787676,15.8642133 13.6480476,15.6784 Z M7.20047422,10.3640533 C5.16954089,10.3640533 3.51706089,8.71242667 3.51706089,6.68256 C3.51706089,4.65248 5.16954089,3 7.20047422,3 C9.23140756,3 10.8838876,4.65162667 10.8838876,6.68256 C10.8838876,8.71242667 9.23140756,10.3640533 7.20047422,10.3640533 L7.20047422,10.3640533 Z M7.20047422,3.7584 C5.58724756,3.7584 4.27546089,5.06997333 4.27546089,6.68256 C4.27546089,8.29493333 5.58724756,9.60672 7.20047422,9.60672 C8.81370089,9.60672 10.1263409,8.29493333 10.1263409,6.68256 C10.1263409,5.06997333 8.81370089,3.7584 7.20047422,3.7584 L7.20047422,3.7584 Z" id="Page-1" sketch:type="MSShapeGroup"></path>
            </g>
        </g>
    </g>
</svg>