<?xml version="1.0" encoding="UTF-8" standalone="no"?>
<svg width="61px" height="61px" viewBox="0 0 61 61" version="1.1" xmlns="http://www.w3.org/2000/svg" xmlns:xlink="http://www.w3.org/1999/xlink">
    <!-- Generator: Sketch 3.6.1 (26313) - http://www.bohemiancoding.com/sketch -->
    <title>Group 4</title>
    <desc>Created with Sketch.</desc>
    <defs>
        <filter x="-50%" y="-50%" width="200%" height="200%" filterUnits="objectBoundingBox" id="filter-1">
            <feOffset dx="0" dy="2" in="SourceAlpha" result="shadowOffsetOuter1"></feOffset>
            <feGaussianBlur stdDeviation="2" in="shadowOffsetOuter1" result="shadowBlurOuter1"></feGaussianBlur>
            <feColorMatrix values="0 0 0 0 0   0 0 0 0 0   0 0 0 0 0  0 0 0 0.0850430254 0" in="shadowBlurOuter1" type="matrix" result="shadowMatrixOuter1"></feColorMatrix>
            <feMerge>
                <feMergeNode in="shadowMatrixOuter1"></feMergeNode>
                <feMergeNode in="SourceGraphic"></feMergeNode>
            </feMerge>
        </filter>
    </defs>
    <g id="Page-1" stroke="none" stroke-width="1" fill="none" fill-rule="evenodd">
        <g id="Group-4" transform="translate(4.000000, 2.000000)">
            <circle id="Oval-27-Copy" fill="#FFFFFF" filter="url(#filter-1)" cx="26.5" cy="26.5" r="26.5"></circle>
            <g id="Imported-Layers-Copy-17" transform="translate(12.000000, 9.000000)">
                <path d="M14.0878571,0.722857143 C10.5471429,3.64928571 6.06571429,4.62642857 2.51642857,4.67928571 C2.13428571,4.67928571 1.80214286,4.94428571 1.72428571,5.31785714 C1.72428571,5.31785714 0.920714286,8.93428571 0.516428571,13.3064286 C0.114285714,17.6785714 0.0307142857,22.8014286 1.79714286,26.1078571 C3.12214286,28.5857143 6.25571429,30.575 9.05142857,32.09 C11.6378571,33.4907143 13.7721429,34.3385714 14.1071429,34.4728571 C14.2578571,34.59 14.4478571,34.6485714 14.64,34.64 C14.8357143,34.6514286 15.0278571,34.59 15.1785714,34.47 C15.53,34.3328571 17.6535714,33.4907143 20.2314286,32.0957143 C23.03,30.58 26.1578571,28.5878571 27.4835714,26.1135714 C29.2521429,22.8071429 29.1685714,17.6842857 28.7642857,13.3121429 C28.3621429,8.94 27.5585714,5.32357143 27.5585714,5.32357143 C27.4807143,4.94428571 27.1371429,4.67357143 26.7435714,4.685 C21.565,4.665 17.0757143,2.95214286 15.5078571,0.884285714 C15.3907143,0.566428571 15.0835714,0.354285714 14.7407143,0.36 C15.0164286,0.362857143 14.2357143,0.502142857 14.0878571,0.722857143 Z M21.9642857,12.9628571 L10.8735714,20.3378571 L7.45785714,16.9335714 C7.14857143,16.5928571 6.61857143,16.5821429 6.29428571,16.9085714 C5.97071429,17.2321429 5.985,17.7621429 6.32285714,18.0692857 L10.2007143,21.9392857 C10.4714286,22.21 10.8957143,22.2514286 11.2135714,22.0392857 L22.8542857,14.305 C23.5435714,13.8642857 23.2114286,12.7985714 22.3942857,12.8235714 C22.2407143,12.8292857 22.0928571,12.8764286 21.9642857,12.9628571 Z" id="Fill-2" fill="#64B5F6"></path>
                <path d="M21.9642857,12.9628571 L10.8735714,20.3378571 L7.45785714,16.9335714 C7.14857143,16.5928571 6.61857143,16.5821429 6.29428571,16.9085714 C5.97071429,17.2321429 5.985,17.7621429 6.32285714,18.0692857 L10.2007143,21.9392857 C10.4714286,22.21 10.8957143,22.2514286 11.2135714,22.0392857 L22.8542857,14.305 C23.5435714,13.8642857 23.2114286,12.7985714 22.3942857,12.8235714 C22.2407143,12.8292857 22.0928571,12.8764286 21.9642857,12.9628571 Z" id="Fill-1-Copy-2" stroke="#FFFFFF" fill="#FFFFFF"></path>
            </g>
        </g>
    </g>
</svg>