<?xml version="1.0" encoding="UTF-8" standalone="no"?>
<svg width="51px" height="75px" viewBox="0 0 51 75" version="1.1" xmlns="http://www.w3.org/2000/svg" xmlns:xlink="http://www.w3.org/1999/xlink" xmlns:sketch="http://www.bohemiancoding.com/sketch/ns">
    <!-- Generator: Sketch 3.4.4 (17249) - http://www.bohemiancoding.com/sketch -->
    <title>Page 1</title>
    <desc>Created with Sketch.</desc>
    <defs></defs>
    <g id="Page-1" stroke="none" stroke-width="1" fill="none" fill-rule="evenodd" sketch:type="MSPage">
        <g sketch:type="MSLayerGroup" transform="translate(0.000000, -1.000000)" id="Shape" fill="#FFFFFF">
            <path d="M25.5,0.9995 C11.5863902,0.9995 0.3045,12.2817199 0.3045,26.195 C0.3045,34.9000957 4.77008501,42.83859 11.9887822,47.4349984 L11.2655,46.117 L11.2655,64.133 C11.2655,67.3757884 13.9148988,70.0235 17.16,70.0235 L18.73,70.0235 L18.73,68.461 L17.1739169,68.3195379 C17.1744623,68.3135379 17.173256,68.322094 17.1676056,68.3578057 C17.1643827,68.3781601 17.1643827,68.3781601 17.1604319,68.4036421 C17.137797,68.5512336 17.1255,68.6705835 17.1255,68.82 C17.1294065,72.8600299 20.9358847,76.0005 25.5,76.0005 C30.0653768,76.0005 33.8745,72.8588038 33.8745,68.82 C33.8745,68.6705835 33.862203,68.5512336 33.8395681,68.4036421 C33.8356173,68.3781601 33.8356173,68.3781601 33.8323944,68.3578057 C33.826744,68.322094 33.8255377,68.3135379 33.8260831,68.3195379 L32.27,68.461 L32.27,70.0235 L33.84,70.0235 C37.084789,70.0235 39.7305,67.3761019 39.7305,64.133 L39.7305,46.117 L39.0074246,47.4348667 C46.2290185,42.8350206 50.6915,34.9011382 50.6915,26.195 C50.6915,12.2810386 39.4129288,0.9995 25.5,0.9995 L25.5,0.9995 Z M25.5,4.1245 C37.6868549,4.1245 47.5665,14.0067445 47.5665,26.195 C47.5665,33.8205135 43.6596712,40.7664964 37.3285754,44.7991333 L36.6055,45.2597014 L36.6055,46.117 L36.6055,64.133 C36.6055,65.6506578 35.358453,66.8985 33.84,66.8985 L32.27,66.8985 L30.5590112,66.8985 L30.7139169,68.6024621 C30.7216632,68.6876716 30.7294447,68.7428623 30.7457909,68.8461742 C30.7486643,68.8643399 30.7486643,68.8643399 30.7506819,68.8773579 C30.7512321,68.8809455 30.7495,68.8641348 30.7495,68.82 C30.7495,70.9856111 28.4581201,72.8755 25.5,72.8755 C22.5426904,72.8755 20.2525956,70.9860963 20.2504993,68.8184889 C20.2505,68.8641348 20.2487679,68.8809455 20.2493181,68.8773579 C20.2513357,68.8643399 20.2513357,68.8643399 20.2542091,68.8461742 C20.2705553,68.7428623 20.2783368,68.6876716 20.2860831,68.6024621 L20.4409888,66.8985 L18.73,66.8985 L17.16,66.8985 C15.6403432,66.8985 14.3905,65.6494528 14.3905,64.133 L14.3905,46.117 L14.3905,45.2595418 L13.6672178,44.7990016 C7.33928252,40.7697739 3.4295,33.8193326 3.4295,26.195 C3.4295,14.0075893 13.3123005,4.1245 25.5,4.1245 L25.5,4.1245 Z" sketch:type="MSShapeGroup"></path>
            <path d="M13.754,51.5625 L38.168,51.5625 C39.0309449,51.5625 39.7305,50.8629449 39.7305,50 C39.7305,49.1370551 39.0309449,48.4375 38.168,48.4375 L13.754,48.4375 C12.8910551,48.4375 12.1915,49.1370551 12.1915,50 C12.1915,50.8629449 12.8910551,51.5625 13.754,51.5625 L13.754,51.5625 Z" sketch:type="MSShapeGroup"></path>
            <path d="M13.754,57.5005 L38.168,57.5005 C39.0309449,57.5005 39.7305,56.8009449 39.7305,55.938 C39.7305,55.0750551 39.0309449,54.3755 38.168,54.3755 L13.754,54.3755 C12.8910551,54.3755 12.1915,55.0750551 12.1915,55.938 C12.1915,56.8009449 12.8910551,57.5005 13.754,57.5005 L13.754,57.5005 Z" sketch:type="MSShapeGroup"></path>
            <path d="M13.754,63.4335 L38.168,63.4335 C39.0309449,63.4335 39.7305,62.7339449 39.7305,61.871 C39.7305,61.0080551 39.0309449,60.3085 38.168,60.3085 L13.754,60.3085 C12.8910551,60.3085 12.1915,61.0080551 12.1915,61.871 C12.1915,62.7339449 12.8910551,63.4335 13.754,63.4335 L13.754,63.4335 Z" sketch:type="MSShapeGroup"></path>
            <path d="M11.5303597,27.1500041 C11.5434778,27.0594464 11.577473,26.8639017 11.6364958,26.5787384 C11.7378352,26.0891272 11.8725071,25.5399097 12.044467,24.9465477 C12.5361281,23.2500301 13.2240862,21.5545651 14.1347629,19.9836206 C17.0869878,14.8909447 21.5866978,12.2646557 28.2405932,13.2303013 C29.0945919,13.3542378 29.8873649,12.7624054 30.0113013,11.9084068 C30.1352378,11.0544081 29.5434054,10.2616351 28.6894068,10.1376987 C20.6663539,8.97335424 14.9820293,12.2910523 11.4311887,18.4163583 C10.3824038,20.2255434 9.6008614,22.1516458 9.04297028,24.0766957 C8.70662247,25.237292 8.51734752,26.1517557 8.43764028,26.7019959 C8.3139262,27.5560267 8.90596496,28.3486456 9.75999585,28.4723597 C10.6140267,28.5960738 11.4066456,28.004035 11.5303597,27.1500041 L11.5303597,27.1500041 Z" sketch:type="MSShapeGroup"></path>
        </g>
    </g>
</svg>