<?xml version="1.0" encoding="UTF-8" standalone="no"?>
<svg width="17px" height="19px" viewBox="0 0 17 19" version="1.1" xmlns="http://www.w3.org/2000/svg" xmlns:xlink="http://www.w3.org/1999/xlink" xmlns:sketch="http://www.bohemiancoding.com/sketch/ns">
    <!-- Generator: Sketch 3.3.3 (12081) - http://www.bohemiancoding.com/sketch -->
    <title>Shape Copy 15</title>
    <desc>Created with Sketch.</desc>
    <defs></defs>
    <g id="Page-1" stroke="none" stroke-width="1" fill="none" fill-rule="evenodd" sketch:type="MSPage">
        <g id="iPhone-6-Copy-2" sketch:type="MSArtboardGroup" transform="translate(-110.625000, -205.500000)" stroke="#2D93FF">
            <path d="M119.240007,222.458954 C119.222018,222.077915 119.240007,221.679557 119.150063,221.298518 C118.934197,220.311282 118.394533,219.549206 117.441128,219.098887 C116.020013,218.42341 114.724821,217.574733 113.627504,216.466258 C111.61276,214.405186 111.576782,211.997716 112.925942,209.590245 C114.401022,206.957616 117.423139,205.589342 120.481233,206.108939 C123.485361,206.611217 125.87787,208.932088 126.345578,211.876476 C126.561444,213.192791 126.417533,214.474466 125.787926,215.704181 C125.320217,216.587497 124.780554,217.401534 124.186924,218.198251 C122.90972,219.930244 121.650504,221.679557 120.391289,223.41155 C120.193412,223.688669 119.977547,224.087027 119.581794,223.983108 C119.150063,223.861868 119.257995,223.42887 119.240007,223.082471 C119.222018,222.874632 119.240007,222.684113 119.240007,222.476274 C119.222018,222.458954 119.240007,222.458954 119.240007,222.458954 L119.240007,222.458954 Z" id="Shape-Copy-15" sketch:type="MSShapeGroup"></path>
        </g>
    </g>
</svg>