<?xml version="1.0" encoding="UTF-8" standalone="no"?>
<svg width="32px" height="20px" viewBox="0 0 32 20" version="1.1" xmlns="http://www.w3.org/2000/svg" xmlns:xlink="http://www.w3.org/1999/xlink" xmlns:sketch="http://www.bohemiancoding.com/sketch/ns">
    <!-- Generator: Sketch 3.5.1 (25234) - http://www.bohemiancoding.com/sketch -->
    <title>Page 1 Copy 15</title>
    <desc>Created with Sketch.</desc>
    <defs></defs>
    <g id="Page-1" stroke="none" stroke-width="1" fill="none" fill-rule="evenodd" sketch:type="MSPage">
        <g id="Page-1-Copy-15" sketch:type="MSLayerGroup" fill="#979797">
            <path d="M31.1956522,14.690981 C31.1956522,12.6766332 29.33534,10.9913824 26.8319175,10.5343032 L26.8319175,9.57169454 C27.7442475,8.95235229 28.3658751,7.73103679 28.3658751,6.32414716 C28.3658751,4.29060201 27.0695987,2.64237458 25.4698216,2.64237458 C23.8700446,2.64237458 22.5737681,4.29060201 22.5737681,6.32414716 C22.5737681,7.73103679 23.1949387,8.95235229 24.1072687,9.57169454 L24.1072687,10.5343032 C23.1538016,10.7093645 22.2931215,11.0626867 21.5933333,11.5430769 C23.4093088,12.6304682 24.6877592,14.2160758 25.1411817,16.0512486 L29.9172018,16.0512486 C30.6206466,16.0512486 31.1901672,15.4730435 31.1901672,14.7568004 C31.1901672,14.7334894 31.1851394,14.7124638 31.183311,14.690981 L31.1956522,14.690981 Z" id="Fill-1" sketch:type="MSShapeGroup"></path>
            <path d="M9.94329989,11.5430769 C9.24351171,11.0626867 8.38465998,10.7075362 7.42936455,10.5343032 L7.42936455,9.57169454 C8.34169454,8.95235229 8.96286511,7.73103679 8.96286511,6.32414716 C8.96286511,4.29060201 7.66658863,2.64237458 6.06681159,2.64237458 C4.46703456,2.64237458 3.17121516,4.29060201 3.17121516,6.32414716 C3.17121516,7.73103679 3.79238573,8.95235229 4.70471572,9.57169454 L4.70471572,10.5343032 C2.20312152,10.9913824 0.342809365,12.6766332 0.342809365,14.690981 L0.355150502,14.690981 C0.353322185,14.713835 0.348294314,14.7353177 0.348294314,14.7568004 C0.348294314,15.4712152 0.917814939,16.0512486 1.62125975,16.0512486 L6.39727982,16.0512486 C6.85070234,14.2160758 8.12732441,12.6304682 9.94329989,11.5430769 L9.94329989,11.5430769 Z" id="Fill-2" sketch:type="MSShapeGroup"></path>
            <path d="M23.9948272,17.2867336 L23.9948272,17.0760201 C23.9948272,16.9279264 23.9664883,16.7885173 23.9216945,16.6550502 C23.884214,16.4493645 23.8270792,16.249621 23.762631,16.0512486 C23.2895541,14.598194 22.1308584,13.3462542 20.5543924,12.502029 C19.7151951,12.051806 18.7598997,11.7181382 17.7278149,11.5289075 L17.7278149,10.1521851 C19.0400892,9.26133779 19.9327648,7.50432553 19.9327648,5.4812932 C19.9327648,2.55690078 18.068796,0.187402453 15.7692308,0.187402453 C13.4696656,0.187402453 11.6056968,2.55690078 11.6056968,5.4812932 C11.6056968,7.50432553 12.5002007,9.26133779 13.8124749,10.1521851 L13.8124749,11.5289075 C12.7803902,11.7181382 11.8232664,12.0536343 10.9858974,12.502029 C9.40760312,13.3462542 8.25073579,14.598194 7.77765886,16.0512486 C7.7132107,16.249621 7.65607581,16.4493645 7.61859532,16.6550502 C7.57380156,16.787146 7.54546265,16.9279264 7.54546265,17.0760201 L7.54546265,17.2849052 C7.54180602,17.3598662 7.53814939,17.4352843 7.53814939,17.5116165 L7.54546265,17.5116165 L7.54546265,18.1405574 C7.54546265,18.8741695 8.13098105,19.4706577 8.85225195,19.4706577 L22.6898662,19.4706577 C23.4111371,19.4706577 23.9966555,18.8759978 23.9966555,18.1405574 L23.9966555,17.5116165 L24.0039688,17.5116165 C24.0021405,17.4352843 23.9984838,17.3616945 23.9948272,17.2867336 L23.9948272,17.2867336 Z" id="Fill-3" sketch:type="MSShapeGroup"></path>
        </g>
    </g>
</svg>