<?xml version="1.0" encoding="UTF-8" standalone="no"?>
<svg width="23px" height="22px" viewBox="0 0 23 22" version="1.1" xmlns="http://www.w3.org/2000/svg" xmlns:xlink="http://www.w3.org/1999/xlink" xmlns:sketch="http://www.bohemiancoding.com/sketch/ns">
    <!-- Generator: Sketch 3.5.1 (25234) - http://www.bohemiancoding.com/sketch -->
    <title>Path</title>
    <desc>Created with Sketch.</desc>
    <defs></defs>
    <g id="Page-1" stroke="none" stroke-width="1" fill="none" fill-rule="evenodd" sketch:type="MSPage">
        <path d="M11.5332188,1 C10.6229679,1 9.50144163,1.21421999 8.57425925,1.91429974 C7.64670879,2.61474756 6.95215017,3.80952089 6.95215017,5.59800012 L6.95215017,6.45193546 C6.95215017,8.21612171 7.41960616,9.35789215 7.86681799,10.2305993 C8.31402981,11.1033065 8.70345378,11.6856021 8.70345378,12.4217533 C8.70345378,12.9639286 8.48371266,13.3404699 8.08251028,13.6901417 C7.6813079,14.0394454 7.09017852,14.3283848 6.40003681,14.5959757 C5.02122569,15.1307895 3.29016625,15.5562849 2.00926324,16.4072756 L2.00042942,16.4072756 C1.4008343,16.8128949 1,17.4526103 1,18.3915711 L1,20.9452794 C1,21.1219557 1.15937673,21.2817005 1.33642108,21.2817005 L21.790381,21.2817005 C21.9670572,21.2817005 22.126802,21.1219557 22.126802,20.9452794 L22.126802,18.3915711 C22.126802,17.4526103 21.7226551,16.8128949 21.1260045,16.4072756 L21.1175388,16.4072756 C19.8347954,15.5562849 18.1096252,15.1307895 16.7263972,14.5959757 C16.0347831,14.3283848 15.4296669,14.0394454 15.0269922,13.6901417 C14.6243175,13.3404699 14.4145144,12.9639286 14.4145144,12.4217533 C14.4145144,11.6826575 14.7895835,11.1033065 15.2253849,10.2305993 C15.6611864,9.35789215 16.1139194,8.21501748 16.1139194,6.45193546 L16.1139194,5.59800012 C16.1139194,3.80952089 15.4267223,2.61474756 14.5006441,1.91429974 C13.5749341,1.21421999 12.4419974,1 11.5332188,1 L11.5332188,1 Z" id="Path" stroke="#2E93FD" sketch:type="MSShapeGroup"></path>
    </g>
</svg>