<?xml version="1.0" encoding="UTF-8" standalone="no"?>
<svg width="84px" height="84px" viewBox="0 0 84 84" version="1.1" xmlns="http://www.w3.org/2000/svg" xmlns:xlink="http://www.w3.org/1999/xlink" xmlns:sketch="http://www.bohemiancoding.com/sketch/ns">
    <!-- Generator: Sketch 3.4.3 (16044) - http://www.bohemiancoding.com/sketch -->
    <title>Page 1 + Fill 1</title>
    <desc>Created with Sketch.</desc>
    <defs></defs>
    <g id="Page-1" stroke="none" stroke-width="1" fill="none" fill-rule="evenodd" sketch:type="MSPage">
        <g id="Page-1-+-Fill-1" sketch:type="MSLayerGroup" fill="#979797">
            <path d="M55.8062526,20.95 L55.8062526,15.223 C55.8062526,15.036 55.7752526,13.332 54.5212526,12.075 C53.7082526,11.258 52.6072526,10.844 51.2512526,10.844 C50.1622526,10.844 49.3062526,11.051 48.6262526,11.371 L48.6262526,10.426 C48.6542526,10.043 48.6892526,8.555 47.6262526,7.368 C46.8142526,6.461 45.6192526,6 44.0722526,6 C40.1892526,6 39.1622526,8.567 39.1622526,9.926 L39.1622526,12.168 C38.4272526,11.707 37.5212526,11.469 36.4552526,11.469 C35.0132526,11.469 33.8612526,11.911 33.0332526,12.786 C31.7482526,14.137 31.8022526,15.969 31.8102526,16.114 L31.8102526,41.106 L56.1072526,41.106 L56.1072526,38.813 L34.1032526,38.813 L34.1032526,16.055 C34.1032526,16.043 34.0802526,15.012 34.6972526,14.364 C35.0762526,13.965 35.6652526,13.762 36.4552526,13.762 C37.2672526,13.762 37.8732526,13.961 38.2512526,14.352 C38.8262526,14.946 38.7982526,15.868 38.7942526,15.93 L38.7942526,37.664 L41.4512526,37.664 L41.4512526,9.942 C41.4662526,9.555 41.7012526,8.289 44.0682526,8.289 C44.9272526,8.289 45.5442526,8.489 45.9042526,8.879 C46.4002526,9.418 46.3372526,10.243 46.3372526,10.243 L46.3302526,37.512 L48.6302526,37.614 L48.6302526,14.77 C48.6302526,14.703 48.6582526,13.137 51.2482526,13.137 C53.3142526,13.137 53.5012526,14.735 53.5092526,15.219 L53.5092526,37.762 L55.8022526,37.762 L55.8802526,24.61 C55.9352526,24.196 56.2712526,22.641 58.2322526,22.641 C60.2082526,22.641 60.3882526,24.555 60.4042526,24.903 L60.4042526,54.485 C60.4042526,68.633 44.4702526,68.918 43.7942526,68.926 C43.6032526,68.938 34.0292526,69.723 28.2162526,64.743 C25.5412526,62.45 24.0442526,59.243 23.7792526,55.215 C22.7162526,39.164 23.7512526,33.051 23.7632526,32.993 L23.7832526,32.766 C23.7832526,32.754 23.7752526,31.586 24.4552526,30.899 C24.8182526,30.532 25.3332526,30.352 26.0332526,30.352 C28.2672526,30.352 28.4582526,32.707 28.4702526,33.149 L28.4902526,47.922 L29.5482526,48.004 C29.8922526,48.032 37.9702526,48.743 37.9702526,57.532 L40.2632526,57.532 C40.2632526,48.735 33.4512526,46.446 30.7792526,45.887 L30.7592526,33.121 C30.7202526,31.371 29.6812526,28.059 26.0292526,28.059 C24.7082526,28.059 23.5912526,28.493 22.7982526,29.309 C21.6112526,30.532 21.4942526,32.2 21.4862526,32.696 C21.3412526,33.606 20.4662526,39.934 21.4902526,55.368 C21.7982526,60.039 23.5642526,63.782 26.7322526,66.493 C31.6852526,70.727 38.7082526,71.278 42.0332526,71.278 C43.0132526,71.278 43.6732526,71.231 43.8612526,71.215 C44.9902526,71.188 62.6972526,70.477 62.6972526,54.481 L62.6972526,24.868 C62.6502526,23.051 61.4232526,20.348 58.2362526,20.348 C57.2402526,20.348 56.4432526,20.582 55.8062526,20.95 Z" id="Page-1" sketch:type="MSShapeGroup"></path>
            <path d="M42.0024893,84 C18.840505,84 0,65.1583783 0,42 C0,18.8416217 18.840505,0 42.0024893,0 C65.1644737,0 84,18.8416217 84,42 C84,65.1583783 65.159495,84 42.0024893,84 L42.0024893,84 Z M13.399754,66.5277181 C7.73506424,59.9301464 4.30778805,51.3577474 4.30778805,42 C4.30778805,21.2190742 21.2178165,4.30804339 42.0024893,4.30804339 C51.3590381,4.30804339 59.930393,7.73505094 66.5269373,13.3993786 L13.399754,66.5277181 Z M16.4160651,69.6592282 C23.1412871,75.8862139 32.1334048,79.6969356 41.9975107,79.6969356 C62.7821835,79.6969356 79.6922119,62.7859048 79.6922119,42 C79.6945754,32.1350355 75.8851094,23.1421592 69.6588377,16.4164777 L16.4160651,69.6592282 Z" id="Fill-1" sketch:type="MSShapeGroup"></path>
        </g>
    </g>
</svg>