<?xml version="1.0" encoding="UTF-8" standalone="no"?>
<svg width="117px" height="117px" viewBox="0 0 117 117" version="1.1" xmlns="http://www.w3.org/2000/svg" xmlns:xlink="http://www.w3.org/1999/xlink" xmlns:sketch="http://www.bohemiancoding.com/sketch/ns">
    <!-- Generator: Sketch 3.4.3 (16044) - http://www.bohemiancoding.com/sketch -->
    <title>Oval 495 + Fill 1</title>
    <desc>Created with Sketch.</desc>
    <defs></defs>
    <g id="Page-1" stroke="none" stroke-width="1" fill="none" fill-rule="evenodd" sketch:type="MSPage">
        <g id="Oval-495-+-Fill-1" sketch:type="MSLayerGroup">
            <circle id="Oval-495" fill="#DC4242" sketch:type="MSShapeGroup" cx="58.5" cy="58.5" r="58.5"></circle>
            <path d="M63.84,86.91 C63.84,94.031 53.16,94.031 53.16,86.91 C53.16,79.785 63.84,79.785 63.84,86.91 Z M64.184,27.438 C62.543,25.898 60.66,24.75 58.5,24.75 C56.34,24.75 54.457,25.898 52.816,27.438 C50.777,29.348 50.621,31.445 50.805,33.766 L54.34,73.844 C54.543,76.414 56.109,78.34 58.504,78.34 C60.898,78.34 62.465,76.414 62.668,73.844 L66.203,33.766 C66.379,31.445 66.223,29.348 64.184,27.438 Z" id="Fill-1" fill="#FFFFFF" sketch:type="MSShapeGroup"></path>
        </g>
    </g>
</svg>