<?xml version="1.0" encoding="UTF-8" standalone="no"?>
<svg width="94px" height="94px" viewBox="0 0 94 94" version="1.1" xmlns="http://www.w3.org/2000/svg" xmlns:xlink="http://www.w3.org/1999/xlink" xmlns:sketch="http://www.bohemiancoding.com/sketch/ns">
    <!-- Generator: Sketch 3.4.4 (17249) - http://www.bohemiancoding.com/sketch -->
    <title>Rectangle 1 Copy + icon-memories</title>
    <desc>Created with Sketch.</desc>
    <defs></defs>
    <g id="Page-1" stroke="none" stroke-width="1" fill="none" fill-rule="evenodd" sketch:type="MSPage">
        <g id="Rectangle-1-Copy-+-icon-memories" sketch:type="MSLayerGroup" transform="translate(2.000000, 2.000000)">
            <rect id="Rectangle-1-Copy" stroke="#E4E4E4" stroke-width="2" fill="#FFFFFF" sketch:type="MSShapeGroup" x="0" y="0" width="90" height="90" rx="8"></rect>
            <g id="icon-memories" transform="translate(20.000000, 25.000000)" fill="#3CAAEE" sketch:type="MSShapeGroup">
                <g id="Fill-1">
                    <g id="Page-1">
                        <g id="iPhone-6">
                            <path d="M11.6816223,10.4139543 C8.31292019,9.58784381 7.83093676,9.10586095 7.00897333,5.74130476 C6.81825295,4.96805905 5.52259848,4.96805905 5.33291448,5.74130476 C4.50680514,9.10171429 4.02896762,9.58369905 0.660265524,10.4139543 C0.271569143,10.5062038 7.10542736e-15,10.8544762 7.10542736e-15,11.2514648 C7.10542736e-15,11.6484533 0.271569143,11.9967257 0.660265524,12.0900133 C4.02482152,12.9119752 4.50680514,13.3898133 5.32876838,16.7543695 C5.42205562,17.1430667 5.77032762,17.4135981 6.16731619,17.4135981 C6.56326819,17.4135981 6.91154019,17.1430667 7.00482724,16.7543695 C7.83093676,13.3929238 8.3087741,12.9119752 11.6733301,12.0900133 C12.0620265,11.9967257 12.3335958,11.6484533 12.3335958,11.2514648 C12.3377419,10.8544762 12.0661726,10.5062038 11.6816223,10.4139543 L11.6816223,10.4139543 L11.6816223,10.4139543 Z M6.17042571,13.745341 C5.61588552,12.5388267 4.87891714,11.801859 3.66825752,11.2473181 C4.87891714,10.6886324 5.61173943,9.95580952 6.17042571,8.74929714 C6.72600248,9.95580952 7.46297086,10.692779 8.6725939,11.2473181 C7.46297086,11.801859 6.72600248,12.5388267 6.17042571,13.745341 L6.17042571,13.745341 Z M48.0169613,7.0732381 C43.4448552,5.95586476 42.7244712,5.23444571 41.6029526,0.659228571 C41.5096655,0.270533333 41.1613935,0 40.764405,0 C40.3684528,0 40.020181,0.270533333 39.9268937,0.659228571 C38.8095211,5.23133524 38.0922467,5.94757333 33.517031,7.06909143 C33.1283347,7.16237905 32.8578019,7.51065143 32.8578019,7.90764 C32.8578019,8.30359238 33.1283347,8.65186286 33.517031,8.74515048 C38.0881006,9.86666857 38.805375,10.5839429 39.9268937,15.15916 C40.020181,15.5478552 40.3684528,15.8183886 40.764405,15.8183886 C41.1613935,15.8183886 41.5096655,15.5478552 41.6029526,15.15916 C42.7244712,10.5870533 43.4448552,9.86666857 48.0169613,8.74515048 C48.4056577,8.65186286 48.6761905,8.30359238 48.6761905,7.90764 C48.6761905,7.51065143 48.4015116,7.17067048 48.0169613,7.0732381 L48.0169613,7.0732381 Z M40.764405,11.9521543 C39.9424415,9.83039048 38.8540916,8.73685905 36.7281815,7.91074857 C38.8499455,7.08567619 39.9424415,6.00043619 40.764405,3.87452571 C41.5905143,6.00043619 42.6799008,7.08878667 44.8058109,7.91074857 C42.6799008,8.73685905 41.5905143,9.83039048 40.764405,11.9521543 L40.764405,11.9521543 Z M36.157057,27.67 C29.8653579,26.1276533 28.7801177,25.0424133 27.2377703,18.7538229 C27.1444832,18.3651276 26.7962112,18.0945943 26.3992227,18.0945943 C26.0022341,18.0945943 25.6539621,18.3651276 25.560675,18.7538229 C24.0224737,25.0424133 22.9413794,26.1276533 16.6455345,27.67 C16.2568381,27.7632876 15.9852688,28.11156 15.9852688,28.5085486 C15.9852688,28.904501 16.2568381,29.2527733 16.6455345,29.346059 C22.9413794,30.8884076 24.0224737,31.969501 25.560675,38.2622362 C25.6539621,38.6509333 26.0022341,38.9214667 26.3992227,38.9214667 C26.7962112,38.9214667 27.1444832,38.6509333 27.2377703,38.2622362 C28.7842638,31.969501 29.8653579,30.8852971 36.157057,29.346059 C36.5457533,29.2527733 36.8173227,28.904501 36.8173227,28.5085486 C36.8173227,28.11156 36.5457533,27.7674343 36.157057,27.67 L36.157057,27.67 Z M26.3992227,34.8728038 C25.192709,31.265701 23.6462156,29.7223181 20.0380766,28.5116571 C23.6503617,27.3009981 25.1885629,25.7545048 26.3992227,22.1474019 C27.6140284,25.7545048 29.1563758,27.2978895 32.7645149,28.5116571 C29.1563758,29.7181714 27.6140284,31.265701 26.3992227,34.8728038 L26.3992227,34.8728038 L26.3992227,34.8728038 Z" id="Fill-1"></path>
                        </g>
                    </g>
                </g>
            </g>
        </g>
    </g>
</svg>