<?xml version="1.0" encoding="UTF-8" standalone="no"?>
<svg width="60px" height="60px" viewBox="0 0 60 60" version="1.1" xmlns="http://www.w3.org/2000/svg" xmlns:xlink="http://www.w3.org/1999/xlink" xmlns:sketch="http://www.bohemiancoding.com/sketch/ns">
    <!-- Generator: Sketch 3.4 (15588) - http://www.bohemiancoding.com/sketch -->
    <title>Page 1</title>
    <desc>Created with Sketch.</desc>
    <defs></defs>
    <g id="Page-1" stroke="none" stroke-width="1" fill="none" fill-rule="evenodd" sketch:type="MSPage">
        <path d="M21.203,24.922 C22.613,24.922 23.758,23.777 23.758,22.367 C23.758,20.957 22.613,19.812 21.203,19.812 C19.793,19.812 18.648,20.957 18.648,22.367 C18.648,23.777 19.793,24.922 21.203,24.922 L21.203,24.922 Z M38.636,24.922 C40.047,24.922 41.191,23.777 41.191,22.367 C41.191,20.957 40.047,19.812 38.636,19.812 C37.226,19.812 36.082,20.957 36.082,22.367 C36.082,23.777 37.226,24.922 38.636,24.922 L38.636,24.922 Z M29.722,0 C13.332,0 0,13.336 0,29.722 C0,46.113 13.336,59.445 29.722,59.445 C46.113,59.445 59.445,46.109 59.445,29.722 C59.445,13.336 46.113,0 29.722,0 L29.722,0 Z M29.722,57.445 C14.437,57.445 2,45.007 2,29.722 C2,14.437 14.437,2 29.722,2 C45.008,2 57.441,14.437 57.441,29.722 C57.441,45.007 45.008,57.445 29.722,57.445 L29.722,57.445 Z M45.66,33.738 C45.105,33.738 44.66,34.187 44.66,34.738 C44.66,40.593 37.672,47.746 29.515,47.746 C21.359,47.746 14.371,40.593 14.371,34.738 C14.371,34.183 13.922,33.738 13.371,33.738 C12.816,33.738 12.371,34.187 12.371,34.738 C12.371,41.535 20.019,49.746 29.515,49.746 C39.015,49.746 46.664,41.535 46.664,34.738 C46.66,34.183 46.211,33.738 45.66,33.738 L45.66,33.738 Z" fill="#979797" sketch:type="MSShapeGroup"></path>
    </g>
</svg>