<?xml version="1.0" encoding="UTF-8" standalone="no"?>
<svg width="75px" height="75px" viewBox="0 0 75 75" version="1.1" xmlns="http://www.w3.org/2000/svg" xmlns:xlink="http://www.w3.org/1999/xlink" xmlns:sketch="http://www.bohemiancoding.com/sketch/ns">
    <!-- Generator: Sketch 3.3.3 (12081) - http://www.bohemiancoding.com/sketch -->
    <title>Fill 1</title>
    <desc>Created with Sketch.</desc>
    <defs></defs>
    <g id="Page-1" stroke="none" stroke-width="1" fill="none" fill-rule="evenodd" sketch:type="MSPage">
        <path d="M68.75,7.031 L58.594,7.031 L58.594,2.344 C58.594,1.047 57.547,0 56.25,0 C54.953,0 53.906,1.047 53.906,2.344 L53.906,7.031 L39.844,7.031 L39.844,2.344 C39.844,1.047 38.793,0 37.5,0 C36.207,0 35.156,1.047 35.156,2.344 L35.156,7.031 L21.094,7.031 L21.094,2.344 C21.094,1.047 20.043,0 18.75,0 C17.457,0 16.406,1.047 16.406,2.344 L16.406,7.031 L6.25,7.031 C2.797,7.031 0,9.828 0,13.281 L0,68.75 C0,72.203 2.797,75 6.25,75 L68.75,75 C72.203,75 75,72.203 75,68.75 L75,13.281 C75,9.828 72.203,7.031 68.75,7.031 L68.75,7.031 Z M70.312,68.75 C70.312,69.613 69.613,70.312 68.75,70.312 L6.25,70.312 C5.387,70.312 4.688,69.613 4.688,68.75 L4.688,13.281 C4.688,12.418 5.387,11.719 6.25,11.719 L16.406,11.719 L16.406,16.406 C16.406,17.703 17.457,18.75 18.75,18.75 C20.043,18.75 21.094,17.703 21.094,16.406 L21.094,11.719 L35.156,11.719 L35.156,16.406 C35.156,17.703 36.207,18.75 37.5,18.75 C38.793,18.75 39.844,17.703 39.844,16.406 L39.844,11.719 L53.906,11.719 L53.906,16.406 C53.906,17.703 54.953,18.75 56.25,18.75 C57.547,18.75 58.594,17.703 58.594,16.406 L58.594,11.719 L68.75,11.719 C69.613,11.719 70.312,12.418 70.312,13.281 L70.312,68.75 Z M16.406,28.125 L25.781,28.125 L25.781,35.156 L16.406,35.156 L16.406,28.125 Z M16.406,39.844 L25.781,39.844 L25.781,46.875 L16.406,46.875 L16.406,39.844 Z M16.406,51.562 L25.781,51.562 L25.781,58.593 L16.406,58.593 L16.406,51.562 Z M32.812,51.562 L42.187,51.562 L42.187,58.593 L32.812,58.593 L32.812,51.562 Z M32.812,39.844 L42.187,39.844 L42.187,46.875 L32.812,46.875 L32.812,39.844 Z M32.812,28.125 L42.187,28.125 L42.187,35.156 L32.812,35.156 L32.812,28.125 Z M49.219,51.562 L58.594,51.562 L58.594,58.593 L49.219,58.593 L49.219,51.562 Z M49.219,39.844 L58.594,39.844 L58.594,46.875 L49.219,46.875 L49.219,39.844 Z M49.219,28.125 L58.594,28.125 L58.594,35.156 L49.219,35.156 L49.219,28.125 Z" id="Fill-1" fill="#FFFFFF" sketch:type="MSShapeGroup"></path>
    </g>
</svg>