<?xml version="1.0" encoding="UTF-8" standalone="no"?>
<svg width="75px" height="75px" viewBox="0 0 75 75" version="1.1" xmlns="http://www.w3.org/2000/svg" xmlns:xlink="http://www.w3.org/1999/xlink">
    <!-- Generator: Sketch 3.6.1 (26313) - http://www.bohemiancoding.com/sketch -->
    <title>Combined Shape</title>
    <desc>Created with Sketch.</desc>
    <defs></defs>
    <g id="Page-1" stroke="none" stroke-width="1" fill="none" fill-rule="evenodd">
        <g id="Combined-Shape" fill="#979797">
            <path d="M64.219,17.5423232 L64.219,0 L0,0 L0,75 L64.219,75 L64.219,38.6460071 L74.844,16.406 C75,15.938 75.156,15.156 74.844,14.531 C74.375,13.438 73.281,12.344 71.875,11.875 C69.531,10.781 67.188,11.094 66.562,12.656 L64.219,17.5423232 Z M61.1676066,23.906 L61.094,23.906 L61.094,3.125 L3.125,3.125 L3.125,71.875 L61.094,71.875 L61.094,45.1871856 L56.406,55 L45.156,67.5 L48.281,50.781 L61.1676066,23.906 Z M14.219,16.094 L47.657,16.094 L47.657,12.969 L14.219,12.969 L14.219,16.094 Z M14.219,27.813 L47.657,27.813 L47.657,24.688 L14.219,24.688 L14.219,27.813 Z M14.219,39.531 L47.657,39.531 L47.657,36.406 L14.219,36.406 L14.219,39.531 Z"></path>
        </g>
    </g>
</svg>