<?xml version="1.0" encoding="UTF-8" standalone="no"?>
<svg width="26px" height="21px" viewBox="0 0 26 21" version="1.1" xmlns="http://www.w3.org/2000/svg" xmlns:xlink="http://www.w3.org/1999/xlink" xmlns:sketch="http://www.bohemiancoding.com/sketch/ns">
    <!-- Generator: Sketch 3.3.3 (12081) - http://www.bohemiancoding.com/sketch -->
    <title>Fill 1</title>
    <desc>Created with Sketch.</desc>
    <defs></defs>
    <g id="Page-1" stroke="none" stroke-width="1" fill="none" fill-rule="evenodd" sketch:type="MSPage">
        <g id="iPhone-6" sketch:type="MSArtboardGroup" transform="translate(-22.000000, -431.000000)" fill="#979797">
            <path d="M28.1328517,436.467326 C26.3642831,436.033618 26.1112418,435.780577 25.679711,434.014185 C25.5795828,433.608231 24.8993642,433.608231 24.7997801,434.014185 C24.3660727,435.7784 24.115208,436.031442 22.3466394,436.467326 C22.1425738,436.515757 22,436.6986 22,436.907019 C22,437.115438 22.1425738,437.298281 22.3466394,437.347257 C24.1130313,437.778787 24.3660727,438.029652 24.7976034,439.796044 C24.8465792,440.00011 25.029422,440.142139 25.237841,440.142139 C25.4457158,440.142139 25.6285586,440.00011 25.6775343,439.796044 C26.1112418,438.031285 26.3621064,437.778787 28.1284983,437.347257 C28.3325639,437.298281 28.4751378,437.115438 28.4751378,436.907019 C28.4773145,436.6986 28.3347406,436.515757 28.1328517,436.467326 L28.1328517,436.467326 Z M25.2394735,438.216304 C24.9483399,437.582884 24.5614315,437.195976 23.9258352,436.904842 C24.5614315,436.611532 24.9461632,436.2268 25.2394735,435.593381 C25.5311513,436.2268 25.9180597,436.613709 26.5531118,436.904842 C25.9180597,437.195976 25.5311513,437.582884 25.2394735,438.216304 Z M47.2089047,434.71345 C44.808549,434.126829 44.4303474,433.748084 43.8415501,431.346095 C43.7925744,431.14203 43.6097316,431 43.4013126,431 C43.1934377,431 43.010595,431.14203 42.9616192,431.346095 C42.3749986,433.746451 41.9984295,434.122476 39.5964413,434.711273 C39.3923757,434.760249 39.250346,434.943092 39.250346,435.151511 C39.250346,435.359386 39.3923757,435.542228 39.5964413,435.591204 C41.9962528,436.180001 42.3728219,436.55657 42.9616192,438.958559 C43.010595,439.162624 43.1934377,439.304654 43.4013126,439.304654 C43.6097316,439.304654 43.7925744,439.162624 43.8415501,438.958559 C44.4303474,436.558203 44.808549,436.180001 47.2089047,435.591204 C47.4129703,435.542228 47.555,435.359386 47.555,435.151511 C47.555,434.943092 47.4107936,434.764602 47.2089047,434.71345 Z M43.4013126,437.274881 C42.9697818,436.160955 42.3983981,435.586851 41.2822953,435.153143 C42.3962214,434.71998 42.9697818,434.150229 43.4013126,433.034126 C43.83502,434.150229 44.4069479,434.721613 45.5230507,435.153143 C44.4069479,435.586851 43.83502,436.160955 43.4013126,437.274881 Z M40.9824549,445.52675 C37.6793129,444.717018 37.1095618,444.147267 36.2998294,440.845757 C36.2508537,440.641692 36.0680109,440.499662 35.8595919,440.499662 C35.6511729,440.499662 35.4683301,440.641692 35.4193544,440.845757 C34.6117987,444.147267 34.0442242,444.717018 30.7389056,445.52675 C30.53484,445.575726 30.3922661,445.758569 30.3922661,445.966988 C30.3922661,446.174863 30.53484,446.357706 30.7389056,446.406681 C34.0442242,447.216414 34.6117987,447.783988 35.4193544,451.087674 C35.4683301,451.29174 35.6511729,451.43377 35.8595919,451.43377 C36.0680109,451.43377 36.2508537,451.29174 36.2998294,451.087674 C37.1117385,447.783988 37.6793129,447.214781 40.9824549,446.406681 C41.1865205,446.357706 41.3290944,446.174863 41.3290944,445.966988 C41.3290944,445.758569 41.1865205,445.577903 40.9824549,445.52675 Z M35.8595919,449.308222 C35.2261722,447.414493 34.4142632,446.604217 32.5199902,445.96862 C34.4164399,445.333024 35.2239955,444.521115 35.8595919,442.627386 C36.4973649,444.521115 37.3070973,445.331392 39.2013703,445.96862 C37.3070973,446.60204 36.4973649,447.414493 35.8595919,449.308222 L35.8595919,449.308222 Z" id="Fill-1" sketch:type="MSShapeGroup"></path>
        </g>
    </g>
</svg>