<?xml version="1.0" encoding="UTF-8" standalone="no"?>
<svg width="72px" height="54px" viewBox="0 0 72 54" version="1.1" xmlns="http://www.w3.org/2000/svg" xmlns:xlink="http://www.w3.org/1999/xlink" xmlns:sketch="http://www.bohemiancoding.com/sketch/ns">
    <!-- Generator: Sketch 3.3.3 (12081) - http://www.bohemiancoding.com/sketch -->
    <title>Imported Layers</title>
    <desc>Created with Sketch.</desc>
    <defs></defs>
    <g id="Page-1" stroke="none" stroke-width="1" fill="none" fill-rule="evenodd" sketch:type="MSPage">
        <path d="M65.626,53.124 L6.25,53.124 C2.797,53.124 0,50.328 0,46.874 L0,6.25 C0,2.796 2.797,0 6.25,0 L65.626,0 C69.079,0 71.876,2.796 71.876,6.25 L71.876,46.874 C71.876,50.328 69.079,53.124 65.626,53.124 L65.626,53.124 Z M68.75,6.25 C68.75,4.523 67.352,3.124 65.626,3.124 L6.25,3.124 C4.524,3.124 3.126,4.523 3.126,6.25 L3.126,46.874 C3.126,48.601 4.524,50 6.25,50 L65.626,50 C67.352,50 68.75,48.601 68.75,46.874 L68.75,6.25 Z M63.024,43.304 L53.126,33.406 L47.469,39.062 L52.68,44.273 C53.274,44.867 53.274,45.835 52.68,46.429 C52.083,47.023 51.118,47.023 50.524,46.429 L28.126,24.031 L8.852,43.304 C8.258,43.898 7.29,43.898 6.696,43.304 C6.102,42.707 6.102,41.742 6.696,41.148 L26.86,20.984 C26.911,20.91 26.942,20.828 27.008,20.757 C27.317,20.449 27.723,20.308 28.126,20.32 C28.528,20.312 28.934,20.453 29.243,20.757 C29.309,20.824 29.34,20.906 29.391,20.984 L45.313,36.906 L51.86,30.359 C51.911,30.285 51.942,30.203 52.008,30.132 C52.317,29.828 52.723,29.683 53.126,29.695 C53.528,29.687 53.934,29.828 54.243,30.132 C54.309,30.199 54.34,30.285 54.391,30.359 L65.18,41.148 C65.774,41.742 65.774,42.71 65.18,43.304 C64.583,43.898 63.618,43.898 63.024,43.304 L63.024,43.304 Z M43.75,18.75 C40.297,18.75 37.5,15.953 37.5,12.5 C37.5,9.046 40.297,6.25 43.75,6.25 C47.204,6.25 50,9.046 50,12.5 C50,15.953 47.204,18.75 43.75,18.75 L43.75,18.75 Z M43.75,9.374 C42.024,9.374 40.626,10.773 40.626,12.5 C40.626,14.226 42.024,15.624 43.75,15.624 C45.477,15.624 46.876,14.226 46.876,12.5 C46.876,10.773 45.477,9.374 43.75,9.374 L43.75,9.374 Z" id="Imported-Layers" fill="#000000" sketch:type="MSShapeGroup"></path>
    </g>
</svg>