<?xml version="1.0" encoding="UTF-8" standalone="no"?>
<svg width="16px" height="24px" viewBox="0 0 16 24" version="1.1" xmlns="http://www.w3.org/2000/svg" xmlns:xlink="http://www.w3.org/1999/xlink" xmlns:sketch="http://www.bohemiancoding.com/sketch/ns">
    <!-- Generator: Sketch 3.4.4 (17249) - http://www.bohemiancoding.com/sketch -->
    <title>Page 1 Copy 5</title>
    <desc>Created with Sketch.</desc>
    <defs></defs>
    <g id="Page-1" stroke="none" stroke-width="1" fill="none" fill-rule="evenodd" sketch:type="MSPage">
        <g id="Oval-518-+-Page-1" sketch:type="MSLayerGroup" transform="translate(-238.000000, 0.000000)" fill="#979797">
            <g id="Page-1-Copy-5" transform="translate(238.000000, 0.000000)" sketch:type="MSShapeGroup">
                <path d="M7.89395995,0.213333333 C3.53471014,0.213333333 0,3.77545875 0,8.16828647 C0,10.9167387 1.39910497,13.4231526 3.66078292,14.8743725 L3.43417257,14.4582421 L3.43417257,20.146418 C3.43417257,21.1702607 4.26425128,22.0062204 5.2809685,22.0062204 L5.77286258,22.0062204 L5.77286258,21.5128936 L5.28532877,21.4682299 C5.28549967,21.4663355 5.28512171,21.4690369 5.2833514,21.4803122 C5.28234163,21.4867386 5.28234163,21.4867386 5.28110381,21.4947841 C5.27401213,21.541383 5.27015937,21.5790652 5.27015937,21.6262404 C5.27138329,22.9017955 6.46398463,23.8933333 7.89395995,23.8933333 C9.32433053,23.8933333 10.5177605,22.9014083 10.5177605,21.6262404 C10.5177605,21.5790652 10.5139078,21.541383 10.5068161,21.4947841 C10.5055783,21.4867386 10.5055783,21.4867386 10.5045685,21.4803122 C10.5027982,21.4690369 10.5024202,21.4663355 10.5025911,21.4682299 L10.0150573,21.5128936 L10.0150573,22.0062204 L10.5069514,22.0062204 C11.5235708,22.0062204 12.3524941,21.1703597 12.3524941,20.146418 L12.3524941,14.4582421 L12.1259486,14.874331 C14.3885341,13.4220256 15.7866667,10.9170678 15.7866667,8.16828647 C15.7866667,3.77524364 12.2529964,0.213333333 7.89395995,0.213333333 L7.89395995,0.213333333 Z M7.89395995,1.19998684 C11.7122031,1.19998684 14.8075781,4.32009923 14.8075781,8.16828647 C14.8075781,10.5758832 13.5835362,12.7689322 11.5999511,14.0421532 L11.3734056,14.1875679 L11.3734056,14.4582421 L11.3734056,20.146418 C11.3734056,20.6255867 10.9826954,21.0195669 10.5069514,21.0195669 L10.0150573,21.0195669 L9.47899029,21.0195669 L9.52752352,21.5575573 C9.5299505,21.5844604 9.53238851,21.6018857 9.53750992,21.6345043 C9.53841017,21.6402398 9.53841017,21.6402398 9.5390423,21.6443499 C9.53921468,21.6454826 9.53867201,21.640175 9.53867201,21.6262404 C9.53867201,22.3099869 8.82076361,22.9066798 7.89395995,22.9066798 C6.96741022,22.9066798 6.24990446,22.3101401 6.24924766,21.6257633 C6.24924789,21.640175 6.24870522,21.6454826 6.2488776,21.6443499 C6.24950973,21.6402398 6.24950973,21.6402398 6.25040998,21.6345043 C6.25553139,21.6018857 6.2579694,21.5844604 6.26039638,21.5575573 L6.30892961,21.0195669 L5.77286258,21.0195669 L5.2809685,21.0195669 C4.80484737,21.0195669 4.41326109,20.6252063 4.41326109,20.146418 L4.41326109,14.4582421 L4.41326109,14.1875176 L4.18665074,14.0421116 C2.20405594,12.7699671 0.979088522,10.5755103 0.979088522,8.16828647 C0.979088522,4.32036598 4.07545221,1.19998684 7.89395995,1.19998684 L7.89395995,1.19998684 Z" id="Shape"></path>
                <path d="M4.3362659,16 L12.0904008,16 C12.3644809,16 12.5866667,15.8089748 12.5866667,15.5733333 C12.5866667,15.3376918 12.3644809,15.1466667 12.0904008,15.1466667 L4.3362659,15.1466667 C4.06218581,15.1466667 3.84,15.3376918 3.84,15.5733333 C3.84,15.8089748 4.06218581,16 4.3362659,16 L4.3362659,16 Z" id="Shape"></path>
                <path d="M4.3362659,17.92 L12.0904008,17.92 C12.3644809,17.92 12.5866667,17.7289748 12.5866667,17.4933333 C12.5866667,17.2576918 12.3644809,17.0666667 12.0904008,17.0666667 L4.3362659,17.0666667 C4.06218581,17.0666667 3.84,17.2576918 3.84,17.4933333 C3.84,17.7289748 4.06218581,17.92 4.3362659,17.92 L4.3362659,17.92 Z" id="Shape"></path>
                <path d="M4.3362659,19.6266667 L12.0904008,19.6266667 C12.3644809,19.6266667 12.5866667,19.4356415 12.5866667,19.2 C12.5866667,18.9643585 12.3644809,18.7733333 12.0904008,18.7733333 L4.3362659,18.7733333 C4.06218581,18.7733333 3.84,18.9643585 3.84,19.2 C3.84,19.4356415 4.06218581,19.6266667 4.3362659,19.6266667 L4.3362659,19.6266667 Z" id="Shape"></path>
                <path d="M3.54232596,8.52965687 C3.5464707,8.50054585 3.55721166,8.43768529 3.57586027,8.34601565 C3.607879,8.18862336 3.65042937,8.01206984 3.70476108,7.82132544 C3.86010418,7.27595652 4.07746846,6.73092594 4.36520193,6.2259242 C5.29797414,4.5888134 6.71968304,3.74455666 8.82201908,4.05497674 C9.0918448,4.09481782 9.34232594,3.90456515 9.38148436,3.63003553 C9.42064278,3.3555059 9.23364999,3.1006581 8.96382426,3.06081702 C6.42889518,2.68652248 4.63290056,3.7530422 3.5109923,5.72210615 C3.17962278,6.30369362 2.93269002,6.92286576 2.75642115,7.54169957 C2.65015015,7.91478921 2.59034766,8.20875617 2.5651637,8.38563844 C2.52607554,8.66017843 2.71313354,8.91497669 2.98296945,8.95474628 C3.25280536,8.99451587 3.5032378,8.80419686 3.54232596,8.52965687 L3.54232596,8.52965687 Z" id="Shape"></path>
            </g>
        </g>
    </g>
</svg>