<?xml version="1.0" encoding="UTF-8" standalone="no"?>
<svg width="72px" height="65px" viewBox="0 0 72 65" version="1.1" xmlns="http://www.w3.org/2000/svg" xmlns:xlink="http://www.w3.org/1999/xlink" xmlns:sketch="http://www.bohemiancoding.com/sketch/ns">
    <!-- Generator: Sketch 3.4 (15588) - http://www.bohemiancoding.com/sketch -->
    <title>Fill 1 Copy 3</title>
    <desc>Created with Sketch.</desc>
    <defs></defs>
    <g id="Page-1" stroke="none" stroke-width="1" fill="none" fill-rule="evenodd" sketch:type="MSPage">
        <path d="M65.0579593,34.3888764 C52.5119837,35.7037102 46.8216967,44.70239 46.8216967,51.246 C46.8216967,59.644 51.6846967,64.46 60.1576967,64.46 L68.2586967,64.46 C68.3394327,64.46 68.4194639,64.4569305 68.4986783,64.4509014 C70.1100061,64.3286217 71.3835092,62.9850719 71.3796967,61.339 L71.3796967,37.347 C71.3796967,32.363 71.3796967,23.105 61.4776967,23.105 C57.3686967,23.105 54.4856967,25.222 52.6726967,26.816 C51.3796967,27.953 51.2506967,29.929 52.3876967,31.226 C53.5326967,32.523 55.5046967,32.652 56.8016967,31.511 C58.5436967,29.984 59.8956967,29.363 61.4816967,29.363 C63.6381214,29.363 64.768448,29.6003485 65.0579593,34.3888764 Z M65.1336967,40.691 C56.9266967,41.824 53.0796967,47.378 53.0796967,51.25 C53.0796967,56.132 55.1966967,58.214 60.1656967,58.214 L65.1336967,58.214 L65.1336967,40.691 Z M33.0365078,45.71 L38.1846967,61.152 C38.6186967,62.457 39.8406967,63.289 41.1496967,63.289 L41.1456967,63.292 C41.4736967,63.292 41.8096967,63.238 42.1296967,63.132 C43.7706967,62.585 44.6536967,60.808 44.1066967,59.175 L25.0986967,2.144 C24.6726967,0.859 23.4816967,0 22.1336967,0 C20.7866967,0 19.5946967,0.867 19.1686967,2.14 L0.161696675,59.171 C-0.385303325,60.816 0.500696675,62.585 2.13769667,63.128 C3.77869667,63.691 5.54769667,62.785 6.09069667,61.156 L11.2691146,45.6220369 C11.5062162,45.6795325 11.7538932,45.71 12.0086967,45.71 L33.0365078,45.71 Z M30.9528282,39.46 L22.1376967,13.019 L13.3232976,39.46 L30.9528282,39.46 Z" id="Fill-1-Copy-3" fill="#2D93FF" sketch:type="MSShapeGroup"></path>
    </g>
</svg>