<?xml version="1.0" encoding="UTF-8" standalone="no"?>
<svg width="15px" height="13px" viewBox="0 0 15 13" version="1.1" xmlns="http://www.w3.org/2000/svg" xmlns:xlink="http://www.w3.org/1999/xlink" xmlns:sketch="http://www.bohemiancoding.com/sketch/ns">
    <!-- Generator: Sketch 3.4.4 (17249) - http://www.bohemiancoding.com/sketch -->
    <title>Page 1</title>
    <desc>Created with Sketch.</desc>
    <defs></defs>
    <g id="Page-1" stroke="none" stroke-width="1" fill="none" fill-rule="evenodd" sketch:type="MSPage">
        <g id="Oval-518-+-Page-1" sketch:type="MSLayerGroup" transform="translate(-270.000000, -6.000000)" fill="#979797">
            <path d="M283.648048,18.6784 C283.182981,15.89504 281.133914,14.5992533 277.200474,14.5992533 C273.267888,14.5992533 271.218821,15.8958933 270.752901,18.6775467 C270.718768,18.8834133 270.522928,19.02336 270.316208,18.9883733 C270.109701,18.95424 269.970394,18.7584 270.005381,18.55168 C270.536368,15.3824 272.890501,13.8408533 277.200474,13.8408533 C281.512154,13.8408533 283.865434,15.3824 284.395568,18.5525333 C284.429701,18.7592533 284.290394,18.95424 284.084741,18.9892267 C284.062981,18.99328 284.042074,18.9949867 284.021381,18.9949867 C283.839621,18.9949867 283.678768,18.8642133 283.648048,18.6784 Z M277.200474,13.3640533 C275.169541,13.3640533 273.517061,11.7124267 273.517061,9.68256 C273.517061,7.65248 275.169541,6 277.200474,6 C279.231408,6 280.883888,7.65162667 280.883888,9.68256 C280.883888,11.7124267 279.231408,13.3640533 277.200474,13.3640533 L277.200474,13.3640533 Z M277.200474,6.7584 C275.587248,6.7584 274.275461,8.06997333 274.275461,9.68256 C274.275461,11.2949333 275.587248,12.60672 277.200474,12.60672 C278.813701,12.60672 280.126341,11.2949333 280.126341,9.68256 C280.126341,8.06997333 278.813701,6.7584 277.200474,6.7584 L277.200474,6.7584 Z" id="Page-1" sketch:type="MSShapeGroup"></path>
        </g>
    </g>
</svg>