<?xml version="1.0" encoding="UTF-8" standalone="no"?>
<svg width="61px" height="61px" viewBox="0 0 61 61" version="1.1" xmlns="http://www.w3.org/2000/svg" xmlns:xlink="http://www.w3.org/1999/xlink">
    <!-- Generator: Sketch 3.6.1 (26313) - http://www.bohemiancoding.com/sketch -->
    <title>Group 5</title>
    <desc>Created with Sketch.</desc>
    <defs>
        <filter x="-50%" y="-50%" width="200%" height="200%" filterUnits="objectBoundingBox" id="filter-1">
            <feOffset dx="0" dy="2" in="SourceAlpha" result="shadowOffsetOuter1"></feOffset>
            <feGaussianBlur stdDeviation="2" in="shadowOffsetOuter1" result="shadowBlurOuter1"></feGaussianBlur>
            <feColorMatrix values="0 0 0 0 0   0 0 0 0 0   0 0 0 0 0  0 0 0 0.0819321784 0" in="shadowBlurOuter1" type="matrix" result="shadowMatrixOuter1"></feColorMatrix>
            <feMerge>
                <feMergeNode in="shadowMatrixOuter1"></feMergeNode>
                <feMergeNode in="SourceGraphic"></feMergeNode>
            </feMerge>
        </filter>
    </defs>
    <g id="Page-1" stroke="none" stroke-width="1" fill="none" fill-rule="evenodd">
        <g id="Group-5" transform="translate(4.000000, 2.000000)">
            <circle id="Oval-27" fill="#FFFFFF" filter="url(#filter-1)" cx="26.5" cy="26.5" r="26.5"></circle>
            <path d="M26.5842466,17.1060959 C21.9676027,17.1060959 18.2125342,20.8611644 18.2125342,25.4773288 C18.2125342,29.4313699 22.0745205,33.5009589 22.1833562,33.7310959 C22.2974658,33.9708219 22.5391096,34.124726 22.8066438,34.124726 L30.9127397,34.124726 C31.1917808,34.124726 31.4444521,33.9559589 31.5513699,33.6975342 C31.644863,33.474589 34.9559589,28.9461644 34.9559589,25.4758904 C34.9578767,20.8611644 31.2008904,17.1060959 26.5842466,17.1060959 L26.5842466,17.1060959 Z M30.5680137,35.2969863 L23.0463699,35.2969863 C22.6642466,35.2969863 22.3554795,35.6076712 22.3554795,35.9878767 C22.3554795,36.3680822 22.6642466,36.6773288 23.0463699,36.6773288 L30.5699315,36.6773288 C30.9520548,36.6773288 31.2608219,36.3680822 31.2608219,35.9878767 C31.2589041,35.6076712 30.950137,35.2969863 30.5680137,35.2969863 L30.5680137,35.2969863 Z M29.8785616,37.8515068 L23.7358219,37.8515068 C23.3536986,37.8515068 23.0463699,38.1607534 23.0463699,38.5409589 C23.0463699,38.9226027 23.3556164,39.2318493 23.7358219,39.2318493 L29.8785616,39.2318493 C30.2606849,39.2318493 30.5680137,38.9226027 30.5680137,38.5409589 C30.5680137,38.1607534 30.2606849,37.8515068 29.8785616,37.8515068 L29.8785616,37.8515068 Z M28.2978082,40.6179452 L25.1478082,40.6179452 C24.7656849,40.6179452 24.4569178,40.9267123 24.4569178,41.3088356 C24.4569178,42.5582877 25.4738356,43.5732877 26.7228082,43.5732877 C27.9722603,43.5732877 28.9891781,42.5582877 28.9891781,41.3088356 C28.9891781,40.9267123 28.6799315,40.6179452 28.2978082,40.6179452 L28.2978082,40.6179452 Z M14.6938356,24.925 L10.6894521,24.925 C10.3092466,24.925 10,25.2342466 10,25.6163699 C10,25.9965753 10.3111644,26.3053425 10.6894521,26.3053425 L14.6938356,26.3053425 C15.0754795,26.3053425 15.3828082,25.9965753 15.3828082,25.6163699 C15.384726,25.2342466 15.0754795,24.925 14.6938356,24.925 L14.6938356,24.925 Z M18.624863,16.7182192 L15.7946575,13.8865753 C15.5232877,13.6166438 15.0889041,13.6166438 14.8189726,13.8865753 C14.5495205,14.1560274 14.5495205,14.5923288 14.8189726,14.8622603 L17.6491781,17.6919863 C17.9186301,17.9619178 18.3549315,17.9619178 18.624863,17.6919863 C18.8943151,17.4244521 18.8943151,16.9862329 18.624863,16.7182192 L18.624863,16.7182192 Z M26.5171233,14.384726 C26.8973288,14.384726 27.2060959,14.0754795 27.2060959,13.6933562 L27.2060959,9.68945205 C27.2060959,9.30924658 26.8973288,9 26.5171233,9 C26.135,9 25.8257534,9.30924658 25.8257534,9.68945205 L25.8257534,13.6933562 C25.8257534,14.0735616 26.135,14.3828082 26.5171233,14.384726 L26.5171233,14.384726 Z M38.245,13.8170548 C37.9750685,13.5476027 37.5387671,13.5476027 37.2688356,13.8170548 L34.4391096,16.6486986 C34.1696575,16.9167123 34.1696575,17.3549315 34.4391096,17.624863 C34.7090411,17.8943151 35.1453425,17.8943151 35.4147945,17.624863 L38.245,14.7946575 C38.5144521,14.5232877 38.5144521,14.0869863 38.245,13.8170548 L38.245,13.8170548 Z M42.4416438,24.8257534 L38.4377397,24.8257534 C38.0556164,24.8257534 37.7482877,25.135 37.7482877,25.5152055 C37.7482877,25.895411 38.0575342,26.2060959 38.4377397,26.2060959 L42.4416438,26.2060959 C42.8237671,26.2060959 43.1330137,25.895411 43.1310959,25.5152055 C43.1310959,25.135 42.8218493,24.8257534 42.4416438,24.8257534 L42.4416438,24.8257534 Z" id="Shape-Copy" fill="#9E788F"></path>
        </g>
    </g>
</svg>