<?xml version="1.0" encoding="UTF-8" standalone="no"?>
<svg width="75px" height="75px" viewBox="0 0 75 75" version="1.1" xmlns="http://www.w3.org/2000/svg" xmlns:xlink="http://www.w3.org/1999/xlink" xmlns:sketch="http://www.bohemiancoding.com/sketch/ns">
    <!-- Generator: Sketch 3.5.1 (25234) - http://www.bohemiancoding.com/sketch -->
    <title>Page 1</title>
    <desc>Created with Sketch.</desc>
    <defs></defs>
    <g id="Page-1" stroke="none" stroke-width="1" fill="none" fill-rule="evenodd" sketch:type="MSPage">
        <g id="iPhone-6" sketch:type="MSArtboardGroup" transform="translate(-42.000000, -322.000000)" fill="#FFFFFF">
            <path d="M79.496,322 C58.789,322 42,338.789 42,359.5 C42,380.215 58.789,397 79.496,397 C100.211,397 117,380.215 117,359.5 C117,338.789 100.211,322 79.496,322 L79.496,322 Z M79.004,379.676 C76.352,379.676 74.871,377.988 74.871,375.785 C74.871,373.523 76.348,371.805 79.004,371.805 C81.629,371.805 83.164,373.523 83.164,375.785 C83.164,377.988 81.656,379.676 79.004,379.676 L79.004,379.676 Z M85.035,359.047 C82.832,361.066 82.258,363.391 82.227,366.406 L75.383,366.406 C75.383,360.707 76.68,358.324 80.297,354.793 C83.012,352.168 85.242,350.211 85.242,346.742 C85.242,342.973 83.344,340.922 79.723,340.922 C76.859,340.922 73.961,342.488 73.961,346.352 L66.633,346.352 C66.723,338.781 72.363,334.801 79.723,334.801 C87.836,334.801 92.57,339.113 92.57,346.473 C92.574,351.809 88.895,355.43 85.035,359.047 L85.035,359.047 Z" id="Page-1" sketch:type="MSShapeGroup"></path>
        </g>
    </g>
</svg>