<?xml version="1.0" encoding="UTF-8" standalone="no"?>
<svg width="40px" height="35px" viewBox="0 0 40 35" version="1.1" xmlns="http://www.w3.org/2000/svg" xmlns:xlink="http://www.w3.org/1999/xlink" xmlns:sketch="http://www.bohemiancoding.com/sketch/ns">
    <!-- Generator: Sketch 3.3.3 (12081) - http://www.bohemiancoding.com/sketch -->
    <title>Imported Layers + Imported Layers</title>
    <desc>Created with Sketch.</desc>
    <defs></defs>
    <g id="Page-1" stroke="none" stroke-width="1" fill="none" fill-rule="evenodd" sketch:type="MSPage">
        <g id="Imported-Layers-+-Imported-Layers" sketch:type="MSLayerGroup" fill="#2D93FF">
            <path d="M38.8727525,13.9265826 C39.9325026,13.9265826 40.3211767,15.1436193 39.7088106,15.9197757 C38.3703746,17.4713498 37.0319385,18.96606 35.6972183,20.5176342 C35.307801,20.9622071 34.471743,20.9622071 34.0251022,20.5176342 C32.6866661,18.96606 31.3482301,17.4713498 30.0127667,15.9197757 C29.1767086,14.9789354 30.2364587,13.6496476 31.1825048,13.9265826 L33.6356849,13.9265826 C32.2972489,8.60943174 28.2306625,4.23385969 22.7119362,3.01608444 C21.6521862,2.793798 20.5924362,2.68450101 19.5356588,2.68450101 C14.1856304,2.68450101 9.22427615,5.62074987 6.60611392,10.4386793 C5.88004395,11.7687055 3.87424779,10.6055788 4.60031776,9.27629107 C8.16824194,2.85140047 15.6370272,-0.861004718 22.9386008,0.745956427 C29.5074161,2.12767716 34.6374683,7.38944102 35.9759043,13.9265826 L38.8727525,13.9265826 Z M1.12724745,21.1797578 C0.0674974245,21.1797578 -0.321176674,19.9440637 0.291189401,19.1560089 C1.62962545,17.5798991 2.96806149,16.0630247 4.30352488,14.486915 C4.69219898,14.0362766 5.52825703,14.0362766 5.97564098,14.486915 C7.31333387,16.0630247 8.65176991,17.5798991 9.9872333,19.1560089 C10.8232914,20.1105225 9.76354133,21.4609381 8.8174952,21.1797578 L6.36431508,21.1797578 C7.70275113,26.5776712 11.7700806,31.0210709 17.2880638,32.2575148 C18.3478138,32.4824591 19.4075638,32.5941814 20.4643412,32.5941814 C25.8143696,32.5941814 30.7757238,29.6121698 33.3938861,24.7211309 C34.119956,23.3707153 36.1257522,24.550923 35.3996822,25.9013386 C31.8377034,32.4824591 24.3718908,36.2525256 17.0673445,34.6209296 C10.4896113,33.1595414 5.30753771,27.8171143 3.96910166,21.1797578 L1.12724745,21.1797578 Z M19.5,8 C15.9096725,8 13,11.0333333 13,14.7738667 C13,14.8541333 13.0017912,14.9354667 13.0058854,15.0176 C13.0299386,15.7290667 13.1589048,16.4125333 13.3776868,17.052 C14.7640737,21.8032 19.5,28 19.5,28 C19.5,28 24.2349028,21.8032 25.6223132,17.0530667 C25.8410952,16.4136 25.9700614,15.7301333 25.9941146,15.0176 C25.9982088,14.9354667 26,14.8541333 26,14.7738667 C26,11.0333333 23.0903275,8 19.5,8 Z M19.5,18.0917333 C17.7418117,18.0917333 16.3165302,16.6061333 16.3165302,14.7738667 C16.3165302,12.9416 17.7418117,11.4562667 19.5,11.4562667 C21.2581883,11.4562667 22.6834698,12.9416 22.6834698,14.7738667 C22.6834698,16.6061333 21.2581883,18.0917333 19.5,18.0917333 L19.5,18.0917333 Z" id="Fill-1" sketch:type="MSShapeGroup"></path>
        </g>
    </g>
</svg>