<?xml version="1.0" encoding="UTF-8" standalone="no"?>
<svg width="51px" height="49px" viewBox="0 0 51 49" version="1.1" xmlns="http://www.w3.org/2000/svg" xmlns:xlink="http://www.w3.org/1999/xlink" xmlns:sketch="http://www.bohemiancoding.com/sketch/ns">
    <!-- Generator: Sketch 3.5.2 (25235) - http://www.bohemiancoding.com/sketch -->
    <title>Page 1</title>
    <desc>Created with Sketch.</desc>
    <defs></defs>
    <g id="Page-1" stroke="none" stroke-width="1" fill="none" fill-rule="evenodd" sketch:type="MSPage">
        <g sketch:type="MSLayerGroup" fill="#979797">
            <path d="M32.02,44.48 C33.223,42.91 34.258,40.941 35.113,38.715 L34.621,38.223 L35.152,37.691 L34.609,37.148 C33.812,37.609 32.969,37.961 32.102,38.219 C30.516,42.078 28.355,44.68 26.16,45.512 L26.16,38.355 C24.141,37.863 22.285,36.84 20.773,35.332 C20.484,35.043 20.219,34.742 19.965,34.434 L15.961,34.434 C15.328,31.973 14.918,29.191 14.812,26.16 L17.461,26.16 C17.555,25.141 17.789,24.133 18.152,23.16 L14.812,23.16 C14.914,20.129 15.324,17.344 15.961,14.883 L23.16,14.883 L23.16,17.25 C24.098,16.707 25.105,16.305 26.16,16.043 L26.16,14.883 L33.363,14.883 C33.52,15.488 33.641,16.145 33.77,16.789 C34.969,17.352 36.074,18.109 37.039,19.07 C37.102,19.133 37.148,19.207 37.207,19.27 C37.023,17.75 36.77,16.277 36.441,14.879 L43.414,14.879 C44.727,17.387 45.543,20.188 45.75,23.156 L39.641,23.156 C40.008,24.129 40.242,25.133 40.332,26.156 L45.75,26.156 C45.539,29.125 44.727,31.922 43.414,34.43 L41.441,34.43 L44.883,37.871 C47.371,34.074 48.828,29.539 48.828,24.66 C48.828,11.316 38.012,0.496 24.66,0.496 C11.316,0.496 0.496,11.316 0.496,24.66 C0.496,38.008 11.316,48.824 24.66,48.824 C30.418,48.824 35.695,46.805 39.848,43.445 L37.676,41.273 C35.973,42.609 34.082,43.711 32.02,44.48 L32.02,44.48 Z M41.496,11.883 L35.586,11.883 C34.66,9.109 33.453,6.711 32.023,4.844 C35.816,6.258 39.086,8.719 41.496,11.883 L41.496,11.883 Z M26.16,3.805 C28.504,4.691 30.82,7.582 32.426,11.883 L26.16,11.883 L26.16,3.805 Z M23.16,3.805 L23.16,11.883 L16.898,11.883 C18.504,7.582 20.82,4.695 23.16,3.805 L23.16,3.805 Z M17.297,4.844 C15.871,6.711 14.66,9.109 13.738,11.883 L7.828,11.883 C10.238,8.719 13.512,6.258 17.297,4.844 L17.297,4.844 Z M5.91,14.887 L12.883,14.887 C12.277,17.441 11.91,20.234 11.816,23.164 L3.57,23.164 C3.781,20.191 4.594,17.391 5.91,14.887 L5.91,14.887 Z M5.906,34.434 C4.594,31.93 3.781,29.129 3.57,26.16 L11.812,26.16 C11.906,29.09 12.273,31.875 12.879,34.434 L5.906,34.434 Z M7.824,37.438 L13.738,37.438 C14.664,40.211 15.875,42.613 17.305,44.48 C13.512,43.07 10.234,40.605 7.824,37.438 L7.824,37.438 Z M23.16,45.516 C20.816,44.629 18.504,41.738 16.898,37.438 L23.16,37.438 L23.16,45.516 Z" id="Fill-1" sketch:type="MSShapeGroup"></path>
            <path d="M39.926,35.02 L39.395,35.551 L36.934,33.086 C39.555,29.531 39.516,24.656 36.832,21.137 C36.707,20.965 36.559,20.805 36.422,20.641 C36.27,20.465 36.148,20.277 35.98,20.113 C35.871,20.004 35.742,19.93 35.633,19.828 C35.387,19.609 35.137,19.398 34.875,19.211 C33.105,17.887 31.02,17.184 28.91,17.184 C26.352,17.184 23.793,18.16 21.84,20.113 C20.559,21.395 19.742,22.949 19.301,24.578 C19.293,24.605 19.285,24.629 19.277,24.656 C18.41,27.977 19.238,31.648 21.84,34.25 C21.91,34.32 21.988,34.363 22.059,34.43 L22.039,34.43 C22.199,34.586 22.387,34.695 22.559,34.836 C22.875,35.098 23.184,35.371 23.523,35.59 C23.855,35.805 24.211,35.965 24.562,36.137 C24.773,36.238 24.973,36.371 25.191,36.457 C26.383,36.941 27.645,37.195 28.914,37.195 C30.996,37.195 33.062,36.512 34.812,35.223 L37.02,37.43 L37.035,37.43 L37.273,37.668 L36.746,38.199 L38.828,40.281 C38.824,40.285 38.824,40.285 38.82,40.289 L40.98,42.449 C40.984,42.445 40.984,42.445 40.988,42.441 L47.352,48.805 L50.535,45.621 L39.926,35.02 Z M23.957,22.238 C25.281,20.914 27.035,20.188 28.906,20.188 C30.773,20.188 32.535,20.914 33.855,22.238 C35.176,23.562 35.906,25.316 35.906,27.188 C35.906,29.055 35.176,30.816 33.855,32.133 C32.535,33.457 30.777,34.184 28.906,34.184 C27.035,34.184 25.277,33.457 23.957,32.133 C21.23,29.406 21.23,24.965 23.957,22.238 L23.957,22.238 Z" id="Fill-2" sketch:type="MSShapeGroup"></path>
        </g>
    </g>
</svg>