<?xml version="1.0" encoding="UTF-8" standalone="no"?>
<svg width="75px" height="75px" viewBox="0 0 75 75" version="1.1" xmlns="http://www.w3.org/2000/svg" xmlns:xlink="http://www.w3.org/1999/xlink" xmlns:sketch="http://www.bohemiancoding.com/sketch/ns">
    <!-- Generator: Sketch 3.3.3 (12081) - http://www.bohemiancoding.com/sketch -->
    <title>Imported Layers</title>
    <desc>Created with Sketch.</desc>
    <defs></defs>
    <g id="Page-1" stroke="none" stroke-width="1" fill="none" fill-rule="evenodd" sketch:type="MSPage">
        <path d="M0.946098314,0.954176667 C0.317098314,1.58317667 -0.0219016862,2.45017667 0.00109831383,3.33717667 L0.853098314,35.4741767 C0.876098314,36.3331767 1.22809831,37.1421767 1.82909831,37.7431767 L38.1140983,74.0281767 C39.3800983,75.2941767 41.4930983,75.3411767 42.7740983,74.0591767 L74.0630983,42.7701767 C75.3450983,41.4891767 75.2980983,39.3761767 74.0320983,38.1141767 L37.7510983,1.82917667 C37.1490983,1.22717667 36.3370983,0.872176667 35.4810983,0.849176667 L3.34509831,0.00117666675 C2.45809831,-0.0228233333 1.58709831,0.321176667 0.954098314,0.954176667 L0.946098314,0.954176667 Z M3.39209831,3.38817667 L35.3600983,4.23117667 L71.5870983,40.4581767 L40.4580983,71.5871767 L4.23509831,35.3641767 L3.39209831,3.38817667 Z M13.5210983,13.5201767 C10.5600983,16.4811767 10.5600983,21.3331767 13.5210983,24.2941767 C16.4810983,27.2551767 21.3330983,27.2551767 24.2940983,24.2941767 C27.2550983,21.3331767 27.2550983,16.4811767 24.2940983,13.5201767 C21.3330983,10.5591767 16.4810983,10.5591767 13.5210983,13.5201767 Z M15.9150983,15.9151767 C17.5830983,14.2471767 20.2350983,14.2471767 21.8990983,15.9151767 C23.5670983,17.5831767 23.5670983,20.2351767 21.8990983,21.8991767 C20.2310983,23.5671767 17.5790983,23.5671767 15.9150983,21.8991767 C14.2470983,20.2311767 14.2470983,17.5791767 15.9150983,15.9151767 Z" id="Imported-Layers" fill="#FFFFFF" sketch:type="MSShapeGroup"></path>
    </g>
</svg>