<?xml version="1.0" encoding="UTF-8" standalone="no"?>
<svg width="429px" height="216px" viewBox="0 0 429 216" version="1.1" xmlns="http://www.w3.org/2000/svg" xmlns:xlink="http://www.w3.org/1999/xlink" xmlns:sketch="http://www.bohemiancoding.com/sketch/ns">
    <!-- Generator: Sketch 3.5.2 (25235) - http://www.bohemiancoding.com/sketch -->
    <title>imdb-logo</title>
    <desc>Created with Sketch.</desc>
    <defs>
        <linearGradient x1="49.9988441%" y1="99.9810566%" x2="49.9988441%" y2="-0.0231794384%" id="linearGradient-1">
            <stop stop-color="#C8AA31" offset="0%"></stop>
            <stop stop-color="#ECD939" offset="100%"></stop>
        </linearGradient>
        <linearGradient x1="49.9985304%" y1="-0.00288506282%" x2="49.9985304%" y2="99.9616566%" id="linearGradient-2">
            <stop stop-color="#C8AA31" offset="0%"></stop>
            <stop stop-color="#ECD939" offset="100%"></stop>
        </linearGradient>
        <linearGradient x1="49.9986129%" y1="99.9740103%" x2="49.9986129%" y2="0.0223178428%" id="linearGradient-3">
            <stop stop-color="#C8AA31" offset="0%"></stop>
            <stop stop-color="#ECD939" offset="100%"></stop>
        </linearGradient>
        <linearGradient x1="49.9984234%" y1="0.0444134078%" x2="49.9984234%" y2="100.00676%" id="linearGradient-4">
            <stop stop-color="#C8AA31" offset="0%"></stop>
            <stop stop-color="#ECD939" offset="100%"></stop>
        </linearGradient>
    </defs>
    <g id="Page-1" stroke="none" stroke-width="1" fill="none" fill-rule="evenodd" sketch:type="MSPage">
        <g id="imdb-logo" sketch:type="MSLayerGroup">
            <path d="M426.5,31.8 C412.9,30.8 400.7,22.7 399.7,3.1 L29.4,3.1 C28.4,22.7 16.3,30.8 2.6,31.8 L2.6,184.5 C16.2,185.5 28.4,193.6 29.4,213.2 L399.7,213.2 C400.7,193.6 412.8,185.5 426.5,184.5 L426.5,31.8 L426.5,31.8 Z" id="Shape" fill="url(#linearGradient-1)" sketch:type="MSShapeGroup"></path>
            <path d="M27.1,215.5 L27,213.3 C25.9,194.7 15.2,188 2.4,186.8 L2.4,186.8 L0.2,186.6 L0.2,29.6 L2.4,29.4 C15.2,28.3 25.9,21.5 27,2.9 L27,2.9 L27.1,0.7 L402,0.7 L402.1,2.9 C403.2,21.5 413.9,28.2 426.7,29.4 L426.7,29.4 L426.5,31.8 L426.7,29.4 L428.9,29.6 L428.9,186.7 L426.7,186.9 C413.9,188 403.2,194.8 402.1,213.4 L402.1,213.4 L402,215.6 L27.1,215.6 L27.1,215.5 L27.1,215.5 Z M397.5,210.8 C399.2,192.7 411,183.9 424.1,182.3 L424.1,182.3 L424.1,33.9 C411,32.3 399.1,23.5 397.5,5.4 L397.5,5.4 L31.6,5.4 C29.9,23.5 18.1,32.3 5,33.9 L5,33.9 L5,182.3 C18.1,183.9 30,192.7 31.6,210.8 L31.6,210.8 L397.5,210.8 L397.5,210.8 L397.5,210.8 Z" id="Shape" fill="url(#linearGradient-2)" sketch:type="MSShapeGroup"></path>
            <path d="M405.6,43.7 C393.3,42.8 382.4,35.5 381.5,17.8 L47.6,17.8 C46.7,35.5 35.8,42.8 23.5,43.7 L23.5,166.2 C35.8,167.1 46.7,174.4 47.6,192.1 L381.4,192.1 C382.3,174.4 393.2,167.1 405.5,166.2 L405.5,43.7 L405.6,43.7 Z" id="Shape" fill="url(#linearGradient-3)" sketch:type="MSShapeGroup"></path>
            <path d="M45.4,194.4 L45.3,192.2 C44.3,175.6 34.8,169.6 23.3,168.6 L23.3,168.6 L21.1,168.4 L21.1,41.5 L23.3,41.3 C34.8,40.3 44.2,34.3 45.3,17.6 L45.3,17.6 L45.4,15.4 L383.7,15.4 L383.8,17.6 C384.8,34.2 394.3,40.2 405.8,41.3 L405.8,41.3 L405.6,43.7 L405.8,41.3 L408,41.5 L408,168.3 L405.8,168.5 C394.3,169.5 384.9,175.5 383.8,192.1 L383.8,192.1 L383.7,194.3 L45.4,194.3 L45.4,194.4 L45.4,194.4 Z M379.3,189.7 C380.9,173.5 391.5,165.5 403.3,164 L403.3,164 L403.3,45.9 C391.6,44.4 380.9,36.4 379.3,20.2 L379.3,20.2 L49.8,20.2 C48.2,36.4 37.6,44.4 25.8,45.9 L25.8,45.9 L25.8,164 C37.5,165.5 48.2,173.5 49.8,189.7 L49.8,189.7 L379.3,189.7 L379.3,189.7 L379.3,189.7 Z" id="Shape" fill="url(#linearGradient-4)" sketch:type="MSShapeGroup"></path>
            <path d="M97.5,162.4 L69,162.4 L69,46.1 L97.5,46.1 L97.5,162.4 L97.5,162.4 Z M203.2,162.4 L178.9,162.4 L178.9,97.1 L167.1,162.4 L149.5,162.4 L137.4,97.1 L137.4,162.4 L111.7,162.4 L111.7,46.1 L148.4,46.1 L158,101 L164.6,46.1 L203.2,46.1 L203.2,162.4 L203.2,162.4 Z M218.3,162.4 L218.3,46.1 L250.2,46.1 C269.2,46.1 273.8,48 279.2,51.7 C284.6,55.5 287.3,61.2 287.3,69 L287.3,139.4 C287.3,146.6 284.8,152.3 279.7,156.3 C274.6,160.3 268.5,162.3 250.3,162.3 L218.3,162.3 L218.3,162.4 Z M256.7,138 L256.7,69.8 C256.7,64.1 250.5,64.7 245.7,64.7 L245.7,142.8 C250.6,142.8 256.7,143.5 256.7,138 L256.7,138 Z M323.8,156.4 C321.8,155.5 320,162.5 320,162.5 L296.5,162.5 L296.5,46.1 L325.7,46.1 L325.7,72.7 C328.6,69.4 336.8,64.3 344.8,64.6 C352.7,65 363.1,70.8 362.4,80.6 L362.4,148.3 C362.4,153.1 360.3,156.8 356.1,159.6 C352.8,161.1 349.9,161.5 342.9,161.5 C335.9,161.5 325.8,157.2 323.8,156.4 L323.8,156.4 Z M333.6,142.3 L333.6,83.7 C333.6,80.8 332.3,79.4 329.6,79.4 C326.9,79.4 325.5,80.8 325.5,83.5 L325.5,142.3 C325.5,145.2 326.9,147.2 329.6,147.2 C332.3,147.2 333.6,145.2 333.6,142.3 L333.6,142.3 Z" id="Shape" fill="#231F1E" sketch:type="MSShapeGroup"></path>
        </g>
    </g>
</svg>
