<?xml version="1.0" encoding="UTF-8" standalone="no"?>
<svg width="265px" height="70px" viewBox="0 0 265 70" version="1.1" xmlns="http://www.w3.org/2000/svg" xmlns:xlink="http://www.w3.org/1999/xlink" xmlns:sketch="http://www.bohemiancoding.com/sketch/ns">
    <!-- Generator: Sketch 3.3.3 (12081) - http://www.bohemiancoding.com/sketch -->
    <title>introImg</title>
    <desc>Created with Sketch.</desc>
    <defs>
        <filter x="-50%" y="-50%" width="200%" height="200%" filterUnits="objectBoundingBox" id="filter-1">
            <feOffset dx="0" dy="2" in="SourceAlpha" result="shadowOffsetOuter1"></feOffset>
            <feGaussianBlur stdDeviation="2" in="shadowOffsetOuter1" result="shadowBlurOuter1"></feGaussianBlur>
            <feColorMatrix values="0 0 0 0 0   0 0 0 0 0   0 0 0 0 0  0 0 0 0.0862318841 0" in="shadowBlurOuter1" type="matrix" result="shadowMatrixOuter1"></feColorMatrix>
            <feOffset dx="0" dy="1" in="SourceAlpha" result="shadowOffsetOuter2"></feOffset>
            <feGaussianBlur stdDeviation="0.5" in="shadowOffsetOuter2" result="shadowBlurOuter2"></feGaussianBlur>
            <feColorMatrix values="0 0 0 0 0   0 0 0 0 0   0 0 0 0 0  0 0 0 0.167391304 0" in="shadowBlurOuter2" type="matrix" result="shadowMatrixOuter2"></feColorMatrix>
            <feMerge>
                <feMergeNode in="shadowMatrixOuter1"></feMergeNode>
                <feMergeNode in="shadowMatrixOuter2"></feMergeNode>
                <feMergeNode in="SourceGraphic"></feMergeNode>
            </feMerge>
        </filter>
    </defs>
    <g id="Page-1" stroke="none" stroke-width="1" fill="none" fill-rule="evenodd" sketch:type="MSPage">
        <g id="iPhone-6" sketch:type="MSArtboardGroup" transform="translate(-23.000000, -46.000000)">
            <g id="introImg" sketch:type="MSLayerGroup" transform="translate(23.000000, 47.000000)">
                <path d="M73,23 C73,21.8333333 68,16.5 68,16.5 C68,16.5 73,11.5 73,10 L73,1.99733735 C73,0.894238393 73.8953821,0 74.994678,0 L260.005322,0 C261.106952,0 262,0.904724121 262,2.00329863 L262,61.9967014 C262,63.1030927 261.104618,64 260.005322,64 L74.994678,64 C73.8930477,64 73,63.1072237 73,62.0025828 L73,23 Z" id="Rectangle-520" fill="#E8E8E8" filter="url(#filter-1)" sketch:type="MSShapeGroup"></path>
                <g id="ghost-xl-copy" sketch:type="MSShapeGroup">
                    <g id="Shape-Copy-15-+-Shape-Copy-16">
                        <path d="M27.075641,62.1782701 C27.0083679,60.7387914 27.075641,59.2338819 26.7392753,57.7944032 C25.9319976,54.0648448 23.9138033,51.1858875 20.3483268,49.4846855 C15.0337485,46.9328824 10.1900823,43.7267708 6.08642063,39.5391965 C-1.44817129,31.7529255 -1.58271757,22.6580376 3.46276809,13.5631496 C8.97916575,3.61766066 20.2810536,-1.55137637 31.7174878,0.41154908 C42.9521025,2.30904369 51.8994305,11.0767774 53.6485322,22.2000216 C54.4558099,27.1727661 53.9176247,32.0146489 51.5630647,36.6602391 C49.8139631,39.9972124 47.7957688,43.0724623 45.5757551,46.0822813 C40.799362,52.6253662 36.090242,59.2338819 31.3811221,65.7769667 C30.6411175,66.8238603 29.8338398,68.3287698 28.3538307,67.9361847 C26.7392753,67.4781688 27.1429141,65.8423976 27.075641,64.5337806 C27.0083679,63.7486104 27.075641,63.0288711 27.075641,62.2437009 C27.0083679,62.1782701 27.075641,62.1782701 27.075641,62.1782701 L27.075641,62.1782701 Z M16.3026797,29.7871268 C14.0320605,29.1316003 13.0303167,28.4105212 13.1638826,26.9683629 C13.2974484,25.0673362 14.6331067,24.4118097 16.3694626,24.346257 C17.1040747,24.2807044 16.9705088,23.9529411 16.7701601,23.4940726 C15.6348505,20.8064141 12.1621388,20.0853349 10.0250854,22.117467 C7.82124918,24.2807044 7.68768334,28.2138632 9.82473669,30.5082059 C11.7614413,32.6714433 14.6998897,32.34368 16.3026797,29.7871268 L16.3026797,29.7871268 Z M31.2759134,29.8101537 C30.9411594,29.7448992 30.6733561,29.6143902 30.3386021,29.5491357 C28.9995859,29.1576085 28.0622745,28.3745543 28.1292253,26.8737004 C28.1961761,25.3728465 29.2673891,24.5897923 30.6064053,24.4592833 C32.2801756,24.3287742 31.9454215,23.7414836 31.2759134,22.8279203 C29.669094,20.6092667 26.6563075,20.2829941 24.7816848,22.2406297 C22.6392588,24.4592833 22.6392588,28.5703179 24.9155864,30.723717 C26.9910615,32.616098 29.7360448,32.2898254 31.2759134,29.8101537 L31.2759134,29.8101537 Z" id="Shape-Copy-15" fill="#3CAAEE"></path>
                        <path d="M22.3885327,50.6646941 C24.6801013,52.3860555 26.0614345,54.7908546 26.6955716,57.7205172 C27.0319373,59.1599958 26.9646642,60.6649054 27.0319373,62.104384 C27.0319373,62.104384 26.9646642,62.104384 27.0319373,62.1698149 C27.0319373,62.9549851 26.9646642,63.6747244 27.0319373,64.4598946 C27.0976386,65.7379344 26.7141774,67.3280185 28.2002238,67.8282828 C29.6968134,65.9881327 30.5957948,63.6292762 30.5957948,61.0574271 C30.5957948,55.9747081 27.0846243,51.7238787 22.3885327,50.6646941 Z" id="Shape-Copy-16" fill-opacity="0.25" fill="#27476E"></path>
                    </g>
                    <path d="M37.0112607,3.00904447 C37.1982006,2.82247227 43.6393262,5.55717477 47.0032173,7.99519518 C48.9776533,9.42619128 51,11.9279826 51,12.9813459 C51,13.2306534 49.2806739,10.936866 46.2538206,8.74311778 C38.925765,3.43202165 36.8243208,3.19561667 37.0112607,3.00904447 Z" id="Path-131"></path>
                    <path d="M44.791639,8.9798217 C46.2494315,8.64422737 39.8706794,3.39180897 31.5061209,2.28191386 C23.1415624,1.17201874 14.5085427,3.63957397 15.0218156,4.4940137 C15.5350884,5.34845344 22.6779357,3.14949447 31.0424943,4.25938959 C39.4070528,5.3692847 43.3338464,9.31541604 44.791639,8.9798217 Z" id="Oval-74" fill-opacity="0.100000001" fill="#FFFFFF"></path>
                </g>
                <path d="M100.423828,30 L98.0996094,30 L98.0996094,20.59375 L87.5722656,20.59375 L87.5722656,30 L85.2480469,30 L85.2480469,10.0117188 L87.5722656,10.0117188 L87.5722656,18.515625 L98.0996094,18.515625 L98.0996094,10.0117188 L100.423828,10.0117188 L100.423828,30 Z M111.894531,30.2734375 C109.679676,30.2734375 107.931973,29.5989651 106.651367,28.25 C105.370762,26.9010349 104.730469,25.0280068 104.730469,22.6308594 C104.730469,20.2154827 105.325189,18.2968821 106.514648,16.875 C107.704108,15.4531179 109.301422,14.7421875 111.306641,14.7421875 C113.184254,14.7421875 114.669916,15.3596943 115.763672,16.5947266 C116.857427,17.8297588 117.404297,19.4589743 117.404297,21.4824219 L117.404297,22.9179688 L107.082031,22.9179688 C107.127604,24.6770921 107.571936,26.0123652 108.415039,26.9238281 C109.258142,27.835291 110.445305,28.2910156 111.976562,28.2910156 C113.589852,28.2910156 115.184888,27.9537794 116.761719,27.2792969 L116.761719,29.3027344 C115.959631,29.6490903 115.20085,29.8974602 114.485352,30.0478516 C113.769853,30.1982429 112.906255,30.2734375 111.894531,30.2734375 L111.894531,30.2734375 Z M111.279297,16.6425781 C110.076166,16.6425781 109.116866,17.0345013 108.401367,17.8183594 C107.685869,18.6022175 107.264324,19.686842 107.136719,21.0722656 L114.970703,21.0722656 C114.970703,19.6412689 114.651696,18.5452512 114.013672,17.7841797 C113.375648,17.0231082 112.464199,16.6425781 111.279297,16.6425781 L111.279297,16.6425781 Z M123.542969,30 L121.273438,30 L121.273438,8.7265625 L123.542969,8.7265625 L123.542969,30 Z M130.625,30 L128.355469,30 L128.355469,8.7265625 L130.625,8.7265625 L130.625,30 Z M148.371094,22.4941406 C148.371094,24.9368612 147.755866,26.8440687 146.525391,28.2158203 C145.294916,29.587572 143.595063,30.2734375 141.425781,30.2734375 C140.085931,30.2734375 138.89649,29.9589875 137.857422,29.3300781 C136.818354,28.7011687 136.016279,27.798834 135.451172,26.6230469 C134.886065,25.4472597 134.603516,24.0709714 134.603516,22.4941406 C134.603516,20.0514201 135.214187,18.1487698 136.435547,16.7861328 C137.656907,15.4234958 139.352203,14.7421875 141.521484,14.7421875 C143.617849,14.7421875 145.283522,15.4394462 146.518555,16.8339844 C147.753587,18.2285226 148.371094,20.1152225 148.371094,22.4941406 L148.371094,22.4941406 Z M136.955078,22.4941406 C136.955078,24.4082127 137.337887,25.8665314 138.103516,26.8691406 C138.869144,27.8717498 139.994784,28.3730469 141.480469,28.3730469 C142.966153,28.3730469 144.094072,27.8740284 144.864258,26.8759766 C145.634444,25.8779247 146.019531,24.4173273 146.019531,22.4941406 C146.019531,20.5891832 145.634444,19.1422575 144.864258,18.1533203 C144.094072,17.1643831 142.957039,16.6699219 141.453125,16.6699219 C139.96744,16.6699219 138.846358,17.1575472 138.089844,18.1328125 C137.33333,19.1080778 136.955078,20.5618393 136.955078,22.4941406 L136.955078,22.4941406 Z M154.728516,26.7460938 L154.933594,27.0605469 C154.696613,27.9720098 154.35482,29.0315695 153.908203,30.2392578 C153.461586,31.4469461 152.996747,32.5703073 152.513672,33.609375 L150.804688,33.609375 C151.050782,32.6614536 151.321939,31.4902413 151.618164,30.0957031 C151.91439,28.7011649 152.121744,27.5846396 152.240234,26.7460938 L154.728516,26.7460938 Z M92.5966797,53 L91.4482422,53 L89.4316406,46.3076172 C89.335937,46.0113917 89.2288417,45.6376976 89.1103516,45.1865234 C88.9918614,44.7353493 88.9303386,44.4641932 88.9257812,44.3730469 C88.8255203,44.9746124 88.6660167,45.6331344 88.4472656,46.3486328 L86.4921875,53 L85.34375,53 L82.6845703,43.0058594 L83.9150391,43.0058594 L85.4941406,49.1787109 C85.7128917,50.0446007 85.8723953,50.828447 85.9726562,51.5302734 C86.0957037,50.6962849 86.2779936,49.8805378 86.5195312,49.0830078 L88.3105469,43.0058594 L89.5410156,43.0058594 L91.4208984,49.1376953 C91.6396495,49.8440791 91.824218,50.6415971 91.9746094,51.5302734 C92.0611983,50.8831348 92.2252592,50.0947312 92.4667969,49.1650391 L94.0390625,43.0058594 L95.2695312,43.0058594 L92.5966797,53 Z M99.5488281,53.1367188 C98.4414007,53.1367188 97.5675488,52.7994825 96.9272461,52.125 C96.2869434,51.4505175 95.9667969,50.5140034 95.9667969,49.3154297 C95.9667969,48.1077414 96.2641572,47.1484411 96.8588867,46.4375 C97.4536163,45.7265589 98.2522736,45.3710938 99.2548828,45.3710938 C100.19369,45.3710938 100.936521,45.6798472 101.483398,46.2973633 C102.030276,46.9148794 102.303711,47.7294871 102.303711,48.7412109 L102.303711,49.4589844 L97.1425781,49.4589844 C97.1653647,50.3385461 97.3875304,51.0061826 97.809082,51.4619141 C98.2306336,51.9176455 98.8242149,52.1455078 99.5898438,52.1455078 C100.396488,52.1455078 101.194006,51.9768897 101.982422,51.6396484 L101.982422,52.6513672 C101.581378,52.8245451 101.201987,52.9487301 100.844238,53.0239258 C100.486489,53.0991215 100.05469,53.1367188 99.5488281,53.1367188 L99.5488281,53.1367188 Z M99.2412109,46.3212891 C98.6396454,46.3212891 98.1599953,46.5172506 97.8022461,46.9091797 C97.4444969,47.3011087 97.2337243,47.843421 97.1699219,48.5361328 L101.086914,48.5361328 C101.086914,47.8206344 100.92741,47.2726256 100.608398,46.8920898 C100.289386,46.5115541 99.8336618,46.3212891 99.2412109,46.3212891 L99.2412109,46.3212891 Z M105.373047,53 L104.238281,53 L104.238281,42.3632812 L105.373047,42.3632812 L105.373047,53 Z M110.944336,53.1367188 C109.836909,53.1367188 108.963057,52.7994825 108.322754,52.125 C107.682451,51.4505175 107.362305,50.5140034 107.362305,49.3154297 C107.362305,48.1077414 107.659665,47.1484411 108.254395,46.4375 C108.849124,45.7265589 109.647781,45.3710938 110.650391,45.3710938 C111.589197,45.3710938 112.332029,45.6798472 112.878906,46.2973633 C113.425784,46.9148794 113.699219,47.7294871 113.699219,48.7412109 L113.699219,49.4589844 L108.538086,49.4589844 C108.560873,50.3385461 108.783038,51.0061826 109.20459,51.4619141 C109.626141,51.9176455 110.219723,52.1455078 110.985352,52.1455078 C111.791996,52.1455078 112.589514,51.9768897 113.37793,51.6396484 L113.37793,52.6513672 C112.976886,52.8245451 112.597495,52.9487301 112.239746,53.0239258 C111.881997,53.0991215 111.450198,53.1367188 110.944336,53.1367188 L110.944336,53.1367188 Z M110.636719,46.3212891 C110.035153,46.3212891 109.555503,46.5172506 109.197754,46.9091797 C108.840005,47.3011087 108.629232,47.843421 108.56543,48.5361328 L112.482422,48.5361328 C112.482422,47.8206344 112.322918,47.2726256 112.003906,46.8920898 C111.684894,46.5115541 111.22917,46.3212891 110.636719,46.3212891 L110.636719,46.3212891 Z M118.62793,53.1367188 C117.543289,53.1367188 116.703616,52.8029005 116.108887,52.1352539 C115.514157,51.4676073 115.216797,50.5231181 115.216797,49.3017578 C115.216797,48.0484963 115.518714,47.0800815 116.122559,46.3964844 C116.726403,45.7128872 117.586583,45.3710938 118.703125,45.3710938 C119.063153,45.3710938 119.423175,45.4098303 119.783203,45.4873047 C120.143231,45.564779 120.42578,45.655924 120.630859,45.7607422 L120.282227,46.7246094 C120.031574,46.6243485 119.75814,46.5411787 119.461914,46.4750977 C119.165689,46.4090166 118.903647,46.3759766 118.675781,46.3759766 C117.153638,46.3759766 116.392578,47.34667 116.392578,49.2880859 C116.392578,50.2086635 116.578286,50.9150366 116.949707,51.4072266 C117.321128,51.8994165 117.871416,52.1455078 118.600586,52.1455078 C119.224938,52.1455078 119.865231,52.0110691 120.521484,51.7421875 L120.521484,52.7470703 C120.02018,53.0068372 119.389001,53.1367188 118.62793,53.1367188 L118.62793,53.1367188 Z M128.765625,49.2470703 C128.765625,50.4684306 128.458011,51.4220343 127.842773,52.1079102 C127.227536,52.793786 126.37761,53.1367188 125.292969,53.1367188 C124.623044,53.1367188 124.028323,52.9794938 123.508789,52.6650391 C122.989255,52.3505844 122.588218,51.899417 122.305664,51.3115234 C122.023111,50.7236299 121.881836,50.0354857 121.881836,49.2470703 C121.881836,48.02571 122.187171,47.0743849 122.797852,46.3930664 C123.408532,45.7117479 124.256179,45.3710938 125.34082,45.3710938 C126.389003,45.3710938 127.221839,45.7197231 127.839355,46.4169922 C128.456872,47.1142613 128.765625,48.0576112 128.765625,49.2470703 L128.765625,49.2470703 Z M123.057617,49.2470703 C123.057617,50.2041063 123.249022,50.9332657 123.631836,51.4345703 C124.01465,51.9358749 124.57747,52.1865234 125.320312,52.1865234 C126.063155,52.1865234 126.627114,51.9370142 127.012207,51.4379883 C127.3973,50.9389623 127.589844,50.2086637 127.589844,49.2470703 C127.589844,48.2945916 127.3973,47.5711288 127.012207,47.0766602 C126.627114,46.5821915 126.058598,46.3349609 125.306641,46.3349609 C124.563798,46.3349609 124.003257,46.5787736 123.625,47.0664062 C123.246743,47.5540389 123.057617,48.2809196 123.057617,49.2470703 L123.057617,49.2470703 Z M140.304688,53 L140.304688,48.1259766 C140.304688,47.5289684 140.177085,47.0812189 139.921875,46.7827148 C139.666665,46.4842107 139.270185,46.3349609 138.732422,46.3349609 C138.026038,46.3349609 137.504233,46.5377584 137.166992,46.9433594 C136.829751,47.3489604 136.661133,47.9733031 136.661133,48.8164062 L136.661133,53 L135.526367,53 L135.526367,48.1259766 C135.526367,47.5289684 135.398764,47.0812189 135.143555,46.7827148 C134.888345,46.4842107 134.489586,46.3349609 133.947266,46.3349609 C133.236325,46.3349609 132.715659,46.5480122 132.385254,46.9741211 C132.054849,47.40023 131.889648,48.098628 131.889648,49.0693359 L131.889648,53 L130.754883,53 L130.754883,45.5078125 L131.677734,45.5078125 L131.862305,46.5332031 L131.916992,46.5332031 C132.131186,46.168618 132.433104,45.8837901 132.822754,45.6787109 C133.212404,45.4736318 133.648761,45.3710938 134.131836,45.3710938 C135.303066,45.3710938 136.068683,45.7949176 136.428711,46.6425781 L136.483398,46.6425781 C136.706707,46.2506491 137.030271,45.9407563 137.454102,45.7128906 C137.877932,45.4850249 138.361,45.3710938 138.90332,45.3710938 C139.750981,45.3710938 140.385577,45.5887023 140.807129,46.0239258 C141.22868,46.4591493 141.439453,47.1552687 141.439453,48.1123047 L141.439453,53 L140.304688,53 Z M146.942383,53.1367188 C145.834955,53.1367188 144.961103,52.7994825 144.320801,52.125 C143.680498,51.4505175 143.360352,50.5140034 143.360352,49.3154297 C143.360352,48.1077414 143.657712,47.1484411 144.252441,46.4375 C144.847171,45.7265589 145.645828,45.3710938 146.648438,45.3710938 C147.587244,45.3710938 148.330075,45.6798472 148.876953,46.2973633 C149.423831,46.9148794 149.697266,47.7294871 149.697266,48.7412109 L149.697266,49.4589844 L144.536133,49.4589844 C144.558919,50.3385461 144.781085,51.0061826 145.202637,51.4619141 C145.624188,51.9176455 146.21777,52.1455078 146.983398,52.1455078 C147.790043,52.1455078 148.587561,51.9768897 149.375977,51.6396484 L149.375977,52.6513672 C148.974933,52.8245451 148.595542,52.9487301 148.237793,53.0239258 C147.880044,53.0991215 147.448245,53.1367188 146.942383,53.1367188 L146.942383,53.1367188 Z M146.634766,46.3212891 C146.0332,46.3212891 145.55355,46.5172506 145.195801,46.9091797 C144.838052,47.3011087 144.627279,47.843421 144.563477,48.5361328 L148.480469,48.5361328 C148.480469,47.8206344 148.320965,47.2726256 148.001953,46.8920898 C147.682941,46.5115541 147.227217,46.3212891 146.634766,46.3212891 L146.634766,46.3212891 Z M157.688477,52.2001953 C157.888998,52.2001953 158.082681,52.1853843 158.269531,52.1557617 C158.456381,52.1261392 158.604492,52.0953778 158.713867,52.0634766 L158.713867,52.9316406 C158.59082,52.9908857 158.409669,53.0398761 158.17041,53.0786133 C157.931151,53.1173505 157.715821,53.1367188 157.524414,53.1367188 C156.075188,53.1367188 155.350586,52.37338 155.350586,50.8466797 L155.350586,46.3896484 L154.277344,46.3896484 L154.277344,45.8427734 L155.350586,45.3710938 L155.829102,43.7714844 L156.485352,43.7714844 L156.485352,45.5078125 L158.65918,45.5078125 L158.65918,46.3896484 L156.485352,46.3896484 L156.485352,50.7988281 C156.485352,51.2500023 156.592447,51.596353 156.806641,51.8378906 C157.020834,52.0794283 157.314777,52.2001953 157.688477,52.2001953 L157.688477,52.2001953 Z M166.677734,49.2470703 C166.677734,50.4684306 166.37012,51.4220343 165.754883,52.1079102 C165.139645,52.793786 164.289719,53.1367188 163.205078,53.1367188 C162.535153,53.1367188 161.940432,52.9794938 161.420898,52.6650391 C160.901365,52.3505844 160.500327,51.899417 160.217773,51.3115234 C159.93522,50.7236299 159.793945,50.0354857 159.793945,49.2470703 C159.793945,48.02571 160.099281,47.0743849 160.709961,46.3930664 C161.320641,45.7117479 162.168289,45.3710938 163.25293,45.3710938 C164.301112,45.3710938 165.133949,45.7197231 165.751465,46.4169922 C166.368981,47.1142613 166.677734,48.0576112 166.677734,49.2470703 L166.677734,49.2470703 Z M160.969727,49.2470703 C160.969727,50.2041063 161.161131,50.9332657 161.543945,51.4345703 C161.92676,51.9358749 162.48958,52.1865234 163.232422,52.1865234 C163.975264,52.1865234 164.539223,51.9370142 164.924316,51.4379883 C165.309409,50.9389623 165.501953,50.2086637 165.501953,49.2470703 C165.501953,48.2945916 165.309409,47.5711288 164.924316,47.0766602 C164.539223,46.5821915 163.970707,46.3349609 163.21875,46.3349609 C162.475908,46.3349609 161.915366,46.5787736 161.537109,47.0664062 C161.158852,47.5540389 160.969727,48.2809196 160.969727,49.2470703 L160.969727,49.2470703 Z M178.435547,45.5078125 L178.435547,46.2255859 L177.047852,46.3896484 C177.175456,46.5491544 177.289388,46.7576485 177.389648,47.0151367 C177.489909,47.272625 177.540039,47.5631494 177.540039,47.8867188 C177.540039,48.6204464 177.289391,49.2060525 176.788086,49.6435547 C176.286781,50.0810569 175.598637,50.2998047 174.723633,50.2998047 C174.500324,50.2998047 174.290691,50.2815757 174.094727,50.2451172 C173.611651,50.5003268 173.370117,50.8216126 173.370117,51.2089844 C173.370117,51.4140635 173.454426,51.565592 173.623047,51.6635742 C173.791668,51.7615565 174.081053,51.8105469 174.491211,51.8105469 L175.817383,51.8105469 C176.628585,51.8105469 177.251788,51.9814436 177.687012,52.3232422 C178.122235,52.6650408 178.339844,53.1617806 178.339844,53.8134766 C178.339844,54.6429078 178.007165,55.2752257 177.341797,55.7104492 C176.676429,56.1456727 175.705736,56.3632812 174.429688,56.3632812 C173.449865,56.3632812 172.694501,56.1809914 172.163574,55.8164062 C171.632647,55.4518211 171.367188,54.9368523 171.367188,54.2714844 C171.367188,53.8157529 171.513019,53.4215511 171.804688,53.0888672 C172.096356,52.7561832 172.506508,52.5305996 173.035156,52.4121094 C172.843749,52.3255204 172.683106,52.1910816 172.553223,52.0087891 C172.423339,51.8264965 172.358398,51.6145845 172.358398,51.3730469 C172.358398,51.099608 172.431314,50.8603526 172.577148,50.6552734 C172.722983,50.4501943 172.953123,50.2519541 173.267578,50.0605469 C172.880206,49.9010409 172.564617,49.6298847 172.320801,49.2470703 C172.076984,48.8642559 171.955078,48.4267603 171.955078,47.9345703 C171.955078,47.1142537 172.201169,46.4819358 172.693359,46.0375977 C173.185549,45.5932595 173.882808,45.3710938 174.785156,45.3710938 C175.177085,45.3710938 175.530272,45.4166662 175.844727,45.5078125 L178.435547,45.5078125 Z M172.460938,54.2578125 C172.460938,54.6634135 172.631834,54.9710276 172.973633,55.1806641 C173.315431,55.3903005 173.805335,55.4951172 174.443359,55.4951172 C175.395838,55.4951172 176.101072,55.3527032 176.559082,55.0678711 C177.017092,54.7830389 177.246094,54.3968123 177.246094,53.9091797 C177.246094,53.5035787 177.120769,53.2221688 176.870117,53.0649414 C176.619465,52.9077141 176.14779,52.8291016 175.455078,52.8291016 L174.094727,52.8291016 C173.57975,52.8291016 173.178712,52.9521472 172.891602,53.1982422 C172.604491,53.4443372 172.460938,53.7975237 172.460938,54.2578125 L172.460938,54.2578125 Z M173.076172,47.9072266 C173.076172,48.4313177 173.224282,48.8277981 173.520508,49.0966797 C173.816733,49.3655612 174.229164,49.5 174.757812,49.5 C175.86524,49.5 176.418945,48.962245 176.418945,47.8867188 C176.418945,46.7610621 175.858404,46.1982422 174.737305,46.1982422 C174.204099,46.1982422 173.793947,46.3417954 173.506836,46.6289062 C173.219725,46.9160171 173.076172,47.3421196 173.076172,47.9072266 L173.076172,47.9072266 Z M185.100586,53 L185.100586,48.1533203 C185.100586,47.5426402 184.96159,47.0869156 184.683594,46.7861328 C184.405598,46.4853501 183.970381,46.3349609 183.37793,46.3349609 C182.589514,46.3349609 182.014162,46.5491515 181.651855,46.9775391 C181.289549,47.4059266 181.108398,48.1077425 181.108398,49.0830078 L181.108398,53 L179.973633,53 L179.973633,42.3632812 L181.108398,42.3632812 L181.108398,45.5830078 C181.108398,45.9703795 181.090169,46.2916654 181.053711,46.546875 L181.12207,46.546875 C181.345379,46.1868472 181.663247,45.9031586 182.075684,45.6958008 C182.488121,45.488443 182.958656,45.3847656 183.487305,45.3847656 C184.403325,45.3847656 185.09033,45.6023741 185.54834,46.0375977 C186.00635,46.4728212 186.235352,47.1643833 186.235352,48.1123047 L186.235352,53 L185.100586,53 Z M195.033203,49.2470703 C195.033203,50.4684306 194.725589,51.4220343 194.110352,52.1079102 C193.495114,52.793786 192.645188,53.1367188 191.560547,53.1367188 C190.890622,53.1367188 190.295901,52.9794938 189.776367,52.6650391 C189.256833,52.3505844 188.855796,51.899417 188.573242,51.3115234 C188.290689,50.7236299 188.149414,50.0354857 188.149414,49.2470703 C188.149414,48.02571 188.45475,47.0743849 189.06543,46.3930664 C189.67611,45.7117479 190.523758,45.3710938 191.608398,45.3710938 C192.656581,45.3710938 193.489417,45.7197231 194.106934,46.4169922 C194.72445,47.1142613 195.033203,48.0576112 195.033203,49.2470703 L195.033203,49.2470703 Z M189.325195,49.2470703 C189.325195,50.2041063 189.5166,50.9332657 189.899414,51.4345703 C190.282228,51.9358749 190.845048,52.1865234 191.587891,52.1865234 C192.330733,52.1865234 192.894692,51.9370142 193.279785,51.4379883 C193.664878,50.9389623 193.857422,50.2086637 193.857422,49.2470703 C193.857422,48.2945916 193.664878,47.5711288 193.279785,47.0766602 C192.894692,46.5821915 192.326176,46.3349609 191.574219,46.3349609 C190.831376,46.3349609 190.270835,46.5787736 189.892578,47.0664062 C189.514321,47.5540389 189.325195,48.2809196 189.325195,49.2470703 L189.325195,49.2470703 Z M201.855469,50.9560547 C201.855469,51.6533238 201.595706,52.1910788 201.076172,52.5693359 C200.556638,52.947593 199.827479,53.1367188 198.888672,53.1367188 C197.895177,53.1367188 197.120445,52.9794938 196.564453,52.6650391 L196.564453,51.6123047 C196.924481,51.7945973 197.310708,51.9381505 197.723145,52.0429688 C198.135581,52.147787 198.533201,52.2001953 198.916016,52.2001953 C199.508467,52.2001953 199.964191,52.1056325 200.283203,51.9165039 C200.602215,51.7273754 200.761719,51.4391295 200.761719,51.0517578 C200.761719,50.7600897 200.635255,50.5105805 200.382324,50.3032227 C200.129393,50.0958648 199.636071,49.8509129 198.902344,49.5683594 C198.205075,49.3085925 197.709474,49.0818695 197.415527,48.8881836 C197.121581,48.6944977 196.902833,48.4746106 196.759277,48.2285156 C196.615722,47.9824206 196.543945,47.6884783 196.543945,47.3466797 C196.543945,46.7359996 196.792315,46.2540708 197.289062,45.9008789 C197.78581,45.547687 198.467118,45.3710938 199.333008,45.3710938 C200.139652,45.3710938 200.928056,45.5351546 201.698242,45.8632812 L201.294922,46.7861328 C200.542965,46.4762354 199.861657,46.3212891 199.250977,46.3212891 C198.713213,46.3212891 198.307619,46.4055981 198.03418,46.5742188 C197.760741,46.7428394 197.624023,46.9752589 197.624023,47.2714844 C197.624023,47.4720062 197.675292,47.6429029 197.777832,47.7841797 C197.880372,47.9254564 198.045572,48.0598952 198.273438,48.1875 C198.501303,48.3151048 198.938799,48.4996733 199.585938,48.7412109 C200.474614,49.0647803 201.075031,49.3906234 201.387207,49.71875 C201.699383,50.0468766 201.855469,50.4593074 201.855469,50.9560547 L201.855469,50.9560547 Z M206.121094,52.2001953 C206.321616,52.2001953 206.515299,52.1853843 206.702148,52.1557617 C206.888998,52.1261392 207.037109,52.0953778 207.146484,52.0634766 L207.146484,52.9316406 C207.023437,52.9908857 206.842286,53.0398761 206.603027,53.0786133 C206.363768,53.1173505 206.148438,53.1367188 205.957031,53.1367188 C204.507805,53.1367188 203.783203,52.37338 203.783203,50.8466797 L203.783203,46.3896484 L202.709961,46.3896484 L202.709961,45.8427734 L203.783203,45.3710938 L204.261719,43.7714844 L204.917969,43.7714844 L204.917969,45.5078125 L207.091797,45.5078125 L207.091797,46.3896484 L204.917969,46.3896484 L204.917969,50.7988281 C204.917969,51.2500023 205.025064,51.596353 205.239258,51.8378906 C205.453452,52.0794283 205.747394,52.2001953 206.121094,52.2001953 L206.121094,52.2001953 Z M214.775391,45.5078125 L214.775391,46.2255859 L213.387695,46.3896484 C213.5153,46.5491544 213.629231,46.7576485 213.729492,47.0151367 C213.829753,47.272625 213.879883,47.5631494 213.879883,47.8867188 C213.879883,48.6204464 213.629234,49.2060525 213.12793,49.6435547 C212.626625,50.0810569 211.938481,50.2998047 211.063477,50.2998047 C210.840168,50.2998047 210.630535,50.2815757 210.43457,50.2451172 C209.951495,50.5003268 209.709961,50.8216126 209.709961,51.2089844 C209.709961,51.4140635 209.79427,51.565592 209.962891,51.6635742 C210.131511,51.7615565 210.420896,51.8105469 210.831055,51.8105469 L212.157227,51.8105469 C212.968429,51.8105469 213.591632,51.9814436 214.026855,52.3232422 C214.462079,52.6650408 214.679688,53.1617806 214.679688,53.8134766 C214.679688,54.6429078 214.347009,55.2752257 213.681641,55.7104492 C213.016273,56.1456727 212.045579,56.3632812 210.769531,56.3632812 C209.789709,56.3632812 209.034345,56.1809914 208.503418,55.8164062 C207.972491,55.4518211 207.707031,54.9368523 207.707031,54.2714844 C207.707031,53.8157529 207.852863,53.4215511 208.144531,53.0888672 C208.436199,52.7561832 208.846352,52.5305996 209.375,52.4121094 C209.183593,52.3255204 209.02295,52.1910816 208.893066,52.0087891 C208.763183,51.8264965 208.698242,51.6145845 208.698242,51.3730469 C208.698242,51.099608 208.771158,50.8603526 208.916992,50.6552734 C209.062826,50.4501943 209.292967,50.2519541 209.607422,50.0605469 C209.22005,49.9010409 208.904461,49.6298847 208.660645,49.2470703 C208.416828,48.8642559 208.294922,48.4267603 208.294922,47.9345703 C208.294922,47.1142537 208.541013,46.4819358 209.033203,46.0375977 C209.525393,45.5932595 210.222652,45.3710938 211.125,45.3710938 C211.516929,45.3710938 211.870116,45.4166662 212.18457,45.5078125 L214.775391,45.5078125 Z M208.800781,54.2578125 C208.800781,54.6634135 208.971678,54.9710276 209.313477,55.1806641 C209.655275,55.3903005 210.145179,55.4951172 210.783203,55.4951172 C211.735682,55.4951172 212.440916,55.3527032 212.898926,55.0678711 C213.356936,54.7830389 213.585938,54.3968123 213.585938,53.9091797 C213.585938,53.5035787 213.460613,53.2221688 213.209961,53.0649414 C212.959309,52.9077141 212.487634,52.8291016 211.794922,52.8291016 L210.43457,52.8291016 C209.919594,52.8291016 209.518556,52.9521472 209.231445,53.1982422 C208.944335,53.4443372 208.800781,53.7975237 208.800781,54.2578125 L208.800781,54.2578125 Z M209.416016,47.9072266 C209.416016,48.4313177 209.564126,48.8277981 209.860352,49.0966797 C210.156577,49.3655612 210.569008,49.5 211.097656,49.5 C212.205084,49.5 212.758789,48.962245 212.758789,47.8867188 C212.758789,46.7610621 212.198248,46.1982422 211.077148,46.1982422 C210.543943,46.1982422 210.13379,46.3417954 209.84668,46.6289062 C209.559569,46.9160171 209.416016,47.3421196 209.416016,47.9072266 L209.416016,47.9072266 Z M219.731445,45.3710938 C220.064129,45.3710938 220.362629,45.3984372 220.626953,45.453125 L220.469727,46.5058594 C220.159829,46.4374997 219.886394,46.4033203 219.649414,46.4033203 C219.043291,46.4033203 218.524904,46.6494116 218.094238,47.1416016 C217.663572,47.6337915 217.448242,48.2467411 217.448242,48.9804688 L217.448242,53 L216.313477,53 L216.313477,45.5078125 L217.25,45.5078125 L217.379883,46.8955078 L217.43457,46.8955078 C217.712566,46.4078752 218.047524,46.0319024 218.439453,45.7675781 C218.831382,45.5032539 219.262042,45.3710938 219.731445,45.3710938 L219.731445,45.3710938 Z M226.355469,53 L226.129883,51.9335938 L226.075195,51.9335938 C225.701496,52.4029971 225.328941,52.7208651 224.95752,52.887207 C224.586098,53.053549 224.122399,53.1367188 223.566406,53.1367188 C222.823564,53.1367188 222.241376,52.9453144 221.819824,52.5625 C221.398273,52.1796856 221.1875,51.6350947 221.1875,50.9287109 C221.1875,49.4156825 222.397449,48.6227217 224.817383,48.5498047 L226.088867,48.5087891 L226.088867,48.0439453 C226.088867,47.4560517 225.962404,47.0219741 225.709473,46.7416992 C225.456542,46.4614244 225.052086,46.3212891 224.496094,46.3212891 C223.871742,46.3212891 223.165369,46.5126934 222.376953,46.8955078 L222.02832,46.0273438 C222.397463,45.8268219 222.801918,45.6695969 223.241699,45.5556641 C223.68148,45.4417312 224.122394,45.3847656 224.564453,45.3847656 C225.457687,45.3847656 226.119627,45.5830058 226.550293,45.9794922 C226.980959,46.3759785 227.196289,47.0117144 227.196289,47.8867188 L227.196289,53 L226.355469,53 Z M223.791992,52.2001953 C224.498376,52.2001953 225.053221,52.0065124 225.456543,51.6191406 C225.859865,51.2317689 226.061523,50.6894566 226.061523,49.9921875 L226.061523,49.3154297 L224.926758,49.3632812 C224.02441,49.3951825 223.373863,49.5353178 222.975098,49.7836914 C222.576333,50.032065 222.376953,50.4182917 222.376953,50.9423828 C222.376953,51.3525411 222.501138,51.6647125 222.749512,51.8789062 C222.997885,52.0931 223.345375,52.2001953 223.791992,52.2001953 L223.791992,52.2001953 Z M239.083984,53 L239.083984,48.1259766 C239.083984,47.5289684 238.956381,47.0812189 238.701172,46.7827148 C238.445962,46.4842107 238.049482,46.3349609 237.511719,46.3349609 C236.805335,46.3349609 236.28353,46.5377584 235.946289,46.9433594 C235.609048,47.3489604 235.44043,47.9733031 235.44043,48.8164062 L235.44043,53 L234.305664,53 L234.305664,48.1259766 C234.305664,47.5289684 234.178061,47.0812189 233.922852,46.7827148 C233.667642,46.4842107 233.268883,46.3349609 232.726562,46.3349609 C232.015621,46.3349609 231.494956,46.5480122 231.164551,46.9741211 C230.834145,47.40023 230.668945,48.098628 230.668945,49.0693359 L230.668945,53 L229.53418,53 L229.53418,45.5078125 L230.457031,45.5078125 L230.641602,46.5332031 L230.696289,46.5332031 C230.910483,46.168618 231.2124,45.8837901 231.602051,45.6787109 C231.991701,45.4736318 232.428057,45.3710938 232.911133,45.3710938 C234.082363,45.3710938 234.84798,45.7949176 235.208008,46.6425781 L235.262695,46.6425781 C235.486004,46.2506491 235.809568,45.9407563 236.233398,45.7128906 C236.657229,45.4850249 237.140297,45.3710938 237.682617,45.3710938 C238.530278,45.3710938 239.164874,45.5887023 239.586426,46.0239258 C240.007977,46.4591493 240.21875,47.1552687 240.21875,48.1123047 L240.21875,53 L239.083984,53 Z M247.389648,50.9560547 C247.389648,51.6533238 247.129885,52.1910788 246.610352,52.5693359 C246.090818,52.947593 245.361658,53.1367188 244.422852,53.1367188 C243.429357,53.1367188 242.654625,52.9794938 242.098633,52.6650391 L242.098633,51.6123047 C242.458661,51.7945973 242.844887,51.9381505 243.257324,52.0429688 C243.669761,52.147787 244.067381,52.2001953 244.450195,52.2001953 C245.042646,52.2001953 245.498371,52.1056325 245.817383,51.9165039 C246.136395,51.7273754 246.295898,51.4391295 246.295898,51.0517578 C246.295898,50.7600897 246.169435,50.5105805 245.916504,50.3032227 C245.663573,50.0958648 245.170251,49.8509129 244.436523,49.5683594 C243.739254,49.3085925 243.243654,49.0818695 242.949707,48.8881836 C242.65576,48.6944977 242.437012,48.4746106 242.293457,48.2285156 C242.149902,47.9824206 242.078125,47.6884783 242.078125,47.3466797 C242.078125,46.7359996 242.326495,46.2540708 242.823242,45.9008789 C243.319989,45.547687 244.001298,45.3710938 244.867188,45.3710938 C245.673832,45.3710938 246.462236,45.5351546 247.232422,45.8632812 L246.829102,46.7861328 C246.077145,46.4762354 245.395836,46.3212891 244.785156,46.3212891 C244.247393,46.3212891 243.841798,46.4055981 243.568359,46.5742188 C243.294921,46.7428394 243.158203,46.9752589 243.158203,47.2714844 C243.158203,47.4720062 243.209472,47.6429029 243.312012,47.7841797 C243.414551,47.9254564 243.579751,48.0598952 243.807617,48.1875 C244.035483,48.3151048 244.472979,48.4996733 245.120117,48.7412109 C246.008794,49.0647803 246.609211,49.3906234 246.921387,49.71875 C247.233563,50.0468766 247.389648,50.4593074 247.389648,50.9560547 L247.389648,50.9560547 Z M250.260742,50.2451172 L249.542969,50.2451172 L249.194336,43.0058594 L250.609375,43.0058594 L250.260742,50.2451172 Z M249.071289,52.2753906 C249.071289,51.6555959 249.344724,51.3457031 249.891602,51.3457031 C250.155926,51.3457031 250.359863,51.4254549 250.503418,51.5849609 C250.646973,51.7444669 250.71875,51.9746079 250.71875,52.2753906 C250.71875,52.5670588 250.645834,52.7937817 250.5,52.9555664 C250.354166,53.1173511 250.151368,53.1982422 249.891602,53.1982422 C249.654621,53.1982422 249.45866,53.1264656 249.303711,52.9829102 C249.148762,52.8393548 249.071289,52.6035173 249.071289,52.2753906 L249.071289,52.2753906 Z" id="Hello," fill="#4A4A4A" sketch:type="MSShapeGroup"></path>
            </g>
        </g>
    </g>
</svg>