<?xml version="1.0" encoding="UTF-8" standalone="no"?>
<svg width="278px" height="72px" viewBox="0 0 278 72" version="1.1" xmlns="http://www.w3.org/2000/svg" xmlns:xlink="http://www.w3.org/1999/xlink" xmlns:sketch="http://www.bohemiancoding.com/sketch/ns">
    <!-- Generator: Sketch 3.4.2 (15857) - http://www.bohemiancoding.com/sketch -->
    <title>introImg + Hello, + Welcome to ghostgram</title>
    <desc>Created with Sketch.</desc>
    <defs>
        <filter x="-50%" y="-50%" width="200%" height="200%" filterUnits="objectBoundingBox" id="filter-1">
            <feOffset dx="0" dy="2" in="SourceAlpha" result="shadowOffsetOuter1"></feOffset>
            <feGaussianBlur stdDeviation="2" in="shadowOffsetOuter1" result="shadowBlurOuter1"></feGaussianBlur>
            <feColorMatrix values="0 0 0 0 0   0 0 0 0 0   0 0 0 0 0  0 0 0 0.0862318841 0" in="shadowBlurOuter1" type="matrix" result="shadowMatrixOuter1"></feColorMatrix>
            <feOffset dx="0" dy="1" in="SourceAlpha" result="shadowOffsetOuter2"></feOffset>
            <feGaussianBlur stdDeviation="0.5" in="shadowOffsetOuter2" result="shadowBlurOuter2"></feGaussianBlur>
            <feColorMatrix values="0 0 0 0 0   0 0 0 0 0   0 0 0 0 0  0 0 0 0.167391304 0" in="shadowBlurOuter2" type="matrix" result="shadowMatrixOuter2"></feColorMatrix>
            <feMerge>
                <feMergeNode in="shadowMatrixOuter1"></feMergeNode>
                <feMergeNode in="shadowMatrixOuter2"></feMergeNode>
                <feMergeNode in="SourceGraphic"></feMergeNode>
            </feMerge>
        </filter>
    </defs>
    <g id="Page-1" stroke="none" stroke-width="1" fill="none" fill-rule="evenodd" sketch:type="MSPage">
        <g id="iPhone-6" sketch:type="MSArtboardGroup" transform="translate(-23.000000, -45.000000)">
            <g id="introImg-+-Hello,-+-Welcome-to-ghostgram" sketch:type="MSLayerGroup" transform="translate(23.000000, 47.000000)">
                <g id="introImg" sketch:type="MSShapeGroup">
                    <path d="M73.3092784,23 C73.3092784,21.8333333 68,16.5 68,16.5 C68,16.5 73.3092784,11.5 73.3092784,10 L73.3092784,1.99733735 C73.3092784,0.894238393 74.2040434,0 75.3118327,0 L271.997446,0 C273.103426,0 274,0.904724121 274,2.00329863 L274,61.9967014 C274,63.1030927 273.105235,64 271.997446,64 L75.3118327,64 C74.2058525,64 73.3092784,63.1072237 73.3092784,62.0025828 L73.3092784,23 Z" id="Rectangle-520" fill="#E8E8E8" filter="url(#filter-1)"></path>
                    <g id="ghost-xl-copy">
                        <g id="Shape-Copy-15-+-Shape-Copy-16">
                            <path d="M27.075641,62.1782701 C27.0083679,60.7387914 27.075641,59.2338819 26.7392753,57.7944032 C25.9319976,54.0648448 23.9138033,51.1858875 20.3483268,49.4846855 C15.0337485,46.9328824 10.1900823,43.7267708 6.08642063,39.5391965 C-1.44817129,31.7529255 -1.58271757,22.6580376 3.46276809,13.5631496 C8.97916575,3.61766066 20.2810536,-1.55137637 31.7174878,0.41154908 C42.9521025,2.30904369 51.8994305,11.0767774 53.6485322,22.2000216 C54.4558099,27.1727661 53.9176247,32.0146489 51.5630647,36.6602391 C49.8139631,39.9972124 47.7957688,43.0724623 45.5757551,46.0822813 C40.799362,52.6253662 36.090242,59.2338819 31.3811221,65.7769667 C30.6411175,66.8238603 29.8338398,68.3287698 28.3538307,67.9361847 C26.7392753,67.4781688 27.1429141,65.8423976 27.075641,64.5337806 C27.0083679,63.7486104 27.075641,63.0288711 27.075641,62.2437009 C27.0083679,62.1782701 27.075641,62.1782701 27.075641,62.1782701 L27.075641,62.1782701 Z M16.3026797,29.7871268 C14.0320605,29.1316003 13.0303167,28.4105212 13.1638826,26.9683629 C13.2974484,25.0673362 14.6331067,24.4118097 16.3694626,24.346257 C17.1040747,24.2807044 16.9705088,23.9529411 16.7701601,23.4940726 C15.6348505,20.8064141 12.1621388,20.0853349 10.0250854,22.117467 C7.82124918,24.2807044 7.68768334,28.2138632 9.82473669,30.5082059 C11.7614413,32.6714433 14.6998897,32.34368 16.3026797,29.7871268 L16.3026797,29.7871268 Z M31.2759134,29.8101537 C30.9411594,29.7448992 30.6733561,29.6143902 30.3386021,29.5491357 C28.9995859,29.1576085 28.0622745,28.3745543 28.1292253,26.8737004 C28.1961761,25.3728465 29.2673891,24.5897923 30.6064053,24.4592833 C32.2801756,24.3287742 31.9454215,23.7414836 31.2759134,22.8279203 C29.669094,20.6092667 26.6563075,20.2829941 24.7816848,22.2406297 C22.6392588,24.4592833 22.6392588,28.5703179 24.9155864,30.723717 C26.9910615,32.616098 29.7360448,32.2898254 31.2759134,29.8101537 L31.2759134,29.8101537 Z" id="Shape-Copy-15" fill="#3CAAEE"></path>
                            <path d="M22.3885327,50.6646941 C24.6801013,52.3860555 26.0614345,54.7908546 26.6955716,57.7205172 C27.0319373,59.1599958 26.9646642,60.6649054 27.0319373,62.104384 C27.0319373,62.104384 26.9646642,62.104384 27.0319373,62.1698149 C27.0319373,62.9549851 26.9646642,63.6747244 27.0319373,64.4598946 C27.0976386,65.7379344 26.7141774,67.3280185 28.2002238,67.8282828 C29.6968134,65.9881327 30.5957948,63.6292762 30.5957948,61.0574271 C30.5957948,55.9747081 27.0846243,51.7238787 22.3885327,50.6646941 Z" id="Shape-Copy-16" fill-opacity="0.25" fill="#27476E"></path>
                        </g>
                        <path d="M37.0112607,3.00904447 C37.1982006,2.82247227 43.6393262,5.55717477 47.0032173,7.99519518 C48.9776533,9.42619128 51,11.9279826 51,12.9813459 C51,13.2306534 49.2806739,10.936866 46.2538206,8.74311778 C38.925765,3.43202165 36.8243208,3.19561667 37.0112607,3.00904447 Z" id="Path-131"></path>
                        <path d="M44.791639,8.9798217 C46.2494315,8.64422737 39.8706794,3.39180897 31.5061209,2.28191386 C23.1415624,1.17201874 14.5085427,3.63957397 15.0218156,4.4940137 C15.5350884,5.34845344 22.6779357,3.14949447 31.0424943,4.25938959 C39.4070528,5.3692847 43.3338464,9.31541604 44.791639,8.9798217 Z" id="Oval-74" fill-opacity="0.100000001" fill="#FFFFFF"></path>
                    </g>
                </g>
                <path d="M100.396973,30 L97.9067383,30 L97.9067383,19.921875 L86.6274414,19.921875 L86.6274414,30 L84.137207,30 L84.137207,8.58398438 L86.6274414,8.58398438 L86.6274414,17.6953125 L97.9067383,17.6953125 L97.9067383,8.58398438 L100.396973,8.58398438 L100.396973,30 Z M112.687012,30.2929688 C110.313953,30.2929688 108.441413,29.5703197 107.069336,28.125 C105.697259,26.6796803 105.01123,24.6728644 105.01123,22.1044922 C105.01123,19.5165886 105.648431,17.4609451 106.922852,15.9375 C108.197272,14.4140549 109.908681,13.6523438 112.057129,13.6523438 C114.068858,13.6523438 115.660639,14.3139582 116.83252,15.637207 C118.0044,16.9604558 118.590332,18.7060438 118.590332,20.8740234 L118.590332,22.4121094 L107.530762,22.4121094 C107.57959,24.2968844 108.05566,25.7275342 108.958984,26.7041016 C109.862309,27.6806689 111.134269,28.1689453 112.774902,28.1689453 C114.503427,28.1689453 116.212394,27.8076208 117.901855,27.0849609 L117.901855,29.2529297 C117.042476,29.6240253 116.229496,29.8901359 115.462891,30.0512695 C114.696285,30.2124031 113.771002,30.2929688 112.687012,30.2929688 L112.687012,30.2929688 Z M112.027832,15.6884766 C110.738763,15.6884766 109.710941,16.1083942 108.944336,16.9482422 C108.177731,17.7880901 107.726075,18.9501879 107.589355,20.4345703 L115.98291,20.4345703 C115.98291,18.9013595 115.641117,17.7270549 114.95752,16.9116211 C114.273922,16.0961873 113.29737,15.6884766 112.027832,15.6884766 L112.027832,15.6884766 Z M125.16748,30 L122.73584,30 L122.73584,7.20703125 L125.16748,7.20703125 L125.16748,30 Z M132.755371,30 L130.32373,30 L130.32373,7.20703125 L132.755371,7.20703125 L132.755371,30 Z M151.769043,21.9580078 C151.769043,24.5752084 151.10987,26.618645 149.791504,28.0883789 C148.473138,29.5581128 146.651867,30.2929688 144.327637,30.2929688 C142.892083,30.2929688 141.617681,29.9560581 140.504395,29.2822266 C139.391108,28.6083951 138.531741,27.6416079 137.92627,26.3818359 C137.320798,25.122064 137.018066,23.6474694 137.018066,21.9580078 C137.018066,19.3408072 137.672357,17.3022534 138.980957,15.8422852 C140.289557,14.3823169 142.105945,13.6523438 144.430176,13.6523438 C146.676281,13.6523438 148.460931,14.3994066 149.78418,15.8935547 C151.107428,17.3877028 151.769043,19.4091669 151.769043,21.9580078 L151.769043,21.9580078 Z M139.537598,21.9580078 C139.537598,24.0087993 139.94775,25.5712837 140.768066,26.6455078 C141.588383,27.7197319 142.794426,28.2568359 144.38623,28.2568359 C145.978035,28.2568359 147.186519,27.7221733 148.011719,26.652832 C148.836918,25.5834907 149.249512,24.018565 149.249512,21.9580078 C149.249512,19.916982 148.836918,18.3667045 148.011719,17.3071289 C147.186519,16.2475533 145.96827,15.7177734 144.356934,15.7177734 C142.765129,15.7177734 141.563969,16.2402292 140.753418,17.2851562 C139.942867,18.3300833 139.537598,19.887685 139.537598,21.9580078 L139.537598,21.9580078 Z M158.580566,26.5136719 L158.800293,26.8505859 C158.546385,27.8271533 158.180178,28.9623959 157.70166,30.2563477 C157.223142,31.5502994 156.7251,32.7539007 156.20752,33.8671875 L154.376465,33.8671875 C154.640138,32.8515574 154.930662,31.5966872 155.248047,30.1025391 C155.565431,28.608391 155.787597,27.4121139 155.914551,26.5136719 L158.580566,26.5136719 Z" id="Hello," fill="#4A4A4A" sketch:type="MSShapeGroup"></path>
                <path d="M92.8007812,53 L91.4882812,53 L89.1835938,45.3515625 C89.0742182,45.0130191 88.9518236,44.5859401 88.8164062,44.0703125 C88.6809889,43.5546849 88.6106771,43.2447922 88.6054688,43.140625 C88.4908848,43.8281284 88.308595,44.5807251 88.0585938,45.3984375 L85.8242188,53 L84.5117188,53 L81.4726562,41.578125 L82.8789062,41.578125 L84.6835938,48.6328125 C84.933595,49.6224008 85.1158848,50.5182252 85.2304688,51.3203125 C85.3710945,50.3671827 85.5794257,49.4349004 85.8554688,48.5234375 L87.9023438,41.578125 L89.3085938,41.578125 L91.4570312,48.5859375 C91.7070325,49.3932332 91.9179679,50.3046824 92.0898438,51.3203125 C92.1888026,50.5807255 92.3763007,49.6796928 92.6523438,48.6171875 L94.4492188,41.578125 L95.8554688,41.578125 L92.8007812,53 Z M100.746094,53.15625 C99.4804624,53.15625 98.4817745,52.7708372 97.75,52 C97.0182255,51.2291628 96.6523438,50.158861 96.6523438,48.7890625 C96.6523438,47.4088473 96.9921841,46.3125041 97.671875,45.5 C98.3515659,44.6874959 99.2643172,44.28125 100.410156,44.28125 C101.483078,44.28125 102.332028,44.6341111 102.957031,45.3398438 C103.582034,46.0455764 103.894531,46.9765567 103.894531,48.1328125 L103.894531,48.953125 L97.9960938,48.953125 C98.0221355,49.9583384 98.2760393,50.7213516 98.7578125,51.2421875 C99.2395857,51.7630234 99.9179644,52.0234375 100.792969,52.0234375 C101.714848,52.0234375 102.626298,51.8307311 103.527344,51.4453125 L103.527344,52.6015625 C103.069008,52.7994802 102.635419,52.9414058 102.226562,53.0273438 C101.817706,53.1132817 101.324222,53.15625 100.746094,53.15625 L100.746094,53.15625 Z M100.394531,45.3671875 C99.7070278,45.3671875 99.1588562,45.5911436 98.75,46.0390625 C98.3411438,46.4869814 98.1002608,47.1067669 98.0273438,47.8984375 L102.503906,47.8984375 C102.503906,47.0807251 102.321616,46.4544293 101.957031,46.0195312 C101.592446,45.5846332 101.071618,45.3671875 100.394531,45.3671875 L100.394531,45.3671875 Z M107.402344,53 L106.105469,53 L106.105469,40.84375 L107.402344,40.84375 L107.402344,53 Z M113.574219,53.15625 C112.334629,53.15625 111.375003,52.7747434 110.695312,52.0117188 C110.015622,51.2486941 109.675781,50.1692778 109.675781,48.7734375 C109.675781,47.3411387 110.02083,46.2343789 110.710938,45.453125 C111.401045,44.6718711 112.384108,44.28125 113.660156,44.28125 C114.071617,44.28125 114.483071,44.3255204 114.894531,44.4140625 C115.305992,44.5026046 115.628905,44.6067702 115.863281,44.7265625 L115.464844,45.828125 C115.178384,45.7135411 114.865887,45.61849 114.527344,45.5429688 C114.1888,45.4674475 113.889324,45.4296875 113.628906,45.4296875 C111.889314,45.4296875 111.019531,46.5390514 111.019531,48.7578125 C111.019531,49.8099011 111.231769,50.6171847 111.65625,51.1796875 C112.080731,51.7421903 112.709631,52.0234375 113.542969,52.0234375 C114.256514,52.0234375 114.988278,51.8697932 115.738281,51.5625 L115.738281,52.7109375 C115.165362,53.007814 114.444015,53.15625 113.574219,53.15625 L113.574219,53.15625 Z M125.160156,48.7109375 C125.160156,50.1067778 124.808597,51.1966107 124.105469,51.9804688 C123.40234,52.7643268 122.430996,53.15625 121.191406,53.15625 C120.425777,53.15625 119.746097,52.9765643 119.152344,52.6171875 C118.558591,52.2578107 118.100262,51.7421909 117.777344,51.0703125 C117.454425,50.3984341 117.292969,49.6119837 117.292969,48.7109375 C117.292969,47.3150972 117.641924,46.2278685 118.339844,45.4492188 C119.037764,44.670569 120.006504,44.28125 121.246094,44.28125 C122.444016,44.28125 123.39583,44.6796835 124.101562,45.4765625 C124.807295,46.2734415 125.160156,47.3515557 125.160156,48.7109375 L125.160156,48.7109375 Z M118.636719,48.7109375 C118.636719,49.804693 118.855467,50.638018 119.292969,51.2109375 C119.730471,51.783857 120.373694,52.0703125 121.222656,52.0703125 C122.071619,52.0703125 122.716144,51.7851591 123.15625,51.2148438 C123.596356,50.6445284 123.816406,49.8099013 123.816406,48.7109375 C123.816406,47.6223904 123.596356,46.7955757 123.15625,46.2304688 C122.716144,45.6653618 122.066411,45.3828125 121.207031,45.3828125 C120.358069,45.3828125 119.71745,45.6614555 119.285156,46.21875 C118.852862,46.7760445 118.636719,47.6067653 118.636719,48.7109375 L118.636719,48.7109375 Z M138.347656,53 L138.347656,47.4296875 C138.347656,46.7473924 138.201824,46.2356788 137.910156,45.8945312 C137.618488,45.5533837 137.165368,45.3828125 136.550781,45.3828125 C135.743486,45.3828125 135.147137,45.614581 134.761719,46.078125 C134.3763,46.541669 134.183594,47.2552035 134.183594,48.21875 L134.183594,53 L132.886719,53 L132.886719,47.4296875 C132.886719,46.7473924 132.740887,46.2356788 132.449219,45.8945312 C132.157551,45.5533837 131.701826,45.3828125 131.082031,45.3828125 C130.269527,45.3828125 129.674481,45.6262996 129.296875,46.1132812 C128.919269,46.6002629 128.730469,47.398432 128.730469,48.5078125 L128.730469,53 L127.433594,53 L127.433594,44.4375 L128.488281,44.4375 L128.699219,45.609375 L128.761719,45.609375 C129.006512,45.1927063 129.35156,44.8671887 129.796875,44.6328125 C130.24219,44.3984363 130.740883,44.28125 131.292969,44.28125 C132.631517,44.28125 133.506508,44.7656202 133.917969,45.734375 L133.980469,45.734375 C134.235678,45.2864561 134.605466,44.932293 135.089844,44.671875 C135.574221,44.411457 136.126299,44.28125 136.746094,44.28125 C137.714849,44.28125 138.440102,44.5299454 138.921875,45.0273438 C139.403648,45.5247421 139.644531,46.320307 139.644531,47.4140625 L139.644531,53 L138.347656,53 Z M145.933594,53.15625 C144.667962,53.15625 143.669274,52.7708372 142.9375,52 C142.205726,51.2291628 141.839844,50.158861 141.839844,48.7890625 C141.839844,47.4088473 142.179684,46.3125041 142.859375,45.5 C143.539066,44.6874959 144.451817,44.28125 145.597656,44.28125 C146.670578,44.28125 147.519528,44.6341111 148.144531,45.3398438 C148.769534,46.0455764 149.082031,46.9765567 149.082031,48.1328125 L149.082031,48.953125 L143.183594,48.953125 C143.209636,49.9583384 143.463539,50.7213516 143.945312,51.2421875 C144.427086,51.7630234 145.105464,52.0234375 145.980469,52.0234375 C146.902348,52.0234375 147.813798,51.8307311 148.714844,51.4453125 L148.714844,52.6015625 C148.256508,52.7994802 147.822919,52.9414058 147.414062,53.0273438 C147.005206,53.1132817 146.511722,53.15625 145.933594,53.15625 L145.933594,53.15625 Z M145.582031,45.3671875 C144.894528,45.3671875 144.346356,45.5911436 143.9375,46.0390625 C143.528644,46.4869814 143.287761,47.1067669 143.214844,47.8984375 L147.691406,47.8984375 C147.691406,47.0807251 147.509116,46.4544293 147.144531,46.0195312 C146.779946,45.5846332 146.259118,45.3671875 145.582031,45.3671875 L145.582031,45.3671875 Z M158.214844,52.0859375 C158.444012,52.0859375 158.665364,52.0690106 158.878906,52.0351562 C159.092449,52.0013019 159.261718,51.966146 159.386719,51.9296875 L159.386719,52.921875 C159.246093,52.9895837 159.039064,53.0455727 158.765625,53.0898438 C158.492186,53.1341148 158.246095,53.15625 158.027344,53.15625 C156.371085,53.15625 155.542969,52.2838629 155.542969,50.5390625 L155.542969,45.4453125 L154.316406,45.4453125 L154.316406,44.8203125 L155.542969,44.28125 L156.089844,42.453125 L156.839844,42.453125 L156.839844,44.4375 L159.324219,44.4375 L159.324219,45.4453125 L156.839844,45.4453125 L156.839844,50.484375 C156.839844,51.0000026 156.962238,51.395832 157.207031,51.671875 C157.451824,51.947918 157.787758,52.0859375 158.214844,52.0859375 L158.214844,52.0859375 Z M168.488281,48.7109375 C168.488281,50.1067778 168.136722,51.1966107 167.433594,51.9804688 C166.730465,52.7643268 165.759121,53.15625 164.519531,53.15625 C163.753902,53.15625 163.074222,52.9765643 162.480469,52.6171875 C161.886716,52.2578107 161.428387,51.7421909 161.105469,51.0703125 C160.78255,50.3984341 160.621094,49.6119837 160.621094,48.7109375 C160.621094,47.3150972 160.970049,46.2278685 161.667969,45.4492188 C162.365889,44.670569 163.334629,44.28125 164.574219,44.28125 C165.772141,44.28125 166.723955,44.6796835 167.429688,45.4765625 C168.13542,46.2734415 168.488281,47.3515557 168.488281,48.7109375 L168.488281,48.7109375 Z M161.964844,48.7109375 C161.964844,49.804693 162.183592,50.638018 162.621094,51.2109375 C163.058596,51.783857 163.701819,52.0703125 164.550781,52.0703125 C165.399744,52.0703125 166.044269,51.7851591 166.484375,51.2148438 C166.924481,50.6445284 167.144531,49.8099013 167.144531,48.7109375 C167.144531,47.6223904 166.924481,46.7955757 166.484375,46.2304688 C166.044269,45.6653618 165.394536,45.3828125 164.535156,45.3828125 C163.686194,45.3828125 163.045575,45.6614555 162.613281,46.21875 C162.180987,46.7760445 161.964844,47.6067653 161.964844,48.7109375 L161.964844,48.7109375 Z M181.925781,44.4375 L181.925781,45.2578125 L180.339844,45.4453125 C180.485678,45.6276051 180.615885,45.8658839 180.730469,46.1601562 C180.845053,46.4544286 180.902344,46.7864565 180.902344,47.15625 C180.902344,47.9947959 180.615888,48.66406 180.042969,49.1640625 C179.470049,49.664065 178.683599,49.9140625 177.683594,49.9140625 C177.428384,49.9140625 177.188803,49.8932294 176.964844,49.8515625 C176.412758,50.1432306 176.136719,50.5104145 176.136719,50.953125 C176.136719,51.1875012 176.233072,51.3606765 176.425781,51.4726562 C176.618491,51.584636 176.949216,51.640625 177.417969,51.640625 L178.933594,51.640625 C179.860682,51.640625 180.572914,51.8359355 181.070312,52.2265625 C181.567711,52.6171895 181.816406,53.1848921 181.816406,53.9296875 C181.816406,54.8776089 181.436202,55.6002579 180.675781,56.0976562 C179.915361,56.5950546 178.805997,56.84375 177.347656,56.84375 C176.227859,56.84375 175.364586,56.6354187 174.757812,56.21875 C174.151039,55.8020813 173.847656,55.2135455 173.847656,54.453125 C173.847656,53.9322891 174.014321,53.4817727 174.347656,53.1015625 C174.680991,52.7213523 175.149737,52.4635423 175.753906,52.328125 C175.535155,52.2291662 175.351563,52.0755219 175.203125,51.8671875 C175.054687,51.6588531 174.980469,51.416668 174.980469,51.140625 C174.980469,50.8281234 175.063801,50.5546887 175.230469,50.3203125 C175.397136,50.0859363 175.660154,49.8593761 176.019531,49.640625 C175.576821,49.4583324 175.216147,49.1484397 174.9375,48.7109375 C174.658853,48.2734353 174.519531,47.7734403 174.519531,47.2109375 C174.519531,46.2734328 174.800778,45.5507838 175.363281,45.0429688 C175.925784,44.5351537 176.722651,44.28125 177.753906,44.28125 C178.201825,44.28125 178.605467,44.3333328 178.964844,44.4375 L181.925781,44.4375 Z M175.097656,54.4375 C175.097656,54.901044 175.292967,55.252603 175.683594,55.4921875 C176.074221,55.731772 176.634111,55.8515625 177.363281,55.8515625 C178.451828,55.8515625 179.25781,55.6888037 179.78125,55.3632812 C180.30469,55.0377588 180.566406,54.596357 180.566406,54.0390625 C180.566406,53.5755185 180.423179,53.2539071 180.136719,53.0742188 C179.850259,52.8945304 179.311202,52.8046875 178.519531,52.8046875 L176.964844,52.8046875 C176.376299,52.8046875 175.91797,52.9453111 175.589844,53.2265625 C175.261717,53.5078139 175.097656,53.9114557 175.097656,54.4375 L175.097656,54.4375 Z M175.800781,47.1796875 C175.800781,47.7786488 175.97005,48.2317693 176.308594,48.5390625 C176.647137,48.8463557 177.118487,49 177.722656,49 C178.988288,49 179.621094,48.3854228 179.621094,47.15625 C179.621094,45.8697852 178.980475,45.2265625 177.699219,45.2265625 C177.089841,45.2265625 176.621095,45.3906234 176.292969,45.71875 C175.964842,46.0468766 175.800781,46.5338509 175.800781,47.1796875 L175.800781,47.1796875 Z M189.542969,53 L189.542969,47.4609375 C189.542969,46.7630173 189.384116,46.2421892 189.066406,45.8984375 C188.748696,45.5546858 188.251305,45.3828125 187.574219,45.3828125 C186.673173,45.3828125 186.015627,45.6276017 185.601562,46.1171875 C185.187498,46.6067733 184.980469,47.4088486 184.980469,48.5234375 L184.980469,53 L183.683594,53 L183.683594,40.84375 L184.980469,40.84375 L184.980469,44.5234375 C184.980469,44.966148 184.959636,45.3333319 184.917969,45.625 L184.996094,45.625 C185.251303,45.2135396 185.614581,44.8893241 186.085938,44.6523438 C186.557294,44.4153634 187.095049,44.296875 187.699219,44.296875 C188.746099,44.296875 189.531247,44.5455704 190.054688,45.0429688 C190.578128,45.5403671 190.839844,46.3307238 190.839844,47.4140625 L190.839844,53 L189.542969,53 Z M200.894531,48.7109375 C200.894531,50.1067778 200.542972,51.1966107 199.839844,51.9804688 C199.136715,52.7643268 198.165371,53.15625 196.925781,53.15625 C196.160152,53.15625 195.480472,52.9765643 194.886719,52.6171875 C194.292966,52.2578107 193.834637,51.7421909 193.511719,51.0703125 C193.1888,50.3984341 193.027344,49.6119837 193.027344,48.7109375 C193.027344,47.3150972 193.376299,46.2278685 194.074219,45.4492188 C194.772139,44.670569 195.740879,44.28125 196.980469,44.28125 C198.178391,44.28125 199.130205,44.6796835 199.835938,45.4765625 C200.54167,46.2734415 200.894531,47.3515557 200.894531,48.7109375 L200.894531,48.7109375 Z M194.371094,48.7109375 C194.371094,49.804693 194.589842,50.638018 195.027344,51.2109375 C195.464846,51.783857 196.108069,52.0703125 196.957031,52.0703125 C197.805994,52.0703125 198.450519,51.7851591 198.890625,51.2148438 C199.330731,50.6445284 199.550781,49.8099013 199.550781,48.7109375 C199.550781,47.6223904 199.330731,46.7955757 198.890625,46.2304688 C198.450519,45.6653618 197.800786,45.3828125 196.941406,45.3828125 C196.092444,45.3828125 195.451825,45.6614555 195.019531,46.21875 C194.587237,46.7760445 194.371094,47.6067653 194.371094,48.7109375 L194.371094,48.7109375 Z M208.691406,50.6640625 C208.691406,51.4609415 208.394534,52.0755187 207.800781,52.5078125 C207.207028,52.9401063 206.373703,53.15625 205.300781,53.15625 C204.165359,53.15625 203.279951,52.9765643 202.644531,52.6171875 L202.644531,51.4140625 C203.055992,51.6223969 203.497393,51.7864577 203.96875,51.90625 C204.440107,52.0260423 204.894529,52.0859375 205.332031,52.0859375 C206.009118,52.0859375 206.529946,51.9778657 206.894531,51.7617188 C207.259116,51.5455718 207.441406,51.216148 207.441406,50.7734375 C207.441406,50.4401025 207.296876,50.1549491 207.007812,49.9179688 C206.718749,49.6809884 206.154952,49.4010433 205.316406,49.078125 C204.519527,48.7812485 203.953127,48.5221365 203.617188,48.3007812 C203.281248,48.079426 203.031251,47.8281264 202.867188,47.546875 C202.703124,47.2656236 202.621094,46.9296895 202.621094,46.5390625 C202.621094,45.8411423 202.904945,45.2903666 203.472656,44.8867188 C204.040367,44.4830709 204.819005,44.28125 205.808594,44.28125 C206.730473,44.28125 207.631506,44.4687481 208.511719,44.84375 L208.050781,45.8984375 C207.191402,45.5442691 206.412764,45.3671875 205.714844,45.3671875 C205.100257,45.3671875 204.63672,45.4635407 204.324219,45.65625 C204.011717,45.8489593 203.855469,46.1145816 203.855469,46.453125 C203.855469,46.6822928 203.914062,46.8776034 204.03125,47.0390625 C204.148438,47.2005216 204.337238,47.3541659 204.597656,47.5 C204.858074,47.6458341 205.358069,47.8567695 206.097656,48.1328125 C207.113286,48.502606 207.799477,48.8749981 208.15625,49.25 C208.513023,49.6250019 208.691406,50.0963513 208.691406,50.6640625 L208.691406,50.6640625 Z M213.566406,52.0859375 C213.795574,52.0859375 214.016926,52.0690106 214.230469,52.0351562 C214.444011,52.0013019 214.613281,51.966146 214.738281,51.9296875 L214.738281,52.921875 C214.597656,52.9895837 214.390626,53.0455727 214.117188,53.0898438 C213.843749,53.1341148 213.597657,53.15625 213.378906,53.15625 C211.722648,53.15625 210.894531,52.2838629 210.894531,50.5390625 L210.894531,45.4453125 L209.667969,45.4453125 L209.667969,44.8203125 L210.894531,44.28125 L211.441406,42.453125 L212.191406,42.453125 L212.191406,44.4375 L214.675781,44.4375 L214.675781,45.4453125 L212.191406,45.4453125 L212.191406,50.484375 C212.191406,51.0000026 212.313801,51.395832 212.558594,51.671875 C212.803387,51.947918 213.139321,52.0859375 213.566406,52.0859375 L213.566406,52.0859375 Z M223.457031,44.4375 L223.457031,45.2578125 L221.871094,45.4453125 C222.016928,45.6276051 222.147135,45.8658839 222.261719,46.1601562 C222.376303,46.4544286 222.433594,46.7864565 222.433594,47.15625 C222.433594,47.9947959 222.147138,48.66406 221.574219,49.1640625 C221.001299,49.664065 220.214849,49.9140625 219.214844,49.9140625 C218.959634,49.9140625 218.720053,49.8932294 218.496094,49.8515625 C217.944008,50.1432306 217.667969,50.5104145 217.667969,50.953125 C217.667969,51.1875012 217.764322,51.3606765 217.957031,51.4726562 C218.149741,51.584636 218.480466,51.640625 218.949219,51.640625 L220.464844,51.640625 C221.391932,51.640625 222.104164,51.8359355 222.601562,52.2265625 C223.098961,52.6171895 223.347656,53.1848921 223.347656,53.9296875 C223.347656,54.8776089 222.967452,55.6002579 222.207031,56.0976562 C221.446611,56.5950546 220.337247,56.84375 218.878906,56.84375 C217.759109,56.84375 216.895836,56.6354187 216.289062,56.21875 C215.682289,55.8020813 215.378906,55.2135455 215.378906,54.453125 C215.378906,53.9322891 215.545571,53.4817727 215.878906,53.1015625 C216.212241,52.7213523 216.680987,52.4635423 217.285156,52.328125 C217.066405,52.2291662 216.882813,52.0755219 216.734375,51.8671875 C216.585937,51.6588531 216.511719,51.416668 216.511719,51.140625 C216.511719,50.8281234 216.595051,50.5546887 216.761719,50.3203125 C216.928386,50.0859363 217.191404,49.8593761 217.550781,49.640625 C217.108071,49.4583324 216.747397,49.1484397 216.46875,48.7109375 C216.190103,48.2734353 216.050781,47.7734403 216.050781,47.2109375 C216.050781,46.2734328 216.332028,45.5507838 216.894531,45.0429688 C217.457034,44.5351537 218.253901,44.28125 219.285156,44.28125 C219.733075,44.28125 220.136717,44.3333328 220.496094,44.4375 L223.457031,44.4375 Z M216.628906,54.4375 C216.628906,54.901044 216.824217,55.252603 217.214844,55.4921875 C217.605471,55.731772 218.165361,55.8515625 218.894531,55.8515625 C219.983078,55.8515625 220.78906,55.6888037 221.3125,55.3632812 C221.83594,55.0377588 222.097656,54.596357 222.097656,54.0390625 C222.097656,53.5755185 221.954429,53.2539071 221.667969,53.0742188 C221.381509,52.8945304 220.842452,52.8046875 220.050781,52.8046875 L218.496094,52.8046875 C217.907549,52.8046875 217.44922,52.9453111 217.121094,53.2265625 C216.792967,53.5078139 216.628906,53.9114557 216.628906,54.4375 L216.628906,54.4375 Z M217.332031,47.1796875 C217.332031,47.7786488 217.5013,48.2317693 217.839844,48.5390625 C218.178387,48.8463557 218.649737,49 219.253906,49 C220.519538,49 221.152344,48.3854228 221.152344,47.15625 C221.152344,45.8697852 220.511725,45.2265625 219.230469,45.2265625 C218.621091,45.2265625 218.152345,45.3906234 217.824219,45.71875 C217.496092,46.0468766 217.332031,46.5338509 217.332031,47.1796875 L217.332031,47.1796875 Z M229.121094,44.28125 C229.501304,44.28125 229.842446,44.3124997 230.144531,44.375 L229.964844,45.578125 C229.610675,45.4999996 229.298178,45.4609375 229.027344,45.4609375 C228.334632,45.4609375 227.74219,45.7421847 227.25,46.3046875 C226.75781,46.8671903 226.511719,47.5677041 226.511719,48.40625 L226.511719,53 L225.214844,53 L225.214844,44.4375 L226.285156,44.4375 L226.433594,46.0234375 L226.496094,46.0234375 C226.813804,45.466143 227.196612,45.0364598 227.644531,44.734375 C228.09245,44.4322902 228.584633,44.28125 229.121094,44.28125 L229.121094,44.28125 Z M236.691406,53 L236.433594,51.78125 L236.371094,51.78125 C235.944008,52.317711 235.518231,52.6809886 235.09375,52.8710938 C234.669269,53.0611989 234.139326,53.15625 233.503906,53.15625 C232.654944,53.15625 231.989586,52.9375022 231.507812,52.5 C231.026039,52.0624978 230.785156,51.4401082 230.785156,50.6328125 C230.785156,48.9036372 232.167955,47.9973962 234.933594,47.9140625 L236.386719,47.8671875 L236.386719,47.3359375 C236.386719,46.6640591 236.242189,46.1679704 235.953125,45.8476562 C235.664061,45.5273421 235.201826,45.3671875 234.566406,45.3671875 C233.852861,45.3671875 233.045577,45.5859353 232.144531,46.0234375 L231.746094,45.03125 C232.167971,44.8020822 232.630206,44.6223965 233.132812,44.4921875 C233.635419,44.3619785 234.13932,44.296875 234.644531,44.296875 C235.66537,44.296875 236.421873,44.5234352 236.914062,44.9765625 C237.406252,45.4296898 237.652344,46.156245 237.652344,47.15625 L237.652344,53 L236.691406,53 Z M233.761719,52.0859375 C234.569014,52.0859375 235.203123,51.8645855 235.664062,51.421875 C236.125002,50.9791645 236.355469,50.359379 236.355469,49.5625 L236.355469,48.7890625 L235.058594,48.84375 C234.027339,48.8802085 233.283856,49.0403632 232.828125,49.3242188 C232.372394,49.6080743 232.144531,50.0494762 232.144531,50.6484375 C232.144531,51.1171898 232.286457,51.4739571 232.570312,51.71875 C232.854168,51.9635429 233.2513,52.0859375 233.761719,52.0859375 L233.761719,52.0859375 Z M251.238281,53 L251.238281,47.4296875 C251.238281,46.7473924 251.092449,46.2356788 250.800781,45.8945312 C250.509113,45.5533837 250.055993,45.3828125 249.441406,45.3828125 C248.634111,45.3828125 248.037762,45.614581 247.652344,46.078125 C247.266925,46.541669 247.074219,47.2552035 247.074219,48.21875 L247.074219,53 L245.777344,53 L245.777344,47.4296875 C245.777344,46.7473924 245.631512,46.2356788 245.339844,45.8945312 C245.048176,45.5533837 244.592451,45.3828125 243.972656,45.3828125 C243.160152,45.3828125 242.565106,45.6262996 242.1875,46.1132812 C241.809894,46.6002629 241.621094,47.398432 241.621094,48.5078125 L241.621094,53 L240.324219,53 L240.324219,44.4375 L241.378906,44.4375 L241.589844,45.609375 L241.652344,45.609375 C241.897137,45.1927063 242.242185,44.8671887 242.6875,44.6328125 C243.132815,44.3984363 243.631508,44.28125 244.183594,44.28125 C245.522142,44.28125 246.397133,44.7656202 246.808594,45.734375 L246.871094,45.734375 C247.126303,45.2864561 247.496091,44.932293 247.980469,44.671875 C248.464846,44.411457 249.016924,44.28125 249.636719,44.28125 C250.605474,44.28125 251.330727,44.5299454 251.8125,45.0273438 C252.294273,45.5247421 252.535156,46.320307 252.535156,47.4140625 L252.535156,53 L251.238281,53 Z M260.730469,50.6640625 C260.730469,51.4609415 260.433597,52.0755187 259.839844,52.5078125 C259.246091,52.9401063 258.412766,53.15625 257.339844,53.15625 C256.204421,53.15625 255.319014,52.9765643 254.683594,52.6171875 L254.683594,51.4140625 C255.095054,51.6223969 255.536456,51.7864577 256.007812,51.90625 C256.479169,52.0260423 256.933592,52.0859375 257.371094,52.0859375 C258.04818,52.0859375 258.569009,51.9778657 258.933594,51.7617188 C259.298179,51.5455718 259.480469,51.216148 259.480469,50.7734375 C259.480469,50.4401025 259.335939,50.1549491 259.046875,49.9179688 C258.757811,49.6809884 258.194015,49.4010433 257.355469,49.078125 C256.55859,48.7812485 255.992189,48.5221365 255.65625,48.3007812 C255.320311,48.079426 255.070313,47.8281264 254.90625,47.546875 C254.742187,47.2656236 254.660156,46.9296895 254.660156,46.5390625 C254.660156,45.8411423 254.944008,45.2903666 255.511719,44.8867188 C256.07943,44.4830709 256.858068,44.28125 257.847656,44.28125 C258.769536,44.28125 259.670569,44.4687481 260.550781,44.84375 L260.089844,45.8984375 C259.230464,45.5442691 258.451826,45.3671875 257.753906,45.3671875 C257.13932,45.3671875 256.675783,45.4635407 256.363281,45.65625 C256.05078,45.8489593 255.894531,46.1145816 255.894531,46.453125 C255.894531,46.6822928 255.953124,46.8776034 256.070312,47.0390625 C256.187501,47.2005216 256.376301,47.3541659 256.636719,47.5 C256.897137,47.6458341 257.397132,47.8567695 258.136719,48.1328125 C259.152349,48.502606 259.83854,48.8749981 260.195312,49.25 C260.552085,49.6250019 260.730469,50.0963513 260.730469,50.6640625 L260.730469,50.6640625 Z M264.011719,49.8515625 L263.191406,49.8515625 L262.792969,41.578125 L264.410156,41.578125 L264.011719,49.8515625 Z M262.652344,52.171875 C262.652344,51.4635381 262.964841,51.109375 263.589844,51.109375 C263.891929,51.109375 264.124999,51.2005199 264.289062,51.3828125 C264.453126,51.5651051 264.535156,51.8281233 264.535156,52.171875 C264.535156,52.50521 264.451824,52.764322 264.285156,52.9492188 C264.118489,53.1341155 263.88672,53.2265625 263.589844,53.2265625 C263.319009,53.2265625 263.095053,53.1445321 262.917969,52.9804688 C262.740885,52.8164054 262.652344,52.5468769 262.652344,52.171875 L262.652344,52.171875 Z" id="Welcome-to-ghostgram" fill="#4A4A4A" sketch:type="MSShapeGroup"></path>
            </g>
        </g>
    </g>
</svg>