<?xml version="1.0" encoding="UTF-8" standalone="no"?>
<svg width="72px" height="14px" viewBox="0 0 72 14" version="1.1" xmlns="http://www.w3.org/2000/svg" xmlns:xlink="http://www.w3.org/1999/xlink" xmlns:sketch="http://www.bohemiancoding.com/sketch/ns">
    <!-- Generator: Sketch 3.3.2 (12043) - http://www.bohemiancoding.com/sketch -->
    <title>Imported Layers</title>
    <desc>Created with Sketch.</desc>
    <defs></defs>
    <g id="Page-1" stroke="none" stroke-width="1" fill="none" fill-rule="evenodd" sketch:type="MSPage">
        <g id="iPhone-6" sketch:type="MSArtboardGroup" transform="translate(-151.000000, -171.000000)" fill="#979797">
            <g id="Imported-Layers" sketch:type="MSLayerGroup" transform="translate(151.000000, 167.000000)">
                <path d="M8.26811594,9.16449275 C8.26811594,8.90289855 8.0557971,8.69057971 7.7942029,8.69057971 L2.27028986,8.69057971 C2.00833333,8.69057971 1.79601449,8.90289855 1.79601449,9.16449275 C1.79601449,9.42644928 2.00833333,9.63876812 2.27028986,9.63876812 L7.7942029,9.63876812 C8.0557971,9.64021739 8.26811594,9.42644928 8.26811594,9.16449275 Z M9.81086957,11.4927536 C9.81086957,11.2311594 9.59855072,11.0188406 9.33695652,11.0188406 L3.8115942,11.0188406 C3.54963768,11.0188406 3.33731884,11.2311594 3.33731884,11.4927536 C3.33731884,11.7547101 3.54963768,11.967029 3.8115942,11.967029 L9.33550725,11.967029 C9.59710145,11.967029 9.81086957,11.7547101 9.81086957,11.4927536 Z M10.2851449,13.3442029 L4.76123188,13.3442029 C4.49927536,13.3442029 4.28695652,13.5561594 4.28695652,13.8181159 C4.28695652,14.0800725 4.49927536,14.2923913 4.76123188,14.2923913 L10.2851449,14.2923913 C10.5467391,14.2923913 10.759058,14.0800725 10.759058,13.8181159 C10.759058,13.5576087 10.5467391,13.3442029 10.2851449,13.3442029 Z M24.7199275,6.74166667 C24.7224638,6.72898551 24.7224638,6.71630435 24.723913,6.70217391 C24.7268116,6.67355072 24.7268116,6.64673913 24.723913,6.61847826 C24.7224638,6.6057971 24.7224638,6.59311594 24.7210145,6.58043478 C24.717029,6.55072464 24.7097826,6.52101449 24.7,6.4923913 C24.6971014,6.4826087 24.6956522,6.47282609 24.6913043,6.46268116 C24.6902174,6.46014493 24.6902174,6.45724638 24.6887681,6.4557971 C24.6731884,6.41884058 24.6547101,6.38478261 24.6333333,6.35398551 C24.6318841,6.35253623 24.6318841,6.35253623 24.6318841,6.35108696 C24.6293478,6.34673913 24.625,6.3423913 24.6206522,6.3384058 C24.6007246,6.30978261 24.5782609,6.28442029 24.5528986,6.26195652 C24.5427536,6.25326087 24.532971,6.24492754 24.5231884,6.23768116 C24.5018116,6.22065217 24.4789855,6.20507246 24.4550725,6.19094203 C24.4438406,6.18405797 24.4311594,6.17681159 24.4195652,6.17137681 C24.3927536,6.15869565 24.365942,6.14855072 24.3376812,6.14021739 C24.3278986,6.13731884 24.3177536,6.13297101 24.3065217,6.13007246 C24.267029,6.12028986 24.2271739,6.11594203 24.1862319,6.11594203 L24.1833333,6.11594203 L10.5778986,6.11594203 L10.5753623,6.11594203 L0.815217391,6.11594203 C0.515217391,6.11594203 0.27173913,6.35942029 0.27173913,6.65942029 C0.27173913,6.95942029 0.515217391,7.20289855 0.815217391,7.20289855 L10.4166667,7.20289855 L15.4268116,10.5304348 C15.5173913,10.5884058 15.6221014,10.6195652 15.7268116,10.6195652 C15.7963768,10.6195652 15.8655797,10.6068841 15.9307971,10.5800725 L23.2322464,7.62898551 L20.1768116,15.6253623 L5.8423913,15.6253623 C5.5423913,15.6253623 5.29891304,15.8688406 5.29891304,16.1688406 C5.29891304,16.4692029 5.5423913,16.7123188 5.8423913,16.7123188 L20.5503623,16.7123188 C20.7753623,16.7123188 20.9775362,16.573913 21.0583333,16.3630435 L24.6927536,6.85217391 C24.6956522,6.84492754 24.6956522,6.8365942 24.6985507,6.82934783 C24.7068841,6.80108696 24.7155797,6.77137681 24.7199275,6.74166667 Z M15.7891304,9.46449275 L12.3811594,7.20144928 L21.3880435,7.20144928 L15.7891304,9.46449275 Z" id="Fill-1" sketch:type="MSShapeGroup"></path>
                <text id="Invite" sketch:type="MSTextLayer" font-family="Open Sans" font-size="16" font-weight="normal">
                    <tspan x="32" y="17">Invite</tspan>
                </text>
            </g>
        </g>
    </g>
</svg>