<?xml version="1.0" encoding="UTF-8" standalone="no"?>
<svg width="64px" height="91px" viewBox="0 0 64 91" version="1.1" xmlns="http://www.w3.org/2000/svg" xmlns:xlink="http://www.w3.org/1999/xlink" xmlns:sketch="http://www.bohemiancoding.com/sketch/ns">
    <!-- Generator: Sketch 3.3.2 (12043) - http://www.bohemiancoding.com/sketch -->
    <title>Searching</title>
    <desc>Created with Sketch.</desc>
    <defs></defs>
    <g id="Page-1" stroke="none" stroke-width="1" fill="none" fill-rule="evenodd" sketch:type="MSPage">
        <g id="iPhone-6" sketch:type="MSArtboardGroup" transform="translate(-156.000000, -243.000000)" stroke="#9E788F" stroke-width="3">
            <g id="Searching" sketch:type="MSLayerGroup" transform="translate(147.000000, 192.000000)">
                <g transform="translate(11.000000, 53.000000)" sketch:type="MSShapeGroup">
                    <circle id="Oval-338" cx="30.5" cy="14.5" r="12.5"></circle>
                    <path d="M0,63.5 L60,63.5" id="Line" stroke-linecap="round"></path>
                    <path d="M8,75.5 L53,75.5" id="Line-Copy" stroke-linecap="round"></path>
                    <path d="M15,87.5 L45,87.5" id="Line-Copy-2" stroke-linecap="round"></path>
                    <path d="M30.5,27.4412432 L30.5,61.5092583" id="Line" stroke-linecap="round"></path>
                    <path d="M14,0 C14,0 1.98034441e-16,4.79999524 0,14.5 C1.98034441e-16,25.2000048 13,29 13,29" id="Path-1257"></path>
                    <path d="M60,0 C60,0 46,4.79999524 46,14.5 C46,25.2000048 59,29 59,29" id="Path-1257-Copy" transform="translate(53.000000, 14.500000) scale(-1, 1) translate(-53.000000, -14.500000) "></path>
                </g>
            </g>
        </g>
    </g>
</svg>