<?xml version="1.0" encoding="UTF-8" standalone="no"?>
<svg width="56px" height="72px" viewBox="0 0 56 72" version="1.1" xmlns="http://www.w3.org/2000/svg" xmlns:xlink="http://www.w3.org/1999/xlink" xmlns:sketch="http://www.bohemiancoding.com/sketch/ns">
    <!-- Generator: Sketch 3.3.2 (12043) - http://www.bohemiancoding.com/sketch -->
    <title>Imported Layers</title>
    <desc>Created with Sketch.</desc>
    <defs></defs>
    <g id="Page-1" stroke="none" stroke-width="1" fill="none" fill-rule="evenodd" sketch:type="MSPage">
        <g id="iPhone-6" sketch:type="MSArtboardGroup" transform="translate(-99.000000, -350.000000)" fill="#4A4A4A">
            <path d="M144.383,383.507 L144.383,369.148 C144.383,359.238 136.449,350 126.555,350 C116.664,350 108.723,359.234 108.723,369.148 L108.723,383.507 L99,383.507 L99,421.804 L154.109,421.804 L154.109,383.507 L144.383,383.507 Z M111.965,369.148 C111.965,360.773 118.195,352.761 126.555,352.761 C134.91,352.761 141.141,360.773 141.141,369.148 L141.141,383.507 L111.965,383.507 L111.965,369.148 Z M150.867,418.613 L102.238,418.613 L102.238,386.699 L150.867,386.699 L150.867,418.613 Z" id="Imported-Layers" sketch:type="MSShapeGroup"></path>
        </g>
    </g>
</svg>