<?xml version="1.0" encoding="UTF-8" standalone="no"?>
<svg width="120px" height="20px" viewBox="0 0 120 20" version="1.1" xmlns="http://www.w3.org/2000/svg" xmlns:xlink="http://www.w3.org/1999/xlink" xmlns:sketch="http://www.bohemiancoding.com/sketch/ns">
    <!-- Generator: Sketch 3.3.2 (12043) - http://www.bohemiancoding.com/sketch -->
    <title>Shape Copy</title>
    <desc>Created with Sketch.</desc>
    <defs></defs>
    <g id="Page-1" stroke="none" stroke-width="1" fill="none" fill-rule="evenodd" sketch:type="MSPage">
        <g id="iPhone-6" sketch:type="MSArtboardGroup" transform="translate(-128.000000, -32.000000)" fill="#979797">
            <path d="M138.848,46.9423077 C138.848,50.3076923 136.832,51.9807692 132.8,51.9807692 C131.3792,51.9807692 130.1312,51.7884615 129.0368,51.4423077 L129.0368,49.1346154 C130.1504,49.5 131.4176,49.6730769 132.8192,49.6730769 C134.912,49.6730769 135.9488,48.7884615 135.9488,47.0384615 C135.0848,47.4038462 134.1632,47.5769231 133.1648,47.5769231 C129.7472,47.5769231 128.0384,45.7115385 128.0384,41.9807692 C128.0384,38.1923077 130.016,36.2884615 133.9904,36.2884615 C135.3152,36.2884615 136.928,36.4423077 138.8288,36.75 L138.8288,46.9423077 L138.848,46.9423077 Z M135.9488,38.9230769 C135.4688,38.75 134.7968,38.6538462 133.9328,38.6538462 C131.936,38.6538462 130.9184,39.7692308 130.9184,41.9807692 C130.9184,44.1153846 131.7824,45.1923077 133.5104,45.1923077 C134.336,45.1923077 135.1616,45 135.9488,44.5961538 L135.9488,38.9230769 L135.9488,38.9230769 Z M141.5936,47.8269231 L141.5936,32.1730769 L144.4928,32.1730769 L144.4928,37.8076923 C145.3952,36.8269231 146.5472,36.3461538 147.968,36.3461538 C150.6944,36.3461538 152.0384,37.7692308 152.0384,40.5961538 L152.0384,47.8461538 L149.1392,47.8461538 L149.1392,40.5961538 C149.1392,39.3269231 148.5056,38.6923077 147.2384,38.6923077 C146.2976,38.6923077 145.376,39.0769231 144.4736,39.8269231 L144.4736,47.8461538 L141.5936,47.8461538 L141.5936,47.8269231 Z M154.208,42.0769231 C154.208,38.2307692 156.1088,36.2884615 159.8912,36.2884615 C163.6736,36.2884615 165.5744,38.2115385 165.5744,42.0769231 C165.5744,45.9230769 163.6736,47.8461538 159.8912,47.8461538 C156.128,47.8461538 154.2272,45.9230769 154.208,42.0769231 Z M159.9104,45.6346154 C161.7728,45.6346154 162.6944,44.4423077 162.6944,42.0384615 C162.6944,39.6923077 161.7728,38.5192308 159.9104,38.5192308 C158.048,38.5192308 157.1264,39.6923077 157.1264,42.0384615 C157.1072,44.4230769 158.048,45.6346154 159.9104,45.6346154 Z M167.7824,47.2692308 L167.7824,44.8653846 C169.0496,45.3846154 170.528,45.6346154 172.1984,45.6346154 C173.4464,45.6346154 174.0608,45.2307692 174.0608,44.4230769 C174.0608,43.6538462 173.6384,43.2692308 172.8128,43.2692308 L170.7392,43.2692308 C168.3968,43.2692308 167.2448,42.1153846 167.2448,39.8269231 C167.2448,37.4230769 168.9536,36.2115385 172.352,36.2115385 C173.792,36.2115385 175.1552,36.4230769 176.4224,36.8653846 L176.4224,39.2692308 C175.1552,38.75 173.7536,38.5 172.2752,38.5 C170.7008,38.5 169.9328,38.9038462 169.9328,39.7115385 C169.9328,40.4807692 170.3936,40.8653846 171.296,40.8653846 L173.1584,40.8653846 C175.712,40.8653846 176.9792,42.0192308 176.9792,44.3076923 C176.9792,46.7115385 175.3472,47.9230769 172.1024,47.9230769 C170.4896,47.9230769 169.0496,47.7115385 167.7824,47.2692308 Z M178.8224,34.4615385 L180.9728,34.4615385 L181.4144,36.3269231 L184.2944,36.3269231 L184.2944,38.6346154 L181.7216,38.6346154 L181.7216,43.9230769 C181.7216,45 182.1824,45.5384615 183.104,45.5384615 L184.2944,45.5384615 L184.2944,47.8461538 L181.7216,47.8461538 C179.8016,47.8461538 178.8416,46.8076923 178.8416,44.75 L178.8416,34.4615385 L178.8224,34.4615385 Z M196.5056,46.9423077 C196.5056,50.3076923 194.4896,51.9807692 190.4576,51.9807692 C189.0368,51.9807692 187.7888,51.7884615 186.6944,51.4423077 L186.6944,49.1346154 C187.808,49.5 189.0752,49.6730769 190.4768,49.6730769 C192.5696,49.6730769 193.6064,48.7884615 193.6064,47.0384615 C192.7424,47.4038462 191.8208,47.5769231 190.8224,47.5769231 C187.4048,47.5769231 185.696,45.7115385 185.696,41.9807692 C185.696,38.1923077 187.6736,36.2884615 191.648,36.2884615 C192.9728,36.2884615 194.5856,36.4423077 196.4864,36.75 L196.4864,46.9423077 L196.5056,46.9423077 Z M193.6064,38.9230769 C193.1264,38.75 192.4544,38.6538462 191.5904,38.6538462 C189.5936,38.6538462 188.576,39.7692308 188.576,41.9807692 C188.576,44.1153846 189.44,45.1923077 191.168,45.1923077 C191.9936,45.1923077 192.8192,45 193.6064,44.5961538 L193.6064,38.9230769 Z M199.232,47.8269231 L199.232,36.3269231 L201.4784,36.3269231 L201.8432,37.7884615 C202.8416,36.8076923 203.9168,36.3269231 205.0304,36.3269231 L205.0304,38.6730769 C203.9552,38.6730769 202.976,39.1153846 202.1312,40.0192308 L202.1312,47.8269231 L199.232,47.8269231 Z M206.1248,44.2307692 C206.1248,41.9423077 207.7952,40.8076923 211.1168,40.8076923 C211.904,40.8076923 212.672,40.8846154 213.4592,41.0192308 L213.4592,40.1538462 C213.4592,39.1153846 212.7104,38.6153846 211.232,38.6153846 C209.984,38.6153846 208.5824,38.7884615 207.0464,39.1538462 L207.0464,36.8461538 C208.5824,36.4807692 209.9648,36.3076923 211.232,36.3076923 C214.6496,36.3076923 216.3584,37.5769231 216.3584,40.0961538 L216.3584,47.8076923 L214.6688,47.8076923 L213.632,46.7692308 C212.6336,47.4615385 211.5392,47.8076923 210.3296,47.8076923 C207.5264,47.8269231 206.1248,46.6346154 206.1248,44.2307692 Z M211.1168,42.7884615 C209.7152,42.7884615 209.024,43.2692308 209.024,44.2115385 C209.024,45.2307692 209.6,45.75 210.7712,45.75 C211.7312,45.75 212.6336,45.4423077 213.4592,44.8461538 L213.4592,43 C212.7296,42.8461538 211.9424,42.7884615 211.1168,42.7884615 Z M219.0848,47.8269231 L219.0848,36.3269231 L221.3312,36.3269231 L221.6768,38 C222.7136,36.8846154 223.9424,36.3269231 225.3824,36.3269231 C226.8224,36.3269231 227.8208,36.8461538 228.3392,37.9038462 C229.5104,36.8461538 230.7392,36.3269231 232.0256,36.3269231 C234.656,36.3269231 235.9808,37.7884615 235.9808,40.6923077 L235.9808,47.8269231 L233.0816,47.8269231 L233.0816,40.5961538 C233.0816,39.3269231 232.5056,38.6730769 231.3536,38.6730769 C230.4896,38.6730769 229.664,39.0576923 228.8768,39.8269231 L228.8768,47.8269231 L225.9776,47.8269231 L225.9776,40.6153846 C225.9776,39.3076923 225.44,38.6730769 224.384,38.6730769 C223.5392,38.6730769 222.7328,39.0576923 221.984,39.8269231 L221.984,47.8269231 L219.0848,47.8269231 Z M238.7072,47.2692308 L238.7072,44.8653846 C239.9744,45.3846154 241.4528,45.6346154 243.1232,45.6346154 C244.3712,45.6346154 244.9856,45.2307692 244.9856,44.4230769 C244.9856,43.6538462 244.5632,43.2692308 243.7376,43.2692308 L241.664,43.2692308 C239.3216,43.2692308 238.1696,42.1153846 238.1696,39.8269231 C238.1696,37.4230769 239.8784,36.2115385 243.2768,36.2115385 C244.7168,36.2115385 246.08,36.4230769 247.3472,36.8653846 L247.3472,39.2692308 C246.08,38.75 244.6784,38.5 243.2,38.5 C241.6256,38.5 240.8576,38.9038462 240.8576,39.7115385 C240.8576,40.4807692 241.3184,40.8653846 242.2208,40.8653846 L244.0832,40.8653846 C246.6368,40.8653846 247.904,42.0192308 247.904,44.3076923 C247.904,46.7115385 246.272,47.9230769 243.0272,47.9230769 C241.4144,47.9230769 239.9936,47.7115385 238.7072,47.2692308 Z" id="Shape-Copy" sketch:type="MSShapeGroup"></path>
        </g>
    </g>
</svg>