<?xml version="1.0" encoding="UTF-8" standalone="no"?>
<svg width="191px" height="32px" viewBox="0 0 191 32" version="1.1" xmlns="http://www.w3.org/2000/svg" xmlns:xlink="http://www.w3.org/1999/xlink" xmlns:sketch="http://www.bohemiancoding.com/sketch/ns">
    <!-- Generator: Sketch 3.3.2 (12043) - http://www.bohemiancoding.com/sketch -->
    <title>Shape Copy 2</title>
    <desc>Created with Sketch.</desc>
    <defs></defs>
    <g id="Page-1" stroke="none" stroke-width="1" fill="none" fill-rule="evenodd" sketch:type="MSPage">
        <path d="M17.844808,23.347572 C17.844808,28.6676568 14.6578644,31.312499 8.28397723,31.312499 C6.0379408,31.312499 4.06507096,31.0084941 2.33501587,30.4612854 L2.33501587,26.8132273 C4.0954228,27.3908365 6.09864449,27.6644408 8.31432907,27.6644408 C11.62268,27.6644408 13.2616796,26.2660186 13.2616796,23.4995745 C11.8958466,24.0771837 10.4389581,24.350788 8.86066226,24.350788 C3.45803409,24.350788 0.75672,21.401941 0.75672,15.5042471 C0.75672,9.51535163 3.8829599,6.50570367 10.1657915,6.50570367 C12.2600687,6.50570367 14.8096236,6.74890755 17.8144561,7.2353153 L17.8144561,23.347572 L17.844808,23.347572 Z M13.2616796,10.67057 C12.5028835,10.3969657 11.440569,10.2449633 10.074736,10.2449633 C6.91814426,10.2449633 5.30949655,12.0081914 5.30949655,15.5042471 C5.30949655,18.8787008 6.67532951,20.581128 9.40699544,20.581128 C10.7121247,20.581128 12.017254,20.2771231 13.2616796,19.6387129 L13.2616796,10.67057 L13.2616796,10.67057 Z M22.1851216,24.7459943 L22.1851216,0 L26.76825,0 L26.76825,8.90734194 C28.1947867,7.35691723 30.0158973,6.59690512 32.2619337,6.59690512 C36.5718955,6.59690512 38.6965246,8.84654097 38.6965246,13.3154122 L38.6965246,24.7763948 L34.1133962,24.7763948 L34.1133962,13.3154122 C34.1133962,11.3089802 33.1117853,10.3057642 31.1085637,10.3057642 C29.6213233,10.3057642 28.1644348,10.9137739 26.7378982,12.0993928 L26.7378982,24.7763948 L22.1851216,24.7763948 L22.1851216,24.7459943 Z M42.1262829,15.6562495 C42.1262829,9.5761526 45.1311154,6.50570367 51.1104286,6.50570367 C57.0897418,6.50570367 60.0945744,9.54575211 60.0945744,15.6562495 C60.0945744,21.7363464 57.0897418,24.7763948 51.1104286,24.7763948 C45.1614673,24.7763948 42.1566348,21.7363464 42.1262829,15.6562495 Z M51.1407805,21.2803391 C54.0849093,21.2803391 55.5417978,19.3955091 55.5417978,15.5954485 C55.5417978,11.8865894 54.0849093,10.0321599 51.1407805,10.0321599 C48.1966516,10.0321599 46.7397632,11.8865894 46.7397632,15.5954485 C46.7094113,19.3651086 48.1966516,21.2803391 51.1407805,21.2803391 Z M63.5850364,23.8643803 L63.5850364,20.0643197 C65.5882581,20.8851328 67.92535,21.2803391 70.5659604,21.2803391 C72.5388303,21.2803391 73.5100893,20.6419289 73.5100893,19.3651086 C73.5100893,18.1490892 72.8423487,17.5410795 71.5372194,17.5410795 L68.2592203,17.5410795 C64.5562954,17.5410795 62.7351848,15.7170505 62.7351848,12.0993928 C62.7351848,8.29933225 65.4364988,6.38410173 70.8087752,6.38410173 C73.0851635,6.38410173 75.2401444,6.71850706 77.243366,7.4177182 L77.243366,11.2177788 C75.2401444,10.3969657 73.0244598,10.0017594 70.6873678,10.0017594 C68.1985166,10.0017594 66.9844429,10.6401696 66.9844429,11.9169899 C66.9844429,13.1330093 67.7128871,13.741019 69.1394238,13.741019 L72.0835526,13.741019 C76.1203478,13.741019 78.1235695,15.565048 78.1235695,19.1827057 C78.1235695,22.9827662 75.5436628,24.8979968 70.4142012,24.8979968 C67.8646463,24.8979968 65.5882581,24.5635914 63.5850364,23.8643803 Z M81.0373465,3.61765765 L84.436753,3.61765765 L85.1348454,6.56650464 L89.6876219,6.56650464 L89.6876219,10.2145628 L85.6204749,10.2145628 L85.6204749,18.574696 C85.6204749,20.2771231 86.3489191,21.1283367 87.8058076,21.1283367 L89.6876219,21.1283367 L89.6876219,24.7763948 L85.6204749,24.7763948 C82.5852905,24.7763948 81.0676983,23.1347687 81.0676983,19.8819168 L81.0676983,3.61765765 L81.0373465,3.61765765 Z M108.991395,23.347572 C108.991395,28.6676568 105.804451,31.312499 99.4305638,31.312499 C97.1845273,31.312499 95.2116575,31.0084941 93.4816024,30.4612854 L93.4816024,26.8132273 C95.2420093,27.3908365 97.245231,27.6644408 99.4609156,27.6644408 C102.769267,27.6644408 104.408266,26.2660186 104.408266,23.4995745 C103.042433,24.0771837 101.585545,24.350788 100.007249,24.350788 C94.6046206,24.350788 91.9033065,21.401941 91.9033065,15.5042471 C91.9033065,9.51535163 95.0295464,6.50570367 101.312378,6.50570367 C103.406655,6.50570367 105.95621,6.74890755 108.961043,7.2353153 L108.961043,23.347572 L108.991395,23.347572 Z M104.408266,10.67057 C103.64947,10.3969657 102.587155,10.2449633 101.221323,10.2449633 C98.0647308,10.2449633 96.4560831,12.0081914 96.4560831,15.5042471 C96.4560831,18.8787008 97.821916,20.581128 100.553582,20.581128 C101.858711,20.581128 103.163841,20.2771231 104.408266,19.6387129 L104.408266,10.67057 Z M113.301356,24.7459943 L113.301356,6.56650464 L116.852522,6.56650464 L117.429207,8.87694146 C119.007503,7.32651675 120.707206,6.56650464 122.467613,6.56650464 L122.467613,10.2753637 C120.76791,10.2753637 119.219966,10.9745749 117.884485,12.4033977 L117.884485,24.7459943 L113.301356,24.7459943 Z M124.197668,19.0611037 C124.197668,15.4434461 126.838279,13.6498175 132.089148,13.6498175 C133.333573,13.6498175 134.547647,13.7714195 135.792072,13.9842228 L135.792072,12.616201 C135.792072,10.9745749 134.608351,10.1841623 132.271259,10.1841623 C130.298389,10.1841623 128.082704,10.4577666 125.654557,11.0353759 L125.654557,7.38731772 C128.082704,6.80970851 130.268037,6.53610415 132.271259,6.53610415 C137.673887,6.53610415 140.375201,8.54253613 140.375201,12.5249996 L140.375201,24.7155938 L137.704239,24.7155938 L136.065239,23.0739677 C134.486943,24.1683851 132.756888,24.7155938 130.844722,24.7155938 C126.413353,24.7459943 124.197668,22.8611643 124.197668,19.0611037 Z M132.089148,16.7810674 C129.873463,16.7810674 128.780797,17.5410795 128.780797,19.0307033 C128.780797,20.6419289 129.691352,21.462742 131.542814,21.462742 C133.060407,21.462742 134.486943,20.9763343 135.792072,20.0339192 L135.792072,17.1154727 C134.638702,16.8722689 133.394277,16.7810674 132.089148,16.7810674 Z M144.685163,24.7459943 L144.685163,6.56650464 L148.236328,6.56650464 L148.782662,9.21134679 C150.421661,7.44811869 152.364179,6.56650464 154.640567,6.56650464 C156.916956,6.56650464 158.495252,7.38731772 159.314751,9.05934436 C161.166214,7.38731772 163.108732,6.56650464 165.142305,6.56650464 C169.300508,6.56650464 171.394785,8.87694146 171.394785,13.4674146 L171.394785,24.7459943 L166.811657,24.7459943 L166.811657,13.3154122 C166.811657,11.3089802 165.901101,10.2753637 164.079991,10.2753637 C162.714158,10.2753637 161.409029,10.8833734 160.164603,12.0993928 L160.164603,24.7459943 L155.581475,24.7459943 L155.581475,13.3458127 C155.581475,11.2785797 154.731623,10.2753637 153.062272,10.2753637 C151.72679,10.2753637 150.452013,10.8833734 149.268291,12.0993928 L149.268291,24.7459943 L144.685163,24.7459943 Z M175.704747,23.8643803 L175.704747,20.0643197 C177.707969,20.8851328 180.045061,21.2803391 182.685671,21.2803391 C184.658541,21.2803391 185.6298,20.6419289 185.6298,19.3651086 C185.6298,18.1490892 184.962059,17.5410795 183.65693,17.5410795 L180.378931,17.5410795 C176.676006,17.5410795 174.854895,15.7170505 174.854895,12.0993928 C174.854895,8.29933225 177.556209,6.38410173 182.928486,6.38410173 C185.204874,6.38410173 187.359855,6.71850706 189.363077,7.4177182 L189.363077,11.2177788 C187.359855,10.3969657 185.14417,10.0017594 182.807078,10.0017594 C180.318227,10.0017594 179.104153,10.6401696 179.104153,11.9169899 C179.104153,13.1330093 179.832598,13.741019 181.259134,13.741019 L184.203263,13.741019 C188.240058,13.741019 190.24328,15.565048 190.24328,19.1827057 C190.24328,22.9827662 187.663373,24.8979968 182.533912,24.8979968 C179.984357,24.8979968 177.73832,24.5635914 175.704747,23.8643803 Z" id="Shape-Copy-2" fill="#FFFFFF" sketch:type="MSShapeGroup"></path>
    </g>
</svg>