<?xml version="1.0" encoding="utf-8"?>
<!-- Generator: Adobe Illustrator 18.0.0, SVG Export Plug-In . SVG Version: 6.00 Build 0)  -->
<!DOCTYPE svg PUBLIC "-//W3C//DTD SVG 1.1//EN" "http://www.w3.org/Graphics/SVG/1.1/DTD/svg11.dtd">
<svg version="1.1" id="Layer_1" xmlns:sketch="http://www.bohemiancoding.com/sketch/ns"
	 xmlns="http://www.w3.org/2000/svg" xmlns:xlink="http://www.w3.org/1999/xlink" x="0px" y="0px" viewBox="0 0 640 480"
	 enable-background="new 0 0 640 480" xml:space="preserve">
<title>noun_home_50291</title>
<desc>Created with Sketch.</desc>
<path fill="#FFFFFF" d="M326.2,129.2c0,22.1-12.8,42-35.6,55.9c-16.9,10.1-16.5,22.1-16.5,22.5c0,0,0,0.8,0,1.1v28.9
	c0,6.4-4.9,11.2-11.2,11.2s-12-4.9-12-11.2v-28.1c-0.8-9.8,4.5-29.2,27-43.1c11.2-6.8,24.4-18.8,24.4-36.4c0-21.4-17.6-39-39-39
	s-39,17.6-39,39c0,6.4-4.9,11.2-11.2,11.2s-11.2-4.9-11.2-11.2c0-34.5,27.8-62.2,62.2-62.2S326.2,94.8,326.2,129.2z M274.1,300.2
	c0,6.8-5.6,12.8-12.8,12.8c-6.8-0.4-12.4-6-12.4-12.8s5.6-12.8,12.8-12.8C268.5,287.5,274.1,293.5,274.1,300.2z M264,400.8
	c-119.2,0-216.8-97.5-216.8-216.7S144-32.7,264-32.7S480.8,64.8,480.8,184S383.2,400.8,264,400.8z M264-56C131.2-56,24,51.2,24,184
	s107.2,240,240,240s240-107.6,240-240C504,51.2,396-56,264-56z"/>
</svg>
