<?xml version="1.0" encoding="utf-8"?>
<!-- Generator: Adobe Illustrator 18.0.0, SVG Export Plug-In . SVG Version: 6.00 Build 0)  -->
<!DOCTYPE svg PUBLIC "-//W3C//DTD SVG 1.1//EN" "http://www.w3.org/Graphics/SVG/1.1/DTD/svg11.dtd">
<svg version="1.1" id="Layer_1" xmlns:sketch="http://www.bohemiancoding.com/sketch/ns"
	 xmlns="http://www.w3.org/2000/svg" xmlns:xlink="http://www.w3.org/1999/xlink" x="0px" y="0px" viewBox="0 0 640 480"
	 enable-background="new 0 0 640 480" xml:space="preserve">
<title>noun_home_50291</title>
<desc>Created with Sketch.</desc>
<path fill="none" stroke="#FFFFFF" stroke-width="8" stroke-miterlimit="10" d="M280.7,83.7c-43.9,0-79.5-35.6-79.5-79.5
	s35.6-79.5,79.5-79.5s79.5,35.6,79.5,79.5S324.6,83.7,280.7,83.7z M280.7-158.5c-89.6,0-162.8,72.8-162.8,162.8c0,1.9,0,3.8,0,6
	c0.8,17.2,3.8,33.4,9.4,48.8c34.9,113.5,153.4,262.4,153.4,262.4s118.5-148.9,153-262.9c5.6-15.4,8.6-31.9,9.4-48.8c0-1.9,0-3.8,0-6
	C443.4-85.7,370.3-158.5,280.7-158.5z"/>
</svg>
