<?xml version="1.0" encoding="utf-8"?>
<!-- Generator: Adobe Illustrator 18.0.0, SVG Export Plug-In . SVG Version: 6.00 Build 0)  -->
<!DOCTYPE svg PUBLIC "-//W3C//DTD SVG 1.1//EN" "http://www.w3.org/Graphics/SVG/1.1/DTD/svg11.dtd">
<svg version="1.1" id="Layer_1" xmlns:sketch="http://www.bohemiancoding.com/sketch/ns"
	 xmlns="http://www.w3.org/2000/svg" xmlns:xlink="http://www.w3.org/1999/xlink" x="0px" y="0px" viewBox="-56 -56 128 128"
	 enable-background="new -56 -56 128 128" xml:space="preserve">
<title>noun_home_50291</title>
<desc>Created with Sketch.</desc>
<g id="Page-1" sketch:type="MSPage">
	<g id="iPhone-6" transform="translate(-28.000000, -74.000000)" sketch:type="MSArtboardGroup">
		<g>
			<path fill="#FFFFFF" d="M-5.6,136.5c0-17.6,0-35.1,0-52.5c-1.9,0-3.5,0-5.1,0c0,19.3,0,38.5,0,57.8c11.4,0,22.7,0,34.3,0
				c0-12.4,0-24.6,0-36.8c8.9,0,17.5,0,26.4,0c0,12.3,0,24.5,0,36.9c1,0,1.7,0,2.4,0c9.8,0,19.7-0.1,29.5,0c2,0,2.5-0.5,2.5-2.5
				c-0.1-17.7,0-35.5,0-53.2c0-0.8-0.1-1.5-0.1-2.3c-1.8,0-3.4,0-5.2,0c0,17.6,0,35,0,52.4c-8,0-15.8,0-23.8,0c0-12.3,0-24.5,0-36.6
				c-12.4,0-24.6,0-36.9,0c0,12.3,0,24.4,0,36.7C10.2,136.5,2.5,136.5-5.6,136.5z"/>
			<path fill="#FFFFFF" d="M-28,85.6c2-1.9,4-3.8,6-5.8C-12.6,70.4-3.2,61,6.2,51.5c0.8-0.8,1.4-2.2,1.4-3.3
				c0.1-6.6,0.1-13.3,0.1-19.9c0-0.8,0-1.5,0-2.5c1.8,0,3.5,0,5.4,0c0,6.2,0,12.3,0,18.5c8.1-8.2,16-16.1,24.1-24.3
				c21.2,22.1,42,43.8,62.9,65.5c-1.3,1.3-2.5,2.5-3.8,3.7C76.7,68.9,57.1,48.5,37.5,28.1C17,48.6-3.5,69.1-24,89.6
				c-1.5-1.4-2.8-2.5-4-3.6C-28,85.9-28,85.7-28,85.6z"/>
			<path fill="#FFFFFF" d="M-5.6,136.5c8.1,0,15.9,0,23.8,0c0-12.3,0-24.4,0-36.7c12.4,0,24.5,0,36.9,0c0,12.1,0,24.3,0,36.6
				c8,0,15.8,0,23.8,0c0-17.5,0-34.9,0-52.4c1.8,0,3.4,0,5.2,0c0,0.8,0.1,1.5,0.1,2.3c0,17.7,0,35.5,0,53.2c0,2-0.5,2.5-2.5,2.5
				c-9.8-0.1-19.7,0-29.5,0c-0.7,0-1.4,0-2.4,0c0-12.4,0-24.6,0-36.9c-8.9,0-17.5,0-26.4,0c0,12.2,0,24.4,0,36.8
				c-11.6,0-22.9,0-34.3,0c0-19.3,0-38.5,0-57.8c1.6,0,3.2,0,5.1,0C-5.6,101.4-5.6,118.8-5.6,136.5z"/>
		</g>
	</g>
</g>
</svg>
