<?xml version="1.0" encoding="utf-8"?>
<!-- Generator: Adobe Illustrator 18.0.0, SVG Export Plug-In . SVG Version: 6.00 Build 0)  -->
<!DOCTYPE svg PUBLIC "-//W3C//DTD SVG 1.1//EN" "http://www.w3.org/Graphics/SVG/1.1/DTD/svg11.dtd">
<svg version="1.1" id="Layer_1" xmlns:sketch="http://www.bohemiancoding.com/sketch/ns"
	 xmlns="http://www.w3.org/2000/svg" xmlns:xlink="http://www.w3.org/1999/xlink" x="0px" y="0px" viewBox="160 7 334 480"
	 enable-background="new 160 7 334 480" xml:space="preserve">
<path fill="#FFFFFF" d="M327.2,483.6l-6.2-7.8c-0.3-0.4-28.5-35.9-60.4-84.2C217.7,326.8,188.9,271.1,175,226
	c-5.4-15-8.5-30.7-9.3-48.2l0-0.4v-5.7c0-89,72.4-161.4,161.4-161.4c43.2,0,83.7,16.9,114.2,47.5c30.3,30.4,47,70.7,46.8,113.5l0,6
	c-0.8,17.2-3.9,33.4-9.3,48.1c-13.7,45.3-42.4,101.2-85.2,166.1c-31.8,48.3-60.1,83.9-60.4,84.2L327.2,483.6z M181.6,177.3
	c0.8,15.8,3.5,30.1,8.4,43.5l0.1,0.4c27.7,90,113.3,205.8,137.1,236.9c23.8-31.1,109.4-147,136.7-237.3l0.1-0.4
	c4.8-13.2,7.6-27.9,8.4-43.5v-5.5c0.1-38.6-14.9-74.9-42.2-102.3c-27.5-27.6-64.1-42.8-103-42.8c-80.3,0-145.6,65.3-145.6,145.6
	V177.3z M327.2,254.6c-45.7,0-82.9-37.2-82.9-82.9s37.2-82.9,82.9-82.9s82.9,37.2,82.9,82.9S372.9,254.6,327.2,254.6z M327.2,104.6
	c-37,0-67.1,30.1-67.1,67.1s30.1,67.1,67.1,67.1s67.1-30.1,67.1-67.1S364.2,104.6,327.2,104.6z"/>
</svg>
