<?xml version="1.0" encoding="utf-8"?>
<!-- Generator: Adobe Illustrator 18.0.0, SVG Export Plug-In . SVG Version: 6.00 Build 0)  -->
<!DOCTYPE svg PUBLIC "-//W3C//DTD SVG 1.1//EN" "http://www.w3.org/Graphics/SVG/1.1/DTD/svg11.dtd">
<svg version="1.1" id="Layer_1" xmlns:sketch="http://www.bohemiancoding.com/sketch/ns"
	 xmlns="http://www.w3.org/2000/svg" xmlns:xlink="http://www.w3.org/1999/xlink" x="0px" y="0px" viewBox="-56 -56 128 128"
	 enable-background="new -56 -56 128 128" xml:space="preserve">
<title>noun_home_50291</title>
<desc>Created with Sketch.</desc>
<rect x="-54.2" y="49.4" fill="#FFFFFF" width="17.1" height="2.8"/>
<rect x="-54.2" y="35.2" fill="#FFFFFF" width="17.1" height="2.8"/>
<rect x="-54.2" y="20.9" fill="#FFFFFF" width="17.1" height="2.8"/>
<rect x="-54.2" y="6.7" fill="#FFFFFF" width="17.1" height="2.8"/>
<rect x="-54.2" y="-7.5" fill="#FFFFFF" width="17.1" height="2.8"/>
<rect x="-54.2" y="-21.7" fill="#FFFFFF" width="17.1" height="2.8"/>
<rect x="-54.2" y="-35.9" fill="#FFFFFF" width="17.1" height="2.8"/>
<path fill="#FFFFFF" d="M-5.4,36.4c3.1,2.1,9.8,5.9,18.2,5.9c8.2,0,15-3.7,18.1-5.9c-1-0.3-2.2-0.6-3.3-0.9
	c-3.4-0.9-5.5-1.5-6.5-2.2c-2.6-1.7-2.3-8.1-2.1-10l0.1-0.6l1.4-1.3c0.1-1.1,0.5-3.3,1.1-4.5c1.3-2.6,2.8-7,2.8-7l0.1-0.4l0.4-0.3
	c0,0,0.9-0.7,0.9-1.7c0-1.1-0.8-1.7-0.9-1.7l-0.6-0.5l0.1-0.8c0-0.1,0.5-5.1,0.5-8.5c0-8.4-6.3-10.1-11.6-10.1
	c-4.9,0-13,1.3-13,10.1c0,3.4,1.1,8.3,1.1,8.3l0.2,0.9L0.7,5.8c0,0-0.9,0.7-0.9,1.7c0,1.1,0.8,1.7,0.9,1.7l0.4,0.3L1.2,10
	c0.5,1.4,1.8,5.4,2.7,6.9c0.7,1.1,1,3.4,1.1,4.5l1.4,1.3l0.1,0.6c0.2,1.9,0.6,8.3-2.1,10c-1.1,0.7-3.2,1.3-6.6,2.2
	C-3.2,35.8-4.4,36.1-5.4,36.4z M12.8,45.1c-13,0-22-8-22.1-8.1l-1.3-1.3l1.6-0.9c1.1-0.7,3.5-1.3,6.2-2.1c2.2-0.6,5-1.4,5.8-1.9
	c0.7-0.4,1-3.7,0.8-6.8l-1.4-1.3l-0.1-0.6c-0.1-1.5-0.5-3.4-0.8-3.9c-1.1-1.8-2.5-5.9-2.9-7.1C-2.1,10.5-3,9.2-3,7.5
	c0-1.5,0.7-2.6,1.3-3.4c-0.3-1.6-1-5.3-1-8.2c0-8.2,5.8-13,15.8-13c9.2,0,14.4,4.7,14.4,13c0,2.8-0.3,6.6-0.5,8.1
	c0.7,0.7,1.4,1.9,1.4,3.4c0,1.7-0.9,3-1.6,3.7c-0.4,1.2-1.6,4.7-2.8,7c-0.3,0.7-0.7,2.7-0.8,4l-0.1,0.5l-1.4,1.2
	c-0.2,3.1,0.2,6.3,0.8,6.8c0.8,0.5,3.6,1.3,5.8,1.9c2.5,0.7,4.9,1.4,6.1,2l0.7,0.4V36C35.1,37.7,24.8,45.1,12.8,45.1z"/>
<path fill="#FFFFFF" d="M-27.8-53c-8.6,0-15.6,7-15.6,15.6v91c0,8.6,7,15.6,15.6,15.6h78.2c8.6,0,15.6-7,15.6-15.6v-91
	C66-46,59-53,50.4-53H-27.8z M50.4,72.1h-78.2c-10.2,0-18.5-8.3-18.5-18.5v-91c0-10.2,8.3-18.5,18.5-18.5h78.2
	c10.2,0,18.5,8.3,18.5,18.5v91C68.9,63.8,60.6,72.1,50.4,72.1z"/>
<path fill="#FFFFFF" d="M12.7-26C-6.2-26-21.5-10.7-21.5,8.1s15.3,34.1,34.1,34.1c18.8,0,34.1-15.3,34.1-34.1S31.5-26,12.7-26z
	 M12.7,45.1c-20.4,0-37-16.6-37-37s16.6-37,37-37s37,16.6,37,37S33.1,45.1,12.7,45.1z"/>
</svg>
