<?xml version="1.0" encoding="UTF-8" standalone="no"?>
<svg width="26px" height="24px" viewBox="0 0 26 24" version="1.1" xmlns="http://www.w3.org/2000/svg" xmlns:xlink="http://www.w3.org/1999/xlink" xmlns:sketch="http://www.bohemiancoding.com/sketch/ns">
    <!-- Generator: Sketch 3.3.2 (12043) - http://www.bohemiancoding.com/sketch -->
    <title>Shape Copy 5</title>
    <desc>Created with Sketch.</desc>
    <defs></defs>
    <g id="Page-1" stroke="none" stroke-width="1" fill="none" fill-rule="evenodd" sketch:type="MSPage">
        <g id="iPhone-6" sketch:type="MSArtboardGroup" transform="translate(-18.000000, -634.000000)" fill="#979797">
            <path d="M21.4032787,646.609836 L21.4032787,646.590164 L22.4065574,646.590164 L22.4065574,656.918033 C23.9870388,656.918033 25.4901066,656.918033 27.0885246,656.898837 L27.0885246,649.698361 L27.1278689,649.698361 L27.1278689,649.678689 L34.3868852,649.678689 L34.3868852,656.878689 L39.0295082,656.878689 L39.0295082,646.590164 L39.0688525,646.590164 L39.0688525,646.570492 L40.0918033,646.570492 C40.0918033,646.727869 40.1114754,646.865574 40.1114754,647.022951 C40.1114754,650.504918 40.0918033,654.006557 40.1114754,657.488525 C40.1114754,657.74835 40.0685791,657.879485 39.9261299,657.938589 C39.8505211,657.98388 39.7396043,658 39.5803279,658 C37.652459,657.980328 35.704918,658 33.7770492,658 L33.304918,658 L33.304918,650.740984 L28.1508197,650.740984 L28.1508197,657.960656 L28.1114754,657.960656 L28.1114754,657.980328 L21.3639344,657.980328 L21.3639344,646.609836 L21.4032787,646.609836 Z M18,646.904918 C18.3934426,646.531148 18.7868852,646.157377 19.1803279,645.763934 C21.0295082,643.914754 22.8786885,642.065574 24.7278689,640.196721 C24.8852459,640.039344 25.0032787,639.763934 25.0032787,639.547541 C25.0229508,638.24918 25.0229508,636.931148 25.0229508,635.632787 L25.0229508,635.140984 L26.0852459,635.140984 L26.0852459,638.780328 C27.6786885,637.167213 29.2327869,635.613115 30.8262295,634 C34.9967213,638.347541 39.0885246,642.616393 43.2,646.885246 C42.9442623,647.140984 42.7081967,647.377049 42.452459,647.613115 C38.5967213,643.619672 34.7409836,639.606557 30.8852459,635.593443 C26.852459,639.62623 22.8196721,643.659016 18.7868852,647.691803 C18.4918033,647.416393 18.2360656,647.2 18,646.983607 L18,646.904918 Z" id="Shape-Copy-5" sketch:type="MSShapeGroup"></path>
        </g>
    </g>
</svg>