<?xml version="1.0" encoding="UTF-8" standalone="no"?>
<svg width="28px" height="23px" viewBox="0 0 28 23" version="1.1" xmlns="http://www.w3.org/2000/svg" xmlns:xlink="http://www.w3.org/1999/xlink" xmlns:sketch="http://www.bohemiancoding.com/sketch/ns">
    <!-- Generator: Sketch 3.3.2 (12043) - http://www.bohemiancoding.com/sketch -->
    <title>menu-chat</title>
    <desc>Created with Sketch.</desc>
    <defs></defs>
    <g id="Page-1" stroke="none" stroke-width="1" fill="none" fill-rule="evenodd" sketch:type="MSPage">
        <g id="iPhone-6" sketch:type="MSArtboardGroup" transform="translate(-97.000000, -635.000000)" fill="#3CAAEE">
            <g id="menu-chat" sketch:type="MSLayerGroup" transform="translate(97.000000, 635.000000)">
                <path d="M26.4079734,13.1614618 C26.4079734,14.4797342 25.6212625,15.6704319 24.3880399,16.1594684 C24.2392027,16.2232558 24.069103,16.2870432 23.8990033,16.3083056 C23.792691,16.3295681 23.7076412,16.4358804 23.7076412,16.5634551 L23.7076412,20.0930233 L21.007309,17.0099668 L20.5395349,16.4784053 C20.49701,16.4146179 20.4119601,16.3933555 20.3481728,16.3933555 L12.8637874,16.3933555 C11.0777409,16.3933555 9.63189369,14.9475083 9.63189369,13.1614618 L9.63189369,7.7820598 C9.63189369,5.99601329 11.0777409,4.55016611 12.8637874,4.55016611 L23.1760797,4.55016611 C24.9621262,4.55016611 26.4079734,5.99601329 26.4079734,7.7820598 L26.4079734,13.1614618 L26.4079734,13.1614618 Z M23.1548173,3.50830565 L12.8637874,3.50830565 C10.5036545,3.50830565 8.59003322,5.42192691 8.59003322,7.7820598 L8.59003322,13.1401993 C8.59003322,15.5003322 10.5036545,17.4139535 12.8637874,17.4139535 L20.0079734,17.4139535 L23.3674419,21.2624585 L24.2817276,22.3043189 C24.3242525,22.3681063 24.4093023,22.3893688 24.4730897,22.3893688 C24.4943522,22.3893688 24.5368771,22.3893688 24.5581395,22.3681063 C24.6644518,22.3255814 24.7282392,22.2405316 24.7282392,22.1342193 L24.7282392,17.1162791 C26.344186,16.4784053 27.4285714,14.9049834 27.4285714,13.1401993 L27.4285714,7.7820598 C27.4285714,5.42192691 25.5149502,3.50830565 23.1548173,3.50830565 L23.1548173,3.50830565 Z" id="Shape" sketch:type="MSShapeGroup"></path>
                <path d="M7.84584718,9.95083056 L6.4,9.95083056 C6.33621262,9.95083056 6.25116279,9.97209302 6.20863787,10.0358804 L5.74086379,10.5674419 L3.93355482,12.7362126 L3.93355482,10.1209302 C3.93355482,9.99335548 3.84850498,9.90830565 3.74219269,9.86578073 C3.57209302,9.82325581 3.40199336,9.7807309 3.25315615,9.71694352 C2.01993355,9.20664452 1.23322259,8.0372093 1.23322259,6.71893688 L1.23322259,4.31627907 C1.23322259,2.53023256 2.67906977,1.08438538 4.46511628,1.08438538 L11.9707641,1.08438538 C13.2039867,1.08438538 14.3096346,1.76478405 14.8624585,2.84916944 L15.9893688,2.84916944 C15.8830565,2.59401993 15.7767442,2.33887043 15.627907,2.08372093 C14.841196,0.807973422 13.4803987,0.0425249169 11.9920266,0.0425249169 L4.48637874,0.0425249169 C2.12624585,0.0425249169 0.212624585,1.95614618 0.212624585,4.31627907 L0.212624585,6.71893688 C0.212624585,8.48372093 1.29700997,10.0571429 2.91295681,10.6950166 L2.91295681,14.841196 C2.91295681,14.9475083 2.97674419,15.0325581 3.08305648,15.0750831 C3.10431894,15.0963455 3.14684385,15.0963455 3.16810631,15.0963455 C3.23189369,15.0963455 3.31694352,15.0750831 3.35946844,15.0112957 L4.27375415,13.9694352 L4.27375415,13.9694352 L6.76146179,11.0139535 L7.84584718,11.0139535 L7.84584718,9.95083056 L7.84584718,9.95083056 Z" id="Shape" sketch:type="MSShapeGroup"></path>
            </g>
        </g>
    </g>
</svg>