<?xml version="1.0" encoding="UTF-8" standalone="no"?>
<svg width="22px" height="25px" viewBox="0 0 22 25" version="1.1" xmlns="http://www.w3.org/2000/svg" xmlns:xlink="http://www.w3.org/1999/xlink" xmlns:sketch="http://www.bohemiancoding.com/sketch/ns">
    <!-- Generator: Sketch 3.3.2 (12043) - http://www.bohemiancoding.com/sketch -->
    <title>menu-contact</title>
    <desc>Created with Sketch.</desc>
    <defs></defs>
    <g id="Page-1" stroke="none" stroke-width="1" fill="none" fill-rule="evenodd" sketch:type="MSPage">
        <g id="iPhone-6" sketch:type="MSArtboardGroup" transform="translate(-179.000000, -633.000000)" fill="#3CAAEE">
            <g id="menu-contact" sketch:type="MSLayerGroup" transform="translate(179.000000, 634.000000)">
                <rect id="Rectangle-path" sketch:type="MSShapeGroup" x="0" y="19.1794872" width="3.21893491" height="0.871794872"></rect>
                <rect id="Rectangle-path" sketch:type="MSShapeGroup" x="0" y="16.5641026" width="3.21893491" height="0.871794872"></rect>
                <rect id="Rectangle-path" sketch:type="MSShapeGroup" x="0" y="13.9487179" width="3.21893491" height="0.871794872"></rect>
                <rect id="Rectangle-path" sketch:type="MSShapeGroup" x="0" y="11.3333333" width="3.21893491" height="0.871794872"></rect>
                <rect id="Rectangle-path" sketch:type="MSShapeGroup" x="0" y="8.71794872" width="3.21893491" height="0.871794872"></rect>
                <rect id="Rectangle-path" sketch:type="MSShapeGroup" x="0" y="6.1025641" width="3.21893491" height="0.871794872"></rect>
                <rect id="Rectangle-path" sketch:type="MSShapeGroup" x="0" y="3.48717949" width="3.21893491" height="0.871794872"></rect>
                <path d="M8.15827431,16.7224833 C8.70415496,17.10512 9.88396152,17.7975101 11.363122,17.7975101 C12.8070643,17.7975101 14.00448,17.1233408 14.5503606,16.7224833 C14.3742701,16.6678209 14.1629614,16.6131585 13.9692618,16.5584962 C13.370554,16.394509 13.0007639,16.2851843 12.8246734,16.1576387 C12.366838,15.8478852 12.4196652,14.6817545 12.4548833,14.3355594 L12.4724923,14.2262346 L12.7190191,13.9893643 C12.7366281,13.7889356 12.8070643,13.3880782 12.9127187,13.1694286 C13.1416363,12.695688 13.4057721,11.8939731 13.4057721,11.8939731 L13.4233812,11.8210899 L13.4938174,11.7664276 C13.4938174,11.7664276 13.6522989,11.638882 13.6522989,11.4566741 C13.6522989,11.2562454 13.5114265,11.1469206 13.4938174,11.1469206 L13.3881631,11.0558166 L13.4057721,10.9100503 C13.4057721,10.8918295 13.4938174,9.98078984 13.4938174,9.36128288 C13.4938174,7.83073625 12.3844471,7.52098277 11.4511672,7.52098277 C10.5883236,7.52098277 9.16199034,7.75785308 9.16199034,9.36128288 C9.16199034,9.98078984 9.35568993,10.8736087 9.35568993,10.8736087 L9.39090803,11.0375958 L9.23242655,11.1469206 C9.23242655,11.1469206 9.07394508,11.2744662 9.07394508,11.4566741 C9.07394508,11.6571028 9.2148175,11.7664276 9.23242655,11.7664276 L9.30286277,11.8210899 L9.32047182,11.9121939 C9.40851708,12.167285 9.63743478,12.8961167 9.79591625,13.1694286 C9.91917963,13.3698574 9.97200678,13.7889356 9.98961584,13.9893643 L10.2361426,14.2262346 L10.2537516,14.3355594 C10.2889697,14.6817545 10.359406,15.8478852 9.88396152,16.1576387 C9.69026193,16.2851843 9.32047182,16.394509 8.72176401,16.5584962 C8.54567348,16.6131585 8.33436484,16.6678209 8.15827431,16.7224833 L8.15827431,16.7224833 Z M11.363122,18.3076923 C9.07394508,18.3076923 7.48913029,16.8500289 7.47152124,16.8318081 L7.24260355,16.5949378 L7.5243484,16.4309506 C7.71804798,16.3034051 8.14066526,16.1940803 8.61610969,16.048314 C9.00350886,15.9389892 9.49656235,15.7932229 9.63743478,15.7021189 C9.76069815,15.6292357 9.81352531,15.0279495 9.7783072,14.463105 L9.53178046,14.2262346 L9.5141714,14.1169099 C9.49656235,13.843598 9.42612614,13.4974029 9.37329898,13.406299 C9.17959939,13.0783247 8.93307265,12.3312722 8.86263644,12.1126226 C8.73937307,12.0032979 8.58089159,11.7664276 8.58089159,11.4566741 C8.58089159,11.1833622 8.70415496,10.9829335 8.80980928,10.8371671 C8.75698212,10.5456344 8.63371875,9.87146508 8.63371875,9.34306208 C8.63371875,7.84895705 9.65504383,6.97435897 11.4159491,6.97435897 C13.035982,6.97435897 13.9516528,7.83073625 13.9516528,9.34306208 C13.9516528,9.85324429 13.8988256,10.5456344 13.8636075,10.8189463 C13.9868709,10.9464919 14.1101343,11.1651414 14.1101343,11.4384533 C14.1101343,11.7482068 13.9516528,11.9850771 13.8283894,12.1126226 C13.7579532,12.3312722 13.5466446,12.9689999 13.3353359,13.3880782 C13.2825088,13.5156237 13.2120726,13.8800396 13.1944635,14.1169099 L13.1768545,14.2080139 L12.9303277,14.4266634 C12.8951096,14.991508 12.9655458,15.5745733 13.0712001,15.6656773 C13.2120726,15.7567813 13.705126,15.9025476 14.0925252,16.0118724 C14.5327515,16.1394179 14.9553688,16.2669635 15.1666775,16.3762882 L15.2899408,16.4491714 L15.2899408,16.6496001 C15.2899408,16.9593536 13.4762084,18.3076923 11.363122,18.3076923 L11.363122,18.3076923 Z" id="Shape" sketch:type="MSShapeGroup"></path>
                <path d="M4.71104536,0.533293269 C3.26923077,0.533293269 2.09566075,1.82055288 2.09566075,3.40204327 L2.09566075,20.1364183 C2.09566075,21.7179087 3.26923077,23.0051683 4.71104536,23.0051683 L17.821499,23.0051683 C19.2633136,23.0051683 20.4368836,21.7179087 20.4368836,20.1364183 L20.4368836,3.40204327 C20.4368836,1.82055288 19.2633136,0.533293269 17.821499,0.533293269 L4.71104536,0.533293269 L4.71104536,0.533293269 Z M17.821499,23.5384615 L4.71104536,23.5384615 C3.00098619,23.5384615 1.60946746,22.0121394 1.60946746,20.1364183 L1.60946746,3.40204327 C1.60946746,1.52632212 3.00098619,0 4.71104536,0 L17.821499,0 C19.5315582,0 20.9230769,1.52632212 20.9230769,3.40204327 L20.9230769,20.1364183 C20.9230769,22.0121394 19.5315582,23.5384615 17.821499,23.5384615 L17.821499,23.5384615 Z" id="Shape" stroke="#3CAAEE" stroke-width="0.5" sketch:type="MSShapeGroup"></path>
                <path d="M11.2662722,5.74324324 C7.97773869,5.74324324 5.31559252,8.44698545 5.31559252,11.7692308 C5.31559252,15.0914761 7.97773869,17.7952183 11.2488725,17.7952183 C14.5200064,17.7952183 17.1821526,15.0914761 17.1821526,11.7692308 C17.1821526,8.44698545 14.537406,5.74324324 11.2662722,5.74324324 L11.2662722,5.74324324 Z M11.2662722,18.3076923 C7.71674396,18.3076923 4.82840237,15.3742204 4.82840237,11.7692308 C4.82840237,8.16424116 7.71674396,5.23076923 11.2662722,5.23076923 C14.8158004,5.23076923 17.704142,8.16424116 17.704142,11.7692308 C17.704142,15.3742204 14.8158004,18.3076923 11.2662722,18.3076923 L11.2662722,18.3076923 Z" id="Shape" sketch:type="MSShapeGroup"></path>
            </g>
        </g>
    </g>
</svg>