<?xml version="1.0" encoding="UTF-8" standalone="no"?>
<svg width="13px" height="30px" viewBox="0 0 13 30" version="1.1" xmlns="http://www.w3.org/2000/svg" xmlns:xlink="http://www.w3.org/1999/xlink" xmlns:sketch="http://www.bohemiancoding.com/sketch/ns">
    <!-- Generator: Sketch 3.3.2 (12043) - http://www.bohemiancoding.com/sketch -->
    <title>Imported Layers</title>
    <desc>Created with Sketch.</desc>
    <defs></defs>
    <g id="Page-1" stroke="none" stroke-width="1" fill="none" fill-rule="evenodd" sketch:type="MSPage">
        <g id="Imported-Layers" sketch:type="MSLayerGroup" fill="#FFFFFF">
            <path d="M4.91443282,9.80753915 L4.91443282,25.6347118 C4.91443282,26.096623 5.2812982,26.4705882 5.73529412,26.4705882 C6.18929003,26.4705882 6.55615542,26.096623 6.55615542,25.6347118 L6.55615542,9.80753915 C8.8418032,9.40944715 10.5882353,7.38162957 10.5882353,4.94171089 C10.5882353,2.21771875 8.41188283,0 5.73529412,0 C3.05870541,0 0.882352941,2.21771875 0.882352941,4.94171089 C0.882352941,7.38162957 2.62878504,9.40789058 4.91443282,9.80753915 L4.91443282,9.80753915 Z M5.73529412,1.67214204 C7.50580175,1.67214204 8.94613054,3.13881723 8.94613054,4.94171089 C8.94613054,6.74460455 7.50580175,8.21166889 5.73529412,8.21166889 C3.96478648,8.21166889 2.52445769,6.74460455 2.52445769,4.94171089 C2.52445769,3.13881723 3.96478648,1.67214204 5.73529412,1.67214204 L5.73529412,1.67214204 Z" id="Fill-1" sketch:type="MSShapeGroup"></path>
            <path d="M12.0452629,29.1486405 L7.65355193,27.7930266 L12.0452629,26.4386278 C12.2747411,26.3673437 12.4044815,26.1239245 12.3335297,25.8942761 C12.2621725,25.6650328 12.0197202,25.5366403 11.7886202,25.6079245 L6.17572823,27.3389952 L0.564457969,25.6079245 C0.334979721,25.5382604 0.090905682,25.6650328 0.019548488,25.8942761 C-0.0514032674,26.1239245 0.0767153309,26.3673437 0.307815334,26.4386278 L4.69952627,27.7930266 L0.307815334,29.1486405 C0.0783370853,29.2199246 -0.0514032674,29.4637488 0.019548488,29.6929921 C0.0767153309,29.879708 0.249432175,30 0.434717617,30 C0.47728867,30 0.520265162,29.9935196 0.562836215,29.9809639 L6.17572823,28.2486781 L11.7869985,29.9793438 C11.8311913,29.9935196 11.8741678,30 11.9167388,30 C12.1020243,30 12.2747411,29.879708 12.3335297,29.6929921 C12.4028597,29.4637488 12.2747411,29.2199246 12.0452629,29.1486405 L12.0452629,29.1486405 Z" id="Fill-2" sketch:type="MSShapeGroup"></path>
        </g>
    </g>
</svg>