<?xml version="1.0" encoding="UTF-8" standalone="no"?>
<svg width="13px" height="14px" viewBox="0 0 13 14" version="1.1" xmlns="http://www.w3.org/2000/svg" xmlns:xlink="http://www.w3.org/1999/xlink" xmlns:sketch="http://www.bohemiancoding.com/sketch/ns">
    <!-- Generator: Sketch 3.3.2 (12043) - http://www.bohemiancoding.com/sketch -->
    <title>Imported Layers</title>
    <desc>Created with Sketch.</desc>
    <defs></defs>
    <g id="Page-1" stroke="none" stroke-width="1" fill="none" fill-rule="evenodd" sketch:type="MSPage">
        <g id="boxView" sketch:type="MSArtboardGroup" transform="translate(-9.000000, -107.000000)" fill="#979797">
            <g id="notification" sketch:type="MSLayerGroup" transform="translate(9.000000, 104.000000)">
                <g id="Imported-Layers" transform="translate(0.000000, 3.000000)" sketch:type="MSShapeGroup">
                    <path d="M12.5984,9.50997333 C12.5184,9.49162667 10.5000533,8.98496 10.5000533,4.99989333 C10.5000533,3.31648 9.45344,1.87562667 7.97845333,1.28661333 C7.87413333,0.559786667 7.25504,-1.42108547e-14 6.50005333,-1.42108547e-14 C5.74506667,-1.42108547e-14 5.12597333,0.559786667 5.02165333,1.28661333 C3.54666667,1.87562667 2.50005333,3.31648 2.50005333,4.99989333 C2.50005333,8.98496 0.481706667,9.49162667 0.395946667,9.51082667 C0.16832,9.56330667 9.05941988e-14,9.76661333 9.05941988e-14,9.99978667 L9.05941988e-14,10.9998933 C9.05941988e-14,11.2290133 0.155946667,11.42912 0.378453333,11.4848 C0.447573333,11.5022933 1.81162667,11.83488 4.50005333,11.9556267 L4.50005333,12 C4.50005333,13.104 5.39498667,13.9997867 6.50005333,13.9997867 C7.60512,13.9997867 8.50005333,13.104 8.50005333,12 L8.50005333,11.9556267 C11.18848,11.83488 12.5525333,11.5016533 12.6216533,11.4848 C12.84416,11.42912 13.0001067,11.2290133 13.0001067,10.9998933 L13.0001067,9.99978667 C13.0001067,9.76149333 12.8317867,9.55648 12.5984,9.50997333 L12.5984,9.50997333 Z M6.50005333,0.49984 C6.91349333,0.49984 7.26912,0.752426667 7.42165333,1.11146667 C7.12512,1.04064 6.81749333,0.999893333 6.50005333,0.999893333 C6.18261333,0.999893333 5.87498667,1.04064 5.57845333,1.11146667 C5.73098667,0.752426667 6.08661333,0.49984 6.50005333,0.49984 L6.50005333,0.49984 Z M8,12 C8,12.8273067 7.32757333,13.4999467 6.50005333,13.4999467 C5.67253333,13.4999467 5.00010667,12.8273067 5.00010667,12 L5.00010667,11.9748267 C5.46581333,11.9908267 5.96330667,12 6.50005333,12 C7.0368,12 7.53429333,11.9908267 8,11.9748267 L8,12 L8,12 Z M12.5000533,10.9998933 C12.5000533,10.9998933 10.5000533,11.4999467 6.50005333,11.4999467 C2.50005333,11.4999467 0.500053333,10.9998933 0.500053333,10.9998933 L0.500053333,9.99978667 C0.500053333,9.99978667 3.00010667,9.49994667 3.00010667,4.99989333 C3.00010667,3.06645333 4.56682667,1.49994667 6.50005333,1.49994667 C8.43328,1.49994667 10,3.06645333 10,4.99989333 C10,9.49994667 12.5000533,9.99978667 12.5000533,9.99978667 L12.5000533,10.9998933 Z"></path>
                </g>
            </g>
        </g>
    </g>
</svg>