<?xml version="1.0" encoding="UTF-8" standalone="no"?>
<svg width="69px" height="35px" viewBox="0 0 69 35" version="1.1" xmlns="http://www.w3.org/2000/svg" xmlns:xlink="http://www.w3.org/1999/xlink" xmlns:sketch="http://www.bohemiancoding.com/sketch/ns">
    <!-- Generator: Sketch 3.3.2 (12043) - http://www.bohemiancoding.com/sketch -->
    <title>Imported Layers</title>
    <desc>Created with Sketch.</desc>
    <defs></defs>
    <g id="Page-1" stroke="none" stroke-width="1" fill="none" fill-rule="evenodd" sketch:type="MSPage">
        <g id="Imported-Layers" sketch:type="MSLayerGroup" fill="#979797">
            <path d="M66.375,0.625 L17.625,0.625 C17.102,0.625 16.648,0.852 16.273,1.148 L1.273,16.148 C0.523,16.898 0.523,18.098 1.273,18.773 L16.273,33.773 C16.648,34.148 17.098,34.297 17.625,34.297 L66.375,34.297 C67.426,34.297 68.25,33.473 68.25,32.422 L68.25,2.5 C68.25,1.449 67.426,0.625 66.375,0.625 L66.375,0.625 Z M64.5,30.625 L18.375,30.625 L5.25,17.5 L18.375,4.375 L64.5,4.375 L64.5,30.625 Z" id="Fill-1" sketch:type="MSShapeGroup"></path>
            <path d="M33.148,26.801 C33.523,27.176 33.973,27.324 34.5,27.324 C35.023,27.324 35.477,27.176 35.852,26.801 L42.453,20.199 L49.055,26.801 C49.43,27.176 49.879,27.324 50.406,27.324 C50.93,27.324 51.383,27.176 51.758,26.801 C52.508,26.051 52.508,24.852 51.758,24.176 L45.074,17.5 L51.676,10.898 C52.426,10.148 52.426,8.949 51.676,8.273 C50.926,7.523 49.727,7.523 49.051,8.273 L42.449,14.875 L35.848,8.273 C35.098,7.523 33.898,7.523 33.223,8.273 C32.473,9.023 32.473,10.223 33.223,10.898 L39.824,17.5 L33.223,24.102 C32.477,24.852 32.477,26.051 33.148,26.801 L33.148,26.801 Z" id="Fill-2" sketch:type="MSShapeGroup"></path>
        </g>
    </g>
</svg>