<?xml version="1.0" encoding="UTF-8" standalone="no"?>
<svg width="123px" height="143px" viewBox="0 0 123 143" version="1.1" xmlns="http://www.w3.org/2000/svg" xmlns:xlink="http://www.w3.org/1999/xlink" xmlns:sketch="http://www.bohemiancoding.com/sketch/ns">
    <!-- Generator: Sketch 3.3.2 (12043) - http://www.bohemiancoding.com/sketch -->
    <title>Imported Layers Copy</title>
    <desc>Created with Sketch.</desc>
    <defs></defs>
    <g id="Page-1" stroke="none" stroke-width="1" fill="none" fill-rule="evenodd" sketch:type="MSPage">
        <g id="Imported-Layers-Copy" sketch:type="MSLayerGroup" transform="translate(2.000000, 2.000000)" stroke="#979797" stroke-width="4">
            <path d="M103.77907,17 L113.465116,17 C116.520372,17 119,18.098 119,21.1590909 L119,132.068182 C119,135.129273 116.520372,139 113.465116,139 L5.53488372,139 C2.47962791,139 0,135.129273 0,132.068182 L0,21.1590909 C0,18.098 2.47962791,17 5.53488372,17 L44.2790698,17 C44.2790698,17 45.6627907,28.0909091 58.1162791,28.0909091 C70.5697674,28.0909091 71.9534884,17 71.9534884,17 L103.77907,17 Z" id="Stroke-1" sketch:type="MSShapeGroup"></path>
            <path d="M2,16.652155 L6.17857143,4.85872878 C6.17857143,1.79103178 8.67457143,0 11.75,0 L109.25,0 C112.325429,0 114.821429,1.79103178 114.821429,4.85872878 L119,17" id="Stroke-2" sketch:type="MSShapeGroup"></path>
            <path d="M58,49 L58,96" id="Stroke-3" stroke-linecap="round" sketch:type="MSShapeGroup"></path>
            <path d="M70,85.4869351 L58.2503529,97 L46,85" id="Stroke-4" stroke-linecap="round" sketch:type="MSShapeGroup"></path>
        </g>
    </g>
</svg>