<?xml version="1.0" encoding="UTF-8" standalone="no"?>
<svg width="53px" height="24px" viewBox="0 0 53 24" version="1.1" xmlns="http://www.w3.org/2000/svg" xmlns:xlink="http://www.w3.org/1999/xlink" xmlns:sketch="http://www.bohemiancoding.com/sketch/ns">
    <!-- Generator: Sketch 3.3.3 (12081) - http://www.bohemiancoding.com/sketch -->
    <title>Imported Layers + Tag</title>
    <desc>Created with Sketch.</desc>
    <defs></defs>
    <g id="Page-1" stroke="none" stroke-width="1" fill="none" fill-rule="evenodd" sketch:type="MSPage">
        <g id="iPhone-6" sketch:type="MSArtboardGroup" transform="translate(-14.000000, -433.000000)" fill="#FFFFFF">
            <g id="Imported-Layers-+-Tag" sketch:type="MSLayerGroup" transform="translate(14.000000, 433.000000)">
                <g id="Imported-Layers" sketch:type="MSShapeGroup">
                    <path d="M2.97279409,4.20302582 C2.65686946,4.57331942 2.65686946,5.1754399 2.97279409,5.54573351 C3.28842039,5.91602712 3.80243185,5.91602712 4.11716319,5.54573351 C4.4327895,5.1754399 4.4327895,4.57331942 4.11716319,4.20302582 C3.80243185,3.83308188 3.28842039,3.83308188 2.97279409,4.20302582 L2.97279409,4.20302582 Z" id="Fill-1"></path>
                    <path d="M11.1346278,0.717230769 L9.50667628,0.717230769 L20.7475073,13.89255 L13.7112483,22.1397124 L14.5235833,23.0932447 L22.3742656,13.89255 L11.1346278,0.717230769 Z" id="Fill-2"></path>
                    <path d="M7.84948901,0.717230769 L2.35526436,0.717230769 L0,3.47922245 L0,9.91932409 L11.2396377,23.0932447 L19.0891267,13.8911513 L7.84948901,0.717230769 Z M11.2396377,21.1861801 L1.15003725,9.36056188 L1.15123054,4.03658601 L2.83168705,2.06693173 L7.37306632,2.06693173 L17.4623685,13.89255 L11.2396377,21.1861801 Z" id="Fill-3"></path>
                </g>
                <text id="Tag" sketch:type="MSTextLayer" font-family="Open Sans" font-size="14" font-weight="normal">
                    <tspan x="31" y="16">Tag</tspan>
                </text>
            </g>
        </g>
    </g>
</svg>