<?xml version="1.0" encoding="UTF-8" standalone="no"?>
<svg width="375px" height="275px" viewBox="0 0 375 275" version="1.1" xmlns="http://www.w3.org/2000/svg" xmlns:xlink="http://www.w3.org/1999/xlink" xmlns:sketch="http://www.bohemiancoding.com/sketch/ns">
    <!-- Generator: Sketch 3.3.3 (12081) - http://www.bohemiancoding.com/sketch -->
    <title>Rectangle 419 + Imported Layers</title>
    <desc>Created with Sketch.</desc>
    <defs></defs>
    <g id="Page-1" stroke="none" stroke-width="1" fill="none" fill-rule="evenodd" sketch:type="MSPage">
        <g id="Rectangle-419-+-Imported-Layers" sketch:type="MSLayerGroup">
            <rect id="Rectangle-419" fill="#D8D8D8" sketch:type="MSShapeGroup" x="0" y="0" width="375" height="275"></rect>
            <g id="Imported-Layers" transform="translate(137.000000, 99.000000)" fill="#979797" sketch:type="MSShapeGroup">
                <path d="M97.2444165,78 L4.87621954,78 C2.25312673,78 0,75.7575435 0,73.0241351 L0,4.85146831 C0,2.11805984 2.25312673,0 4.87621954,0 L97.119428,0 C99.8675093,0 101.995648,2.24079784 101.995648,4.85146831 L101.995648,73.0241351 C102.112303,75.7575435 99.8675093,78 97.2444165,78 L97.2444165,78 Z M4.87621954,2.49456695 C3.50301213,2.49456695 2.49977078,3.61413656 2.49977078,4.85810279 L2.49977078,73.0241351 C2.49977078,74.3908393 3.62633415,75.3893295 4.87621954,75.3893295 L97.119428,75.3893295 C98.4943019,75.3893295 99.4958767,74.2681013 99.4958767,73.0241351 L99.4958767,4.85146831 C99.4958767,3.48476407 98.3693134,2.48793246 97.119428,2.48793246 L4.87621954,2.48793246 L4.87621954,2.49456695 Z" id="Fill-1"></path>
                <path d="M90.7612794,69 L11.2387206,69 C10.4971399,69 10,68.5044304 10,67.7651921 L10,45.2867498 C10,44.9146611 10.2444409,44.4256771 10.6193603,44.2972571 L27.5865292,33.1839864 C27.9614486,32.9386712 28.5808089,32.9386712 28.9491218,33.1839864 L55.703835,50.3478156 L68.0910409,42.8171341 C68.4643087,42.5734654 69.083669,42.5734654 69.451982,42.8171341 L91.5045118,58.6259676 C91.8777796,58.8696363 92,59.2433715 92,59.6154603 L92,67.7651921 C92,68.3825961 91.5111183,69 90.7612794,69 L90.7612794,69 Z M12.4774412,66.5303843 L89.5225588,66.5303843 L89.5225588,60.2328642 L68.5947873,45.4085842 L56.3298018,52.8174314 C55.9548824,53.0627465 55.464349,53.0627465 54.9688608,52.8174314 L28.2058895,35.6601877 L12.4774412,46.0325738 L12.4774412,66.5303843 Z" id="Fill-2"></path>
                <path d="M72.5008118,30 C67.2617278,30 63,25.5139708 63,20.0008545 C63,14.4860292 67.2617278,10 72.5008118,10 C77.7382722,10 82,14.4860292 82,20.0008545 C81.8733658,25.5139708 77.611638,30 72.5008118,30 L72.5008118,30 Z M72.5008118,12.6967444 C68.6059985,12.6967444 65.435273,16.0275143 65.435273,20.1341536 C65.435273,24.2322481 68.5995044,27.5698539 72.5008118,27.5698539 C76.3940015,27.5698539 79.564727,24.239084 79.564727,20.1341536 C79.4380928,15.901051 76.2738614,12.6967444 72.5008118,12.6967444 L72.5008118,12.6967444 Z" id="Fill-3"></path>
            </g>
        </g>
    </g>
</svg>