<?xml version="1.0" encoding="UTF-8" standalone="no"?>
<svg width="66px" height="24px" viewBox="0 0 66 24" version="1.1" xmlns="http://www.w3.org/2000/svg" xmlns:xlink="http://www.w3.org/1999/xlink" xmlns:sketch="http://www.bohemiancoding.com/sketch/ns">
    <!-- Generator: Sketch 3.3.3 (12081) - http://www.bohemiancoding.com/sketch -->
    <title>Right + Imported Layers</title>
    <desc>Created with Sketch.</desc>
    <defs></defs>
    <g id="Page-1" stroke="none" stroke-width="1" fill="none" fill-rule="evenodd" sketch:type="MSPage">
        <g id="iPhone-6" sketch:type="MSArtboardGroup" transform="translate(-268.000000, -111.000000)" fill="#FFFFFF">
            <g id="Right-+-Imported-Layers" sketch:type="MSLayerGroup" transform="translate(269.000000, 112.000000)">
                <text id="Right" sketch:type="MSTextLayer" font-family="Open Sans" font-size="14" font-weight="normal">
                    <tspan x="32" y="17">Right</tspan>
                </text>
                <path d="M21.2048193,11 C21.2048193,16.6270522 16.6270522,21.2048193 11,21.2048193 C5.37294779,21.2048193 0.795180723,16.6270522 0.795180723,11 C0.795180723,5.37294779 5.37294779,0.795180723 11,0.795180723 C14.5701847,0.795180723 17.8488032,2.64918876 19.7013976,5.66981526 L16.3482088,4.72832129 L16.1340402,5.49452209 L20.7326586,6.7837751 L21.6851084,2.10528514 L20.9051245,1.94518876 L20.2689799,5.07608032 C18.2545221,1.92716466 14.7783454,0 11,0 C4.93400803,0 0,4.93400803 0,11 C0,17.065992 4.93400803,22 11,22 C17.065992,22 22,17.065992 22,11 L21.2048193,11 Z" id="Imported-Layers" stroke="#FFFFFF" sketch:type="MSShapeGroup"></path>
            </g>
        </g>
    </g>
</svg>