<?xml version="1.0" encoding="UTF-8" standalone="no"?>
<svg width="15px" height="20px" viewBox="0 0 15 20" version="1.1" xmlns="http://www.w3.org/2000/svg" xmlns:xlink="http://www.w3.org/1999/xlink" xmlns:sketch="http://www.bohemiancoding.com/sketch/ns">
    <!-- Generator: Sketch 3.3.2 (12043) - http://www.bohemiancoding.com/sketch -->
    <title>Imported Layers</title>
    <desc>Created with Sketch.</desc>
    <defs></defs>
    <g id="Page-1" stroke="none" stroke-width="1" fill="none" fill-rule="evenodd" sketch:type="MSPage">
        <g id="iPhone-6" sketch:type="MSArtboardGroup" transform="translate(-32.000000, -461.000000)" fill="#979797">
            <g id="Imported-Layers" sketch:type="MSLayerGroup" transform="translate(32.000000, 461.000000)">
                <path d="M7.30245614,10.3508772 C5.29473684,10.3508772 3.66245614,8.71719298 3.66245614,6.71052632 C3.66245614,4.70245614 5.29614035,3.07017544 7.30245614,3.07017544 C9.31052632,3.07017544 10.9431579,4.70245614 10.9431579,6.71052632 C10.9431579,8.71859649 9.31052632,10.3508772 7.30245614,10.3508772 L7.30245614,10.3508772 Z M7.30245614,3.85964912 C5.73052632,3.85964912 4.45192982,5.13859649 4.45192982,6.71052632 C4.45192982,8.28245614 5.73052632,9.56140351 7.30245614,9.56140351 C8.87473684,9.56140351 10.1536842,8.28245614 10.1536842,6.71052632 C10.1536842,5.13859649 8.87473684,3.85964912 7.30245614,3.85964912 L7.30245614,3.85964912 Z" id="Fill-1" sketch:type="MSShapeGroup"></path>
                <path d="M7.33017544,19.9014035 L7.33017544,19.9014035 C6.35263158,19.9014035 5.62631579,18.9666667 5.28105263,18.4101754 C2.97684211,14.3614035 0.241403509,8.9445614 0.241403509,6.05263158 C0.241403509,2.8 3.40877193,0.154736842 7.30245614,0.154736842 C11.1308772,0.154736842 14.3642105,2.85649123 14.3642105,6.05263158 C14.3642105,8.8554386 11.725614,14.1350877 9.51192982,18.0687719 C8.86526316,19.2817544 8.13052632,19.9014035 7.33017544,19.9014035 L7.33017544,19.9014035 Z M7.30245614,0.944210526 C3.8445614,0.944210526 1.03087719,3.23614035 1.03087719,6.05263158 C1.03087719,8.91578947 4.11859649,14.7712281 5.95929825,18.005614 C6.16105263,18.3291228 6.71333333,19.1119298 7.33017544,19.1119298 C7.93438596,19.1119298 8.47438596,18.3389474 8.82,17.6905263 C11.8873684,12.2368421 13.5747368,8.10701754 13.5747368,6.05263158 C13.5747368,3.33192982 10.6442105,0.944210526 7.30245614,0.944210526 L7.30245614,0.944210526 Z" id="Fill-2" sketch:type="MSShapeGroup"></path>
            </g>
        </g>
    </g>
</svg>