<?xml version="1.0" encoding="UTF-8" standalone="no"?>
<svg width="35px" height="30px" viewBox="0 0 35 30" version="1.1" xmlns="http://www.w3.org/2000/svg" xmlns:xlink="http://www.w3.org/1999/xlink" xmlns:sketch="http://www.bohemiancoding.com/sketch/ns">
    <!-- Generator: Sketch 3.3.3 (12081) - http://www.bohemiancoding.com/sketch -->
    <title>Fill-1</title>
    <desc>Created with Sketch.</desc>
    <defs></defs>
    <g id="Page-1" stroke="none" stroke-width="1" fill="none" fill-rule="evenodd" sketch:type="MSPage">
        <path d="M5.75657895,23.905 C-0.324210528,17.8242105 -0.733157895,8.0168421 4.7931579,1.38157895 C5.20947367,0.827105262 5.90026315,0.554473685 6.59105262,0.554473685 C7.2818421,0.554473685 7.97263157,0.827105262 8.52710527,1.24526316 L10.7357895,3.45394737 C11.7010526,4.41736842 11.7010526,5.79894737 11.0102631,6.77157895 C8.38342105,10.0892105 8.51973685,14.7865789 11.5628947,17.8242105 L9.6286842,19.7602631 C5.62026315,15.7518421 5.34578947,9.53473685 8.66342105,5.11552632 L6.72736842,3.1813158 C2.31,8.56947367 2.72078947,16.7226316 7.69263157,21.6944737 L5.75657895,23.905 Z M17.5,17.6878947 C14.4642105,17.6878947 11.9736842,15.1973684 11.9736842,12.161579 C11.9736842,9.12394738 14.4642105,6.63526315 17.5,6.63526315 C20.5357895,6.63526315 23.0263158,9.12394738 23.0263158,12.161579 C23.0263158,15.1973684 20.5357895,17.6878947 17.5,17.6878947 Z M17.5,9.39842105 C15.9821053,9.39842105 14.7368421,10.6418421 14.7368421,12.161579 C14.7368421,13.6794737 15.9821053,14.9247369 17.5,14.9247369 C19.0178947,14.9247369 20.2631579,13.6794737 20.2631579,12.161579 C20.2631579,10.6418421 19.0178947,9.39842105 17.5,9.39842105 Z M28.28,23.7594737 C27.5892105,23.7594737 26.898421,23.4868421 26.4802633,23.0686842 L24.271579,20.86 C23.3063158,19.8965789 23.3063158,18.515 23.9971053,17.5423684 C26.6239473,14.2265789 26.4876315,9.52736842 23.4444737,6.48973685 L25.3786843,4.55552632 C29.3871053,8.56210527 29.661579,14.7792105 26.3439473,19.198421 L28.28,21.1344737 C32.6973685,15.7444737 32.286579,7.5913158 27.3147368,2.61947367 L29.2507895,0.683421052 C35.331579,6.76421052 35.7405263,16.5715789 30.2142105,23.2068421 C29.661579,23.4868421 29.1071053,23.7594737 28.28,23.7594737 Z M16.118421,20.7236842 L18.8815789,20.7236842 L18.8815789,29.013158 L16.118421,29.013158 L16.118421,20.7236842 Z" id="Fill-1" fill="#6CADF3" sketch:type="MSShapeGroup"></path>
    </g>
</svg>