<?xml version="1.0" encoding="UTF-8" standalone="no"?>
<svg width="25px" height="17px" viewBox="0 0 25 17" version="1.1" xmlns="http://www.w3.org/2000/svg" xmlns:xlink="http://www.w3.org/1999/xlink" xmlns:sketch="http://www.bohemiancoding.com/sketch/ns">
    <!-- Generator: Sketch 3.3.2 (12043) - http://www.bohemiancoding.com/sketch -->
    <title>eye copy</title>
    <desc>Created with Sketch.</desc>
    <defs></defs>
    <g id="Page-1" stroke="none" stroke-width="1" fill="none" fill-rule="evenodd" sketch:type="MSPage">
        <g id="iPhone-6" sketch:type="MSArtboardGroup" transform="translate(-329.000000, -377.000000)" fill="#A4A4A4">
            <g id="eye-copy" sketch:type="MSLayerGroup" transform="translate(329.000000, 377.000000)">
                <path d="M24.1788869,6.39530509 C22.040552,3.99706568 17.6612823,0 12.5,0 C7.33871775,0 2.95944796,3.99706568 0.821113085,6.39530509 C-0.273704362,7.62192461 -0.273704362,9.43307501 0.821113085,10.6046949 C2.95944796,13.0029343 7.33871775,17 12.5,17 C17.6612823,17 22.040552,13.0029343 24.1788869,10.6046949 C25.2737044,9.43307501 25.2737044,7.61936649 24.1788869,6.39530509 L24.1788869,6.39530509 Z M22.666162,9.21819276 C20.7380321,11.3516665 16.8792698,14.9215258 12.5,14.9215258 C8.12073021,14.9215258 4.26196792,11.3516665 2.33383799,9.21819276 C1.96973299,8.84598601 1.96973299,8.258897 2.33383799,7.88669024 C4.26196792,5.70077496 8.12073021,2.13091566 12.5,2.13091566 C16.8792698,2.13091566 20.7380321,5.70077496 22.666162,7.83424874 C23.030267,8.258897 23.030267,8.7935445 22.666162,9.21819276 L22.666162,9.21819276 Z" id="Fill-1" sketch:type="MSShapeGroup"></path>
                <path d="M16,8.5 C16,13.1666667 9,13.1666667 9,8.5 C9,3.83333333 16,3.83333333 16,8.5" id="Fill-2" sketch:type="MSShapeGroup"></path>
            </g>
        </g>
    </g>
</svg>