<?xml version="1.0" encoding="UTF-8" standalone="no"?>
<svg width="23px" height="22px" viewBox="0 0 23 22" version="1.1" xmlns="http://www.w3.org/2000/svg" xmlns:xlink="http://www.w3.org/1999/xlink" xmlns:sketch="http://www.bohemiancoding.com/sketch/ns">
    <!-- Generator: Sketch 3.3.2 (12043) - http://www.bohemiancoding.com/sketch -->
    <title>Imported Layers</title>
    <desc>Created with Sketch.</desc>
    <defs></defs>
    <g id="Page-1" stroke="none" stroke-width="1" fill="none" fill-rule="evenodd" sketch:type="MSPage">
        <g id="iPhone-6" sketch:type="MSArtboardGroup" transform="translate(-26.000000, -81.000000)" fill="#FFFFFF">
            <path d="M34.3592656,81 C32.345864,81 30.3292069,81.7657871 28.7976326,83.2977231 C25.7341225,86.3608715 25.7341225,91.3487971 28.7976326,94.4123073 C31.6676161,97.2822908 36.2272508,97.4631569 39.3102945,94.9549057 L39.3189761,94.9549057 L47.093325,102.737936 C47.862006,103.506617 49.0152083,102.353415 48.2465273,101.584734 L40.4634968,93.8020651 C42.9645134,90.7186596 42.7879881,86.1644509 39.9208985,83.2977231 C38.3893242,81.7657871 36.3726671,81 34.3592656,81 L34.3592656,81 Z M34.3592656,82.6194752 C35.9530577,82.6194752 37.5468499,83.2297174 38.7676962,84.4505637 C41.192749,86.8752548 41.2093887,90.7725577 38.8187004,93.2171441 C38.8129127,93.2225701 38.8074867,93.2283578 38.801699,93.2337838 C38.7778247,93.2522321 38.7550355,93.2721274 38.7340551,93.2931078 C36.2909156,95.7040531 32.382399,95.6910307 29.9504732,93.2594667 C27.5087807,90.8177742 27.5087807,86.8922562 29.9504732,84.4505637 C31.1713195,83.2297174 32.7654734,82.6194752 34.3592656,82.6194752 L34.3592656,82.6194752 Z" id="Imported-Layers" sketch:type="MSShapeGroup"></path>
        </g>
    </g>
</svg>