<?xml version="1.0" encoding="UTF-8" standalone="no"?>
<svg width="53px" height="53px" viewBox="0 0 53 53" version="1.1" xmlns="http://www.w3.org/2000/svg" xmlns:xlink="http://www.w3.org/1999/xlink" xmlns:sketch="http://www.bohemiancoding.com/sketch/ns">
    <!-- Generator: Sketch 3.3.3 (12081) - http://www.bohemiancoding.com/sketch -->
    <title>Search Icon Copy</title>
    <desc>Created with Sketch.</desc>
    <defs></defs>
    <g id="Page-1" stroke="none" stroke-width="1" fill="none" fill-rule="evenodd" sketch:type="MSPage">
        <path d="M31.770035,35.6161889 C28.5558183,38.0307428 24.5603839,39.4615385 20.2307692,39.4615385 C9.60990866,39.4615385 1,30.8516298 1,20.2307692 C1,9.60990866 9.60990866,1 20.2307692,1 C30.8516298,1 39.4615385,9.60990866 39.4615385,20.2307692 C39.4615385,24.5603839 38.0307428,28.5558183 35.6161889,31.770035 L51,47.1538462 L47.1538462,51 L31.770035,35.6161889 L31.770035,35.6161889 Z M20.2307692,35.6153846 C28.7274577,35.6153846 35.6153846,28.7274577 35.6153846,20.2307692 C35.6153846,11.7340808 28.7274577,4.84615385 20.2307692,4.84615385 C11.7340808,4.84615385 4.84615385,11.7340808 4.84615385,20.2307692 C4.84615385,28.7274577 11.7340808,35.6153846 20.2307692,35.6153846 Z" id="Search-Icon-Copy" stroke="#979797" sketch:type="MSShapeGroup"></path>
    </g>
</svg>