<?xml version="1.0" encoding="UTF-8" standalone="no"?>
<svg width="31px" height="30px" viewBox="0 0 31 30" version="1.1" xmlns="http://www.w3.org/2000/svg" xmlns:xlink="http://www.w3.org/1999/xlink" xmlns:sketch="http://www.bohemiancoding.com/sketch/ns">
    <!-- Generator: Sketch 3.3.2 (12043) - http://www.bohemiancoding.com/sketch -->
    <title>Imported Layers</title>
    <desc>Created with Sketch.</desc>
    <defs></defs>
    <g id="Page-1" stroke="none" stroke-width="1" fill="none" fill-rule="evenodd" sketch:type="MSPage">
        <g id="iPhone-6" sketch:type="MSArtboardGroup" transform="translate(-16.000000, -79.000000)" fill="#000000">
            <g id="Imported-Layers" sketch:type="MSLayerGroup" transform="translate(16.000000, 79.000000)">
                <path d="M10.6854933,4.29066667 C9.12888,5.84728 8.27162667,7.91394667 8.27162667,10.1083333 C8.27162667,10.4261867 8.52830667,10.6828667 8.84616,10.6828667 C9.16442667,10.6828667 9.42110667,10.4261867 9.42110667,10.1083333 C9.42110667,8.21898667 10.1589067,6.44289333 11.49728,5.10286667 C11.6105333,4.99002667 11.6655067,4.84288 11.6655067,4.69614667 C11.6655067,4.549 11.60888,4.40226667 11.49728,4.28942667 C11.2744933,4.06622667 10.9099333,4.06622667 10.6854933,4.29066667 L10.6854933,4.29066667 Z" id="Fill-1" sketch:type="MSShapeGroup"></path>
                <path d="M27.71772,9.87397333 C27.71772,10.19224 27.9744,10.44892 28.2922533,10.44892 C28.61052,10.44892 28.8672,10.19224 28.8672,9.87397333 C28.8672,8.44342667 28.3083733,7.09844 27.2944667,6.08453333 C27.0683733,5.86009333 26.7050533,5.86009333 26.4806133,6.08453333 C26.2561733,6.30897333 26.2561733,6.67229333 26.4806133,6.89838667 C27.28,7.69446667 27.71772,8.75012 27.71772,9.87397333 L27.71772,9.87397333 Z" id="Fill-2" sketch:type="MSShapeGroup"></path>
                <path d="M3.70388,6.08288 C2.68997333,7.09678667 2.1328,8.44342667 2.1328,9.87397333 C2.1328,10.19224 2.38948,10.44892 2.70774667,10.44892 C3.0256,10.44892 3.28228,10.19224 3.28228,9.87397333 C3.28228,8.75177333 3.72165333,7.69446667 4.51773333,6.89673333 C4.74217333,6.67229333 4.74217333,6.30732 4.51773333,6.08288 C4.29329333,5.85844 3.92832,5.85844 3.70388,6.08288 L3.70388,6.08288 Z" id="Fill-3" sketch:type="MSShapeGroup"></path>
                <path d="M25.4700133,18.1100533 C25.4828267,18.1005467 25.4910933,18.08732 25.5022533,18.0778133 C28.3505333,17.56776 31,12.5883333 31,9.62886667 C31,6.27508 28.2728267,3.54832 24.9194533,3.54832 C24.1977733,3.54832 23.4938667,3.68224 22.81724,3.93396 C21.0250267,1.73337333 18.4144133,0.467333333 15.5677867,0.467333333 C12.6211333,0.467333333 9.99109333,1.83670667 8.26997333,3.96785333 C7.56772,3.69505333 6.83446667,3.54832 6.08054667,3.54832 C2.72882667,3.54832 0,6.27508 0,9.62886667 C0,12.47508 2.45437333,17.1866667 5.17493333,17.99556 C4.99058667,18.2394267 4.83104,18.5233867 4.76449333,18.84 C4.67893333,19.2562267 4.7616,19.66832 5.00216,20.0299867 C5.28281333,20.4511733 5.63662667,20.7562133 5.94828,21.02612 C6.56497333,21.5589067 6.54224,21.5944533 6.39054667,21.8222 C6.21446667,22.08508 6.28556,22.44344 6.55050667,22.61952 C6.64888,22.6856533 6.75882667,22.7166533 6.86836,22.7166533 C7.05394667,22.7166533 7.23664,22.6277867 7.34782667,22.45956 C8.08562667,21.35224 7.25276,20.6322133 6.70054667,20.1539867 C6.43105333,19.9216933 6.15329333,19.6811333 5.95944,19.39056 C5.88834667,19.28392 5.86726667,19.18844 5.89165333,19.0722933 C5.97390667,18.66888 6.52281333,18.2295067 6.70716,18.1084 C6.74725333,18.08112 6.77494667,18.04392 6.80553333,18.0100267 C7.33005333,17.8694933 7.85994667,17.6016533 8.37661333,17.2122933 C9.92826667,20.0089067 12.1627467,22.3855733 14.6200133,22.9601067 C14.2132933,23.3978267 13.81608,23.9612 13.68216,24.6088933 C13.5610533,25.1966533 13.6772,25.7794533 14.01944,26.2944667 C14.52164,27.0483867 15.1995067,27.5022267 15.7422133,27.8655467 C16.6577467,28.4805867 16.6899867,28.5500267 16.3184,29.1055467 C16.1427333,29.37008 16.2138267,29.7267867 16.47836,29.9028667 C16.5767333,29.96776 16.68668,30 16.79828,30 C16.9838667,30 17.1661467,29.9111333 17.2760933,29.74332 C18.3044667,28.19952 17.19384,27.4534533 16.3832933,26.91116 C15.90052,26.5866933 15.3532667,26.2200667 14.97672,25.6566933 C14.8022933,25.3934 14.7493867,25.13672 14.8072533,24.8444933 C14.9622533,24.0922267 15.8277733,23.3527733 16.2378,23.0650933 C18.77112,22.7439333 21.14448,20.0134533 22.6866267,17.26396 C23.1094667,17.57396 23.5405733,17.8050133 23.9683733,17.94844 C23.7699733,18.2022267 23.5955467,18.50396 23.5244533,18.8416533 C23.4388933,19.25788 23.5211467,19.66956 23.76336,20.0312267 C24.0444267,20.4528267 24.3978267,20.7578667 24.70948,21.0277733 C25.3261733,21.56056 25.3022,21.5961067 25.1505067,21.82344 C24.9744267,22.0867333 25.04552,22.4450933 25.3100533,22.6211733 C25.40884,22.6873067 25.5183733,22.7178933 25.62832,22.7178933 C25.81556,22.7178933 25.9966,22.62944 26.1077867,22.4612133 C26.8455867,21.3538933 26.01272,20.6334533 25.4605067,20.15564 C25.1906,19.9233467 24.91284,19.6827867 24.7194,19.3922133 C24.6483067,19.2855733 24.6272267,19.1900933 24.64996,19.0739467 C24.7371733,18.67012 25.2844267,18.23116 25.4700133,18.1100533 L25.4700133,18.1100533 Z M5.96770667,16.9783467 C3.84110667,16.9783467 1.14948,12.4201067 1.14948,9.62886667 C1.14948,6.90954667 3.36164,4.6978 6.08054667,4.6978 C6.5534,4.6978 7.02005333,4.76558667 7.47058667,4.89950667 C6.53893333,6.38833333 6.04996,8.08506667 6.04996,9.84834667 C6.04996,11.68396 6.67326667,13.9895333 7.77108,16.2339333 C7.15273333,16.72332 6.53562667,16.9783467 5.96770667,16.9783467 L5.96770667,16.9783467 Z M15.7471733,21.95116 C11.4927333,21.95116 7.33666667,14.2949867 7.33666667,9.85 C7.33666667,5.31118667 11.0293867,1.61888 15.5677867,1.61888 C18.1949333,1.61888 20.6054933,2.8378 22.1778133,4.96233333 C23.23884,6.39288 23.7972533,8.08341333 23.7972533,9.85 C23.7972533,10.2922667 23.75716,10.7667733 23.6778,11.2644267 C23.4388933,12.7561467 22.8577467,14.4561867 22.0004933,16.1161333 C20.2000133,19.60508 17.6877733,21.95116 15.7471733,21.95116 L15.7471733,21.95116 Z M23.3450667,15.9822133 C23.40996,15.8449867 23.4727867,15.709 23.5343733,15.5734267 C23.60216,15.4184267 23.6682933,15.26508 23.7327733,15.1117333 C23.7894,14.97616 23.8456133,14.8405867 23.89728,14.7050133 C23.9588667,14.5500133 24.01384,14.3950133 24.0700533,14.2400133 C24.1171733,14.1073333 24.1655333,13.9750667 24.2105867,13.8428 C24.2639067,13.6861467 24.30896,13.5294933 24.3577333,13.3744933 C24.3961733,13.2467733 24.43668,13.1194667 24.4705733,12.9917467 C24.5143867,12.83344 24.5511733,12.6767867 24.5900267,12.5205467 C24.61896,12.4010933 24.6516133,12.2799867 24.67724,12.16012 C24.7127867,11.99892 24.7400667,11.8406133 24.7694133,11.6806533 C24.78884,11.5727733 24.81116,11.4611733 24.82728,11.3545333 C24.8549733,11.1801067 24.8710933,11.0122933 24.8888667,10.84448 C24.89672,10.7572667 24.9116,10.6684 24.9194533,10.58284 C24.9405333,10.3327733 24.95004,10.0872533 24.95004,9.85 C24.95004,9.61233333 24.9405333,9.37673333 24.92276,9.14278667 C24.9178,9.06673333 24.90664,8.99109333 24.9000267,8.91669333 C24.8839067,8.75838667 24.8661333,8.60008 24.8434,8.44342667 C24.8305867,8.35456 24.8128133,8.26776 24.7966933,8.17889333 C24.7710667,8.03670667 24.7433733,7.89452 24.7111333,7.75233333 C24.6900533,7.66057333 24.6677333,7.57005333 24.6433467,7.47953333 C24.6078,7.34230667 24.5677067,7.20673333 24.5255467,7.07116 C24.4982667,6.98229333 24.46892,6.89342667 24.4383333,6.80456 C24.3916267,6.66733333 24.33996,6.53341333 24.28664,6.39949333 C24.2527467,6.31558667 24.2205067,6.23333333 24.18496,6.15066667 C24.12172,6.00724 24.0539333,5.86505333 23.9844933,5.72452 C23.9506,5.65508 23.91836,5.58398667 23.8828133,5.51454667 C23.7811333,5.31945333 23.6699467,5.1256 23.5517333,4.93670667 C23.5455333,4.92554667 23.53892,4.91232 23.5310667,4.90116 C23.98284,4.76724 24.44784,4.69945333 24.9211067,4.69945333 C27.6400133,4.69945333 29.8521733,6.9112 29.8521733,9.63010667 C29.8521733,12.4234133 27.1605467,16.98 25.0339467,16.98 C24.4656133,16.98 23.84892,16.72456 23.2305733,16.2355867 C23.2694267,16.1500267 23.3049733,16.06612 23.3450667,15.9822133 L23.3450667,15.9822133 Z" id="Fill-4" sketch:type="MSShapeGroup"></path>
            </g>
        </g>
    </g>
</svg>