<?xml version="1.0" encoding="UTF-8" standalone="no"?>
<svg width="39px" height="39px" viewBox="0 0 39 39" version="1.1" xmlns="http://www.w3.org/2000/svg" xmlns:xlink="http://www.w3.org/1999/xlink">
    <!-- Generator: Sketch 3.6.1 (26313) - http://www.bohemiancoding.com/sketch -->
    <title>Group 2</title>
    <desc>Created with Sketch.</desc>
    <defs></defs>
    <g id="Page-1" stroke="none" stroke-width="1" fill="none" fill-rule="evenodd">
        <g id="iPhone-6-Copy-10" transform="translate(-175.000000, -36.000000)">
            <g id="gram-panel" transform="translate(159.000000, 0.000000)">
                <g id="Group-2" transform="translate(16.000000, 36.000000)">
                    <circle id="Oval-560" fill="#FFFFFF" cx="19.5" cy="19.5" r="19.5"></circle>
                    <g id="1f5bc" transform="translate(10.000000, 10.000000)">
                        <g id="Group">
                            <path d="M0,0 L0,20 L10,10 L0,0 Z" id="Shape" fill="#333333"></path>
                            <path d="M20,0 L0,0 L10,10 L20,0 Z" id="Shape" fill="#697277"></path>
                            <path d="M0,20 L20,20 L10,10 L0,20 Z" id="Shape" fill="#333333"></path>
                            <g transform="translate(1.250000, 0.000000)" id="Shape" fill="#52595E">
                                <path d="M8.75,10 L18.75,20 L18.75,0 L8.75,10 Z"></path>
                                <path d="M0,1.25 L0,18.75 L8.75,10 L0,1.25 Z"></path>
                            </g>
                            <path d="M18.75,1.25 L1.25,1.25 L10,10 L18.75,1.25 Z" id="Shape" fill="#333333"></path>
                            <path d="M1.25,18.75 L18.75,18.75 L10,10 L1.25,18.75 Z" id="Shape" fill="#697277"></path>
                            <path d="M10,10 L18.75,18.75 L18.75,1.25 L10,10 Z" id="Shape" fill="#333333"></path>
                            <path d="M17.5,16.9665625 C17.5,17.2609375 17.26125,17.5 16.9671875,17.5 L3.0334375,17.5 C2.739375,17.5 2.5,17.2609375 2.5,16.9665625 L2.5,3.0334375 C2.5,2.73875 2.739375,2.5 3.0334375,2.5 L16.9671875,2.5 C17.26125,2.5 17.5,2.73875 17.5,3.0334375 L17.5,16.9665625 L17.5,16.9665625 Z" id="Shape" fill="#D0D0D0"></path>
                            <path d="M17.5,16.9665625 C17.5,17.2609375 17.26125,17.5 16.9671875,17.5 L3.0334375,17.5 C2.739375,17.5 2.5,17.2609375 2.5,16.9665625 L2.5,3.0334375 C2.5,2.73875 2.739375,2.5 3.0334375,2.5 L16.9671875,2.5 C17.26125,2.5 17.5,2.73875 17.5,3.0334375 L17.5,16.9665625 L17.5,16.9665625 Z" id="Shape" fill="#42ADE2"></path>
                            <path d="M2.5603125,11.1465625 L17.5,11.1465625 L17.5,17.5 L2.5603125,17.5 L2.5603125,11.1465625 Z" id="Shape" fill="#FED0AC"></path>
                            <ellipse id="Oval" fill="#FFCE31" cx="14.6140625" cy="5.7865625" rx="1.571875" ry="1.571875"></ellipse>
                            <path d="M5.5775,12.4765625 L10.03125,13.7471875 L10.03125,8.5459375 L5.5775,12.4765625 Z" id="Shape" fill="#89664C"></path>
                            <path d="M14.484375,12.4765625 L10.03125,13.7471875 L10.03125,8.5459375 L14.484375,12.4765625 Z" id="Shape" fill="#D3976E"></path>
                            <path d="M1.875,1.875 L1.875,18.125 L18.125,18.125 L18.125,1.875 L1.875,1.875 M17.03125,17.03125 L2.96875,17.03125 L2.96875,2.96875 L17.03125,2.96875 L17.03125,17.03125" id="Shape" fill="#FFFFFF"></path>
                        </g>
                    </g>
                </g>
            </g>
        </g>
    </g>
</svg>