<?xml version="1.0" encoding="UTF-8" standalone="no"?>
<svg width="39px" height="39px" viewBox="0 0 39 39" version="1.1" xmlns="http://www.w3.org/2000/svg" xmlns:xlink="http://www.w3.org/1999/xlink">
    <!-- Generator: Sketch 3.6.1 (26313) - http://www.bohemiancoding.com/sketch -->
    <title>Group 6</title>
    <desc>Created with Sketch.</desc>
    <defs></defs>
    <g id="Page-1" stroke="none" stroke-width="1" fill="none" fill-rule="evenodd">
        <g id="iPhone-6-Copy-10" transform="translate(-175.000000, -276.000000)">
            <g id="gram-panel" transform="translate(159.000000, 0.000000)">
                <g id="Group-6" transform="translate(16.000000, 276.000000)">
                    <circle id="Oval-560-Copy-4" fill="#FFFFFF" cx="19.5" cy="19.5" r="19.5"></circle>
                    <g id="icon-movie" transform="translate(8.000000, 7.000000)">
                        <g id="Group">
                            <path d="M23.6307692,16.1651515 L23.2884923,15.2 C23.2859077,15.2007576 23.2840615,15.2022727 23.2811077,15.2034091 C23.0222769,15.3 22.7353846,15.1628788 22.6408615,14.8962121 C22.5467077,14.6299242 22.6796308,14.3359848 22.9395692,14.2386364 C22.9421538,14.2382576 22.9447385,14.2371212 22.9473231,14.2359848 L22.6050462,13.2715909 C22.6028308,13.2723485 22.6002462,13.2738636 22.5980308,13.2746212 C22.3384615,13.3715909 22.0519385,13.2340909 21.9570462,12.9674242 C21.8628923,12.7011364 21.9965538,12.407197 22.2561231,12.3098485 C22.2587077,12.3094697 22.2612923,12.3087121 22.2635077,12.3075758 L21.9216,11.342803 C21.9190154,11.3435606 21.9164308,11.344697 21.9142154,11.3458333 C21.6546462,11.4424242 21.3681231,11.305303 21.2743385,11.0393939 C21.1794462,10.7731061 21.3131077,10.4784091 21.5726769,10.3814394 C21.5748923,10.380303 21.5778462,10.3799242 21.5800615,10.3791667 L21.2381538,9.41439394 C21.2355692,9.41477273 21.2326154,9.41590909 21.2304,9.41666667 C20.9789538,9.51060606 20.7024,9.3844697 20.5997538,9.1344697 C19.6035692,9.25606061 18.6203077,8.66628788 18.2621538,7.65681818 L4.48984615,12.8037879 C4.90781538,13.9814394 4.31556923,15.2833333 3.16836923,15.7128788 L5.8464,23.2651515 C6.9936,22.8367424 8.26227692,23.4435606 8.67950769,24.6215909 L22.4555077,19.4746212 C22.0955077,18.4606061 22.4850462,17.3526515 23.3346462,16.7920455 C23.2593231,16.5359848 23.3885538,16.2609848 23.6340923,16.1651515" id="Shape" fill="#FBBF67"></path>
                            <path d="M20.8836923,18.0731061 L9.00184615,22.5125 C8.36566154,22.75 7.65932308,22.4125 7.42707692,21.7590909 L5.32246154,15.8215909 C5.09058462,15.167803 5.42030769,14.442803 6.05612308,14.2049242 L17.9379692,9.76590909 C18.5748923,9.5280303 19.2808615,9.86628788 19.5123692,10.5193182 L21.6173538,16.457197 C21.8488615,17.1106061 21.5195077,17.8352273 20.8833231,18.0731061 M6.26806154,14.7973485 C5.94941538,14.9166667 5.78510769,15.2787879 5.90067692,15.6056818 L8.00603077,21.5435606 C8.1216,21.8693182 8.47458462,22.0386364 8.79249231,21.9200758 L20.6743385,17.4810606 C20.9926154,17.3617424 21.1576615,16.9996212 21.0420923,16.6723485 L18.9371077,10.7348485 C18.8215385,10.4087121 18.4674462,10.2393939 18.1495385,10.3583333 L6.27138462,14.7973485" id="Shape" fill="#FF5555"></path>
                            <g transform="translate(9.600000, 12.500000)" id="Shape" fill="#89664C">
                                <path d="M1.80295385,4.20454545 L1.47212308,4.32840909 C1.44295385,4.33939394 1.41304615,4.32462121 1.39827692,4.29659091 L1.22658462,3.90378788 L1.00024615,3.98825758 L1.11470769,4.40340909 C1.12172308,4.43409091 1.10732308,4.46515152 1.07889231,4.47613636 L0.747323077,4.59962121 C0.718153846,4.61060606 0.692307692,4.59431818 0.684923077,4.56325758 L0.0675692308,1.94848485 C0.0598153846,1.91780303 0.0779076923,1.88560606 0.106338462,1.87462121 L0.587815385,1.69469697 C0.616615385,1.68371212 0.650584615,1.69659091 0.664615385,1.725 L1.82843077,4.13560606 C1.84246154,4.16401515 1.83286154,4.19393939 1.80295385,4.20454545 M1.04861538,3.49583333 L0.619938462,2.50871212 L0.590769231,2.51856061 L0.880984615,3.55795455 L1.04861538,3.49583333"></path>
                                <path d="M2.51556923,1.93181818 L2.97673846,3.23333333 C3.06830769,3.49166667 2.93612308,3.78181818 2.68467692,3.87613636 L2.13858462,4.08030303 C2.10978462,4.09128788 2.07913846,4.07613636 2.06916923,4.0469697 L1.31076923,1.90757576 C1.30006154,1.8780303 1.31409231,1.8469697 1.34252308,1.83636364 L1.88972308,1.63219697 C2.1408,1.53787879 2.42326154,1.67310606 2.51556923,1.93181818 M2.09538462,2.10984848 C2.07803077,2.06060606 2.02338462,2.03484848 1.97649231,2.05265152 L1.86018462,2.09583333 L2.37230769,3.53939394 L2.48861538,3.49583333 C2.53513846,3.47840909 2.56098462,3.42272727 2.54363077,3.37386364 L2.09538462,2.10984848"></path>
                                <path d="M4.08,0.871212121 L4.83876923,3.01022727 C4.84947692,3.04015152 4.83581538,3.07083333 4.80590769,3.08143939 L4.45698462,3.2125 C4.42781538,3.22310606 4.39753846,3.20833333 4.3872,3.17878788 L4.03458462,2.18484848 L4.11027692,3.16439394 C4.11175385,3.19318182 4.0896,3.20113636 4.07298462,3.1780303 L3.51692308,2.3780303 L3.86953846,3.37234848 C3.88024615,3.40227273 3.86658462,3.43295455 3.83704615,3.44393939 L3.48812308,3.575 C3.45858462,3.58560606 3.42867692,3.57121212 3.41833846,3.54128788 L2.65993846,1.40227273 C2.64923077,1.37272727 2.66326154,1.34166667 2.6928,1.33068182 L3.00184615,1.21477273 C3.03064615,1.20378788 3.06646154,1.22083333 3.08233846,1.24431818 L3.77870769,2.28863636 L3.65833846,1.02954545 C3.65649231,1.00037879 3.67236923,0.964772727 3.70153846,0.954166667 L4.01132308,0.838257576 C4.04012308,0.827272727 4.06966154,0.841666667 4.08,0.871212121"></path>
                                <path d="M5.59015385,2.72727273 C5.60012308,2.75719697 5.58683077,2.78825758 5.55729231,2.79924242 L5.23347692,2.92083333 C5.20393846,2.93106061 5.17403077,2.91666667 5.16369231,2.88712121 L4.40492308,0.747727273 C4.39495385,0.718181818 4.40824615,0.687121212 4.43778462,0.676136364 L4.7616,0.556060606 C4.79150769,0.54469697 4.82141538,0.559090909 4.83175385,0.589015152 L5.59015385,2.72727273"></path>
                                <path d="M6.1296,0.106060606 L6.24738462,0.438636364 C6.25809231,0.468939394 6.24443077,0.499242424 6.21526154,0.509848485 L5.95643077,0.60719697 L6.57858462,2.36136364 C6.58892308,2.39090909 6.57526154,2.42159091 6.54609231,2.43295455 L6.22190769,2.55340909 C6.1968,2.56325758 6.16246154,2.54962121 6.15249231,2.52007576 L5.53033846,0.765909091 L5.27593846,0.861742424 C5.24713846,0.872348485 5.21649231,0.858712121 5.20578462,0.828030303 L5.088,0.495454545 C5.07803077,0.465909091 5.09206154,0.434848485 5.12123077,0.424242424 L6.06055385,0.0727272727 C6.08898462,0.0617424242 6.11889231,0.0765151515 6.1296,0.106060606"></path>
                                <path d="M3.59298462,6.91287879 L3.45452308,6.9655303 C3.20307692,7.05909091 2.92061538,6.92348485 2.82904615,6.66515152 L2.21649231,4.9375 C2.12492308,4.67954545 2.25636923,4.38863636 2.50818462,4.29431818 L2.64627692,4.24242424 C2.89809231,4.14886364 3.18092308,4.28409091 3.27212308,4.54318182 L3.88467692,6.27007576 C3.97698462,6.52840909 3.84443077,6.81931818 3.59298462,6.91287879 M2.73378462,4.66325758 L2.70461538,4.67386364 C2.65698462,4.69204545 2.63150769,4.74848485 2.64886154,4.79659091 L3.24849231,6.48787879 C3.26547692,6.53598485 3.32049231,6.56136364 3.36738462,6.54393939 L3.39618462,6.53333333 C3.44381538,6.5155303 3.46929231,6.45909091 3.45267692,6.41060606 L2.85304615,4.72045455 C2.83643077,4.6719697 2.78104615,4.64621212 2.73378462,4.66325758"></path>
                                <path d="M4.72283077,3.98143939 L5.4816,6.12007576 C5.49156923,6.14962121 5.47790769,6.18030303 5.44910769,6.19128788 L5.21538462,6.27840909 C5.18695385,6.28901515 5.14596923,6.27878788 5.12935385,6.25606061 L4.39753846,5.42424242 L4.74203077,6.39621212 C4.75236923,6.42613636 4.73907692,6.45681818 4.70953846,6.46742424 L4.38572308,6.58863636 C4.35581538,6.6 4.32664615,6.58484848 4.31630769,6.55606061 L3.55753846,4.41704545 C3.5472,4.38636364 3.56049231,4.35606061 3.58966154,4.34507576 L3.8304,4.25568182 C3.8592,4.24507576 3.89981538,4.25454545 3.9168,4.27840909 L4.68110769,5.22462121 L4.29636923,4.14090909 C4.2864,4.11098485 4.29969231,4.08030303 4.32923077,4.06969697 L4.65341538,3.94848485 C4.68258462,3.9375 4.71286154,3.95113636 4.72283077,3.98143939"></path>
                                <path d="M6.58338462,5.32954545 L6.70116923,5.6625 C6.71187692,5.69242424 6.69858462,5.72310606 6.66904615,5.73371212 L5.87852308,6.02916667 C5.84935385,6.03939394 5.81981538,6.02575758 5.80910769,5.99545455 L5.05107692,3.85643939 C5.04036923,3.82651515 5.0544,3.79583333 5.0832,3.78522727 L5.87372308,3.49015152 C5.90289231,3.47916667 5.9328,3.49356061 5.94313846,3.52386364 L6.06055385,3.85606061 C6.07163077,3.88674242 6.0576,3.91704545 6.02806154,3.92840909 L5.61304615,4.08257576 L5.76443077,4.50909091 L6.12516923,4.37462121 C6.15396923,4.36325758 6.18424615,4.37765152 6.19458462,4.40795455 L6.31236923,4.74090909 C6.32270769,4.77045455 6.30904615,4.80113636 6.28024615,4.81212121 L5.91950769,4.94659091 L6.09784615,5.45113636 L6.51286154,5.29583333 C6.54387692,5.28522727 6.57341538,5.3 6.58338462,5.32954545"></path>
                            </g>
                            <g opacity="0.5" transform="translate(2.953846, 7.575758)" id="Shape" fill="#947151">
                                <path d="M6.40947692,13.5643939 L17.6377846,3.89166667 C17.0913231,3.22234848 16.9923692,2.32689394 17.2951385,1.57083333 C16.4259692,1.53333333 15.6236308,0.971590909 15.3075692,0.0810606061 L1.53526154,5.2280303 C1.95323077,6.40568182 1.36098462,7.70757576 0.213784615,8.13712121 L1.07593846,10.5685606 L3.29501538,13.2848485 C4.23101538,12.4780303 5.62486154,12.6034091 6.40947692,13.5643939"></path>
                                <path d="M6.40947692,13.5643939 L17.6377846,3.89166667 C17.0913231,3.22234848 16.9923692,2.32689394 17.2951385,1.57083333 C16.4259692,1.53333333 15.6236308,0.971590909 15.3075692,0.0810606061 L1.53526154,5.2280303 C1.95323077,6.40568182 1.36098462,7.70757576 0.213784615,8.13712121 L1.07593846,10.5685606 L3.29501538,13.2848485 C4.23101538,12.4780303 5.62486154,12.6034091 6.40947692,13.5643939"></path>
                            </g>
                            <path d="M19.3809231,6.48863636 L18.7377231,5.70227273 C18.7358769,5.70378788 18.7344,5.70568182 18.7321846,5.70795455 C18.5209846,5.88939394 18.2056615,5.86136364 18.0284308,5.64431818 C17.8512,5.42689394 17.8781538,5.10416667 18.0900923,4.92159091 C18.0919385,4.92007576 18.0937846,4.91818182 18.096,4.91628788 L17.4531692,4.13030303 C17.4513231,4.13181818 17.4494769,4.13409091 17.4476308,4.13522727 C17.2360615,4.31742424 16.9207385,4.28939394 16.7431385,4.07234848 C16.5659077,3.85492424 16.5936,3.53181818 16.8048,3.34924242 C16.8070154,3.34772727 16.8092308,3.34621212 16.8110769,3.34431818 L16.1682462,2.55795455 C16.1660308,2.5594697 16.1641846,2.56136364 16.1623385,2.56325758 C15.9507692,2.74507576 15.6358154,2.71704545 15.4589538,2.50037879 C15.2813538,2.28295455 15.3086769,1.9594697 15.5202462,1.77727273 C15.5220923,1.77537879 15.5246769,1.77424242 15.5265231,1.77272727 L14.8836923,0.985984848 C14.8814769,0.9875 14.8792615,0.989393939 14.8774154,0.990909091 C14.6724923,1.16780303 14.3704615,1.14621212 14.1906462,0.946969697 C13.2945231,1.41060606 12.1742769,1.20151515 11.5015385,0.378409091 L0.272861538,10.0511364 C1.05747692,11.0113636 0.935630769,12.4431818 0.000369230769,13.2488636 L5.03261538,19.4056818 C5.96824615,18.6 7.36246154,18.725 8.14744615,19.6856061 L19.3761231,10.0128788 C18.7000615,9.18560606 18.6971077,8.00795455 19.3081846,7.18295455 C19.1523692,6.96856061 19.1822769,6.6655303 19.3809231,6.48863636" id="Shape" fill="#FBBF67"></path>
                            <path d="M17.4350769,9.2469697 L7.75015385,17.5916667 C7.23138462,18.0382576 6.45489231,17.9689394 6.0192,17.4363636 L2.06363077,12.5958333 C1.62793846,12.0636364 1.69587692,11.2659091 2.21464615,10.819697 L11.8995692,2.475 C12.4179692,2.0280303 13.1944615,2.09772727 13.6297846,2.63030303 L17.5860923,7.47045455 C18.0210462,8.00340909 17.9531077,8.79962121 17.4343385,9.2469697 M2.60972308,11.3011364 C2.35052308,11.5246212 2.31655385,11.9231061 2.53403077,12.1890152 L6.49070769,17.0295455 C6.70818462,17.2954545 7.09587692,17.330303 7.35544615,17.107197 L17.0403692,8.76628788 C17.2995692,8.54242424 17.3339077,8.14431818 17.1164308,7.87765152 L13.1604923,3.0375 C12.9430154,2.77159091 12.5538462,2.73674242 12.2950154,2.95984848 L2.61009231,11.3045455" id="Shape" fill="#FF5555"></path>
                            <g transform="translate(5.538462, 5.681818)" id="Shape" fill="#89664C">
                                <path d="M2.53107692,5.60681818 L2.26153846,5.83939394 C2.23753846,5.85984848 2.20467692,5.85643939 2.18141538,5.83522727 L1.88898462,5.52651515 L1.70473846,5.68484848 L1.94990769,6.03484848 C1.96689231,6.06136364 1.96393846,6.09545455 1.94067692,6.11628788 L1.6704,6.34848485 C1.64676923,6.36931818 1.61649231,6.36325758 1.59987692,6.33636364 L0.148430769,4.09621212 C0.130707692,4.07007576 0.137353846,4.03333333 0.160615385,4.01287879 L0.553107692,3.675 C0.576369231,3.65416667 0.612553846,3.65454545 0.635446154,3.67651515 L2.53255385,5.53295455 C2.55507692,5.55492424 2.55581538,5.58636364 2.53107692,5.60681818 M1.58621538,5.20530303 L0.8544,4.42765152 L0.830769231,4.44810606 L1.44996923,5.32310606 L1.58621538,5.20530303"></path>
                                <path d="M2.4432,3.22045455 L3.31015385,4.28106061 C3.48221538,4.49166667 3.45526154,4.81098485 3.24996923,4.9875 L2.80467692,5.37159091 C2.78141538,5.39242424 2.74781538,5.38901515 2.72787692,5.36439394 L1.30338462,3.62045455 C1.28307692,3.59621212 1.28603077,3.5625 1.30929231,3.54204545 L1.75569231,3.15833333 C1.96024615,2.98181818 2.27076923,3.00984848 2.4432,3.22045455 M2.10793846,3.53522727 C2.07544615,3.49545455 2.01526154,3.49015152 1.97723077,3.52310606 L1.88196923,3.60492424 L2.84381538,4.78143939 L2.93907692,4.69924242 C2.97710769,4.66666667 2.98264615,4.60530303 2.95015385,4.56515152 L2.10793846,3.53522727"></path>
                                <path d="M3.55975385,1.67651515 L4.98498462,3.42045455 C5.00492308,3.44469697 5.00233846,3.47878788 4.97796923,3.49924242 L4.69329231,3.74469697 C4.66966154,3.76477273 4.63643077,3.76136364 4.61649231,3.73712121 L3.95409231,2.92651515 L4.35138462,3.82045455 C4.36246154,3.8469697 4.34436923,3.86212121 4.32110769,3.84621212 L3.53206154,3.28977273 L4.19483077,4.10037879 C4.2144,4.12424242 4.21218462,4.15833333 4.18818462,4.17878788 L3.90350769,4.42424242 C3.87950769,4.44469697 3.84664615,4.44166667 3.82670769,4.41704545 L2.40147692,2.67310606 C2.38190769,2.64924242 2.38449231,2.61515152 2.40849231,2.59431818 L2.66104615,2.37689394 C2.68430769,2.35643939 2.72344615,2.35984848 2.74596923,2.37651515 L3.74806154,3.11363636 L3.21563077,1.97348485 C3.20418462,1.9469697 3.20750769,1.90719697 3.23113846,1.88674242 L3.48369231,1.66931818 C3.50732308,1.65037879 3.53981538,1.65340909 3.55975385,1.67765152"></path>
                                <path d="M5.60123077,2.89015152 C5.62116923,2.91439394 5.61858462,2.94886364 5.59421538,2.96969697 L5.33021538,3.19734848 C5.30621538,3.21780303 5.27335385,3.21477273 5.25341538,3.19015152 L3.82818462,1.44621212 C3.80824615,1.42234848 3.81083077,1.38787879 3.8352,1.36742424 L4.0992,1.13977273 C4.1232,1.11893939 4.15643077,1.12234848 4.17636923,1.14659091 L5.60123077,2.89015152"></path>
                                <path d="M5.232,0.236363636 L5.45353846,0.507575758 C5.47421538,0.53219697 5.47126154,0.565151515 5.44726154,0.585984848 L5.23643077,0.767424242 L6.40541538,2.1969697 C6.42498462,2.22121212 6.4224,2.25492424 6.3984,2.27613636 L6.1344,2.50378788 C6.11335385,2.5219697 6.07753846,2.52121212 6.0576,2.49659091 L4.88861538,1.06704545 L4.68110769,1.24621212 C4.65784615,1.26628788 4.62461538,1.26401515 4.60393846,1.23901515 L4.3824,0.96780303 C4.36283077,0.943939394 4.36578462,0.909469697 4.38941538,0.889015152 L5.15556923,0.229166667 C5.1792,0.208712121 5.21243077,0.212121212 5.232,0.236363636"></path>
                                <path d="M5.11643077,7.52575758 L5.00344615,7.62348485 C4.79852308,7.79962121 4.48763077,7.7719697 4.31593846,7.56060606 L3.16467692,6.15265152 C2.99261538,5.94204545 3.0192,5.62272727 3.22449231,5.44621212 L3.33747692,5.34848485 C3.5424,5.17234848 3.85366154,5.20037879 4.02572308,5.41098485 L5.17624615,6.81931818 C5.34867692,7.02954545 5.32172308,7.34924242 5.11643077,7.52575758 M3.55975385,5.71363636 L3.53612308,5.73409091 C3.49772308,5.76780303 3.49218462,5.82954545 3.52467692,5.86856061 L4.65156923,7.24734848 C4.68332308,7.28674242 4.74387692,7.29166667 4.78227692,7.25871212 L4.80590769,7.23825758 C4.84430769,7.20454545 4.84984615,7.14280303 4.81809231,7.10340909 L3.69156923,5.72537879 C3.65870769,5.68560606 3.59815385,5.68030303 3.55975385,5.71363636"></path>
                                <path d="M5.20246154,4.37234848 L6.62769231,6.11628788 C6.64763077,6.1405303 6.64467692,6.17424242 6.62067692,6.19469697 L6.43015385,6.35871212 C6.40689231,6.37916667 6.3648,6.38371212 6.34190769,6.36780303 L5.37710769,5.84318182 L6.02436923,6.63598485 C6.04467692,6.66022727 6.04172308,6.69356061 6.01772308,6.71401515 L5.75335385,6.94166667 C5.72972308,6.96287879 5.69686154,6.95909091 5.67766154,6.93484848 L4.25243077,5.19128788 C4.23212308,5.16628788 4.23470769,5.13333333 4.25870769,5.1125 L4.45476923,4.94356061 C4.4784,4.92348485 4.52012308,4.91856061 4.54375385,4.9344697 L5.57723077,5.55606061 L4.85501538,4.67234848 C4.83470769,4.64772727 4.83766154,4.61439394 4.86203077,4.59356061 L5.12603077,4.3655303 C5.14929231,4.34507576 5.18252308,4.34772727 5.20246154,4.37234848"></path>
                                <path d="M7.39938462,4.98863636 L7.62129231,5.26060606 C7.6416,5.2844697 7.63901538,5.31818182 7.61427692,5.33863636 L6.97070769,5.89393939 C6.94670769,5.91439394 6.91421538,5.91136364 6.89390769,5.88674242 L5.46904615,4.14280303 C5.44910769,4.11856061 5.45206154,4.08484848 5.47569231,4.06439394 L6.12,3.5094697 C6.14363077,3.48863636 6.17649231,3.49166667 6.19643077,3.51666667 L6.41833846,3.7875 C6.43864615,3.81212121 6.43569231,3.84545455 6.41132308,3.86666667 L6.07310769,4.15795455 L6.35741538,4.50530303 L6.65132308,4.25227273 C6.67458462,4.23143939 6.70781538,4.2344697 6.72775385,4.2594697 L6.94966154,4.53106061 C6.9696,4.55530303 6.96664615,4.58863636 6.94301538,4.60909091 L6.64873846,4.8625 L6.98510769,5.27386364 L7.32332308,4.98181818 C7.34695385,4.96136364 7.38018462,4.96477273 7.39938462,4.98863636"></path>
                            </g>
                        </g>
                    </g>
                </g>
            </g>
        </g>
    </g>
</svg>