<?xml version="1.0" encoding="UTF-8" standalone="no"?>
<svg width="56px" height="56px" viewBox="0 0 56 56" version="1.1" xmlns="http://www.w3.org/2000/svg" xmlns:xlink="http://www.w3.org/1999/xlink" xmlns:sketch="http://www.bohemiancoding.com/sketch/ns">
    <!-- Generator: Sketch 3.5.2 (25235) - http://www.bohemiancoding.com/sketch -->
    <title>Group 4</title>
    <desc>Created with Sketch.</desc>
    <defs>
        <filter x="-50%" y="-50%" width="200%" height="200%" filterUnits="objectBoundingBox" id="filter-1">
            <feOffset dx="0" dy="2" in="SourceAlpha" result="shadowOffsetOuter1"></feOffset>
            <feGaussianBlur stdDeviation="2" in="shadowOffsetOuter1" result="shadowBlurOuter1"></feGaussianBlur>
            <feColorMatrix values="0 0 0 0 0   0 0 0 0 0   0 0 0 0 0  0 0 0 0.102519248 0" in="shadowBlurOuter1" type="matrix" result="shadowMatrixOuter1"></feColorMatrix>
            <feMerge>
                <feMergeNode in="shadowMatrixOuter1"></feMergeNode>
                <feMergeNode in="SourceGraphic"></feMergeNode>
            </feMerge>
        </filter>
    </defs>
    <g id="Page-1" stroke="none" stroke-width="1" fill="none" fill-rule="evenodd" sketch:type="MSPage">
        <g id="iPhone-6-Copy-9" sketch:type="MSArtboardGroup" transform="translate(-5.000000, -324.000000)">
            <g id="Group-4" sketch:type="MSLayerGroup" transform="translate(10.000000, 327.000000)">
                <g id="Group-10-Copy" stroke="#F2EFF0" filter="url(#filter-1)" fill="#FFFFFF" sketch:type="MSShapeGroup">
                    <circle id="Oval-541" cx="23" cy="23" r="23"></circle>
                </g>
                <g id="icon-movie" transform="translate(7.000000, 6.000000)" sketch:type="MSShapeGroup">
                    <g id="Group">
                        <path d="M31.5076923,21.5535354 L31.0513231,20.2666667 C31.0478769,20.2676768 31.0454154,20.269697 31.0414769,20.2712121 C30.6963692,20.4 30.3138462,20.2171717 30.1878154,19.8616162 C30.0622769,19.5065657 30.2395077,19.1146465 30.5860923,18.9848485 C30.5895385,18.9843434 30.5929846,18.9828283 30.5964308,18.9813131 L30.1400615,17.6954545 C30.1371077,17.6964646 30.1336615,17.6984848 30.1307077,17.6994949 C29.7846154,17.8287879 29.4025846,17.6454545 29.2760615,17.289899 C29.1505231,16.9348485 29.3287385,16.5429293 29.6748308,16.4131313 C29.6782769,16.4126263 29.6817231,16.4116162 29.6846769,16.410101 L29.2288,15.1237374 C29.2253538,15.1247475 29.2219077,15.1262626 29.2189538,15.1277778 C28.8728615,15.2565657 28.4908308,15.0737374 28.3657846,14.7191919 C28.2392615,14.3641414 28.4174769,13.9712121 28.7635692,13.8419192 C28.7665231,13.840404 28.7704615,13.839899 28.7734154,13.8388889 L28.3175385,12.5525253 C28.3140923,12.5530303 28.3101538,12.5545455 28.3072,12.5555556 C27.9719385,12.6808081 27.6032,12.5126263 27.4663385,12.1792929 C26.1380923,12.3414141 24.8270769,11.5550505 24.3495385,10.2090909 L5.98646154,17.0717172 C6.54375385,18.6419192 5.75409231,20.3777778 4.22449231,20.9505051 L7.7952,31.020202 C9.3248,30.4489899 11.0163692,31.2580808 11.5726769,32.8287879 L29.9406769,25.9661616 C29.4606769,24.6141414 29.9800615,23.1368687 31.1128615,22.3893939 C31.0124308,22.0479798 31.1847385,21.6813131 31.5121231,21.5535354" id="Shape" fill="#FBBF67"></path>
                        <path d="M27.8449231,24.0974747 L12.0024615,30.0166667 C11.1542154,30.3333333 10.2124308,29.8833333 9.90276923,29.0121212 L7.09661538,21.0954545 C6.78744615,20.2237374 7.22707692,19.2570707 8.07483077,18.939899 L23.9172923,13.0212121 C24.7665231,12.7040404 25.7078154,13.1550505 26.0164923,14.0257576 L28.8231385,21.9429293 C29.1318154,22.8141414 28.6926769,23.780303 27.8444308,24.0974747 M8.35741538,19.729798 C7.93255385,19.8888889 7.71347692,20.3717172 7.86756923,20.8075758 L10.6747077,28.7247475 C10.8288,29.1590909 11.2994462,29.3848485 11.7233231,29.2267677 L27.5657846,23.3080808 C27.9901538,23.1489899 28.2102154,22.6661616 28.0561231,22.229798 L25.2494769,14.3131313 C25.0953846,13.8782828 24.6232615,13.6525253 24.1993846,13.8111111 L8.36184615,19.729798" id="Shape" fill="#FF5555"></path>
                        <g transform="translate(12.800000, 16.666667)" id="Shape" fill="#89664C">
                            <path d="M2.40393846,5.60606061 L1.96283077,5.77121212 C1.92393846,5.78585859 1.88406154,5.76616162 1.86436923,5.72878788 L1.63544615,5.20505051 L1.33366154,5.31767677 L1.48627692,5.87121212 C1.49563077,5.91212121 1.47643077,5.95353535 1.43852308,5.96818182 L0.996430769,6.13282828 C0.957538462,6.14747475 0.923076923,6.12575758 0.913230769,6.08434343 L0.0900923077,2.5979798 C0.0797538462,2.55707071 0.103876923,2.51414141 0.141784615,2.49949495 L0.783753846,2.25959596 C0.822153846,2.24494949 0.867446154,2.26212121 0.886153846,2.3 L2.43790769,5.51414141 C2.45661538,5.5520202 2.44381538,5.59191919 2.40393846,5.60606061 M1.39815385,4.66111111 L0.826584615,3.34494949 L0.787692308,3.35808081 L1.17464615,4.74393939 L1.39815385,4.66111111"></path>
                            <path d="M3.35409231,2.57575758 L3.96898462,4.31111111 C4.09107692,4.65555556 3.91483077,5.04242424 3.57956923,5.16818182 L2.85144615,5.44040404 C2.81304615,5.45505051 2.77218462,5.43484848 2.75889231,5.3959596 L1.74769231,2.54343434 C1.73341538,2.5040404 1.75212308,2.46262626 1.79003077,2.44848485 L2.51963077,2.17626263 C2.8544,2.05050505 3.23101538,2.23080808 3.35409231,2.57575758 M2.79384615,2.81313131 C2.77070769,2.74747475 2.69784615,2.71313131 2.63532308,2.73686869 L2.48024615,2.79444444 L3.16307692,4.71919192 L3.31815385,4.66111111 C3.38018462,4.63787879 3.41464615,4.56363636 3.39150769,4.49848485 L2.79384615,2.81313131"></path>
                            <path d="M5.44,1.16161616 L6.45169231,4.01363636 C6.46596923,4.05353535 6.44775385,4.09444444 6.40787692,4.10858586 L5.94264615,4.28333333 C5.90375385,4.29747475 5.86338462,4.27777778 5.8496,4.23838384 L5.37944615,2.91313131 L5.48036923,4.21919192 C5.48233846,4.25757576 5.4528,4.26818182 5.43064615,4.23737374 L4.68923077,3.17070707 L5.15938462,4.49646465 C5.17366154,4.53636364 5.15544615,4.57727273 5.11606154,4.59191919 L4.65083077,4.76666667 C4.61144615,4.78080808 4.57156923,4.76161616 4.55778462,4.72171717 L3.54658462,1.86969697 C3.53230769,1.83030303 3.55101538,1.78888889 3.5904,1.77424242 L4.00246154,1.61969697 C4.04086154,1.60505051 4.08861538,1.62777778 4.10978462,1.65909091 L5.03827692,3.05151515 L4.87778462,1.37272727 C4.87532308,1.33383838 4.89649231,1.28636364 4.93538462,1.27222222 L5.34843077,1.11767677 C5.38683077,1.1030303 5.42621538,1.12222222 5.44,1.16161616"></path>
                            <path d="M7.45353846,3.63636364 C7.46683077,3.67626263 7.44910769,3.71767677 7.40972308,3.73232323 L6.97796923,3.89444444 C6.93858462,3.90808081 6.89870769,3.88888889 6.88492308,3.84949495 L5.87323077,0.996969697 C5.85993846,0.957575758 5.87766154,0.916161616 5.91704615,0.901515152 L6.3488,0.741414141 C6.38867692,0.726262626 6.42855385,0.745454545 6.44233846,0.785353535 L7.45353846,3.63636364"></path>
                            <path d="M8.1728,0.141414141 L8.32984615,0.584848485 C8.34412308,0.625252525 8.32590769,0.665656566 8.28701538,0.67979798 L7.94190769,0.80959596 L8.77144615,3.14848485 C8.78523077,3.18787879 8.76701538,3.22878788 8.72812308,3.24393939 L8.29587692,3.40454545 C8.2624,3.41767677 8.21661538,3.39949495 8.20332308,3.36010101 L7.37378462,1.02121212 L7.03458462,1.1489899 C6.99618462,1.16313131 6.95532308,1.14494949 6.94104615,1.1040404 L6.784,0.660606061 C6.77070769,0.621212121 6.78941538,0.57979798 6.82830769,0.565656566 L8.08073846,0.096969697 C8.11864615,0.0823232323 8.15852308,0.102020202 8.1728,0.141414141"></path>
                            <path d="M4.79064615,9.21717172 L4.60603077,9.28737374 C4.27076923,9.41212121 3.89415385,9.23131313 3.77206154,8.88686869 L2.95532308,6.58333333 C2.83323077,6.23939394 3.00849231,5.85151515 3.34424615,5.72575758 L3.52836923,5.65656566 C3.86412308,5.53181818 4.24123077,5.71212121 4.36283077,6.05757576 L5.17956923,8.36010101 C5.30264615,8.70454545 5.12590769,9.09242424 4.79064615,9.21717172 M3.64504615,6.21767677 L3.60615385,6.23181818 C3.54264615,6.25606061 3.50867692,6.33131313 3.53181538,6.39545455 L4.33132308,8.65050505 C4.35396923,8.71464646 4.42732308,8.74848485 4.48984615,8.72525253 L4.52824615,8.71111111 C4.59175385,8.68737374 4.62572308,8.61212121 4.60356923,8.54747475 L3.80406154,6.29393939 C3.78190769,6.22929293 3.70806154,6.19494949 3.64504615,6.21767677"></path>
                            <path d="M6.29710769,5.30858586 L7.3088,8.16010101 C7.32209231,8.19949495 7.30387692,8.24040404 7.26547692,8.25505051 L6.95384615,8.37121212 C6.91593846,8.38535354 6.86129231,8.37171717 6.83913846,8.34141414 L5.86338462,7.23232323 L6.32270769,8.52828283 C6.33649231,8.56818182 6.31876923,8.60909091 6.27938462,8.62323232 L5.84763077,8.78484848 C5.80775385,8.8 5.76886154,8.77979798 5.75507692,8.74141414 L4.74338462,5.88939394 C4.7296,5.84848485 4.74732308,5.80808081 4.78621538,5.79343434 L5.1072,5.67424242 C5.1456,5.66010101 5.19975385,5.67272727 5.2224,5.70454545 L6.24147692,6.96616162 L5.72849231,5.52121212 C5.7152,5.48131313 5.73292308,5.44040404 5.77230769,5.42626263 L6.20455385,5.26464646 C6.24344615,5.25 6.28381538,5.26818182 6.29710769,5.30858586"></path>
                            <path d="M8.77784615,7.10606061 L8.93489231,7.55 C8.94916923,7.58989899 8.93144615,7.63080808 8.89206154,7.64494949 L7.83803077,8.03888889 C7.79913846,8.05252525 7.75975385,8.03434343 7.74547692,7.99393939 L6.73476923,5.14191919 C6.72049231,5.1020202 6.7392,5.06111111 6.7776,5.0469697 L7.83163077,4.65353535 C7.87052308,4.63888889 7.9104,4.65808081 7.92418462,4.69848485 L8.08073846,5.14141414 C8.09550769,5.18232323 8.0768,5.22272727 8.03741538,5.23787879 L7.48406154,5.44343434 L7.68590769,6.01212121 L8.16689231,5.83282828 C8.20529231,5.81767677 8.24566154,5.83686869 8.25944615,5.87727273 L8.41649231,6.32121212 C8.43027692,6.36060606 8.41206154,6.40151515 8.37366154,6.41616162 L7.89267692,6.59545455 L8.13046154,7.26818182 L8.68381538,7.06111111 C8.72516923,7.0469697 8.76455385,7.06666667 8.77784615,7.10606061"></path>
                        </g>
                        <g transform="translate(3.938462, 10.101010)" id="Shape" fill="#947151">
                            <path d="M8.54596923,18.0858586 L23.5170462,5.18888889 C22.7884308,4.29646465 22.6564923,3.10252525 23.0601846,2.09444444 C21.9012923,2.04444444 20.8315077,1.29545455 20.4100923,0.108080808 L2.04701538,6.97070707 C2.60430769,8.54090909 1.81464615,10.2767677 0.285046154,10.8494949 L1.43458462,14.0914141 L4.39335385,17.7131313 C5.64135385,16.6373737 7.49981538,16.8045455 8.54596923,18.0858586"></path>
                            <path d="M8.54596923,18.0858586 L23.5170462,5.18888889 C22.7884308,4.29646465 22.6564923,3.10252525 23.0601846,2.09444444 C21.9012923,2.04444444 20.8315077,1.29545455 20.4100923,0.108080808 L2.04701538,6.97070707 C2.60430769,8.54090909 1.81464615,10.2767677 0.285046154,10.8494949 L1.43458462,14.0914141 L4.39335385,17.7131313 C5.64135385,16.6373737 7.49981538,16.8045455 8.54596923,18.0858586" opacity="0.5"></path>
                        </g>
                        <path d="M25.8412308,8.65151515 L24.9836308,7.6030303 C24.9811692,7.60505051 24.9792,7.60757576 24.9762462,7.61060606 C24.6946462,7.85252525 24.2742154,7.81515152 24.0379077,7.52575758 C23.8016,7.23585859 23.8375385,6.80555556 24.1201231,6.56212121 C24.1225846,6.56010101 24.1250462,6.55757576 24.128,6.55505051 L23.2708923,5.50707071 C23.2684308,5.50909091 23.2659692,5.51212121 23.2635077,5.51363636 C22.9814154,5.75656566 22.5609846,5.71919192 22.3241846,5.42979798 C22.0878769,5.13989899 22.1248,4.70909091 22.4064,4.46565657 C22.4093538,4.46363636 22.4123077,4.46161616 22.4147692,4.45909091 L21.5576615,3.41060606 C21.5547077,3.41262626 21.5522462,3.41515152 21.5497846,3.41767677 C21.2676923,3.66010101 20.8477538,3.62272727 20.6119385,3.33383838 C20.3751385,3.04393939 20.4115692,2.61262626 20.6936615,2.36969697 C20.6961231,2.36717172 20.6995692,2.36565657 20.7020308,2.36363636 L19.8449231,1.31464646 C19.8419692,1.31666667 19.8390154,1.31919192 19.8365538,1.32121212 C19.5633231,1.55707071 19.1606154,1.52828283 18.9208615,1.26262626 C17.7260308,1.88080808 16.2323692,1.6020202 15.3353846,0.504545455 L0.363815385,13.4015152 C1.40996923,14.6818182 1.24750769,16.5909091 0.000492307692,17.6651515 L6.71015385,25.8742424 C7.95766154,24.8 9.81661538,24.9666667 10.8632615,26.2474747 L25.8348308,13.3505051 C24.9334154,12.2474747 24.9294769,10.6772727 25.7442462,9.57727273 C25.5364923,9.29141414 25.5763692,8.88737374 25.8412308,8.65151515" id="Shape" fill="#FBBF67"></path>
                        <path d="M23.2467692,12.3292929 L10.3335385,23.4555556 C9.64184615,24.0510101 8.60652308,23.9585859 8.0256,23.2484848 L2.75150769,16.7944444 C2.17058462,16.0848485 2.26116923,15.0212121 2.95286154,14.4262626 L15.8660923,3.3 C16.5572923,2.7040404 17.5926154,2.7969697 18.1730462,3.50707071 L23.4481231,9.96060606 C24.0280615,10.6712121 23.9374769,11.7328283 23.2457846,12.3292929 M3.47963077,15.0681818 C3.13403077,15.3661616 3.08873846,15.8974747 3.37870769,16.2520202 L8.65427692,22.7060606 C8.94424615,23.0606061 9.46116923,23.1070707 9.80726154,22.809596 L22.7204923,11.6883838 C23.0660923,11.389899 23.1118769,10.8590909 22.8219077,10.5035354 L17.5473231,4.05 C17.2573538,3.69545455 16.7384615,3.6489899 16.3933538,3.94646465 L3.48012308,15.0727273" id="Shape" fill="#FF5555"></path>
                        <g transform="translate(7.384615, 7.575758)" id="Shape" fill="#89664C">
                            <path d="M3.37476923,7.47575758 L3.01538462,7.78585859 C2.98338462,7.81313131 2.93956923,7.80858586 2.90855385,7.78030303 L2.51864615,7.36868687 L2.27298462,7.57979798 L2.59987692,8.04646465 C2.62252308,8.08181818 2.61858462,8.12727273 2.58756923,8.15505051 L2.2272,8.46464646 C2.19569231,8.49242424 2.15532308,8.48434343 2.13316923,8.44848485 L0.197907692,5.46161616 C0.174276923,5.42676768 0.183138462,5.37777778 0.214153846,5.35050505 L0.737476923,4.9 C0.768492308,4.87222222 0.816738462,4.87272727 0.847261538,4.9020202 L3.37673846,7.37727273 C3.40676923,7.40656566 3.40775385,7.44848485 3.37476923,7.47575758 M2.11495385,6.94040404 L1.1392,5.90353535 L1.10769231,5.93080808 L1.93329231,7.09747475 L2.11495385,6.94040404"></path>
                            <path d="M3.2576,4.29393939 L4.41353846,5.70808081 C4.64295385,5.98888889 4.60701538,6.41464646 4.33329231,6.65 L3.73956923,7.16212121 C3.70855385,7.18989899 3.66375385,7.18535354 3.63716923,7.15252525 L1.73784615,4.82727273 C1.71076923,4.79494949 1.71470769,4.75 1.74572308,4.72272727 L2.34092308,4.21111111 C2.61366154,3.97575758 3.02769231,4.01313131 3.2576,4.29393939 M2.81058462,4.71363636 C2.76726154,4.66060606 2.68701538,4.65353535 2.63630769,4.69747475 L2.50929231,4.80656566 L3.79175385,6.37525253 L3.91876923,6.26565657 C3.96947692,6.22222222 3.97686154,6.14040404 3.93353846,6.08686869 L2.81058462,4.71363636"></path>
                            <path d="M4.74633846,2.23535354 L6.64664615,4.56060606 C6.67323077,4.59292929 6.66978462,4.63838384 6.63729231,4.66565657 L6.25772308,4.99292929 C6.22621538,5.01969697 6.18190769,5.01515152 6.15532308,4.98282828 L5.27212308,3.9020202 L5.80184615,5.09393939 C5.81661538,5.12929293 5.79249231,5.14949495 5.76147692,5.12828283 L4.70941538,4.38636364 L5.59310769,5.46717172 C5.6192,5.4989899 5.61624615,5.54444444 5.58424615,5.57171717 L5.20467692,5.8989899 C5.17267692,5.92626263 5.12886154,5.92222222 5.10227692,5.88939394 L3.20196923,3.56414141 C3.17587692,3.53232323 3.17932308,3.48686869 3.21132308,3.45909091 L3.54806154,3.16919192 C3.57907692,3.14191919 3.63126154,3.14646465 3.66129231,3.16868687 L4.99741538,4.15151515 L4.28750769,2.63131313 C4.27224615,2.5959596 4.27667692,2.54292929 4.30818462,2.51565657 L4.64492308,2.22575758 C4.67643077,2.20050505 4.71975385,2.20454545 4.74633846,2.23686869"></path>
                            <path d="M7.46830769,3.85353535 C7.49489231,3.88585859 7.49144615,3.93181818 7.45895385,3.95959596 L7.10695385,4.26313131 C7.07495385,4.29040404 7.03113846,4.28636364 7.00455385,4.25353535 L5.10424615,1.92828283 C5.07766154,1.89646465 5.08110769,1.85050505 5.1136,1.82323232 L5.4656,1.51969697 C5.4976,1.49191919 5.54190769,1.49646465 5.56849231,1.52878788 L7.46830769,3.85353535"></path>
                            <path d="M6.976,0.315151515 L7.27138462,0.676767677 C7.29895385,0.70959596 7.29501538,0.753535354 7.26301538,0.781313131 L6.98190769,1.02323232 L8.54055385,2.92929293 C8.56664615,2.96161616 8.5632,3.00656566 8.5312,3.03484848 L8.1792,3.33838384 C8.15113846,3.36262626 8.10338462,3.36161616 8.0768,3.32878788 L6.51815385,1.42272727 L6.24147692,1.66161616 C6.21046154,1.68838384 6.16615385,1.68535354 6.13858462,1.6520202 L5.8432,1.29040404 C5.81710769,1.25858586 5.82104615,1.21262626 5.85255385,1.18535354 L6.87409231,0.305555556 C6.9056,0.278282828 6.94990769,0.282828283 6.976,0.315151515"></path>
                            <path d="M6.82190769,10.0343434 L6.67126154,10.1646465 C6.39803077,10.3994949 5.98350769,10.3626263 5.75458462,10.0808081 L4.21956923,8.20353535 C3.99015385,7.92272727 4.0256,7.4969697 4.29932308,7.26161616 L4.44996923,7.13131313 C4.7232,6.89646465 5.13821538,6.93383838 5.36763077,7.21464646 L6.90166154,9.09242424 C7.13156923,9.37272727 7.09563077,9.7989899 6.82190769,10.0343434 M4.74633846,7.61818182 L4.71483077,7.64545455 C4.66363077,7.69040404 4.65624615,7.77272727 4.69956923,7.82474747 L6.20209231,9.66313131 C6.24443077,9.71565657 6.32516923,9.72222222 6.37636923,9.67828283 L6.40787692,9.6510101 C6.45907692,9.60606061 6.46646154,9.52373737 6.42412308,9.47121212 L4.92209231,7.63383838 C4.87827692,7.58080808 4.79753846,7.57373737 4.74633846,7.61818182"></path>
                            <path d="M6.93661538,5.82979798 L8.83692308,8.15505051 C8.86350769,8.18737374 8.85956923,8.23232323 8.82756923,8.25959596 L8.57353846,8.47828283 C8.54252308,8.50555556 8.4864,8.51161616 8.45587692,8.49040404 L7.16947692,7.79090909 L8.03249231,8.8479798 C8.05956923,8.88030303 8.05563077,8.92474747 8.02363077,8.9520202 L7.67113846,9.25555556 C7.63963077,9.28383838 7.59581538,9.27878788 7.57021538,9.24646465 L5.66990769,6.92171717 C5.64283077,6.88838384 5.64627692,6.84444444 5.67827692,6.81666667 L5.93969231,6.59141414 C5.9712,6.56464646 6.02683077,6.55808081 6.05833846,6.57929293 L7.43630769,7.40808081 L6.47335385,6.22979798 C6.44627692,6.1969697 6.45021538,6.15252525 6.48270769,6.12474747 L6.83470769,5.82070707 C6.86572308,5.79343434 6.91003077,5.7969697 6.93661538,5.82979798"></path>
                            <path d="M9.86584615,6.65151515 L10.1617231,7.01414141 C10.1888,7.0459596 10.1853538,7.09090909 10.1523692,7.11818182 L9.29427692,7.85858586 C9.26227692,7.88585859 9.21895385,7.88181818 9.19187692,7.8489899 L7.29206154,5.52373737 C7.26547692,5.49141414 7.26941538,5.44646465 7.30092308,5.41919192 L8.16,4.67929293 C8.19150769,4.65151515 8.23532308,4.65555556 8.26190769,4.68888889 L8.55778462,5.05 C8.58486154,5.08282828 8.58092308,5.12727273 8.54843077,5.15555556 L8.09747692,5.54393939 L8.47655385,6.00707071 L8.86843077,5.66969697 C8.89944615,5.64191919 8.94375385,5.6459596 8.97033846,5.67929293 L9.26621538,6.04141414 C9.2928,6.07373737 9.28886154,6.11818182 9.25735385,6.14545455 L8.86498462,6.48333333 L9.31347692,7.03181818 L9.76443077,6.64242424 C9.79593846,6.61515152 9.84024615,6.61969697 9.86584615,6.65151515"></path>
                        </g>
                    </g>
                </g>
            </g>
        </g>
    </g>
</svg>