<?xml version="1.0" encoding="UTF-8" standalone="no"?>
<svg width="65px" height="65px" viewBox="0 0 65 65" version="1.1" xmlns="http://www.w3.org/2000/svg" xmlns:xlink="http://www.w3.org/1999/xlink" xmlns:sketch="http://www.bohemiancoding.com/sketch/ns">
    <!-- Generator: Sketch 3.4.4 (17249) - http://www.bohemiancoding.com/sketch -->
    <title>Page 1</title>
    <desc>Created with Sketch.</desc>
    <defs></defs>
    <g id="Page-1" stroke="none" stroke-width="1" fill="none" fill-rule="evenodd" sketch:type="MSPage">
        <g sketch:type="MSLayerGroup" fill="#979797">
            <path d="M19.953,1.406 C18.109,0.523 16.152,0.074 14.141,0.074 C6.586,0.074 0.438,6.34 0.438,14.043 C0.438,16.016 0.844,17.934 1.641,19.75 L2.203,21.027 L21.164,1.984 L19.953,1.406 Z" id="Fill-1" sketch:type="MSShapeGroup"></path>
            <path d="M50.859,0.074 C48.879,0.074 46.949,0.508 45.129,1.367 L43.906,1.941 L62.84,20.957 L63.398,19.668 C64.172,17.879 64.566,15.984 64.566,14.043 C64.562,6.34 58.414,0.074 50.859,0.074 L50.859,0.074 Z" id="Fill-2" sketch:type="MSShapeGroup"></path>
            <path d="M43.293,33.473 L33.664,33.473 L33.664,16.449 C33.664,15.805 33.145,15.285 32.5,15.285 C31.855,15.285 31.336,15.805 31.336,16.449 L31.336,34.648 C31.336,35.293 31.855,35.812 32.5,35.812 C32.543,35.812 32.586,35.805 32.629,35.801 L43.293,35.801 C43.938,35.801 44.457,35.277 44.457,34.637 C44.457,33.992 43.938,33.473 43.293,33.473 L43.293,33.473 Z" id="Fill-3" sketch:type="MSShapeGroup"></path>
            <path d="M53.496,53.789 C58.324,48.527 60.969,41.758 60.969,34.57 C60.969,18.875 48.199,6.105 32.504,6.105 C16.809,6.105 4.035,18.875 4.035,34.57 C4.035,41.742 6.668,48.504 11.48,53.762 L3.551,61.992 C2.945,62.621 3.039,63.664 3.766,64.363 C4.461,65.031 5.562,65.09 6.145,64.488 L14.078,56.258 C19.227,60.641 25.715,63.035 32.504,63.035 C39.281,63.035 45.762,60.645 50.902,56.281 L58.809,64.484 C59.082,64.766 59.457,64.922 59.867,64.922 C60.336,64.922 60.816,64.715 61.188,64.359 C61.914,63.66 62.008,62.617 61.398,61.988 L53.496,53.789 Z M32.5,60.02 C18.465,60.02 7.051,48.602 7.051,34.57 C7.051,20.535 18.469,9.121 32.5,9.121 C46.535,9.121 57.949,20.539 57.949,34.57 C57.949,48.605 46.535,60.02 32.5,60.02 L32.5,60.02 Z" id="Fill-4" sketch:type="MSShapeGroup"></path>
        </g>
    </g>
</svg>