<?xml version="1.0" encoding="UTF-8" standalone="no"?>
<svg width="40px" height="40px" viewBox="0 0 40 40" version="1.1" xmlns="http://www.w3.org/2000/svg" xmlns:xlink="http://www.w3.org/1999/xlink" xmlns:sketch="http://www.bohemiancoding.com/sketch/ns">
    <!-- Generator: Sketch 3.5.1 (25234) - http://www.bohemiancoding.com/sketch -->
    <title>Group 6</title>
    <desc>Created with Sketch.</desc>
    <defs></defs>
    <g id="Page-1" stroke="none" stroke-width="1" fill="none" fill-rule="evenodd" sketch:type="MSPage">
        <g id="iPhone-6" sketch:type="MSArtboardGroup" transform="translate(-19.000000, -108.000000)">
            <g id="Group-6" sketch:type="MSLayerGroup" transform="translate(19.000000, 108.000000)">
                <g id="Group-2-Copy" fill="#27476E" sketch:type="MSShapeGroup">
                    <circle id="Oval-533" cx="20" cy="20" r="20"></circle>
                </g>
                <g id="2708" transform="translate(8.000000, 8.000000)" sketch:type="MSShapeGroup">
                    <g id="Group">
                        <g transform="translate(2.000000, 0.800000)" id="Shape" fill="#ACB8BF">
                            <path d="M3.33055812,0.24706988 L4.11147936,1.02799112 L0.8534454,4.28602508 L0.07252416,3.50510384 L3.33055812,0.24706988 L3.33055812,0.24706988 Z"></path>
                            <path d="M9.03502416,1.0519272 L9.81583496,1.83295888 L6.55734024,5.09053208 L5.77652944,4.3095004 L9.03502416,1.0519272 L9.03502416,1.0519272 Z"></path>
                            <path d="M17.6967244,21.1253155 L16.9160241,20.3441734 L20.1755454,17.0864954 L20.9562458,17.8676375 L17.6967244,21.1253155 L17.6967244,21.1253155 Z"></path>
                            <path d="M16.8895496,15.4235564 L16.1088492,14.6424143 L19.3680876,11.3850191 L20.148788,12.1661612 L16.8895496,15.4235564 L16.8895496,15.4235564 Z"></path>
                        </g>
                        <path d="M21.764,23.4784 L19.894,6.6424 L17.3592,4.1072 C17.3592,4.1072 17.3592,4.1072 0.5232,2.2368 C-0.2808,2.1472 -0.126,4.1692 0.8096,4.6052 L13.4876,10.5144 C13.4876,10.5144 13.4876,10.5144 19.396,23.1924 C19.8328,24.1296 21.8552,24.2832 21.7656,23.4776" id="Shape" fill="#42ADE2"></path>
                        <path d="M23.724,2.4424 C24.5932,0.7192 23.282,-0.594 21.5572,0.276 C19.3456,1.3932 16.0996,3.912 12.8392,7.1704 C7.718,12.2924 4.4232,17.3788 5.5224,18.4784 C6.62,19.576 11.7084,16.2844 16.8304,11.1624 C20.0912,7.9028 22.6084,4.6568 23.7252,2.4444" id="Shape" fill="#DAE3EA"></path>
                        <path d="M8.1592,23.296 L7.5028,17.388 L6.6128,16.498 C6.6128,16.498 6.6128,16.498 0.7044,15.8412 C0.4216,15.8096 0.476,16.5188 0.804,16.672 L5.2536,18.7464 C5.2536,18.7464 5.2536,18.7464 7.3272,23.1956 C7.4808,23.5252 8.1908,23.5788 8.1592,23.296" id="Shape" fill="#42ADE2"></path>
                        <path d="M7.264,17.664 C5.482,19.4464 3.8188,20.694 3.5648,20.4412 C3.3084,20.1856 4.5584,18.5208 6.3388,16.7384 C8.1212,14.9552 9.7876,13.708 10.042,13.9612 C10.2932,14.2156 9.0468,15.8812 7.264,17.664" id="Shape" fill="#ACB8BF"></path>
                        <path d="M23.1072,3.0624 C23.338,2.376 23.2456,1.6704 22.7876,1.2124 C22.3292,0.754 21.6236,0.662 20.9376,0.8924 L19.5624,1.7468 C20.2528,1.5084 21.2236,1.8552 21.6848,2.3156 C22.1452,2.7764 22.4928,3.7476 22.2532,4.4368 L23.1072,3.0624" id="Shape" fill="#3E4347"></path>
                        <path d="M22.9413304,0.7936628 L23.2019366,1.05404792 L20.931695,3.32621672 L20.6710888,3.0658316 L22.9413304,0.7936628 L22.9413304,0.7936628 Z" id="Shape" fill="#DAE3EA"></path>
                    </g>
                </g>
            </g>
        </g>
    </g>
</svg>