<?xml version="1.0" encoding="UTF-8" standalone="no"?>
<svg width="30px" height="30px" viewBox="0 0 30 30" version="1.1" xmlns="http://www.w3.org/2000/svg" xmlns:xlink="http://www.w3.org/1999/xlink" xmlns:sketch="http://www.bohemiancoding.com/sketch/ns">
    <!-- Generator: Sketch 3.5.1 (25234) - http://www.bohemiancoding.com/sketch -->
    <title>Group 5</title>
    <desc>Created with Sketch.</desc>
    <defs></defs>
    <g id="Page-1" stroke="none" stroke-width="1" fill="none" fill-rule="evenodd" sketch:type="MSPage">
        <g id="Group-5" sketch:type="MSLayerGroup">
            <g id="Group-3-Copy" fill="#26C6DA" sketch:type="MSShapeGroup">
                <path d="M15,30 C23.2842712,30 30,23.2842712 30,15 C30,6.71572875 23.2842712,0 15,0 C6.71572875,0 0,6.71572875 0,15 C0,23.2842712 6.71572875,30 15,30 Z" id="Oval-530"></path>
            </g>
            <g id="icon-Photo" transform="translate(8.000000, 8.000000)" fill="#FFFFFF" sketch:type="MSShapeGroup">
                <g id="Shape">
                    <g id="Page-1">
                        <g id="iPhone-6">
                            <g id="old-content">
                                <g id="Oval-406-+-menu-chat-copy-3-+-Shape">
                                    <path d="M13.125,6.40625 L10.3125,3.59375 L6.5625,7.34375 L3.75,5.46875 L1.875,8.28125 L1.875,11.09375 L13.125,11.09375 L13.125,6.40625 L13.125,6.40625 L13.125,6.40625 Z M15,0.78125 L0,0.78125 L0,12.96875 L15,12.96875 L15,0.78125 L15,0.78125 L15,0.78125 Z M14.0625,1.71875 L14.0625,12.03125 L0.9375,12.03125 L0.9375,1.71875 L14.0625,1.71875 L14.0625,1.71875 L14.0625,1.71875 Z" id="Shape"></path>
                                </g>
                            </g>
                        </g>
                    </g>
                </g>
            </g>
        </g>
    </g>
</svg>