<?xml version="1.0" encoding="UTF-8" standalone="no"?>
<svg width="71px" height="36px" viewBox="0 0 71 36" version="1.1" xmlns="http://www.w3.org/2000/svg" xmlns:xlink="http://www.w3.org/1999/xlink" xmlns:sketch="http://www.bohemiancoding.com/sketch/ns">
    <!-- Generator: Sketch 3.4.4 (17249) - http://www.bohemiancoding.com/sketch -->
    <title>Page 1</title>
    <desc>Created with Sketch.</desc>
    <defs></defs>
    <g id="Page-1" stroke="none" stroke-width="1" fill="none" fill-rule="evenodd" sketch:type="MSPage">
        <path d="M2.442,3.734 C1.625,3.992 0.012,4 0.012,4 C0.012,4 -0.008,4.293 0.004,4.593 C-1.11022302e-16,5.047 0.004,5.605 0.016,5.886 C0.692,6.113 1.153,6.605 1.375,7.261 C1.43,7.418 1.473,7.597 1.496,7.789 L1.496,8.476 C1.375,9.379 0.825,10.078 0.117,10.273 C-0.008,10.746 -0.008,11.734 0.012,12.136 C0.692,12.363 1.16,12.859 1.383,13.527 C1.407,13.601 1.426,13.687 1.446,13.765 C1.465,13.863 1.485,13.965 1.5,14.066 L1.5,14.691 C1.36,15.648 0.813,16.324 0.121,16.515 C0.008,16.738 0.004,16.98 -1.11022302e-16,17.246 L-1.11022302e-16,17.695 L-1.11022302e-16,18.144 C0.004,18.406 0.008,18.652 0.016,18.808 C0.813,19.07 1.364,19.746 1.492,20.629 C1.496,20.652 1.5,21.304 1.5,21.304 C1.485,21.426 1.465,21.527 1.442,21.625 C1.43,21.707 1.414,21.789 1.387,21.863 C1.168,22.531 0.699,23.027 0.121,23.187 C-0.004,23.66 -0.004,24.648 0.016,25.051 C0.825,25.312 1.379,26.011 1.5,26.914 L1.5,27.601 C1.473,27.793 1.43,27.969 1.379,28.129 C1.157,28.785 0.692,29.277 0.125,29.433 C0.004,29.785 -1.11022302e-16,30.343 0.008,30.797 C-1.11022302e-16,31.097 0.016,31.39 0.016,31.39 C0.016,31.39 1.629,31.398 2.446,31.656 C4.676,32.355 4.285,35.386 4.285,35.386 L65.875,35.386 C65.883,35.386 65.492,32.355 67.723,31.656 C68.543,31.398 70.153,31.39 70.153,31.39 C70.153,31.39 70.172,31.097 70.164,30.797 C70.168,30.343 70.164,29.781 70.153,29.504 C69.477,29.277 69.016,28.785 68.793,28.129 C68.742,27.972 68.696,27.793 68.672,27.601 L68.672,26.914 C68.793,26.011 69.348,25.312 70.051,25.117 C70.176,24.644 70.176,23.66 70.157,23.254 C69.477,23.027 69.008,22.531 68.785,21.863 C68.762,21.789 68.742,21.707 68.727,21.625 C68.711,21.527 68.692,21.426 68.676,21.324 C68.676,21.316 68.672,20.699 68.672,20.699 C68.813,19.742 69.36,19.07 70.051,18.875 C70.164,18.652 70.168,18.41 70.172,18.144 C70.172,18 70.176,17.843 70.172,17.695 L70.172,17.246 C70.172,16.984 70.164,16.738 70.157,16.582 C69.36,16.32 68.813,15.644 68.68,14.761 C68.676,14.738 68.672,14.086 68.672,14.086 C68.692,13.965 68.711,13.863 68.735,13.765 C68.746,13.683 68.762,13.601 68.785,13.527 C69.004,12.859 69.477,12.363 70.051,12.203 C70.176,11.734 70.176,10.746 70.157,10.34 C69.348,10.078 68.793,9.379 68.672,8.476 L68.672,7.789 C68.699,7.597 68.742,7.422 68.793,7.261 C69.016,6.605 69.481,6.113 70.047,5.957 C70.168,5.605 70.172,5.047 70.164,4.593 C70.172,4.293 70.153,4 70.153,4 C70.153,4 68.539,3.992 67.723,3.734 C65.492,3.031 65.883,0 65.883,0 L4.289,0 C4.282,0 4.672,3.031 2.442,3.734 Z" fill="#979797" sketch:type="MSShapeGroup"></path>
    </g>
</svg>