<?xml version="1.0" encoding="UTF-8" standalone="no"?>
<svg width="21px" height="30px" viewBox="0 0 21 30" version="1.1" xmlns="http://www.w3.org/2000/svg" xmlns:xlink="http://www.w3.org/1999/xlink" xmlns:sketch="http://www.bohemiancoding.com/sketch/ns">
    <!-- Generator: Sketch 3.3.2 (12043) - http://www.bohemiancoding.com/sketch -->
    <title>Imported Layers Copy 2</title>
    <desc>Created with Sketch.</desc>
    <defs></defs>
    <g id="Page-1" stroke="none" stroke-width="1" fill="none" fill-rule="evenodd" sketch:type="MSPage">
        <g id="iPhone-6" sketch:type="MSArtboardGroup" transform="translate(-50.000000, -315.000000)" fill="#979797">
            <g id="Action-items" sketch:type="MSLayerGroup" transform="translate(49.000000, 151.000000)">
                <g id="Invite" transform="translate(1.500000, 164.000000)" sketch:type="MSShapeGroup">
                    <g id="Imported-Layers-Copy-2">
                        <path d="M10.355,0.289583333 C4.75916667,0.289583333 0.222916667,4.82583333 0.222916667,10.4216667 C0.222916667,16.0170833 10.355,29.9770833 10.355,29.9770833 C10.355,29.9770833 20.4866667,16.0158333 20.4866667,10.42 C20.4866667,4.82583333 15.9504167,0.289583333 10.355,0.289583333 L10.355,0.289583333 Z M10.355,27.7895833 C10.355,27.7895833 1.50375,15.5941667 1.50375,10.7033333 C1.50375,5.81375 5.46708333,1.85208333 10.355,1.85208333 C15.2441667,1.85208333 19.2075,5.81541667 19.2075,10.7033333 C19.2075,15.5925 10.355,27.7895833 10.355,27.7895833 L10.355,27.7895833 Z" id="Fill-1"></path>
                        <path d="M10.355,6.43375 C8.24541667,6.43375 6.48583333,8.19333333 6.48583333,10.30125 C6.48583333,12.40875 8.24541667,14.1683333 10.355,14.1683333 C12.4608333,14.1683333 14.2220833,12.40875 14.2220833,10.30125 C14.2220833,8.19333333 12.4608333,6.43375 10.355,6.43375 L10.355,6.43375 Z M10.355,12.9575 C8.90625,12.9575 7.69875,11.7495833 7.69875,10.30125 C7.69875,8.8525 8.90625,7.645 10.355,7.645 C11.8,7.645 13.01125,8.8525 13.01125,10.30125 C13.01125,11.7495833 11.8016667,12.9575 10.355,12.9575 L10.355,12.9575 Z" id="Fill-2"></path>
                    </g>
                </g>
            </g>
        </g>
    </g>
</svg>