<?xml version="1.0" encoding="UTF-8" standalone="no"?>
<svg width="32px" height="26px" viewBox="0 0 32 26" version="1.1" xmlns="http://www.w3.org/2000/svg" xmlns:xlink="http://www.w3.org/1999/xlink" xmlns:sketch="http://www.bohemiancoding.com/sketch/ns">
    <!-- Generator: Sketch 3.3.2 (12043) - http://www.bohemiancoding.com/sketch -->
    <title>Imported Layers</title>
    <desc>Created with Sketch.</desc>
    <defs></defs>
    <g id="Page-1" stroke="none" stroke-width="1" fill="none" fill-rule="evenodd" sketch:type="MSPage">
        <g id="iPhone-6" sketch:type="MSArtboardGroup" transform="translate(-48.000000, -234.000000)" stroke="#979797" fill="#979797">
            <g id="Action-items" sketch:type="MSLayerGroup" transform="translate(49.000000, 151.000000)">
                <g id="Chat" transform="translate(0.000000, 84.000000)" sketch:type="MSShapeGroup">
                    <path d="M28.398774,0.0182998305 C29.2018867,0.146685877 29.8174198,0.741821193 29.9754027,1.54013443 C30.0081991,1.69931713 30.0081991,17.6883793 29.9754027,17.8491618 C29.8674144,18.3991021 29.5422498,18.8602519 29.0675014,19.1414214 C28.9267167,19.2226126 28.7567351,19.2914051 28.5611564,19.3457992 L28.4127725,19.3865947 L19.3997521,19.3913942 L10.3851319,19.3945939 L9.71480475,20.0585217 C9.34604482,20.424082 8.21656758,21.5455601 7.20427761,22.5518507 C5.87002262,23.8781066 5.34208001,24.3924507 5.29048561,24.4204476 C5.23089209,24.4516442 5.19369613,24.4596434 5.10130617,24.4596434 C4.9529223,24.4596434 4.83573504,24.408049 4.75614369,24.3032604 C4.64975525,24.1624757 4.65615456,24.3268578 4.65615456,21.7363394 L4.65615456,19.3945939 L3.18111487,19.3945939 C1.9452492,19.3945939 1.68767719,19.3913942 1.57688923,19.3709964 C1.10654036,19.2898053 0.686186042,19.0398324 0.405016602,18.6786717 C0.181440902,18.3915029 0.0598541167,18.0975348 0.0126592461,17.7447732 C0.00186041984,17.6571827 -0.00293905852,15.2214474 0.00186041984,9.60965737 C0.00665989819,2.10887261 0.00825972431,1.59492847 0.0330570292,1.49653916 C0.103449378,1.21217007 0.214237337,0.971396241 0.36262121,0.76981815 C0.648590128,0.385459925 1.00815105,0.152685224 1.51249623,0.0310984394 C1.61408519,0.00430135195 2.39520029,0.00270152583 14.9470361,0.00110169972 C25.7022671,-0.00209795252 28.2987849,0.00110169972 28.398774,0.0182998305 L28.398774,0.0182998305 Z M1.65328093,0.895004544 C1.60168654,0.907403196 1.50169741,0.946598936 1.42970523,0.982195067 C1.24852492,1.06978555 1.07694357,1.24176686 0.98615344,1.42614682 C0.86736635,1.66812052 0.876965307,0.877806413 0.876965307,9.7032472 C0.876965307,17.5491944 0.876965307,17.6383847 0.908161916,17.7539722 C1.00015192,18.1131332 1.27052253,18.3899031 1.63768263,18.4958915 C1.72207345,18.5210888 1.87525681,18.5242885 3.63106597,18.5290879 L5.53405914,18.5334875 L5.53725879,20.7520463 L5.54205827,22.972205 L6.24958137,22.2706813 C6.63873907,21.8847232 7.53544161,20.99442 8.24016502,20.2944961 C8.94608829,19.5913725 9.63841305,18.9086467 9.77879779,18.7758611 L10.0335701,18.5334875 L19.1545788,18.5302878 C27.819237,18.5258883 28.2799869,18.5242885 28.3675774,18.4974914 C28.7379372,18.3883032 29.0051081,18.1163328 29.098698,17.7523724 C29.1282947,17.6383847 29.1282947,17.4916007 29.1282947,9.70484702 C29.1282947,0.879406239 29.1378937,1.66812052 29.0191066,1.42774664 C28.9283165,1.24336668 28.7567351,1.07138537 28.5755548,0.982195067 C28.5035626,0.947798806 28.4067732,0.910602848 28.3595783,0.897804239 C28.2863862,0.877806413 26.5021802,0.874606761 15.0098292,0.874606761 C3.22670992,0.871407108 1.73447211,0.874606761 1.65328093,0.895004544 L1.65328093,0.895004544 Z" id="Imported-Layers"></path>
                </g>
            </g>
        </g>
    </g>
</svg>