<?xml version="1.0" encoding="UTF-8" standalone="no"?>
<svg width="75px" height="66px" viewBox="0 0 75 66" version="1.1" xmlns="http://www.w3.org/2000/svg" xmlns:xlink="http://www.w3.org/1999/xlink" xmlns:sketch="http://www.bohemiancoding.com/sketch/ns">
    <!-- Generator: Sketch 3.3.2 (12043) - http://www.bohemiancoding.com/sketch -->
    <title>Imported Layers</title>
    <desc>Created with Sketch.</desc>
    <defs></defs>
    <g id="Page-1" stroke="none" stroke-width="1" fill="none" fill-rule="evenodd" sketch:type="MSPage">
        <path d="M37.489,0 C35.747,0 34.126,0.977 33.239,2.453 L0.642,58.61 C-0.214,60.118 -0.214,62.008 0.642,63.52 C1.528,65.028 3.181,65.946 4.923,65.946 L70.056,65.946 C71.798,65.946 73.45,65.028 74.337,63.52 C75.224,62.012 75.224,60.121 74.337,58.61 L41.743,2.453 C40.856,0.977 39.231,0 37.489,0 L37.489,0 Z M37.489,1.688 C38.614,1.688 39.763,2.34 40.294,3.313 L72.888,59.438 C73.419,60.414 73.419,61.715 72.888,62.661 C72.325,63.606 71.177,64.285 70.052,64.285 L4.923,64.285 C3.802,64.285 2.649,63.606 2.118,62.661 C1.556,61.715 1.556,60.411 2.118,59.438 L34.685,3.313 C35.247,2.336 36.396,1.688 37.489,1.688 L37.489,1.688 Z M37.106,21.203 C34.923,21.262 32.856,21.914 31.142,23.035 C30.759,23.301 30.669,23.836 30.907,24.219 C31.142,24.575 31.704,24.692 32.087,24.457 C33.505,23.512 35.306,22.918 37.165,22.891 C42.599,22.774 45.786,26.203 45.786,30.196 C45.786,32.207 45.282,33.477 44.544,34.512 C43.806,35.575 42.743,36.407 41.591,37.438 C39.317,39.508 36.837,42.375 36.689,48.762 C36.689,49.207 37.071,49.59 37.517,49.59 C37.931,49.618 38.341,49.207 38.341,48.789 C38.489,42.785 40.524,40.657 42.712,38.676 C43.833,37.7 44.985,36.782 45.899,35.485 C46.813,34.184 47.435,32.469 47.435,30.192 C47.439,25.285 43.306,21.055 37.106,21.203 L37.106,21.203 Z M37.399,53.231 C36.396,53.231 35.567,54.059 35.567,55.063 C35.567,56.067 36.396,56.895 37.399,56.895 C38.431,56.895 39.29,56.067 39.29,55.063 C39.29,54.055 38.435,53.231 37.399,53.231 L37.399,53.231 Z" id="Imported-Layers" fill="#FFB74D" sketch:type="MSShapeGroup"></path>
    </g>
</svg>