<?xml version="1.0" encoding="UTF-8" standalone="no"?>
<svg width="77px" height="68px" viewBox="0 0 77 68" version="1.1" xmlns="http://www.w3.org/2000/svg" xmlns:xlink="http://www.w3.org/1999/xlink" xmlns:sketch="http://www.bohemiancoding.com/sketch/ns">
    <!-- Generator: Sketch 3.3.2 (12043) - http://www.bohemiancoding.com/sketch -->
    <title>Imported Layers</title>
    <desc>Created with Sketch.</desc>
    <defs></defs>
    <g id="Page-1" stroke="none" stroke-width="1" fill="none" fill-rule="evenodd" sketch:type="MSPage">
        <path d="M38.489,1 C36.747,1 35.126,1.977 34.239,3.453 L1.642,59.61 C0.786,61.118 0.786,63.008 1.642,64.52 C2.528,66.028 4.181,66.946 5.923,66.946 L71.056,66.946 C72.798,66.946 74.45,66.028 75.337,64.52 C76.224,63.012 76.224,61.121 75.337,59.61 L42.743,3.453 C41.856,1.977 40.231,1 38.489,1 L38.489,1 Z M38.489,2.688 C39.614,2.688 40.763,3.34 41.294,4.313 L73.888,60.438 C74.419,61.414 74.419,62.715 73.888,63.661 C73.325,64.606 72.177,65.285 71.052,65.285 L5.923,65.285 C4.802,65.285 3.649,64.606 3.118,63.661 C2.556,62.715 2.556,61.411 3.118,60.438 L35.685,4.313 C36.247,3.336 37.396,2.688 38.489,2.688 L38.489,2.688 Z M38.106,22.203 C35.923,22.262 33.856,22.914 32.142,24.035 C31.759,24.301 31.669,24.836 31.907,25.219 C32.142,25.575 32.704,25.692 33.087,25.457 C34.505,24.512 36.306,23.918 38.165,23.891 C43.599,23.774 46.786,27.203 46.786,31.196 C46.786,33.207 46.282,34.477 45.544,35.512 C44.806,36.575 43.743,37.407 42.591,38.438 C40.317,40.508 37.837,43.375 37.689,49.762 C37.689,50.207 38.071,50.59 38.517,50.59 C38.931,50.618 39.341,50.207 39.341,49.789 C39.489,43.785 41.524,41.657 43.712,39.676 C44.833,38.7 45.985,37.782 46.899,36.485 C47.813,35.184 48.435,33.469 48.435,31.192 C48.439,26.285 44.306,22.055 38.106,22.203 L38.106,22.203 Z M38.399,54.231 C37.396,54.231 36.567,55.059 36.567,56.063 C36.567,57.067 37.396,57.895 38.399,57.895 C39.431,57.895 40.29,57.067 40.29,56.063 C40.29,55.055 39.435,54.231 38.399,54.231 L38.399,54.231 Z" id="Imported-Layers" stroke="#FFB74D" stroke-width="2" fill="#FFB74D" sketch:type="MSShapeGroup"></path>
    </g>
</svg>