<?xml version="1.0" encoding="UTF-8" standalone="no"?>
<svg width="85px" height="85px" viewBox="0 0 85 85" version="1.1" xmlns="http://www.w3.org/2000/svg" xmlns:xlink="http://www.w3.org/1999/xlink" xmlns:sketch="http://www.bohemiancoding.com/sketch/ns">
    <!-- Generator: Sketch 3.4.4 (17249) - http://www.bohemiancoding.com/sketch -->
    <title>Oval 526 Copy + Page 1</title>
    <desc>Created with Sketch.</desc>
    <defs>
        <filter x="-50%" y="-50%" width="200%" height="200%" filterUnits="objectBoundingBox" id="filter-1">
            <feOffset dx="0" dy="2" in="SourceAlpha" result="shadowOffsetOuter1"></feOffset>
            <feGaussianBlur stdDeviation="2" in="shadowOffsetOuter1" result="shadowBlurOuter1"></feGaussianBlur>
            <feColorMatrix values="0 0 0 0 0   0 0 0 0 0   0 0 0 0 0  0 0 0 0.167391304 0" in="shadowBlurOuter1" type="matrix" result="shadowMatrixOuter1"></feColorMatrix>
            <feMerge>
                <feMergeNode in="shadowMatrixOuter1"></feMergeNode>
                <feMergeNode in="SourceGraphic"></feMergeNode>
            </feMerge>
        </filter>
    </defs>
    <g id="Page-1" stroke="none" stroke-width="1" fill="none" fill-rule="evenodd" sketch:type="MSPage">
        <g id="Oval-526-Copy-+-Page-1" sketch:type="MSLayerGroup" transform="translate(4.000000, 2.000000)">
            <circle id="Oval-526-Copy" fill="#65BCB3" filter="url(#filter-1)" sketch:type="MSShapeGroup" cx="38.5" cy="38.5" r="38.5"></circle>
            <path d="M59.98614,21.6869583 L30.9400473,50.7339464 L18.0102786,37.8032824 C17.0934389,36.8873379 15.6035742,36.8873379 14.6876298,37.8032824 C13.7707901,38.7201221 13.7707901,40.2099867 14.6876298,41.1259312 L29.2818566,55.7174719 C29.7402765,56.1758918 30.3419526,56.4059971 30.9436287,56.4059971 C31.5453048,56.4059971 32.1469809,56.1758918 32.6045054,55.7174719 C32.6367381,55.6861346 32.6573311,55.6512159 32.685087,55.6198786 C32.7164243,55.5912273 32.7549244,55.5706343 32.7835757,55.539297 L63.3123702,25.0096071 C64.2292099,24.0936627 64.2292099,22.6037981 63.3123702,21.6869583 C62.3964258,20.7710139 60.9065611,20.7710139 59.98614,21.6869583 Z" id="Page-1" stroke="#FFFFFF" fill="#FFFFFF" sketch:type="MSShapeGroup"></path>
        </g>
    </g>
</svg>