<?xml version="1.0" encoding="UTF-8" standalone="no"?>
<svg width="18px" height="18px" viewBox="0 0 18 18" version="1.1" xmlns="http://www.w3.org/2000/svg" xmlns:xlink="http://www.w3.org/1999/xlink" xmlns:sketch="http://www.bohemiancoding.com/sketch/ns">
    <!-- Generator: Sketch 3.3.2 (12043) - http://www.bohemiancoding.com/sketch -->
    <title>Imported Layers</title>
    <desc>Created with Sketch.</desc>
    <defs></defs>
    <g id="Page-1" stroke="none" stroke-width="1" fill="none" fill-rule="evenodd" sketch:type="MSPage">
        <g id="iPhone-6" sketch:type="MSArtboardGroup" transform="translate(-16.000000, -543.000000)" fill="#D32F2F">
            <g id="Imported-Layers" sketch:type="MSLayerGroup" transform="translate(16.000000, 543.000000)">
                <path d="M6.27971831,0.234329577 C5.77166197,0.294109859 5.33687324,0.639101408 5.20707042,1.0883662 C5.17335211,1.20313521 5.16346479,1.30398592 5.16346479,1.48834648 L5.16346479,1.65331268 L2.75907042,1.65331268 C0.0603380282,1.65331268 0.307014085,1.64715211 0.214985915,1.72107887 C0.145521127,1.77720845 0.124732394,1.8173662 0.119915493,1.90384225 C0.115859155,1.96704507 0.118901408,1.98233239 0.139690141,2.02317465 C0.172394366,2.08911549 0.216760563,2.13018592 0.282169014,2.15870704 L0.337690141,2.18357746 L1.4904507,2.18905352 L1.49526761,2.21757465 C1.49830986,2.23354648 1.51225352,2.43684507 1.5251831,2.67026197 C1.53887324,2.90459155 1.5695493,3.40656338 1.59439437,3.78806197 C1.65371831,4.75230423 1.70923944,5.63737183 1.74878873,6.28172113 C1.76780282,6.58313239 1.79138028,6.96714085 1.80228169,7.13644225 C1.8131831,7.30505915 1.84107042,7.75865915 1.86566197,8.14449296 C1.92802817,9.15528169 1.99140845,10.1642451 2.03602817,10.8834338 C2.05783099,11.2284254 2.09738028,11.861138 2.12323944,12.2907803 C2.15087324,12.7195099 2.18078873,13.2089324 2.19169014,13.3782338 C2.20259155,13.5466225 2.24112676,14.1802479 2.27864789,14.7855803 C2.36788732,16.2257831 2.37270423,16.2926366 2.39450704,16.380938 C2.45890141,16.6394535 2.61152113,16.8719577 2.82929577,17.0414873 C3.01740845,17.1875155 3.21743662,17.2767296 3.46816901,17.3257859 C3.54625352,17.3408451 3.78101408,17.3417577 8.9604507,17.3417577 L14.3716056,17.3417577 L14.472507,17.3212225 C15.0687887,17.2009775 15.5015493,16.7606113 15.5499718,16.2239577 C15.5530141,16.1883634 15.5836901,15.7007662 15.618169,15.1410676 C15.6529014,14.5822817 15.6856056,14.0547549 15.6916901,13.9707887 C15.6975211,13.886138 15.7233803,13.4647099 15.75,13.0332423 C15.804507,12.1490873 15.8440563,11.5252732 15.8866479,10.8460141 C15.9152958,10.3967493 15.966,9.57944789 16.164,6.40128169 C16.2144507,5.58124225 16.2699718,4.70142254 16.2856901,4.44655775 C16.3797465,2.95729859 16.422338,2.25932958 16.422338,2.22738592 L16.422338,2.19087887 L17.0680563,2.18814085 C17.7049014,2.18540282 17.7137746,2.18540282 17.7583944,2.16578028 C17.8722254,2.1185493 17.9356056,2.03024789 17.9356056,1.91798873 C17.9356056,1.81189014 17.8790704,1.72906479 17.778169,1.68365915 L17.7226479,1.65878873 L12.8920563,1.64966197 L12.8859718,1.43495493 C12.8819155,1.2798 12.8760845,1.20062535 12.8631549,1.15156901 C12.8068732,0.91883662 12.6927887,0.73356338 12.5077183,0.565859155 C12.3571268,0.431467606 12.2027324,0.344078873 12.0075211,0.285211268 C11.808507,0.22451831 12.0670986,0.229994366 9.06338028,0.228169014 C7.52349296,0.227256338 6.31723944,0.229994366 6.27971831,0.234329577 L6.27971831,0.234329577 Z M11.7362535,0.773721127 C11.8807606,0.800416901 11.9966197,0.856546479 12.0987887,0.952833803 C12.1758592,1.02402254 12.2273239,1.09977465 12.2610423,1.19332394 C12.2858873,1.25949296 12.2879155,1.27729014 12.2917183,1.45822817 L12.2957746,1.65331268 L5.75569014,1.65331268 L5.75974648,1.46256338 C5.76557746,1.25127887 5.77546479,1.20678592 5.84188732,1.09178873 C5.93898592,0.925225352 6.13115493,0.799504225 6.34005634,0.76824507 C6.36566197,0.764822535 7.57292958,0.761171831 9.02383099,0.760259155 C11.3995775,0.759346479 11.6678028,0.761171831 11.7362535,0.773721127 L11.7362535,0.773721127 Z M15.8293521,2.21392394 C15.8293521,2.22738592 15.8093239,2.55184225 15.7857465,2.93402535 C15.7431549,3.63108169 15.6886479,4.50451268 15.6153803,5.6729662 C15.5629014,6.51970141 15.5132113,7.31395775 15.4835493,7.77736901 C15.4698592,7.9895662 15.4419718,8.4468169 15.420169,8.79431831 C15.3983662,9.14181972 15.365662,9.66866197 15.3469014,9.96459718 C15.3281408,10.2605324 15.2885915,10.8923324 15.2596901,11.3673803 C15.2310423,11.8424282 15.1973239,12.3683577 15.1864225,12.5376592 C15.1636056,12.8961127 15.1012394,13.8996 15.0261972,15.1189352 C14.9597746,16.1840282 14.9567324,16.2303465 14.9379718,16.2962873 C14.8636901,16.5538901 14.6071268,16.7615239 14.3160845,16.8025944 C14.2684225,16.8087549 12.6552676,16.811493 8.91988732,16.8096676 C3.88191549,16.8069296 3.58884507,16.8060169 3.53357746,16.7918704 C3.5016338,16.7829718 3.43343662,16.7578732 3.38298592,16.7348282 C3.3036338,16.6999183 3.276,16.6802958 3.19183099,16.6054563 C3.10360563,16.5262817 3.08890141,16.5084845 3.04428169,16.425431 C2.98292958,16.3113465 2.96797183,16.2481437 2.95402817,16.0227127 C2.93729577,15.7375014 2.87873239,14.7979014 2.83233803,14.0547549 C2.80749296,13.668693 2.74030986,12.5805549 2.68174648,11.6347944 C2.62343662,10.6901746 2.55498592,9.59907042 2.53115493,9.21049859 C2.50656338,8.82192676 2.47385915,8.29508451 2.45788732,8.04021972 C2.44115493,7.78444225 2.41833803,7.39769577 2.40439437,7.18116338 C2.39070423,6.96371831 2.37169014,6.65067042 2.36078873,6.48410704 C2.35014085,6.31754366 2.29360563,5.40395493 2.23402817,4.45454366 C2.17470423,3.50444789 2.12019718,2.62759437 2.11233803,2.50529577 C2.10447887,2.38322535 2.09738028,2.26115493 2.09738028,2.23628451 L2.09738028,2.18905352 L15.8293521,2.18905352 L15.8293521,2.21392394 Z" id="Fill-1" sketch:type="MSShapeGroup"></path>
                <path d="M5.98360563,4.06779718 C5.88650704,4.09015775 5.80030986,4.16408451 5.77267606,4.25056056 C5.75974648,4.29163099 5.75771831,4.87003944 5.75974648,9.42885634 L5.76253521,14.5617465 L5.78535211,14.6046423 C5.85380282,14.7303634 6.01707042,14.7899155 6.15980282,14.7417718 C6.23611268,14.7169014 6.30329577,14.6562085 6.33016901,14.5902676 L6.35197183,14.5396141 L6.35197183,9.41288451 C6.35197183,4.84950423 6.34994366,4.28181972 6.33701408,4.24166197 C6.31723944,4.18370704 6.24295775,4.10886761 6.17957746,4.08376901 C6.11619718,4.05981127 6.04597183,4.0536507 5.98360563,4.06779718 L5.98360563,4.06779718 Z" id="Fill-2" sketch:type="MSShapeGroup"></path>
                <path d="M8.9723662,4.06346197 C8.87830986,4.08034648 8.79591549,4.14081127 8.75433803,4.22112676 L8.7335493,4.26128451 L8.7335493,14.5519352 L8.75839437,14.6009915 C8.78907042,14.6589465 8.84053521,14.7061775 8.90188732,14.7328732 C8.97033803,14.7632197 9.08315493,14.7613944 9.1584507,14.728538 C9.21777465,14.7018423 9.2603662,14.6635099 9.29509859,14.6055549 L9.31791549,14.5690479 L9.32095775,9.42794366 C9.32273239,4.86456338 9.32095775,4.28273239 9.30802817,4.2407493 C9.28825352,4.18188169 9.21397183,4.10704225 9.15059155,4.08217183 C9.09507042,4.06346197 9.02078873,4.05456338 8.9723662,4.06346197 L8.9723662,4.06346197 Z" id="Fill-3" sketch:type="MSShapeGroup"></path>
                <path d="M11.7410704,4.06414648 C11.6442254,4.08308451 11.5461127,4.15952113 11.519493,4.24257465 C11.5065634,4.28181972 11.5045352,4.86638873 11.5045352,9.41288451 L11.5045352,14.5396141 L11.5253239,14.5893549 C11.5509296,14.6491352 11.6135493,14.7089155 11.6787042,14.7356113 C11.7451268,14.7632197 11.8630141,14.7632197 11.9263944,14.7346986 C11.9857183,14.7080028 12.0402254,14.6589465 12.0709014,14.6055549 L12.0957465,14.5617465 L12.0957465,4.26219718 L12.0749577,4.22203944 C12.0136056,4.1052169 11.8749296,4.04018873 11.7410704,4.06414648 L11.7410704,4.06414648 Z" id="Fill-4" sketch:type="MSShapeGroup"></path>
            </g>
        </g>
    </g>
</svg>