<?xml version="1.0" encoding="UTF-8" standalone="no"?>
<svg width="41px" height="49px" viewBox="0 0 41 49" version="1.1" xmlns="http://www.w3.org/2000/svg" xmlns:xlink="http://www.w3.org/1999/xlink" xmlns:sketch="http://www.bohemiancoding.com/sketch/ns">
    <!-- Generator: Sketch 3.5.1 (25234) - http://www.bohemiancoding.com/sketch -->
    <title>Group 7</title>
    <desc>Created with Sketch.</desc>
    <defs></defs>
    <g id="Page-1" stroke="none" stroke-width="1" fill="none" fill-rule="evenodd" sketch:type="MSPage">
        <g id="Group-7" sketch:type="MSLayerGroup">
            <g id="Imported-Layers-Copy-18" fill="#64B5F6" sketch:type="MSShapeGroup">
                <path d="M19.723,1.012 C14.766,5.109 8.492,6.477 3.523,6.551 C2.988,6.551 2.523,6.922 2.414,7.445 C2.414,7.445 1.289,12.508 0.723,18.629 C0.16,24.75 0.043,31.922 2.516,36.551 C4.371,40.02 8.758,42.805 12.672,44.926 C16.293,46.887 19.281,48.074 19.75,48.262 C19.961,48.426 20.227,48.508 20.496,48.496 C20.77,48.512 21.039,48.426 21.25,48.258 C21.742,48.066 24.715,46.887 28.324,44.934 C32.242,42.812 36.621,40.023 38.477,36.559 C40.953,31.93 40.836,24.758 40.27,18.637 C39.707,12.516 38.582,7.453 38.582,7.453 C38.473,6.922 37.992,6.543 37.441,6.559 C30.191,6.531 23.906,4.133 21.711,1.238 C21.547,0.793 21.117,0.496 20.637,0.504 C21.023,0.508 19.93,0.703 19.723,1.012 Z" id="Fill-2"></path>
            </g>
            <path d="M16.1911747,32.7554118 C15.0464124,33.3537858 14.2959359,32.8114333 14.5149836,31.5440495 L15.4333513,26.2179526 L11.5430097,22.448007 C10.6172951,21.5505813 10.9040979,20.6731826 12.18301,20.4880683 L17.5590664,19.7110752 L19.963421,14.8650848 C20.535394,13.7116384 21.4632855,13.7116384 22.036347,14.8650848 L24.4407016,19.7099927 L29.816758,20.4869858 C31.0964864,20.6721001 31.3824729,21.5494988 30.4567583,22.4469245 L26.5664167,26.2190352 L27.4847844,31.5451321 C27.7027436,32.8125158 26.9522672,33.3548684 25.8085933,32.7564944 L20.999884,30.2414833 L16.1911747,32.7554118 Z" id="Page-1" fill="#FFFFFF" sketch:type="MSShapeGroup"></path>
        </g>
    </g>
</svg>