<?xml version="1.0" encoding="UTF-8" standalone="no"?>
<svg width="41px" height="48px" viewBox="0 0 41 48" version="1.1" xmlns="http://www.w3.org/2000/svg" xmlns:xlink="http://www.w3.org/1999/xlink" xmlns:sketch="http://www.bohemiancoding.com/sketch/ns">
    <!-- Generator: Sketch 3.3.2 (12043) - http://www.bohemiancoding.com/sketch -->
    <title>Imported Layers</title>
    <desc>Created with Sketch.</desc>
    <defs></defs>
    <g id="Page-1" stroke="none" stroke-width="1" fill="none" fill-rule="evenodd" sketch:type="MSPage">
        <g id="Imported-Layers" sketch:type="MSLayerGroup" transform="translate(-0.398431, -0.500000)" fill="#2D93FF">
            <path d="M31.352,17.953 L31.352,17.953 C31.137,17.961 30.93,18.027 30.75,18.148 L15.223,28.473 L10.441,23.707 C10.008,23.23 9.266,23.215 8.812,23.672 C8.359,24.125 8.379,24.867 8.852,25.297 L14.281,30.715 C14.66,31.094 15.254,31.152 15.699,30.855 L31.996,20.027 C32.961,19.41 32.496,17.918 31.352,17.953 L31.352,17.953 Z" id="Fill-1" sketch:type="MSShapeGroup"></path>
            <path d="M20.648,0.508 C20.273,0.508 19.93,0.703 19.723,1.012 C14.766,5.109 8.492,6.477 3.523,6.551 C2.988,6.551 2.523,6.922 2.414,7.445 C2.414,7.445 1.289,12.508 0.723,18.629 C0.16,24.75 0.043,31.922 2.516,36.551 C4.371,40.02 8.758,42.805 12.672,44.926 C16.293,46.887 19.281,48.074 19.75,48.262 C19.961,48.426 20.227,48.508 20.496,48.496 C20.77,48.512 21.039,48.426 21.25,48.258 L21.254,48.258 C21.742,48.066 24.715,46.887 28.324,44.934 C32.242,42.812 36.621,40.023 38.477,36.559 C40.953,31.93 40.836,24.758 40.27,18.637 C39.707,12.516 38.582,7.453 38.582,7.453 C38.473,6.922 37.992,6.543 37.441,6.559 L37.348,6.559 C30.191,6.531 23.906,4.133 21.711,1.238 C21.547,0.793 21.117,0.496 20.637,0.504 L20.648,0.508 Z M20.629,3.426 C23.773,6.742 29.809,8.609 36.547,8.773 C36.773,9.84 37.559,13.656 38.035,18.84 C38.586,24.805 38.469,31.805 36.492,35.508 C35.137,38.047 31.027,40.922 27.25,42.969 C23.832,44.82 21.059,45.93 20.5,46.152 C19.945,45.934 17.168,44.82 13.75,42.969 C9.977,40.926 5.867,38.047 4.508,35.508 C2.531,31.809 2.414,24.805 2.965,18.84 C3.441,13.66 4.227,9.848 4.453,8.777 C11.309,8.613 17.438,6.75 20.625,3.43 L20.629,3.426 Z" id="Fill-2" sketch:type="MSShapeGroup"></path>
        </g>
    </g>
</svg>