<?xml version="1.0" encoding="UTF-8" standalone="no"?>
<svg width="20px" height="36px" viewBox="0 0 20 36" version="1.1" xmlns="http://www.w3.org/2000/svg" xmlns:xlink="http://www.w3.org/1999/xlink" xmlns:sketch="http://www.bohemiancoding.com/sketch/ns">
    <!-- Generator: Sketch 3.3.2 (12043) - http://www.bohemiancoding.com/sketch -->
    <title>Imported Layers + Imported Layers</title>
    <desc>Created with Sketch.</desc>
    <defs></defs>
    <g id="Page-1" stroke="none" stroke-width="1" fill="none" fill-rule="evenodd" sketch:type="MSPage">
        <g id="iPhone-6" sketch:type="MSArtboardGroup" transform="translate(-55.000000, -145.000000)" fill="#979797">
            <g id="Imported-Layers-+-Imported-Layers" sketch:type="MSLayerGroup" transform="translate(55.000000, 145.000000)">
                <g id="Imported-Layers" sketch:type="MSShapeGroup">
                    <path d="M16.0901156,0 L2.97845875,0 C1.33619838,0 0,1.33619838 0,2.97845875 L0,33.0215413 C0,34.665243 1.33619838,36 2.97845875,36 L16.0901156,36 C17.7323759,36 19.0685743,34.6638016 19.0685743,33.0215413 L19.0685743,2.97845875 C19.0685743,1.33619838 17.7323759,0 16.0901156,0 L16.0901156,0 Z M7.87112618,0.820169234 L11.1988896,0.820169234 C11.3454342,0.820169234 11.4636308,0.938365854 11.4636308,1.08491044 C11.4636308,1.23097456 11.3454342,1.34965166 11.1988896,1.34965166 L7.87112618,1.34965166 C7.72506206,1.34965166 7.60686544,1.23097456 7.60686544,1.08491044 C7.60686544,0.938365854 7.72506206,0.820169234 7.87112618,0.820169234 L7.87112618,0.820169234 Z M11.5592451,34.3015242 C11.5592451,34.6239223 11.2964258,34.8867416 10.9735472,34.8867416 L8.09646852,34.8867416 C7.77358994,34.8867416 7.51077063,34.6239223 7.51077063,34.3015242 L7.51077063,34.0290954 C7.51077063,33.7062168 7.77358994,33.4433975 8.09646852,33.4433975 L10.9735472,33.4433975 C11.2964258,33.4433975 11.5592451,33.7062168 11.5592451,34.0290954 L11.5592451,34.3015242 Z M17.9783787,32.8860476 L1.09019566,32.8860476 L1.09019566,3.20187919 L17.9783787,3.20187919 L17.9783787,32.8860476 Z" id="Fill-19"></path>
                </g>
                <path d="M7.66463329,22.3330074 L4.12799708,18.761866 C3.9563558,18.5878653 3.95753546,18.3079898 4.13035641,18.1363485 C4.30406211,17.9647072 4.58423259,17.9658869 4.75587387,18.1387078 L7.98019373,21.3942888 L15.2448668,14.1296157 C15.4176878,13.9567948 15.6975633,13.9567948 15.8703843,14.1296157 C16.0432052,14.3024367 16.0432052,14.5823122 15.8703843,14.7551332 L8.29251008,22.3353667 C8.20963861,22.4182382 8.09668566,22.46454 7.97901406,22.46454 C7.86045771,22.46454 7.74750477,22.4173534 7.66463329,22.3330074 Z" id="Imported-Layers" sketch:type="MSShapeGroup"></path>
            </g>
        </g>
    </g>
</svg>